  0
SECTION
  2
HEADER
  9
$ACADVER
  1
AC1009
  9
$EXTMIN
 10
0.0
 20
0.0
 30
0.0
  9
$EXTMAX
 10
1000.0
 20
1000.0
 30
0.0
  9
$FILLMODE
 70
 0
  9
$SPLFRAME
 70
 1
  0
ENDSEC
  0
SECTION
  2
TABLES
  0
TABLE
  2
LAYER
 70
1
  0
LAYER
  2
0
 70
     0
 62
     7
  6
CONTINUOUS
  0
ENDTAB
  0
ENDSEC
  0
SECTION
  2
ENTITIES
  0
LINE
  8
0
 62
     14
 10
111.322
 20
154.762
 30
0.0
 11
113.422
 21
154.762
 31
0.0
  0
LINE
  8
0
 62
     14
 10
113.422
 20
154.762
 30
0.0
 11
113.422
 21
152.662
 31
0.0
  0
LINE
  8
0
 62
     14
 10
113.422
 20
152.662
 30
0.0
 11
111.322
 21
152.662
 31
0.0
  0
LINE
  8
0
 62
     14
 10
111.322
 20
152.662
 30
0.0
 11
111.322
 21
154.762
 31
0.0
  0
LINE
  8
0
 62
     14
 10
114.91
 20
153.713
 30
0.0
 11
114.91
 21
153.713
 31
0.0
  0
LINE
  8
0
 62
     14
 10
111.322
 20
106.441
 30
0.0
 11
113.422
 21
106.441
 31
0.0
  0
LINE
  8
0
 62
     14
 10
113.422
 20
106.441
 30
0.0
 11
113.422
 21
104.344
 31
0.0
  0
LINE
  8
0
 62
     14
 10
113.422
 20
104.344
 30
0.0
 11
111.322
 21
104.344
 31
0.0
  0
LINE
  8
0
 62
     14
 10
111.322
 20
104.344
 30
0.0
 11
111.322
 21
106.441
 31
0.0
  0
LINE
  8
0
 62
     14
 10
114.91
 20
105.392
 30
0.0
 11
114.91
 21
105.392
 31
0.0
  0
LINE
  8
0
 62
     14
 10
80.7021
 20
106.441
 30
0.0
 11
82.8022
 21
106.441
 31
0.0
  0
LINE
  8
0
 62
     14
 10
82.8022
 20
106.441
 30
0.0
 11
82.8022
 21
104.344
 31
0.0
  0
LINE
  8
0
 62
     14
 10
82.8022
 20
104.344
 30
0.0
 11
80.7021
 21
104.344
 31
0.0
  0
LINE
  8
0
 62
     14
 10
80.7021
 20
104.344
 30
0.0
 11
80.7021
 21
106.441
 31
0.0
  0
LINE
  8
0
 62
     14
 10
84.292
 20
105.392
 30
0.0
 11
84.292
 21
105.392
 31
0.0
  0
LINE
  8
0
 62
     14
 10
51.416
 20
162.857
 30
0.0
 11
53.516
 21
162.857
 31
0.0
  0
LINE
  8
0
 62
     14
 10
53.516
 20
162.857
 30
0.0
 11
53.516
 21
160.759
 31
0.0
  0
LINE
  8
0
 62
     14
 10
53.516
 20
160.759
 30
0.0
 11
51.416
 21
160.759
 31
0.0
  0
LINE
  8
0
 62
     14
 10
51.416
 20
160.759
 30
0.0
 11
51.416
 21
162.857
 31
0.0
  0
LINE
  8
0
 62
     14
 10
52.4648
 20
159.268
 30
0.0
 11
52.4648
 21
159.268
 31
0.0
  0
LINE
  8
0
 62
     14
 10
55.0044
 20
161.808
 30
0.0
 11
55.0044
 21
161.808
 31
0.0
  0
LINE
  8
0
 62
     14
 10
55.0044
 20
159.268
 30
0.0
 11
55.0044
 21
159.268
 31
0.0
  0
LINE
  8
0
 62
     14
 10
57.5455
 20
161.808
 30
0.0
 11
57.5455
 21
161.808
 31
0.0
  0
LINE
  8
0
 62
     14
 10
57.5455
 20
159.268
 30
0.0
 11
57.5455
 21
159.268
 31
0.0
  0
LINE
  8
0
 62
     14
 10
60.0851
 20
161.808
 30
0.0
 11
60.0851
 21
161.808
 31
0.0
  0
LINE
  8
0
 62
     14
 10
60.0851
 20
159.268
 30
0.0
 11
60.0851
 21
159.268
 31
0.0
  0
LINE
  8
0
 62
     14
 10
62.6251
 20
161.808
 30
0.0
 11
62.6251
 21
161.808
 31
0.0
  0
LINE
  8
0
 62
     14
 10
62.6251
 20
159.268
 30
0.0
 11
62.6251
 21
159.268
 31
0.0
  0
LINE
  8
0
 62
     52
 10
117.205
 20
175.379
 30
0.0
 11
117.205
 21
157.38
 31
0.0
  0
LINE
  8
0
 62
     52
 10
66.2037
 20
175.379
 30
0.0
 11
117.205
 21
175.379
 31
0.0
  0
LINE
  8
0
 62
     52
 10
66.2037
 20
165.38
 30
0.0
 11
66.2037
 21
175.379
 31
0.0
  0
LINE
  8
0
 62
     52
 10
64.2056
 20
138.378
 30
0.0
 11
69.2037
 21
138.378
 31
0.0
  0
LINE
  8
0
 62
     52
 10
64.2056
 20
118.379
 30
0.0
 11
64.2056
 21
138.378
 31
0.0
  0
LINE
  8
0
 62
     52
 10
69.2037
 20
118.379
 30
0.0
 11
64.2056
 21
118.379
 31
0.0
  0
LINE
  8
0
 62
     52
 10
69.2037
 20
138.378
 30
0.0
 11
69.2037
 21
118.379
 31
0.0
  0
LINE
  8
0
 62
     52
 10
117.205
 20
107.381
 30
0.0
 11
111.205
 21
110.381
 31
0.0
  0
LINE
  8
0
 62
     52
 10
117.205
 20
106.38
 30
0.0
 11
117.205
 21
107.381
 31
0.0
  0
LINE
  8
0
 62
     52
 10
88.0251
 20
117.63
 30
0.0
 11
88.0251
 21
117.456
 31
0.0
  0
LINE
  8
0
 62
     52
 10
88.0251
 20
117.456
 30
0.0
 11
87.8858
 21
116.932
 31
0.0
  0
LINE
  8
0
 62
     52
 10
87.8858
 20
116.932
 30
0.0
 11
87.5771
 21
116.428
 31
0.0
  0
LINE
  8
0
 62
     52
 10
87.5771
 20
116.428
 30
0.0
 11
87.4917
 21
116.342
 31
0.0
  0
LINE
  8
0
 62
     52
 10
87.4917
 20
116.342
 30
0.0
 11
87.4063
 21
116.257
 31
0.0
  0
LINE
  8
0
 62
     52
 10
87.4063
 20
116.257
 30
0.0
 11
86.9019
 21
115.948
 31
0.0
  0
LINE
  8
0
 62
     52
 10
86.9019
 20
115.948
 30
0.0
 11
86.3794
 21
115.809
 31
0.0
  0
LINE
  8
0
 62
     52
 10
86.3794
 20
115.809
 30
0.0
 11
86.2058
 21
115.809
 31
0.0
  0
LINE
  8
0
 62
     52
 10
86.2058
 20
115.809
 30
0.0
 11
86.0309
 21
115.809
 31
0.0
  0
LINE
  8
0
 62
     52
 10
86.0309
 20
115.809
 30
0.0
 11
85.5087
 21
115.948
 31
0.0
  0
LINE
  8
0
 62
     52
 10
85.5087
 20
115.948
 30
0.0
 11
85.0029
 21
116.257
 31
0.0
  0
LINE
  8
0
 62
     52
 10
85.0029
 20
116.257
 30
0.0
 11
84.9189
 21
116.342
 31
0.0
  0
LINE
  8
0
 62
     52
 10
84.9189
 20
116.342
 30
0.0
 11
84.8335
 21
116.428
 31
0.0
  0
LINE
  8
0
 62
     52
 10
84.8335
 20
116.428
 30
0.0
 11
84.5234
 21
116.932
 31
0.0
  0
LINE
  8
0
 62
     52
 10
84.5234
 20
116.932
 30
0.0
 11
84.3855
 21
117.456
 31
0.0
  0
LINE
  8
0
 62
     52
 10
84.3855
 20
117.456
 30
0.0
 11
84.3855
 21
117.63
 31
0.0
  0
LINE
  8
0
 62
     52
 10
84.3855
 20
117.63
 30
0.0
 11
84.3855
 21
117.804
 31
0.0
  0
LINE
  8
0
 62
     52
 10
84.3855
 20
117.804
 30
0.0
 11
84.5234
 21
118.327
 31
0.0
  0
LINE
  8
0
 62
     52
 10
84.5234
 20
118.327
 30
0.0
 11
84.8335
 21
118.831
 31
0.0
  0
LINE
  8
0
 62
     52
 10
84.8335
 20
118.831
 30
0.0
 11
84.9189
 21
118.915
 31
0.0
  0
LINE
  8
0
 62
     52
 10
84.9189
 20
118.915
 30
0.0
 11
85.0029
 21
119
 31
0.0
  0
LINE
  8
0
 62
     52
 10
85.0029
 20
119
 30
0.0
 11
85.5087
 21
119.311
 31
0.0
  0
LINE
  8
0
 62
     52
 10
85.5087
 20
119.311
 30
0.0
 11
86.0309
 21
119.448
 31
0.0
  0
LINE
  8
0
 62
     52
 10
86.0309
 20
119.448
 30
0.0
 11
86.2058
 21
119.448
 31
0.0
  0
LINE
  8
0
 62
     52
 10
86.2058
 20
119.448
 30
0.0
 11
86.3794
 21
119.448
 31
0.0
  0
LINE
  8
0
 62
     52
 10
86.3794
 20
119.448
 30
0.0
 11
86.9019
 21
119.311
 31
0.0
  0
LINE
  8
0
 62
     52
 10
86.9019
 20
119.311
 30
0.0
 11
87.4063
 21
119
 31
0.0
  0
LINE
  8
0
 62
     52
 10
87.4063
 20
119
 30
0.0
 11
87.4917
 21
118.915
 31
0.0
  0
LINE
  8
0
 62
     52
 10
87.4917
 20
118.915
 30
0.0
 11
87.5771
 21
118.831
 31
0.0
  0
LINE
  8
0
 62
     52
 10
87.5771
 20
118.831
 30
0.0
 11
87.8858
 21
118.327
 31
0.0
  0
LINE
  8
0
 62
     52
 10
87.8858
 20
118.327
 30
0.0
 11
88.0251
 21
117.804
 31
0.0
  0
LINE
  8
0
 62
     52
 10
88.0251
 20
117.804
 30
0.0
 11
88.0251
 21
117.63
 31
0.0
  0
LINE
  8
0
 62
     52
 10
98.2761
 20
128.379
 30
0.0
 11
98.2761
 21
128.206
 31
0.0
  0
LINE
  8
0
 62
     52
 10
98.2761
 20
128.206
 30
0.0
 11
98.1371
 21
127.682
 31
0.0
  0
LINE
  8
0
 62
     52
 10
98.1371
 20
127.682
 30
0.0
 11
97.827
 21
127.178
 31
0.0
  0
LINE
  8
0
 62
     52
 10
97.827
 20
127.178
 30
0.0
 11
97.7427
 21
127.092
 31
0.0
  0
LINE
  8
0
 62
     52
 10
97.7427
 20
127.092
 30
0.0
 11
97.6574
 21
127.007
 31
0.0
  0
LINE
  8
0
 62
     52
 10
97.6574
 20
127.007
 30
0.0
 11
97.1518
 21
126.698
 31
0.0
  0
LINE
  8
0
 62
     52
 10
97.1518
 20
126.698
 30
0.0
 11
96.6294
 21
126.559
 31
0.0
  0
LINE
  8
0
 62
     52
 10
96.6294
 20
126.559
 30
0.0
 11
96.4558
 21
126.559
 31
0.0
  0
LINE
  8
0
 62
     52
 10
96.4558
 20
126.559
 30
0.0
 11
96.2808
 21
126.559
 31
0.0
  0
LINE
  8
0
 62
     52
 10
96.2808
 20
126.559
 30
0.0
 11
95.7584
 21
126.698
 31
0.0
  0
LINE
  8
0
 62
     52
 10
95.7584
 20
126.698
 30
0.0
 11
95.2542
 21
127.007
 31
0.0
  0
LINE
  8
0
 62
     52
 10
95.2542
 20
127.007
 30
0.0
 11
95.1689
 21
127.092
 31
0.0
  0
LINE
  8
0
 62
     52
 10
95.1689
 20
127.092
 30
0.0
 11
95.0831
 21
127.178
 31
0.0
  0
LINE
  8
0
 62
     52
 10
95.0831
 20
127.178
 30
0.0
 11
94.773
 21
127.682
 31
0.0
  0
LINE
  8
0
 62
     52
 10
94.773
 20
127.682
 30
0.0
 11
94.6355
 21
128.206
 31
0.0
  0
LINE
  8
0
 62
     52
 10
94.6355
 20
128.206
 30
0.0
 11
94.6355
 21
128.379
 31
0.0
  0
LINE
  8
0
 62
     52
 10
94.6355
 20
128.379
 30
0.0
 11
94.6355
 21
128.554
 31
0.0
  0
LINE
  8
0
 62
     52
 10
94.6355
 20
128.554
 30
0.0
 11
94.773
 21
129.075
 31
0.0
  0
LINE
  8
0
 62
     52
 10
94.773
 20
129.075
 30
0.0
 11
95.0831
 21
129.581
 31
0.0
  0
LINE
  8
0
 62
     52
 10
95.0831
 20
129.581
 30
0.0
 11
95.1689
 21
129.665
 31
0.0
  0
LINE
  8
0
 62
     52
 10
95.1689
 20
129.665
 30
0.0
 11
95.2542
 21
129.751
 31
0.0
  0
LINE
  8
0
 62
     52
 10
95.2542
 20
129.751
 30
0.0
 11
95.7584
 21
130.061
 31
0.0
  0
LINE
  8
0
 62
     52
 10
95.7584
 20
130.061
 30
0.0
 11
96.2808
 21
130.198
 31
0.0
  0
LINE
  8
0
 62
     52
 10
96.2808
 20
130.198
 30
0.0
 11
96.4558
 21
130.198
 31
0.0
  0
LINE
  8
0
 62
     52
 10
96.4558
 20
130.198
 30
0.0
 11
96.6294
 21
130.198
 31
0.0
  0
LINE
  8
0
 62
     52
 10
96.6294
 20
130.198
 30
0.0
 11
97.1518
 21
130.061
 31
0.0
  0
LINE
  8
0
 62
     52
 10
97.1518
 20
130.061
 30
0.0
 11
97.6574
 21
129.751
 31
0.0
  0
LINE
  8
0
 62
     52
 10
97.6574
 20
129.751
 30
0.0
 11
97.7427
 21
129.665
 31
0.0
  0
LINE
  8
0
 62
     52
 10
97.7427
 20
129.665
 30
0.0
 11
97.827
 21
129.581
 31
0.0
  0
LINE
  8
0
 62
     52
 10
97.827
 20
129.581
 30
0.0
 11
98.1371
 21
129.075
 31
0.0
  0
LINE
  8
0
 62
     52
 10
98.1371
 20
129.075
 30
0.0
 11
98.2761
 21
128.554
 31
0.0
  0
LINE
  8
0
 62
     52
 10
98.2761
 20
128.554
 30
0.0
 11
98.2761
 21
128.379
 31
0.0
  0
LINE
  8
0
 62
     52
 10
87.7757
 20
138.879
 30
0.0
 11
87.7757
 21
138.705
 31
0.0
  0
LINE
  8
0
 62
     52
 10
87.7757
 20
138.705
 30
0.0
 11
87.6364
 21
138.183
 31
0.0
  0
LINE
  8
0
 62
     52
 10
87.6364
 20
138.183
 30
0.0
 11
87.3277
 21
137.677
 31
0.0
  0
LINE
  8
0
 62
     52
 10
87.3277
 20
137.677
 30
0.0
 11
87.2423
 21
137.591
 31
0.0
  0
LINE
  8
0
 62
     52
 10
87.2423
 20
137.591
 30
0.0
 11
87.1569
 21
137.507
 31
0.0
  0
LINE
  8
0
 62
     52
 10
87.1569
 20
137.507
 30
0.0
 11
86.651
 21
137.197
 31
0.0
  0
LINE
  8
0
 62
     52
 10
86.651
 20
137.197
 30
0.0
 11
86.1289
 21
137.058
 31
0.0
  0
LINE
  8
0
 62
     52
 10
86.1289
 20
137.058
 30
0.0
 11
85.955
 21
137.058
 31
0.0
  0
LINE
  8
0
 62
     52
 10
85.955
 20
137.058
 30
0.0
 11
85.78
 21
137.058
 31
0.0
  0
LINE
  8
0
 62
     52
 10
85.78
 20
137.058
 30
0.0
 11
85.2579
 21
137.197
 31
0.0
  0
LINE
  8
0
 62
     52
 10
85.2579
 20
137.197
 30
0.0
 11
84.7535
 21
137.507
 31
0.0
  0
LINE
  8
0
 62
     52
 10
84.7535
 20
137.507
 30
0.0
 11
84.6681
 21
137.591
 31
0.0
  0
LINE
  8
0
 62
     52
 10
84.6681
 20
137.591
 30
0.0
 11
84.5827
 21
137.677
 31
0.0
  0
LINE
  8
0
 62
     52
 10
84.5827
 20
137.677
 30
0.0
 11
84.2726
 21
138.183
 31
0.0
  0
LINE
  8
0
 62
     52
 10
84.2726
 20
138.183
 30
0.0
 11
84.1347
 21
138.705
 31
0.0
  0
LINE
  8
0
 62
     52
 10
84.1347
 20
138.705
 30
0.0
 11
84.1347
 21
138.879
 31
0.0
  0
LINE
  8
0
 62
     52
 10
84.1347
 20
138.879
 30
0.0
 11
84.1347
 21
139.054
 31
0.0
  0
LINE
  8
0
 62
     52
 10
84.1347
 20
139.054
 30
0.0
 11
84.2726
 21
139.576
 31
0.0
  0
LINE
  8
0
 62
     52
 10
84.2726
 20
139.576
 30
0.0
 11
84.5827
 21
140.08
 31
0.0
  0
LINE
  8
0
 62
     52
 10
84.5827
 20
140.08
 30
0.0
 11
84.6681
 21
140.166
 31
0.0
  0
LINE
  8
0
 62
     52
 10
84.6681
 20
140.166
 30
0.0
 11
84.7535
 21
140.251
 31
0.0
  0
LINE
  8
0
 62
     52
 10
84.7535
 20
140.251
 30
0.0
 11
85.2579
 21
140.561
 31
0.0
  0
LINE
  8
0
 62
     52
 10
85.2579
 20
140.561
 30
0.0
 11
85.78
 21
140.699
 31
0.0
  0
LINE
  8
0
 62
     52
 10
85.78
 20
140.699
 30
0.0
 11
85.955
 21
140.699
 31
0.0
  0
LINE
  8
0
 62
     52
 10
85.955
 20
140.699
 30
0.0
 11
86.1289
 21
140.699
 31
0.0
  0
LINE
  8
0
 62
     52
 10
86.1289
 20
140.699
 30
0.0
 11
86.651
 21
140.561
 31
0.0
  0
LINE
  8
0
 62
     52
 10
86.651
 20
140.561
 30
0.0
 11
87.1569
 21
140.251
 31
0.0
  0
LINE
  8
0
 62
     52
 10
87.1569
 20
140.251
 30
0.0
 11
87.2423
 21
140.166
 31
0.0
  0
LINE
  8
0
 62
     52
 10
87.2423
 20
140.166
 30
0.0
 11
87.3277
 21
140.08
 31
0.0
  0
LINE
  8
0
 62
     52
 10
87.3277
 20
140.08
 30
0.0
 11
87.6364
 21
139.576
 31
0.0
  0
LINE
  8
0
 62
     52
 10
87.6364
 20
139.576
 30
0.0
 11
87.7757
 21
139.054
 31
0.0
  0
LINE
  8
0
 62
     52
 10
87.7757
 20
139.054
 30
0.0
 11
87.7757
 21
138.879
 31
0.0
  0
LINE
  8
0
 62
     52
 10
77.0255
 20
128.379
 30
0.0
 11
77.0255
 21
128.206
 31
0.0
  0
LINE
  8
0
 62
     52
 10
77.0255
 20
128.206
 30
0.0
 11
76.8862
 21
127.682
 31
0.0
  0
LINE
  8
0
 62
     52
 10
76.8862
 20
127.682
 30
0.0
 11
76.5775
 21
127.178
 31
0.0
  0
LINE
  8
0
 62
     52
 10
76.5775
 20
127.178
 30
0.0
 11
76.4921
 21
127.092
 31
0.0
  0
LINE
  8
0
 62
     52
 10
76.4921
 20
127.092
 30
0.0
 11
76.4067
 21
127.007
 31
0.0
  0
LINE
  8
0
 62
     52
 10
76.4067
 20
127.007
 30
0.0
 11
75.9008
 21
126.698
 31
0.0
  0
LINE
  8
0
 62
     52
 10
75.9008
 20
126.698
 30
0.0
 11
75.3787
 21
126.559
 31
0.0
  0
LINE
  8
0
 62
     52
 10
75.3787
 20
126.559
 30
0.0
 11
75.2052
 21
126.559
 31
0.0
  0
LINE
  8
0
 62
     52
 10
75.2052
 20
126.559
 30
0.0
 11
75.0302
 21
126.559
 31
0.0
  0
LINE
  8
0
 62
     52
 10
75.0302
 20
126.559
 30
0.0
 11
74.5077
 21
126.698
 31
0.0
  0
LINE
  8
0
 62
     52
 10
74.5077
 20
126.698
 30
0.0
 11
74.0033
 21
127.007
 31
0.0
  0
LINE
  8
0
 62
     52
 10
74.0033
 20
127.007
 30
0.0
 11
73.9179
 21
127.092
 31
0.0
  0
LINE
  8
0
 62
     52
 10
73.9179
 20
127.092
 30
0.0
 11
73.8325
 21
127.178
 31
0.0
  0
LINE
  8
0
 62
     52
 10
73.8325
 20
127.178
 30
0.0
 11
73.5238
 21
127.682
 31
0.0
  0
LINE
  8
0
 62
     52
 10
73.5238
 20
127.682
 30
0.0
 11
73.3859
 21
128.206
 31
0.0
  0
LINE
  8
0
 62
     52
 10
73.3859
 20
128.206
 30
0.0
 11
73.3859
 21
128.379
 31
0.0
  0
LINE
  8
0
 62
     52
 10
73.3859
 20
128.379
 30
0.0
 11
73.3859
 21
128.554
 31
0.0
  0
LINE
  8
0
 62
     52
 10
73.3859
 20
128.554
 30
0.0
 11
73.5238
 21
129.075
 31
0.0
  0
LINE
  8
0
 62
     52
 10
73.5238
 20
129.075
 30
0.0
 11
73.8325
 21
129.581
 31
0.0
  0
LINE
  8
0
 62
     52
 10
73.8325
 20
129.581
 30
0.0
 11
73.9179
 21
129.665
 31
0.0
  0
LINE
  8
0
 62
     52
 10
73.9179
 20
129.665
 30
0.0
 11
74.0033
 21
129.751
 31
0.0
  0
LINE
  8
0
 62
     52
 10
74.0033
 20
129.751
 30
0.0
 11
74.5077
 21
130.061
 31
0.0
  0
LINE
  8
0
 62
     52
 10
74.5077
 20
130.061
 30
0.0
 11
75.0302
 21
130.198
 31
0.0
  0
LINE
  8
0
 62
     52
 10
75.0302
 20
130.198
 30
0.0
 11
75.2052
 21
130.198
 31
0.0
  0
LINE
  8
0
 62
     52
 10
75.2052
 20
130.198
 30
0.0
 11
75.3787
 21
130.198
 31
0.0
  0
LINE
  8
0
 62
     52
 10
75.3787
 20
130.198
 30
0.0
 11
75.9008
 21
130.061
 31
0.0
  0
LINE
  8
0
 62
     52
 10
75.9008
 20
130.061
 30
0.0
 11
76.4067
 21
129.751
 31
0.0
  0
LINE
  8
0
 62
     52
 10
76.4067
 20
129.751
 30
0.0
 11
76.4921
 21
129.665
 31
0.0
  0
LINE
  8
0
 62
     52
 10
76.4921
 20
129.665
 30
0.0
 11
76.5775
 21
129.581
 31
0.0
  0
LINE
  8
0
 62
     52
 10
76.5775
 20
129.581
 30
0.0
 11
76.8862
 21
129.075
 31
0.0
  0
LINE
  8
0
 62
     52
 10
76.8862
 20
129.075
 30
0.0
 11
77.0255
 21
128.554
 31
0.0
  0
LINE
  8
0
 62
     52
 10
77.0255
 20
128.554
 30
0.0
 11
77.0255
 21
128.379
 31
0.0
  0
LINE
  8
0
 62
     52
 10
90.6279
 20
127.879
 30
0.0
 11
90.6279
 21
127.456
 31
0.0
  0
LINE
  8
0
 62
     52
 10
90.6279
 20
127.456
 30
0.0
 11
90.2903
 21
126.187
 31
0.0
  0
LINE
  8
0
 62
     52
 10
90.2903
 20
126.187
 30
0.0
 11
89.5396
 21
124.959
 31
0.0
  0
LINE
  8
0
 62
     52
 10
89.5396
 20
124.959
 30
0.0
 11
89.3329
 21
124.751
 31
0.0
  0
LINE
  8
0
 62
     52
 10
89.3329
 20
124.751
 30
0.0
 11
89.1247
 21
124.544
 31
0.0
  0
LINE
  8
0
 62
     52
 10
89.1247
 20
124.544
 30
0.0
 11
87.8967
 21
123.793
 31
0.0
  0
LINE
  8
0
 62
     52
 10
87.8967
 20
123.793
 30
0.0
 11
86.6278
 21
123.456
 31
0.0
  0
LINE
  8
0
 62
     52
 10
86.6278
 20
123.456
 30
0.0
 11
86.2058
 21
123.456
 31
0.0
  0
LINE
  8
0
 62
     52
 10
86.2058
 20
123.456
 30
0.0
 11
85.7814
 21
123.456
 31
0.0
  0
LINE
  8
0
 62
     52
 10
85.7814
 20
123.456
 30
0.0
 11
84.5125
 21
123.793
 31
0.0
  0
LINE
  8
0
 62
     52
 10
84.5125
 20
123.793
 30
0.0
 11
83.2845
 21
124.544
 31
0.0
  0
LINE
  8
0
 62
     52
 10
83.2845
 20
124.544
 30
0.0
 11
83.0778
 21
124.751
 31
0.0
  0
LINE
  8
0
 62
     52
 10
83.0778
 20
124.751
 30
0.0
 11
82.8696
 21
124.959
 31
0.0
  0
LINE
  8
0
 62
     52
 10
82.8696
 20
124.959
 30
0.0
 11
82.1186
 21
126.187
 31
0.0
  0
LINE
  8
0
 62
     52
 10
82.1186
 20
126.187
 30
0.0
 11
81.7824
 21
127.456
 31
0.0
  0
LINE
  8
0
 62
     52
 10
81.7824
 20
127.456
 30
0.0
 11
81.7824
 21
127.879
 31
0.0
  0
LINE
  8
0
 62
     52
 10
81.7824
 20
127.879
 30
0.0
 11
81.7824
 21
128.302
 31
0.0
  0
LINE
  8
0
 62
     52
 10
81.7824
 20
128.302
 30
0.0
 11
82.1186
 21
129.571
 31
0.0
  0
LINE
  8
0
 62
     52
 10
82.1186
 20
129.571
 30
0.0
 11
82.8696
 21
130.799
 31
0.0
  0
LINE
  8
0
 62
     52
 10
82.8696
 20
130.799
 30
0.0
 11
83.0778
 21
131.006
 31
0.0
  0
LINE
  8
0
 62
     52
 10
83.0778
 20
131.006
 30
0.0
 11
83.2845
 21
131.214
 31
0.0
  0
LINE
  8
0
 62
     52
 10
83.2845
 20
131.214
 30
0.0
 11
84.5125
 21
131.965
 31
0.0
  0
LINE
  8
0
 62
     52
 10
84.5125
 20
131.965
 30
0.0
 11
85.7814
 21
132.3
 31
0.0
  0
LINE
  8
0
 62
     52
 10
85.7814
 20
132.3
 30
0.0
 11
86.2058
 21
132.3
 31
0.0
  0
LINE
  8
0
 62
     52
 10
86.2058
 20
132.3
 30
0.0
 11
86.6278
 21
132.3
 31
0.0
  0
LINE
  8
0
 62
     52
 10
86.6278
 20
132.3
 30
0.0
 11
87.8967
 21
131.965
 31
0.0
  0
LINE
  8
0
 62
     52
 10
87.8967
 20
131.965
 30
0.0
 11
89.1247
 21
131.214
 31
0.0
  0
LINE
  8
0
 62
     52
 10
89.1247
 20
131.214
 30
0.0
 11
89.3329
 21
131.006
 31
0.0
  0
LINE
  8
0
 62
     52
 10
89.3329
 20
131.006
 30
0.0
 11
89.5396
 21
130.799
 31
0.0
  0
LINE
  8
0
 62
     52
 10
89.5396
 20
130.799
 30
0.0
 11
90.2903
 21
129.571
 31
0.0
  0
LINE
  8
0
 62
     52
 10
90.2903
 20
129.571
 30
0.0
 11
90.6279
 21
128.302
 31
0.0
  0
LINE
  8
0
 62
     52
 10
90.6279
 20
128.302
 30
0.0
 11
90.6279
 21
127.879
 31
0.0
  0
LINE
  8
0
 62
     52
 10
48.4547
 20
135.38
 30
0.0
 11
49.2044
 21
133.38
 31
0.0
  0
LINE
  8
0
 62
     52
 10
48.7027
 20
165.38
 30
0.0
 11
48.4547
 21
135.38
 31
0.0
  0
LINE
  8
0
 62
     52
 10
49.2044
 20
165.38
 30
0.0
 11
48.7027
 21
165.38
 31
0.0
  0
LINE
  8
0
 62
     52
 10
50.2049
 20
130.38
 30
0.0
 11
49.2044
 21
133.38
 31
0.0
  0
LINE
  8
0
 62
     52
 10
50.2049
 20
165.38
 30
0.0
 11
49.2044
 21
165.38
 31
0.0
  0
LINE
  8
0
 62
     52
 10
66.2037
 20
165.38
 30
0.0
 11
50.2049
 21
165.38
 31
0.0
  0
LINE
  8
0
 62
     52
 10
103.704
 20
110.881
 30
0.0
 11
76.2042
 21
110.881
 31
0.0
  0
LINE
  8
0
 62
     52
 10
103.704
 20
108.379
 30
0.0
 11
103.704
 21
110.881
 31
0.0
  0
LINE
  8
0
 62
     52
 10
76.2042
 20
108.379
 30
0.0
 11
103.704
 21
108.379
 31
0.0
  0
LINE
  8
0
 62
     52
 10
76.2042
 20
110.881
 30
0.0
 11
76.2042
 21
108.379
 31
0.0
  0
LINE
  8
0
 62
     52
 10
71.2047
 20
148.379
 30
0.0
 11
71.2047
 21
145.879
 31
0.0
  0
LINE
  8
0
 62
     52
 10
103.704
 20
148.379
 30
0.0
 11
71.2047
 21
148.379
 31
0.0
  0
LINE
  8
0
 62
     52
 10
103.704
 20
145.879
 30
0.0
 11
103.704
 21
148.379
 31
0.0
  0
LINE
  8
0
 62
     52
 10
71.2047
 20
145.879
 30
0.0
 11
103.704
 21
145.879
 31
0.0
  0
LINE
  8
0
 62
     52
 10
108.704
 20
130.881
 30
0.0
 11
103.704
 21
130.881
 31
0.0
  0
LINE
  8
0
 62
     52
 10
108.704
 20
125.88
 30
0.0
 11
108.704
 21
130.881
 31
0.0
  0
LINE
  8
0
 62
     52
 10
103.704
 20
125.88
 30
0.0
 11
108.704
 21
125.88
 31
0.0
  0
LINE
  8
0
 62
     52
 10
103.704
 20
130.881
 30
0.0
 11
103.704
 21
125.88
 31
0.0
  0
LINE
  8
0
 62
     52
 10
71.2047
 20
123.38
 30
0.0
 11
81.2052
 21
123.38
 31
0.0
  0
LINE
  8
0
 62
     52
 10
71.2047
 20
118.379
 30
0.0
 11
71.2047
 21
123.38
 31
0.0
  0
LINE
  8
0
 62
     52
 10
76.2042
 20
113.381
 30
0.0
 11
71.2047
 21
118.379
 31
0.0
  0
LINE
  8
0
 62
     52
 10
81.2052
 20
113.381
 30
0.0
 11
76.2042
 21
113.381
 31
0.0
  0
LINE
  8
0
 62
     52
 10
81.2052
 20
123.38
 30
0.0
 11
81.2052
 21
113.381
 31
0.0
  0
LINE
  8
0
 62
     52
 10
101.205
 20
123.38
 30
0.0
 11
91.2054
 21
123.38
 31
0.0
  0
LINE
  8
0
 62
     52
 10
101.205
 20
118.379
 30
0.0
 11
101.205
 21
123.38
 31
0.0
  0
LINE
  8
0
 62
     52
 10
96.2036
 20
113.381
 30
0.0
 11
101.205
 21
118.379
 31
0.0
  0
LINE
  8
0
 62
     52
 10
91.2054
 20
113.381
 30
0.0
 11
96.2036
 21
113.381
 31
0.0
  0
LINE
  8
0
 62
     52
 10
91.2054
 20
123.38
 30
0.0
 11
91.2054
 21
113.381
 31
0.0
  0
LINE
  8
0
 62
     52
 10
96.2036
 20
143.381
 30
0.0
 11
91.2054
 21
143.381
 31
0.0
  0
LINE
  8
0
 62
     52
 10
101.205
 20
138.378
 30
0.0
 11
96.2036
 21
143.381
 31
0.0
  0
LINE
  8
0
 62
     52
 10
101.205
 20
133.38
 30
0.0
 11
101.205
 21
138.378
 31
0.0
  0
LINE
  8
0
 62
     52
 10
91.2054
 20
133.38
 30
0.0
 11
101.205
 21
133.38
 31
0.0
  0
LINE
  8
0
 62
     52
 10
91.2054
 20
143.381
 30
0.0
 11
91.2054
 21
133.38
 31
0.0
  0
LINE
  8
0
 62
     52
 10
76.2042
 20
143.381
 30
0.0
 11
81.2052
 21
143.381
 31
0.0
  0
LINE
  8
0
 62
     52
 10
71.2047
 20
138.378
 30
0.0
 11
76.2042
 21
143.381
 31
0.0
  0
LINE
  8
0
 62
     52
 10
71.2047
 20
133.38
 30
0.0
 11
71.2047
 21
138.378
 31
0.0
  0
LINE
  8
0
 62
     52
 10
81.2052
 20
133.38
 30
0.0
 11
71.2047
 21
133.38
 31
0.0
  0
LINE
  8
0
 62
     52
 10
81.2052
 20
143.381
 30
0.0
 11
81.2052
 21
133.38
 31
0.0
  0
LINE
  8
0
 62
     52
 10
58.2055
 20
109.381
 30
0.0
 11
50.2049
 21
130.38
 31
0.0
  0
LINE
  8
0
 62
     52
 10
72.2037
 20
109.381
 30
0.0
 11
58.2055
 21
109.381
 31
0.0
  0
LINE
  8
0
 62
     52
 10
77.2047
 20
102.38
 30
0.0
 11
72.2037
 21
109.381
 31
0.0
  0
LINE
  8
0
 62
     52
 10
117.205
 20
102.38
 30
0.0
 11
77.2047
 21
102.38
 31
0.0
  0
LINE
  8
0
 62
     52
 10
117.205
 20
106.38
 30
0.0
 11
117.205
 21
102.38
 31
0.0
  0
LINE
  8
0
 62
     52
 10
111.205
 20
145.379
 30
0.0
 11
111.205
 21
110.381
 31
0.0
  0
LINE
  8
0
 62
     52
 10
117.205
 20
151.382
 30
0.0
 11
111.205
 21
145.379
 31
0.0
  0
LINE
  8
0
 62
     52
 10
117.205
 20
157.38
 30
0.0
 11
117.205
 21
151.382
 31
0.0
  0
LINE
  8
0
 62
     52
 10
72.3237
 20
143.379
 30
0.0
 11
72.3237
 21
143.182
 31
0.0
  0
LINE
  8
0
 62
     52
 10
72.3237
 20
143.182
 30
0.0
 11
72.0478
 21
142.641
 31
0.0
  0
LINE
  8
0
 62
     52
 10
72.0478
 20
142.641
 30
0.0
 11
71.9956
 21
142.589
 31
0.0
  0
LINE
  8
0
 62
     52
 10
71.9956
 20
142.589
 30
0.0
 11
71.9434
 21
142.536
 31
0.0
  0
LINE
  8
0
 62
     52
 10
71.9434
 20
142.536
 30
0.0
 11
71.3892
 21
142.26
 31
0.0
  0
LINE
  8
0
 62
     52
 10
71.3892
 20
142.26
 30
0.0
 11
71.2061
 21
142.26
 31
0.0
  0
LINE
  8
0
 62
     52
 10
71.2061
 20
142.26
 30
0.0
 11
71.0075
 21
142.26
 31
0.0
  0
LINE
  8
0
 62
     52
 10
71.0075
 20
142.26
 30
0.0
 11
70.4674
 21
142.536
 31
0.0
  0
LINE
  8
0
 62
     52
 10
70.4674
 20
142.536
 30
0.0
 11
70.4152
 21
142.589
 31
0.0
  0
LINE
  8
0
 62
     52
 10
70.4152
 20
142.589
 30
0.0
 11
70.3626
 21
142.641
 31
0.0
  0
LINE
  8
0
 62
     52
 10
70.3626
 20
142.641
 30
0.0
 11
70.0871
 21
143.195
 31
0.0
  0
LINE
  8
0
 62
     52
 10
70.0871
 20
143.195
 30
0.0
 11
70.0871
 21
143.379
 31
0.0
  0
LINE
  8
0
 62
     52
 10
70.0871
 20
143.379
 30
0.0
 11
70.0871
 21
143.578
 31
0.0
  0
LINE
  8
0
 62
     52
 10
70.0871
 20
143.578
 30
0.0
 11
70.3626
 21
144.117
 31
0.0
  0
LINE
  8
0
 62
     52
 10
70.3626
 20
144.117
 30
0.0
 11
70.4152
 21
144.169
 31
0.0
  0
LINE
  8
0
 62
     52
 10
70.4152
 20
144.169
 30
0.0
 11
70.4674
 21
144.221
 31
0.0
  0
LINE
  8
0
 62
     52
 10
70.4674
 20
144.221
 30
0.0
 11
71.0212
 21
144.497
 31
0.0
  0
LINE
  8
0
 62
     52
 10
71.0212
 20
144.497
 30
0.0
 11
71.2061
 21
144.497
 31
0.0
  0
LINE
  8
0
 62
     52
 10
71.2061
 20
144.497
 30
0.0
 11
71.4029
 21
144.497
 31
0.0
  0
LINE
  8
0
 62
     52
 10
71.4029
 20
144.497
 30
0.0
 11
71.9434
 21
144.221
 31
0.0
  0
LINE
  8
0
 62
     52
 10
71.9434
 20
144.221
 30
0.0
 11
71.9956
 21
144.169
 31
0.0
  0
LINE
  8
0
 62
     52
 10
71.9956
 20
144.169
 30
0.0
 11
72.0478
 21
144.117
 31
0.0
  0
LINE
  8
0
 62
     52
 10
72.0478
 20
144.117
 30
0.0
 11
72.3237
 21
143.564
 31
0.0
  0
LINE
  8
0
 62
     52
 10
72.3237
 20
143.564
 30
0.0
 11
72.3237
 21
143.379
 31
0.0
  0
LINE
  8
0
 62
     52
 10
72.3237
 20
113.38
 30
0.0
 11
72.3237
 21
113.182
 31
0.0
  0
LINE
  8
0
 62
     52
 10
72.3237
 20
113.182
 30
0.0
 11
72.0478
 21
112.641
 31
0.0
  0
LINE
  8
0
 62
     52
 10
72.0478
 20
112.641
 30
0.0
 11
71.9956
 21
112.588
 31
0.0
  0
LINE
  8
0
 62
     52
 10
71.9956
 20
112.588
 30
0.0
 11
71.9434
 21
112.536
 31
0.0
  0
LINE
  8
0
 62
     52
 10
71.9434
 20
112.536
 30
0.0
 11
71.3892
 21
112.261
 31
0.0
  0
LINE
  8
0
 62
     52
 10
71.3892
 20
112.261
 30
0.0
 11
71.2061
 21
112.261
 31
0.0
  0
LINE
  8
0
 62
     52
 10
71.2061
 20
112.261
 30
0.0
 11
71.0075
 21
112.261
 31
0.0
  0
LINE
  8
0
 62
     52
 10
71.0075
 20
112.261
 30
0.0
 11
70.4674
 21
112.536
 31
0.0
  0
LINE
  8
0
 62
     52
 10
70.4674
 20
112.536
 30
0.0
 11
70.4152
 21
112.588
 31
0.0
  0
LINE
  8
0
 62
     52
 10
70.4152
 20
112.588
 30
0.0
 11
70.3626
 21
112.641
 31
0.0
  0
LINE
  8
0
 62
     52
 10
70.3626
 20
112.641
 30
0.0
 11
70.0871
 21
113.195
 31
0.0
  0
LINE
  8
0
 62
     52
 10
70.0871
 20
113.195
 30
0.0
 11
70.0871
 21
113.38
 31
0.0
  0
LINE
  8
0
 62
     52
 10
70.0871
 20
113.38
 30
0.0
 11
70.0871
 21
113.578
 31
0.0
  0
LINE
  8
0
 62
     52
 10
70.0871
 20
113.578
 30
0.0
 11
70.3626
 21
114.117
 31
0.0
  0
LINE
  8
0
 62
     52
 10
70.3626
 20
114.117
 30
0.0
 11
70.4152
 21
114.169
 31
0.0
  0
LINE
  8
0
 62
     52
 10
70.4152
 20
114.169
 30
0.0
 11
70.4674
 21
114.221
 31
0.0
  0
LINE
  8
0
 62
     52
 10
70.4674
 20
114.221
 30
0.0
 11
71.0212
 21
114.497
 31
0.0
  0
LINE
  8
0
 62
     52
 10
71.0212
 20
114.497
 30
0.0
 11
71.2061
 21
114.497
 31
0.0
  0
LINE
  8
0
 62
     52
 10
71.2061
 20
114.497
 30
0.0
 11
71.4029
 21
114.497
 31
0.0
  0
LINE
  8
0
 62
     52
 10
71.4029
 20
114.497
 30
0.0
 11
71.9434
 21
114.221
 31
0.0
  0
LINE
  8
0
 62
     52
 10
71.9434
 20
114.221
 30
0.0
 11
71.9956
 21
114.169
 31
0.0
  0
LINE
  8
0
 62
     52
 10
71.9956
 20
114.169
 30
0.0
 11
72.0478
 21
114.117
 31
0.0
  0
LINE
  8
0
 62
     52
 10
72.0478
 20
114.117
 30
0.0
 11
72.3237
 21
113.564
 31
0.0
  0
LINE
  8
0
 62
     52
 10
72.3237
 20
113.564
 30
0.0
 11
72.3237
 21
113.38
 31
0.0
  0
LINE
  8
0
 62
     52
 10
102.324
 20
113.38
 30
0.0
 11
102.324
 21
113.182
 31
0.0
  0
LINE
  8
0
 62
     52
 10
102.324
 20
113.182
 30
0.0
 11
102.048
 21
112.641
 31
0.0
  0
LINE
  8
0
 62
     52
 10
102.048
 20
112.641
 30
0.0
 11
101.995
 21
112.588
 31
0.0
  0
LINE
  8
0
 62
     52
 10
101.995
 20
112.588
 30
0.0
 11
101.943
 21
112.536
 31
0.0
  0
LINE
  8
0
 62
     52
 10
101.943
 20
112.536
 30
0.0
 11
101.389
 21
112.261
 31
0.0
  0
LINE
  8
0
 62
     52
 10
101.389
 20
112.261
 30
0.0
 11
101.206
 21
112.261
 31
0.0
  0
LINE
  8
0
 62
     52
 10
101.206
 20
112.261
 30
0.0
 11
101.007
 21
112.261
 31
0.0
  0
LINE
  8
0
 62
     52
 10
101.007
 20
112.261
 30
0.0
 11
100.467
 21
112.536
 31
0.0
  0
LINE
  8
0
 62
     52
 10
100.467
 20
112.536
 30
0.0
 11
100.415
 21
112.588
 31
0.0
  0
LINE
  8
0
 62
     52
 10
100.415
 20
112.588
 30
0.0
 11
100.362
 21
112.641
 31
0.0
  0
LINE
  8
0
 62
     52
 10
100.362
 20
112.641
 30
0.0
 11
100.087
 21
113.195
 31
0.0
  0
LINE
  8
0
 62
     52
 10
100.087
 20
113.195
 30
0.0
 11
100.087
 21
113.38
 31
0.0
  0
LINE
  8
0
 62
     52
 10
100.087
 20
113.38
 30
0.0
 11
100.087
 21
113.578
 31
0.0
  0
LINE
  8
0
 62
     52
 10
100.087
 20
113.578
 30
0.0
 11
100.362
 21
114.117
 31
0.0
  0
LINE
  8
0
 62
     52
 10
100.362
 20
114.117
 30
0.0
 11
100.415
 21
114.169
 31
0.0
  0
LINE
  8
0
 62
     52
 10
100.415
 20
114.169
 30
0.0
 11
100.467
 21
114.221
 31
0.0
  0
LINE
  8
0
 62
     52
 10
100.467
 20
114.221
 30
0.0
 11
101.021
 21
114.497
 31
0.0
  0
LINE
  8
0
 62
     52
 10
101.021
 20
114.497
 30
0.0
 11
101.206
 21
114.497
 31
0.0
  0
LINE
  8
0
 62
     52
 10
101.206
 20
114.497
 30
0.0
 11
101.403
 21
114.497
 31
0.0
  0
LINE
  8
0
 62
     52
 10
101.403
 20
114.497
 30
0.0
 11
101.943
 21
114.221
 31
0.0
  0
LINE
  8
0
 62
     52
 10
101.943
 20
114.221
 30
0.0
 11
101.995
 21
114.169
 31
0.0
  0
LINE
  8
0
 62
     52
 10
101.995
 20
114.169
 30
0.0
 11
102.048
 21
114.117
 31
0.0
  0
LINE
  8
0
 62
     52
 10
102.048
 20
114.117
 30
0.0
 11
102.324
 21
113.564
 31
0.0
  0
LINE
  8
0
 62
     52
 10
102.324
 20
113.564
 30
0.0
 11
102.324
 21
113.38
 31
0.0
  0
LINE
  8
0
 62
     52
 10
102.324
 20
143.379
 30
0.0
 11
102.324
 21
143.182
 31
0.0
  0
LINE
  8
0
 62
     52
 10
102.324
 20
143.182
 30
0.0
 11
102.048
 21
142.641
 31
0.0
  0
LINE
  8
0
 62
     52
 10
102.048
 20
142.641
 30
0.0
 11
101.995
 21
142.589
 31
0.0
  0
LINE
  8
0
 62
     52
 10
101.995
 20
142.589
 30
0.0
 11
101.943
 21
142.536
 31
0.0
  0
LINE
  8
0
 62
     52
 10
101.943
 20
142.536
 30
0.0
 11
101.389
 21
142.26
 31
0.0
  0
LINE
  8
0
 62
     52
 10
101.389
 20
142.26
 30
0.0
 11
101.206
 21
142.26
 31
0.0
  0
LINE
  8
0
 62
     52
 10
101.206
 20
142.26
 30
0.0
 11
101.007
 21
142.26
 31
0.0
  0
LINE
  8
0
 62
     52
 10
101.007
 20
142.26
 30
0.0
 11
100.467
 21
142.536
 31
0.0
  0
LINE
  8
0
 62
     52
 10
100.467
 20
142.536
 30
0.0
 11
100.415
 21
142.589
 31
0.0
  0
LINE
  8
0
 62
     52
 10
100.415
 20
142.589
 30
0.0
 11
100.362
 21
142.641
 31
0.0
  0
LINE
  8
0
 62
     52
 10
100.362
 20
142.641
 30
0.0
 11
100.087
 21
143.195
 31
0.0
  0
LINE
  8
0
 62
     52
 10
100.087
 20
143.195
 30
0.0
 11
100.087
 21
143.379
 31
0.0
  0
LINE
  8
0
 62
     52
 10
100.087
 20
143.379
 30
0.0
 11
100.087
 21
143.578
 31
0.0
  0
LINE
  8
0
 62
     52
 10
100.087
 20
143.578
 30
0.0
 11
100.362
 21
144.117
 31
0.0
  0
LINE
  8
0
 62
     52
 10
100.362
 20
144.117
 30
0.0
 11
100.415
 21
144.169
 31
0.0
  0
LINE
  8
0
 62
     52
 10
100.415
 20
144.169
 30
0.0
 11
100.467
 21
144.221
 31
0.0
  0
LINE
  8
0
 62
     52
 10
100.467
 20
144.221
 30
0.0
 11
101.021
 21
144.497
 31
0.0
  0
LINE
  8
0
 62
     52
 10
101.021
 20
144.497
 30
0.0
 11
101.206
 21
144.497
 31
0.0
  0
LINE
  8
0
 62
     52
 10
101.206
 20
144.497
 30
0.0
 11
101.403
 21
144.497
 31
0.0
  0
LINE
  8
0
 62
     52
 10
101.403
 20
144.497
 30
0.0
 11
101.943
 21
144.221
 31
0.0
  0
LINE
  8
0
 62
     52
 10
101.943
 20
144.221
 30
0.0
 11
101.995
 21
144.169
 31
0.0
  0
LINE
  8
0
 62
     52
 10
101.995
 20
144.169
 30
0.0
 11
102.048
 21
144.117
 31
0.0
  0
LINE
  8
0
 62
     52
 10
102.048
 20
144.117
 30
0.0
 11
102.324
 21
143.564
 31
0.0
  0
LINE
  8
0
 62
     52
 10
102.324
 20
143.564
 30
0.0
 11
102.324
 21
143.379
 31
0.0
  0
ENDSEC
  0
EOF
