G04 #@! TF.FileFunction,Other,Fab,Top*
%FSLAX46Y46*%
G04 Gerber Fmt 4.6, Leading zero omitted, Abs format (unit mm)*
G04 Created by KiCad (PCBNEW 4.0.7) date Monday, July 02, 2018 'PMt' 09:22:05 PM*
%MOMM*%
%LPD*%
G01*
G04 APERTURE LIST*
%ADD10C,0.100000*%
%ADD11C,0.200000*%
%ADD12C,0.150000*%
%ADD13C,0.075000*%
G04 APERTURE END LIST*
D10*
D11*
X169545000Y-173304200D02*
X235585000Y-173304200D01*
X235585000Y-170764200D02*
X235585000Y-173304200D01*
X235585000Y-170764200D02*
X240538000Y-167081200D01*
X235585000Y-132664200D02*
X240538000Y-137490200D01*
X240538000Y-137490200D02*
X240538000Y-145364200D01*
X240538000Y-145364200D02*
X240538000Y-167081200D01*
X235585000Y-132664200D02*
X235585000Y-121234200D01*
X235585000Y-121234200D02*
X234315000Y-119964200D01*
X234315000Y-119964200D02*
X169545000Y-119964200D01*
X169545000Y-173304200D02*
X169545000Y-119964200D01*
D10*
X199170000Y-115900000D02*
X197930000Y-115900000D01*
X199170000Y-113900000D02*
X199170000Y-115900000D01*
X197930000Y-113900000D02*
X199170000Y-113900000D01*
X197930000Y-115900000D02*
X197930000Y-113900000D01*
X183600000Y-142080000D02*
X183600000Y-143320000D01*
X181600000Y-142080000D02*
X183600000Y-142080000D01*
X181600000Y-143320000D02*
X181600000Y-142080000D01*
X183600000Y-143320000D02*
X181600000Y-143320000D01*
X194453000Y-141463000D02*
X194453000Y-140223000D01*
X196453000Y-141463000D02*
X194453000Y-141463000D01*
X196453000Y-140223000D02*
X196453000Y-141463000D01*
X194453000Y-140223000D02*
X196453000Y-140223000D01*
X233661000Y-118345000D02*
X233661000Y-119145000D01*
X233661000Y-118745000D02*
X234261000Y-118345000D01*
X234261000Y-119145000D02*
X233661000Y-118745000D01*
X234261000Y-118345000D02*
X234261000Y-119145000D01*
X235061000Y-119345000D02*
X233061000Y-119345000D01*
X235061000Y-118145000D02*
X235061000Y-119345000D01*
X233061000Y-118145000D02*
X235061000Y-118145000D01*
X233061000Y-119345000D02*
X233061000Y-118145000D01*
X233315000Y-117460000D02*
X233315000Y-116220000D01*
X235315000Y-117460000D02*
X233315000Y-117460000D01*
X235315000Y-116220000D02*
X235315000Y-117460000D01*
X233315000Y-116220000D02*
X235315000Y-116220000D01*
X183250000Y-147280000D02*
X183250000Y-148520000D01*
X181250000Y-147280000D02*
X183250000Y-147280000D01*
X181250000Y-148520000D02*
X181250000Y-147280000D01*
X183250000Y-148520000D02*
X181250000Y-148520000D01*
X232095800Y-151546800D02*
X232095800Y-150306800D01*
X234095800Y-151546800D02*
X232095800Y-151546800D01*
X234095800Y-150306800D02*
X234095800Y-151546800D01*
X232095800Y-150306800D02*
X234095800Y-150306800D01*
X234197400Y-152516600D02*
X234197400Y-153756600D01*
X232197400Y-152516600D02*
X234197400Y-152516600D01*
X232197400Y-153756600D02*
X232197400Y-152516600D01*
X234197400Y-153756600D02*
X232197400Y-153756600D01*
X196350000Y-114050000D02*
X196350000Y-116950000D01*
X196350000Y-116950000D02*
X191450000Y-116950000D01*
X191450000Y-116950000D02*
X191450000Y-113050000D01*
X191450000Y-113050000D02*
X195350000Y-113050000D01*
X195350000Y-113050000D02*
X196350000Y-114050000D01*
D12*
X188258600Y-141276000D02*
X191658600Y-141276000D01*
X191658600Y-141276000D02*
X191658600Y-147776000D01*
X191658600Y-147776000D02*
X187258600Y-147776000D01*
X187258600Y-147776000D02*
X187258600Y-142276000D01*
X187258600Y-142276000D02*
X188258600Y-141276000D01*
D10*
X189849000Y-114674000D02*
X189849000Y-115914000D01*
X187849000Y-114674000D02*
X189849000Y-114674000D01*
X187849000Y-115914000D02*
X187849000Y-114674000D01*
X189849000Y-115914000D02*
X187849000Y-115914000D01*
X189849000Y-116833000D02*
X189849000Y-118073000D01*
X187849000Y-116833000D02*
X189849000Y-116833000D01*
X187849000Y-118073000D02*
X187849000Y-116833000D01*
X189849000Y-118073000D02*
X187849000Y-118073000D01*
X216900000Y-174270000D02*
X216900000Y-173030000D01*
X218900000Y-174270000D02*
X216900000Y-174270000D01*
X218900000Y-173030000D02*
X218900000Y-174270000D01*
X216900000Y-173030000D02*
X218900000Y-173030000D01*
X183185143Y-159238905D02*
X183185143Y-158438905D01*
X183375619Y-158438905D01*
X183489905Y-158477000D01*
X183566096Y-158553190D01*
X183604191Y-158629381D01*
X183642286Y-158781762D01*
X183642286Y-158896048D01*
X183604191Y-159048429D01*
X183566096Y-159124619D01*
X183489905Y-159200810D01*
X183375619Y-159238905D01*
X183185143Y-159238905D01*
X183985143Y-159238905D02*
X183985143Y-158438905D01*
X184175619Y-158438905D01*
X184289905Y-158477000D01*
X184366096Y-158553190D01*
X184404191Y-158629381D01*
X184442286Y-158781762D01*
X184442286Y-158896048D01*
X184404191Y-159048429D01*
X184366096Y-159124619D01*
X184289905Y-159200810D01*
X184175619Y-159238905D01*
X183985143Y-159238905D01*
X184937524Y-158438905D02*
X185013715Y-158438905D01*
X185089905Y-158477000D01*
X185128000Y-158515095D01*
X185166096Y-158591286D01*
X185204191Y-158743667D01*
X185204191Y-158934143D01*
X185166096Y-159086524D01*
X185128000Y-159162714D01*
X185089905Y-159200810D01*
X185013715Y-159238905D01*
X184937524Y-159238905D01*
X184861334Y-159200810D01*
X184823238Y-159162714D01*
X184785143Y-159086524D01*
X184747048Y-158934143D01*
X184747048Y-158743667D01*
X184785143Y-158591286D01*
X184823238Y-158515095D01*
X184861334Y-158477000D01*
X184937524Y-158438905D01*
X185889905Y-158438905D02*
X185737524Y-158438905D01*
X185661334Y-158477000D01*
X185623239Y-158515095D01*
X185547048Y-158629381D01*
X185508953Y-158781762D01*
X185508953Y-159086524D01*
X185547048Y-159162714D01*
X185585143Y-159200810D01*
X185661334Y-159238905D01*
X185813715Y-159238905D01*
X185889905Y-159200810D01*
X185928001Y-159162714D01*
X185966096Y-159086524D01*
X185966096Y-158896048D01*
X185928001Y-158819857D01*
X185889905Y-158781762D01*
X185813715Y-158743667D01*
X185661334Y-158743667D01*
X185585143Y-158781762D01*
X185547048Y-158819857D01*
X185508953Y-158896048D01*
X186270858Y-159010333D02*
X186651810Y-159010333D01*
X186194667Y-159238905D02*
X186461334Y-158438905D01*
X186728001Y-159238905D01*
X187223239Y-158438905D02*
X187223239Y-159010333D01*
X187185143Y-159124619D01*
X187108953Y-159200810D01*
X186994667Y-159238905D01*
X186918477Y-159238905D01*
X187566096Y-159200810D02*
X187680382Y-159238905D01*
X187870858Y-159238905D01*
X187947048Y-159200810D01*
X187985144Y-159162714D01*
X188023239Y-159086524D01*
X188023239Y-159010333D01*
X187985144Y-158934143D01*
X187947048Y-158896048D01*
X187870858Y-158857952D01*
X187718477Y-158819857D01*
X187642286Y-158781762D01*
X187604191Y-158743667D01*
X187566096Y-158667476D01*
X187566096Y-158591286D01*
X187604191Y-158515095D01*
X187642286Y-158477000D01*
X187718477Y-158438905D01*
X187908953Y-158438905D01*
X188023239Y-158477000D01*
X188328001Y-159010333D02*
X188708953Y-159010333D01*
X188251810Y-159238905D02*
X188518477Y-158438905D01*
X188785144Y-159238905D01*
D12*
X190841381Y-164972905D02*
X191650905Y-164972905D01*
X191746143Y-164925286D01*
X191793762Y-164877667D01*
X191841381Y-164782429D01*
X191841381Y-164591952D01*
X191793762Y-164496714D01*
X191746143Y-164449095D01*
X191650905Y-164401476D01*
X190841381Y-164401476D01*
X190936619Y-163972905D02*
X190889000Y-163925286D01*
X190841381Y-163830048D01*
X190841381Y-163591952D01*
X190889000Y-163496714D01*
X190936619Y-163449095D01*
X191031857Y-163401476D01*
X191127095Y-163401476D01*
X191269952Y-163449095D01*
X191841381Y-164020524D01*
X191841381Y-163401476D01*
D10*
X201454524Y-145066105D02*
X201987857Y-145866105D01*
X201987857Y-145066105D02*
X201454524Y-145866105D01*
X202254524Y-145637533D02*
X202635476Y-145637533D01*
X202178333Y-145866105D02*
X202445000Y-145066105D01*
X202711667Y-145866105D01*
X202940238Y-145142295D02*
X202978333Y-145104200D01*
X203054524Y-145066105D01*
X203245000Y-145066105D01*
X203321190Y-145104200D01*
X203359286Y-145142295D01*
X203397381Y-145218486D01*
X203397381Y-145294676D01*
X203359286Y-145408962D01*
X202902143Y-145866105D01*
X203397381Y-145866105D01*
X200585714Y-114652381D02*
X200623810Y-114690476D01*
X200661905Y-114804762D01*
X200661905Y-114880952D01*
X200623810Y-114995238D01*
X200547619Y-115071429D01*
X200471429Y-115109524D01*
X200319048Y-115147619D01*
X200204762Y-115147619D01*
X200052381Y-115109524D01*
X199976190Y-115071429D01*
X199900000Y-114995238D01*
X199861905Y-114880952D01*
X199861905Y-114804762D01*
X199900000Y-114690476D01*
X199938095Y-114652381D01*
D12*
X197407143Y-115066666D02*
X197454762Y-115114285D01*
X197502381Y-115257142D01*
X197502381Y-115352380D01*
X197454762Y-115495238D01*
X197359524Y-115590476D01*
X197264286Y-115638095D01*
X197073810Y-115685714D01*
X196930952Y-115685714D01*
X196740476Y-115638095D01*
X196645238Y-115590476D01*
X196550000Y-115495238D01*
X196502381Y-115352380D01*
X196502381Y-115257142D01*
X196550000Y-115114285D01*
X196597619Y-115066666D01*
X196502381Y-114161904D02*
X196502381Y-114638095D01*
X196978571Y-114685714D01*
X196930952Y-114638095D01*
X196883333Y-114542857D01*
X196883333Y-114304761D01*
X196930952Y-114209523D01*
X196978571Y-114161904D01*
X197073810Y-114114285D01*
X197311905Y-114114285D01*
X197407143Y-114161904D01*
X197454762Y-114209523D01*
X197502381Y-114304761D01*
X197502381Y-114542857D01*
X197454762Y-114638095D01*
X197407143Y-114685714D01*
X182433334Y-144557143D02*
X182385715Y-144604762D01*
X182242858Y-144652381D01*
X182147620Y-144652381D01*
X182004762Y-144604762D01*
X181909524Y-144509524D01*
X181861905Y-144414286D01*
X181814286Y-144223810D01*
X181814286Y-144080952D01*
X181861905Y-143890476D01*
X181909524Y-143795238D01*
X182004762Y-143700000D01*
X182147620Y-143652381D01*
X182242858Y-143652381D01*
X182385715Y-143700000D01*
X182433334Y-143747619D01*
X183290477Y-143652381D02*
X183100000Y-143652381D01*
X183004762Y-143700000D01*
X182957143Y-143747619D01*
X182861905Y-143890476D01*
X182814286Y-144080952D01*
X182814286Y-144461905D01*
X182861905Y-144557143D01*
X182909524Y-144604762D01*
X183004762Y-144652381D01*
X183195239Y-144652381D01*
X183290477Y-144604762D01*
X183338096Y-144557143D01*
X183385715Y-144461905D01*
X183385715Y-144223810D01*
X183338096Y-144128571D01*
X183290477Y-144080952D01*
X183195239Y-144033333D01*
X183004762Y-144033333D01*
X182909524Y-144080952D01*
X182861905Y-144128571D01*
X182814286Y-144223810D01*
X195286334Y-139700143D02*
X195238715Y-139747762D01*
X195095858Y-139795381D01*
X195000620Y-139795381D01*
X194857762Y-139747762D01*
X194762524Y-139652524D01*
X194714905Y-139557286D01*
X194667286Y-139366810D01*
X194667286Y-139223952D01*
X194714905Y-139033476D01*
X194762524Y-138938238D01*
X194857762Y-138843000D01*
X195000620Y-138795381D01*
X195095858Y-138795381D01*
X195238715Y-138843000D01*
X195286334Y-138890619D01*
X195619667Y-138795381D02*
X196286334Y-138795381D01*
X195857762Y-139795381D01*
D10*
X233546715Y-120656905D02*
X233165762Y-120656905D01*
X233165762Y-119856905D01*
X233813381Y-120237857D02*
X234080048Y-120237857D01*
X234194334Y-120656905D02*
X233813381Y-120656905D01*
X233813381Y-119856905D01*
X234194334Y-119856905D01*
X234537191Y-120656905D02*
X234537191Y-119856905D01*
X234727667Y-119856905D01*
X234841953Y-119895000D01*
X234918144Y-119971190D01*
X234956239Y-120047381D01*
X234994334Y-120199762D01*
X234994334Y-120314048D01*
X234956239Y-120466429D01*
X234918144Y-120542619D01*
X234841953Y-120618810D01*
X234727667Y-120656905D01*
X234537191Y-120656905D01*
X233765762Y-117675952D02*
X233765762Y-117275952D01*
X233861000Y-117275952D01*
X233918143Y-117295000D01*
X233956238Y-117333095D01*
X233975286Y-117371190D01*
X233994334Y-117447381D01*
X233994334Y-117504524D01*
X233975286Y-117580714D01*
X233956238Y-117618810D01*
X233918143Y-117656905D01*
X233861000Y-117675952D01*
X233765762Y-117675952D01*
X234375286Y-117675952D02*
X234146714Y-117675952D01*
X234261000Y-117675952D02*
X234261000Y-117275952D01*
X234222905Y-117333095D01*
X234184810Y-117371190D01*
X234146714Y-117390238D01*
D13*
X234231667Y-117066190D02*
X234065000Y-116828095D01*
X233945953Y-117066190D02*
X233945953Y-116566190D01*
X234136429Y-116566190D01*
X234184048Y-116590000D01*
X234207857Y-116613810D01*
X234231667Y-116661429D01*
X234231667Y-116732857D01*
X234207857Y-116780476D01*
X234184048Y-116804286D01*
X234136429Y-116828095D01*
X233945953Y-116828095D01*
X234707857Y-117066190D02*
X234422143Y-117066190D01*
X234565000Y-117066190D02*
X234565000Y-116566190D01*
X234517381Y-116637619D01*
X234469762Y-116685238D01*
X234422143Y-116709048D01*
X182166667Y-148126190D02*
X182000000Y-147888095D01*
X181880953Y-148126190D02*
X181880953Y-147626190D01*
X182071429Y-147626190D01*
X182119048Y-147650000D01*
X182142857Y-147673810D01*
X182166667Y-147721429D01*
X182166667Y-147792857D01*
X182142857Y-147840476D01*
X182119048Y-147864286D01*
X182071429Y-147888095D01*
X181880953Y-147888095D01*
X182357143Y-147673810D02*
X182380953Y-147650000D01*
X182428572Y-147626190D01*
X182547619Y-147626190D01*
X182595238Y-147650000D01*
X182619048Y-147673810D01*
X182642857Y-147721429D01*
X182642857Y-147769048D01*
X182619048Y-147840476D01*
X182333334Y-148126190D01*
X182642857Y-148126190D01*
X233012467Y-151152990D02*
X232845800Y-150914895D01*
X232726753Y-151152990D02*
X232726753Y-150652990D01*
X232917229Y-150652990D01*
X232964848Y-150676800D01*
X232988657Y-150700610D01*
X233012467Y-150748229D01*
X233012467Y-150819657D01*
X232988657Y-150867276D01*
X232964848Y-150891086D01*
X232917229Y-150914895D01*
X232726753Y-150914895D01*
X233179134Y-150652990D02*
X233488657Y-150652990D01*
X233321991Y-150843467D01*
X233393419Y-150843467D01*
X233441038Y-150867276D01*
X233464848Y-150891086D01*
X233488657Y-150938705D01*
X233488657Y-151057752D01*
X233464848Y-151105371D01*
X233441038Y-151129181D01*
X233393419Y-151152990D01*
X233250562Y-151152990D01*
X233202943Y-151129181D01*
X233179134Y-151105371D01*
X233114067Y-153362790D02*
X232947400Y-153124695D01*
X232828353Y-153362790D02*
X232828353Y-152862790D01*
X233018829Y-152862790D01*
X233066448Y-152886600D01*
X233090257Y-152910410D01*
X233114067Y-152958029D01*
X233114067Y-153029457D01*
X233090257Y-153077076D01*
X233066448Y-153100886D01*
X233018829Y-153124695D01*
X232828353Y-153124695D01*
X233542638Y-153029457D02*
X233542638Y-153362790D01*
X233423591Y-152838981D02*
X233304543Y-153196124D01*
X233614067Y-153196124D01*
D10*
X190038095Y-117476191D02*
X190000000Y-117438096D01*
X189961905Y-117361905D01*
X189961905Y-117171429D01*
X190000000Y-117095239D01*
X190038095Y-117057143D01*
X190114286Y-117019048D01*
X190190476Y-117019048D01*
X190304762Y-117057143D01*
X190761905Y-117514286D01*
X190761905Y-117019048D01*
X190228571Y-116333334D02*
X190761905Y-116333334D01*
X189923810Y-116523810D02*
X190495238Y-116714286D01*
X190495238Y-116219048D01*
X190761905Y-115533333D02*
X190761905Y-115914286D01*
X189961905Y-115914286D01*
X190685714Y-114809524D02*
X190723810Y-114847619D01*
X190761905Y-114961905D01*
X190761905Y-115038095D01*
X190723810Y-115152381D01*
X190647619Y-115228572D01*
X190571429Y-115266667D01*
X190419048Y-115304762D01*
X190304762Y-115304762D01*
X190152381Y-115266667D01*
X190076190Y-115228572D01*
X190000000Y-115152381D01*
X189961905Y-115038095D01*
X189961905Y-114961905D01*
X190000000Y-114847619D01*
X190038095Y-114809524D01*
X190038095Y-114504762D02*
X190000000Y-114466667D01*
X189961905Y-114390476D01*
X189961905Y-114200000D01*
X190000000Y-114123810D01*
X190038095Y-114085714D01*
X190114286Y-114047619D01*
X190190476Y-114047619D01*
X190304762Y-114085714D01*
X190761905Y-114542857D01*
X190761905Y-114047619D01*
X189961905Y-113323809D02*
X189961905Y-113704762D01*
X190342857Y-113742857D01*
X190304762Y-113704762D01*
X190266667Y-113628571D01*
X190266667Y-113438095D01*
X190304762Y-113361905D01*
X190342857Y-113323809D01*
X190419048Y-113285714D01*
X190609524Y-113285714D01*
X190685714Y-113323809D01*
X190723810Y-113361905D01*
X190761905Y-113438095D01*
X190761905Y-113628571D01*
X190723810Y-113704762D01*
X190685714Y-113742857D01*
X189961905Y-112600000D02*
X189961905Y-112752381D01*
X190000000Y-112828571D01*
X190038095Y-112866666D01*
X190152381Y-112942857D01*
X190304762Y-112980952D01*
X190609524Y-112980952D01*
X190685714Y-112942857D01*
X190723810Y-112904762D01*
X190761905Y-112828571D01*
X190761905Y-112676190D01*
X190723810Y-112600000D01*
X190685714Y-112561904D01*
X190609524Y-112523809D01*
X190419048Y-112523809D01*
X190342857Y-112561904D01*
X190304762Y-112600000D01*
X190266667Y-112676190D01*
X190266667Y-112828571D01*
X190304762Y-112904762D01*
X190342857Y-112942857D01*
X190419048Y-112980952D01*
D12*
X193352381Y-115761905D02*
X194161905Y-115761905D01*
X194257143Y-115714286D01*
X194304762Y-115666667D01*
X194352381Y-115571429D01*
X194352381Y-115380952D01*
X194304762Y-115285714D01*
X194257143Y-115238095D01*
X194161905Y-115190476D01*
X193352381Y-115190476D01*
X193685714Y-114285714D02*
X194352381Y-114285714D01*
X193304762Y-114523810D02*
X194019048Y-114761905D01*
X194019048Y-114142857D01*
D10*
X185668123Y-148387905D02*
X186125266Y-148387905D01*
X185896695Y-149187905D02*
X185896695Y-148387905D01*
X186315743Y-148387905D02*
X186849076Y-149187905D01*
X186849076Y-148387905D02*
X186315743Y-149187905D01*
X187420505Y-148768857D02*
X187534791Y-148806952D01*
X187572886Y-148845048D01*
X187610981Y-148921238D01*
X187610981Y-149035524D01*
X187572886Y-149111714D01*
X187534791Y-149149810D01*
X187458600Y-149187905D01*
X187153838Y-149187905D01*
X187153838Y-148387905D01*
X187420505Y-148387905D01*
X187496695Y-148426000D01*
X187534791Y-148464095D01*
X187572886Y-148540286D01*
X187572886Y-148616476D01*
X187534791Y-148692667D01*
X187496695Y-148730762D01*
X187420505Y-148768857D01*
X187153838Y-148768857D01*
X188106219Y-148387905D02*
X188182410Y-148387905D01*
X188258600Y-148426000D01*
X188296695Y-148464095D01*
X188334791Y-148540286D01*
X188372886Y-148692667D01*
X188372886Y-148883143D01*
X188334791Y-149035524D01*
X188296695Y-149111714D01*
X188258600Y-149149810D01*
X188182410Y-149187905D01*
X188106219Y-149187905D01*
X188030029Y-149149810D01*
X187991933Y-149111714D01*
X187953838Y-149035524D01*
X187915743Y-148883143D01*
X187915743Y-148692667D01*
X187953838Y-148540286D01*
X187991933Y-148464095D01*
X188030029Y-148426000D01*
X188106219Y-148387905D01*
X189134791Y-149187905D02*
X188677648Y-149187905D01*
X188906219Y-149187905D02*
X188906219Y-148387905D01*
X188830029Y-148502190D01*
X188753838Y-148578381D01*
X188677648Y-148616476D01*
X189630029Y-148387905D02*
X189706220Y-148387905D01*
X189782410Y-148426000D01*
X189820505Y-148464095D01*
X189858601Y-148540286D01*
X189896696Y-148692667D01*
X189896696Y-148883143D01*
X189858601Y-149035524D01*
X189820505Y-149111714D01*
X189782410Y-149149810D01*
X189706220Y-149187905D01*
X189630029Y-149187905D01*
X189553839Y-149149810D01*
X189515743Y-149111714D01*
X189477648Y-149035524D01*
X189439553Y-148883143D01*
X189439553Y-148692667D01*
X189477648Y-148540286D01*
X189515743Y-148464095D01*
X189553839Y-148426000D01*
X189630029Y-148387905D01*
X190353839Y-148730762D02*
X190277648Y-148692667D01*
X190239553Y-148654571D01*
X190201458Y-148578381D01*
X190201458Y-148540286D01*
X190239553Y-148464095D01*
X190277648Y-148426000D01*
X190353839Y-148387905D01*
X190506220Y-148387905D01*
X190582410Y-148426000D01*
X190620506Y-148464095D01*
X190658601Y-148540286D01*
X190658601Y-148578381D01*
X190620506Y-148654571D01*
X190582410Y-148692667D01*
X190506220Y-148730762D01*
X190353839Y-148730762D01*
X190277648Y-148768857D01*
X190239553Y-148806952D01*
X190201458Y-148883143D01*
X190201458Y-149035524D01*
X190239553Y-149111714D01*
X190277648Y-149149810D01*
X190353839Y-149187905D01*
X190506220Y-149187905D01*
X190582410Y-149149810D01*
X190620506Y-149111714D01*
X190658601Y-149035524D01*
X190658601Y-148883143D01*
X190620506Y-148806952D01*
X190582410Y-148768857D01*
X190506220Y-148730762D01*
X191001458Y-149187905D02*
X191001458Y-148387905D01*
X191306220Y-148387905D01*
X191382411Y-148426000D01*
X191420506Y-148464095D01*
X191458601Y-148540286D01*
X191458601Y-148654571D01*
X191420506Y-148730762D01*
X191382411Y-148768857D01*
X191306220Y-148806952D01*
X191001458Y-148806952D01*
X191725268Y-148387905D02*
X191915744Y-149187905D01*
X192068125Y-148616476D01*
X192220506Y-149187905D01*
X192410982Y-148387905D01*
X193172887Y-149187905D02*
X192906220Y-148806952D01*
X192715744Y-149187905D02*
X192715744Y-148387905D01*
X193020506Y-148387905D01*
X193096697Y-148426000D01*
X193134792Y-148464095D01*
X193172887Y-148540286D01*
X193172887Y-148654571D01*
X193134792Y-148730762D01*
X193096697Y-148768857D01*
X193020506Y-148806952D01*
X192715744Y-148806952D01*
D12*
X188849076Y-144087905D02*
X188849076Y-144735524D01*
X188887171Y-144811714D01*
X188925267Y-144849810D01*
X189001457Y-144887905D01*
X189153838Y-144887905D01*
X189230029Y-144849810D01*
X189268124Y-144811714D01*
X189306219Y-144735524D01*
X189306219Y-144087905D01*
X190068124Y-144087905D02*
X189687171Y-144087905D01*
X189649076Y-144468857D01*
X189687171Y-144430762D01*
X189763362Y-144392667D01*
X189953838Y-144392667D01*
X190030028Y-144430762D01*
X190068124Y-144468857D01*
X190106219Y-144545048D01*
X190106219Y-144735524D01*
X190068124Y-144811714D01*
X190030028Y-144849810D01*
X189953838Y-144887905D01*
X189763362Y-144887905D01*
X189687171Y-144849810D01*
X189649076Y-144811714D01*
D13*
X188765667Y-115520190D02*
X188599000Y-115282095D01*
X188479953Y-115520190D02*
X188479953Y-115020190D01*
X188670429Y-115020190D01*
X188718048Y-115044000D01*
X188741857Y-115067810D01*
X188765667Y-115115429D01*
X188765667Y-115186857D01*
X188741857Y-115234476D01*
X188718048Y-115258286D01*
X188670429Y-115282095D01*
X188479953Y-115282095D01*
X189218048Y-115020190D02*
X188979953Y-115020190D01*
X188956143Y-115258286D01*
X188979953Y-115234476D01*
X189027572Y-115210667D01*
X189146619Y-115210667D01*
X189194238Y-115234476D01*
X189218048Y-115258286D01*
X189241857Y-115305905D01*
X189241857Y-115424952D01*
X189218048Y-115472571D01*
X189194238Y-115496381D01*
X189146619Y-115520190D01*
X189027572Y-115520190D01*
X188979953Y-115496381D01*
X188956143Y-115472571D01*
D10*
X188296619Y-116064905D02*
X187839476Y-116064905D01*
X188068047Y-116064905D02*
X188068047Y-115264905D01*
X187991857Y-115379190D01*
X187915666Y-115455381D01*
X187839476Y-115493476D01*
X188791857Y-115264905D02*
X188868048Y-115264905D01*
X188944238Y-115303000D01*
X188982333Y-115341095D01*
X189020429Y-115417286D01*
X189058524Y-115569667D01*
X189058524Y-115760143D01*
X189020429Y-115912524D01*
X188982333Y-115988714D01*
X188944238Y-116026810D01*
X188868048Y-116064905D01*
X188791857Y-116064905D01*
X188715667Y-116026810D01*
X188677571Y-115988714D01*
X188639476Y-115912524D01*
X188601381Y-115760143D01*
X188601381Y-115569667D01*
X188639476Y-115417286D01*
X188677571Y-115341095D01*
X188715667Y-115303000D01*
X188791857Y-115264905D01*
X189401381Y-116064905D02*
X189401381Y-115264905D01*
X189858524Y-116064905D02*
X189515667Y-115607762D01*
X189858524Y-115264905D02*
X189401381Y-115722048D01*
D13*
X188765667Y-117679190D02*
X188599000Y-117441095D01*
X188479953Y-117679190D02*
X188479953Y-117179190D01*
X188670429Y-117179190D01*
X188718048Y-117203000D01*
X188741857Y-117226810D01*
X188765667Y-117274429D01*
X188765667Y-117345857D01*
X188741857Y-117393476D01*
X188718048Y-117417286D01*
X188670429Y-117441095D01*
X188479953Y-117441095D01*
X189194238Y-117179190D02*
X189099000Y-117179190D01*
X189051381Y-117203000D01*
X189027572Y-117226810D01*
X188979953Y-117298238D01*
X188956143Y-117393476D01*
X188956143Y-117583952D01*
X188979953Y-117631571D01*
X189003762Y-117655381D01*
X189051381Y-117679190D01*
X189146619Y-117679190D01*
X189194238Y-117655381D01*
X189218048Y-117631571D01*
X189241857Y-117583952D01*
X189241857Y-117464905D01*
X189218048Y-117417286D01*
X189194238Y-117393476D01*
X189146619Y-117369667D01*
X189051381Y-117369667D01*
X189003762Y-117393476D01*
X188979953Y-117417286D01*
X188956143Y-117464905D01*
D12*
X217209524Y-174900000D02*
X217114286Y-174852381D01*
X216971429Y-174852381D01*
X216828571Y-174900000D01*
X216733333Y-174995238D01*
X216685714Y-175090476D01*
X216638095Y-175280952D01*
X216638095Y-175423810D01*
X216685714Y-175614286D01*
X216733333Y-175709524D01*
X216828571Y-175804762D01*
X216971429Y-175852381D01*
X217066667Y-175852381D01*
X217209524Y-175804762D01*
X217257143Y-175757143D01*
X217257143Y-175423810D01*
X217066667Y-175423810D01*
X217638095Y-175804762D02*
X217780952Y-175852381D01*
X218019048Y-175852381D01*
X218114286Y-175804762D01*
X218161905Y-175757143D01*
X218209524Y-175661905D01*
X218209524Y-175566667D01*
X218161905Y-175471429D01*
X218114286Y-175423810D01*
X218019048Y-175376190D01*
X217828571Y-175328571D01*
X217733333Y-175280952D01*
X217685714Y-175233333D01*
X217638095Y-175138095D01*
X217638095Y-175042857D01*
X217685714Y-174947619D01*
X217733333Y-174900000D01*
X217828571Y-174852381D01*
X218066667Y-174852381D01*
X218209524Y-174900000D01*
X218590476Y-174947619D02*
X218638095Y-174900000D01*
X218733333Y-174852381D01*
X218971429Y-174852381D01*
X219066667Y-174900000D01*
X219114286Y-174947619D01*
X219161905Y-175042857D01*
X219161905Y-175138095D01*
X219114286Y-175280952D01*
X218542857Y-175852381D01*
X219161905Y-175852381D01*
D13*
X217733334Y-173376190D02*
X217733334Y-173733333D01*
X217709524Y-173804762D01*
X217661905Y-173852381D01*
X217590477Y-173876190D01*
X217542858Y-173876190D01*
X218185714Y-173542857D02*
X218185714Y-173876190D01*
X218066667Y-173352381D02*
X217947619Y-173709524D01*
X218257143Y-173709524D01*
D12*
X181207162Y-127734962D02*
X181350019Y-127782581D01*
X181588115Y-127782581D01*
X181683353Y-127734962D01*
X181730972Y-127687343D01*
X181778591Y-127592105D01*
X181778591Y-127496867D01*
X181730972Y-127401629D01*
X181683353Y-127354010D01*
X181588115Y-127306390D01*
X181397638Y-127258771D01*
X181302400Y-127211152D01*
X181254781Y-127163533D01*
X181207162Y-127068295D01*
X181207162Y-126973057D01*
X181254781Y-126877819D01*
X181302400Y-126830200D01*
X181397638Y-126782581D01*
X181635734Y-126782581D01*
X181778591Y-126830200D01*
X182111924Y-126782581D02*
X182350019Y-127782581D01*
X182540496Y-127068295D01*
X182730972Y-127782581D01*
X182969067Y-126782581D01*
X183111924Y-127877819D02*
X183873829Y-127877819D01*
X184064305Y-127734962D02*
X184207162Y-127782581D01*
X184445258Y-127782581D01*
X184540496Y-127734962D01*
X184588115Y-127687343D01*
X184635734Y-127592105D01*
X184635734Y-127496867D01*
X184588115Y-127401629D01*
X184540496Y-127354010D01*
X184445258Y-127306390D01*
X184254781Y-127258771D01*
X184159543Y-127211152D01*
X184111924Y-127163533D01*
X184064305Y-127068295D01*
X184064305Y-126973057D01*
X184111924Y-126877819D01*
X184159543Y-126830200D01*
X184254781Y-126782581D01*
X184492877Y-126782581D01*
X184635734Y-126830200D01*
X185064305Y-127782581D02*
X185064305Y-126782581D01*
X185445258Y-126782581D01*
X185540496Y-126830200D01*
X185588115Y-126877819D01*
X185635734Y-126973057D01*
X185635734Y-127115914D01*
X185588115Y-127211152D01*
X185540496Y-127258771D01*
X185445258Y-127306390D01*
X185064305Y-127306390D01*
X186064305Y-127782581D02*
X186064305Y-126782581D01*
X186302400Y-126782581D01*
X186445258Y-126830200D01*
X186540496Y-126925438D01*
X186588115Y-127020676D01*
X186635734Y-127211152D01*
X186635734Y-127354010D01*
X186588115Y-127544486D01*
X186540496Y-127639724D01*
X186445258Y-127734962D01*
X186302400Y-127782581D01*
X186064305Y-127782581D01*
X186921448Y-126782581D02*
X187492877Y-126782581D01*
X187207162Y-127782581D02*
X187207162Y-126782581D01*
X190554362Y-127760362D02*
X190697219Y-127807981D01*
X190935315Y-127807981D01*
X191030553Y-127760362D01*
X191078172Y-127712743D01*
X191125791Y-127617505D01*
X191125791Y-127522267D01*
X191078172Y-127427029D01*
X191030553Y-127379410D01*
X190935315Y-127331790D01*
X190744838Y-127284171D01*
X190649600Y-127236552D01*
X190601981Y-127188933D01*
X190554362Y-127093695D01*
X190554362Y-126998457D01*
X190601981Y-126903219D01*
X190649600Y-126855600D01*
X190744838Y-126807981D01*
X190982934Y-126807981D01*
X191125791Y-126855600D01*
X191459124Y-126807981D02*
X191697219Y-127807981D01*
X191887696Y-127093695D01*
X192078172Y-127807981D01*
X192316267Y-126807981D01*
X192459124Y-127903219D02*
X193221029Y-127903219D01*
X193411505Y-127760362D02*
X193554362Y-127807981D01*
X193792458Y-127807981D01*
X193887696Y-127760362D01*
X193935315Y-127712743D01*
X193982934Y-127617505D01*
X193982934Y-127522267D01*
X193935315Y-127427029D01*
X193887696Y-127379410D01*
X193792458Y-127331790D01*
X193601981Y-127284171D01*
X193506743Y-127236552D01*
X193459124Y-127188933D01*
X193411505Y-127093695D01*
X193411505Y-126998457D01*
X193459124Y-126903219D01*
X193506743Y-126855600D01*
X193601981Y-126807981D01*
X193840077Y-126807981D01*
X193982934Y-126855600D01*
X194411505Y-127807981D02*
X194411505Y-126807981D01*
X194792458Y-126807981D01*
X194887696Y-126855600D01*
X194935315Y-126903219D01*
X194982934Y-126998457D01*
X194982934Y-127141314D01*
X194935315Y-127236552D01*
X194887696Y-127284171D01*
X194792458Y-127331790D01*
X194411505Y-127331790D01*
X195411505Y-127807981D02*
X195411505Y-126807981D01*
X195649600Y-126807981D01*
X195792458Y-126855600D01*
X195887696Y-126950838D01*
X195935315Y-127046076D01*
X195982934Y-127236552D01*
X195982934Y-127379410D01*
X195935315Y-127569886D01*
X195887696Y-127665124D01*
X195792458Y-127760362D01*
X195649600Y-127807981D01*
X195411505Y-127807981D01*
X196268648Y-126807981D02*
X196840077Y-126807981D01*
X196554362Y-127807981D02*
X196554362Y-126807981D01*
X199977762Y-127811162D02*
X200120619Y-127858781D01*
X200358715Y-127858781D01*
X200453953Y-127811162D01*
X200501572Y-127763543D01*
X200549191Y-127668305D01*
X200549191Y-127573067D01*
X200501572Y-127477829D01*
X200453953Y-127430210D01*
X200358715Y-127382590D01*
X200168238Y-127334971D01*
X200073000Y-127287352D01*
X200025381Y-127239733D01*
X199977762Y-127144495D01*
X199977762Y-127049257D01*
X200025381Y-126954019D01*
X200073000Y-126906400D01*
X200168238Y-126858781D01*
X200406334Y-126858781D01*
X200549191Y-126906400D01*
X200882524Y-126858781D02*
X201120619Y-127858781D01*
X201311096Y-127144495D01*
X201501572Y-127858781D01*
X201739667Y-126858781D01*
X201882524Y-127954019D02*
X202644429Y-127954019D01*
X202834905Y-127811162D02*
X202977762Y-127858781D01*
X203215858Y-127858781D01*
X203311096Y-127811162D01*
X203358715Y-127763543D01*
X203406334Y-127668305D01*
X203406334Y-127573067D01*
X203358715Y-127477829D01*
X203311096Y-127430210D01*
X203215858Y-127382590D01*
X203025381Y-127334971D01*
X202930143Y-127287352D01*
X202882524Y-127239733D01*
X202834905Y-127144495D01*
X202834905Y-127049257D01*
X202882524Y-126954019D01*
X202930143Y-126906400D01*
X203025381Y-126858781D01*
X203263477Y-126858781D01*
X203406334Y-126906400D01*
X203834905Y-127858781D02*
X203834905Y-126858781D01*
X204215858Y-126858781D01*
X204311096Y-126906400D01*
X204358715Y-126954019D01*
X204406334Y-127049257D01*
X204406334Y-127192114D01*
X204358715Y-127287352D01*
X204311096Y-127334971D01*
X204215858Y-127382590D01*
X203834905Y-127382590D01*
X204834905Y-127858781D02*
X204834905Y-126858781D01*
X205073000Y-126858781D01*
X205215858Y-126906400D01*
X205311096Y-127001638D01*
X205358715Y-127096876D01*
X205406334Y-127287352D01*
X205406334Y-127430210D01*
X205358715Y-127620686D01*
X205311096Y-127715924D01*
X205215858Y-127811162D01*
X205073000Y-127858781D01*
X204834905Y-127858781D01*
X205692048Y-126858781D02*
X206263477Y-126858781D01*
X205977762Y-127858781D02*
X205977762Y-126858781D01*
M02*
