G04 #@! TF.FileFunction,Profile,NP*
%FSLAX46Y46*%
G04 Gerber Fmt 4.6, Leading zero omitted, Abs format (unit mm)*
G04 Created by KiCad (PCBNEW 4.0.7) date Monday, July 02, 2018 'PMt' 09:22:05 PM*
%MOMM*%
%LPD*%
G01*
G04 APERTURE LIST*
%ADD10C,0.100000*%
G04 APERTURE END LIST*
D10*
X162500000Y-174000000D02*
X162382200Y-173457800D01*
X241000000Y-179000000D02*
X240893200Y-173469800D01*
X201500000Y-179000000D02*
X241000000Y-179000000D01*
X200500000Y-178500000D02*
X201500000Y-179000000D01*
X199500000Y-178000000D02*
X200500000Y-178500000D01*
X198500000Y-177500000D02*
X199500000Y-178000000D01*
X198000000Y-177000000D02*
X198500000Y-177500000D01*
X198000000Y-170500000D02*
X198000000Y-177000000D01*
X198500000Y-169500000D02*
X198000000Y-170500000D01*
X199000000Y-169000000D02*
X198500000Y-169500000D01*
X231500000Y-169000000D02*
X199000000Y-169000000D01*
X232000000Y-168500000D02*
X231500000Y-169000000D01*
X232000000Y-168000000D02*
X232000000Y-168500000D01*
X232000000Y-167500000D02*
X232000000Y-168000000D01*
X231500000Y-167000000D02*
X232000000Y-167500000D01*
X196000000Y-167000000D02*
X231500000Y-167000000D01*
X191500000Y-174000000D02*
X196000000Y-167000000D01*
X162500000Y-174000000D02*
X191500000Y-174000000D01*
X229500000Y-108500000D02*
X229500000Y-107500000D01*
X229500000Y-107500000D02*
X229500000Y-106500000D01*
X229500000Y-109000000D02*
X229500000Y-108500000D01*
X227000000Y-108000000D02*
X227000000Y-107500000D01*
X226000000Y-109000000D02*
X226000000Y-108500000D01*
X223500000Y-109000000D02*
X223500000Y-108500000D01*
X227000000Y-105000000D02*
X227000000Y-106000000D01*
X226000000Y-105000000D02*
G75*
G03X225000000Y-104000000I-1000000J0D01*
G01*
X226000000Y-107000000D02*
X226000000Y-105000000D01*
X223500000Y-104000000D02*
X225000000Y-104000000D01*
X223500000Y-105000000D02*
X223500000Y-104000000D01*
X225000000Y-105000000D02*
X223500000Y-105000000D01*
X225000000Y-106000000D02*
X225000000Y-105000000D01*
X224500000Y-106000000D02*
X225000000Y-106000000D01*
X224500000Y-106000000D02*
G75*
G03X223500000Y-107000000I0J-1000000D01*
G01*
X223500000Y-107000000D02*
X226000000Y-107000000D01*
X223500000Y-108000000D02*
X223500000Y-108500000D01*
X226000000Y-108000000D02*
X223500000Y-108000000D01*
X226000000Y-108500000D02*
X226000000Y-108000000D01*
X223500000Y-109000000D02*
X226000000Y-109000000D01*
X228000000Y-106000000D02*
X228000000Y-105000000D01*
X229000000Y-106000000D02*
X228000000Y-106000000D01*
X229500000Y-106500000D02*
G75*
G03X229000000Y-106000000I-500000J0D01*
G01*
X229500000Y-105000000D02*
X228000000Y-105000000D01*
X229500000Y-104000000D02*
X229500000Y-105000000D01*
X228000000Y-104000000D02*
X229500000Y-104000000D01*
X228000000Y-104000000D02*
G75*
G03X227000000Y-105000000I0J-1000000D01*
G01*
X227000000Y-106500000D02*
X227000000Y-106000000D01*
X228000000Y-109000000D02*
X229500000Y-109000000D01*
X227000000Y-108000000D02*
G75*
G03X228000000Y-109000000I1000000J0D01*
G01*
X227000000Y-107500000D02*
X227000000Y-106500000D01*
X217000000Y-97000000D02*
G75*
G03X216000000Y-98000000I0J-1000000D01*
G01*
X217000000Y-97000000D02*
X218000000Y-97000000D01*
X216000000Y-102000000D02*
X216000000Y-98000000D01*
X218000000Y-100500000D02*
X218000000Y-102000000D01*
X217500000Y-98500000D02*
G75*
G03X218000000Y-98000000I0J500000D01*
G01*
X217500000Y-100500000D02*
X217500000Y-98500000D01*
X218000000Y-100500000D02*
X217500000Y-100500000D01*
X218000000Y-102000000D02*
X216000000Y-102000000D01*
X219000000Y-100500000D02*
G75*
G03X219500000Y-100000000I0J500000D01*
G01*
X219500000Y-100000000D02*
X219500000Y-98000000D01*
X219000000Y-98000000D02*
X219500000Y-98000000D01*
X219000000Y-102000000D02*
X219000000Y-100500000D01*
X220000000Y-102000000D02*
X219000000Y-102000000D01*
X220000000Y-102000000D02*
G75*
G03X221000000Y-101000000I0J1000000D01*
G01*
X221000000Y-97000000D02*
X221000000Y-101000000D01*
X218000000Y-97000000D02*
X218000000Y-98000000D01*
X219000000Y-97000000D02*
X219000000Y-98000000D01*
X221000000Y-97000000D02*
X219000000Y-97000000D01*
X206000000Y-100000000D02*
X203000000Y-100000000D01*
X206000000Y-99000000D02*
X206000000Y-100000000D01*
X203000000Y-102000000D02*
X203000000Y-100000000D01*
X201000000Y-102000000D02*
X203000000Y-102000000D01*
X201000000Y-99000000D02*
X201000000Y-102000000D01*
X201000000Y-99000000D02*
X206000000Y-99000000D01*
X201000000Y-98000000D02*
X201000000Y-97000000D01*
X206000000Y-98000000D02*
X201000000Y-98000000D01*
X206000000Y-97000000D02*
X206000000Y-98000000D01*
X201000000Y-97000000D02*
X206000000Y-97000000D01*
X194000000Y-102000000D02*
X194000000Y-101000000D01*
X199000000Y-102000000D02*
X194000000Y-102000000D01*
X199000000Y-101000000D02*
X199000000Y-102000000D01*
X194000000Y-101000000D02*
X199000000Y-101000000D01*
X194000000Y-98000000D02*
X199000000Y-98000000D01*
X194000000Y-97000000D02*
X194000000Y-98000000D01*
X199000000Y-97000000D02*
X194000000Y-97000000D01*
X199000000Y-98000000D02*
X199000000Y-97000000D01*
X198000000Y-100000000D02*
X199000000Y-100000000D01*
X198000000Y-99000000D02*
X199000000Y-99000000D01*
X194000000Y-99000000D02*
X194000000Y-100000000D01*
X198000000Y-99000000D02*
X194000000Y-99000000D01*
X199000000Y-100000000D02*
X199000000Y-99000000D01*
X194000000Y-100000000D02*
X198000000Y-100000000D01*
X189240000Y-101850000D02*
X189950000Y-101850000D01*
X189250000Y-100540000D02*
X189240000Y-101850000D01*
X181864000Y-108331000D02*
X181864000Y-94488000D01*
X228625287Y-96849800D02*
X227053430Y-96849800D01*
X228625287Y-101849800D02*
X228625287Y-96849800D01*
X227150736Y-101849800D02*
X228625287Y-101849800D01*
X227131406Y-101849677D02*
X227150736Y-101849800D01*
X227112089Y-101849306D02*
X227131406Y-101849677D01*
X227092785Y-101848689D02*
X227112089Y-101849306D01*
X227073494Y-101847825D02*
X227092785Y-101848689D01*
X227054216Y-101846714D02*
X227073494Y-101847825D01*
X227034952Y-101845356D02*
X227054216Y-101846714D01*
X227015700Y-101843751D02*
X227034952Y-101845356D01*
X226996461Y-101841899D02*
X227015700Y-101843751D01*
X226977235Y-101839800D02*
X226996461Y-101841899D01*
X226958022Y-101837455D02*
X226977235Y-101839800D01*
X226938822Y-101834862D02*
X226958022Y-101837455D01*
X226919635Y-101832023D02*
X226938822Y-101834862D01*
X226900461Y-101828937D02*
X226919635Y-101832023D01*
X226881301Y-101825604D02*
X226900461Y-101828937D01*
X226862153Y-101822024D02*
X226881301Y-101825604D01*
X226843018Y-101818197D02*
X226862153Y-101822024D01*
X226823896Y-101814123D02*
X226843018Y-101818197D01*
X226804787Y-101809802D02*
X226823896Y-101814123D01*
X226785691Y-101805234D02*
X226804787Y-101809802D01*
X226766608Y-101800420D02*
X226785691Y-101805234D01*
X226747538Y-101795358D02*
X226766608Y-101800420D01*
X226728481Y-101790050D02*
X226747538Y-101795358D01*
X226709437Y-101784494D02*
X226728481Y-101790050D01*
X226690406Y-101778692D02*
X226709437Y-101784494D01*
X226671408Y-101772591D02*
X226690406Y-101778692D01*
X226652461Y-101766139D02*
X226671408Y-101772591D01*
X226633567Y-101759336D02*
X226652461Y-101766139D01*
X226614724Y-101752183D02*
X226633567Y-101759336D01*
X226595934Y-101744678D02*
X226614724Y-101752183D01*
X226577195Y-101736823D02*
X226595934Y-101744678D01*
X226558509Y-101728617D02*
X226577195Y-101736823D01*
X226539874Y-101720059D02*
X226558509Y-101728617D01*
X226521291Y-101711152D02*
X226539874Y-101720059D01*
X226502761Y-101701893D02*
X226521291Y-101711152D01*
X226484282Y-101692283D02*
X226502761Y-101701893D01*
X226465855Y-101682322D02*
X226484282Y-101692283D01*
X226447481Y-101672011D02*
X226465855Y-101682322D01*
X226429158Y-101661349D02*
X226447481Y-101672011D01*
X226410887Y-101650336D02*
X226429158Y-101661349D01*
X226392668Y-101638972D02*
X226410887Y-101650336D01*
X226374502Y-101627257D02*
X226392668Y-101638972D01*
X226356387Y-101615191D02*
X226374502Y-101627257D01*
X226338324Y-101602775D02*
X226356387Y-101615191D01*
X226320313Y-101590007D02*
X226338324Y-101602775D01*
X226302354Y-101576889D02*
X226320313Y-101590007D01*
X226284447Y-101563420D02*
X226302354Y-101576889D01*
X226266592Y-101549600D02*
X226284447Y-101563420D01*
X226248790Y-101535429D02*
X226266592Y-101549600D01*
X226231052Y-101520888D02*
X226248790Y-101535429D01*
X226213392Y-101505956D02*
X226231052Y-101520888D01*
X226195810Y-101490636D02*
X226213392Y-101505956D01*
X226178306Y-101474925D02*
X226195810Y-101490636D01*
X226160879Y-101458824D02*
X226178306Y-101474925D01*
X226143531Y-101442334D02*
X226160879Y-101458824D01*
X226126261Y-101425453D02*
X226143531Y-101442334D01*
X226109069Y-101408183D02*
X226126261Y-101425453D01*
X226091955Y-101390523D02*
X226109069Y-101408183D01*
X226074919Y-101372473D02*
X226091955Y-101390523D01*
X226057960Y-101354034D02*
X226074919Y-101372473D01*
X226041080Y-101335204D02*
X226057960Y-101354034D01*
X226024278Y-101315985D02*
X226041080Y-101335204D01*
X226007553Y-101296376D02*
X226024278Y-101315985D01*
X225990907Y-101276377D02*
X226007553Y-101296376D01*
X225974338Y-101255988D02*
X225990907Y-101276377D01*
X225957848Y-101235209D02*
X225974338Y-101255988D01*
X225941436Y-101214040D02*
X225957848Y-101235209D01*
X225925101Y-101192482D02*
X225941436Y-101214040D01*
X225908844Y-101170534D02*
X225925101Y-101192482D01*
X225892666Y-101148195D02*
X225908844Y-101170534D01*
X225876565Y-101125467D02*
X225892666Y-101148195D01*
X225860543Y-101102350D02*
X225876565Y-101125467D01*
X225844598Y-101078842D02*
X225860543Y-101102350D01*
X225828751Y-101054905D02*
X225844598Y-101078842D01*
X225813020Y-101030501D02*
X225828751Y-101054905D01*
X225797407Y-101005629D02*
X225813020Y-101030501D01*
X225781911Y-100980289D02*
X225797407Y-101005629D01*
X225766531Y-100954481D02*
X225781911Y-100980289D01*
X225751269Y-100928206D02*
X225766531Y-100954481D01*
X225736123Y-100901462D02*
X225751269Y-100928206D01*
X225721095Y-100874251D02*
X225736123Y-100901462D01*
X225706183Y-100846572D02*
X225721095Y-100874251D01*
X225691389Y-100818425D02*
X225706183Y-100846572D01*
X225676711Y-100789811D02*
X225691389Y-100818425D01*
X225662150Y-100760728D02*
X225676711Y-100789811D01*
X225647707Y-100731178D02*
X225662150Y-100760728D01*
X225633380Y-100701160D02*
X225647707Y-100731178D01*
X225619170Y-100670674D02*
X225633380Y-100701160D01*
X225605077Y-100639720D02*
X225619170Y-100670674D01*
X225591101Y-100608299D02*
X225605077Y-100639720D01*
X225577242Y-100576409D02*
X225591101Y-100608299D01*
X225563500Y-100544052D02*
X225577242Y-100576409D01*
X225549875Y-100511227D02*
X225563500Y-100544052D01*
X225536367Y-100477934D02*
X225549875Y-100511227D01*
X225522976Y-100444174D02*
X225536367Y-100477934D01*
X225509701Y-100409945D02*
X225522976Y-100444174D01*
X225496544Y-100375249D02*
X225509701Y-100409945D01*
X224897742Y-98167165D02*
X225496544Y-100375249D01*
X224897742Y-101849800D02*
X224897742Y-98167165D01*
X223325885Y-101849800D02*
X224897742Y-101849800D01*
X223325885Y-96849800D02*
X223325885Y-101849800D01*
X224777981Y-96849800D02*
X223325885Y-96849800D01*
X224797318Y-96849923D02*
X224777981Y-96849800D01*
X224816654Y-96850294D02*
X224797318Y-96849923D01*
X224835990Y-96850911D02*
X224816654Y-96850294D01*
X224855326Y-96851775D02*
X224835990Y-96850911D01*
X224874663Y-96852886D02*
X224855326Y-96851775D01*
X224893999Y-96854244D02*
X224874663Y-96852886D01*
X224913335Y-96855849D02*
X224893999Y-96854244D01*
X224932672Y-96857701D02*
X224913335Y-96855849D01*
X224952008Y-96859800D02*
X224932672Y-96857701D01*
X224971344Y-96862145D02*
X224952008Y-96859800D01*
X224990681Y-96864738D02*
X224971344Y-96862145D01*
X225010017Y-96867577D02*
X224990681Y-96864738D01*
X225029353Y-96870663D02*
X225010017Y-96867577D01*
X225048690Y-96873996D02*
X225029353Y-96870663D01*
X225068026Y-96877576D02*
X225048690Y-96873996D01*
X225087362Y-96881403D02*
X225068026Y-96877576D01*
X225106699Y-96885477D02*
X225087362Y-96881403D01*
X225126035Y-96889798D02*
X225106699Y-96885477D01*
X225145371Y-96894366D02*
X225126035Y-96889798D01*
X225164708Y-96899180D02*
X225145371Y-96894366D01*
X225184044Y-96904242D02*
X225164708Y-96899180D01*
X225203380Y-96909550D02*
X225184044Y-96904242D01*
X225222717Y-96915106D02*
X225203380Y-96909550D01*
X225242053Y-96920908D02*
X225222717Y-96915106D01*
X225261363Y-96927002D02*
X225242053Y-96920908D01*
X225280622Y-96933435D02*
X225261363Y-96927002D01*
X225299828Y-96940205D02*
X225280622Y-96933435D01*
X225318983Y-96947313D02*
X225299828Y-96940205D01*
X225338085Y-96954759D02*
X225318983Y-96947313D01*
X225357135Y-96962543D02*
X225338085Y-96954759D01*
X225376134Y-96970665D02*
X225357135Y-96962543D01*
X225395080Y-96979125D02*
X225376134Y-96970665D01*
X225413975Y-96987922D02*
X225395080Y-96979125D01*
X225432817Y-96997058D02*
X225413975Y-96987922D01*
X225451608Y-97006531D02*
X225432817Y-96997058D01*
X225470346Y-97016342D02*
X225451608Y-97006531D01*
X225489033Y-97026491D02*
X225470346Y-97016342D01*
X225507668Y-97036978D02*
X225489033Y-97026491D01*
X225526250Y-97047802D02*
X225507668Y-97036978D01*
X225544781Y-97058965D02*
X225526250Y-97047802D01*
X225563260Y-97070465D02*
X225544781Y-97058965D01*
X225581686Y-97082304D02*
X225563260Y-97070465D01*
X225600061Y-97094480D02*
X225581686Y-97082304D01*
X225618384Y-97106994D02*
X225600061Y-97094480D01*
X225636654Y-97119846D02*
X225618384Y-97106994D01*
X225654873Y-97133036D02*
X225636654Y-97119846D01*
X225673040Y-97146563D02*
X225654873Y-97133036D01*
X225691155Y-97160429D02*
X225673040Y-97146563D01*
X225709205Y-97174665D02*
X225691155Y-97160429D01*
X225727177Y-97189303D02*
X225709205Y-97174665D01*
X225745070Y-97204345D02*
X225727177Y-97189303D01*
X225762886Y-97219789D02*
X225745070Y-97204345D01*
X225780624Y-97235636D02*
X225762886Y-97219789D01*
X225798284Y-97251886D02*
X225780624Y-97235636D01*
X225815866Y-97268539D02*
X225798284Y-97251886D01*
X225833370Y-97285595D02*
X225815866Y-97268539D01*
X225850796Y-97303054D02*
X225833370Y-97285595D01*
X225868145Y-97320915D02*
X225850796Y-97303054D01*
X225885415Y-97339179D02*
X225868145Y-97320915D01*
X225902607Y-97357846D02*
X225885415Y-97339179D01*
X225919721Y-97376916D02*
X225902607Y-97357846D01*
X225936757Y-97396389D02*
X225919721Y-97376916D01*
X225953716Y-97416265D02*
X225936757Y-97396389D01*
X225970596Y-97436543D02*
X225953716Y-97416265D01*
X225987398Y-97457224D02*
X225970596Y-97436543D01*
X226004123Y-97478309D02*
X225987398Y-97457224D01*
X226020769Y-97499796D02*
X226004123Y-97478309D01*
X226037337Y-97521685D02*
X226020769Y-97499796D01*
X226053828Y-97543978D02*
X226037337Y-97521685D01*
X226070240Y-97566674D02*
X226053828Y-97543978D01*
X226086575Y-97589772D02*
X226070240Y-97566674D01*
X226102831Y-97613273D02*
X226086575Y-97589772D01*
X226118984Y-97637223D02*
X226102831Y-97613273D01*
X226135007Y-97661666D02*
X226118984Y-97637223D01*
X226150899Y-97686603D02*
X226135007Y-97661666D01*
X226166662Y-97712034D02*
X226150899Y-97686603D01*
X226182295Y-97737959D02*
X226166662Y-97712034D01*
X226197798Y-97764377D02*
X226182295Y-97737959D01*
X226213171Y-97791289D02*
X226197798Y-97764377D01*
X226228414Y-97818696D02*
X226213171Y-97791289D01*
X226243527Y-97846595D02*
X226228414Y-97818696D01*
X226258510Y-97874989D02*
X226243527Y-97846595D01*
X226273363Y-97903877D02*
X226258510Y-97874989D01*
X226288086Y-97933258D02*
X226273363Y-97903877D01*
X226302679Y-97963133D02*
X226288086Y-97933258D01*
X226317142Y-97993502D02*
X226302679Y-97963133D01*
X226331476Y-98024365D02*
X226317142Y-97993502D01*
X226345679Y-98055721D02*
X226331476Y-98024365D01*
X226359753Y-98087572D02*
X226345679Y-98055721D01*
X226373696Y-98119916D02*
X226359753Y-98087572D01*
X226387510Y-98152754D02*
X226373696Y-98119916D01*
X226401193Y-98186086D02*
X226387510Y-98152754D01*
X226414747Y-98219911D02*
X226401193Y-98186086D01*
X226428170Y-98254231D02*
X226414747Y-98219911D01*
X226441464Y-98289044D02*
X226428170Y-98254231D01*
X226454628Y-98324351D02*
X226441464Y-98289044D01*
X227053430Y-100532435D02*
X226454628Y-98324351D01*
X227053430Y-96849800D02*
X227053430Y-100532435D01*
X209719378Y-96850424D02*
X209770123Y-96849800D01*
X209669439Y-96852295D02*
X209719378Y-96850424D01*
X209620305Y-96855414D02*
X209669439Y-96852295D01*
X209571977Y-96859780D02*
X209620305Y-96855414D01*
X209524455Y-96865394D02*
X209571977Y-96859780D01*
X209477739Y-96872255D02*
X209524455Y-96865394D01*
X209431828Y-96880364D02*
X209477739Y-96872255D01*
X209386723Y-96889720D02*
X209431828Y-96880364D01*
X209342424Y-96900324D02*
X209386723Y-96889720D01*
X209298930Y-96912175D02*
X209342424Y-96900324D01*
X209256242Y-96925274D02*
X209298930Y-96912175D01*
X209214359Y-96939620D02*
X209256242Y-96925274D01*
X209173283Y-96955214D02*
X209214359Y-96939620D01*
X209133012Y-96972055D02*
X209173283Y-96955214D01*
X209093546Y-96990144D02*
X209133012Y-96972055D01*
X209054887Y-97009481D02*
X209093546Y-96990144D01*
X209017033Y-97030064D02*
X209054887Y-97009481D01*
X208979984Y-97051896D02*
X209017033Y-97030064D01*
X208943742Y-97074975D02*
X208979984Y-97051896D01*
X208908305Y-97099301D02*
X208943742Y-97074975D01*
X208873674Y-97124875D02*
X208908305Y-97099301D01*
X208839848Y-97151696D02*
X208873674Y-97124875D01*
X208806828Y-97179765D02*
X208839848Y-97151696D01*
X208774614Y-97209081D02*
X208806828Y-97179765D01*
X208743465Y-97239541D02*
X208774614Y-97209081D01*
X208713642Y-97271041D02*
X208743465Y-97239541D01*
X208685144Y-97303580D02*
X208713642Y-97271041D01*
X208657972Y-97337159D02*
X208685144Y-97303580D01*
X208632125Y-97371777D02*
X208657972Y-97337159D01*
X208607604Y-97407435D02*
X208632125Y-97371777D01*
X208584408Y-97444132D02*
X208607604Y-97407435D01*
X208562538Y-97481869D02*
X208584408Y-97444132D01*
X208541993Y-97520646D02*
X208562538Y-97481869D01*
X208522774Y-97560462D02*
X208541993Y-97520646D01*
X208504880Y-97601318D02*
X208522774Y-97560462D01*
X208488311Y-97643213D02*
X208504880Y-97601318D01*
X208473068Y-97686148D02*
X208488311Y-97643213D01*
X208459151Y-97730123D02*
X208473068Y-97686148D01*
X208446559Y-97775137D02*
X208459151Y-97730123D01*
X208435292Y-97821191D02*
X208446559Y-97775137D01*
X208425351Y-97868284D02*
X208435292Y-97821191D01*
X208416736Y-97916417D02*
X208425351Y-97868284D01*
X208409446Y-97965589D02*
X208416736Y-97916417D01*
X208403481Y-98015801D02*
X208409446Y-97965589D01*
X208398842Y-98067053D02*
X208403481Y-98015801D01*
X208395528Y-98119344D02*
X208398842Y-98067053D01*
X208393540Y-98172675D02*
X208395528Y-98119344D01*
X208392877Y-98227046D02*
X208393540Y-98172675D01*
X208392877Y-100502495D02*
X208392877Y-98227046D01*
X208393482Y-100556839D02*
X208392877Y-100502495D01*
X208395294Y-100610092D02*
X208393482Y-100556839D01*
X208398316Y-100662253D02*
X208395294Y-100610092D01*
X208402545Y-100713323D02*
X208398316Y-100662253D01*
X208407984Y-100763301D02*
X208402545Y-100713323D01*
X208414631Y-100812188D02*
X208407984Y-100763301D01*
X208422486Y-100859983D02*
X208414631Y-100812188D01*
X208431550Y-100906686D02*
X208422486Y-100859983D01*
X208441822Y-100952298D02*
X208431550Y-100906686D01*
X208453303Y-100996818D02*
X208441822Y-100952298D01*
X208465993Y-101040247D02*
X208453303Y-100996818D01*
X208479891Y-101082584D02*
X208465993Y-101040247D01*
X208494997Y-101123830D02*
X208479891Y-101082584D01*
X208511312Y-101163984D02*
X208494997Y-101123830D01*
X208528836Y-101203047D02*
X208511312Y-101163984D01*
X208547568Y-101241018D02*
X208528836Y-101203047D01*
X208567509Y-101277897D02*
X208547568Y-101241018D01*
X208588658Y-101313685D02*
X208567509Y-101277897D01*
X208611015Y-101348381D02*
X208588658Y-101313685D01*
X208634581Y-101381986D02*
X208611015Y-101348381D01*
X208659356Y-101414499D02*
X208634581Y-101381986D01*
X208685339Y-101445920D02*
X208659356Y-101414499D01*
X208712531Y-101476250D02*
X208685339Y-101445920D01*
X208740931Y-101505489D02*
X208712531Y-101476250D01*
X208770475Y-101533583D02*
X208740931Y-101505489D01*
X208801097Y-101560483D02*
X208770475Y-101533583D01*
X208832798Y-101586187D02*
X208801097Y-101560483D01*
X208865578Y-101610695D02*
X208832798Y-101586187D01*
X208899436Y-101634008D02*
X208865578Y-101610695D01*
X208934372Y-101656125D02*
X208899436Y-101634008D01*
X208970388Y-101677047D02*
X208934372Y-101656125D01*
X209007481Y-101696773D02*
X208970388Y-101677047D01*
X209045654Y-101715303D02*
X209007481Y-101696773D01*
X209084905Y-101732638D02*
X209045654Y-101715303D01*
X209125234Y-101748778D02*
X209084905Y-101732638D01*
X209166642Y-101763722D02*
X209125234Y-101748778D01*
X209209129Y-101777471D02*
X209166642Y-101763722D01*
X209252694Y-101790024D02*
X209209129Y-101777471D01*
X209297338Y-101801381D02*
X209252694Y-101790024D01*
X209343060Y-101811543D02*
X209297338Y-101801381D01*
X209389861Y-101820510D02*
X209343060Y-101811543D01*
X209437741Y-101828281D02*
X209389861Y-101820510D01*
X209486699Y-101834856D02*
X209437741Y-101828281D01*
X209536735Y-101840236D02*
X209486699Y-101834856D01*
X209587851Y-101844420D02*
X209536735Y-101840236D01*
X209640044Y-101847409D02*
X209587851Y-101844420D01*
X209693317Y-101849202D02*
X209640044Y-101847409D01*
X209747668Y-101849800D02*
X209693317Y-101849202D01*
X213392877Y-101849800D02*
X209747668Y-101849800D01*
X213392877Y-100539920D02*
X213392877Y-101849800D01*
X210496171Y-100539920D02*
X213392877Y-100539920D01*
X210453418Y-100538984D02*
X210496171Y-100539920D01*
X210412484Y-100536177D02*
X210453418Y-100538984D01*
X210373369Y-100531499D02*
X210412484Y-100536177D01*
X210336074Y-100524950D02*
X210373369Y-100531499D01*
X210300598Y-100516529D02*
X210336074Y-100524950D01*
X210266942Y-100506237D02*
X210300598Y-100516529D01*
X210235104Y-100494074D02*
X210266942Y-100506237D01*
X210205086Y-100480040D02*
X210235104Y-100494074D01*
X210176887Y-100464134D02*
X210205086Y-100480040D01*
X210150508Y-100446357D02*
X210176887Y-100464134D01*
X210125948Y-100426709D02*
X210150508Y-100446357D01*
X210103207Y-100405189D02*
X210125948Y-100426709D01*
X210082285Y-100381799D02*
X210103207Y-100405189D01*
X210063183Y-100356537D02*
X210082285Y-100381799D01*
X210045899Y-100329403D02*
X210063183Y-100356537D01*
X210030436Y-100300399D02*
X210045899Y-100329403D01*
X210016791Y-100269523D02*
X210030436Y-100300399D01*
X210004966Y-100236776D02*
X210016791Y-100269523D01*
X209994960Y-100202158D02*
X210004966Y-100236776D01*
X209986773Y-100165668D02*
X209994960Y-100202158D01*
X209980405Y-100127307D02*
X209986773Y-100165668D01*
X209975857Y-100087075D02*
X209980405Y-100127307D01*
X209973128Y-100044972D02*
X209975857Y-100087075D01*
X209972219Y-100000998D02*
X209973128Y-100044972D01*
X209972219Y-98571357D02*
X209972219Y-100000998D01*
X209977832Y-98540169D02*
X209972219Y-98571357D01*
X209984694Y-98510229D02*
X209977832Y-98540169D01*
X209992802Y-98481537D02*
X209984694Y-98510229D01*
X210002159Y-98454091D02*
X209992802Y-98481537D01*
X210012763Y-98427894D02*
X210002159Y-98454091D01*
X210024614Y-98402944D02*
X210012763Y-98427894D01*
X210037713Y-98379241D02*
X210024614Y-98402944D01*
X210052059Y-98356786D02*
X210037713Y-98379241D01*
X210067653Y-98335578D02*
X210052059Y-98356786D01*
X210084494Y-98315618D02*
X210067653Y-98335578D01*
X210102583Y-98296906D02*
X210084494Y-98315618D01*
X210121919Y-98279441D02*
X210102583Y-98296906D01*
X210142503Y-98263223D02*
X210121919Y-98279441D01*
X210164334Y-98248253D02*
X210142503Y-98263223D01*
X210187413Y-98234531D02*
X210164334Y-98248253D01*
X210211740Y-98222055D02*
X210187413Y-98234531D01*
X210237313Y-98210828D02*
X210211740Y-98222055D01*
X210264135Y-98200848D02*
X210237313Y-98210828D01*
X210292204Y-98192115D02*
X210264135Y-98200848D01*
X210321520Y-98184630D02*
X210292204Y-98192115D01*
X210352084Y-98178393D02*
X210321520Y-98184630D01*
X210383895Y-98173403D02*
X210352084Y-98178393D01*
X210416954Y-98169660D02*
X210383895Y-98173403D01*
X210451261Y-98167165D02*
X210416954Y-98169660D01*
X211334494Y-98167165D02*
X210451261Y-98167165D01*
X211354259Y-98167406D02*
X211334494Y-98167165D01*
X211373635Y-98168127D02*
X211354259Y-98167406D01*
X211392620Y-98169329D02*
X211373635Y-98168127D01*
X211411216Y-98171012D02*
X211392620Y-98169329D01*
X211429421Y-98173175D02*
X211411216Y-98171012D01*
X211447237Y-98175820D02*
X211429421Y-98173175D01*
X211464663Y-98178945D02*
X211447237Y-98175820D01*
X211481700Y-98182551D02*
X211464663Y-98178945D01*
X211498346Y-98186638D02*
X211481700Y-98182551D01*
X211514603Y-98191206D02*
X211498346Y-98186638D01*
X211530469Y-98196254D02*
X211514603Y-98191206D01*
X211545946Y-98201784D02*
X211530469Y-98196254D01*
X211561033Y-98207794D02*
X211545946Y-98201784D01*
X211575730Y-98214285D02*
X211561033Y-98207794D01*
X211590038Y-98221256D02*
X211575730Y-98214285D01*
X211603955Y-98228709D02*
X211590038Y-98221256D01*
X211617483Y-98236642D02*
X211603955Y-98228709D01*
X211630621Y-98245056D02*
X211617483Y-98236642D01*
X211643369Y-98253951D02*
X211630621Y-98245056D01*
X211655727Y-98263327D02*
X211643369Y-98253951D01*
X211667695Y-98273184D02*
X211655727Y-98263327D01*
X211679273Y-98283521D02*
X211667695Y-98273184D01*
X211690462Y-98294339D02*
X211679273Y-98283521D01*
X211701261Y-98305638D02*
X211690462Y-98294339D01*
X211711643Y-98317366D02*
X211701261Y-98305638D01*
X211721584Y-98329471D02*
X211711643Y-98317366D01*
X211731084Y-98341952D02*
X211721584Y-98329471D01*
X211740141Y-98354811D02*
X211731084Y-98341952D01*
X211748757Y-98368046D02*
X211740141Y-98354811D01*
X211756930Y-98381658D02*
X211748757Y-98368046D01*
X211764662Y-98395647D02*
X211756930Y-98381658D01*
X211771952Y-98410013D02*
X211764662Y-98395647D01*
X211778801Y-98424756D02*
X211771952Y-98410013D01*
X211785207Y-98439875D02*
X211778801Y-98424756D01*
X211791172Y-98455371D02*
X211785207Y-98439875D01*
X211796695Y-98471245D02*
X211791172Y-98455371D01*
X211801776Y-98487495D02*
X211796695Y-98471245D01*
X211806415Y-98504122D02*
X211801776Y-98487495D01*
X211810612Y-98521125D02*
X211806415Y-98504122D01*
X211814368Y-98538506D02*
X211810612Y-98521125D01*
X211817681Y-98556263D02*
X211814368Y-98538506D01*
X211820553Y-98574398D02*
X211817681Y-98556263D01*
X211822983Y-98592909D02*
X211820553Y-98574398D01*
X211824971Y-98611797D02*
X211822983Y-98592909D01*
X211826518Y-98631062D02*
X211824971Y-98611797D01*
X211827622Y-98650703D02*
X211826518Y-98631062D01*
X211828285Y-98670722D02*
X211827622Y-98650703D01*
X211828506Y-98691117D02*
X211828285Y-98670722D01*
X211828506Y-98923153D02*
X211828506Y-98691117D01*
X213392877Y-98923153D02*
X211828506Y-98923153D01*
X213392877Y-98227046D02*
X213392877Y-98923153D01*
X213392215Y-98172675D02*
X213392877Y-98227046D01*
X213390226Y-98119344D02*
X213392215Y-98172675D01*
X213386913Y-98067053D02*
X213390226Y-98119344D01*
X213382274Y-98015801D02*
X213386913Y-98067053D01*
X213376309Y-97965589D02*
X213382274Y-98015801D01*
X213369019Y-97916417D02*
X213376309Y-97965589D01*
X213360403Y-97868284D02*
X213369019Y-97916417D01*
X213350462Y-97821191D02*
X213360403Y-97868284D01*
X213339196Y-97775137D02*
X213350462Y-97821191D01*
X213326604Y-97730123D02*
X213339196Y-97775137D01*
X213312686Y-97686148D02*
X213326604Y-97730123D01*
X213297443Y-97643213D02*
X213312686Y-97686148D01*
X213280875Y-97601318D02*
X213297443Y-97643213D01*
X213262981Y-97560462D02*
X213280875Y-97601318D01*
X213243761Y-97520646D02*
X213262981Y-97560462D01*
X213223217Y-97481869D02*
X213243761Y-97520646D01*
X213201346Y-97444132D02*
X213223217Y-97481869D01*
X213178151Y-97407435D02*
X213201346Y-97444132D01*
X213153629Y-97371777D02*
X213178151Y-97407435D01*
X213127783Y-97337159D02*
X213153629Y-97371777D01*
X213100610Y-97303580D02*
X213127783Y-97337159D01*
X213072113Y-97271041D02*
X213100610Y-97303580D01*
X213042289Y-97239541D02*
X213072113Y-97271041D01*
X213011141Y-97209081D02*
X213042289Y-97239541D01*
X212978927Y-97179765D02*
X213011141Y-97209081D01*
X212945907Y-97151696D02*
X212978927Y-97179765D01*
X212912081Y-97124875D02*
X212945907Y-97151696D01*
X212877450Y-97099301D02*
X212912081Y-97124875D01*
X212842013Y-97074975D02*
X212877450Y-97099301D01*
X212805770Y-97051896D02*
X212842013Y-97074975D01*
X212768722Y-97030064D02*
X212805770Y-97051896D01*
X212730868Y-97009481D02*
X212768722Y-97030064D01*
X212692208Y-96990144D02*
X212730868Y-97009481D01*
X212652743Y-96972055D02*
X212692208Y-96990144D01*
X212612472Y-96955214D02*
X212652743Y-96972055D01*
X212571395Y-96939620D02*
X212612472Y-96955214D01*
X212529513Y-96925274D02*
X212571395Y-96939620D01*
X212486825Y-96912175D02*
X212529513Y-96925274D01*
X212443331Y-96900324D02*
X212486825Y-96912175D01*
X212399032Y-96889720D02*
X212443331Y-96900324D01*
X212353927Y-96880364D02*
X212399032Y-96889720D01*
X212308016Y-96872255D02*
X212353927Y-96880364D01*
X212261299Y-96865394D02*
X212308016Y-96872255D01*
X212213777Y-96859780D02*
X212261299Y-96865394D01*
X212165449Y-96855414D02*
X212213777Y-96859780D01*
X212116316Y-96852295D02*
X212165449Y-96855414D01*
X212066377Y-96850424D02*
X212116316Y-96852295D01*
X212015632Y-96849800D02*
X212066377Y-96850424D01*
X209770123Y-96849800D02*
X212015632Y-96849800D01*
X191337685Y-96849800D02*
X186330200Y-96849800D01*
X191337685Y-100480040D02*
X191337685Y-96849800D01*
X191337510Y-100507355D02*
X191337685Y-100480040D01*
X191336983Y-100534410D02*
X191337510Y-100507355D01*
X191336106Y-100561205D02*
X191336983Y-100534410D01*
X191334878Y-100587741D02*
X191336106Y-100561205D01*
X191333299Y-100614016D02*
X191334878Y-100587741D01*
X191331370Y-100640032D02*
X191333299Y-100614016D01*
X191329089Y-100665788D02*
X191331370Y-100640032D01*
X191326457Y-100691284D02*
X191329089Y-100665788D01*
X191323475Y-100716520D02*
X191326457Y-100691284D01*
X191320142Y-100741496D02*
X191323475Y-100716520D01*
X191316458Y-100766212D02*
X191320142Y-100741496D01*
X191312423Y-100790668D02*
X191316458Y-100766212D01*
X191308037Y-100814865D02*
X191312423Y-100790668D01*
X191303301Y-100838801D02*
X191308037Y-100814865D01*
X191298213Y-100862478D02*
X191303301Y-100838801D01*
X191292775Y-100885894D02*
X191298213Y-100862478D01*
X191286986Y-100909051D02*
X191292775Y-100885894D01*
X191280846Y-100931948D02*
X191286986Y-100909051D01*
X191274355Y-100954585D02*
X191280846Y-100931948D01*
X191267513Y-100976962D02*
X191274355Y-100954585D01*
X191260320Y-100999080D02*
X191267513Y-100976962D01*
X191252777Y-101020937D02*
X191260320Y-100999080D01*
X191244882Y-101042534D02*
X191252777Y-101020937D01*
X191236637Y-101063872D02*
X191244882Y-101042534D01*
X191228067Y-101084943D02*
X191236637Y-101063872D01*
X191219198Y-101105741D02*
X191228067Y-101084943D01*
X191210030Y-101126267D02*
X191219198Y-101105741D01*
X191200563Y-101146519D02*
X191210030Y-101126267D01*
X191190798Y-101166499D02*
X191200563Y-101146519D01*
X191180733Y-101186205D02*
X191190798Y-101166499D01*
X191170370Y-101205639D02*
X191180733Y-101186205D01*
X191159708Y-101224800D02*
X191170370Y-101205639D01*
X191148747Y-101243688D02*
X191159708Y-101224800D01*
X191137486Y-101262303D02*
X191148747Y-101243688D01*
X191125928Y-101280645D02*
X191137486Y-101262303D01*
X191114070Y-101298715D02*
X191125928Y-101280645D01*
X191101913Y-101316511D02*
X191114070Y-101298715D01*
X191089458Y-101334035D02*
X191101913Y-101316511D01*
X191076703Y-101351285D02*
X191089458Y-101334035D01*
X191063650Y-101368263D02*
X191076703Y-101351285D01*
X191050298Y-101384968D02*
X191063650Y-101368263D01*
X191036646Y-101401400D02*
X191050298Y-101384968D01*
X191022697Y-101417559D02*
X191036646Y-101401400D01*
X191008448Y-101433445D02*
X191022697Y-101417559D01*
X190993900Y-101449059D02*
X191008448Y-101433445D01*
X190979053Y-101464399D02*
X190993900Y-101449059D01*
X190963908Y-101479466D02*
X190979053Y-101464399D01*
X190948463Y-101494261D02*
X190963908Y-101479466D01*
X190932753Y-101508770D02*
X190948463Y-101494261D01*
X190916808Y-101522980D02*
X190932753Y-101508770D01*
X190900629Y-101536891D02*
X190916808Y-101522980D01*
X190884217Y-101550503D02*
X190900629Y-101536891D01*
X190867571Y-101563816D02*
X190884217Y-101550503D01*
X190850690Y-101576830D02*
X190867571Y-101563816D01*
X190833576Y-101589546D02*
X190850690Y-101576830D01*
X190816228Y-101601962D02*
X190833576Y-101589546D01*
X190798646Y-101614080D02*
X190816228Y-101601962D01*
X190780830Y-101625899D02*
X190798646Y-101614080D01*
X190762780Y-101637419D02*
X190780830Y-101625899D01*
X190744496Y-101648640D02*
X190762780Y-101637419D01*
X190725979Y-101659562D02*
X190744496Y-101648640D01*
X190707227Y-101670185D02*
X190725979Y-101659562D01*
X190688242Y-101680510D02*
X190707227Y-101670185D01*
X190669022Y-101690535D02*
X190688242Y-101680510D01*
X190649569Y-101700262D02*
X190669022Y-101690535D01*
X190629882Y-101709690D02*
X190649569Y-101700262D01*
X190609961Y-101718818D02*
X190629882Y-101709690D01*
X190589806Y-101727648D02*
X190609961Y-101718818D01*
X190569417Y-101736180D02*
X190589806Y-101727648D01*
X190548794Y-101744412D02*
X190569417Y-101736180D01*
X190527937Y-101752345D02*
X190548794Y-101744412D01*
X190506847Y-101759980D02*
X190527937Y-101752345D01*
X190485561Y-101767309D02*
X190506847Y-101759980D01*
X190464120Y-101774326D02*
X190485561Y-101767309D01*
X190442522Y-101781031D02*
X190464120Y-101774326D01*
X190420769Y-101787425D02*
X190442522Y-101781031D01*
X190398860Y-101793506D02*
X190420769Y-101787425D01*
X190376794Y-101799276D02*
X190398860Y-101793506D01*
X190354573Y-101804734D02*
X190376794Y-101799276D01*
X190332196Y-101809880D02*
X190354573Y-101804734D01*
X190309663Y-101814714D02*
X190332196Y-101809880D01*
X190286974Y-101819236D02*
X190309663Y-101814714D01*
X190264129Y-101823446D02*
X190286974Y-101819236D01*
X190241128Y-101827345D02*
X190264129Y-101823446D01*
X190217971Y-101830931D02*
X190241128Y-101827345D01*
X190194659Y-101834206D02*
X190217971Y-101830931D01*
X190171190Y-101837169D02*
X190194659Y-101834206D01*
X190147565Y-101839820D02*
X190171190Y-101837169D01*
X190123785Y-101842159D02*
X190147565Y-101839820D01*
X190099848Y-101844186D02*
X190123785Y-101842159D01*
X190075756Y-101845902D02*
X190099848Y-101844186D01*
X190051507Y-101847305D02*
X190075756Y-101845902D01*
X190027103Y-101848397D02*
X190051507Y-101847305D01*
X190002543Y-101849176D02*
X190027103Y-101848397D01*
X189977827Y-101849644D02*
X190002543Y-101849176D01*
X189952954Y-101849800D02*
X189977827Y-101849644D01*
X189284630Y-100531499D02*
X189241877Y-100532435D01*
X189325563Y-100528692D02*
X189284630Y-100531499D01*
X189364678Y-100524014D02*
X189325563Y-100528692D01*
X189401973Y-100517465D02*
X189364678Y-100524014D01*
X189437449Y-100509044D02*
X189401973Y-100517465D01*
X189471106Y-100498752D02*
X189437449Y-100509044D01*
X189502943Y-100486589D02*
X189471106Y-100498752D01*
X189532961Y-100472554D02*
X189502943Y-100486589D01*
X189561160Y-100456649D02*
X189532961Y-100472554D01*
X189587539Y-100438872D02*
X189561160Y-100456649D01*
X189612100Y-100419224D02*
X189587539Y-100438872D01*
X189634841Y-100397704D02*
X189612100Y-100419224D01*
X189655762Y-100374313D02*
X189634841Y-100397704D01*
X189674865Y-100349051D02*
X189655762Y-100374313D01*
X189692148Y-100321918D02*
X189674865Y-100349051D01*
X189707612Y-100292914D02*
X189692148Y-100321918D01*
X189721256Y-100262038D02*
X189707612Y-100292914D01*
X189733082Y-100229291D02*
X189721256Y-100262038D01*
X189743088Y-100194673D02*
X189733082Y-100229291D01*
X189751275Y-100158183D02*
X189743088Y-100194673D01*
X189757642Y-100119822D02*
X189751275Y-100158183D01*
X189762190Y-100079590D02*
X189757642Y-100119822D01*
X189764919Y-100037487D02*
X189762190Y-100079590D01*
X189765829Y-99993513D02*
X189764919Y-100037487D01*
X189765829Y-98159680D02*
X189765829Y-99993513D01*
X187909541Y-98159680D02*
X189765829Y-98159680D01*
X187909541Y-101849800D02*
X187909541Y-98159680D01*
X186330200Y-101849800D02*
X187909541Y-101849800D01*
X186330200Y-96849800D02*
X186330200Y-101849800D01*
X240880200Y-125450800D02*
X240893200Y-173469800D01*
X233032200Y-100418800D02*
X240880200Y-125450800D01*
X233032200Y-94450800D02*
X233032200Y-100418800D01*
X181864000Y-94488000D02*
X233032200Y-94450800D01*
X181864000Y-108331000D02*
X162382200Y-124917800D01*
X162382200Y-124917800D02*
X162382200Y-173457800D01*
M02*
