G04 #@! TF.FileFunction,Copper,L1,Top,Signal*
%FSLAX46Y46*%
G04 Gerber Fmt 4.6, Leading zero omitted, Abs format (unit mm)*
G04 Created by KiCad (PCBNEW 4.0.7) date Monday, July 02, 2018 'PMt' 09:22:05 PM*
%MOMM*%
%LPD*%
G01*
G04 APERTURE LIST*
%ADD10C,0.100000*%
%ADD11R,1.524000X1.524000*%
%ADD12C,1.524000*%
%ADD13R,1.700000X1.700000*%
%ADD14O,1.700000X1.700000*%
%ADD15R,1.000000X2.510000*%
%ADD16O,1.524000X2.540000*%
%ADD17R,1.250000X1.000000*%
%ADD18R,1.000000X1.250000*%
%ADD19R,1.200000X1.200000*%
%ADD20R,0.700000X1.300000*%
%ADD21R,0.600000X1.550000*%
%ADD22R,1.450000X0.450000*%
%ADD23R,1.000000X0.500000*%
%ADD24R,0.600000X1.200000*%
%ADD25C,0.600000*%
%ADD26C,0.300000*%
%ADD27C,0.400000*%
%ADD28C,0.600000*%
%ADD29C,0.254000*%
G04 APERTURE END LIST*
D10*
D11*
X164322000Y-163562000D03*
D12*
X164322000Y-161022000D03*
X164322000Y-158482000D03*
X164322000Y-155942000D03*
X164322000Y-153402000D03*
X164322000Y-150862000D03*
X164322000Y-148322000D03*
X164322000Y-145782000D03*
X164322000Y-143242000D03*
X164322000Y-140702000D03*
X164322000Y-138162000D03*
X164322000Y-135622000D03*
X164322000Y-133082000D03*
X164322000Y-130542000D03*
D11*
X237562000Y-150862000D03*
D12*
X237562000Y-148322000D03*
X237562000Y-145782000D03*
X237562000Y-143242000D03*
D13*
X191389000Y-160401000D03*
D14*
X191389000Y-162941000D03*
X191389000Y-165481000D03*
X191389000Y-168021000D03*
D15*
X198501000Y-120840000D03*
X206121000Y-124150000D03*
X208661000Y-124150000D03*
X211201000Y-124150000D03*
X211201000Y-120840000D03*
X208661000Y-120840000D03*
X206121000Y-120840000D03*
X188341000Y-124150000D03*
X190881000Y-124150000D03*
X193421000Y-124150000D03*
X195961000Y-124150000D03*
X188341000Y-120840000D03*
X190881000Y-120840000D03*
X193421000Y-120840000D03*
X195961000Y-120840000D03*
X201041000Y-124150000D03*
X198501000Y-124150000D03*
X201041000Y-120840000D03*
X203581000Y-124150000D03*
D16*
X233045000Y-170764200D03*
X230505000Y-170764200D03*
X227965000Y-170764200D03*
X220345000Y-170764200D03*
X222885000Y-170764200D03*
X225425000Y-170764200D03*
X215265000Y-170764200D03*
X212725000Y-170764200D03*
X210185000Y-170764200D03*
X205105000Y-170764200D03*
X202565000Y-170764200D03*
X233045000Y-122504200D03*
X230505000Y-122504200D03*
X227965000Y-122504200D03*
X225425000Y-122504200D03*
X222885000Y-122504200D03*
X220345000Y-122504200D03*
X217805000Y-122504200D03*
X215265000Y-122504200D03*
X207645000Y-170764200D03*
X200025000Y-170764200D03*
D12*
X233045000Y-142824200D03*
X235585000Y-142824200D03*
X233045000Y-145364200D03*
X235585000Y-145364200D03*
X233045000Y-147904200D03*
X235585000Y-147904200D03*
D15*
X203581000Y-120840000D03*
D17*
X198550000Y-115900000D03*
X198550000Y-113900000D03*
D13*
X183642000Y-117475000D03*
D14*
X183642000Y-114935000D03*
X183642000Y-112395000D03*
D18*
X183600000Y-142700000D03*
X181600000Y-142700000D03*
X194453000Y-140843000D03*
X196453000Y-140843000D03*
D19*
X235161000Y-118745000D03*
X232961000Y-118745000D03*
D20*
X233365000Y-116840000D03*
X235265000Y-116840000D03*
X183200000Y-147900000D03*
X181300000Y-147900000D03*
X232145800Y-150926800D03*
X234045800Y-150926800D03*
X234147400Y-153136600D03*
X232247400Y-153136600D03*
D21*
X195805000Y-112300000D03*
X194535000Y-112300000D03*
X193265000Y-112300000D03*
X191995000Y-112300000D03*
X191995000Y-117700000D03*
X193265000Y-117700000D03*
X194535000Y-117700000D03*
X195805000Y-117700000D03*
D22*
X186508600Y-141601000D03*
X186508600Y-142251000D03*
X186508600Y-142901000D03*
X186508600Y-143551000D03*
X186508600Y-144201000D03*
X186508600Y-144851000D03*
X186508600Y-145501000D03*
X186508600Y-146151000D03*
X186508600Y-146801000D03*
X186508600Y-147451000D03*
X192408600Y-147451000D03*
X192408600Y-146801000D03*
X192408600Y-146151000D03*
X192408600Y-145501000D03*
X192408600Y-144851000D03*
X192408600Y-144201000D03*
X192408600Y-143551000D03*
X192408600Y-142901000D03*
X192408600Y-142251000D03*
X192408600Y-141601000D03*
D20*
X189799000Y-115294000D03*
X187899000Y-115294000D03*
X189799000Y-117453000D03*
X187899000Y-117453000D03*
X217500000Y-173650000D03*
X218300000Y-173650000D03*
D23*
X180619400Y-129870200D03*
D24*
X181675400Y-129013200D03*
X184675400Y-129013200D03*
X186175400Y-129013200D03*
D23*
X180619400Y-132156200D03*
X187858400Y-132156200D03*
X187858400Y-129870200D03*
X189966600Y-129895600D03*
D24*
X191022600Y-129038600D03*
X194022600Y-129038600D03*
X195522600Y-129038600D03*
D23*
X189966600Y-132181600D03*
X197205600Y-132181600D03*
X197205600Y-129895600D03*
X199390000Y-129946400D03*
D24*
X200446000Y-129089400D03*
X203446000Y-129089400D03*
X204946000Y-129089400D03*
D23*
X199390000Y-132232400D03*
X206629000Y-132232400D03*
X206629000Y-129946400D03*
D25*
X197400000Y-127000000D03*
X202300000Y-126650000D03*
X204850000Y-126500000D03*
X195961000Y-122395000D03*
X200200000Y-113800000D03*
X197200000Y-131100000D03*
X189900000Y-131200000D03*
X187900000Y-131200000D03*
X180600000Y-131100000D03*
X206700000Y-131000000D03*
X199390000Y-131100000D03*
X180000000Y-142800000D03*
X197739000Y-140335000D03*
X232156000Y-154940000D03*
X191008000Y-147447000D03*
X231013000Y-118745000D03*
X206121000Y-122395000D03*
X211201000Y-122395000D03*
X208661000Y-122395000D03*
X230600000Y-151700000D03*
X230400000Y-158800000D03*
X206150000Y-139300000D03*
X219699996Y-173650000D03*
X173355000Y-135763000D03*
X173355000Y-137795000D03*
X179197000Y-123825000D03*
X205739998Y-144145000D03*
X214756998Y-144780000D03*
X209169000Y-144271998D03*
X213487000Y-144780000D03*
X207645000Y-144145024D03*
X216535000Y-144780000D03*
X187100000Y-151600000D03*
X184799994Y-143900000D03*
X186200000Y-150200000D03*
X184700000Y-144900013D03*
X227457000Y-146431000D03*
X185000000Y-151300000D03*
X183900000Y-145400000D03*
X176800000Y-145200000D03*
X177700000Y-146400000D03*
X190881000Y-122600000D03*
X188341000Y-122395000D03*
X236699996Y-154700000D03*
X193421000Y-122600000D03*
D26*
X186175400Y-129013200D02*
X186886800Y-129013200D01*
X186886800Y-129013200D02*
X188750000Y-127150000D01*
X188750000Y-127150000D02*
X197250000Y-127150000D01*
X197250000Y-127150000D02*
X197400000Y-127000000D01*
X196761200Y-128400000D02*
X199605398Y-128400000D01*
X199605398Y-128400000D02*
X201355398Y-126650000D01*
X201355398Y-126650000D02*
X202300000Y-126650000D01*
X196122600Y-129038600D02*
X196761200Y-128400000D01*
X195522600Y-129038600D02*
X196122600Y-129038600D01*
X204946000Y-129089400D02*
X204946000Y-126596000D01*
X204946000Y-126596000D02*
X204850000Y-126500000D01*
X195961000Y-120840000D02*
X195961000Y-122395000D01*
X195961000Y-122395000D02*
X195961000Y-124150000D01*
X198550000Y-113900000D02*
X200100000Y-113900000D01*
X200100000Y-113900000D02*
X200200000Y-113800000D01*
X194535000Y-117700000D02*
X194535000Y-112300000D01*
X198550000Y-113900000D02*
X198550000Y-113100000D01*
X198550000Y-113100000D02*
X197750000Y-112300000D01*
X197750000Y-112300000D02*
X196405000Y-112300000D01*
X196405000Y-112300000D02*
X195805000Y-112300000D01*
X194535000Y-112300000D02*
X195805000Y-112300000D01*
X193265000Y-112300000D02*
X194535000Y-112300000D01*
X191995000Y-112300000D02*
X193265000Y-112300000D01*
X180619400Y-129870200D02*
X180619400Y-131080600D01*
X180619400Y-131080600D02*
X180600000Y-131100000D01*
X187858400Y-129870200D02*
X187858400Y-131158400D01*
X187858400Y-131158400D02*
X187900000Y-131200000D01*
X189966600Y-129895600D02*
X189966600Y-131133400D01*
X189966600Y-131133400D02*
X189900000Y-131200000D01*
X197205600Y-129895600D02*
X197205600Y-131094400D01*
X197205600Y-131094400D02*
X197200000Y-131100000D01*
X197205600Y-132181600D02*
X197205600Y-131105600D01*
X197205600Y-131105600D02*
X197200000Y-131100000D01*
X189966600Y-132181600D02*
X189966600Y-131266600D01*
X189966600Y-131266600D02*
X189900000Y-131200000D01*
X187858400Y-132156200D02*
X187858400Y-131241600D01*
X187858400Y-131241600D02*
X187900000Y-131200000D01*
X180619400Y-132156200D02*
X180619400Y-131119400D01*
X180619400Y-131119400D02*
X180600000Y-131100000D01*
X206629000Y-132232400D02*
X206629000Y-131071000D01*
X206629000Y-131071000D02*
X206700000Y-131000000D01*
X206629000Y-129946400D02*
X206629000Y-130929000D01*
X206629000Y-130929000D02*
X206700000Y-131000000D01*
X199390000Y-129946400D02*
X199390000Y-131100000D01*
X199390000Y-132232400D02*
X199390000Y-131100000D01*
X181600000Y-142700000D02*
X180100000Y-142700000D01*
X180100000Y-142700000D02*
X180000000Y-142800000D01*
D27*
X196453000Y-140843000D02*
X197231000Y-140843000D01*
X197231000Y-140843000D02*
X197739000Y-140335000D01*
D26*
X232247400Y-153136600D02*
X232247400Y-154848600D01*
X232247400Y-154848600D02*
X232156000Y-154940000D01*
X192408600Y-147451000D02*
X191012000Y-147451000D01*
X191012000Y-147451000D02*
X191008000Y-147447000D01*
X232961000Y-118745000D02*
X231013000Y-118745000D01*
X192408600Y-141601000D02*
X192408600Y-140204400D01*
X192408600Y-140204400D02*
X194818000Y-137795000D01*
X194818000Y-137795000D02*
X207137000Y-137795000D01*
X207137000Y-137795000D02*
X208407000Y-136525000D01*
X208407000Y-136525000D02*
X208407000Y-129357000D01*
X208407000Y-129357000D02*
X206121000Y-127071000D01*
X206121000Y-127071000D02*
X206121000Y-124150000D01*
X206121000Y-120840000D02*
X206121000Y-122395000D01*
X206121000Y-122395000D02*
X206121000Y-124150000D01*
X211201000Y-124150000D02*
X211201000Y-137287000D01*
X211201000Y-137287000D02*
X206375000Y-142113000D01*
X206375000Y-142113000D02*
X194691000Y-142113000D01*
X194691000Y-142113000D02*
X193903000Y-142901000D01*
X193903000Y-142901000D02*
X192408600Y-142901000D01*
X211201000Y-120840000D02*
X211201000Y-122395000D01*
X211201000Y-122395000D02*
X211201000Y-124150000D01*
X192408600Y-143551000D02*
X194523000Y-143551000D01*
X194523000Y-143551000D02*
X195199000Y-142875000D01*
X195199000Y-142875000D02*
X207391000Y-142875000D01*
X207391000Y-142875000D02*
X213700000Y-136566000D01*
X213700000Y-119150000D02*
X213100000Y-118550000D01*
X213700000Y-136566000D02*
X213700000Y-119150000D01*
X213100000Y-118550000D02*
X208950000Y-118550000D01*
X208950000Y-118550000D02*
X208661000Y-118839000D01*
X208661000Y-118839000D02*
X208661000Y-120840000D01*
X208661000Y-120840000D02*
X208661000Y-122395000D01*
X208661000Y-122395000D02*
X208661000Y-124150000D01*
X192408600Y-146151000D02*
X194157000Y-146151000D01*
X208407000Y-146812000D02*
X215265000Y-139954000D01*
X194157000Y-146151000D02*
X194818000Y-146812000D01*
X194818000Y-146812000D02*
X208407000Y-146812000D01*
X215265000Y-139954000D02*
X215265000Y-124074200D01*
X215265000Y-124074200D02*
X215265000Y-122504200D01*
X193376478Y-146801000D02*
X194276478Y-147701000D01*
X217805000Y-124074200D02*
X217805000Y-122504200D01*
X217805000Y-138938000D02*
X217805000Y-124074200D01*
X209042000Y-147701000D02*
X217805000Y-138938000D01*
X194276478Y-147701000D02*
X209042000Y-147701000D01*
X192408600Y-146801000D02*
X193376478Y-146801000D01*
X230600000Y-151700000D02*
X231372600Y-151700000D01*
X231372600Y-151700000D02*
X232145800Y-150926800D01*
X235300000Y-164400000D02*
X230400000Y-159500000D01*
X230400000Y-159500000D02*
X230400000Y-158800000D01*
X235300000Y-171900000D02*
X235300000Y-164400000D01*
X234000000Y-173200000D02*
X235300000Y-171900000D01*
X231370800Y-173200000D02*
X234000000Y-173200000D01*
X230505000Y-170764200D02*
X230505000Y-172334200D01*
X230505000Y-172334200D02*
X231370800Y-173200000D01*
X230505000Y-170764200D02*
X230505000Y-171272200D01*
X206200000Y-117078000D02*
X206200000Y-117900000D01*
X206200000Y-117900000D02*
X207400000Y-119100000D01*
X207400000Y-125800000D02*
X209550000Y-127950000D01*
X209550000Y-137250000D02*
X207500000Y-139300000D01*
X207500000Y-139300000D02*
X206150000Y-139300000D01*
X207400000Y-119100000D02*
X207400000Y-125800000D01*
X209550000Y-127950000D02*
X209550000Y-137250000D01*
X199771000Y-117078000D02*
X201700000Y-117078000D01*
X201700000Y-117078000D02*
X206200000Y-117078000D01*
X199900000Y-110600000D02*
X201700000Y-112400000D01*
X201700000Y-112400000D02*
X201700000Y-117078000D01*
X190500000Y-110600000D02*
X199900000Y-110600000D01*
X187899000Y-113201000D02*
X190500000Y-110600000D01*
X187899000Y-115294000D02*
X187899000Y-113201000D01*
X187899000Y-117453000D02*
X187899000Y-115294000D01*
X195805000Y-117700000D02*
X195805000Y-117225000D01*
X195805000Y-117225000D02*
X197130000Y-115900000D01*
X197130000Y-115900000D02*
X197625000Y-115900000D01*
X197625000Y-115900000D02*
X198550000Y-115900000D01*
X198550000Y-115900000D02*
X198550000Y-116700000D01*
X198550000Y-116700000D02*
X198928000Y-117078000D01*
X198928000Y-117078000D02*
X199771000Y-117078000D01*
X206200000Y-117078000D02*
X231267000Y-117078000D01*
D28*
X194453000Y-140843000D02*
X194453000Y-139697000D01*
X194850000Y-139300000D02*
X206150000Y-139300000D01*
X194453000Y-139697000D02*
X194850000Y-139300000D01*
D27*
X194453000Y-140843000D02*
X194453000Y-141331600D01*
X194453000Y-141331600D02*
X193533600Y-142251000D01*
X192408600Y-142251000D02*
X193533600Y-142251000D01*
X194437000Y-140827000D02*
X194453000Y-140843000D01*
D26*
X231267000Y-117078000D02*
X231378000Y-117078000D01*
X233365000Y-116840000D02*
X232715000Y-116840000D01*
X232715000Y-116840000D02*
X232477000Y-117078000D01*
X232477000Y-117078000D02*
X231267000Y-117078000D01*
D28*
X218350001Y-173650000D02*
X219699996Y-173650000D01*
D26*
X183600000Y-142700000D02*
X184400000Y-142700000D01*
X184400000Y-142700000D02*
X184849000Y-142251000D01*
X184849000Y-142251000D02*
X185483600Y-142251000D01*
X185483600Y-142251000D02*
X186508600Y-142251000D01*
X164322000Y-145782000D02*
X172309000Y-137795000D01*
X172309000Y-137795000D02*
X173355000Y-137795000D01*
X235265000Y-116840000D02*
X235265000Y-118641000D01*
X235265000Y-118641000D02*
X235161000Y-118745000D01*
X179197000Y-123888500D02*
X179197000Y-123825000D01*
X192408600Y-144201000D02*
X195270000Y-144201000D01*
X195961000Y-143510000D02*
X205104998Y-143510000D01*
X205104998Y-143510000D02*
X205739998Y-144145000D01*
X195270000Y-144201000D02*
X195961000Y-143510000D01*
X198866998Y-129089400D02*
X200446000Y-129089400D01*
X198374000Y-129582398D02*
X198866998Y-129089400D01*
X215407000Y-144129998D02*
X215056997Y-144480001D01*
X234350798Y-144129998D02*
X215407000Y-144129998D01*
X235585000Y-145364200D02*
X234350798Y-144129998D01*
X215056997Y-144480001D02*
X214756998Y-144780000D01*
X192408600Y-144201000D02*
X191383600Y-144201000D01*
X191383600Y-144201000D02*
X191262000Y-144079400D01*
X191262000Y-144079400D02*
X191262000Y-134366000D01*
X190754000Y-133858000D02*
X191262000Y-134366000D01*
X191262000Y-134366000D02*
X191770000Y-133858000D01*
X191770000Y-133858000D02*
X197231000Y-133858000D01*
X197231000Y-133858000D02*
X198374000Y-132715000D01*
X198374000Y-132715000D02*
X198374000Y-129582398D01*
X180594000Y-133858000D02*
X190754000Y-133858000D01*
X179197000Y-132461000D02*
X180594000Y-133858000D01*
X179197000Y-123888500D02*
X179197000Y-132461000D01*
X186301010Y-116442729D02*
X186301010Y-115054010D01*
X186301010Y-115054010D02*
X183642000Y-112395000D01*
X186301010Y-122816990D02*
X186301010Y-116442729D01*
X184277000Y-131318000D02*
X184277000Y-130429000D01*
X188468000Y-133096000D02*
X186055000Y-133096000D01*
X183642000Y-125476000D02*
X186301010Y-122816990D01*
X188976000Y-132588000D02*
X188468000Y-133096000D01*
X183642000Y-129794000D02*
X183642000Y-125476000D01*
X184277000Y-130429000D02*
X183642000Y-129794000D01*
X186055000Y-133096000D02*
X184277000Y-131318000D01*
X180801500Y-113076500D02*
X182960500Y-113076500D01*
X182960500Y-113076500D02*
X183642000Y-112395000D01*
X190586000Y-145501000D02*
X192408600Y-145501000D01*
X190200051Y-145115051D02*
X190586000Y-145501000D01*
X189103000Y-136144000D02*
X190200051Y-137241051D01*
X175260000Y-118618000D02*
X175260000Y-132588000D01*
X180801500Y-113076500D02*
X175260000Y-118618000D01*
X188976000Y-129506198D02*
X188976000Y-132588000D01*
X189443598Y-129038600D02*
X188976000Y-129506198D01*
X191022600Y-129038600D02*
X189443598Y-129038600D01*
X175260000Y-132588000D02*
X178816000Y-136144000D01*
X178816000Y-136144000D02*
X189103000Y-136144000D01*
X190200051Y-137241051D02*
X190200051Y-145115051D01*
X209169000Y-144271998D02*
X207390998Y-146050000D01*
X195453000Y-146050000D02*
X194904000Y-145501000D01*
X207390998Y-146050000D02*
X195453000Y-146050000D01*
X194904000Y-145501000D02*
X192408600Y-145501000D01*
X233045000Y-142824200D02*
X215442800Y-142824200D01*
X215442800Y-142824200D02*
X213487000Y-144780000D01*
X183642000Y-117475000D02*
X183896000Y-117475000D01*
X183896000Y-117475000D02*
X185039000Y-118618000D01*
X177292000Y-123698000D02*
X177419000Y-123698000D01*
X177419000Y-123698000D02*
X183642000Y-117475000D01*
X192408600Y-144851000D02*
X206939024Y-144851000D01*
X177292000Y-132334000D02*
X177292000Y-123698000D01*
X179959000Y-135001000D02*
X177292000Y-132334000D01*
X189357000Y-135001000D02*
X179959000Y-135001000D01*
X190754000Y-136398000D02*
X189357000Y-135001000D01*
X190754000Y-144526000D02*
X190754000Y-136398000D01*
X191079000Y-144851000D02*
X190754000Y-144526000D01*
X192408600Y-144851000D02*
X191079000Y-144851000D01*
X181675400Y-129013200D02*
X181675400Y-125410600D01*
X181675400Y-125410600D02*
X185039000Y-122047000D01*
X185039000Y-122047000D02*
X185039000Y-118618000D01*
X207345001Y-144445023D02*
X207645000Y-144145024D01*
X206939024Y-144851000D02*
X207345001Y-144445023D01*
X233045000Y-145364200D02*
X217119200Y-145364200D01*
X216834999Y-145079999D02*
X216535000Y-144780000D01*
X217119200Y-145364200D02*
X216834999Y-145079999D01*
X203446000Y-129089400D02*
X203446000Y-124285000D01*
X203446000Y-124285000D02*
X203581000Y-124150000D01*
X203446000Y-124294200D02*
X203581000Y-124159200D01*
X203581000Y-120849200D02*
X203581000Y-124159200D01*
X198046011Y-127899989D02*
X201041000Y-124905000D01*
X194861211Y-127899989D02*
X198046011Y-127899989D01*
X194022600Y-129038600D02*
X194022600Y-128738600D01*
X201041000Y-124905000D02*
X201041000Y-124150000D01*
X194022600Y-128738600D02*
X194861211Y-127899989D01*
X201041000Y-124159200D02*
X201041000Y-124914200D01*
X201041000Y-120849200D02*
X201041000Y-122404200D01*
X201041000Y-122404200D02*
X201041000Y-124159200D01*
X184675400Y-129013200D02*
X184675400Y-128713200D01*
X184675400Y-128713200D02*
X187238600Y-126150000D01*
X187238600Y-126150000D02*
X197256000Y-126150000D01*
X197256000Y-126150000D02*
X198501000Y-124905000D01*
X198501000Y-124905000D02*
X198501000Y-124150000D01*
X198501000Y-120849200D02*
X198501000Y-122404200D01*
X198501000Y-122404200D02*
X198501000Y-124159200D01*
X184949000Y-147451000D02*
X184500000Y-147900000D01*
X184500000Y-147900000D02*
X183200000Y-147900000D01*
X186508600Y-147451000D02*
X184949000Y-147451000D01*
X234045800Y-150926800D02*
X234045800Y-153035000D01*
X234045800Y-153035000D02*
X234147400Y-153136600D01*
X237562000Y-150862000D02*
X234110600Y-150862000D01*
X234110600Y-150862000D02*
X234045800Y-150926800D01*
X186508600Y-141601000D02*
X177186244Y-141601000D01*
X177186244Y-141601000D02*
X168529000Y-150258244D01*
X168529000Y-150258244D02*
X168529000Y-154275000D01*
X168529000Y-154275000D02*
X164322000Y-158482000D01*
X187700000Y-141107122D02*
X186927878Y-140335000D01*
X167386000Y-149733000D02*
X167386000Y-152878000D01*
X187476478Y-142901000D02*
X187700000Y-142677478D01*
X186508600Y-142901000D02*
X187476478Y-142901000D01*
X187700000Y-142677478D02*
X187700000Y-141107122D01*
X186927878Y-140335000D02*
X176784000Y-140335000D01*
X176784000Y-140335000D02*
X167386000Y-149733000D01*
X167386000Y-152878000D02*
X165083999Y-155180001D01*
X165083999Y-155180001D02*
X164322000Y-155942000D01*
X187533600Y-143551000D02*
X188200011Y-142884589D01*
X166751000Y-150973000D02*
X165083999Y-152640001D01*
X166751000Y-148971000D02*
X166751000Y-150973000D01*
X186873000Y-139573000D02*
X176149000Y-139573000D01*
X188200010Y-140900010D02*
X186873000Y-139573000D01*
X186508600Y-143551000D02*
X187533600Y-143551000D01*
X165083999Y-152640001D02*
X164322000Y-153402000D01*
X176149000Y-139573000D02*
X166751000Y-148971000D01*
X188200011Y-142884589D02*
X188200010Y-140900010D01*
X164322000Y-150862000D02*
X164322000Y-150797000D01*
X164322000Y-150797000D02*
X162950000Y-149425000D01*
X162950000Y-136994000D02*
X164322000Y-135622000D01*
X162950000Y-149425000D02*
X162950000Y-136994000D01*
X175975000Y-138811000D02*
X175975000Y-138850000D01*
X175975000Y-138850000D02*
X164322000Y-150503000D01*
X164322000Y-150503000D02*
X164322000Y-150862000D01*
X225717000Y-151600000D02*
X187524264Y-151600000D01*
X236800001Y-149083999D02*
X228233001Y-149083999D01*
X187524264Y-151600000D02*
X187100000Y-151600000D01*
X237562000Y-148322000D02*
X236800001Y-149083999D01*
X228233001Y-149083999D02*
X225717000Y-151600000D01*
X186508600Y-144201000D02*
X187590720Y-144201000D01*
X187590720Y-144201000D02*
X188700021Y-143091699D01*
X188700021Y-143091699D02*
X188700021Y-140200021D01*
X188700021Y-140200021D02*
X187311000Y-138811000D01*
X187311000Y-138811000D02*
X175975000Y-138811000D01*
X175975000Y-138811000D02*
X175895000Y-138811000D01*
X186508600Y-144201000D02*
X185100994Y-144201000D01*
X185099993Y-144199999D02*
X184799994Y-143900000D01*
X185100994Y-144201000D02*
X185099993Y-144199999D01*
X227457000Y-146431000D02*
X224488000Y-149400000D01*
X224488000Y-149400000D02*
X187000000Y-149400000D01*
X187000000Y-149400000D02*
X186200000Y-150200000D01*
X186508600Y-144851000D02*
X188149000Y-144851000D01*
X188149000Y-144851000D02*
X189200030Y-143799970D01*
X189200030Y-143799970D02*
X189200030Y-139600030D01*
X189200030Y-139600030D02*
X187395000Y-137795000D01*
X165083999Y-147560001D02*
X164322000Y-148322000D01*
X187395000Y-137795000D02*
X174849000Y-137795000D01*
X174849000Y-137795000D02*
X165083999Y-147560001D01*
X184749013Y-144851000D02*
X184700000Y-144900013D01*
X186508600Y-144851000D02*
X184749013Y-144851000D01*
X164322000Y-133082000D02*
X165407000Y-133082000D01*
X165407000Y-133082000D02*
X169104000Y-136779000D01*
X171325000Y-136779000D02*
X169104000Y-136779000D01*
X166350000Y-141214000D02*
X164322000Y-143242000D01*
X166350000Y-139533000D02*
X166350000Y-141214000D01*
X169104000Y-136779000D02*
X166350000Y-139533000D01*
X237562000Y-145782000D02*
X236800001Y-146543999D01*
X236800001Y-146543999D02*
X229122001Y-146543999D01*
X229122001Y-146543999D02*
X224966000Y-150700000D01*
X224966000Y-150700000D02*
X187000000Y-150700000D01*
X187000000Y-150700000D02*
X186400000Y-151300000D01*
X186400000Y-151300000D02*
X185424264Y-151300000D01*
X185424264Y-151300000D02*
X185000000Y-151300000D01*
X186508600Y-145501000D02*
X188699000Y-145501000D01*
X188699000Y-145501000D02*
X189700040Y-144499960D01*
X189700040Y-144499960D02*
X189700040Y-138800040D01*
X187679000Y-136779000D02*
X171325000Y-136779000D01*
X171325000Y-136779000D02*
X171225000Y-136779000D01*
X189700040Y-138800040D02*
X187679000Y-136779000D01*
X184050015Y-145550015D02*
X183900000Y-145400000D01*
X185434585Y-145550015D02*
X184050015Y-145550015D01*
X185483600Y-145501000D02*
X185434585Y-145550015D01*
X186508600Y-145501000D02*
X185483600Y-145501000D01*
X186508600Y-146151000D02*
X178551000Y-146151000D01*
X178551000Y-146151000D02*
X177600000Y-145200000D01*
X177600000Y-145200000D02*
X177224264Y-145200000D01*
X177224264Y-145200000D02*
X176800000Y-145200000D01*
X186508600Y-146801000D02*
X178101000Y-146801000D01*
X177999999Y-146699999D02*
X177700000Y-146400000D01*
X178101000Y-146801000D02*
X177999999Y-146699999D01*
X190881000Y-122395000D02*
X190881000Y-122600000D01*
X190881000Y-122600000D02*
X190881000Y-123659190D01*
X190881000Y-120840000D02*
X190881000Y-122395000D01*
X191170000Y-119000000D02*
X191166000Y-119000000D01*
X191166000Y-119000000D02*
X190881000Y-119285000D01*
X190881000Y-119285000D02*
X190881000Y-120840000D01*
X191995000Y-117700000D02*
X191995000Y-118175000D01*
X191995000Y-118175000D02*
X191170000Y-119000000D01*
X191044000Y-115294000D02*
X191995000Y-116245000D01*
X191995000Y-116245000D02*
X191995000Y-117700000D01*
X189799000Y-115294000D02*
X191044000Y-115294000D01*
X191850000Y-114050000D02*
X193265000Y-115465000D01*
X193265000Y-115465000D02*
X193265000Y-117700000D01*
X189250000Y-114050000D02*
X191850000Y-114050000D01*
X189098999Y-114201001D02*
X189250000Y-114050000D01*
X189799000Y-117453000D02*
X189799000Y-116924002D01*
X189799000Y-116924002D02*
X189098999Y-116224001D01*
X189098999Y-116224001D02*
X189098999Y-114201001D01*
X188341000Y-120840000D02*
X189141000Y-120840000D01*
X189141000Y-120840000D02*
X189799000Y-120182000D01*
X189799000Y-120182000D02*
X189799000Y-118403000D01*
X189799000Y-118403000D02*
X189799000Y-117453000D01*
X188341000Y-120840000D02*
X188341000Y-122395000D01*
X188341000Y-122395000D02*
X188341000Y-124150000D01*
X202565000Y-170764200D02*
X202565000Y-171272200D01*
X202565000Y-171272200D02*
X207992800Y-176700000D01*
X207992800Y-176700000D02*
X234750000Y-176700000D01*
X238700000Y-157124268D02*
X236699996Y-155124264D01*
X234750000Y-176700000D02*
X238700000Y-172750000D01*
X238700000Y-172750000D02*
X238700000Y-157124268D01*
X236699996Y-155124264D02*
X236699996Y-154700000D01*
D28*
X215265000Y-170764200D02*
X215265000Y-172634200D01*
X215265000Y-172634200D02*
X216280800Y-173650000D01*
X216280800Y-173650000D02*
X217449999Y-173650000D01*
D26*
X193421000Y-122395000D02*
X193421000Y-122600000D01*
X193421000Y-122600000D02*
X193421000Y-124150000D01*
X193421000Y-120840000D02*
X193421000Y-122395000D01*
D29*
G36*
X232347200Y-100418800D02*
X232367443Y-100520565D01*
X232378571Y-100623725D01*
X240195228Y-125555754D01*
X240208200Y-173469986D01*
X240209497Y-173476495D01*
X240208328Y-173483026D01*
X240301644Y-178315000D01*
X201661707Y-178315000D01*
X198905765Y-176937029D01*
X198685000Y-176716264D01*
X198685000Y-171596080D01*
X198734340Y-171844130D01*
X199037172Y-172297349D01*
X199490391Y-172600181D01*
X200025000Y-172706521D01*
X200559609Y-172600181D01*
X201012828Y-172297349D01*
X201295000Y-171875050D01*
X201577172Y-172297349D01*
X202030391Y-172600181D01*
X202565000Y-172706521D01*
X202835381Y-172652739D01*
X207437721Y-177255079D01*
X207692393Y-177425245D01*
X207992800Y-177485000D01*
X234750000Y-177485000D01*
X235050407Y-177425245D01*
X235305079Y-177255079D01*
X239255079Y-173305079D01*
X239425245Y-173050406D01*
X239485001Y-172750000D01*
X239485000Y-172749995D01*
X239485000Y-157124268D01*
X239425245Y-156823862D01*
X239255079Y-156569189D01*
X237616600Y-154930710D01*
X237634834Y-154886799D01*
X237635158Y-154514833D01*
X237493113Y-154171057D01*
X237230323Y-153907808D01*
X236886795Y-153765162D01*
X236514829Y-153764838D01*
X236171053Y-153906883D01*
X235907804Y-154169673D01*
X235765158Y-154513201D01*
X235764834Y-154885167D01*
X235906879Y-155228943D01*
X235943019Y-155265147D01*
X235974751Y-155424671D01*
X236144917Y-155679343D01*
X237915000Y-157449426D01*
X237915000Y-172424842D01*
X234424842Y-175915000D01*
X208317958Y-175915000D01*
X204932611Y-172529653D01*
X204978000Y-172503920D01*
X204978000Y-170891200D01*
X204958000Y-170891200D01*
X204958000Y-170637200D01*
X204978000Y-170637200D01*
X204978000Y-170617200D01*
X205232000Y-170617200D01*
X205232000Y-170637200D01*
X205252000Y-170637200D01*
X205252000Y-170891200D01*
X205232000Y-170891200D01*
X205232000Y-172503920D01*
X205448070Y-172626420D01*
X205522277Y-172611460D01*
X206003026Y-172349830D01*
X206347059Y-171924141D01*
X206365670Y-171861087D01*
X206657172Y-172297349D01*
X207110391Y-172600181D01*
X207645000Y-172706521D01*
X208179609Y-172600181D01*
X208632828Y-172297349D01*
X208915000Y-171875050D01*
X209197172Y-172297349D01*
X209650391Y-172600181D01*
X210185000Y-172706521D01*
X210719609Y-172600181D01*
X211172828Y-172297349D01*
X211455000Y-171875050D01*
X211737172Y-172297349D01*
X212190391Y-172600181D01*
X212725000Y-172706521D01*
X213259609Y-172600181D01*
X213712828Y-172297349D01*
X213995000Y-171875050D01*
X214277172Y-172297349D01*
X214330000Y-172332648D01*
X214330000Y-172634200D01*
X214401173Y-172992009D01*
X214603855Y-173295345D01*
X215619655Y-174311145D01*
X215922991Y-174513827D01*
X216280800Y-174585000D01*
X216578808Y-174585000D01*
X216685910Y-174751441D01*
X216898110Y-174896431D01*
X217150000Y-174947440D01*
X217850000Y-174947440D01*
X217901836Y-174937686D01*
X217950000Y-174947440D01*
X218650000Y-174947440D01*
X218885317Y-174903162D01*
X219101441Y-174764090D01*
X219223808Y-174585000D01*
X219699180Y-174585000D01*
X219885163Y-174585162D01*
X220228939Y-174443117D01*
X220492188Y-174180327D01*
X220634834Y-173836799D01*
X220635158Y-173464833D01*
X220493113Y-173121057D01*
X220230323Y-172857808D01*
X219886795Y-172715162D01*
X219514829Y-172714838D01*
X219514437Y-172715000D01*
X219221192Y-172715000D01*
X219114090Y-172548559D01*
X218901890Y-172403569D01*
X218650000Y-172352560D01*
X217950000Y-172352560D01*
X217898164Y-172362314D01*
X217850000Y-172352560D01*
X217150000Y-172352560D01*
X216914683Y-172396838D01*
X216698559Y-172535910D01*
X216613495Y-172660405D01*
X216251396Y-172298306D01*
X216252828Y-172297349D01*
X216555660Y-171844130D01*
X216662000Y-171309521D01*
X216662000Y-170218879D01*
X216555805Y-169685000D01*
X219054195Y-169685000D01*
X218948000Y-170218879D01*
X218948000Y-171309521D01*
X219054340Y-171844130D01*
X219357172Y-172297349D01*
X219810391Y-172600181D01*
X220345000Y-172706521D01*
X220879609Y-172600181D01*
X221332828Y-172297349D01*
X221615000Y-171875050D01*
X221897172Y-172297349D01*
X222350391Y-172600181D01*
X222885000Y-172706521D01*
X223419609Y-172600181D01*
X223872828Y-172297349D01*
X224155000Y-171875050D01*
X224437172Y-172297349D01*
X224890391Y-172600181D01*
X225425000Y-172706521D01*
X225959609Y-172600181D01*
X226412828Y-172297349D01*
X226695000Y-171875050D01*
X226977172Y-172297349D01*
X227430391Y-172600181D01*
X227965000Y-172706521D01*
X228499609Y-172600181D01*
X228952828Y-172297349D01*
X229235000Y-171875050D01*
X229517172Y-172297349D01*
X229742636Y-172448000D01*
X229779755Y-172634607D01*
X229949921Y-172889279D01*
X230815721Y-173755079D01*
X231070393Y-173925245D01*
X231370800Y-173985000D01*
X234000000Y-173985000D01*
X234300407Y-173925245D01*
X234555079Y-173755079D01*
X235855079Y-172455079D01*
X236025245Y-172200406D01*
X236085001Y-171900000D01*
X236085000Y-171899995D01*
X236085000Y-164400000D01*
X236025245Y-164099594D01*
X235855079Y-163844921D01*
X231235702Y-159225544D01*
X231334838Y-158986799D01*
X231335162Y-158614833D01*
X231193117Y-158271057D01*
X230930327Y-158007808D01*
X230586799Y-157865162D01*
X230214833Y-157864838D01*
X229871057Y-158006883D01*
X229607808Y-158269673D01*
X229465162Y-158613201D01*
X229464838Y-158985167D01*
X229606883Y-159328943D01*
X229615000Y-159337074D01*
X229615000Y-159500000D01*
X229674755Y-159800407D01*
X229844921Y-160055079D01*
X234515000Y-164725158D01*
X234515000Y-171574842D01*
X234357994Y-171731848D01*
X234442000Y-171309521D01*
X234442000Y-170218879D01*
X234335660Y-169684270D01*
X234032828Y-169231051D01*
X233579609Y-168928219D01*
X233045000Y-168821879D01*
X232523647Y-168925582D01*
X232632857Y-168762138D01*
X232685000Y-168500000D01*
X232685000Y-167500000D01*
X232632857Y-167237862D01*
X232484368Y-167015632D01*
X231984368Y-166515632D01*
X231762138Y-166367143D01*
X231500000Y-166315000D01*
X196000000Y-166315000D01*
X195927939Y-166329334D01*
X195854485Y-166330635D01*
X195798135Y-166355154D01*
X195737862Y-166367143D01*
X195676775Y-166407960D01*
X195609407Y-166437273D01*
X195566728Y-166481491D01*
X195515632Y-166515632D01*
X195474817Y-166576716D01*
X195423792Y-166629581D01*
X191126024Y-173315000D01*
X163067200Y-173315000D01*
X163067200Y-164729226D01*
X163200302Y-164862327D01*
X163433691Y-164959000D01*
X164036250Y-164959000D01*
X164195000Y-164800250D01*
X164195000Y-163689000D01*
X164449000Y-163689000D01*
X164449000Y-164800250D01*
X164607750Y-164959000D01*
X165210309Y-164959000D01*
X165443698Y-164862327D01*
X165622327Y-164683699D01*
X165719000Y-164450310D01*
X165719000Y-163847750D01*
X165560250Y-163689000D01*
X164449000Y-163689000D01*
X164195000Y-163689000D01*
X164175000Y-163689000D01*
X164175000Y-163435000D01*
X164195000Y-163435000D01*
X164195000Y-163415000D01*
X164449000Y-163415000D01*
X164449000Y-163435000D01*
X165560250Y-163435000D01*
X165719000Y-163276250D01*
X165719000Y-162941000D01*
X189874907Y-162941000D01*
X189987946Y-163509285D01*
X190309853Y-163991054D01*
X190639026Y-164211000D01*
X190309853Y-164430946D01*
X189987946Y-164912715D01*
X189874907Y-165481000D01*
X189987946Y-166049285D01*
X190309853Y-166531054D01*
X190639026Y-166751000D01*
X190309853Y-166970946D01*
X189987946Y-167452715D01*
X189874907Y-168021000D01*
X189987946Y-168589285D01*
X190309853Y-169071054D01*
X190791622Y-169392961D01*
X191359907Y-169506000D01*
X191418093Y-169506000D01*
X191986378Y-169392961D01*
X192468147Y-169071054D01*
X192790054Y-168589285D01*
X192903093Y-168021000D01*
X192790054Y-167452715D01*
X192468147Y-166970946D01*
X192138974Y-166751000D01*
X192468147Y-166531054D01*
X192790054Y-166049285D01*
X192903093Y-165481000D01*
X192790054Y-164912715D01*
X192468147Y-164430946D01*
X192138974Y-164211000D01*
X192468147Y-163991054D01*
X192790054Y-163509285D01*
X192903093Y-162941000D01*
X192790054Y-162372715D01*
X192468147Y-161890946D01*
X192426548Y-161863150D01*
X192474317Y-161854162D01*
X192690441Y-161715090D01*
X192835431Y-161502890D01*
X192886440Y-161251000D01*
X192886440Y-159551000D01*
X192842162Y-159315683D01*
X192703090Y-159099559D01*
X192490890Y-158954569D01*
X192239000Y-158903560D01*
X190539000Y-158903560D01*
X190303683Y-158947838D01*
X190087559Y-159086910D01*
X189942569Y-159299110D01*
X189891560Y-159551000D01*
X189891560Y-161251000D01*
X189935838Y-161486317D01*
X190074910Y-161702441D01*
X190287110Y-161847431D01*
X190354541Y-161861086D01*
X190309853Y-161890946D01*
X189987946Y-162372715D01*
X189874907Y-162941000D01*
X165719000Y-162941000D01*
X165719000Y-162673690D01*
X165622327Y-162440301D01*
X165443698Y-162261673D01*
X165210309Y-162165000D01*
X165154386Y-162165000D01*
X165505629Y-161814370D01*
X165718757Y-161301100D01*
X165719242Y-160745339D01*
X165507010Y-160231697D01*
X165114370Y-159838371D01*
X164906488Y-159752051D01*
X165112303Y-159667010D01*
X165505629Y-159274370D01*
X165718757Y-158761100D01*
X165719242Y-158205339D01*
X165716195Y-158197963D01*
X169084079Y-154830079D01*
X169211357Y-154639593D01*
X169254245Y-154575406D01*
X169314000Y-154275000D01*
X169314000Y-150583402D01*
X171711652Y-148185750D01*
X180315000Y-148185750D01*
X180315000Y-148676310D01*
X180411673Y-148909699D01*
X180590302Y-149088327D01*
X180823691Y-149185000D01*
X181014250Y-149185000D01*
X181173000Y-149026250D01*
X181173000Y-148027000D01*
X180473750Y-148027000D01*
X180315000Y-148185750D01*
X171711652Y-148185750D01*
X177511402Y-142386000D01*
X179159505Y-142386000D01*
X179065162Y-142613201D01*
X179064838Y-142985167D01*
X179206883Y-143328943D01*
X179469673Y-143592192D01*
X179813201Y-143734838D01*
X180185167Y-143735162D01*
X180520254Y-143596707D01*
X180635910Y-143776441D01*
X180848110Y-143921431D01*
X181100000Y-143972440D01*
X182100000Y-143972440D01*
X182335317Y-143928162D01*
X182551441Y-143789090D01*
X182597969Y-143720994D01*
X182740302Y-143863327D01*
X182973691Y-143960000D01*
X183314250Y-143960000D01*
X183473000Y-143801250D01*
X183473000Y-142827000D01*
X183453000Y-142827000D01*
X183453000Y-142573000D01*
X183473000Y-142573000D01*
X183473000Y-142553000D01*
X183727000Y-142553000D01*
X183727000Y-142573000D01*
X184576250Y-142573000D01*
X184735000Y-142414250D01*
X184735000Y-142386000D01*
X185213208Y-142386000D01*
X185187169Y-142424110D01*
X185172042Y-142498808D01*
X185148600Y-142522250D01*
X185148600Y-142602310D01*
X185150267Y-142606335D01*
X185136160Y-142676000D01*
X185136160Y-143027185D01*
X184986793Y-142965162D01*
X184714175Y-142964925D01*
X184576250Y-142827000D01*
X183727000Y-142827000D01*
X183727000Y-143801250D01*
X183864959Y-143939209D01*
X183864832Y-144085167D01*
X183960612Y-144316974D01*
X183907808Y-144369686D01*
X183868242Y-144464972D01*
X183714833Y-144464838D01*
X183371057Y-144606883D01*
X183107808Y-144869673D01*
X182965162Y-145213201D01*
X182965029Y-145366000D01*
X178876158Y-145366000D01*
X178155079Y-144644921D01*
X177900407Y-144474755D01*
X177600000Y-144415000D01*
X177337506Y-144415000D01*
X177330327Y-144407808D01*
X176986799Y-144265162D01*
X176614833Y-144264838D01*
X176271057Y-144406883D01*
X176007808Y-144669673D01*
X175865162Y-145013201D01*
X175864838Y-145385167D01*
X176006883Y-145728943D01*
X176269673Y-145992192D01*
X176613201Y-146134838D01*
X176797635Y-146134999D01*
X176765162Y-146213201D01*
X176764838Y-146585167D01*
X176906883Y-146928943D01*
X177169673Y-147192192D01*
X177513201Y-147334838D01*
X177524690Y-147334848D01*
X177545921Y-147356079D01*
X177800593Y-147526245D01*
X178101000Y-147586000D01*
X180315000Y-147586000D01*
X180315000Y-147614250D01*
X180473750Y-147773000D01*
X181173000Y-147773000D01*
X181173000Y-147753000D01*
X181427000Y-147753000D01*
X181427000Y-147773000D01*
X181447000Y-147773000D01*
X181447000Y-148027000D01*
X181427000Y-148027000D01*
X181427000Y-149026250D01*
X181585750Y-149185000D01*
X181776309Y-149185000D01*
X182009698Y-149088327D01*
X182188327Y-148909699D01*
X182244654Y-148773713D01*
X182246838Y-148785317D01*
X182385910Y-149001441D01*
X182598110Y-149146431D01*
X182850000Y-149197440D01*
X183550000Y-149197440D01*
X183785317Y-149153162D01*
X184001441Y-149014090D01*
X184146431Y-148801890D01*
X184170102Y-148685000D01*
X184500000Y-148685000D01*
X184800407Y-148625245D01*
X185055079Y-148455079D01*
X185274158Y-148236000D01*
X185478391Y-148236000D01*
X185531710Y-148272431D01*
X185783600Y-148323440D01*
X187233600Y-148323440D01*
X187468917Y-148279162D01*
X187685041Y-148140090D01*
X187830031Y-147927890D01*
X187881040Y-147676000D01*
X187881040Y-147226000D01*
X187861533Y-147122329D01*
X187881040Y-147026000D01*
X187881040Y-146576000D01*
X187861533Y-146472329D01*
X187881040Y-146376000D01*
X187881040Y-146286000D01*
X188699000Y-146286000D01*
X188999407Y-146226245D01*
X189254079Y-146056079D01*
X189642992Y-145667166D01*
X189644972Y-145670130D01*
X190030921Y-146056079D01*
X190285593Y-146226245D01*
X190586000Y-146286000D01*
X191036160Y-146286000D01*
X191036160Y-146376000D01*
X191055667Y-146479671D01*
X191049113Y-146512035D01*
X190822833Y-146511838D01*
X190479057Y-146653883D01*
X190215808Y-146916673D01*
X190073162Y-147260201D01*
X190072838Y-147632167D01*
X190214883Y-147975943D01*
X190477673Y-148239192D01*
X190821201Y-148381838D01*
X191193167Y-148382162D01*
X191449848Y-148276104D01*
X191683600Y-148323440D01*
X193133600Y-148323440D01*
X193368917Y-148279162D01*
X193585041Y-148140090D01*
X193593309Y-148127989D01*
X193721399Y-148256079D01*
X193976071Y-148426245D01*
X194276478Y-148486000D01*
X209042000Y-148486000D01*
X209342407Y-148426245D01*
X209597079Y-148256079D01*
X212650123Y-145203035D01*
X212693883Y-145308943D01*
X212956673Y-145572192D01*
X213300201Y-145714838D01*
X213672167Y-145715162D01*
X214015943Y-145573117D01*
X214121953Y-145467291D01*
X214226671Y-145572192D01*
X214570199Y-145714838D01*
X214942165Y-145715162D01*
X215285941Y-145573117D01*
X215549190Y-145310327D01*
X215646061Y-145077036D01*
X215741883Y-145308943D01*
X216004673Y-145572192D01*
X216348201Y-145714838D01*
X216359690Y-145714848D01*
X216564121Y-145919279D01*
X216818794Y-146089445D01*
X217119200Y-146149200D01*
X226561610Y-146149200D01*
X226522162Y-146244201D01*
X226522152Y-146255690D01*
X224162842Y-148615000D01*
X187000000Y-148615000D01*
X186699594Y-148674755D01*
X186444921Y-148844921D01*
X186024995Y-149264847D01*
X186014833Y-149264838D01*
X185671057Y-149406883D01*
X185407808Y-149669673D01*
X185265162Y-150013201D01*
X185264838Y-150385167D01*
X185271023Y-150400135D01*
X185186799Y-150365162D01*
X184814833Y-150364838D01*
X184471057Y-150506883D01*
X184207808Y-150769673D01*
X184065162Y-151113201D01*
X184064838Y-151485167D01*
X184206883Y-151828943D01*
X184469673Y-152092192D01*
X184813201Y-152234838D01*
X185185167Y-152235162D01*
X185528943Y-152093117D01*
X185537074Y-152085000D01*
X186288726Y-152085000D01*
X186306883Y-152128943D01*
X186569673Y-152392192D01*
X186913201Y-152534838D01*
X187285167Y-152535162D01*
X187628943Y-152393117D01*
X187637074Y-152385000D01*
X225717000Y-152385000D01*
X226017407Y-152325245D01*
X226272079Y-152155079D01*
X228558159Y-149868999D01*
X231305898Y-149868999D01*
X231199369Y-150024910D01*
X231148360Y-150276800D01*
X231148360Y-150814082D01*
X231076843Y-150885599D01*
X230786799Y-150765162D01*
X230414833Y-150764838D01*
X230071057Y-150906883D01*
X229807808Y-151169673D01*
X229665162Y-151513201D01*
X229664838Y-151885167D01*
X229806883Y-152228943D01*
X230069673Y-152492192D01*
X230413201Y-152634838D01*
X230785167Y-152635162D01*
X231128943Y-152493117D01*
X231137074Y-152485000D01*
X231250284Y-152485000D01*
X231249960Y-152486600D01*
X231249960Y-153786600D01*
X231294238Y-154021917D01*
X231433310Y-154238041D01*
X231462400Y-154257917D01*
X231462400Y-154311253D01*
X231363808Y-154409673D01*
X231221162Y-154753201D01*
X231220838Y-155125167D01*
X231362883Y-155468943D01*
X231625673Y-155732192D01*
X231969201Y-155874838D01*
X232341167Y-155875162D01*
X232684943Y-155733117D01*
X232948192Y-155470327D01*
X233090838Y-155126799D01*
X233091162Y-154754833D01*
X233032400Y-154612618D01*
X233032400Y-154261269D01*
X233048841Y-154250690D01*
X233193831Y-154038490D01*
X233196481Y-154025403D01*
X233333310Y-154238041D01*
X233545510Y-154383031D01*
X233797400Y-154434040D01*
X234497400Y-154434040D01*
X234732717Y-154389762D01*
X234948841Y-154250690D01*
X235093831Y-154038490D01*
X235144840Y-153786600D01*
X235144840Y-152486600D01*
X235100562Y-152251283D01*
X234961490Y-152035159D01*
X234886273Y-151983765D01*
X234992231Y-151828690D01*
X235029024Y-151647000D01*
X236156888Y-151647000D01*
X236196838Y-151859317D01*
X236335910Y-152075441D01*
X236548110Y-152220431D01*
X236800000Y-152271440D01*
X238324000Y-152271440D01*
X238559317Y-152227162D01*
X238775441Y-152088090D01*
X238920431Y-151875890D01*
X238971440Y-151624000D01*
X238971440Y-150100000D01*
X238927162Y-149864683D01*
X238788090Y-149648559D01*
X238575890Y-149503569D01*
X238392876Y-149466508D01*
X238745629Y-149114370D01*
X238958757Y-148601100D01*
X238959242Y-148045339D01*
X238747010Y-147531697D01*
X238354370Y-147138371D01*
X238146488Y-147052051D01*
X238352303Y-146967010D01*
X238745629Y-146574370D01*
X238958757Y-146061100D01*
X238959242Y-145505339D01*
X238747010Y-144991697D01*
X238354370Y-144598371D01*
X238146488Y-144512051D01*
X238352303Y-144427010D01*
X238745629Y-144034370D01*
X238958757Y-143521100D01*
X238959242Y-142965339D01*
X238747010Y-142451697D01*
X238354370Y-142058371D01*
X237841100Y-141845243D01*
X237285339Y-141844758D01*
X236771697Y-142056990D01*
X236751599Y-142077053D01*
X236565213Y-142023592D01*
X235764605Y-142824200D01*
X235778748Y-142838343D01*
X235599143Y-143017948D01*
X235585000Y-143003805D01*
X235570858Y-143017948D01*
X235391253Y-142838343D01*
X235405395Y-142824200D01*
X234604787Y-142023592D01*
X234362603Y-142093057D01*
X234312491Y-142233518D01*
X234230010Y-142033897D01*
X234040432Y-141843987D01*
X234784392Y-141843987D01*
X235585000Y-142644595D01*
X236385608Y-141843987D01*
X236316143Y-141601803D01*
X235792698Y-141415056D01*
X235237632Y-141442838D01*
X234853857Y-141601803D01*
X234784392Y-141843987D01*
X234040432Y-141843987D01*
X233837370Y-141640571D01*
X233324100Y-141427443D01*
X232768339Y-141426958D01*
X232254697Y-141639190D01*
X231861371Y-142031830D01*
X231858311Y-142039200D01*
X215813958Y-142039200D01*
X218360079Y-139493079D01*
X218452260Y-139355119D01*
X218530245Y-139238406D01*
X218590000Y-138938000D01*
X218590000Y-124172875D01*
X218792828Y-124037349D01*
X219075000Y-123615050D01*
X219357172Y-124037349D01*
X219810391Y-124340181D01*
X220345000Y-124446521D01*
X220879609Y-124340181D01*
X221332828Y-124037349D01*
X221615000Y-123615050D01*
X221897172Y-124037349D01*
X222350391Y-124340181D01*
X222885000Y-124446521D01*
X223419609Y-124340181D01*
X223872828Y-124037349D01*
X224155000Y-123615050D01*
X224437172Y-124037349D01*
X224890391Y-124340181D01*
X225425000Y-124446521D01*
X225959609Y-124340181D01*
X226412828Y-124037349D01*
X226695000Y-123615050D01*
X226977172Y-124037349D01*
X227430391Y-124340181D01*
X227965000Y-124446521D01*
X228499609Y-124340181D01*
X228952828Y-124037349D01*
X229235000Y-123615050D01*
X229517172Y-124037349D01*
X229970391Y-124340181D01*
X230505000Y-124446521D01*
X231039609Y-124340181D01*
X231492828Y-124037349D01*
X231775000Y-123615050D01*
X232057172Y-124037349D01*
X232510391Y-124340181D01*
X233045000Y-124446521D01*
X233579609Y-124340181D01*
X234032828Y-124037349D01*
X234335660Y-123584130D01*
X234442000Y-123049521D01*
X234442000Y-121958879D01*
X234335660Y-121424270D01*
X234032828Y-120971051D01*
X233579609Y-120668219D01*
X233045000Y-120561879D01*
X232510391Y-120668219D01*
X232057172Y-120971051D01*
X231775000Y-121393350D01*
X231492828Y-120971051D01*
X231039609Y-120668219D01*
X230505000Y-120561879D01*
X229970391Y-120668219D01*
X229517172Y-120971051D01*
X229235000Y-121393350D01*
X228952828Y-120971051D01*
X228499609Y-120668219D01*
X227965000Y-120561879D01*
X227430391Y-120668219D01*
X226977172Y-120971051D01*
X226695000Y-121393350D01*
X226412828Y-120971051D01*
X225959609Y-120668219D01*
X225425000Y-120561879D01*
X224890391Y-120668219D01*
X224437172Y-120971051D01*
X224155000Y-121393350D01*
X223872828Y-120971051D01*
X223419609Y-120668219D01*
X222885000Y-120561879D01*
X222350391Y-120668219D01*
X221897172Y-120971051D01*
X221615000Y-121393350D01*
X221332828Y-120971051D01*
X220879609Y-120668219D01*
X220345000Y-120561879D01*
X219810391Y-120668219D01*
X219357172Y-120971051D01*
X219075000Y-121393350D01*
X218792828Y-120971051D01*
X218339609Y-120668219D01*
X217805000Y-120561879D01*
X217270391Y-120668219D01*
X216817172Y-120971051D01*
X216535000Y-121393350D01*
X216252828Y-120971051D01*
X215799609Y-120668219D01*
X215265000Y-120561879D01*
X214730391Y-120668219D01*
X214485000Y-120832184D01*
X214485000Y-119150000D01*
X214452889Y-118988569D01*
X214425245Y-118849593D01*
X214255079Y-118594921D01*
X213655079Y-117994921D01*
X213457645Y-117863000D01*
X230699171Y-117863000D01*
X230484057Y-117951883D01*
X230220808Y-118214673D01*
X230078162Y-118558201D01*
X230077838Y-118930167D01*
X230219883Y-119273943D01*
X230482673Y-119537192D01*
X230826201Y-119679838D01*
X231198167Y-119680162D01*
X231541943Y-119538117D01*
X231550074Y-119530000D01*
X231748370Y-119530000D01*
X231757838Y-119580317D01*
X231896910Y-119796441D01*
X232109110Y-119941431D01*
X232361000Y-119992440D01*
X233561000Y-119992440D01*
X233796317Y-119948162D01*
X234012441Y-119809090D01*
X234060134Y-119739289D01*
X234096910Y-119796441D01*
X234309110Y-119941431D01*
X234561000Y-119992440D01*
X235761000Y-119992440D01*
X235996317Y-119948162D01*
X236212441Y-119809090D01*
X236357431Y-119596890D01*
X236408440Y-119345000D01*
X236408440Y-118145000D01*
X236364162Y-117909683D01*
X236225090Y-117693559D01*
X236221689Y-117691235D01*
X236262440Y-117490000D01*
X236262440Y-116190000D01*
X236218162Y-115954683D01*
X236079090Y-115738559D01*
X235866890Y-115593569D01*
X235615000Y-115542560D01*
X234915000Y-115542560D01*
X234679683Y-115586838D01*
X234463559Y-115725910D01*
X234318569Y-115938110D01*
X234315919Y-115951197D01*
X234179090Y-115738559D01*
X233966890Y-115593569D01*
X233715000Y-115542560D01*
X233015000Y-115542560D01*
X232779683Y-115586838D01*
X232563559Y-115725910D01*
X232418569Y-115938110D01*
X232377822Y-116139325D01*
X232159921Y-116284921D01*
X232151842Y-116293000D01*
X202485000Y-116293000D01*
X202485000Y-112400000D01*
X202425245Y-112099594D01*
X202255079Y-111844921D01*
X200455079Y-110044921D01*
X200200407Y-109874755D01*
X199900000Y-109815000D01*
X190500000Y-109815000D01*
X190199594Y-109874755D01*
X189944921Y-110044921D01*
X189944919Y-110044924D01*
X187343921Y-112645921D01*
X187173755Y-112900593D01*
X187117183Y-113185000D01*
X187114000Y-113201000D01*
X187114000Y-114169331D01*
X187097559Y-114179910D01*
X186952569Y-114392110D01*
X186913529Y-114584896D01*
X186856089Y-114498931D01*
X185089076Y-112731918D01*
X185156093Y-112395000D01*
X185043054Y-111826715D01*
X184721147Y-111344946D01*
X184239378Y-111023039D01*
X183671093Y-110910000D01*
X183612907Y-110910000D01*
X183044622Y-111023039D01*
X182562853Y-111344946D01*
X182240946Y-111826715D01*
X182148494Y-112291500D01*
X180801500Y-112291500D01*
X180501094Y-112351255D01*
X180246421Y-112521421D01*
X174704921Y-118062921D01*
X174534755Y-118317593D01*
X174498472Y-118500000D01*
X174475000Y-118618000D01*
X174475000Y-132588000D01*
X174534755Y-132888407D01*
X174704921Y-133143079D01*
X177555842Y-135994000D01*
X169429157Y-135994000D01*
X165962079Y-132526921D01*
X165707407Y-132356755D01*
X165518353Y-132319150D01*
X165507010Y-132291697D01*
X165114370Y-131898371D01*
X164906488Y-131812051D01*
X165112303Y-131727010D01*
X165505629Y-131334370D01*
X165718757Y-130821100D01*
X165719242Y-130265339D01*
X165507010Y-129751697D01*
X165114370Y-129358371D01*
X164601100Y-129145243D01*
X164045339Y-129144758D01*
X163531697Y-129356990D01*
X163138371Y-129749630D01*
X163067200Y-129921029D01*
X163067200Y-125234234D01*
X182308063Y-108852568D01*
X182325285Y-108830792D01*
X182348368Y-108815368D01*
X182407656Y-108726637D01*
X182473856Y-108642930D01*
X182481433Y-108616221D01*
X182496857Y-108593138D01*
X182517677Y-108488472D01*
X182546804Y-108385804D01*
X182543584Y-108358229D01*
X182549000Y-108331000D01*
X182549000Y-104000000D01*
X222815000Y-104000000D01*
X222815000Y-105000000D01*
X222867143Y-105262138D01*
X223015632Y-105484368D01*
X223237862Y-105632857D01*
X223476652Y-105680356D01*
X223412328Y-105723336D01*
X223223336Y-105912328D01*
X223006564Y-106236751D01*
X223006563Y-106236752D01*
X222904282Y-106483681D01*
X222828162Y-106866364D01*
X222828162Y-106933830D01*
X222815000Y-107000000D01*
X222828163Y-107066173D01*
X222828163Y-107133637D01*
X222853980Y-107195966D01*
X222867143Y-107262138D01*
X222904626Y-107318235D01*
X222930444Y-107380566D01*
X222978150Y-107428272D01*
X223015632Y-107484368D01*
X223039027Y-107500000D01*
X223015632Y-107515632D01*
X222867143Y-107737862D01*
X222815000Y-108000000D01*
X222815000Y-109000000D01*
X222867143Y-109262138D01*
X223015632Y-109484368D01*
X223237862Y-109632857D01*
X223500000Y-109685000D01*
X226000000Y-109685000D01*
X226262138Y-109632857D01*
X226484368Y-109484368D01*
X226632857Y-109262138D01*
X226680356Y-109023348D01*
X226723336Y-109087672D01*
X226912328Y-109276664D01*
X227236751Y-109493437D01*
X227339032Y-109535803D01*
X227483681Y-109595718D01*
X227866364Y-109671838D01*
X227933830Y-109671838D01*
X228000000Y-109685000D01*
X229500000Y-109685000D01*
X229762138Y-109632857D01*
X229984368Y-109484368D01*
X230132857Y-109262138D01*
X230185000Y-109000000D01*
X230185000Y-106500000D01*
X230171838Y-106433830D01*
X230171838Y-106366365D01*
X230133778Y-106175022D01*
X230133777Y-106175020D01*
X230133777Y-106175018D01*
X230081065Y-106047761D01*
X230031497Y-105928093D01*
X230031496Y-105928092D01*
X230031495Y-105928090D01*
X229923108Y-105765879D01*
X229790085Y-105632857D01*
X229778891Y-105621663D01*
X229984368Y-105484368D01*
X230132857Y-105262138D01*
X230185000Y-105000000D01*
X230185000Y-104000000D01*
X230132857Y-103737862D01*
X229984368Y-103515632D01*
X229762138Y-103367143D01*
X229500000Y-103315000D01*
X228000000Y-103315000D01*
X227933830Y-103328162D01*
X227483681Y-103404282D01*
X227339032Y-103464197D01*
X227236751Y-103506563D01*
X226912328Y-103723336D01*
X226723336Y-103912328D01*
X226506564Y-104236751D01*
X226506563Y-104236752D01*
X226500000Y-104252596D01*
X226493437Y-104236751D01*
X226276664Y-103912328D01*
X226087672Y-103723336D01*
X225763248Y-103506563D01*
X225516319Y-103404282D01*
X225133636Y-103328162D01*
X225066170Y-103328162D01*
X225000000Y-103315000D01*
X223500000Y-103315000D01*
X223237862Y-103367143D01*
X223015632Y-103515632D01*
X222867143Y-103737862D01*
X222815000Y-104000000D01*
X182549000Y-104000000D01*
X182549000Y-96849800D01*
X185645200Y-96849800D01*
X185645200Y-101849800D01*
X185697343Y-102111938D01*
X185845832Y-102334168D01*
X186068062Y-102482657D01*
X186330200Y-102534800D01*
X187909541Y-102534800D01*
X188171679Y-102482657D01*
X188393909Y-102334168D01*
X188542398Y-102111938D01*
X188574751Y-101949292D01*
X188580566Y-101978525D01*
X188605160Y-102107300D01*
X188606624Y-102109527D01*
X188607143Y-102112138D01*
X188679938Y-102221084D01*
X188751949Y-102330657D01*
X188754153Y-102332154D01*
X188755632Y-102334368D01*
X188864588Y-102407170D01*
X188973039Y-102480838D01*
X188975648Y-102481378D01*
X188977862Y-102482857D01*
X189106391Y-102508423D01*
X189234771Y-102534980D01*
X189237387Y-102534480D01*
X189240000Y-102535000D01*
X189950000Y-102535000D01*
X189954109Y-102534183D01*
X189957250Y-102534787D01*
X189982123Y-102534631D01*
X189986450Y-102533742D01*
X189990795Y-102534521D01*
X190015511Y-102534053D01*
X190019862Y-102533101D01*
X190024259Y-102533832D01*
X190048819Y-102533053D01*
X190053240Y-102532027D01*
X190057724Y-102532712D01*
X190082127Y-102531620D01*
X190086556Y-102530531D01*
X190091074Y-102531161D01*
X190115323Y-102529758D01*
X190119816Y-102528591D01*
X190124423Y-102529171D01*
X190148515Y-102527455D01*
X190153013Y-102526222D01*
X190157647Y-102526743D01*
X190181585Y-102524716D01*
X190186131Y-102523405D01*
X190190838Y-102523869D01*
X190214618Y-102521530D01*
X190219189Y-102520144D01*
X190223951Y-102520548D01*
X190247575Y-102517897D01*
X190252176Y-102516433D01*
X190256991Y-102516774D01*
X190280460Y-102513811D01*
X190285086Y-102512268D01*
X190289956Y-102512545D01*
X190313268Y-102509270D01*
X190317898Y-102507654D01*
X190322798Y-102507863D01*
X190345955Y-102504277D01*
X190350636Y-102502568D01*
X190355612Y-102502710D01*
X190378613Y-102498811D01*
X190383280Y-102497032D01*
X190388274Y-102497102D01*
X190411119Y-102492892D01*
X190415810Y-102491026D01*
X190420864Y-102491024D01*
X190443552Y-102486502D01*
X190448257Y-102484551D01*
X190453347Y-102484475D01*
X190475880Y-102479641D01*
X190480589Y-102477607D01*
X190485717Y-102477455D01*
X190508094Y-102472309D01*
X190512807Y-102470191D01*
X190517968Y-102469961D01*
X190540189Y-102464503D01*
X190544897Y-102462303D01*
X190550087Y-102461994D01*
X190572153Y-102456224D01*
X190576854Y-102453941D01*
X190582061Y-102453553D01*
X190603970Y-102447472D01*
X190608683Y-102445095D01*
X190613943Y-102444623D01*
X190635696Y-102438229D01*
X190640371Y-102435782D01*
X190645615Y-102435231D01*
X190667214Y-102428526D01*
X190671892Y-102425986D01*
X190677180Y-102425349D01*
X190698621Y-102418332D01*
X190703274Y-102415713D01*
X190708565Y-102414993D01*
X190729851Y-102407664D01*
X190734595Y-102404898D01*
X190740021Y-102404072D01*
X190761111Y-102396437D01*
X190765918Y-102393532D01*
X190771458Y-102392597D01*
X190792315Y-102384664D01*
X190797141Y-102381640D01*
X190802739Y-102380601D01*
X190823362Y-102372369D01*
X190828196Y-102369229D01*
X190833844Y-102368084D01*
X190854233Y-102359552D01*
X190859033Y-102356320D01*
X190864685Y-102355076D01*
X190884840Y-102346247D01*
X190889627Y-102342907D01*
X190895306Y-102341557D01*
X190915227Y-102332428D01*
X190920019Y-102328964D01*
X190925748Y-102327499D01*
X190945435Y-102318071D01*
X190950191Y-102314508D01*
X190955923Y-102312938D01*
X190975376Y-102303211D01*
X190980086Y-102299555D01*
X190985810Y-102297882D01*
X191005029Y-102287857D01*
X191009739Y-102284071D01*
X191015511Y-102282274D01*
X191034496Y-102271949D01*
X191039134Y-102268086D01*
X191044865Y-102266193D01*
X191063617Y-102255570D01*
X191068234Y-102251588D01*
X191073989Y-102249574D01*
X191092506Y-102238652D01*
X191097061Y-102234581D01*
X191102792Y-102232463D01*
X191121076Y-102221242D01*
X191125584Y-102217069D01*
X191131305Y-102214839D01*
X191149355Y-102203319D01*
X191153802Y-102199055D01*
X191159505Y-102196715D01*
X191177321Y-102184896D01*
X191181707Y-102180539D01*
X191187380Y-102178093D01*
X191204962Y-102165975D01*
X191209268Y-102161543D01*
X191214898Y-102158996D01*
X191232246Y-102146580D01*
X191236498Y-102142046D01*
X191242115Y-102139383D01*
X191259229Y-102126667D01*
X191263378Y-102122081D01*
X191268919Y-102119333D01*
X191285800Y-102106319D01*
X191289890Y-102101634D01*
X191295413Y-102098771D01*
X191312059Y-102085458D01*
X191316058Y-102080709D01*
X191321516Y-102077755D01*
X191337928Y-102064143D01*
X191341830Y-102059338D01*
X191347222Y-102056295D01*
X191363400Y-102042384D01*
X191367217Y-102037510D01*
X191372554Y-102034371D01*
X191388499Y-102020161D01*
X191392227Y-102015221D01*
X191397504Y-102011991D01*
X191413214Y-101997482D01*
X191416952Y-101992342D01*
X191422310Y-101988926D01*
X191437755Y-101974131D01*
X191441533Y-101968731D01*
X191447024Y-101965083D01*
X191462169Y-101950016D01*
X191465846Y-101944544D01*
X191471266Y-101940793D01*
X191486113Y-101925453D01*
X191489701Y-101919888D01*
X191495074Y-101916017D01*
X191509622Y-101900403D01*
X191513094Y-101894787D01*
X191518376Y-101890827D01*
X191532625Y-101874941D01*
X191536001Y-101869242D01*
X191541224Y-101865169D01*
X191555173Y-101849010D01*
X191558417Y-101843288D01*
X191563529Y-101839144D01*
X191577181Y-101822712D01*
X191580329Y-101816906D01*
X191585381Y-101812650D01*
X191598732Y-101795945D01*
X191601756Y-101790106D01*
X191606706Y-101785774D01*
X191619759Y-101768796D01*
X191622654Y-101762939D01*
X191627487Y-101758546D01*
X191640242Y-101741297D01*
X191643036Y-101735368D01*
X191647800Y-101730871D01*
X191660255Y-101713347D01*
X191662905Y-101707436D01*
X191667533Y-101702903D01*
X191679690Y-101685108D01*
X191682230Y-101679150D01*
X191686769Y-101674535D01*
X191698627Y-101656465D01*
X191701040Y-101650501D01*
X191705464Y-101645833D01*
X191717023Y-101627491D01*
X191719298Y-101621553D01*
X191723587Y-101616860D01*
X191734848Y-101598245D01*
X191737013Y-101592272D01*
X191741212Y-101587505D01*
X191752173Y-101568617D01*
X191754208Y-101562665D01*
X191758280Y-101557871D01*
X191768942Y-101538710D01*
X191770853Y-101532773D01*
X191774805Y-101527948D01*
X191785168Y-101508515D01*
X191786951Y-101502618D01*
X191790768Y-101497785D01*
X191800833Y-101478079D01*
X191802506Y-101472170D01*
X191806228Y-101467283D01*
X191815993Y-101447303D01*
X191817535Y-101441466D01*
X191821110Y-101436600D01*
X191830576Y-101416348D01*
X191832007Y-101410522D01*
X191835477Y-101405625D01*
X191844645Y-101385099D01*
X191845958Y-101379327D01*
X191849299Y-101374438D01*
X191858168Y-101353640D01*
X191859370Y-101347908D01*
X191862593Y-101343017D01*
X191871162Y-101321946D01*
X191872317Y-101315937D01*
X191875596Y-101310766D01*
X191883841Y-101289427D01*
X191884933Y-101283158D01*
X191888242Y-101277721D01*
X191896137Y-101256124D01*
X191897109Y-101249869D01*
X191900302Y-101244402D01*
X191907845Y-101222545D01*
X191908690Y-101216367D01*
X191911738Y-101210928D01*
X191918931Y-101188810D01*
X191919658Y-101182685D01*
X191922576Y-101177254D01*
X191929418Y-101154877D01*
X191930029Y-101148815D01*
X191932820Y-101143395D01*
X191939311Y-101120758D01*
X191939809Y-101114763D01*
X191942471Y-101109368D01*
X191948611Y-101086471D01*
X191949000Y-101080546D01*
X191951535Y-101075181D01*
X191957324Y-101052024D01*
X191957608Y-101046182D01*
X191960018Y-101040851D01*
X191965456Y-101017435D01*
X191965639Y-101011679D01*
X191967924Y-101006394D01*
X191973012Y-100982716D01*
X191973099Y-100977023D01*
X191975274Y-100971758D01*
X191980010Y-100947822D01*
X191980004Y-100942236D01*
X191982054Y-100937039D01*
X191986440Y-100912842D01*
X191986346Y-100907335D01*
X191988286Y-100902179D01*
X191992321Y-100877722D01*
X191992143Y-100872301D01*
X191993973Y-100867198D01*
X191997657Y-100842482D01*
X191997399Y-100837154D01*
X191999123Y-100832105D01*
X192002456Y-100807129D01*
X192002122Y-100801892D01*
X192003742Y-100796903D01*
X192006724Y-100771667D01*
X192006320Y-100766540D01*
X192007836Y-100761624D01*
X192010468Y-100736129D01*
X192009995Y-100731080D01*
X192011418Y-100726216D01*
X192013699Y-100700460D01*
X192013161Y-100695497D01*
X192014495Y-100690683D01*
X192016424Y-100664668D01*
X192015828Y-100659824D01*
X192017065Y-100655107D01*
X192018644Y-100628832D01*
X192017991Y-100624073D01*
X192019146Y-100619407D01*
X192020374Y-100592871D01*
X192019668Y-100588205D01*
X192020739Y-100583613D01*
X192021616Y-100556818D01*
X192020864Y-100552262D01*
X192021853Y-100547750D01*
X192022380Y-100520696D01*
X192021578Y-100516209D01*
X192022496Y-100511744D01*
X192022671Y-100484428D01*
X192022249Y-100482232D01*
X192022685Y-100480040D01*
X192022685Y-97000000D01*
X193315000Y-97000000D01*
X193315000Y-98000000D01*
X193367143Y-98262138D01*
X193515632Y-98484368D01*
X193539027Y-98500000D01*
X193515632Y-98515632D01*
X193367143Y-98737862D01*
X193315000Y-99000000D01*
X193315000Y-100000000D01*
X193367143Y-100262138D01*
X193515632Y-100484368D01*
X193539027Y-100500000D01*
X193515632Y-100515632D01*
X193367143Y-100737862D01*
X193315000Y-101000000D01*
X193315000Y-102000000D01*
X193367143Y-102262138D01*
X193515632Y-102484368D01*
X193737862Y-102632857D01*
X194000000Y-102685000D01*
X199000000Y-102685000D01*
X199262138Y-102632857D01*
X199484368Y-102484368D01*
X199632857Y-102262138D01*
X199685000Y-102000000D01*
X199685000Y-101000000D01*
X199632857Y-100737862D01*
X199484368Y-100515632D01*
X199460973Y-100500000D01*
X199484368Y-100484368D01*
X199632857Y-100262138D01*
X199685000Y-100000000D01*
X199685000Y-99000000D01*
X199632857Y-98737862D01*
X199484368Y-98515632D01*
X199460973Y-98500000D01*
X199484368Y-98484368D01*
X199632857Y-98262138D01*
X199685000Y-98000000D01*
X199685000Y-97000000D01*
X200315000Y-97000000D01*
X200315000Y-98000000D01*
X200367143Y-98262138D01*
X200515632Y-98484368D01*
X200539027Y-98500000D01*
X200515632Y-98515632D01*
X200367143Y-98737862D01*
X200315000Y-99000000D01*
X200315000Y-102000000D01*
X200367143Y-102262138D01*
X200515632Y-102484368D01*
X200737862Y-102632857D01*
X201000000Y-102685000D01*
X203000000Y-102685000D01*
X203262138Y-102632857D01*
X203484368Y-102484368D01*
X203632857Y-102262138D01*
X203685000Y-102000000D01*
X203685000Y-100685000D01*
X206000000Y-100685000D01*
X206262138Y-100632857D01*
X206484368Y-100484368D01*
X206632857Y-100262138D01*
X206685000Y-100000000D01*
X206685000Y-99000000D01*
X206632857Y-98737862D01*
X206484368Y-98515632D01*
X206460973Y-98500000D01*
X206484368Y-98484368D01*
X206632857Y-98262138D01*
X206639837Y-98227046D01*
X207707877Y-98227046D01*
X207707877Y-100502495D01*
X207708634Y-100506302D01*
X207707919Y-100510120D01*
X207708524Y-100564464D01*
X207710167Y-100572267D01*
X207708878Y-100580134D01*
X207710690Y-100633387D01*
X207712588Y-100641481D01*
X207711441Y-100649712D01*
X207714463Y-100701872D01*
X207716631Y-100710217D01*
X207715653Y-100718783D01*
X207719882Y-100769853D01*
X207722355Y-100778486D01*
X207721566Y-100787433D01*
X207727005Y-100837410D01*
X207729799Y-100846292D01*
X207729229Y-100855589D01*
X207735876Y-100904476D01*
X207739022Y-100913617D01*
X207738699Y-100923276D01*
X207746554Y-100971071D01*
X207750080Y-100980459D01*
X207750033Y-100990491D01*
X207759097Y-101037194D01*
X207763026Y-101046805D01*
X207763287Y-101057182D01*
X207773558Y-101102793D01*
X207777921Y-101112619D01*
X207778523Y-101123352D01*
X207790004Y-101167873D01*
X207794823Y-101177881D01*
X207795798Y-101188942D01*
X207808488Y-101232371D01*
X207813782Y-101242525D01*
X207815163Y-101253895D01*
X207829061Y-101296233D01*
X207834855Y-101306505D01*
X207836672Y-101318157D01*
X207851778Y-101359403D01*
X207858095Y-101369765D01*
X207860381Y-101381681D01*
X207876696Y-101421835D01*
X207883540Y-101432230D01*
X207886321Y-101444360D01*
X207903845Y-101483424D01*
X207911225Y-101493804D01*
X207914522Y-101506103D01*
X207933254Y-101544074D01*
X207941176Y-101554395D01*
X207945013Y-101566828D01*
X207964954Y-101603707D01*
X207973402Y-101613900D01*
X207977785Y-101626395D01*
X207998935Y-101662183D01*
X208007906Y-101672206D01*
X208012847Y-101684719D01*
X208035204Y-101719415D01*
X208044678Y-101729209D01*
X208050175Y-101741679D01*
X208073741Y-101775284D01*
X208083690Y-101784795D01*
X208089736Y-101797159D01*
X208114511Y-101829673D01*
X208124892Y-101838839D01*
X208131466Y-101851028D01*
X208157449Y-101882448D01*
X208168224Y-101891224D01*
X208175305Y-101903184D01*
X208202498Y-101933515D01*
X208213613Y-101941852D01*
X208221164Y-101953517D01*
X208249564Y-101982756D01*
X208260937Y-101990597D01*
X208268897Y-102001885D01*
X208298441Y-102029979D01*
X208310046Y-102037318D01*
X208318394Y-102048216D01*
X208349015Y-102075116D01*
X208360903Y-102081993D01*
X208369678Y-102092557D01*
X208401378Y-102118260D01*
X208413477Y-102124635D01*
X208422623Y-102134805D01*
X208455403Y-102159313D01*
X208467646Y-102165161D01*
X208477103Y-102174886D01*
X208510961Y-102198199D01*
X208523300Y-102203513D01*
X208533033Y-102212777D01*
X208567969Y-102234894D01*
X208580344Y-102239666D01*
X208590293Y-102248438D01*
X208626309Y-102269360D01*
X208638654Y-102273587D01*
X208648758Y-102281844D01*
X208685851Y-102301570D01*
X208698129Y-102305266D01*
X208708348Y-102313007D01*
X208746521Y-102331537D01*
X208758654Y-102334707D01*
X208768915Y-102341913D01*
X208808166Y-102359248D01*
X208820121Y-102361915D01*
X208830388Y-102368599D01*
X208870717Y-102384739D01*
X208882466Y-102386930D01*
X208892700Y-102393102D01*
X208934108Y-102408046D01*
X208945598Y-102409783D01*
X208955741Y-102415447D01*
X208998227Y-102429196D01*
X209009438Y-102430509D01*
X209019467Y-102435691D01*
X209063031Y-102448244D01*
X209073939Y-102449165D01*
X209083815Y-102453880D01*
X209128460Y-102465237D01*
X209139032Y-102465795D01*
X209148719Y-102470064D01*
X209194441Y-102480226D01*
X209204674Y-102480455D01*
X209214160Y-102484306D01*
X209260960Y-102493273D01*
X209270854Y-102493203D01*
X209280120Y-102496662D01*
X209328001Y-102504433D01*
X209337536Y-102504095D01*
X209346565Y-102507186D01*
X209395523Y-102513761D01*
X209404697Y-102513184D01*
X209413468Y-102515930D01*
X209463504Y-102521310D01*
X209472330Y-102520520D01*
X209480853Y-102522953D01*
X209531969Y-102527137D01*
X209540438Y-102526162D01*
X209548686Y-102528299D01*
X209600880Y-102531289D01*
X209609012Y-102530150D01*
X209617002Y-102532021D01*
X209670275Y-102533814D01*
X209678058Y-102532536D01*
X209685781Y-102534161D01*
X209740131Y-102534759D01*
X209743905Y-102534051D01*
X209747668Y-102534800D01*
X213392877Y-102534800D01*
X213655015Y-102482657D01*
X213877245Y-102334168D01*
X214025734Y-102111938D01*
X214077877Y-101849800D01*
X214077877Y-100539920D01*
X214025734Y-100277782D01*
X213877245Y-100055552D01*
X213655015Y-99907063D01*
X213392877Y-99854920D01*
X210657219Y-99854920D01*
X210657219Y-98852165D01*
X211143506Y-98852165D01*
X211143506Y-98923153D01*
X211195649Y-99185291D01*
X211344138Y-99407521D01*
X211566368Y-99556010D01*
X211828506Y-99608153D01*
X213392877Y-99608153D01*
X213655015Y-99556010D01*
X213877245Y-99407521D01*
X214025734Y-99185291D01*
X214077877Y-98923153D01*
X214077877Y-98227046D01*
X214077048Y-98222880D01*
X214077826Y-98218706D01*
X214077164Y-98164335D01*
X214075354Y-98155780D01*
X214076739Y-98147145D01*
X214074750Y-98093814D01*
X214072654Y-98085005D01*
X214073855Y-98076031D01*
X214070542Y-98023740D01*
X214068128Y-98014653D01*
X214069124Y-98005304D01*
X214068644Y-98000000D01*
X215315000Y-98000000D01*
X215315000Y-102000000D01*
X215367143Y-102262138D01*
X215515632Y-102484368D01*
X215737862Y-102632857D01*
X216000000Y-102685000D01*
X218000000Y-102685000D01*
X218262138Y-102632857D01*
X218484368Y-102484368D01*
X218500000Y-102460973D01*
X218515632Y-102484368D01*
X218737862Y-102632857D01*
X219000000Y-102685000D01*
X220000000Y-102685000D01*
X220066170Y-102671838D01*
X220133636Y-102671838D01*
X220516319Y-102595718D01*
X220763248Y-102493437D01*
X220763249Y-102493436D01*
X221087672Y-102276664D01*
X221276664Y-102087672D01*
X221493437Y-101763249D01*
X221547446Y-101632859D01*
X221595718Y-101516319D01*
X221671838Y-101133636D01*
X221671838Y-101066170D01*
X221685000Y-101000000D01*
X221685000Y-97000000D01*
X221655124Y-96849800D01*
X222640885Y-96849800D01*
X222640885Y-101849800D01*
X222693028Y-102111938D01*
X222841517Y-102334168D01*
X223063747Y-102482657D01*
X223325885Y-102534800D01*
X224897742Y-102534800D01*
X225159880Y-102482657D01*
X225382110Y-102334168D01*
X225530599Y-102111938D01*
X225582742Y-101849800D01*
X225582742Y-101848984D01*
X225593796Y-101860696D01*
X225597546Y-101863362D01*
X225600042Y-101867227D01*
X225617156Y-101884887D01*
X225621011Y-101887551D01*
X225623606Y-101891454D01*
X225640798Y-101908723D01*
X225644749Y-101911376D01*
X225647441Y-101915307D01*
X225664711Y-101932188D01*
X225668790Y-101934847D01*
X225671596Y-101938824D01*
X225688944Y-101955314D01*
X225693124Y-101957956D01*
X225696031Y-101961955D01*
X225713457Y-101978056D01*
X225717740Y-101980679D01*
X225720751Y-101984698D01*
X225738255Y-102000409D01*
X225742668Y-102003025D01*
X225745804Y-102007085D01*
X225763386Y-102022405D01*
X225767884Y-102024983D01*
X225771113Y-102029037D01*
X225788773Y-102043970D01*
X225793416Y-102046540D01*
X225796782Y-102050637D01*
X225814519Y-102065178D01*
X225818938Y-102067537D01*
X225822171Y-102071359D01*
X225839973Y-102085531D01*
X225844199Y-102087709D01*
X225847315Y-102091293D01*
X225865170Y-102105113D01*
X225869478Y-102107260D01*
X225872689Y-102110851D01*
X225890596Y-102124320D01*
X225895003Y-102126441D01*
X225898311Y-102130038D01*
X225916270Y-102143156D01*
X225920758Y-102145239D01*
X225924160Y-102148834D01*
X225942172Y-102161603D01*
X225946781Y-102163663D01*
X225950301Y-102167277D01*
X225968364Y-102179694D01*
X225973045Y-102181705D01*
X225976650Y-102185300D01*
X225994765Y-102197367D01*
X225999545Y-102199339D01*
X226003257Y-102202932D01*
X226021423Y-102214647D01*
X226026311Y-102216579D01*
X226030144Y-102220179D01*
X226048363Y-102231543D01*
X226053338Y-102233423D01*
X226057268Y-102237003D01*
X226075539Y-102248016D01*
X226080604Y-102249842D01*
X226084643Y-102253409D01*
X226102966Y-102264071D01*
X226108116Y-102265839D01*
X226112254Y-102269379D01*
X226130628Y-102279689D01*
X226135868Y-102281396D01*
X226140114Y-102284915D01*
X226158541Y-102294876D01*
X226163878Y-102296522D01*
X226168232Y-102300014D01*
X226186710Y-102309624D01*
X226192123Y-102311199D01*
X226196578Y-102314655D01*
X226215108Y-102323914D01*
X226220633Y-102325426D01*
X226225217Y-102328862D01*
X226243800Y-102337769D01*
X226249354Y-102339191D01*
X226253997Y-102342554D01*
X226272632Y-102351112D01*
X226278303Y-102352465D01*
X226283079Y-102355804D01*
X226301764Y-102364009D01*
X226307505Y-102365277D01*
X226312382Y-102368566D01*
X226331121Y-102376421D01*
X226336904Y-102377597D01*
X226341852Y-102380813D01*
X226360642Y-102388318D01*
X226366536Y-102389413D01*
X226371618Y-102392593D01*
X226390461Y-102399746D01*
X226396374Y-102400739D01*
X226401509Y-102403831D01*
X226420403Y-102410634D01*
X226426399Y-102411536D01*
X226431650Y-102414574D01*
X226450597Y-102421026D01*
X226456637Y-102421827D01*
X226461963Y-102424786D01*
X226480961Y-102430887D01*
X226486095Y-102431477D01*
X226490647Y-102433918D01*
X226509678Y-102439720D01*
X226513860Y-102440138D01*
X226517589Y-102442080D01*
X226536633Y-102447636D01*
X226540878Y-102448008D01*
X226544682Y-102449931D01*
X226563739Y-102455239D01*
X226567979Y-102455559D01*
X226571796Y-102457430D01*
X226590865Y-102462492D01*
X226595164Y-102462764D01*
X226599055Y-102464612D01*
X226618138Y-102469426D01*
X226622427Y-102469644D01*
X226626327Y-102471438D01*
X226645423Y-102476006D01*
X226649751Y-102476173D01*
X226653707Y-102477933D01*
X226672815Y-102482254D01*
X226677163Y-102482367D01*
X226681158Y-102484086D01*
X226700280Y-102488160D01*
X226704644Y-102488219D01*
X226708678Y-102489895D01*
X226727813Y-102493722D01*
X226732196Y-102493727D01*
X226736264Y-102495357D01*
X226755412Y-102498937D01*
X226759806Y-102498886D01*
X226763904Y-102500469D01*
X226783064Y-102503802D01*
X226787475Y-102503696D01*
X226791613Y-102505234D01*
X226810787Y-102508320D01*
X226815208Y-102508157D01*
X226819371Y-102509645D01*
X226838558Y-102512484D01*
X226842968Y-102512266D01*
X226847144Y-102513699D01*
X226866343Y-102516292D01*
X226870795Y-102516015D01*
X226875032Y-102517409D01*
X226894245Y-102519754D01*
X226898664Y-102519422D01*
X226902892Y-102520754D01*
X226922118Y-102522853D01*
X226926558Y-102522463D01*
X226930824Y-102523747D01*
X226950063Y-102525599D01*
X226954501Y-102525152D01*
X226958790Y-102526383D01*
X226978043Y-102527988D01*
X226982479Y-102527484D01*
X226986783Y-102528660D01*
X227006047Y-102530018D01*
X227010480Y-102529457D01*
X227014805Y-102530579D01*
X227034083Y-102531690D01*
X227038506Y-102531072D01*
X227042845Y-102532139D01*
X227062136Y-102533003D01*
X227066552Y-102532328D01*
X227070902Y-102533339D01*
X227090206Y-102533956D01*
X227094590Y-102533229D01*
X227098935Y-102534180D01*
X227118253Y-102534551D01*
X227122662Y-102533762D01*
X227127047Y-102534663D01*
X227146377Y-102534786D01*
X227148558Y-102534367D01*
X227150736Y-102534800D01*
X228625287Y-102534800D01*
X228887425Y-102482657D01*
X229109655Y-102334168D01*
X229258144Y-102111938D01*
X229310287Y-101849800D01*
X229310287Y-96849800D01*
X229258144Y-96587662D01*
X229109655Y-96365432D01*
X228887425Y-96216943D01*
X228625287Y-96164800D01*
X227053430Y-96164800D01*
X226791292Y-96216943D01*
X226569062Y-96365432D01*
X226420573Y-96587662D01*
X226368430Y-96849800D01*
X226368430Y-96852989D01*
X226365868Y-96850280D01*
X226362049Y-96847571D01*
X226359505Y-96843641D01*
X226342156Y-96825780D01*
X226338252Y-96823089D01*
X226335622Y-96819144D01*
X226318196Y-96801685D01*
X226314166Y-96798986D01*
X226311419Y-96794989D01*
X226293915Y-96777933D01*
X226289772Y-96775242D01*
X226286917Y-96771210D01*
X226269335Y-96754557D01*
X226265077Y-96751876D01*
X226262111Y-96747813D01*
X226244451Y-96731563D01*
X226240077Y-96728896D01*
X226236997Y-96724805D01*
X226219259Y-96708958D01*
X226214769Y-96706310D01*
X226211571Y-96702192D01*
X226193755Y-96686748D01*
X226189164Y-96684133D01*
X226185861Y-96680009D01*
X226167968Y-96664967D01*
X226163222Y-96662357D01*
X226159769Y-96658182D01*
X226141797Y-96643544D01*
X226136959Y-96640981D01*
X226133404Y-96636817D01*
X226115354Y-96622581D01*
X226110849Y-96620285D01*
X226107512Y-96616488D01*
X226089396Y-96602621D01*
X226085240Y-96600577D01*
X226082136Y-96597140D01*
X226063969Y-96583613D01*
X226059749Y-96581607D01*
X226056571Y-96578181D01*
X226038352Y-96564991D01*
X226034042Y-96563013D01*
X226030772Y-96559582D01*
X226012501Y-96546729D01*
X226008089Y-96544776D01*
X226004713Y-96541331D01*
X225986390Y-96528817D01*
X225981902Y-96526904D01*
X225978437Y-96523466D01*
X225960062Y-96511290D01*
X225955506Y-96509423D01*
X225951966Y-96506008D01*
X225933540Y-96494168D01*
X225928859Y-96492327D01*
X225925191Y-96488889D01*
X225906712Y-96477389D01*
X225901982Y-96475607D01*
X225898244Y-96472204D01*
X225879713Y-96461040D01*
X225874881Y-96459299D01*
X225871034Y-96455899D01*
X225852451Y-96445075D01*
X225847549Y-96443390D01*
X225843614Y-96440015D01*
X225824979Y-96429528D01*
X225819991Y-96427896D01*
X225815956Y-96424539D01*
X225797269Y-96414390D01*
X225792209Y-96412818D01*
X225788085Y-96409492D01*
X225769348Y-96399681D01*
X225764196Y-96398166D01*
X225759966Y-96394861D01*
X225741175Y-96385388D01*
X225735977Y-96383946D01*
X225731677Y-96380692D01*
X225712835Y-96371556D01*
X225707524Y-96370171D01*
X225703093Y-96366926D01*
X225684199Y-96358130D01*
X225678860Y-96356827D01*
X225674375Y-96353650D01*
X225655429Y-96345190D01*
X225649994Y-96343954D01*
X225645396Y-96340806D01*
X225626397Y-96332684D01*
X225620914Y-96331529D01*
X225616237Y-96328436D01*
X225597187Y-96320652D01*
X225591634Y-96319575D01*
X225586867Y-96316533D01*
X225567765Y-96309087D01*
X225562150Y-96308092D01*
X225557293Y-96305103D01*
X225538138Y-96297995D01*
X225532480Y-96297088D01*
X225527553Y-96294166D01*
X225508347Y-96287396D01*
X225502645Y-96286578D01*
X225497643Y-96283722D01*
X225478384Y-96277289D01*
X225472615Y-96276558D01*
X225467518Y-96273760D01*
X225448208Y-96267666D01*
X225443293Y-96267126D01*
X225438924Y-96264808D01*
X225419588Y-96259006D01*
X225415515Y-96258617D01*
X225411881Y-96256743D01*
X225392544Y-96251187D01*
X225388417Y-96250842D01*
X225384713Y-96248987D01*
X225365378Y-96243679D01*
X225361247Y-96243383D01*
X225357525Y-96241574D01*
X225338189Y-96236512D01*
X225333992Y-96236261D01*
X225330189Y-96234469D01*
X225310853Y-96229655D01*
X225306669Y-96229456D01*
X225302862Y-96227717D01*
X225283526Y-96223149D01*
X225279298Y-96222998D01*
X225275427Y-96221287D01*
X225256091Y-96216966D01*
X225251833Y-96216866D01*
X225247918Y-96215192D01*
X225228581Y-96211118D01*
X225224308Y-96211070D01*
X225220358Y-96209438D01*
X225201022Y-96205611D01*
X225196726Y-96205615D01*
X225192733Y-96204023D01*
X225173396Y-96200443D01*
X225169076Y-96200500D01*
X225165043Y-96198950D01*
X225145707Y-96195617D01*
X225141375Y-96195728D01*
X225137312Y-96194224D01*
X225117976Y-96191138D01*
X225113627Y-96191304D01*
X225109525Y-96189843D01*
X225090189Y-96187004D01*
X225085840Y-96187224D01*
X225081721Y-96185815D01*
X225062384Y-96183222D01*
X225057993Y-96183499D01*
X225053814Y-96182128D01*
X225034478Y-96179783D01*
X225030112Y-96180114D01*
X225025934Y-96178801D01*
X225006597Y-96176702D01*
X225002205Y-96177090D01*
X224997979Y-96175821D01*
X224978642Y-96173969D01*
X224974245Y-96174414D01*
X224969999Y-96173197D01*
X224950663Y-96171592D01*
X224946264Y-96172094D01*
X224941990Y-96170927D01*
X224922653Y-96169569D01*
X224918250Y-96170128D01*
X224913955Y-96169014D01*
X224894618Y-96167903D01*
X224890218Y-96168518D01*
X224885903Y-96167458D01*
X224866568Y-96166594D01*
X224862172Y-96167266D01*
X224857837Y-96166259D01*
X224838501Y-96165642D01*
X224834126Y-96166368D01*
X224829795Y-96165420D01*
X224810459Y-96165049D01*
X224806056Y-96165837D01*
X224801675Y-96164937D01*
X224782338Y-96164814D01*
X224780158Y-96165233D01*
X224777981Y-96164800D01*
X223325885Y-96164800D01*
X223063747Y-96216943D01*
X222841517Y-96365432D01*
X222693028Y-96587662D01*
X222640885Y-96849800D01*
X221655124Y-96849800D01*
X221632857Y-96737862D01*
X221484368Y-96515632D01*
X221262138Y-96367143D01*
X221000000Y-96315000D01*
X219000000Y-96315000D01*
X218737862Y-96367143D01*
X218515632Y-96515632D01*
X218500000Y-96539027D01*
X218484368Y-96515632D01*
X218262138Y-96367143D01*
X218000000Y-96315000D01*
X217000000Y-96315000D01*
X216933830Y-96328162D01*
X216483681Y-96404282D01*
X216359066Y-96455899D01*
X216236751Y-96506563D01*
X215912328Y-96723336D01*
X215723336Y-96912328D01*
X215506564Y-97236751D01*
X215506563Y-97236752D01*
X215404282Y-97483681D01*
X215328162Y-97866364D01*
X215328162Y-97933830D01*
X215315000Y-98000000D01*
X214068644Y-98000000D01*
X214064485Y-97954052D01*
X214061731Y-97944707D01*
X214062491Y-97934994D01*
X214056526Y-97884782D01*
X214053408Y-97875199D01*
X214053903Y-97865132D01*
X214046613Y-97815960D01*
X214043101Y-97806141D01*
X214043301Y-97795718D01*
X214034685Y-97747585D01*
X214030759Y-97737566D01*
X214030633Y-97726803D01*
X214020692Y-97679710D01*
X214016325Y-97669507D01*
X214015842Y-97658422D01*
X214004576Y-97612368D01*
X213999745Y-97602006D01*
X213998872Y-97590602D01*
X213986280Y-97545588D01*
X213980967Y-97535106D01*
X213979675Y-97523427D01*
X213965757Y-97479452D01*
X213959950Y-97468894D01*
X213958211Y-97456971D01*
X213942968Y-97414035D01*
X213936652Y-97403439D01*
X213934441Y-97391303D01*
X213917873Y-97349408D01*
X213911040Y-97338816D01*
X213908333Y-97326506D01*
X213890439Y-97285650D01*
X213883088Y-97275114D01*
X213879868Y-97262678D01*
X213860648Y-97222862D01*
X213852798Y-97212452D01*
X213849059Y-97199960D01*
X213828515Y-97161183D01*
X213820153Y-97150917D01*
X213815876Y-97138386D01*
X213794005Y-97100649D01*
X213785177Y-97090616D01*
X213780378Y-97078144D01*
X213757183Y-97041447D01*
X213747893Y-97031673D01*
X213742567Y-97019286D01*
X213718045Y-96983628D01*
X213708348Y-96974187D01*
X213702522Y-96961970D01*
X213676676Y-96927352D01*
X213666589Y-96918268D01*
X213660273Y-96906254D01*
X213633100Y-96872675D01*
X213622690Y-96864011D01*
X213615926Y-96852277D01*
X213587429Y-96819738D01*
X213576723Y-96811512D01*
X213569533Y-96800087D01*
X213539709Y-96768587D01*
X213528783Y-96760846D01*
X213521218Y-96749794D01*
X213490070Y-96719334D01*
X213479605Y-96712509D01*
X213472185Y-96702462D01*
X213439971Y-96673145D01*
X213429889Y-96667075D01*
X213422584Y-96657852D01*
X213389565Y-96629783D01*
X213379187Y-96624003D01*
X213371499Y-96614950D01*
X213337673Y-96588129D01*
X213327044Y-96582676D01*
X213319004Y-96573841D01*
X213284373Y-96548267D01*
X213273506Y-96543154D01*
X213265122Y-96534558D01*
X213229685Y-96510232D01*
X213218636Y-96505492D01*
X213209946Y-96497177D01*
X213173703Y-96474098D01*
X213162504Y-96469745D01*
X213153541Y-96461743D01*
X213116493Y-96439911D01*
X213105164Y-96435952D01*
X213095943Y-96428274D01*
X213058089Y-96407691D01*
X213046711Y-96404150D01*
X213037298Y-96396843D01*
X212998638Y-96377506D01*
X212987221Y-96374378D01*
X212977628Y-96367440D01*
X212938163Y-96349351D01*
X212926755Y-96346639D01*
X212917026Y-96340090D01*
X212876755Y-96323249D01*
X212865405Y-96320951D01*
X212855588Y-96314808D01*
X212814511Y-96299214D01*
X212803246Y-96297321D01*
X212793370Y-96291583D01*
X212751488Y-96277237D01*
X212740354Y-96275740D01*
X212730461Y-96270411D01*
X212687772Y-96257312D01*
X212676788Y-96256195D01*
X212666905Y-96251269D01*
X212623411Y-96239418D01*
X212612620Y-96238665D01*
X212602796Y-96234144D01*
X212558498Y-96223540D01*
X212547912Y-96223131D01*
X212538158Y-96218997D01*
X212493053Y-96209641D01*
X212482709Y-96209556D01*
X212473071Y-96205805D01*
X212427160Y-96197696D01*
X212417062Y-96197913D01*
X212407549Y-96194525D01*
X212360832Y-96187664D01*
X212351014Y-96188161D01*
X212341662Y-96185124D01*
X212294140Y-96179510D01*
X212284595Y-96180263D01*
X212275410Y-96177558D01*
X212227082Y-96173192D01*
X212217833Y-96174178D01*
X212208846Y-96171790D01*
X212159713Y-96168671D01*
X212150755Y-96169869D01*
X212141962Y-96167775D01*
X212092023Y-96165904D01*
X212083370Y-96167291D01*
X212074800Y-96165476D01*
X212024055Y-96164852D01*
X212019839Y-96165637D01*
X212015632Y-96164800D01*
X209770123Y-96164800D01*
X209765916Y-96165637D01*
X209761701Y-96164852D01*
X209710955Y-96165476D01*
X209702385Y-96167291D01*
X209693732Y-96165904D01*
X209643793Y-96167775D01*
X209635000Y-96169869D01*
X209626043Y-96168671D01*
X209576909Y-96171790D01*
X209567921Y-96174178D01*
X209558673Y-96173192D01*
X209510344Y-96177558D01*
X209501159Y-96180263D01*
X209491613Y-96179510D01*
X209444092Y-96185124D01*
X209434739Y-96188161D01*
X209424919Y-96187664D01*
X209378203Y-96194525D01*
X209368690Y-96197913D01*
X209358596Y-96197696D01*
X209312684Y-96205805D01*
X209303045Y-96209556D01*
X209292702Y-96209641D01*
X209247597Y-96218997D01*
X209237843Y-96223131D01*
X209227257Y-96223540D01*
X209182958Y-96234144D01*
X209173134Y-96238665D01*
X209162345Y-96239418D01*
X209118850Y-96251269D01*
X209108967Y-96256195D01*
X209097983Y-96257312D01*
X209055295Y-96270411D01*
X209045405Y-96275738D01*
X209034272Y-96277235D01*
X208992389Y-96291581D01*
X208982508Y-96297322D01*
X208971237Y-96299216D01*
X208930162Y-96314810D01*
X208920347Y-96320952D01*
X208909001Y-96323249D01*
X208868729Y-96340090D01*
X208859003Y-96346636D01*
X208847598Y-96349348D01*
X208808132Y-96367437D01*
X208798534Y-96374379D01*
X208787109Y-96377509D01*
X208748451Y-96396846D01*
X208739042Y-96404151D01*
X208727665Y-96407691D01*
X208689812Y-96428274D01*
X208680594Y-96435950D01*
X208669269Y-96439907D01*
X208632220Y-96461739D01*
X208623250Y-96469748D01*
X208612044Y-96474103D01*
X208575802Y-96497182D01*
X208567117Y-96505493D01*
X208556070Y-96510232D01*
X208520633Y-96534558D01*
X208512249Y-96543154D01*
X208501382Y-96548267D01*
X208466751Y-96573841D01*
X208458711Y-96582676D01*
X208448082Y-96588129D01*
X208414256Y-96614950D01*
X208406568Y-96624003D01*
X208396190Y-96629783D01*
X208363170Y-96657852D01*
X208355863Y-96667077D01*
X208345785Y-96673145D01*
X208313570Y-96702461D01*
X208306152Y-96712506D01*
X208295693Y-96719326D01*
X208264544Y-96749787D01*
X208256974Y-96760846D01*
X208246037Y-96768595D01*
X208216214Y-96800095D01*
X208209030Y-96811511D01*
X208198334Y-96819729D01*
X208169836Y-96852268D01*
X208163066Y-96864011D01*
X208152646Y-96872684D01*
X208125474Y-96906264D01*
X208119164Y-96918267D01*
X208109087Y-96927342D01*
X208083240Y-96961960D01*
X208077408Y-96974189D01*
X208067702Y-96983639D01*
X208043181Y-97019297D01*
X208037861Y-97031671D01*
X208028579Y-97041436D01*
X208005383Y-97078133D01*
X208000578Y-97090620D01*
X207991743Y-97100661D01*
X207969873Y-97138397D01*
X207965601Y-97150914D01*
X207957246Y-97161171D01*
X207936702Y-97199948D01*
X207932959Y-97212451D01*
X207925100Y-97222874D01*
X207905881Y-97262691D01*
X207902663Y-97275119D01*
X207895316Y-97285650D01*
X207877422Y-97326506D01*
X207874716Y-97338809D01*
X207867887Y-97349395D01*
X207851318Y-97391290D01*
X207849105Y-97403433D01*
X207842786Y-97414035D01*
X207827543Y-97456970D01*
X207825803Y-97468901D01*
X207819993Y-97479465D01*
X207806076Y-97523441D01*
X207804785Y-97535112D01*
X207799475Y-97545589D01*
X207786883Y-97590602D01*
X207786011Y-97601998D01*
X207781182Y-97612354D01*
X207769915Y-97658408D01*
X207769431Y-97669501D01*
X207765062Y-97679710D01*
X207755121Y-97726803D01*
X207754995Y-97737571D01*
X207751066Y-97747598D01*
X207742451Y-97795731D01*
X207742652Y-97806150D01*
X207739142Y-97815961D01*
X207731852Y-97865132D01*
X207732347Y-97875199D01*
X207729229Y-97884782D01*
X207723264Y-97934994D01*
X207724024Y-97944706D01*
X207721270Y-97954051D01*
X207716631Y-98005304D01*
X207717626Y-98014647D01*
X207715214Y-98023727D01*
X207711900Y-98076018D01*
X207713103Y-98085003D01*
X207711003Y-98093827D01*
X207709015Y-98147158D01*
X207710399Y-98155781D01*
X207708591Y-98164323D01*
X207707928Y-98218694D01*
X207708707Y-98222875D01*
X207707877Y-98227046D01*
X206639837Y-98227046D01*
X206685000Y-98000000D01*
X206685000Y-97000000D01*
X206632857Y-96737862D01*
X206484368Y-96515632D01*
X206262138Y-96367143D01*
X206000000Y-96315000D01*
X201000000Y-96315000D01*
X200737862Y-96367143D01*
X200515632Y-96515632D01*
X200367143Y-96737862D01*
X200315000Y-97000000D01*
X199685000Y-97000000D01*
X199632857Y-96737862D01*
X199484368Y-96515632D01*
X199262138Y-96367143D01*
X199000000Y-96315000D01*
X194000000Y-96315000D01*
X193737862Y-96367143D01*
X193515632Y-96515632D01*
X193367143Y-96737862D01*
X193315000Y-97000000D01*
X192022685Y-97000000D01*
X192022685Y-96849800D01*
X191970542Y-96587662D01*
X191822053Y-96365432D01*
X191599823Y-96216943D01*
X191337685Y-96164800D01*
X186330200Y-96164800D01*
X186068062Y-96216943D01*
X185845832Y-96365432D01*
X185697343Y-96587662D01*
X185645200Y-96849800D01*
X182549000Y-96849800D01*
X182549000Y-95172502D01*
X232347200Y-95136298D01*
X232347200Y-100418800D01*
X232347200Y-100418800D01*
G37*
X232347200Y-100418800D02*
X232367443Y-100520565D01*
X232378571Y-100623725D01*
X240195228Y-125555754D01*
X240208200Y-173469986D01*
X240209497Y-173476495D01*
X240208328Y-173483026D01*
X240301644Y-178315000D01*
X201661707Y-178315000D01*
X198905765Y-176937029D01*
X198685000Y-176716264D01*
X198685000Y-171596080D01*
X198734340Y-171844130D01*
X199037172Y-172297349D01*
X199490391Y-172600181D01*
X200025000Y-172706521D01*
X200559609Y-172600181D01*
X201012828Y-172297349D01*
X201295000Y-171875050D01*
X201577172Y-172297349D01*
X202030391Y-172600181D01*
X202565000Y-172706521D01*
X202835381Y-172652739D01*
X207437721Y-177255079D01*
X207692393Y-177425245D01*
X207992800Y-177485000D01*
X234750000Y-177485000D01*
X235050407Y-177425245D01*
X235305079Y-177255079D01*
X239255079Y-173305079D01*
X239425245Y-173050406D01*
X239485001Y-172750000D01*
X239485000Y-172749995D01*
X239485000Y-157124268D01*
X239425245Y-156823862D01*
X239255079Y-156569189D01*
X237616600Y-154930710D01*
X237634834Y-154886799D01*
X237635158Y-154514833D01*
X237493113Y-154171057D01*
X237230323Y-153907808D01*
X236886795Y-153765162D01*
X236514829Y-153764838D01*
X236171053Y-153906883D01*
X235907804Y-154169673D01*
X235765158Y-154513201D01*
X235764834Y-154885167D01*
X235906879Y-155228943D01*
X235943019Y-155265147D01*
X235974751Y-155424671D01*
X236144917Y-155679343D01*
X237915000Y-157449426D01*
X237915000Y-172424842D01*
X234424842Y-175915000D01*
X208317958Y-175915000D01*
X204932611Y-172529653D01*
X204978000Y-172503920D01*
X204978000Y-170891200D01*
X204958000Y-170891200D01*
X204958000Y-170637200D01*
X204978000Y-170637200D01*
X204978000Y-170617200D01*
X205232000Y-170617200D01*
X205232000Y-170637200D01*
X205252000Y-170637200D01*
X205252000Y-170891200D01*
X205232000Y-170891200D01*
X205232000Y-172503920D01*
X205448070Y-172626420D01*
X205522277Y-172611460D01*
X206003026Y-172349830D01*
X206347059Y-171924141D01*
X206365670Y-171861087D01*
X206657172Y-172297349D01*
X207110391Y-172600181D01*
X207645000Y-172706521D01*
X208179609Y-172600181D01*
X208632828Y-172297349D01*
X208915000Y-171875050D01*
X209197172Y-172297349D01*
X209650391Y-172600181D01*
X210185000Y-172706521D01*
X210719609Y-172600181D01*
X211172828Y-172297349D01*
X211455000Y-171875050D01*
X211737172Y-172297349D01*
X212190391Y-172600181D01*
X212725000Y-172706521D01*
X213259609Y-172600181D01*
X213712828Y-172297349D01*
X213995000Y-171875050D01*
X214277172Y-172297349D01*
X214330000Y-172332648D01*
X214330000Y-172634200D01*
X214401173Y-172992009D01*
X214603855Y-173295345D01*
X215619655Y-174311145D01*
X215922991Y-174513827D01*
X216280800Y-174585000D01*
X216578808Y-174585000D01*
X216685910Y-174751441D01*
X216898110Y-174896431D01*
X217150000Y-174947440D01*
X217850000Y-174947440D01*
X217901836Y-174937686D01*
X217950000Y-174947440D01*
X218650000Y-174947440D01*
X218885317Y-174903162D01*
X219101441Y-174764090D01*
X219223808Y-174585000D01*
X219699180Y-174585000D01*
X219885163Y-174585162D01*
X220228939Y-174443117D01*
X220492188Y-174180327D01*
X220634834Y-173836799D01*
X220635158Y-173464833D01*
X220493113Y-173121057D01*
X220230323Y-172857808D01*
X219886795Y-172715162D01*
X219514829Y-172714838D01*
X219514437Y-172715000D01*
X219221192Y-172715000D01*
X219114090Y-172548559D01*
X218901890Y-172403569D01*
X218650000Y-172352560D01*
X217950000Y-172352560D01*
X217898164Y-172362314D01*
X217850000Y-172352560D01*
X217150000Y-172352560D01*
X216914683Y-172396838D01*
X216698559Y-172535910D01*
X216613495Y-172660405D01*
X216251396Y-172298306D01*
X216252828Y-172297349D01*
X216555660Y-171844130D01*
X216662000Y-171309521D01*
X216662000Y-170218879D01*
X216555805Y-169685000D01*
X219054195Y-169685000D01*
X218948000Y-170218879D01*
X218948000Y-171309521D01*
X219054340Y-171844130D01*
X219357172Y-172297349D01*
X219810391Y-172600181D01*
X220345000Y-172706521D01*
X220879609Y-172600181D01*
X221332828Y-172297349D01*
X221615000Y-171875050D01*
X221897172Y-172297349D01*
X222350391Y-172600181D01*
X222885000Y-172706521D01*
X223419609Y-172600181D01*
X223872828Y-172297349D01*
X224155000Y-171875050D01*
X224437172Y-172297349D01*
X224890391Y-172600181D01*
X225425000Y-172706521D01*
X225959609Y-172600181D01*
X226412828Y-172297349D01*
X226695000Y-171875050D01*
X226977172Y-172297349D01*
X227430391Y-172600181D01*
X227965000Y-172706521D01*
X228499609Y-172600181D01*
X228952828Y-172297349D01*
X229235000Y-171875050D01*
X229517172Y-172297349D01*
X229742636Y-172448000D01*
X229779755Y-172634607D01*
X229949921Y-172889279D01*
X230815721Y-173755079D01*
X231070393Y-173925245D01*
X231370800Y-173985000D01*
X234000000Y-173985000D01*
X234300407Y-173925245D01*
X234555079Y-173755079D01*
X235855079Y-172455079D01*
X236025245Y-172200406D01*
X236085001Y-171900000D01*
X236085000Y-171899995D01*
X236085000Y-164400000D01*
X236025245Y-164099594D01*
X235855079Y-163844921D01*
X231235702Y-159225544D01*
X231334838Y-158986799D01*
X231335162Y-158614833D01*
X231193117Y-158271057D01*
X230930327Y-158007808D01*
X230586799Y-157865162D01*
X230214833Y-157864838D01*
X229871057Y-158006883D01*
X229607808Y-158269673D01*
X229465162Y-158613201D01*
X229464838Y-158985167D01*
X229606883Y-159328943D01*
X229615000Y-159337074D01*
X229615000Y-159500000D01*
X229674755Y-159800407D01*
X229844921Y-160055079D01*
X234515000Y-164725158D01*
X234515000Y-171574842D01*
X234357994Y-171731848D01*
X234442000Y-171309521D01*
X234442000Y-170218879D01*
X234335660Y-169684270D01*
X234032828Y-169231051D01*
X233579609Y-168928219D01*
X233045000Y-168821879D01*
X232523647Y-168925582D01*
X232632857Y-168762138D01*
X232685000Y-168500000D01*
X232685000Y-167500000D01*
X232632857Y-167237862D01*
X232484368Y-167015632D01*
X231984368Y-166515632D01*
X231762138Y-166367143D01*
X231500000Y-166315000D01*
X196000000Y-166315000D01*
X195927939Y-166329334D01*
X195854485Y-166330635D01*
X195798135Y-166355154D01*
X195737862Y-166367143D01*
X195676775Y-166407960D01*
X195609407Y-166437273D01*
X195566728Y-166481491D01*
X195515632Y-166515632D01*
X195474817Y-166576716D01*
X195423792Y-166629581D01*
X191126024Y-173315000D01*
X163067200Y-173315000D01*
X163067200Y-164729226D01*
X163200302Y-164862327D01*
X163433691Y-164959000D01*
X164036250Y-164959000D01*
X164195000Y-164800250D01*
X164195000Y-163689000D01*
X164449000Y-163689000D01*
X164449000Y-164800250D01*
X164607750Y-164959000D01*
X165210309Y-164959000D01*
X165443698Y-164862327D01*
X165622327Y-164683699D01*
X165719000Y-164450310D01*
X165719000Y-163847750D01*
X165560250Y-163689000D01*
X164449000Y-163689000D01*
X164195000Y-163689000D01*
X164175000Y-163689000D01*
X164175000Y-163435000D01*
X164195000Y-163435000D01*
X164195000Y-163415000D01*
X164449000Y-163415000D01*
X164449000Y-163435000D01*
X165560250Y-163435000D01*
X165719000Y-163276250D01*
X165719000Y-162941000D01*
X189874907Y-162941000D01*
X189987946Y-163509285D01*
X190309853Y-163991054D01*
X190639026Y-164211000D01*
X190309853Y-164430946D01*
X189987946Y-164912715D01*
X189874907Y-165481000D01*
X189987946Y-166049285D01*
X190309853Y-166531054D01*
X190639026Y-166751000D01*
X190309853Y-166970946D01*
X189987946Y-167452715D01*
X189874907Y-168021000D01*
X189987946Y-168589285D01*
X190309853Y-169071054D01*
X190791622Y-169392961D01*
X191359907Y-169506000D01*
X191418093Y-169506000D01*
X191986378Y-169392961D01*
X192468147Y-169071054D01*
X192790054Y-168589285D01*
X192903093Y-168021000D01*
X192790054Y-167452715D01*
X192468147Y-166970946D01*
X192138974Y-166751000D01*
X192468147Y-166531054D01*
X192790054Y-166049285D01*
X192903093Y-165481000D01*
X192790054Y-164912715D01*
X192468147Y-164430946D01*
X192138974Y-164211000D01*
X192468147Y-163991054D01*
X192790054Y-163509285D01*
X192903093Y-162941000D01*
X192790054Y-162372715D01*
X192468147Y-161890946D01*
X192426548Y-161863150D01*
X192474317Y-161854162D01*
X192690441Y-161715090D01*
X192835431Y-161502890D01*
X192886440Y-161251000D01*
X192886440Y-159551000D01*
X192842162Y-159315683D01*
X192703090Y-159099559D01*
X192490890Y-158954569D01*
X192239000Y-158903560D01*
X190539000Y-158903560D01*
X190303683Y-158947838D01*
X190087559Y-159086910D01*
X189942569Y-159299110D01*
X189891560Y-159551000D01*
X189891560Y-161251000D01*
X189935838Y-161486317D01*
X190074910Y-161702441D01*
X190287110Y-161847431D01*
X190354541Y-161861086D01*
X190309853Y-161890946D01*
X189987946Y-162372715D01*
X189874907Y-162941000D01*
X165719000Y-162941000D01*
X165719000Y-162673690D01*
X165622327Y-162440301D01*
X165443698Y-162261673D01*
X165210309Y-162165000D01*
X165154386Y-162165000D01*
X165505629Y-161814370D01*
X165718757Y-161301100D01*
X165719242Y-160745339D01*
X165507010Y-160231697D01*
X165114370Y-159838371D01*
X164906488Y-159752051D01*
X165112303Y-159667010D01*
X165505629Y-159274370D01*
X165718757Y-158761100D01*
X165719242Y-158205339D01*
X165716195Y-158197963D01*
X169084079Y-154830079D01*
X169211357Y-154639593D01*
X169254245Y-154575406D01*
X169314000Y-154275000D01*
X169314000Y-150583402D01*
X171711652Y-148185750D01*
X180315000Y-148185750D01*
X180315000Y-148676310D01*
X180411673Y-148909699D01*
X180590302Y-149088327D01*
X180823691Y-149185000D01*
X181014250Y-149185000D01*
X181173000Y-149026250D01*
X181173000Y-148027000D01*
X180473750Y-148027000D01*
X180315000Y-148185750D01*
X171711652Y-148185750D01*
X177511402Y-142386000D01*
X179159505Y-142386000D01*
X179065162Y-142613201D01*
X179064838Y-142985167D01*
X179206883Y-143328943D01*
X179469673Y-143592192D01*
X179813201Y-143734838D01*
X180185167Y-143735162D01*
X180520254Y-143596707D01*
X180635910Y-143776441D01*
X180848110Y-143921431D01*
X181100000Y-143972440D01*
X182100000Y-143972440D01*
X182335317Y-143928162D01*
X182551441Y-143789090D01*
X182597969Y-143720994D01*
X182740302Y-143863327D01*
X182973691Y-143960000D01*
X183314250Y-143960000D01*
X183473000Y-143801250D01*
X183473000Y-142827000D01*
X183453000Y-142827000D01*
X183453000Y-142573000D01*
X183473000Y-142573000D01*
X183473000Y-142553000D01*
X183727000Y-142553000D01*
X183727000Y-142573000D01*
X184576250Y-142573000D01*
X184735000Y-142414250D01*
X184735000Y-142386000D01*
X185213208Y-142386000D01*
X185187169Y-142424110D01*
X185172042Y-142498808D01*
X185148600Y-142522250D01*
X185148600Y-142602310D01*
X185150267Y-142606335D01*
X185136160Y-142676000D01*
X185136160Y-143027185D01*
X184986793Y-142965162D01*
X184714175Y-142964925D01*
X184576250Y-142827000D01*
X183727000Y-142827000D01*
X183727000Y-143801250D01*
X183864959Y-143939209D01*
X183864832Y-144085167D01*
X183960612Y-144316974D01*
X183907808Y-144369686D01*
X183868242Y-144464972D01*
X183714833Y-144464838D01*
X183371057Y-144606883D01*
X183107808Y-144869673D01*
X182965162Y-145213201D01*
X182965029Y-145366000D01*
X178876158Y-145366000D01*
X178155079Y-144644921D01*
X177900407Y-144474755D01*
X177600000Y-144415000D01*
X177337506Y-144415000D01*
X177330327Y-144407808D01*
X176986799Y-144265162D01*
X176614833Y-144264838D01*
X176271057Y-144406883D01*
X176007808Y-144669673D01*
X175865162Y-145013201D01*
X175864838Y-145385167D01*
X176006883Y-145728943D01*
X176269673Y-145992192D01*
X176613201Y-146134838D01*
X176797635Y-146134999D01*
X176765162Y-146213201D01*
X176764838Y-146585167D01*
X176906883Y-146928943D01*
X177169673Y-147192192D01*
X177513201Y-147334838D01*
X177524690Y-147334848D01*
X177545921Y-147356079D01*
X177800593Y-147526245D01*
X178101000Y-147586000D01*
X180315000Y-147586000D01*
X180315000Y-147614250D01*
X180473750Y-147773000D01*
X181173000Y-147773000D01*
X181173000Y-147753000D01*
X181427000Y-147753000D01*
X181427000Y-147773000D01*
X181447000Y-147773000D01*
X181447000Y-148027000D01*
X181427000Y-148027000D01*
X181427000Y-149026250D01*
X181585750Y-149185000D01*
X181776309Y-149185000D01*
X182009698Y-149088327D01*
X182188327Y-148909699D01*
X182244654Y-148773713D01*
X182246838Y-148785317D01*
X182385910Y-149001441D01*
X182598110Y-149146431D01*
X182850000Y-149197440D01*
X183550000Y-149197440D01*
X183785317Y-149153162D01*
X184001441Y-149014090D01*
X184146431Y-148801890D01*
X184170102Y-148685000D01*
X184500000Y-148685000D01*
X184800407Y-148625245D01*
X185055079Y-148455079D01*
X185274158Y-148236000D01*
X185478391Y-148236000D01*
X185531710Y-148272431D01*
X185783600Y-148323440D01*
X187233600Y-148323440D01*
X187468917Y-148279162D01*
X187685041Y-148140090D01*
X187830031Y-147927890D01*
X187881040Y-147676000D01*
X187881040Y-147226000D01*
X187861533Y-147122329D01*
X187881040Y-147026000D01*
X187881040Y-146576000D01*
X187861533Y-146472329D01*
X187881040Y-146376000D01*
X187881040Y-146286000D01*
X188699000Y-146286000D01*
X188999407Y-146226245D01*
X189254079Y-146056079D01*
X189642992Y-145667166D01*
X189644972Y-145670130D01*
X190030921Y-146056079D01*
X190285593Y-146226245D01*
X190586000Y-146286000D01*
X191036160Y-146286000D01*
X191036160Y-146376000D01*
X191055667Y-146479671D01*
X191049113Y-146512035D01*
X190822833Y-146511838D01*
X190479057Y-146653883D01*
X190215808Y-146916673D01*
X190073162Y-147260201D01*
X190072838Y-147632167D01*
X190214883Y-147975943D01*
X190477673Y-148239192D01*
X190821201Y-148381838D01*
X191193167Y-148382162D01*
X191449848Y-148276104D01*
X191683600Y-148323440D01*
X193133600Y-148323440D01*
X193368917Y-148279162D01*
X193585041Y-148140090D01*
X193593309Y-148127989D01*
X193721399Y-148256079D01*
X193976071Y-148426245D01*
X194276478Y-148486000D01*
X209042000Y-148486000D01*
X209342407Y-148426245D01*
X209597079Y-148256079D01*
X212650123Y-145203035D01*
X212693883Y-145308943D01*
X212956673Y-145572192D01*
X213300201Y-145714838D01*
X213672167Y-145715162D01*
X214015943Y-145573117D01*
X214121953Y-145467291D01*
X214226671Y-145572192D01*
X214570199Y-145714838D01*
X214942165Y-145715162D01*
X215285941Y-145573117D01*
X215549190Y-145310327D01*
X215646061Y-145077036D01*
X215741883Y-145308943D01*
X216004673Y-145572192D01*
X216348201Y-145714838D01*
X216359690Y-145714848D01*
X216564121Y-145919279D01*
X216818794Y-146089445D01*
X217119200Y-146149200D01*
X226561610Y-146149200D01*
X226522162Y-146244201D01*
X226522152Y-146255690D01*
X224162842Y-148615000D01*
X187000000Y-148615000D01*
X186699594Y-148674755D01*
X186444921Y-148844921D01*
X186024995Y-149264847D01*
X186014833Y-149264838D01*
X185671057Y-149406883D01*
X185407808Y-149669673D01*
X185265162Y-150013201D01*
X185264838Y-150385167D01*
X185271023Y-150400135D01*
X185186799Y-150365162D01*
X184814833Y-150364838D01*
X184471057Y-150506883D01*
X184207808Y-150769673D01*
X184065162Y-151113201D01*
X184064838Y-151485167D01*
X184206883Y-151828943D01*
X184469673Y-152092192D01*
X184813201Y-152234838D01*
X185185167Y-152235162D01*
X185528943Y-152093117D01*
X185537074Y-152085000D01*
X186288726Y-152085000D01*
X186306883Y-152128943D01*
X186569673Y-152392192D01*
X186913201Y-152534838D01*
X187285167Y-152535162D01*
X187628943Y-152393117D01*
X187637074Y-152385000D01*
X225717000Y-152385000D01*
X226017407Y-152325245D01*
X226272079Y-152155079D01*
X228558159Y-149868999D01*
X231305898Y-149868999D01*
X231199369Y-150024910D01*
X231148360Y-150276800D01*
X231148360Y-150814082D01*
X231076843Y-150885599D01*
X230786799Y-150765162D01*
X230414833Y-150764838D01*
X230071057Y-150906883D01*
X229807808Y-151169673D01*
X229665162Y-151513201D01*
X229664838Y-151885167D01*
X229806883Y-152228943D01*
X230069673Y-152492192D01*
X230413201Y-152634838D01*
X230785167Y-152635162D01*
X231128943Y-152493117D01*
X231137074Y-152485000D01*
X231250284Y-152485000D01*
X231249960Y-152486600D01*
X231249960Y-153786600D01*
X231294238Y-154021917D01*
X231433310Y-154238041D01*
X231462400Y-154257917D01*
X231462400Y-154311253D01*
X231363808Y-154409673D01*
X231221162Y-154753201D01*
X231220838Y-155125167D01*
X231362883Y-155468943D01*
X231625673Y-155732192D01*
X231969201Y-155874838D01*
X232341167Y-155875162D01*
X232684943Y-155733117D01*
X232948192Y-155470327D01*
X233090838Y-155126799D01*
X233091162Y-154754833D01*
X233032400Y-154612618D01*
X233032400Y-154261269D01*
X233048841Y-154250690D01*
X233193831Y-154038490D01*
X233196481Y-154025403D01*
X233333310Y-154238041D01*
X233545510Y-154383031D01*
X233797400Y-154434040D01*
X234497400Y-154434040D01*
X234732717Y-154389762D01*
X234948841Y-154250690D01*
X235093831Y-154038490D01*
X235144840Y-153786600D01*
X235144840Y-152486600D01*
X235100562Y-152251283D01*
X234961490Y-152035159D01*
X234886273Y-151983765D01*
X234992231Y-151828690D01*
X235029024Y-151647000D01*
X236156888Y-151647000D01*
X236196838Y-151859317D01*
X236335910Y-152075441D01*
X236548110Y-152220431D01*
X236800000Y-152271440D01*
X238324000Y-152271440D01*
X238559317Y-152227162D01*
X238775441Y-152088090D01*
X238920431Y-151875890D01*
X238971440Y-151624000D01*
X238971440Y-150100000D01*
X238927162Y-149864683D01*
X238788090Y-149648559D01*
X238575890Y-149503569D01*
X238392876Y-149466508D01*
X238745629Y-149114370D01*
X238958757Y-148601100D01*
X238959242Y-148045339D01*
X238747010Y-147531697D01*
X238354370Y-147138371D01*
X238146488Y-147052051D01*
X238352303Y-146967010D01*
X238745629Y-146574370D01*
X238958757Y-146061100D01*
X238959242Y-145505339D01*
X238747010Y-144991697D01*
X238354370Y-144598371D01*
X238146488Y-144512051D01*
X238352303Y-144427010D01*
X238745629Y-144034370D01*
X238958757Y-143521100D01*
X238959242Y-142965339D01*
X238747010Y-142451697D01*
X238354370Y-142058371D01*
X237841100Y-141845243D01*
X237285339Y-141844758D01*
X236771697Y-142056990D01*
X236751599Y-142077053D01*
X236565213Y-142023592D01*
X235764605Y-142824200D01*
X235778748Y-142838343D01*
X235599143Y-143017948D01*
X235585000Y-143003805D01*
X235570858Y-143017948D01*
X235391253Y-142838343D01*
X235405395Y-142824200D01*
X234604787Y-142023592D01*
X234362603Y-142093057D01*
X234312491Y-142233518D01*
X234230010Y-142033897D01*
X234040432Y-141843987D01*
X234784392Y-141843987D01*
X235585000Y-142644595D01*
X236385608Y-141843987D01*
X236316143Y-141601803D01*
X235792698Y-141415056D01*
X235237632Y-141442838D01*
X234853857Y-141601803D01*
X234784392Y-141843987D01*
X234040432Y-141843987D01*
X233837370Y-141640571D01*
X233324100Y-141427443D01*
X232768339Y-141426958D01*
X232254697Y-141639190D01*
X231861371Y-142031830D01*
X231858311Y-142039200D01*
X215813958Y-142039200D01*
X218360079Y-139493079D01*
X218452260Y-139355119D01*
X218530245Y-139238406D01*
X218590000Y-138938000D01*
X218590000Y-124172875D01*
X218792828Y-124037349D01*
X219075000Y-123615050D01*
X219357172Y-124037349D01*
X219810391Y-124340181D01*
X220345000Y-124446521D01*
X220879609Y-124340181D01*
X221332828Y-124037349D01*
X221615000Y-123615050D01*
X221897172Y-124037349D01*
X222350391Y-124340181D01*
X222885000Y-124446521D01*
X223419609Y-124340181D01*
X223872828Y-124037349D01*
X224155000Y-123615050D01*
X224437172Y-124037349D01*
X224890391Y-124340181D01*
X225425000Y-124446521D01*
X225959609Y-124340181D01*
X226412828Y-124037349D01*
X226695000Y-123615050D01*
X226977172Y-124037349D01*
X227430391Y-124340181D01*
X227965000Y-124446521D01*
X228499609Y-124340181D01*
X228952828Y-124037349D01*
X229235000Y-123615050D01*
X229517172Y-124037349D01*
X229970391Y-124340181D01*
X230505000Y-124446521D01*
X231039609Y-124340181D01*
X231492828Y-124037349D01*
X231775000Y-123615050D01*
X232057172Y-124037349D01*
X232510391Y-124340181D01*
X233045000Y-124446521D01*
X233579609Y-124340181D01*
X234032828Y-124037349D01*
X234335660Y-123584130D01*
X234442000Y-123049521D01*
X234442000Y-121958879D01*
X234335660Y-121424270D01*
X234032828Y-120971051D01*
X233579609Y-120668219D01*
X233045000Y-120561879D01*
X232510391Y-120668219D01*
X232057172Y-120971051D01*
X231775000Y-121393350D01*
X231492828Y-120971051D01*
X231039609Y-120668219D01*
X230505000Y-120561879D01*
X229970391Y-120668219D01*
X229517172Y-120971051D01*
X229235000Y-121393350D01*
X228952828Y-120971051D01*
X228499609Y-120668219D01*
X227965000Y-120561879D01*
X227430391Y-120668219D01*
X226977172Y-120971051D01*
X226695000Y-121393350D01*
X226412828Y-120971051D01*
X225959609Y-120668219D01*
X225425000Y-120561879D01*
X224890391Y-120668219D01*
X224437172Y-120971051D01*
X224155000Y-121393350D01*
X223872828Y-120971051D01*
X223419609Y-120668219D01*
X222885000Y-120561879D01*
X222350391Y-120668219D01*
X221897172Y-120971051D01*
X221615000Y-121393350D01*
X221332828Y-120971051D01*
X220879609Y-120668219D01*
X220345000Y-120561879D01*
X219810391Y-120668219D01*
X219357172Y-120971051D01*
X219075000Y-121393350D01*
X218792828Y-120971051D01*
X218339609Y-120668219D01*
X217805000Y-120561879D01*
X217270391Y-120668219D01*
X216817172Y-120971051D01*
X216535000Y-121393350D01*
X216252828Y-120971051D01*
X215799609Y-120668219D01*
X215265000Y-120561879D01*
X214730391Y-120668219D01*
X214485000Y-120832184D01*
X214485000Y-119150000D01*
X214452889Y-118988569D01*
X214425245Y-118849593D01*
X214255079Y-118594921D01*
X213655079Y-117994921D01*
X213457645Y-117863000D01*
X230699171Y-117863000D01*
X230484057Y-117951883D01*
X230220808Y-118214673D01*
X230078162Y-118558201D01*
X230077838Y-118930167D01*
X230219883Y-119273943D01*
X230482673Y-119537192D01*
X230826201Y-119679838D01*
X231198167Y-119680162D01*
X231541943Y-119538117D01*
X231550074Y-119530000D01*
X231748370Y-119530000D01*
X231757838Y-119580317D01*
X231896910Y-119796441D01*
X232109110Y-119941431D01*
X232361000Y-119992440D01*
X233561000Y-119992440D01*
X233796317Y-119948162D01*
X234012441Y-119809090D01*
X234060134Y-119739289D01*
X234096910Y-119796441D01*
X234309110Y-119941431D01*
X234561000Y-119992440D01*
X235761000Y-119992440D01*
X235996317Y-119948162D01*
X236212441Y-119809090D01*
X236357431Y-119596890D01*
X236408440Y-119345000D01*
X236408440Y-118145000D01*
X236364162Y-117909683D01*
X236225090Y-117693559D01*
X236221689Y-117691235D01*
X236262440Y-117490000D01*
X236262440Y-116190000D01*
X236218162Y-115954683D01*
X236079090Y-115738559D01*
X235866890Y-115593569D01*
X235615000Y-115542560D01*
X234915000Y-115542560D01*
X234679683Y-115586838D01*
X234463559Y-115725910D01*
X234318569Y-115938110D01*
X234315919Y-115951197D01*
X234179090Y-115738559D01*
X233966890Y-115593569D01*
X233715000Y-115542560D01*
X233015000Y-115542560D01*
X232779683Y-115586838D01*
X232563559Y-115725910D01*
X232418569Y-115938110D01*
X232377822Y-116139325D01*
X232159921Y-116284921D01*
X232151842Y-116293000D01*
X202485000Y-116293000D01*
X202485000Y-112400000D01*
X202425245Y-112099594D01*
X202255079Y-111844921D01*
X200455079Y-110044921D01*
X200200407Y-109874755D01*
X199900000Y-109815000D01*
X190500000Y-109815000D01*
X190199594Y-109874755D01*
X189944921Y-110044921D01*
X189944919Y-110044924D01*
X187343921Y-112645921D01*
X187173755Y-112900593D01*
X187117183Y-113185000D01*
X187114000Y-113201000D01*
X187114000Y-114169331D01*
X187097559Y-114179910D01*
X186952569Y-114392110D01*
X186913529Y-114584896D01*
X186856089Y-114498931D01*
X185089076Y-112731918D01*
X185156093Y-112395000D01*
X185043054Y-111826715D01*
X184721147Y-111344946D01*
X184239378Y-111023039D01*
X183671093Y-110910000D01*
X183612907Y-110910000D01*
X183044622Y-111023039D01*
X182562853Y-111344946D01*
X182240946Y-111826715D01*
X182148494Y-112291500D01*
X180801500Y-112291500D01*
X180501094Y-112351255D01*
X180246421Y-112521421D01*
X174704921Y-118062921D01*
X174534755Y-118317593D01*
X174498472Y-118500000D01*
X174475000Y-118618000D01*
X174475000Y-132588000D01*
X174534755Y-132888407D01*
X174704921Y-133143079D01*
X177555842Y-135994000D01*
X169429157Y-135994000D01*
X165962079Y-132526921D01*
X165707407Y-132356755D01*
X165518353Y-132319150D01*
X165507010Y-132291697D01*
X165114370Y-131898371D01*
X164906488Y-131812051D01*
X165112303Y-131727010D01*
X165505629Y-131334370D01*
X165718757Y-130821100D01*
X165719242Y-130265339D01*
X165507010Y-129751697D01*
X165114370Y-129358371D01*
X164601100Y-129145243D01*
X164045339Y-129144758D01*
X163531697Y-129356990D01*
X163138371Y-129749630D01*
X163067200Y-129921029D01*
X163067200Y-125234234D01*
X182308063Y-108852568D01*
X182325285Y-108830792D01*
X182348368Y-108815368D01*
X182407656Y-108726637D01*
X182473856Y-108642930D01*
X182481433Y-108616221D01*
X182496857Y-108593138D01*
X182517677Y-108488472D01*
X182546804Y-108385804D01*
X182543584Y-108358229D01*
X182549000Y-108331000D01*
X182549000Y-104000000D01*
X222815000Y-104000000D01*
X222815000Y-105000000D01*
X222867143Y-105262138D01*
X223015632Y-105484368D01*
X223237862Y-105632857D01*
X223476652Y-105680356D01*
X223412328Y-105723336D01*
X223223336Y-105912328D01*
X223006564Y-106236751D01*
X223006563Y-106236752D01*
X222904282Y-106483681D01*
X222828162Y-106866364D01*
X222828162Y-106933830D01*
X222815000Y-107000000D01*
X222828163Y-107066173D01*
X222828163Y-107133637D01*
X222853980Y-107195966D01*
X222867143Y-107262138D01*
X222904626Y-107318235D01*
X222930444Y-107380566D01*
X222978150Y-107428272D01*
X223015632Y-107484368D01*
X223039027Y-107500000D01*
X223015632Y-107515632D01*
X222867143Y-107737862D01*
X222815000Y-108000000D01*
X222815000Y-109000000D01*
X222867143Y-109262138D01*
X223015632Y-109484368D01*
X223237862Y-109632857D01*
X223500000Y-109685000D01*
X226000000Y-109685000D01*
X226262138Y-109632857D01*
X226484368Y-109484368D01*
X226632857Y-109262138D01*
X226680356Y-109023348D01*
X226723336Y-109087672D01*
X226912328Y-109276664D01*
X227236751Y-109493437D01*
X227339032Y-109535803D01*
X227483681Y-109595718D01*
X227866364Y-109671838D01*
X227933830Y-109671838D01*
X228000000Y-109685000D01*
X229500000Y-109685000D01*
X229762138Y-109632857D01*
X229984368Y-109484368D01*
X230132857Y-109262138D01*
X230185000Y-109000000D01*
X230185000Y-106500000D01*
X230171838Y-106433830D01*
X230171838Y-106366365D01*
X230133778Y-106175022D01*
X230133777Y-106175020D01*
X230133777Y-106175018D01*
X230081065Y-106047761D01*
X230031497Y-105928093D01*
X230031496Y-105928092D01*
X230031495Y-105928090D01*
X229923108Y-105765879D01*
X229790085Y-105632857D01*
X229778891Y-105621663D01*
X229984368Y-105484368D01*
X230132857Y-105262138D01*
X230185000Y-105000000D01*
X230185000Y-104000000D01*
X230132857Y-103737862D01*
X229984368Y-103515632D01*
X229762138Y-103367143D01*
X229500000Y-103315000D01*
X228000000Y-103315000D01*
X227933830Y-103328162D01*
X227483681Y-103404282D01*
X227339032Y-103464197D01*
X227236751Y-103506563D01*
X226912328Y-103723336D01*
X226723336Y-103912328D01*
X226506564Y-104236751D01*
X226506563Y-104236752D01*
X226500000Y-104252596D01*
X226493437Y-104236751D01*
X226276664Y-103912328D01*
X226087672Y-103723336D01*
X225763248Y-103506563D01*
X225516319Y-103404282D01*
X225133636Y-103328162D01*
X225066170Y-103328162D01*
X225000000Y-103315000D01*
X223500000Y-103315000D01*
X223237862Y-103367143D01*
X223015632Y-103515632D01*
X222867143Y-103737862D01*
X222815000Y-104000000D01*
X182549000Y-104000000D01*
X182549000Y-96849800D01*
X185645200Y-96849800D01*
X185645200Y-101849800D01*
X185697343Y-102111938D01*
X185845832Y-102334168D01*
X186068062Y-102482657D01*
X186330200Y-102534800D01*
X187909541Y-102534800D01*
X188171679Y-102482657D01*
X188393909Y-102334168D01*
X188542398Y-102111938D01*
X188574751Y-101949292D01*
X188580566Y-101978525D01*
X188605160Y-102107300D01*
X188606624Y-102109527D01*
X188607143Y-102112138D01*
X188679938Y-102221084D01*
X188751949Y-102330657D01*
X188754153Y-102332154D01*
X188755632Y-102334368D01*
X188864588Y-102407170D01*
X188973039Y-102480838D01*
X188975648Y-102481378D01*
X188977862Y-102482857D01*
X189106391Y-102508423D01*
X189234771Y-102534980D01*
X189237387Y-102534480D01*
X189240000Y-102535000D01*
X189950000Y-102535000D01*
X189954109Y-102534183D01*
X189957250Y-102534787D01*
X189982123Y-102534631D01*
X189986450Y-102533742D01*
X189990795Y-102534521D01*
X190015511Y-102534053D01*
X190019862Y-102533101D01*
X190024259Y-102533832D01*
X190048819Y-102533053D01*
X190053240Y-102532027D01*
X190057724Y-102532712D01*
X190082127Y-102531620D01*
X190086556Y-102530531D01*
X190091074Y-102531161D01*
X190115323Y-102529758D01*
X190119816Y-102528591D01*
X190124423Y-102529171D01*
X190148515Y-102527455D01*
X190153013Y-102526222D01*
X190157647Y-102526743D01*
X190181585Y-102524716D01*
X190186131Y-102523405D01*
X190190838Y-102523869D01*
X190214618Y-102521530D01*
X190219189Y-102520144D01*
X190223951Y-102520548D01*
X190247575Y-102517897D01*
X190252176Y-102516433D01*
X190256991Y-102516774D01*
X190280460Y-102513811D01*
X190285086Y-102512268D01*
X190289956Y-102512545D01*
X190313268Y-102509270D01*
X190317898Y-102507654D01*
X190322798Y-102507863D01*
X190345955Y-102504277D01*
X190350636Y-102502568D01*
X190355612Y-102502710D01*
X190378613Y-102498811D01*
X190383280Y-102497032D01*
X190388274Y-102497102D01*
X190411119Y-102492892D01*
X190415810Y-102491026D01*
X190420864Y-102491024D01*
X190443552Y-102486502D01*
X190448257Y-102484551D01*
X190453347Y-102484475D01*
X190475880Y-102479641D01*
X190480589Y-102477607D01*
X190485717Y-102477455D01*
X190508094Y-102472309D01*
X190512807Y-102470191D01*
X190517968Y-102469961D01*
X190540189Y-102464503D01*
X190544897Y-102462303D01*
X190550087Y-102461994D01*
X190572153Y-102456224D01*
X190576854Y-102453941D01*
X190582061Y-102453553D01*
X190603970Y-102447472D01*
X190608683Y-102445095D01*
X190613943Y-102444623D01*
X190635696Y-102438229D01*
X190640371Y-102435782D01*
X190645615Y-102435231D01*
X190667214Y-102428526D01*
X190671892Y-102425986D01*
X190677180Y-102425349D01*
X190698621Y-102418332D01*
X190703274Y-102415713D01*
X190708565Y-102414993D01*
X190729851Y-102407664D01*
X190734595Y-102404898D01*
X190740021Y-102404072D01*
X190761111Y-102396437D01*
X190765918Y-102393532D01*
X190771458Y-102392597D01*
X190792315Y-102384664D01*
X190797141Y-102381640D01*
X190802739Y-102380601D01*
X190823362Y-102372369D01*
X190828196Y-102369229D01*
X190833844Y-102368084D01*
X190854233Y-102359552D01*
X190859033Y-102356320D01*
X190864685Y-102355076D01*
X190884840Y-102346247D01*
X190889627Y-102342907D01*
X190895306Y-102341557D01*
X190915227Y-102332428D01*
X190920019Y-102328964D01*
X190925748Y-102327499D01*
X190945435Y-102318071D01*
X190950191Y-102314508D01*
X190955923Y-102312938D01*
X190975376Y-102303211D01*
X190980086Y-102299555D01*
X190985810Y-102297882D01*
X191005029Y-102287857D01*
X191009739Y-102284071D01*
X191015511Y-102282274D01*
X191034496Y-102271949D01*
X191039134Y-102268086D01*
X191044865Y-102266193D01*
X191063617Y-102255570D01*
X191068234Y-102251588D01*
X191073989Y-102249574D01*
X191092506Y-102238652D01*
X191097061Y-102234581D01*
X191102792Y-102232463D01*
X191121076Y-102221242D01*
X191125584Y-102217069D01*
X191131305Y-102214839D01*
X191149355Y-102203319D01*
X191153802Y-102199055D01*
X191159505Y-102196715D01*
X191177321Y-102184896D01*
X191181707Y-102180539D01*
X191187380Y-102178093D01*
X191204962Y-102165975D01*
X191209268Y-102161543D01*
X191214898Y-102158996D01*
X191232246Y-102146580D01*
X191236498Y-102142046D01*
X191242115Y-102139383D01*
X191259229Y-102126667D01*
X191263378Y-102122081D01*
X191268919Y-102119333D01*
X191285800Y-102106319D01*
X191289890Y-102101634D01*
X191295413Y-102098771D01*
X191312059Y-102085458D01*
X191316058Y-102080709D01*
X191321516Y-102077755D01*
X191337928Y-102064143D01*
X191341830Y-102059338D01*
X191347222Y-102056295D01*
X191363400Y-102042384D01*
X191367217Y-102037510D01*
X191372554Y-102034371D01*
X191388499Y-102020161D01*
X191392227Y-102015221D01*
X191397504Y-102011991D01*
X191413214Y-101997482D01*
X191416952Y-101992342D01*
X191422310Y-101988926D01*
X191437755Y-101974131D01*
X191441533Y-101968731D01*
X191447024Y-101965083D01*
X191462169Y-101950016D01*
X191465846Y-101944544D01*
X191471266Y-101940793D01*
X191486113Y-101925453D01*
X191489701Y-101919888D01*
X191495074Y-101916017D01*
X191509622Y-101900403D01*
X191513094Y-101894787D01*
X191518376Y-101890827D01*
X191532625Y-101874941D01*
X191536001Y-101869242D01*
X191541224Y-101865169D01*
X191555173Y-101849010D01*
X191558417Y-101843288D01*
X191563529Y-101839144D01*
X191577181Y-101822712D01*
X191580329Y-101816906D01*
X191585381Y-101812650D01*
X191598732Y-101795945D01*
X191601756Y-101790106D01*
X191606706Y-101785774D01*
X191619759Y-101768796D01*
X191622654Y-101762939D01*
X191627487Y-101758546D01*
X191640242Y-101741297D01*
X191643036Y-101735368D01*
X191647800Y-101730871D01*
X191660255Y-101713347D01*
X191662905Y-101707436D01*
X191667533Y-101702903D01*
X191679690Y-101685108D01*
X191682230Y-101679150D01*
X191686769Y-101674535D01*
X191698627Y-101656465D01*
X191701040Y-101650501D01*
X191705464Y-101645833D01*
X191717023Y-101627491D01*
X191719298Y-101621553D01*
X191723587Y-101616860D01*
X191734848Y-101598245D01*
X191737013Y-101592272D01*
X191741212Y-101587505D01*
X191752173Y-101568617D01*
X191754208Y-101562665D01*
X191758280Y-101557871D01*
X191768942Y-101538710D01*
X191770853Y-101532773D01*
X191774805Y-101527948D01*
X191785168Y-101508515D01*
X191786951Y-101502618D01*
X191790768Y-101497785D01*
X191800833Y-101478079D01*
X191802506Y-101472170D01*
X191806228Y-101467283D01*
X191815993Y-101447303D01*
X191817535Y-101441466D01*
X191821110Y-101436600D01*
X191830576Y-101416348D01*
X191832007Y-101410522D01*
X191835477Y-101405625D01*
X191844645Y-101385099D01*
X191845958Y-101379327D01*
X191849299Y-101374438D01*
X191858168Y-101353640D01*
X191859370Y-101347908D01*
X191862593Y-101343017D01*
X191871162Y-101321946D01*
X191872317Y-101315937D01*
X191875596Y-101310766D01*
X191883841Y-101289427D01*
X191884933Y-101283158D01*
X191888242Y-101277721D01*
X191896137Y-101256124D01*
X191897109Y-101249869D01*
X191900302Y-101244402D01*
X191907845Y-101222545D01*
X191908690Y-101216367D01*
X191911738Y-101210928D01*
X191918931Y-101188810D01*
X191919658Y-101182685D01*
X191922576Y-101177254D01*
X191929418Y-101154877D01*
X191930029Y-101148815D01*
X191932820Y-101143395D01*
X191939311Y-101120758D01*
X191939809Y-101114763D01*
X191942471Y-101109368D01*
X191948611Y-101086471D01*
X191949000Y-101080546D01*
X191951535Y-101075181D01*
X191957324Y-101052024D01*
X191957608Y-101046182D01*
X191960018Y-101040851D01*
X191965456Y-101017435D01*
X191965639Y-101011679D01*
X191967924Y-101006394D01*
X191973012Y-100982716D01*
X191973099Y-100977023D01*
X191975274Y-100971758D01*
X191980010Y-100947822D01*
X191980004Y-100942236D01*
X191982054Y-100937039D01*
X191986440Y-100912842D01*
X191986346Y-100907335D01*
X191988286Y-100902179D01*
X191992321Y-100877722D01*
X191992143Y-100872301D01*
X191993973Y-100867198D01*
X191997657Y-100842482D01*
X191997399Y-100837154D01*
X191999123Y-100832105D01*
X192002456Y-100807129D01*
X192002122Y-100801892D01*
X192003742Y-100796903D01*
X192006724Y-100771667D01*
X192006320Y-100766540D01*
X192007836Y-100761624D01*
X192010468Y-100736129D01*
X192009995Y-100731080D01*
X192011418Y-100726216D01*
X192013699Y-100700460D01*
X192013161Y-100695497D01*
X192014495Y-100690683D01*
X192016424Y-100664668D01*
X192015828Y-100659824D01*
X192017065Y-100655107D01*
X192018644Y-100628832D01*
X192017991Y-100624073D01*
X192019146Y-100619407D01*
X192020374Y-100592871D01*
X192019668Y-100588205D01*
X192020739Y-100583613D01*
X192021616Y-100556818D01*
X192020864Y-100552262D01*
X192021853Y-100547750D01*
X192022380Y-100520696D01*
X192021578Y-100516209D01*
X192022496Y-100511744D01*
X192022671Y-100484428D01*
X192022249Y-100482232D01*
X192022685Y-100480040D01*
X192022685Y-97000000D01*
X193315000Y-97000000D01*
X193315000Y-98000000D01*
X193367143Y-98262138D01*
X193515632Y-98484368D01*
X193539027Y-98500000D01*
X193515632Y-98515632D01*
X193367143Y-98737862D01*
X193315000Y-99000000D01*
X193315000Y-100000000D01*
X193367143Y-100262138D01*
X193515632Y-100484368D01*
X193539027Y-100500000D01*
X193515632Y-100515632D01*
X193367143Y-100737862D01*
X193315000Y-101000000D01*
X193315000Y-102000000D01*
X193367143Y-102262138D01*
X193515632Y-102484368D01*
X193737862Y-102632857D01*
X194000000Y-102685000D01*
X199000000Y-102685000D01*
X199262138Y-102632857D01*
X199484368Y-102484368D01*
X199632857Y-102262138D01*
X199685000Y-102000000D01*
X199685000Y-101000000D01*
X199632857Y-100737862D01*
X199484368Y-100515632D01*
X199460973Y-100500000D01*
X199484368Y-100484368D01*
X199632857Y-100262138D01*
X199685000Y-100000000D01*
X199685000Y-99000000D01*
X199632857Y-98737862D01*
X199484368Y-98515632D01*
X199460973Y-98500000D01*
X199484368Y-98484368D01*
X199632857Y-98262138D01*
X199685000Y-98000000D01*
X199685000Y-97000000D01*
X200315000Y-97000000D01*
X200315000Y-98000000D01*
X200367143Y-98262138D01*
X200515632Y-98484368D01*
X200539027Y-98500000D01*
X200515632Y-98515632D01*
X200367143Y-98737862D01*
X200315000Y-99000000D01*
X200315000Y-102000000D01*
X200367143Y-102262138D01*
X200515632Y-102484368D01*
X200737862Y-102632857D01*
X201000000Y-102685000D01*
X203000000Y-102685000D01*
X203262138Y-102632857D01*
X203484368Y-102484368D01*
X203632857Y-102262138D01*
X203685000Y-102000000D01*
X203685000Y-100685000D01*
X206000000Y-100685000D01*
X206262138Y-100632857D01*
X206484368Y-100484368D01*
X206632857Y-100262138D01*
X206685000Y-100000000D01*
X206685000Y-99000000D01*
X206632857Y-98737862D01*
X206484368Y-98515632D01*
X206460973Y-98500000D01*
X206484368Y-98484368D01*
X206632857Y-98262138D01*
X206639837Y-98227046D01*
X207707877Y-98227046D01*
X207707877Y-100502495D01*
X207708634Y-100506302D01*
X207707919Y-100510120D01*
X207708524Y-100564464D01*
X207710167Y-100572267D01*
X207708878Y-100580134D01*
X207710690Y-100633387D01*
X207712588Y-100641481D01*
X207711441Y-100649712D01*
X207714463Y-100701872D01*
X207716631Y-100710217D01*
X207715653Y-100718783D01*
X207719882Y-100769853D01*
X207722355Y-100778486D01*
X207721566Y-100787433D01*
X207727005Y-100837410D01*
X207729799Y-100846292D01*
X207729229Y-100855589D01*
X207735876Y-100904476D01*
X207739022Y-100913617D01*
X207738699Y-100923276D01*
X207746554Y-100971071D01*
X207750080Y-100980459D01*
X207750033Y-100990491D01*
X207759097Y-101037194D01*
X207763026Y-101046805D01*
X207763287Y-101057182D01*
X207773558Y-101102793D01*
X207777921Y-101112619D01*
X207778523Y-101123352D01*
X207790004Y-101167873D01*
X207794823Y-101177881D01*
X207795798Y-101188942D01*
X207808488Y-101232371D01*
X207813782Y-101242525D01*
X207815163Y-101253895D01*
X207829061Y-101296233D01*
X207834855Y-101306505D01*
X207836672Y-101318157D01*
X207851778Y-101359403D01*
X207858095Y-101369765D01*
X207860381Y-101381681D01*
X207876696Y-101421835D01*
X207883540Y-101432230D01*
X207886321Y-101444360D01*
X207903845Y-101483424D01*
X207911225Y-101493804D01*
X207914522Y-101506103D01*
X207933254Y-101544074D01*
X207941176Y-101554395D01*
X207945013Y-101566828D01*
X207964954Y-101603707D01*
X207973402Y-101613900D01*
X207977785Y-101626395D01*
X207998935Y-101662183D01*
X208007906Y-101672206D01*
X208012847Y-101684719D01*
X208035204Y-101719415D01*
X208044678Y-101729209D01*
X208050175Y-101741679D01*
X208073741Y-101775284D01*
X208083690Y-101784795D01*
X208089736Y-101797159D01*
X208114511Y-101829673D01*
X208124892Y-101838839D01*
X208131466Y-101851028D01*
X208157449Y-101882448D01*
X208168224Y-101891224D01*
X208175305Y-101903184D01*
X208202498Y-101933515D01*
X208213613Y-101941852D01*
X208221164Y-101953517D01*
X208249564Y-101982756D01*
X208260937Y-101990597D01*
X208268897Y-102001885D01*
X208298441Y-102029979D01*
X208310046Y-102037318D01*
X208318394Y-102048216D01*
X208349015Y-102075116D01*
X208360903Y-102081993D01*
X208369678Y-102092557D01*
X208401378Y-102118260D01*
X208413477Y-102124635D01*
X208422623Y-102134805D01*
X208455403Y-102159313D01*
X208467646Y-102165161D01*
X208477103Y-102174886D01*
X208510961Y-102198199D01*
X208523300Y-102203513D01*
X208533033Y-102212777D01*
X208567969Y-102234894D01*
X208580344Y-102239666D01*
X208590293Y-102248438D01*
X208626309Y-102269360D01*
X208638654Y-102273587D01*
X208648758Y-102281844D01*
X208685851Y-102301570D01*
X208698129Y-102305266D01*
X208708348Y-102313007D01*
X208746521Y-102331537D01*
X208758654Y-102334707D01*
X208768915Y-102341913D01*
X208808166Y-102359248D01*
X208820121Y-102361915D01*
X208830388Y-102368599D01*
X208870717Y-102384739D01*
X208882466Y-102386930D01*
X208892700Y-102393102D01*
X208934108Y-102408046D01*
X208945598Y-102409783D01*
X208955741Y-102415447D01*
X208998227Y-102429196D01*
X209009438Y-102430509D01*
X209019467Y-102435691D01*
X209063031Y-102448244D01*
X209073939Y-102449165D01*
X209083815Y-102453880D01*
X209128460Y-102465237D01*
X209139032Y-102465795D01*
X209148719Y-102470064D01*
X209194441Y-102480226D01*
X209204674Y-102480455D01*
X209214160Y-102484306D01*
X209260960Y-102493273D01*
X209270854Y-102493203D01*
X209280120Y-102496662D01*
X209328001Y-102504433D01*
X209337536Y-102504095D01*
X209346565Y-102507186D01*
X209395523Y-102513761D01*
X209404697Y-102513184D01*
X209413468Y-102515930D01*
X209463504Y-102521310D01*
X209472330Y-102520520D01*
X209480853Y-102522953D01*
X209531969Y-102527137D01*
X209540438Y-102526162D01*
X209548686Y-102528299D01*
X209600880Y-102531289D01*
X209609012Y-102530150D01*
X209617002Y-102532021D01*
X209670275Y-102533814D01*
X209678058Y-102532536D01*
X209685781Y-102534161D01*
X209740131Y-102534759D01*
X209743905Y-102534051D01*
X209747668Y-102534800D01*
X213392877Y-102534800D01*
X213655015Y-102482657D01*
X213877245Y-102334168D01*
X214025734Y-102111938D01*
X214077877Y-101849800D01*
X214077877Y-100539920D01*
X214025734Y-100277782D01*
X213877245Y-100055552D01*
X213655015Y-99907063D01*
X213392877Y-99854920D01*
X210657219Y-99854920D01*
X210657219Y-98852165D01*
X211143506Y-98852165D01*
X211143506Y-98923153D01*
X211195649Y-99185291D01*
X211344138Y-99407521D01*
X211566368Y-99556010D01*
X211828506Y-99608153D01*
X213392877Y-99608153D01*
X213655015Y-99556010D01*
X213877245Y-99407521D01*
X214025734Y-99185291D01*
X214077877Y-98923153D01*
X214077877Y-98227046D01*
X214077048Y-98222880D01*
X214077826Y-98218706D01*
X214077164Y-98164335D01*
X214075354Y-98155780D01*
X214076739Y-98147145D01*
X214074750Y-98093814D01*
X214072654Y-98085005D01*
X214073855Y-98076031D01*
X214070542Y-98023740D01*
X214068128Y-98014653D01*
X214069124Y-98005304D01*
X214068644Y-98000000D01*
X215315000Y-98000000D01*
X215315000Y-102000000D01*
X215367143Y-102262138D01*
X215515632Y-102484368D01*
X215737862Y-102632857D01*
X216000000Y-102685000D01*
X218000000Y-102685000D01*
X218262138Y-102632857D01*
X218484368Y-102484368D01*
X218500000Y-102460973D01*
X218515632Y-102484368D01*
X218737862Y-102632857D01*
X219000000Y-102685000D01*
X220000000Y-102685000D01*
X220066170Y-102671838D01*
X220133636Y-102671838D01*
X220516319Y-102595718D01*
X220763248Y-102493437D01*
X220763249Y-102493436D01*
X221087672Y-102276664D01*
X221276664Y-102087672D01*
X221493437Y-101763249D01*
X221547446Y-101632859D01*
X221595718Y-101516319D01*
X221671838Y-101133636D01*
X221671838Y-101066170D01*
X221685000Y-101000000D01*
X221685000Y-97000000D01*
X221655124Y-96849800D01*
X222640885Y-96849800D01*
X222640885Y-101849800D01*
X222693028Y-102111938D01*
X222841517Y-102334168D01*
X223063747Y-102482657D01*
X223325885Y-102534800D01*
X224897742Y-102534800D01*
X225159880Y-102482657D01*
X225382110Y-102334168D01*
X225530599Y-102111938D01*
X225582742Y-101849800D01*
X225582742Y-101848984D01*
X225593796Y-101860696D01*
X225597546Y-101863362D01*
X225600042Y-101867227D01*
X225617156Y-101884887D01*
X225621011Y-101887551D01*
X225623606Y-101891454D01*
X225640798Y-101908723D01*
X225644749Y-101911376D01*
X225647441Y-101915307D01*
X225664711Y-101932188D01*
X225668790Y-101934847D01*
X225671596Y-101938824D01*
X225688944Y-101955314D01*
X225693124Y-101957956D01*
X225696031Y-101961955D01*
X225713457Y-101978056D01*
X225717740Y-101980679D01*
X225720751Y-101984698D01*
X225738255Y-102000409D01*
X225742668Y-102003025D01*
X225745804Y-102007085D01*
X225763386Y-102022405D01*
X225767884Y-102024983D01*
X225771113Y-102029037D01*
X225788773Y-102043970D01*
X225793416Y-102046540D01*
X225796782Y-102050637D01*
X225814519Y-102065178D01*
X225818938Y-102067537D01*
X225822171Y-102071359D01*
X225839973Y-102085531D01*
X225844199Y-102087709D01*
X225847315Y-102091293D01*
X225865170Y-102105113D01*
X225869478Y-102107260D01*
X225872689Y-102110851D01*
X225890596Y-102124320D01*
X225895003Y-102126441D01*
X225898311Y-102130038D01*
X225916270Y-102143156D01*
X225920758Y-102145239D01*
X225924160Y-102148834D01*
X225942172Y-102161603D01*
X225946781Y-102163663D01*
X225950301Y-102167277D01*
X225968364Y-102179694D01*
X225973045Y-102181705D01*
X225976650Y-102185300D01*
X225994765Y-102197367D01*
X225999545Y-102199339D01*
X226003257Y-102202932D01*
X226021423Y-102214647D01*
X226026311Y-102216579D01*
X226030144Y-102220179D01*
X226048363Y-102231543D01*
X226053338Y-102233423D01*
X226057268Y-102237003D01*
X226075539Y-102248016D01*
X226080604Y-102249842D01*
X226084643Y-102253409D01*
X226102966Y-102264071D01*
X226108116Y-102265839D01*
X226112254Y-102269379D01*
X226130628Y-102279689D01*
X226135868Y-102281396D01*
X226140114Y-102284915D01*
X226158541Y-102294876D01*
X226163878Y-102296522D01*
X226168232Y-102300014D01*
X226186710Y-102309624D01*
X226192123Y-102311199D01*
X226196578Y-102314655D01*
X226215108Y-102323914D01*
X226220633Y-102325426D01*
X226225217Y-102328862D01*
X226243800Y-102337769D01*
X226249354Y-102339191D01*
X226253997Y-102342554D01*
X226272632Y-102351112D01*
X226278303Y-102352465D01*
X226283079Y-102355804D01*
X226301764Y-102364009D01*
X226307505Y-102365277D01*
X226312382Y-102368566D01*
X226331121Y-102376421D01*
X226336904Y-102377597D01*
X226341852Y-102380813D01*
X226360642Y-102388318D01*
X226366536Y-102389413D01*
X226371618Y-102392593D01*
X226390461Y-102399746D01*
X226396374Y-102400739D01*
X226401509Y-102403831D01*
X226420403Y-102410634D01*
X226426399Y-102411536D01*
X226431650Y-102414574D01*
X226450597Y-102421026D01*
X226456637Y-102421827D01*
X226461963Y-102424786D01*
X226480961Y-102430887D01*
X226486095Y-102431477D01*
X226490647Y-102433918D01*
X226509678Y-102439720D01*
X226513860Y-102440138D01*
X226517589Y-102442080D01*
X226536633Y-102447636D01*
X226540878Y-102448008D01*
X226544682Y-102449931D01*
X226563739Y-102455239D01*
X226567979Y-102455559D01*
X226571796Y-102457430D01*
X226590865Y-102462492D01*
X226595164Y-102462764D01*
X226599055Y-102464612D01*
X226618138Y-102469426D01*
X226622427Y-102469644D01*
X226626327Y-102471438D01*
X226645423Y-102476006D01*
X226649751Y-102476173D01*
X226653707Y-102477933D01*
X226672815Y-102482254D01*
X226677163Y-102482367D01*
X226681158Y-102484086D01*
X226700280Y-102488160D01*
X226704644Y-102488219D01*
X226708678Y-102489895D01*
X226727813Y-102493722D01*
X226732196Y-102493727D01*
X226736264Y-102495357D01*
X226755412Y-102498937D01*
X226759806Y-102498886D01*
X226763904Y-102500469D01*
X226783064Y-102503802D01*
X226787475Y-102503696D01*
X226791613Y-102505234D01*
X226810787Y-102508320D01*
X226815208Y-102508157D01*
X226819371Y-102509645D01*
X226838558Y-102512484D01*
X226842968Y-102512266D01*
X226847144Y-102513699D01*
X226866343Y-102516292D01*
X226870795Y-102516015D01*
X226875032Y-102517409D01*
X226894245Y-102519754D01*
X226898664Y-102519422D01*
X226902892Y-102520754D01*
X226922118Y-102522853D01*
X226926558Y-102522463D01*
X226930824Y-102523747D01*
X226950063Y-102525599D01*
X226954501Y-102525152D01*
X226958790Y-102526383D01*
X226978043Y-102527988D01*
X226982479Y-102527484D01*
X226986783Y-102528660D01*
X227006047Y-102530018D01*
X227010480Y-102529457D01*
X227014805Y-102530579D01*
X227034083Y-102531690D01*
X227038506Y-102531072D01*
X227042845Y-102532139D01*
X227062136Y-102533003D01*
X227066552Y-102532328D01*
X227070902Y-102533339D01*
X227090206Y-102533956D01*
X227094590Y-102533229D01*
X227098935Y-102534180D01*
X227118253Y-102534551D01*
X227122662Y-102533762D01*
X227127047Y-102534663D01*
X227146377Y-102534786D01*
X227148558Y-102534367D01*
X227150736Y-102534800D01*
X228625287Y-102534800D01*
X228887425Y-102482657D01*
X229109655Y-102334168D01*
X229258144Y-102111938D01*
X229310287Y-101849800D01*
X229310287Y-96849800D01*
X229258144Y-96587662D01*
X229109655Y-96365432D01*
X228887425Y-96216943D01*
X228625287Y-96164800D01*
X227053430Y-96164800D01*
X226791292Y-96216943D01*
X226569062Y-96365432D01*
X226420573Y-96587662D01*
X226368430Y-96849800D01*
X226368430Y-96852989D01*
X226365868Y-96850280D01*
X226362049Y-96847571D01*
X226359505Y-96843641D01*
X226342156Y-96825780D01*
X226338252Y-96823089D01*
X226335622Y-96819144D01*
X226318196Y-96801685D01*
X226314166Y-96798986D01*
X226311419Y-96794989D01*
X226293915Y-96777933D01*
X226289772Y-96775242D01*
X226286917Y-96771210D01*
X226269335Y-96754557D01*
X226265077Y-96751876D01*
X226262111Y-96747813D01*
X226244451Y-96731563D01*
X226240077Y-96728896D01*
X226236997Y-96724805D01*
X226219259Y-96708958D01*
X226214769Y-96706310D01*
X226211571Y-96702192D01*
X226193755Y-96686748D01*
X226189164Y-96684133D01*
X226185861Y-96680009D01*
X226167968Y-96664967D01*
X226163222Y-96662357D01*
X226159769Y-96658182D01*
X226141797Y-96643544D01*
X226136959Y-96640981D01*
X226133404Y-96636817D01*
X226115354Y-96622581D01*
X226110849Y-96620285D01*
X226107512Y-96616488D01*
X226089396Y-96602621D01*
X226085240Y-96600577D01*
X226082136Y-96597140D01*
X226063969Y-96583613D01*
X226059749Y-96581607D01*
X226056571Y-96578181D01*
X226038352Y-96564991D01*
X226034042Y-96563013D01*
X226030772Y-96559582D01*
X226012501Y-96546729D01*
X226008089Y-96544776D01*
X226004713Y-96541331D01*
X225986390Y-96528817D01*
X225981902Y-96526904D01*
X225978437Y-96523466D01*
X225960062Y-96511290D01*
X225955506Y-96509423D01*
X225951966Y-96506008D01*
X225933540Y-96494168D01*
X225928859Y-96492327D01*
X225925191Y-96488889D01*
X225906712Y-96477389D01*
X225901982Y-96475607D01*
X225898244Y-96472204D01*
X225879713Y-96461040D01*
X225874881Y-96459299D01*
X225871034Y-96455899D01*
X225852451Y-96445075D01*
X225847549Y-96443390D01*
X225843614Y-96440015D01*
X225824979Y-96429528D01*
X225819991Y-96427896D01*
X225815956Y-96424539D01*
X225797269Y-96414390D01*
X225792209Y-96412818D01*
X225788085Y-96409492D01*
X225769348Y-96399681D01*
X225764196Y-96398166D01*
X225759966Y-96394861D01*
X225741175Y-96385388D01*
X225735977Y-96383946D01*
X225731677Y-96380692D01*
X225712835Y-96371556D01*
X225707524Y-96370171D01*
X225703093Y-96366926D01*
X225684199Y-96358130D01*
X225678860Y-96356827D01*
X225674375Y-96353650D01*
X225655429Y-96345190D01*
X225649994Y-96343954D01*
X225645396Y-96340806D01*
X225626397Y-96332684D01*
X225620914Y-96331529D01*
X225616237Y-96328436D01*
X225597187Y-96320652D01*
X225591634Y-96319575D01*
X225586867Y-96316533D01*
X225567765Y-96309087D01*
X225562150Y-96308092D01*
X225557293Y-96305103D01*
X225538138Y-96297995D01*
X225532480Y-96297088D01*
X225527553Y-96294166D01*
X225508347Y-96287396D01*
X225502645Y-96286578D01*
X225497643Y-96283722D01*
X225478384Y-96277289D01*
X225472615Y-96276558D01*
X225467518Y-96273760D01*
X225448208Y-96267666D01*
X225443293Y-96267126D01*
X225438924Y-96264808D01*
X225419588Y-96259006D01*
X225415515Y-96258617D01*
X225411881Y-96256743D01*
X225392544Y-96251187D01*
X225388417Y-96250842D01*
X225384713Y-96248987D01*
X225365378Y-96243679D01*
X225361247Y-96243383D01*
X225357525Y-96241574D01*
X225338189Y-96236512D01*
X225333992Y-96236261D01*
X225330189Y-96234469D01*
X225310853Y-96229655D01*
X225306669Y-96229456D01*
X225302862Y-96227717D01*
X225283526Y-96223149D01*
X225279298Y-96222998D01*
X225275427Y-96221287D01*
X225256091Y-96216966D01*
X225251833Y-96216866D01*
X225247918Y-96215192D01*
X225228581Y-96211118D01*
X225224308Y-96211070D01*
X225220358Y-96209438D01*
X225201022Y-96205611D01*
X225196726Y-96205615D01*
X225192733Y-96204023D01*
X225173396Y-96200443D01*
X225169076Y-96200500D01*
X225165043Y-96198950D01*
X225145707Y-96195617D01*
X225141375Y-96195728D01*
X225137312Y-96194224D01*
X225117976Y-96191138D01*
X225113627Y-96191304D01*
X225109525Y-96189843D01*
X225090189Y-96187004D01*
X225085840Y-96187224D01*
X225081721Y-96185815D01*
X225062384Y-96183222D01*
X225057993Y-96183499D01*
X225053814Y-96182128D01*
X225034478Y-96179783D01*
X225030112Y-96180114D01*
X225025934Y-96178801D01*
X225006597Y-96176702D01*
X225002205Y-96177090D01*
X224997979Y-96175821D01*
X224978642Y-96173969D01*
X224974245Y-96174414D01*
X224969999Y-96173197D01*
X224950663Y-96171592D01*
X224946264Y-96172094D01*
X224941990Y-96170927D01*
X224922653Y-96169569D01*
X224918250Y-96170128D01*
X224913955Y-96169014D01*
X224894618Y-96167903D01*
X224890218Y-96168518D01*
X224885903Y-96167458D01*
X224866568Y-96166594D01*
X224862172Y-96167266D01*
X224857837Y-96166259D01*
X224838501Y-96165642D01*
X224834126Y-96166368D01*
X224829795Y-96165420D01*
X224810459Y-96165049D01*
X224806056Y-96165837D01*
X224801675Y-96164937D01*
X224782338Y-96164814D01*
X224780158Y-96165233D01*
X224777981Y-96164800D01*
X223325885Y-96164800D01*
X223063747Y-96216943D01*
X222841517Y-96365432D01*
X222693028Y-96587662D01*
X222640885Y-96849800D01*
X221655124Y-96849800D01*
X221632857Y-96737862D01*
X221484368Y-96515632D01*
X221262138Y-96367143D01*
X221000000Y-96315000D01*
X219000000Y-96315000D01*
X218737862Y-96367143D01*
X218515632Y-96515632D01*
X218500000Y-96539027D01*
X218484368Y-96515632D01*
X218262138Y-96367143D01*
X218000000Y-96315000D01*
X217000000Y-96315000D01*
X216933830Y-96328162D01*
X216483681Y-96404282D01*
X216359066Y-96455899D01*
X216236751Y-96506563D01*
X215912328Y-96723336D01*
X215723336Y-96912328D01*
X215506564Y-97236751D01*
X215506563Y-97236752D01*
X215404282Y-97483681D01*
X215328162Y-97866364D01*
X215328162Y-97933830D01*
X215315000Y-98000000D01*
X214068644Y-98000000D01*
X214064485Y-97954052D01*
X214061731Y-97944707D01*
X214062491Y-97934994D01*
X214056526Y-97884782D01*
X214053408Y-97875199D01*
X214053903Y-97865132D01*
X214046613Y-97815960D01*
X214043101Y-97806141D01*
X214043301Y-97795718D01*
X214034685Y-97747585D01*
X214030759Y-97737566D01*
X214030633Y-97726803D01*
X214020692Y-97679710D01*
X214016325Y-97669507D01*
X214015842Y-97658422D01*
X214004576Y-97612368D01*
X213999745Y-97602006D01*
X213998872Y-97590602D01*
X213986280Y-97545588D01*
X213980967Y-97535106D01*
X213979675Y-97523427D01*
X213965757Y-97479452D01*
X213959950Y-97468894D01*
X213958211Y-97456971D01*
X213942968Y-97414035D01*
X213936652Y-97403439D01*
X213934441Y-97391303D01*
X213917873Y-97349408D01*
X213911040Y-97338816D01*
X213908333Y-97326506D01*
X213890439Y-97285650D01*
X213883088Y-97275114D01*
X213879868Y-97262678D01*
X213860648Y-97222862D01*
X213852798Y-97212452D01*
X213849059Y-97199960D01*
X213828515Y-97161183D01*
X213820153Y-97150917D01*
X213815876Y-97138386D01*
X213794005Y-97100649D01*
X213785177Y-97090616D01*
X213780378Y-97078144D01*
X213757183Y-97041447D01*
X213747893Y-97031673D01*
X213742567Y-97019286D01*
X213718045Y-96983628D01*
X213708348Y-96974187D01*
X213702522Y-96961970D01*
X213676676Y-96927352D01*
X213666589Y-96918268D01*
X213660273Y-96906254D01*
X213633100Y-96872675D01*
X213622690Y-96864011D01*
X213615926Y-96852277D01*
X213587429Y-96819738D01*
X213576723Y-96811512D01*
X213569533Y-96800087D01*
X213539709Y-96768587D01*
X213528783Y-96760846D01*
X213521218Y-96749794D01*
X213490070Y-96719334D01*
X213479605Y-96712509D01*
X213472185Y-96702462D01*
X213439971Y-96673145D01*
X213429889Y-96667075D01*
X213422584Y-96657852D01*
X213389565Y-96629783D01*
X213379187Y-96624003D01*
X213371499Y-96614950D01*
X213337673Y-96588129D01*
X213327044Y-96582676D01*
X213319004Y-96573841D01*
X213284373Y-96548267D01*
X213273506Y-96543154D01*
X213265122Y-96534558D01*
X213229685Y-96510232D01*
X213218636Y-96505492D01*
X213209946Y-96497177D01*
X213173703Y-96474098D01*
X213162504Y-96469745D01*
X213153541Y-96461743D01*
X213116493Y-96439911D01*
X213105164Y-96435952D01*
X213095943Y-96428274D01*
X213058089Y-96407691D01*
X213046711Y-96404150D01*
X213037298Y-96396843D01*
X212998638Y-96377506D01*
X212987221Y-96374378D01*
X212977628Y-96367440D01*
X212938163Y-96349351D01*
X212926755Y-96346639D01*
X212917026Y-96340090D01*
X212876755Y-96323249D01*
X212865405Y-96320951D01*
X212855588Y-96314808D01*
X212814511Y-96299214D01*
X212803246Y-96297321D01*
X212793370Y-96291583D01*
X212751488Y-96277237D01*
X212740354Y-96275740D01*
X212730461Y-96270411D01*
X212687772Y-96257312D01*
X212676788Y-96256195D01*
X212666905Y-96251269D01*
X212623411Y-96239418D01*
X212612620Y-96238665D01*
X212602796Y-96234144D01*
X212558498Y-96223540D01*
X212547912Y-96223131D01*
X212538158Y-96218997D01*
X212493053Y-96209641D01*
X212482709Y-96209556D01*
X212473071Y-96205805D01*
X212427160Y-96197696D01*
X212417062Y-96197913D01*
X212407549Y-96194525D01*
X212360832Y-96187664D01*
X212351014Y-96188161D01*
X212341662Y-96185124D01*
X212294140Y-96179510D01*
X212284595Y-96180263D01*
X212275410Y-96177558D01*
X212227082Y-96173192D01*
X212217833Y-96174178D01*
X212208846Y-96171790D01*
X212159713Y-96168671D01*
X212150755Y-96169869D01*
X212141962Y-96167775D01*
X212092023Y-96165904D01*
X212083370Y-96167291D01*
X212074800Y-96165476D01*
X212024055Y-96164852D01*
X212019839Y-96165637D01*
X212015632Y-96164800D01*
X209770123Y-96164800D01*
X209765916Y-96165637D01*
X209761701Y-96164852D01*
X209710955Y-96165476D01*
X209702385Y-96167291D01*
X209693732Y-96165904D01*
X209643793Y-96167775D01*
X209635000Y-96169869D01*
X209626043Y-96168671D01*
X209576909Y-96171790D01*
X209567921Y-96174178D01*
X209558673Y-96173192D01*
X209510344Y-96177558D01*
X209501159Y-96180263D01*
X209491613Y-96179510D01*
X209444092Y-96185124D01*
X209434739Y-96188161D01*
X209424919Y-96187664D01*
X209378203Y-96194525D01*
X209368690Y-96197913D01*
X209358596Y-96197696D01*
X209312684Y-96205805D01*
X209303045Y-96209556D01*
X209292702Y-96209641D01*
X209247597Y-96218997D01*
X209237843Y-96223131D01*
X209227257Y-96223540D01*
X209182958Y-96234144D01*
X209173134Y-96238665D01*
X209162345Y-96239418D01*
X209118850Y-96251269D01*
X209108967Y-96256195D01*
X209097983Y-96257312D01*
X209055295Y-96270411D01*
X209045405Y-96275738D01*
X209034272Y-96277235D01*
X208992389Y-96291581D01*
X208982508Y-96297322D01*
X208971237Y-96299216D01*
X208930162Y-96314810D01*
X208920347Y-96320952D01*
X208909001Y-96323249D01*
X208868729Y-96340090D01*
X208859003Y-96346636D01*
X208847598Y-96349348D01*
X208808132Y-96367437D01*
X208798534Y-96374379D01*
X208787109Y-96377509D01*
X208748451Y-96396846D01*
X208739042Y-96404151D01*
X208727665Y-96407691D01*
X208689812Y-96428274D01*
X208680594Y-96435950D01*
X208669269Y-96439907D01*
X208632220Y-96461739D01*
X208623250Y-96469748D01*
X208612044Y-96474103D01*
X208575802Y-96497182D01*
X208567117Y-96505493D01*
X208556070Y-96510232D01*
X208520633Y-96534558D01*
X208512249Y-96543154D01*
X208501382Y-96548267D01*
X208466751Y-96573841D01*
X208458711Y-96582676D01*
X208448082Y-96588129D01*
X208414256Y-96614950D01*
X208406568Y-96624003D01*
X208396190Y-96629783D01*
X208363170Y-96657852D01*
X208355863Y-96667077D01*
X208345785Y-96673145D01*
X208313570Y-96702461D01*
X208306152Y-96712506D01*
X208295693Y-96719326D01*
X208264544Y-96749787D01*
X208256974Y-96760846D01*
X208246037Y-96768595D01*
X208216214Y-96800095D01*
X208209030Y-96811511D01*
X208198334Y-96819729D01*
X208169836Y-96852268D01*
X208163066Y-96864011D01*
X208152646Y-96872684D01*
X208125474Y-96906264D01*
X208119164Y-96918267D01*
X208109087Y-96927342D01*
X208083240Y-96961960D01*
X208077408Y-96974189D01*
X208067702Y-96983639D01*
X208043181Y-97019297D01*
X208037861Y-97031671D01*
X208028579Y-97041436D01*
X208005383Y-97078133D01*
X208000578Y-97090620D01*
X207991743Y-97100661D01*
X207969873Y-97138397D01*
X207965601Y-97150914D01*
X207957246Y-97161171D01*
X207936702Y-97199948D01*
X207932959Y-97212451D01*
X207925100Y-97222874D01*
X207905881Y-97262691D01*
X207902663Y-97275119D01*
X207895316Y-97285650D01*
X207877422Y-97326506D01*
X207874716Y-97338809D01*
X207867887Y-97349395D01*
X207851318Y-97391290D01*
X207849105Y-97403433D01*
X207842786Y-97414035D01*
X207827543Y-97456970D01*
X207825803Y-97468901D01*
X207819993Y-97479465D01*
X207806076Y-97523441D01*
X207804785Y-97535112D01*
X207799475Y-97545589D01*
X207786883Y-97590602D01*
X207786011Y-97601998D01*
X207781182Y-97612354D01*
X207769915Y-97658408D01*
X207769431Y-97669501D01*
X207765062Y-97679710D01*
X207755121Y-97726803D01*
X207754995Y-97737571D01*
X207751066Y-97747598D01*
X207742451Y-97795731D01*
X207742652Y-97806150D01*
X207739142Y-97815961D01*
X207731852Y-97865132D01*
X207732347Y-97875199D01*
X207729229Y-97884782D01*
X207723264Y-97934994D01*
X207724024Y-97944706D01*
X207721270Y-97954051D01*
X207716631Y-98005304D01*
X207717626Y-98014647D01*
X207715214Y-98023727D01*
X207711900Y-98076018D01*
X207713103Y-98085003D01*
X207711003Y-98093827D01*
X207709015Y-98147158D01*
X207710399Y-98155781D01*
X207708591Y-98164323D01*
X207707928Y-98218694D01*
X207708707Y-98222875D01*
X207707877Y-98227046D01*
X206639837Y-98227046D01*
X206685000Y-98000000D01*
X206685000Y-97000000D01*
X206632857Y-96737862D01*
X206484368Y-96515632D01*
X206262138Y-96367143D01*
X206000000Y-96315000D01*
X201000000Y-96315000D01*
X200737862Y-96367143D01*
X200515632Y-96515632D01*
X200367143Y-96737862D01*
X200315000Y-97000000D01*
X199685000Y-97000000D01*
X199632857Y-96737862D01*
X199484368Y-96515632D01*
X199262138Y-96367143D01*
X199000000Y-96315000D01*
X194000000Y-96315000D01*
X193737862Y-96367143D01*
X193515632Y-96515632D01*
X193367143Y-96737862D01*
X193315000Y-97000000D01*
X192022685Y-97000000D01*
X192022685Y-96849800D01*
X191970542Y-96587662D01*
X191822053Y-96365432D01*
X191599823Y-96216943D01*
X191337685Y-96164800D01*
X186330200Y-96164800D01*
X186068062Y-96216943D01*
X185845832Y-96365432D01*
X185697343Y-96587662D01*
X185645200Y-96849800D01*
X182549000Y-96849800D01*
X182549000Y-95172502D01*
X232347200Y-95136298D01*
X232347200Y-100418800D01*
G36*
X165722230Y-145811612D02*
X165703362Y-145434632D01*
X165544397Y-145050857D01*
X165302213Y-144981392D01*
X164501605Y-145782000D01*
X164515748Y-145796143D01*
X164336143Y-145975748D01*
X164322000Y-145961605D01*
X164307858Y-145975748D01*
X164128253Y-145796143D01*
X164142395Y-145782000D01*
X164128253Y-145767858D01*
X164307858Y-145588253D01*
X164322000Y-145602395D01*
X165122608Y-144801787D01*
X165053143Y-144559603D01*
X164912682Y-144509491D01*
X165112303Y-144427010D01*
X165505629Y-144034370D01*
X165718757Y-143521100D01*
X165719242Y-142965339D01*
X165716195Y-142957963D01*
X166905079Y-141769079D01*
X167075245Y-141514407D01*
X167135000Y-141214000D01*
X167135000Y-139858158D01*
X169429158Y-137564000D01*
X173969842Y-137564000D01*
X165722230Y-145811612D01*
X165722230Y-145811612D01*
G37*
X165722230Y-145811612D02*
X165703362Y-145434632D01*
X165544397Y-145050857D01*
X165302213Y-144981392D01*
X164501605Y-145782000D01*
X164515748Y-145796143D01*
X164336143Y-145975748D01*
X164322000Y-145961605D01*
X164307858Y-145975748D01*
X164128253Y-145796143D01*
X164142395Y-145782000D01*
X164128253Y-145767858D01*
X164307858Y-145588253D01*
X164322000Y-145602395D01*
X165122608Y-144801787D01*
X165053143Y-144559603D01*
X164912682Y-144509491D01*
X165112303Y-144427010D01*
X165505629Y-144034370D01*
X165718757Y-143521100D01*
X165719242Y-142965339D01*
X165716195Y-142957963D01*
X166905079Y-141769079D01*
X167075245Y-141514407D01*
X167135000Y-141214000D01*
X167135000Y-139858158D01*
X169429158Y-137564000D01*
X173969842Y-137564000D01*
X165722230Y-145811612D01*
M02*
