%FSLAX45Y45*%
G04 Gerber Fmt 4.5, Leading zero omitted, Abs format (unit mm)*
G04 Created by KiCad (PCBNEW 4.0.7) date Monday, July 02, 2018 'PMt' 09:22:09 PM*
%MOMM*%
%LPD*%
G01*
G04 APERTURE LIST*
%ADD10C,0.127000*%
%ADD11C,0.100000*%
%ADD12C,0.200000*%
%ADD13C,0.300000*%
G04 APERTURE END LIST*
D10*
D11*
X16250000Y-17400000D02*
X16238220Y-17345780D01*
X24100000Y-17900000D02*
X24089320Y-17346980D01*
X20150000Y-17900000D02*
X24100000Y-17900000D01*
X20050000Y-17850000D02*
X20150000Y-17900000D01*
X19950000Y-17800000D02*
X20050000Y-17850000D01*
X19850000Y-17750000D02*
X19950000Y-17800000D01*
X19800000Y-17700000D02*
X19850000Y-17750000D01*
X19800000Y-17050000D02*
X19800000Y-17700000D01*
X19850000Y-16950000D02*
X19800000Y-17050000D01*
X19900000Y-16900000D02*
X19850000Y-16950000D01*
X23150000Y-16900000D02*
X19900000Y-16900000D01*
X23200000Y-16850000D02*
X23150000Y-16900000D01*
X23200000Y-16800000D02*
X23200000Y-16850000D01*
X23200000Y-16750000D02*
X23200000Y-16800000D01*
X23150000Y-16700000D02*
X23200000Y-16750000D01*
X19600000Y-16700000D02*
X23150000Y-16700000D01*
X19150000Y-17400000D02*
X19600000Y-16700000D01*
X16250000Y-17400000D02*
X19150000Y-17400000D01*
X22950000Y-10850000D02*
X22950000Y-10750000D01*
X22950000Y-10750000D02*
X22950000Y-10650000D01*
X22950000Y-10900000D02*
X22950000Y-10850000D01*
X22700000Y-10800000D02*
X22700000Y-10750000D01*
X22600000Y-10900000D02*
X22600000Y-10850000D01*
X22350000Y-10900000D02*
X22350000Y-10850000D01*
X22700000Y-10500000D02*
X22700000Y-10600000D01*
X22600000Y-10500000D02*
G75*
G03X22500000Y-10400000I-100000J0D01*
G01*
X22600000Y-10700000D02*
X22600000Y-10500000D01*
X22350000Y-10400000D02*
X22500000Y-10400000D01*
X22350000Y-10500000D02*
X22350000Y-10400000D01*
X22500000Y-10500000D02*
X22350000Y-10500000D01*
X22500000Y-10600000D02*
X22500000Y-10500000D01*
X22450000Y-10600000D02*
X22500000Y-10600000D01*
X22450000Y-10600000D02*
G75*
G03X22350000Y-10700000I0J-100000D01*
G01*
X22350000Y-10700000D02*
X22600000Y-10700000D01*
X22350000Y-10800000D02*
X22350000Y-10850000D01*
X22600000Y-10800000D02*
X22350000Y-10800000D01*
X22600000Y-10850000D02*
X22600000Y-10800000D01*
X22350000Y-10900000D02*
X22600000Y-10900000D01*
X22800000Y-10600000D02*
X22800000Y-10500000D01*
X22900000Y-10600000D02*
X22800000Y-10600000D01*
X22950000Y-10650000D02*
G75*
G03X22900000Y-10600000I-50000J0D01*
G01*
X22950000Y-10500000D02*
X22800000Y-10500000D01*
X22950000Y-10400000D02*
X22950000Y-10500000D01*
X22800000Y-10400000D02*
X22950000Y-10400000D01*
X22800000Y-10400000D02*
G75*
G03X22700000Y-10500000I0J-100000D01*
G01*
X22700000Y-10650000D02*
X22700000Y-10600000D01*
X22800000Y-10900000D02*
X22950000Y-10900000D01*
X22700000Y-10800000D02*
G75*
G03X22800000Y-10900000I100000J0D01*
G01*
X22700000Y-10750000D02*
X22700000Y-10650000D01*
X21700000Y-9700000D02*
G75*
G03X21600000Y-9800000I0J-100000D01*
G01*
X21700000Y-9700000D02*
X21800000Y-9700000D01*
X21600000Y-10200000D02*
X21600000Y-9800000D01*
X21800000Y-10050000D02*
X21800000Y-10200000D01*
X21750000Y-9850000D02*
G75*
G03X21800000Y-9800000I0J50000D01*
G01*
X21750000Y-10050000D02*
X21750000Y-9850000D01*
X21800000Y-10050000D02*
X21750000Y-10050000D01*
X21800000Y-10200000D02*
X21600000Y-10200000D01*
X21900000Y-10050000D02*
G75*
G03X21950000Y-10000000I0J50000D01*
G01*
X21950000Y-10000000D02*
X21950000Y-9800000D01*
X21900000Y-9800000D02*
X21950000Y-9800000D01*
X21900000Y-10200000D02*
X21900000Y-10050000D01*
X22000000Y-10200000D02*
X21900000Y-10200000D01*
X22000000Y-10200000D02*
G75*
G03X22100000Y-10100000I0J100000D01*
G01*
X22100000Y-9700000D02*
X22100000Y-10100000D01*
X21800000Y-9700000D02*
X21800000Y-9800000D01*
X21900000Y-9700000D02*
X21900000Y-9800000D01*
X22100000Y-9700000D02*
X21900000Y-9700000D01*
X20600000Y-10000000D02*
X20300000Y-10000000D01*
X20600000Y-9900000D02*
X20600000Y-10000000D01*
X20300000Y-10200000D02*
X20300000Y-10000000D01*
X20100000Y-10200000D02*
X20300000Y-10200000D01*
X20100000Y-9900000D02*
X20100000Y-10200000D01*
X20100000Y-9900000D02*
X20600000Y-9900000D01*
X20100000Y-9800000D02*
X20100000Y-9700000D01*
X20600000Y-9800000D02*
X20100000Y-9800000D01*
X20600000Y-9700000D02*
X20600000Y-9800000D01*
X20100000Y-9700000D02*
X20600000Y-9700000D01*
X19400000Y-10200000D02*
X19400000Y-10100000D01*
X19900000Y-10200000D02*
X19400000Y-10200000D01*
X19900000Y-10100000D02*
X19900000Y-10200000D01*
X19400000Y-10100000D02*
X19900000Y-10100000D01*
X19400000Y-9800000D02*
X19900000Y-9800000D01*
X19400000Y-9700000D02*
X19400000Y-9800000D01*
X19900000Y-9700000D02*
X19400000Y-9700000D01*
X19900000Y-9800000D02*
X19900000Y-9700000D01*
X19800000Y-10000000D02*
X19900000Y-10000000D01*
X19800000Y-9900000D02*
X19900000Y-9900000D01*
X19400000Y-9900000D02*
X19400000Y-10000000D01*
X19800000Y-9900000D02*
X19400000Y-9900000D01*
X19900000Y-10000000D02*
X19900000Y-9900000D01*
X19400000Y-10000000D02*
X19800000Y-10000000D01*
X18924000Y-10185000D02*
X18995000Y-10185000D01*
X18925000Y-10054000D02*
X18924000Y-10185000D01*
X18186400Y-10833100D02*
X18186400Y-9448800D01*
X22862529Y-9684980D02*
X22705343Y-9684980D01*
X22862529Y-10184980D02*
X22862529Y-9684980D01*
X22715074Y-10184980D02*
X22862529Y-10184980D01*
X22713141Y-10184968D02*
X22715074Y-10184980D01*
X22711209Y-10184931D02*
X22713141Y-10184968D01*
X22709278Y-10184869D02*
X22711209Y-10184931D01*
X22707349Y-10184783D02*
X22709278Y-10184869D01*
X22705422Y-10184671D02*
X22707349Y-10184783D01*
X22703495Y-10184536D02*
X22705422Y-10184671D01*
X22701570Y-10184375D02*
X22703495Y-10184536D01*
X22699646Y-10184190D02*
X22701570Y-10184375D01*
X22697723Y-10183980D02*
X22699646Y-10184190D01*
X22695802Y-10183746D02*
X22697723Y-10183980D01*
X22693882Y-10183486D02*
X22695802Y-10183746D01*
X22691963Y-10183202D02*
X22693882Y-10183486D01*
X22690046Y-10182894D02*
X22691963Y-10183202D01*
X22688130Y-10182560D02*
X22690046Y-10182894D01*
X22686215Y-10182202D02*
X22688130Y-10182560D01*
X22684302Y-10181820D02*
X22686215Y-10182202D01*
X22682390Y-10181412D02*
X22684302Y-10181820D01*
X22680479Y-10180980D02*
X22682390Y-10181412D01*
X22678569Y-10180523D02*
X22680479Y-10180980D01*
X22676661Y-10180042D02*
X22678569Y-10180523D01*
X22674754Y-10179536D02*
X22676661Y-10180042D01*
X22672848Y-10179005D02*
X22674754Y-10179536D01*
X22670944Y-10178449D02*
X22672848Y-10179005D01*
X22669041Y-10177869D02*
X22670944Y-10178449D01*
X22667141Y-10177259D02*
X22669041Y-10177869D01*
X22665246Y-10176614D02*
X22667141Y-10177259D01*
X22663357Y-10175934D02*
X22665246Y-10176614D01*
X22661472Y-10175218D02*
X22663357Y-10175934D01*
X22659593Y-10174468D02*
X22661472Y-10175218D01*
X22657719Y-10173682D02*
X22659593Y-10174468D01*
X22655851Y-10172862D02*
X22657719Y-10173682D01*
X22653987Y-10172006D02*
X22655851Y-10172862D01*
X22652129Y-10171115D02*
X22653987Y-10172006D01*
X22650276Y-10170189D02*
X22652129Y-10171115D01*
X22648428Y-10169228D02*
X22650276Y-10170189D01*
X22646585Y-10168232D02*
X22648428Y-10169228D01*
X22644748Y-10167201D02*
X22646585Y-10168232D01*
X22642916Y-10166135D02*
X22644748Y-10167201D01*
X22641089Y-10165034D02*
X22642916Y-10166135D01*
X22639267Y-10163897D02*
X22641089Y-10165034D01*
X22637450Y-10162726D02*
X22639267Y-10163897D01*
X22635639Y-10161519D02*
X22637450Y-10162726D01*
X22633832Y-10160278D02*
X22635639Y-10161519D01*
X22632031Y-10159001D02*
X22633832Y-10160278D01*
X22630235Y-10157689D02*
X22632031Y-10159001D01*
X22628445Y-10156342D02*
X22630235Y-10157689D01*
X22626659Y-10154960D02*
X22628445Y-10156342D01*
X22624879Y-10153543D02*
X22626659Y-10154960D01*
X22623105Y-10152089D02*
X22624879Y-10153543D01*
X22621339Y-10150596D02*
X22623105Y-10152089D01*
X22619581Y-10149064D02*
X22621339Y-10150596D01*
X22617831Y-10147493D02*
X22619581Y-10149064D01*
X22616088Y-10145882D02*
X22617831Y-10147493D01*
X22614353Y-10144233D02*
X22616088Y-10145882D01*
X22612626Y-10142545D02*
X22614353Y-10144233D01*
X22610907Y-10140818D02*
X22612626Y-10142545D01*
X22609195Y-10139052D02*
X22610907Y-10140818D01*
X22607492Y-10137247D02*
X22609195Y-10139052D01*
X22605796Y-10135403D02*
X22607492Y-10137247D01*
X22604108Y-10133520D02*
X22605796Y-10135403D01*
X22602428Y-10131599D02*
X22604108Y-10133520D01*
X22600755Y-10129638D02*
X22602428Y-10131599D01*
X22599091Y-10127638D02*
X22600755Y-10129638D01*
X22597434Y-10125599D02*
X22599091Y-10127638D01*
X22595785Y-10123521D02*
X22597434Y-10125599D01*
X22594144Y-10121404D02*
X22595785Y-10123521D01*
X22592510Y-10119248D02*
X22594144Y-10121404D01*
X22590884Y-10117053D02*
X22592510Y-10119248D01*
X22589267Y-10114820D02*
X22590884Y-10117053D01*
X22587656Y-10112547D02*
X22589267Y-10114820D01*
X22586054Y-10110235D02*
X22587656Y-10112547D01*
X22584460Y-10107884D02*
X22586054Y-10110235D01*
X22582875Y-10105491D02*
X22584460Y-10107884D01*
X22581302Y-10103050D02*
X22582875Y-10105491D01*
X22579741Y-10100563D02*
X22581302Y-10103050D01*
X22578191Y-10098029D02*
X22579741Y-10100563D01*
X22576653Y-10095448D02*
X22578191Y-10098029D01*
X22575127Y-10092821D02*
X22576653Y-10095448D01*
X22573612Y-10090146D02*
X22575127Y-10092821D01*
X22572109Y-10087425D02*
X22573612Y-10090146D01*
X22570618Y-10084657D02*
X22572109Y-10087425D01*
X22569139Y-10081843D02*
X22570618Y-10084657D01*
X22567671Y-10078981D02*
X22569139Y-10081843D01*
X22566215Y-10076073D02*
X22567671Y-10078981D01*
X22564771Y-10073118D02*
X22566215Y-10076073D01*
X22563338Y-10070116D02*
X22564771Y-10073118D01*
X22561917Y-10067067D02*
X22563338Y-10070116D01*
X22560508Y-10063972D02*
X22561917Y-10067067D01*
X22559110Y-10060830D02*
X22560508Y-10063972D01*
X22557724Y-10057641D02*
X22559110Y-10060830D01*
X22556350Y-10054405D02*
X22557724Y-10057641D01*
X22554987Y-10051123D02*
X22556350Y-10054405D01*
X22553637Y-10047793D02*
X22554987Y-10051123D01*
X22552298Y-10044417D02*
X22553637Y-10047793D01*
X22550970Y-10040995D02*
X22552298Y-10044417D01*
X22549654Y-10037525D02*
X22550970Y-10040995D01*
X22489774Y-9816717D02*
X22549654Y-10037525D01*
X22489774Y-10184980D02*
X22489774Y-9816717D01*
X22332589Y-10184980D02*
X22489774Y-10184980D01*
X22332589Y-9684980D02*
X22332589Y-10184980D01*
X22477798Y-9684980D02*
X22332589Y-9684980D01*
X22479732Y-9684992D02*
X22477798Y-9684980D01*
X22481665Y-9685029D02*
X22479732Y-9684992D01*
X22483599Y-9685091D02*
X22481665Y-9685029D01*
X22485533Y-9685178D02*
X22483599Y-9685091D01*
X22487466Y-9685289D02*
X22485533Y-9685178D01*
X22489400Y-9685424D02*
X22487466Y-9685289D01*
X22491333Y-9685585D02*
X22489400Y-9685424D01*
X22493267Y-9685770D02*
X22491333Y-9685585D01*
X22495201Y-9685980D02*
X22493267Y-9685770D01*
X22497134Y-9686215D02*
X22495201Y-9685980D01*
X22499068Y-9686474D02*
X22497134Y-9686215D01*
X22501002Y-9686758D02*
X22499068Y-9686474D01*
X22502935Y-9687066D02*
X22501002Y-9686758D01*
X22504869Y-9687400D02*
X22502935Y-9687066D01*
X22506803Y-9687758D02*
X22504869Y-9687400D01*
X22508736Y-9688140D02*
X22506803Y-9687758D01*
X22510670Y-9688548D02*
X22508736Y-9688140D01*
X22512603Y-9688980D02*
X22510670Y-9688548D01*
X22514537Y-9689437D02*
X22512603Y-9688980D01*
X22516471Y-9689918D02*
X22514537Y-9689437D01*
X22518404Y-9690424D02*
X22516471Y-9689918D01*
X22520338Y-9690955D02*
X22518404Y-9690424D01*
X22522272Y-9691511D02*
X22520338Y-9690955D01*
X22524205Y-9692091D02*
X22522272Y-9691511D01*
X22526136Y-9692700D02*
X22524205Y-9692091D01*
X22528062Y-9693344D02*
X22526136Y-9692700D01*
X22529983Y-9694021D02*
X22528062Y-9693344D01*
X22531898Y-9694731D02*
X22529983Y-9694021D01*
X22533808Y-9695476D02*
X22531898Y-9694731D01*
X22535713Y-9696254D02*
X22533808Y-9695476D01*
X22537613Y-9697067D02*
X22535713Y-9696254D01*
X22539508Y-9697913D02*
X22537613Y-9697067D01*
X22541397Y-9698792D02*
X22539508Y-9697913D01*
X22543282Y-9699706D02*
X22541397Y-9698792D01*
X22545161Y-9700653D02*
X22543282Y-9699706D01*
X22547035Y-9701634D02*
X22545161Y-9700653D01*
X22548903Y-9702649D02*
X22547035Y-9701634D01*
X22550767Y-9703698D02*
X22548903Y-9702649D01*
X22552625Y-9704780D02*
X22550767Y-9703698D01*
X22554478Y-9705897D02*
X22552625Y-9704780D01*
X22556326Y-9707047D02*
X22554478Y-9705897D01*
X22558169Y-9708230D02*
X22556326Y-9707047D01*
X22560006Y-9709448D02*
X22558169Y-9708230D01*
X22561838Y-9710699D02*
X22560006Y-9709448D01*
X22563665Y-9711985D02*
X22561838Y-9710699D01*
X22565487Y-9713304D02*
X22563665Y-9711985D01*
X22567304Y-9714656D02*
X22565487Y-9713304D01*
X22569115Y-9716043D02*
X22567304Y-9714656D01*
X22570920Y-9717467D02*
X22569115Y-9716043D01*
X22572718Y-9718930D02*
X22570920Y-9717467D01*
X22574507Y-9720435D02*
X22572718Y-9718930D01*
X22576289Y-9721979D02*
X22574507Y-9720435D01*
X22578062Y-9723564D02*
X22576289Y-9721979D01*
X22579828Y-9725189D02*
X22578062Y-9723564D01*
X22581587Y-9726854D02*
X22579828Y-9725189D01*
X22583337Y-9728560D02*
X22581587Y-9726854D01*
X22585080Y-9730305D02*
X22583337Y-9728560D01*
X22586814Y-9732092D02*
X22585080Y-9730305D01*
X22588541Y-9733918D02*
X22586814Y-9732092D01*
X22590261Y-9735785D02*
X22588541Y-9733918D01*
X22591972Y-9737692D02*
X22590261Y-9735785D01*
X22593676Y-9739639D02*
X22591972Y-9737692D01*
X22595372Y-9741627D02*
X22593676Y-9739639D01*
X22597060Y-9743654D02*
X22595372Y-9741627D01*
X22598740Y-9745722D02*
X22597060Y-9743654D01*
X22600412Y-9747831D02*
X22598740Y-9745722D01*
X22602077Y-9749980D02*
X22600412Y-9747831D01*
X22603734Y-9752169D02*
X22602077Y-9749980D01*
X22605383Y-9754398D02*
X22603734Y-9752169D01*
X22607024Y-9756667D02*
X22605383Y-9754398D01*
X22608657Y-9758977D02*
X22607024Y-9756667D01*
X22610283Y-9761327D02*
X22608657Y-9758977D01*
X22611898Y-9763722D02*
X22610283Y-9761327D01*
X22613501Y-9766167D02*
X22611898Y-9763722D01*
X22615090Y-9768660D02*
X22613501Y-9766167D01*
X22616666Y-9771203D02*
X22615090Y-9768660D01*
X22618229Y-9773796D02*
X22616666Y-9771203D01*
X22619780Y-9776438D02*
X22618229Y-9773796D01*
X22621317Y-9779129D02*
X22619780Y-9776438D01*
X22622841Y-9781870D02*
X22621317Y-9779129D01*
X22624353Y-9784660D02*
X22622841Y-9781870D01*
X22625851Y-9787499D02*
X22624353Y-9784660D01*
X22627336Y-9790388D02*
X22625851Y-9787499D01*
X22628809Y-9793326D02*
X22627336Y-9790388D01*
X22630268Y-9796313D02*
X22628809Y-9793326D01*
X22631714Y-9799350D02*
X22630268Y-9796313D01*
X22633148Y-9802437D02*
X22631714Y-9799350D01*
X22634568Y-9805572D02*
X22633148Y-9802437D01*
X22635975Y-9808757D02*
X22634568Y-9805572D01*
X22637370Y-9811992D02*
X22635975Y-9808757D01*
X22638751Y-9815275D02*
X22637370Y-9811992D01*
X22640119Y-9818609D02*
X22638751Y-9815275D01*
X22641475Y-9821991D02*
X22640119Y-9818609D01*
X22642817Y-9825423D02*
X22641475Y-9821991D01*
X22644146Y-9828904D02*
X22642817Y-9825423D01*
X22645463Y-9832435D02*
X22644146Y-9828904D01*
X22705343Y-10053244D02*
X22645463Y-9832435D01*
X22705343Y-9684980D02*
X22705343Y-10053244D01*
X20971938Y-9685042D02*
X20977012Y-9684980D01*
X20966944Y-9685230D02*
X20971938Y-9685042D01*
X20962031Y-9685541D02*
X20966944Y-9685230D01*
X20957198Y-9685978D02*
X20962031Y-9685541D01*
X20952446Y-9686539D02*
X20957198Y-9685978D01*
X20947774Y-9687226D02*
X20952446Y-9686539D01*
X20943183Y-9688036D02*
X20947774Y-9687226D01*
X20938672Y-9688972D02*
X20943183Y-9688036D01*
X20934242Y-9690032D02*
X20938672Y-9688972D01*
X20929893Y-9691218D02*
X20934242Y-9690032D01*
X20925624Y-9692527D02*
X20929893Y-9691218D01*
X20921436Y-9693962D02*
X20925624Y-9692527D01*
X20917328Y-9695521D02*
X20921436Y-9693962D01*
X20913301Y-9697206D02*
X20917328Y-9695521D01*
X20909355Y-9699014D02*
X20913301Y-9697206D01*
X20905489Y-9700948D02*
X20909355Y-9699014D01*
X20901703Y-9703006D02*
X20905489Y-9700948D01*
X20897998Y-9705190D02*
X20901703Y-9703006D01*
X20894374Y-9707498D02*
X20897998Y-9705190D01*
X20890831Y-9709930D02*
X20894374Y-9707498D01*
X20887367Y-9712488D02*
X20890831Y-9709930D01*
X20883985Y-9715170D02*
X20887367Y-9712488D01*
X20880683Y-9717977D02*
X20883985Y-9715170D01*
X20877461Y-9720908D02*
X20880683Y-9717977D01*
X20874347Y-9723954D02*
X20877461Y-9720908D01*
X20871364Y-9727104D02*
X20874347Y-9723954D01*
X20868514Y-9730358D02*
X20871364Y-9727104D01*
X20865797Y-9733716D02*
X20868514Y-9730358D01*
X20863213Y-9737178D02*
X20865797Y-9733716D01*
X20860760Y-9740744D02*
X20863213Y-9737178D01*
X20858441Y-9744413D02*
X20860760Y-9740744D01*
X20856254Y-9748187D02*
X20858441Y-9744413D01*
X20854199Y-9752065D02*
X20856254Y-9748187D01*
X20852277Y-9756046D02*
X20854199Y-9752065D01*
X20850488Y-9760132D02*
X20852277Y-9756046D01*
X20848831Y-9764321D02*
X20850488Y-9760132D01*
X20847307Y-9768615D02*
X20848831Y-9764321D01*
X20845915Y-9773012D02*
X20847307Y-9768615D01*
X20844656Y-9777514D02*
X20845915Y-9773012D01*
X20843529Y-9782119D02*
X20844656Y-9777514D01*
X20842535Y-9786828D02*
X20843529Y-9782119D01*
X20841674Y-9791642D02*
X20842535Y-9786828D01*
X20840945Y-9796559D02*
X20841674Y-9791642D01*
X20840348Y-9801580D02*
X20840945Y-9796559D01*
X20839884Y-9806705D02*
X20840348Y-9801580D01*
X20839553Y-9811934D02*
X20839884Y-9806705D01*
X20839354Y-9817268D02*
X20839553Y-9811934D01*
X20839288Y-9822705D02*
X20839354Y-9817268D01*
X20839288Y-10050250D02*
X20839288Y-9822705D01*
X20839348Y-10055684D02*
X20839288Y-10050250D01*
X20839529Y-10061009D02*
X20839348Y-10055684D01*
X20839832Y-10066225D02*
X20839529Y-10061009D01*
X20840255Y-10071332D02*
X20839832Y-10066225D01*
X20840798Y-10076330D02*
X20840255Y-10071332D01*
X20841463Y-10081219D02*
X20840798Y-10076330D01*
X20842249Y-10085998D02*
X20841463Y-10081219D01*
X20843155Y-10090669D02*
X20842249Y-10085998D01*
X20844182Y-10095230D02*
X20843155Y-10090669D01*
X20845330Y-10099682D02*
X20844182Y-10095230D01*
X20846599Y-10104025D02*
X20845330Y-10099682D01*
X20847989Y-10108258D02*
X20846599Y-10104025D01*
X20849500Y-10112383D02*
X20847989Y-10108258D01*
X20851131Y-10116398D02*
X20849500Y-10112383D01*
X20852884Y-10120305D02*
X20851131Y-10116398D01*
X20854757Y-10124102D02*
X20852884Y-10120305D01*
X20856751Y-10127790D02*
X20854757Y-10124102D01*
X20858866Y-10131369D02*
X20856751Y-10127790D01*
X20861102Y-10134838D02*
X20858866Y-10131369D01*
X20863458Y-10138199D02*
X20861102Y-10134838D01*
X20865936Y-10141450D02*
X20863458Y-10138199D01*
X20868534Y-10144592D02*
X20865936Y-10141450D01*
X20871253Y-10147625D02*
X20868534Y-10144592D01*
X20874093Y-10150549D02*
X20871253Y-10147625D01*
X20877048Y-10153358D02*
X20874093Y-10150549D01*
X20880110Y-10156048D02*
X20877048Y-10153358D01*
X20883280Y-10158619D02*
X20880110Y-10156048D01*
X20886558Y-10161070D02*
X20883280Y-10158619D01*
X20889944Y-10163401D02*
X20886558Y-10161070D01*
X20893437Y-10165613D02*
X20889944Y-10163401D01*
X20897039Y-10167705D02*
X20893437Y-10165613D01*
X20900748Y-10169677D02*
X20897039Y-10167705D01*
X20904565Y-10171530D02*
X20900748Y-10169677D01*
X20908491Y-10173264D02*
X20904565Y-10171530D01*
X20912523Y-10174878D02*
X20908491Y-10173264D01*
X20916664Y-10176372D02*
X20912523Y-10174878D01*
X20920913Y-10177747D02*
X20916664Y-10176372D01*
X20925269Y-10179002D02*
X20920913Y-10177747D01*
X20929734Y-10180138D02*
X20925269Y-10179002D01*
X20934306Y-10181154D02*
X20929734Y-10180138D01*
X20938986Y-10182051D02*
X20934306Y-10181154D01*
X20943774Y-10182828D02*
X20938986Y-10182051D01*
X20948670Y-10183486D02*
X20943774Y-10182828D01*
X20953674Y-10184024D02*
X20948670Y-10183486D01*
X20958785Y-10184442D02*
X20953674Y-10184024D01*
X20964004Y-10184741D02*
X20958785Y-10184442D01*
X20969332Y-10184920D02*
X20964004Y-10184741D01*
X20974767Y-10184980D02*
X20969332Y-10184920D01*
X21339288Y-10184980D02*
X20974767Y-10184980D01*
X21339288Y-10053992D02*
X21339288Y-10184980D01*
X21049617Y-10053992D02*
X21339288Y-10053992D01*
X21045342Y-10053898D02*
X21049617Y-10053992D01*
X21041248Y-10053618D02*
X21045342Y-10053898D01*
X21037337Y-10053150D02*
X21041248Y-10053618D01*
X21033607Y-10052495D02*
X21037337Y-10053150D01*
X21030060Y-10051653D02*
X21033607Y-10052495D01*
X21026694Y-10050624D02*
X21030060Y-10051653D01*
X21023510Y-10049407D02*
X21026694Y-10050624D01*
X21020509Y-10048004D02*
X21023510Y-10049407D01*
X21017689Y-10046413D02*
X21020509Y-10048004D01*
X21015051Y-10044636D02*
X21017689Y-10046413D01*
X21012595Y-10042671D02*
X21015051Y-10044636D01*
X21010321Y-10040519D02*
X21012595Y-10042671D01*
X21008229Y-10038180D02*
X21010321Y-10040519D01*
X21006318Y-10035654D02*
X21008229Y-10038180D01*
X21004590Y-10032940D02*
X21006318Y-10035654D01*
X21003044Y-10030040D02*
X21004590Y-10032940D01*
X21001679Y-10026952D02*
X21003044Y-10030040D01*
X21000497Y-10023678D02*
X21001679Y-10026952D01*
X20999496Y-10020216D02*
X21000497Y-10023678D01*
X20998677Y-10016567D02*
X20999496Y-10020216D01*
X20998041Y-10012731D02*
X20998677Y-10016567D01*
X20997586Y-10008708D02*
X20998041Y-10012731D01*
X20997313Y-10004497D02*
X20997586Y-10008708D01*
X20997222Y-10000100D02*
X20997313Y-10004497D01*
X20997222Y-9857136D02*
X20997222Y-10000100D01*
X20997783Y-9854017D02*
X20997222Y-9857136D01*
X20998469Y-9851023D02*
X20997783Y-9854017D01*
X20999280Y-9848154D02*
X20998469Y-9851023D01*
X21000216Y-9845409D02*
X20999280Y-9848154D01*
X21001276Y-9842789D02*
X21000216Y-9845409D01*
X21002461Y-9840294D02*
X21001276Y-9842789D01*
X21003771Y-9837924D02*
X21002461Y-9840294D01*
X21005206Y-9835679D02*
X21003771Y-9837924D01*
X21006765Y-9833558D02*
X21005206Y-9835679D01*
X21008449Y-9831562D02*
X21006765Y-9833558D01*
X21010258Y-9829691D02*
X21008449Y-9831562D01*
X21012192Y-9827944D02*
X21010258Y-9829691D01*
X21014250Y-9826322D02*
X21012192Y-9827944D01*
X21016433Y-9824825D02*
X21014250Y-9826322D01*
X21018741Y-9823453D02*
X21016433Y-9824825D01*
X21021174Y-9822206D02*
X21018741Y-9823453D01*
X21023731Y-9821083D02*
X21021174Y-9822206D01*
X21026414Y-9820085D02*
X21023731Y-9821083D01*
X21029220Y-9819212D02*
X21026414Y-9820085D01*
X21032152Y-9818463D02*
X21029220Y-9819212D01*
X21035208Y-9817839D02*
X21032152Y-9818463D01*
X21038390Y-9817340D02*
X21035208Y-9817839D01*
X21041695Y-9816966D02*
X21038390Y-9817340D01*
X21045126Y-9816717D02*
X21041695Y-9816966D01*
X21133449Y-9816717D02*
X21045126Y-9816717D01*
X21135426Y-9816741D02*
X21133449Y-9816717D01*
X21137364Y-9816813D02*
X21135426Y-9816741D01*
X21139262Y-9816933D02*
X21137364Y-9816813D01*
X21141122Y-9817101D02*
X21139262Y-9816933D01*
X21142942Y-9817318D02*
X21141122Y-9817101D01*
X21144724Y-9817582D02*
X21142942Y-9817318D01*
X21146466Y-9817895D02*
X21144724Y-9817582D01*
X21148170Y-9818255D02*
X21146466Y-9817895D01*
X21149835Y-9818664D02*
X21148170Y-9818255D01*
X21151460Y-9819121D02*
X21149835Y-9818664D01*
X21153047Y-9819625D02*
X21151460Y-9819121D01*
X21154595Y-9820178D02*
X21153047Y-9819625D01*
X21156103Y-9820779D02*
X21154595Y-9820178D01*
X21157573Y-9821429D02*
X21156103Y-9820779D01*
X21159004Y-9822126D02*
X21157573Y-9821429D01*
X21160396Y-9822871D02*
X21159004Y-9822126D01*
X21161748Y-9823664D02*
X21160396Y-9822871D01*
X21163062Y-9824506D02*
X21161748Y-9823664D01*
X21164337Y-9825395D02*
X21163062Y-9824506D01*
X21165573Y-9826333D02*
X21164337Y-9825395D01*
X21166770Y-9827318D02*
X21165573Y-9826333D01*
X21167927Y-9828352D02*
X21166770Y-9827318D01*
X21169046Y-9829434D02*
X21167927Y-9828352D01*
X21170126Y-9830564D02*
X21169046Y-9829434D01*
X21171164Y-9831737D02*
X21170126Y-9830564D01*
X21172158Y-9832947D02*
X21171164Y-9831737D01*
X21173108Y-9834195D02*
X21172158Y-9832947D01*
X21174014Y-9835481D02*
X21173108Y-9834195D01*
X21174876Y-9836805D02*
X21174014Y-9835481D01*
X21175693Y-9838166D02*
X21174876Y-9836805D01*
X21176466Y-9839565D02*
X21175693Y-9838166D01*
X21177195Y-9841001D02*
X21176466Y-9839565D01*
X21177880Y-9842476D02*
X21177195Y-9841001D01*
X21178521Y-9843988D02*
X21177880Y-9842476D01*
X21179117Y-9845537D02*
X21178521Y-9843988D01*
X21179670Y-9847125D02*
X21179117Y-9845537D01*
X21180178Y-9848750D02*
X21179670Y-9847125D01*
X21180642Y-9850412D02*
X21180178Y-9848750D01*
X21181061Y-9852113D02*
X21180642Y-9850412D01*
X21181437Y-9853851D02*
X21181061Y-9852113D01*
X21181768Y-9855626D02*
X21181437Y-9853851D01*
X21182055Y-9857440D02*
X21181768Y-9855626D01*
X21182298Y-9859291D02*
X21182055Y-9857440D01*
X21182497Y-9861180D02*
X21182298Y-9859291D01*
X21182652Y-9863106D02*
X21182497Y-9861180D01*
X21182762Y-9865070D02*
X21182652Y-9863106D01*
X21182829Y-9867072D02*
X21182762Y-9865070D01*
X21182851Y-9869112D02*
X21182829Y-9867072D01*
X21182851Y-9892315D02*
X21182851Y-9869112D01*
X21339288Y-9892315D02*
X21182851Y-9892315D01*
X21339288Y-9822705D02*
X21339288Y-9892315D01*
X21339222Y-9817268D02*
X21339288Y-9822705D01*
X21339023Y-9811934D02*
X21339222Y-9817268D01*
X21338691Y-9806705D02*
X21339023Y-9811934D01*
X21338227Y-9801580D02*
X21338691Y-9806705D01*
X21337631Y-9796559D02*
X21338227Y-9801580D01*
X21336902Y-9791642D02*
X21337631Y-9796559D01*
X21336040Y-9786828D02*
X21336902Y-9791642D01*
X21335046Y-9782119D02*
X21336040Y-9786828D01*
X21333920Y-9777514D02*
X21335046Y-9782119D01*
X21332660Y-9773012D02*
X21333920Y-9777514D01*
X21331269Y-9768615D02*
X21332660Y-9773012D01*
X21329744Y-9764321D02*
X21331269Y-9768615D01*
X21328088Y-9760132D02*
X21329744Y-9764321D01*
X21326298Y-9756046D02*
X21328088Y-9760132D01*
X21324376Y-9752065D02*
X21326298Y-9756046D01*
X21322322Y-9748187D02*
X21324376Y-9752065D01*
X21320135Y-9744413D02*
X21322322Y-9748187D01*
X21317815Y-9740744D02*
X21320135Y-9744413D01*
X21315363Y-9737178D02*
X21317815Y-9740744D01*
X21312778Y-9733716D02*
X21315363Y-9737178D01*
X21310061Y-9730358D02*
X21312778Y-9733716D01*
X21307211Y-9727104D02*
X21310061Y-9730358D01*
X21304229Y-9723954D02*
X21307211Y-9727104D01*
X21301114Y-9720908D02*
X21304229Y-9723954D01*
X21297893Y-9717977D02*
X21301114Y-9720908D01*
X21294591Y-9715170D02*
X21297893Y-9717977D01*
X21291208Y-9712488D02*
X21294591Y-9715170D01*
X21287745Y-9709930D02*
X21291208Y-9712488D01*
X21284201Y-9707498D02*
X21287745Y-9709930D01*
X21280577Y-9705190D02*
X21284201Y-9707498D01*
X21276872Y-9703006D02*
X21280577Y-9705190D01*
X21273087Y-9700948D02*
X21276872Y-9703006D01*
X21269221Y-9699014D02*
X21273087Y-9700948D01*
X21265274Y-9697206D02*
X21269221Y-9699014D01*
X21261247Y-9695521D02*
X21265274Y-9697206D01*
X21257140Y-9693962D02*
X21261247Y-9695521D01*
X21252951Y-9692527D02*
X21257140Y-9693962D01*
X21248683Y-9691218D02*
X21252951Y-9692527D01*
X21244333Y-9690032D02*
X21248683Y-9691218D01*
X21239903Y-9688972D02*
X21244333Y-9690032D01*
X21235393Y-9688036D02*
X21239903Y-9688972D01*
X21230802Y-9687226D02*
X21235393Y-9688036D01*
X21226130Y-9686539D02*
X21230802Y-9687226D01*
X21221378Y-9685978D02*
X21226130Y-9686539D01*
X21216545Y-9685541D02*
X21221378Y-9685978D01*
X21211632Y-9685230D02*
X21216545Y-9685541D01*
X21206638Y-9685042D02*
X21211632Y-9685230D01*
X21201563Y-9684980D02*
X21206638Y-9685042D01*
X20977012Y-9684980D02*
X21201563Y-9684980D01*
X19133769Y-9684980D02*
X18633020Y-9684980D01*
X19133769Y-10048004D02*
X19133769Y-9684980D01*
X19133751Y-10050736D02*
X19133769Y-10048004D01*
X19133698Y-10053441D02*
X19133751Y-10050736D01*
X19133611Y-10056121D02*
X19133698Y-10053441D01*
X19133488Y-10058774D02*
X19133611Y-10056121D01*
X19133330Y-10061402D02*
X19133488Y-10058774D01*
X19133137Y-10064003D02*
X19133330Y-10061402D01*
X19132909Y-10066579D02*
X19133137Y-10064003D01*
X19132646Y-10069128D02*
X19132909Y-10066579D01*
X19132348Y-10071652D02*
X19132646Y-10069128D01*
X19132014Y-10074150D02*
X19132348Y-10071652D01*
X19131646Y-10076621D02*
X19132014Y-10074150D01*
X19131242Y-10079067D02*
X19131646Y-10076621D01*
X19130804Y-10081487D02*
X19131242Y-10079067D01*
X19130330Y-10083880D02*
X19130804Y-10081487D01*
X19129821Y-10086248D02*
X19130330Y-10083880D01*
X19129278Y-10088589D02*
X19129821Y-10086248D01*
X19128699Y-10090905D02*
X19129278Y-10088589D01*
X19128085Y-10093195D02*
X19128699Y-10090905D01*
X19127436Y-10095459D02*
X19128085Y-10093195D01*
X19126751Y-10097696D02*
X19127436Y-10095459D01*
X19126032Y-10099908D02*
X19126751Y-10097696D01*
X19125278Y-10102094D02*
X19126032Y-10099908D01*
X19124488Y-10104253D02*
X19125278Y-10102094D01*
X19123664Y-10106387D02*
X19124488Y-10104253D01*
X19122807Y-10108494D02*
X19123664Y-10106387D01*
X19121920Y-10110574D02*
X19122807Y-10108494D01*
X19121003Y-10112627D02*
X19121920Y-10110574D01*
X19120056Y-10114652D02*
X19121003Y-10112627D01*
X19119080Y-10116650D02*
X19120056Y-10114652D01*
X19118073Y-10118621D02*
X19119080Y-10116650D01*
X19117037Y-10120564D02*
X19118073Y-10118621D01*
X19115971Y-10122480D02*
X19117037Y-10120564D01*
X19114875Y-10124369D02*
X19115971Y-10122480D01*
X19113749Y-10126230D02*
X19114875Y-10124369D01*
X19112593Y-10128065D02*
X19113749Y-10126230D01*
X19111407Y-10129872D02*
X19112593Y-10128065D01*
X19110191Y-10131651D02*
X19111407Y-10129872D01*
X19108946Y-10133404D02*
X19110191Y-10131651D01*
X19107670Y-10135129D02*
X19108946Y-10133404D01*
X19106365Y-10136826D02*
X19107670Y-10135129D01*
X19105030Y-10138497D02*
X19106365Y-10136826D01*
X19103665Y-10140140D02*
X19105030Y-10138497D01*
X19102270Y-10141756D02*
X19103665Y-10140140D01*
X19100845Y-10143345D02*
X19102270Y-10141756D01*
X19099390Y-10144906D02*
X19100845Y-10143345D01*
X19097905Y-10146440D02*
X19099390Y-10144906D01*
X19096391Y-10147947D02*
X19097905Y-10146440D01*
X19094846Y-10149426D02*
X19096391Y-10147947D01*
X19093275Y-10150877D02*
X19094846Y-10149426D01*
X19091681Y-10152298D02*
X19093275Y-10150877D01*
X19090063Y-10153689D02*
X19091681Y-10152298D01*
X19088422Y-10155050D02*
X19090063Y-10153689D01*
X19086757Y-10156382D02*
X19088422Y-10155050D01*
X19085069Y-10157683D02*
X19086757Y-10156382D01*
X19083358Y-10158955D02*
X19085069Y-10157683D01*
X19081623Y-10160196D02*
X19083358Y-10158955D01*
X19079865Y-10161408D02*
X19081623Y-10160196D01*
X19078083Y-10162590D02*
X19079865Y-10161408D01*
X19076278Y-10163742D02*
X19078083Y-10162590D01*
X19074450Y-10164864D02*
X19076278Y-10163742D01*
X19072598Y-10165956D02*
X19074450Y-10164864D01*
X19070723Y-10167019D02*
X19072598Y-10165956D01*
X19068824Y-10168051D02*
X19070723Y-10167019D01*
X19066902Y-10169054D02*
X19068824Y-10168051D01*
X19064957Y-10170026D02*
X19066902Y-10169054D01*
X19062988Y-10170969D02*
X19064957Y-10170026D01*
X19060996Y-10171882D02*
X19062988Y-10170969D01*
X19058981Y-10172765D02*
X19060996Y-10171882D01*
X19056942Y-10173618D02*
X19058981Y-10172765D01*
X19054879Y-10174441D02*
X19056942Y-10173618D01*
X19052794Y-10175235D02*
X19054879Y-10174441D01*
X19050685Y-10175998D02*
X19052794Y-10175235D01*
X19048556Y-10176731D02*
X19050685Y-10175998D01*
X19046412Y-10177433D02*
X19048556Y-10176731D01*
X19044252Y-10178103D02*
X19046412Y-10177433D01*
X19042077Y-10178743D02*
X19044252Y-10178103D01*
X19039886Y-10179351D02*
X19042077Y-10178743D01*
X19037679Y-10179928D02*
X19039886Y-10179351D01*
X19035457Y-10180473D02*
X19037679Y-10179928D01*
X19033220Y-10180988D02*
X19035457Y-10180473D01*
X19030966Y-10181471D02*
X19033220Y-10180988D01*
X19028697Y-10181924D02*
X19030966Y-10181471D01*
X19026413Y-10182345D02*
X19028697Y-10181924D01*
X19024113Y-10182735D02*
X19026413Y-10182345D01*
X19021797Y-10183093D02*
X19024113Y-10182735D01*
X19019466Y-10183421D02*
X19021797Y-10183093D01*
X19017119Y-10183717D02*
X19019466Y-10183421D01*
X19014757Y-10183982D02*
X19017119Y-10183717D01*
X19012379Y-10184216D02*
X19014757Y-10183982D01*
X19009985Y-10184419D02*
X19012379Y-10184216D01*
X19007576Y-10184590D02*
X19009985Y-10184419D01*
X19005151Y-10184731D02*
X19007576Y-10184590D01*
X19002710Y-10184840D02*
X19005151Y-10184731D01*
X19000254Y-10184918D02*
X19002710Y-10184840D01*
X18997783Y-10184964D02*
X19000254Y-10184918D01*
X18995295Y-10184980D02*
X18997783Y-10184964D01*
X18928463Y-10053150D02*
X18924188Y-10053244D01*
X18932556Y-10052869D02*
X18928463Y-10053150D01*
X18936468Y-10052401D02*
X18932556Y-10052869D01*
X18940197Y-10051747D02*
X18936468Y-10052401D01*
X18943745Y-10050904D02*
X18940197Y-10051747D01*
X18947111Y-10049875D02*
X18943745Y-10050904D01*
X18950294Y-10048659D02*
X18947111Y-10049875D01*
X18953296Y-10047255D02*
X18950294Y-10048659D01*
X18956116Y-10045665D02*
X18953296Y-10047255D01*
X18958754Y-10043887D02*
X18956116Y-10045665D01*
X18961210Y-10041922D02*
X18958754Y-10043887D01*
X18963484Y-10039770D02*
X18961210Y-10041922D01*
X18965576Y-10037431D02*
X18963484Y-10039770D01*
X18967487Y-10034905D02*
X18965576Y-10037431D01*
X18969215Y-10032192D02*
X18967487Y-10034905D01*
X18970761Y-10029291D02*
X18969215Y-10032192D01*
X18972126Y-10026204D02*
X18970761Y-10029291D01*
X18973308Y-10022929D02*
X18972126Y-10026204D01*
X18974309Y-10019467D02*
X18973308Y-10022929D01*
X18975128Y-10015818D02*
X18974309Y-10019467D01*
X18975764Y-10011982D02*
X18975128Y-10015818D01*
X18976219Y-10007959D02*
X18975764Y-10011982D01*
X18976492Y-10003749D02*
X18976219Y-10007959D01*
X18976583Y-9999351D02*
X18976492Y-10003749D01*
X18976583Y-9815968D02*
X18976583Y-9999351D01*
X18790954Y-9815968D02*
X18976583Y-9815968D01*
X18790954Y-10184980D02*
X18790954Y-9815968D01*
X18633020Y-10184980D02*
X18790954Y-10184980D01*
X18633020Y-9684980D02*
X18633020Y-10184980D01*
X24088020Y-12545080D02*
X24089320Y-17346980D01*
X23303220Y-10041880D02*
X24088020Y-12545080D01*
X23303220Y-9445080D02*
X23303220Y-10041880D01*
X18186400Y-9448800D02*
X23303220Y-9445080D01*
X18186400Y-10833100D02*
X16238220Y-12491780D01*
X16238220Y-12491780D02*
X16238220Y-17345780D01*
D12*
X17315500Y-13556300D02*
X17355500Y-13596300D01*
X17355500Y-13556300D02*
X17315500Y-13596300D01*
X17315500Y-13759500D02*
X17355500Y-13799500D01*
X17355500Y-13759500D02*
X17315500Y-13799500D01*
X17660000Y-14500000D02*
X17700000Y-14540000D01*
X17700000Y-14500000D02*
X17660000Y-14540000D01*
X17750000Y-14620000D02*
X17790000Y-14660000D01*
X17790000Y-14620000D02*
X17750000Y-14660000D01*
X17899700Y-12362500D02*
X17939700Y-12402500D01*
X17939700Y-12362500D02*
X17899700Y-12402500D01*
X17980000Y-14260000D02*
X18020000Y-14300000D01*
X18020000Y-14260000D02*
X17980000Y-14300000D01*
X18040000Y-13090000D02*
X18080000Y-13130000D01*
X18080000Y-13090000D02*
X18040000Y-13130000D01*
X18370000Y-14520000D02*
X18410000Y-14560000D01*
X18410000Y-14520000D02*
X18370000Y-14560000D01*
X18450000Y-14470001D02*
X18490000Y-14510001D01*
X18490000Y-14470001D02*
X18450000Y-14510001D01*
X18459999Y-14370000D02*
X18499999Y-14410000D01*
X18499999Y-14370000D02*
X18459999Y-14410000D01*
X18480000Y-15110000D02*
X18520000Y-15150000D01*
X18520000Y-15110000D02*
X18480000Y-15150000D01*
X18600000Y-15000000D02*
X18640000Y-15040000D01*
X18640000Y-15000000D02*
X18600000Y-15040000D01*
X18690000Y-15140000D02*
X18730000Y-15180000D01*
X18730000Y-15140000D02*
X18690000Y-15180000D01*
X18770000Y-13100000D02*
X18810000Y-13140000D01*
X18810000Y-13100000D02*
X18770000Y-13140000D01*
X18814100Y-12219500D02*
X18854100Y-12259500D01*
X18854100Y-12219500D02*
X18814100Y-12259500D01*
X18970000Y-13100000D02*
X19010000Y-13140000D01*
X19010000Y-13100000D02*
X18970000Y-13140000D01*
X19068100Y-12240000D02*
X19108100Y-12280000D01*
X19108100Y-12240000D02*
X19068100Y-12280000D01*
X19080800Y-14724700D02*
X19120800Y-14764700D01*
X19120800Y-14724700D02*
X19080800Y-14764700D01*
X19322100Y-12240000D02*
X19362100Y-12280000D01*
X19362100Y-12240000D02*
X19322100Y-12280000D01*
X19576100Y-12219500D02*
X19616100Y-12259500D01*
X19616100Y-12219500D02*
X19576100Y-12259500D01*
X19700000Y-13090000D02*
X19740000Y-13130000D01*
X19740000Y-13090000D02*
X19700000Y-13130000D01*
X19720000Y-12680000D02*
X19760000Y-12720000D01*
X19760000Y-12680000D02*
X19720000Y-12720000D01*
X19753900Y-14013500D02*
X19793900Y-14053500D01*
X19793900Y-14013500D02*
X19753900Y-14053500D01*
X19919000Y-13090000D02*
X19959000Y-13130000D01*
X19959000Y-13090000D02*
X19919000Y-13130000D01*
X20000000Y-11360000D02*
X20040000Y-11400000D01*
X20040000Y-11360000D02*
X20000000Y-11400000D01*
X20210000Y-12645000D02*
X20250000Y-12685000D01*
X20250000Y-12645000D02*
X20210000Y-12685000D01*
X20465000Y-12630000D02*
X20505000Y-12670000D01*
X20505000Y-12630000D02*
X20465000Y-12670000D01*
X20554000Y-14394500D02*
X20594000Y-14434500D01*
X20594000Y-14394500D02*
X20554000Y-14434500D01*
X20592100Y-12219500D02*
X20632100Y-12259500D01*
X20632100Y-12219500D02*
X20592100Y-12259500D01*
X20595000Y-13910000D02*
X20635000Y-13950000D01*
X20635000Y-13910000D02*
X20595000Y-13950000D01*
X20650000Y-13080000D02*
X20690000Y-13120000D01*
X20690000Y-13080000D02*
X20650000Y-13120000D01*
X20744500Y-14394502D02*
X20784500Y-14434502D01*
X20784500Y-14394502D02*
X20744500Y-14434502D01*
X20846100Y-12219500D02*
X20886100Y-12259500D01*
X20886100Y-12219500D02*
X20846100Y-12259500D01*
X20896900Y-14407200D02*
X20936900Y-14447200D01*
X20936900Y-14407200D02*
X20896900Y-14447200D01*
X21100100Y-12219500D02*
X21140100Y-12259500D01*
X21140100Y-12219500D02*
X21100100Y-12259500D01*
X21328700Y-14458000D02*
X21368700Y-14498000D01*
X21368700Y-14458000D02*
X21328700Y-14498000D01*
X21455700Y-14458000D02*
X21495700Y-14498000D01*
X21495700Y-14458000D02*
X21455700Y-14498000D01*
X21633500Y-14458000D02*
X21673500Y-14498000D01*
X21673500Y-14458000D02*
X21633500Y-14498000D01*
X21950000Y-17345000D02*
X21990000Y-17385000D01*
X21990000Y-17345000D02*
X21950000Y-17385000D01*
X22725700Y-14623100D02*
X22765700Y-14663100D01*
X22765700Y-14623100D02*
X22725700Y-14663100D01*
X23020000Y-15860000D02*
X23060000Y-15900000D01*
X23060000Y-15860000D02*
X23020000Y-15900000D01*
X23040000Y-15150000D02*
X23080000Y-15190000D01*
X23080000Y-15150000D02*
X23040000Y-15190000D01*
X23081300Y-11854500D02*
X23121300Y-11894500D01*
X23121300Y-11854500D02*
X23081300Y-11894500D01*
X23195600Y-15474000D02*
X23235600Y-15514000D01*
X23235600Y-15474000D02*
X23195600Y-15514000D01*
X23650000Y-15450000D02*
X23690000Y-15490000D01*
X23690000Y-15450000D02*
X23650000Y-15490000D01*
X16470300Y-13054200D02*
G75*
G03X16470300Y-13054200I-38100J0D01*
G01*
X16470300Y-13308200D02*
G75*
G03X16470300Y-13308200I-38100J0D01*
G01*
X16470300Y-13562200D02*
G75*
G03X16470300Y-13562200I-38100J0D01*
G01*
X16470300Y-13816200D02*
G75*
G03X16470300Y-13816200I-38100J0D01*
G01*
X16470300Y-14070200D02*
G75*
G03X16470300Y-14070200I-38100J0D01*
G01*
X16470300Y-14324200D02*
G75*
G03X16470300Y-14324200I-38100J0D01*
G01*
X16470300Y-14578200D02*
G75*
G03X16470300Y-14578200I-38100J0D01*
G01*
X16470300Y-14832200D02*
G75*
G03X16470300Y-14832200I-38100J0D01*
G01*
X16470300Y-15086200D02*
G75*
G03X16470300Y-15086200I-38100J0D01*
G01*
X16470300Y-15340200D02*
G75*
G03X16470300Y-15340200I-38100J0D01*
G01*
X16470300Y-15594200D02*
G75*
G03X16470300Y-15594200I-38100J0D01*
G01*
X16470300Y-15848200D02*
G75*
G03X16470300Y-15848200I-38100J0D01*
G01*
X16470300Y-16102200D02*
G75*
G03X16470300Y-16102200I-38100J0D01*
G01*
X16470300Y-16356200D02*
G75*
G03X16470300Y-16356200I-38100J0D01*
G01*
X23794300Y-14324200D02*
G75*
G03X23794300Y-14324200I-38100J0D01*
G01*
X23794300Y-14578200D02*
G75*
G03X23794300Y-14578200I-38100J0D01*
G01*
X23794300Y-14832200D02*
G75*
G03X23794300Y-14832200I-38100J0D01*
G01*
X23794300Y-15086200D02*
G75*
G03X23794300Y-15086200I-38100J0D01*
G01*
X18364200Y-11189500D02*
X18364200Y-11289500D01*
X18314200Y-11239500D02*
X18414200Y-11239500D01*
X18364200Y-11443500D02*
X18364200Y-11543500D01*
X18314200Y-11493500D02*
X18414200Y-11493500D01*
X18364200Y-11697500D02*
X18364200Y-11797500D01*
X18314200Y-11747500D02*
X18414200Y-11747500D01*
X19138900Y-15990100D02*
X19138900Y-16090100D01*
X19088900Y-16040100D02*
X19188900Y-16040100D01*
X19138900Y-16244100D02*
X19138900Y-16344100D01*
X19088900Y-16294100D02*
X19188900Y-16294100D01*
X19138900Y-16498100D02*
X19138900Y-16598100D01*
X19088900Y-16548100D02*
X19188900Y-16548100D01*
X19138900Y-16752100D02*
X19138900Y-16852100D01*
X19088900Y-16802100D02*
X19188900Y-16802100D01*
X20038421Y-17112341D02*
X20038421Y-17040499D01*
X19966579Y-17040499D01*
X19966579Y-17112341D01*
X20038421Y-17112341D01*
X20292421Y-17112341D02*
X20292421Y-17040499D01*
X20220579Y-17040499D01*
X20220579Y-17112341D01*
X20292421Y-17112341D01*
X20546421Y-17112341D02*
X20546421Y-17040499D01*
X20474579Y-17040499D01*
X20474579Y-17112341D01*
X20546421Y-17112341D01*
X20800421Y-17112341D02*
X20800421Y-17040499D01*
X20728579Y-17040499D01*
X20728579Y-17112341D01*
X20800421Y-17112341D01*
X21054421Y-17112341D02*
X21054421Y-17040499D01*
X20982579Y-17040499D01*
X20982579Y-17112341D01*
X21054421Y-17112341D01*
X21308421Y-17112341D02*
X21308421Y-17040499D01*
X21236579Y-17040499D01*
X21236579Y-17112341D01*
X21308421Y-17112341D01*
X21562421Y-12286341D02*
X21562421Y-12214499D01*
X21490579Y-12214499D01*
X21490579Y-12286341D01*
X21562421Y-12286341D01*
X21562421Y-17112341D02*
X21562421Y-17040499D01*
X21490579Y-17040499D01*
X21490579Y-17112341D01*
X21562421Y-17112341D01*
X21816421Y-12286341D02*
X21816421Y-12214499D01*
X21744579Y-12214499D01*
X21744579Y-12286341D01*
X21816421Y-12286341D01*
X22070421Y-12286341D02*
X22070421Y-12214499D01*
X21998579Y-12214499D01*
X21998579Y-12286341D01*
X22070421Y-12286341D01*
X22070421Y-17112341D02*
X22070421Y-17040499D01*
X21998579Y-17040499D01*
X21998579Y-17112341D01*
X22070421Y-17112341D01*
X22324421Y-12286341D02*
X22324421Y-12214499D01*
X22252579Y-12214499D01*
X22252579Y-12286341D01*
X22324421Y-12286341D01*
X22324421Y-17112341D02*
X22324421Y-17040499D01*
X22252579Y-17040499D01*
X22252579Y-17112341D01*
X22324421Y-17112341D01*
X22578421Y-12286341D02*
X22578421Y-12214499D01*
X22506579Y-12214499D01*
X22506579Y-12286341D01*
X22578421Y-12286341D01*
X22578421Y-17112341D02*
X22578421Y-17040499D01*
X22506579Y-17040499D01*
X22506579Y-17112341D01*
X22578421Y-17112341D01*
X22832421Y-12286341D02*
X22832421Y-12214499D01*
X22760579Y-12214499D01*
X22760579Y-12286341D01*
X22832421Y-12286341D01*
X22832421Y-17112341D02*
X22832421Y-17040499D01*
X22760579Y-17040499D01*
X22760579Y-17112341D01*
X22832421Y-17112341D01*
X23086421Y-12286341D02*
X23086421Y-12214499D01*
X23014579Y-12214499D01*
X23014579Y-12286341D01*
X23086421Y-12286341D01*
X23086421Y-17112341D02*
X23086421Y-17040499D01*
X23014579Y-17040499D01*
X23014579Y-17112341D01*
X23086421Y-17112341D01*
X23340421Y-12286341D02*
X23340421Y-12214499D01*
X23268579Y-12214499D01*
X23268579Y-12286341D01*
X23340421Y-12286341D01*
X23340421Y-14318341D02*
X23340421Y-14246499D01*
X23268579Y-14246499D01*
X23268579Y-14318341D01*
X23340421Y-14318341D01*
X23340421Y-14572341D02*
X23340421Y-14500499D01*
X23268579Y-14500499D01*
X23268579Y-14572341D01*
X23340421Y-14572341D01*
X23340421Y-14826341D02*
X23340421Y-14754499D01*
X23268579Y-14754499D01*
X23268579Y-14826341D01*
X23340421Y-14826341D01*
X23340421Y-17112341D02*
X23340421Y-17040499D01*
X23268579Y-17040499D01*
X23268579Y-17112341D01*
X23340421Y-17112341D01*
X23594421Y-14318341D02*
X23594421Y-14246499D01*
X23522579Y-14246499D01*
X23522579Y-14318341D01*
X23594421Y-14318341D01*
X23594421Y-14572341D02*
X23594421Y-14500499D01*
X23522579Y-14500499D01*
X23522579Y-14572341D01*
X23594421Y-14572341D01*
X23594421Y-14826341D02*
X23594421Y-14754499D01*
X23522579Y-14754499D01*
X23522579Y-14826341D01*
X23594421Y-14826341D01*
D13*
X16504648Y-18370714D02*
X16504648Y-18070714D01*
X16576077Y-18070714D01*
X16618934Y-18085000D01*
X16647506Y-18113572D01*
X16661791Y-18142143D01*
X16676077Y-18199286D01*
X16676077Y-18242143D01*
X16661791Y-18299286D01*
X16647506Y-18327857D01*
X16618934Y-18356429D01*
X16576077Y-18370714D01*
X16504648Y-18370714D01*
X16804649Y-18370714D02*
X16804649Y-18170714D01*
X16804649Y-18227857D02*
X16818934Y-18199286D01*
X16833220Y-18185000D01*
X16861791Y-18170714D01*
X16890363Y-18170714D01*
X16990363Y-18370714D02*
X16990363Y-18170714D01*
X16990363Y-18070714D02*
X16976077Y-18085000D01*
X16990363Y-18099286D01*
X17004649Y-18085000D01*
X16990363Y-18070714D01*
X16990363Y-18099286D01*
X17176077Y-18370714D02*
X17147506Y-18356429D01*
X17133220Y-18327857D01*
X17133220Y-18070714D01*
X17333220Y-18370714D02*
X17304649Y-18356429D01*
X17290363Y-18327857D01*
X17290363Y-18070714D01*
X17676077Y-18370714D02*
X17676077Y-18070714D01*
X17776077Y-18285000D01*
X17876077Y-18070714D01*
X17876077Y-18370714D01*
X18147506Y-18370714D02*
X18147506Y-18213572D01*
X18133220Y-18185000D01*
X18104649Y-18170714D01*
X18047506Y-18170714D01*
X18018934Y-18185000D01*
X18147506Y-18356429D02*
X18118934Y-18370714D01*
X18047506Y-18370714D01*
X18018934Y-18356429D01*
X18004649Y-18327857D01*
X18004649Y-18299286D01*
X18018934Y-18270714D01*
X18047506Y-18256429D01*
X18118934Y-18256429D01*
X18147506Y-18242143D01*
X18290363Y-18170714D02*
X18290363Y-18470714D01*
X18290363Y-18185000D02*
X18318934Y-18170714D01*
X18376077Y-18170714D01*
X18404649Y-18185000D01*
X18418934Y-18199286D01*
X18433220Y-18227857D01*
X18433220Y-18313572D01*
X18418934Y-18342143D01*
X18404649Y-18356429D01*
X18376077Y-18370714D01*
X18318934Y-18370714D01*
X18290363Y-18356429D01*
X18561791Y-18342143D02*
X18576077Y-18356429D01*
X18561791Y-18370714D01*
X18547506Y-18356429D01*
X18561791Y-18342143D01*
X18561791Y-18370714D01*
X18561791Y-18185000D02*
X18576077Y-18199286D01*
X18561791Y-18213572D01*
X18547506Y-18199286D01*
X18561791Y-18185000D01*
X18561791Y-18213572D01*
X16193220Y-18845000D02*
X16233220Y-18885000D01*
X16233220Y-18845000D02*
X16193220Y-18885000D01*
X16561791Y-18700714D02*
X16590363Y-18700714D01*
X16618934Y-18715000D01*
X16633220Y-18729286D01*
X16647506Y-18757857D01*
X16661791Y-18815000D01*
X16661791Y-18886429D01*
X16647506Y-18943572D01*
X16633220Y-18972143D01*
X16618934Y-18986429D01*
X16590363Y-19000714D01*
X16561791Y-19000714D01*
X16533220Y-18986429D01*
X16518934Y-18972143D01*
X16504648Y-18943572D01*
X16490363Y-18886429D01*
X16490363Y-18815000D01*
X16504648Y-18757857D01*
X16518934Y-18729286D01*
X16533220Y-18715000D01*
X16561791Y-18700714D01*
X16790363Y-18972143D02*
X16804649Y-18986429D01*
X16790363Y-19000714D01*
X16776077Y-18986429D01*
X16790363Y-18972143D01*
X16790363Y-19000714D01*
X17061791Y-18800714D02*
X17061791Y-19000714D01*
X16990363Y-18686429D02*
X16918934Y-18900714D01*
X17104648Y-18900714D01*
X17276077Y-18700714D02*
X17304649Y-18700714D01*
X17333220Y-18715000D01*
X17347506Y-18729286D01*
X17361791Y-18757857D01*
X17376077Y-18815000D01*
X17376077Y-18886429D01*
X17361791Y-18943572D01*
X17347506Y-18972143D01*
X17333220Y-18986429D01*
X17304649Y-19000714D01*
X17276077Y-19000714D01*
X17247506Y-18986429D01*
X17233220Y-18972143D01*
X17218934Y-18943572D01*
X17204649Y-18886429D01*
X17204649Y-18815000D01*
X17218934Y-18757857D01*
X17233220Y-18729286D01*
X17247506Y-18715000D01*
X17276077Y-18700714D01*
X17504649Y-19000714D02*
X17504649Y-18800714D01*
X17504649Y-18829286D02*
X17518934Y-18815000D01*
X17547506Y-18800714D01*
X17590363Y-18800714D01*
X17618934Y-18815000D01*
X17633220Y-18843572D01*
X17633220Y-19000714D01*
X17633220Y-18843572D02*
X17647506Y-18815000D01*
X17676077Y-18800714D01*
X17718934Y-18800714D01*
X17747506Y-18815000D01*
X17761791Y-18843572D01*
X17761791Y-19000714D01*
X17904649Y-19000714D02*
X17904649Y-18800714D01*
X17904649Y-18829286D02*
X17918934Y-18815000D01*
X17947506Y-18800714D01*
X17990363Y-18800714D01*
X18018934Y-18815000D01*
X18033220Y-18843572D01*
X18033220Y-19000714D01*
X18033220Y-18843572D02*
X18047506Y-18815000D01*
X18076077Y-18800714D01*
X18118934Y-18800714D01*
X18147506Y-18815000D01*
X18161791Y-18843572D01*
X18161791Y-19000714D01*
X18747506Y-18686429D02*
X18490363Y-19072143D01*
X19133220Y-18700714D02*
X19161791Y-18700714D01*
X19190363Y-18715000D01*
X19204648Y-18729286D01*
X19218934Y-18757857D01*
X19233220Y-18815000D01*
X19233220Y-18886429D01*
X19218934Y-18943572D01*
X19204648Y-18972143D01*
X19190363Y-18986429D01*
X19161791Y-19000714D01*
X19133220Y-19000714D01*
X19104648Y-18986429D01*
X19090363Y-18972143D01*
X19076077Y-18943572D01*
X19061791Y-18886429D01*
X19061791Y-18815000D01*
X19076077Y-18757857D01*
X19090363Y-18729286D01*
X19104648Y-18715000D01*
X19133220Y-18700714D01*
X19361791Y-18972143D02*
X19376077Y-18986429D01*
X19361791Y-19000714D01*
X19347506Y-18986429D01*
X19361791Y-18972143D01*
X19361791Y-19000714D01*
X19561791Y-18700714D02*
X19590363Y-18700714D01*
X19618934Y-18715000D01*
X19633220Y-18729286D01*
X19647506Y-18757857D01*
X19661791Y-18815000D01*
X19661791Y-18886429D01*
X19647506Y-18943572D01*
X19633220Y-18972143D01*
X19618934Y-18986429D01*
X19590363Y-19000714D01*
X19561791Y-19000714D01*
X19533220Y-18986429D01*
X19518934Y-18972143D01*
X19504648Y-18943572D01*
X19490363Y-18886429D01*
X19490363Y-18815000D01*
X19504648Y-18757857D01*
X19518934Y-18729286D01*
X19533220Y-18715000D01*
X19561791Y-18700714D01*
X19947506Y-19000714D02*
X19776077Y-19000714D01*
X19861791Y-19000714D02*
X19861791Y-18700714D01*
X19833220Y-18743572D01*
X19804648Y-18772143D01*
X19776077Y-18786429D01*
X20204648Y-18700714D02*
X20147506Y-18700714D01*
X20118934Y-18715000D01*
X20104648Y-18729286D01*
X20076077Y-18772143D01*
X20061791Y-18829286D01*
X20061791Y-18943572D01*
X20076077Y-18972143D01*
X20090363Y-18986429D01*
X20118934Y-19000714D01*
X20176077Y-19000714D01*
X20204648Y-18986429D01*
X20218934Y-18972143D01*
X20233220Y-18943572D01*
X20233220Y-18872143D01*
X20218934Y-18843572D01*
X20204648Y-18829286D01*
X20176077Y-18815000D01*
X20118934Y-18815000D01*
X20090363Y-18829286D01*
X20076077Y-18843572D01*
X20061791Y-18872143D01*
X20347506Y-18700714D02*
X20347506Y-18757857D01*
X20461791Y-18700714D02*
X20461791Y-18757857D01*
X20904648Y-19115000D02*
X20890363Y-19100714D01*
X20861791Y-19057857D01*
X20847506Y-19029286D01*
X20833220Y-18986429D01*
X20818934Y-18915000D01*
X20818934Y-18857857D01*
X20833220Y-18786429D01*
X20847506Y-18743572D01*
X20861791Y-18715000D01*
X20890363Y-18672143D01*
X20904648Y-18657857D01*
X21147506Y-18800714D02*
X21147506Y-19000714D01*
X21076077Y-18686429D02*
X21004648Y-18900714D01*
X21190363Y-18900714D01*
X21447506Y-18700714D02*
X21304648Y-18700714D01*
X21290363Y-18843572D01*
X21304648Y-18829286D01*
X21333220Y-18815000D01*
X21404648Y-18815000D01*
X21433220Y-18829286D01*
X21447506Y-18843572D01*
X21461791Y-18872143D01*
X21461791Y-18943572D01*
X21447506Y-18972143D01*
X21433220Y-18986429D01*
X21404648Y-19000714D01*
X21333220Y-19000714D01*
X21304648Y-18986429D01*
X21290363Y-18972143D01*
X21818934Y-19000714D02*
X21818934Y-18700714D01*
X21947506Y-19000714D02*
X21947506Y-18843572D01*
X21933220Y-18815000D01*
X21904648Y-18800714D01*
X21861791Y-18800714D01*
X21833220Y-18815000D01*
X21818934Y-18829286D01*
X22133220Y-19000714D02*
X22104648Y-18986429D01*
X22090363Y-18972143D01*
X22076077Y-18943572D01*
X22076077Y-18857857D01*
X22090363Y-18829286D01*
X22104648Y-18815000D01*
X22133220Y-18800714D01*
X22176077Y-18800714D01*
X22204648Y-18815000D01*
X22218934Y-18829286D01*
X22233220Y-18857857D01*
X22233220Y-18943572D01*
X22218934Y-18972143D01*
X22204648Y-18986429D01*
X22176077Y-19000714D01*
X22133220Y-19000714D01*
X22404648Y-19000714D02*
X22376077Y-18986429D01*
X22361791Y-18957857D01*
X22361791Y-18700714D01*
X22633220Y-18986429D02*
X22604648Y-19000714D01*
X22547506Y-19000714D01*
X22518934Y-18986429D01*
X22504648Y-18957857D01*
X22504648Y-18843572D01*
X22518934Y-18815000D01*
X22547506Y-18800714D01*
X22604648Y-18800714D01*
X22633220Y-18815000D01*
X22647506Y-18843572D01*
X22647506Y-18872143D01*
X22504648Y-18900714D01*
X22761791Y-18986429D02*
X22790363Y-19000714D01*
X22847506Y-19000714D01*
X22876077Y-18986429D01*
X22890363Y-18957857D01*
X22890363Y-18943572D01*
X22876077Y-18915000D01*
X22847506Y-18900714D01*
X22804648Y-18900714D01*
X22776077Y-18886429D01*
X22761791Y-18857857D01*
X22761791Y-18843572D01*
X22776077Y-18815000D01*
X22804648Y-18800714D01*
X22847506Y-18800714D01*
X22876077Y-18815000D01*
X22990363Y-19115000D02*
X23004648Y-19100714D01*
X23033220Y-19057857D01*
X23047506Y-19029286D01*
X23061791Y-18986429D01*
X23076077Y-18915000D01*
X23076077Y-18857857D01*
X23061791Y-18786429D01*
X23047506Y-18743572D01*
X23033220Y-18715000D01*
X23004648Y-18672143D01*
X22990363Y-18657857D01*
X16233220Y-19261000D02*
G75*
G03X16233220Y-19261000I-38100J0D01*
G01*
X16561791Y-19096714D02*
X16590363Y-19096714D01*
X16618934Y-19111000D01*
X16633220Y-19125286D01*
X16647506Y-19153857D01*
X16661791Y-19211000D01*
X16661791Y-19282429D01*
X16647506Y-19339572D01*
X16633220Y-19368143D01*
X16618934Y-19382429D01*
X16590363Y-19396714D01*
X16561791Y-19396714D01*
X16533220Y-19382429D01*
X16518934Y-19368143D01*
X16504648Y-19339572D01*
X16490363Y-19282429D01*
X16490363Y-19211000D01*
X16504648Y-19153857D01*
X16518934Y-19125286D01*
X16533220Y-19111000D01*
X16561791Y-19096714D01*
X16790363Y-19368143D02*
X16804649Y-19382429D01*
X16790363Y-19396714D01*
X16776077Y-19382429D01*
X16790363Y-19368143D01*
X16790363Y-19396714D01*
X16904648Y-19096714D02*
X17104648Y-19096714D01*
X16976077Y-19396714D01*
X17347506Y-19096714D02*
X17290363Y-19096714D01*
X17261791Y-19111000D01*
X17247506Y-19125286D01*
X17218934Y-19168143D01*
X17204649Y-19225286D01*
X17204649Y-19339572D01*
X17218934Y-19368143D01*
X17233220Y-19382429D01*
X17261791Y-19396714D01*
X17318934Y-19396714D01*
X17347506Y-19382429D01*
X17361791Y-19368143D01*
X17376077Y-19339572D01*
X17376077Y-19268143D01*
X17361791Y-19239572D01*
X17347506Y-19225286D01*
X17318934Y-19211000D01*
X17261791Y-19211000D01*
X17233220Y-19225286D01*
X17218934Y-19239572D01*
X17204649Y-19268143D01*
X17504649Y-19396714D02*
X17504649Y-19196714D01*
X17504649Y-19225286D02*
X17518934Y-19211000D01*
X17547506Y-19196714D01*
X17590363Y-19196714D01*
X17618934Y-19211000D01*
X17633220Y-19239572D01*
X17633220Y-19396714D01*
X17633220Y-19239572D02*
X17647506Y-19211000D01*
X17676077Y-19196714D01*
X17718934Y-19196714D01*
X17747506Y-19211000D01*
X17761791Y-19239572D01*
X17761791Y-19396714D01*
X17904649Y-19396714D02*
X17904649Y-19196714D01*
X17904649Y-19225286D02*
X17918934Y-19211000D01*
X17947506Y-19196714D01*
X17990363Y-19196714D01*
X18018934Y-19211000D01*
X18033220Y-19239572D01*
X18033220Y-19396714D01*
X18033220Y-19239572D02*
X18047506Y-19211000D01*
X18076077Y-19196714D01*
X18118934Y-19196714D01*
X18147506Y-19211000D01*
X18161791Y-19239572D01*
X18161791Y-19396714D01*
X18747506Y-19082429D02*
X18490363Y-19468143D01*
X19133220Y-19096714D02*
X19161791Y-19096714D01*
X19190363Y-19111000D01*
X19204648Y-19125286D01*
X19218934Y-19153857D01*
X19233220Y-19211000D01*
X19233220Y-19282429D01*
X19218934Y-19339572D01*
X19204648Y-19368143D01*
X19190363Y-19382429D01*
X19161791Y-19396714D01*
X19133220Y-19396714D01*
X19104648Y-19382429D01*
X19090363Y-19368143D01*
X19076077Y-19339572D01*
X19061791Y-19282429D01*
X19061791Y-19211000D01*
X19076077Y-19153857D01*
X19090363Y-19125286D01*
X19104648Y-19111000D01*
X19133220Y-19096714D01*
X19361791Y-19368143D02*
X19376077Y-19382429D01*
X19361791Y-19396714D01*
X19347506Y-19382429D01*
X19361791Y-19368143D01*
X19361791Y-19396714D01*
X19561791Y-19096714D02*
X19590363Y-19096714D01*
X19618934Y-19111000D01*
X19633220Y-19125286D01*
X19647506Y-19153857D01*
X19661791Y-19211000D01*
X19661791Y-19282429D01*
X19647506Y-19339572D01*
X19633220Y-19368143D01*
X19618934Y-19382429D01*
X19590363Y-19396714D01*
X19561791Y-19396714D01*
X19533220Y-19382429D01*
X19518934Y-19368143D01*
X19504648Y-19339572D01*
X19490363Y-19282429D01*
X19490363Y-19211000D01*
X19504648Y-19153857D01*
X19518934Y-19125286D01*
X19533220Y-19111000D01*
X19561791Y-19096714D01*
X19761791Y-19096714D02*
X19947506Y-19096714D01*
X19847506Y-19211000D01*
X19890363Y-19211000D01*
X19918934Y-19225286D01*
X19933220Y-19239572D01*
X19947506Y-19268143D01*
X19947506Y-19339572D01*
X19933220Y-19368143D01*
X19918934Y-19382429D01*
X19890363Y-19396714D01*
X19804648Y-19396714D01*
X19776077Y-19382429D01*
X19761791Y-19368143D01*
X20133220Y-19096714D02*
X20161791Y-19096714D01*
X20190363Y-19111000D01*
X20204648Y-19125286D01*
X20218934Y-19153857D01*
X20233220Y-19211000D01*
X20233220Y-19282429D01*
X20218934Y-19339572D01*
X20204648Y-19368143D01*
X20190363Y-19382429D01*
X20161791Y-19396714D01*
X20133220Y-19396714D01*
X20104648Y-19382429D01*
X20090363Y-19368143D01*
X20076077Y-19339572D01*
X20061791Y-19282429D01*
X20061791Y-19211000D01*
X20076077Y-19153857D01*
X20090363Y-19125286D01*
X20104648Y-19111000D01*
X20133220Y-19096714D01*
X20347506Y-19096714D02*
X20347506Y-19153857D01*
X20461791Y-19096714D02*
X20461791Y-19153857D01*
X20904648Y-19511000D02*
X20890363Y-19496714D01*
X20861791Y-19453857D01*
X20847506Y-19425286D01*
X20833220Y-19382429D01*
X20818934Y-19311000D01*
X20818934Y-19253857D01*
X20833220Y-19182429D01*
X20847506Y-19139572D01*
X20861791Y-19111000D01*
X20890363Y-19068143D01*
X20904648Y-19053857D01*
X21176077Y-19396714D02*
X21004648Y-19396714D01*
X21090363Y-19396714D02*
X21090363Y-19096714D01*
X21061791Y-19139572D01*
X21033220Y-19168143D01*
X21004648Y-19182429D01*
X21347506Y-19225286D02*
X21318934Y-19211000D01*
X21304648Y-19196714D01*
X21290363Y-19168143D01*
X21290363Y-19153857D01*
X21304648Y-19125286D01*
X21318934Y-19111000D01*
X21347506Y-19096714D01*
X21404648Y-19096714D01*
X21433220Y-19111000D01*
X21447506Y-19125286D01*
X21461791Y-19153857D01*
X21461791Y-19168143D01*
X21447506Y-19196714D01*
X21433220Y-19211000D01*
X21404648Y-19225286D01*
X21347506Y-19225286D01*
X21318934Y-19239572D01*
X21304648Y-19253857D01*
X21290363Y-19282429D01*
X21290363Y-19339572D01*
X21304648Y-19368143D01*
X21318934Y-19382429D01*
X21347506Y-19396714D01*
X21404648Y-19396714D01*
X21433220Y-19382429D01*
X21447506Y-19368143D01*
X21461791Y-19339572D01*
X21461791Y-19282429D01*
X21447506Y-19253857D01*
X21433220Y-19239572D01*
X21404648Y-19225286D01*
X21818934Y-19396714D02*
X21818934Y-19096714D01*
X21947506Y-19396714D02*
X21947506Y-19239572D01*
X21933220Y-19211000D01*
X21904648Y-19196714D01*
X21861791Y-19196714D01*
X21833220Y-19211000D01*
X21818934Y-19225286D01*
X22133220Y-19396714D02*
X22104648Y-19382429D01*
X22090363Y-19368143D01*
X22076077Y-19339572D01*
X22076077Y-19253857D01*
X22090363Y-19225286D01*
X22104648Y-19211000D01*
X22133220Y-19196714D01*
X22176077Y-19196714D01*
X22204648Y-19211000D01*
X22218934Y-19225286D01*
X22233220Y-19253857D01*
X22233220Y-19339572D01*
X22218934Y-19368143D01*
X22204648Y-19382429D01*
X22176077Y-19396714D01*
X22133220Y-19396714D01*
X22404648Y-19396714D02*
X22376077Y-19382429D01*
X22361791Y-19353857D01*
X22361791Y-19096714D01*
X22633220Y-19382429D02*
X22604648Y-19396714D01*
X22547506Y-19396714D01*
X22518934Y-19382429D01*
X22504648Y-19353857D01*
X22504648Y-19239572D01*
X22518934Y-19211000D01*
X22547506Y-19196714D01*
X22604648Y-19196714D01*
X22633220Y-19211000D01*
X22647506Y-19239572D01*
X22647506Y-19268143D01*
X22504648Y-19296714D01*
X22761791Y-19382429D02*
X22790363Y-19396714D01*
X22847506Y-19396714D01*
X22876077Y-19382429D01*
X22890363Y-19353857D01*
X22890363Y-19339572D01*
X22876077Y-19311000D01*
X22847506Y-19296714D01*
X22804648Y-19296714D01*
X22776077Y-19282429D01*
X22761791Y-19253857D01*
X22761791Y-19239572D01*
X22776077Y-19211000D01*
X22804648Y-19196714D01*
X22847506Y-19196714D01*
X22876077Y-19211000D01*
X22990363Y-19511000D02*
X23004648Y-19496714D01*
X23033220Y-19453857D01*
X23047506Y-19425286D01*
X23061791Y-19382429D01*
X23076077Y-19311000D01*
X23076077Y-19253857D01*
X23061791Y-19182429D01*
X23047506Y-19139572D01*
X23033220Y-19111000D01*
X23004648Y-19068143D01*
X22990363Y-19053857D01*
X16183220Y-19607000D02*
X16183220Y-19707000D01*
X16133220Y-19657000D02*
X16233220Y-19657000D01*
X16661791Y-19792714D02*
X16490363Y-19792714D01*
X16576077Y-19792714D02*
X16576077Y-19492714D01*
X16547506Y-19535572D01*
X16518934Y-19564143D01*
X16490363Y-19578429D01*
X16790363Y-19764143D02*
X16804649Y-19778429D01*
X16790363Y-19792714D01*
X16776077Y-19778429D01*
X16790363Y-19764143D01*
X16790363Y-19792714D01*
X16990363Y-19492714D02*
X17018934Y-19492714D01*
X17047506Y-19507000D01*
X17061791Y-19521286D01*
X17076077Y-19549857D01*
X17090363Y-19607000D01*
X17090363Y-19678429D01*
X17076077Y-19735572D01*
X17061791Y-19764143D01*
X17047506Y-19778429D01*
X17018934Y-19792714D01*
X16990363Y-19792714D01*
X16961791Y-19778429D01*
X16947506Y-19764143D01*
X16933220Y-19735572D01*
X16918934Y-19678429D01*
X16918934Y-19607000D01*
X16933220Y-19549857D01*
X16947506Y-19521286D01*
X16961791Y-19507000D01*
X16990363Y-19492714D01*
X17276077Y-19492714D02*
X17304649Y-19492714D01*
X17333220Y-19507000D01*
X17347506Y-19521286D01*
X17361791Y-19549857D01*
X17376077Y-19607000D01*
X17376077Y-19678429D01*
X17361791Y-19735572D01*
X17347506Y-19764143D01*
X17333220Y-19778429D01*
X17304649Y-19792714D01*
X17276077Y-19792714D01*
X17247506Y-19778429D01*
X17233220Y-19764143D01*
X17218934Y-19735572D01*
X17204649Y-19678429D01*
X17204649Y-19607000D01*
X17218934Y-19549857D01*
X17233220Y-19521286D01*
X17247506Y-19507000D01*
X17276077Y-19492714D01*
X17504649Y-19792714D02*
X17504649Y-19592714D01*
X17504649Y-19621286D02*
X17518934Y-19607000D01*
X17547506Y-19592714D01*
X17590363Y-19592714D01*
X17618934Y-19607000D01*
X17633220Y-19635572D01*
X17633220Y-19792714D01*
X17633220Y-19635572D02*
X17647506Y-19607000D01*
X17676077Y-19592714D01*
X17718934Y-19592714D01*
X17747506Y-19607000D01*
X17761791Y-19635572D01*
X17761791Y-19792714D01*
X17904649Y-19792714D02*
X17904649Y-19592714D01*
X17904649Y-19621286D02*
X17918934Y-19607000D01*
X17947506Y-19592714D01*
X17990363Y-19592714D01*
X18018934Y-19607000D01*
X18033220Y-19635572D01*
X18033220Y-19792714D01*
X18033220Y-19635572D02*
X18047506Y-19607000D01*
X18076077Y-19592714D01*
X18118934Y-19592714D01*
X18147506Y-19607000D01*
X18161791Y-19635572D01*
X18161791Y-19792714D01*
X18747506Y-19478429D02*
X18490363Y-19864143D01*
X19133220Y-19492714D02*
X19161791Y-19492714D01*
X19190363Y-19507000D01*
X19204648Y-19521286D01*
X19218934Y-19549857D01*
X19233220Y-19607000D01*
X19233220Y-19678429D01*
X19218934Y-19735572D01*
X19204648Y-19764143D01*
X19190363Y-19778429D01*
X19161791Y-19792714D01*
X19133220Y-19792714D01*
X19104648Y-19778429D01*
X19090363Y-19764143D01*
X19076077Y-19735572D01*
X19061791Y-19678429D01*
X19061791Y-19607000D01*
X19076077Y-19549857D01*
X19090363Y-19521286D01*
X19104648Y-19507000D01*
X19133220Y-19492714D01*
X19361791Y-19764143D02*
X19376077Y-19778429D01*
X19361791Y-19792714D01*
X19347506Y-19778429D01*
X19361791Y-19764143D01*
X19361791Y-19792714D01*
X19561791Y-19492714D02*
X19590363Y-19492714D01*
X19618934Y-19507000D01*
X19633220Y-19521286D01*
X19647506Y-19549857D01*
X19661791Y-19607000D01*
X19661791Y-19678429D01*
X19647506Y-19735572D01*
X19633220Y-19764143D01*
X19618934Y-19778429D01*
X19590363Y-19792714D01*
X19561791Y-19792714D01*
X19533220Y-19778429D01*
X19518934Y-19764143D01*
X19504648Y-19735572D01*
X19490363Y-19678429D01*
X19490363Y-19607000D01*
X19504648Y-19549857D01*
X19518934Y-19521286D01*
X19533220Y-19507000D01*
X19561791Y-19492714D01*
X19761791Y-19492714D02*
X19947506Y-19492714D01*
X19847506Y-19607000D01*
X19890363Y-19607000D01*
X19918934Y-19621286D01*
X19933220Y-19635572D01*
X19947506Y-19664143D01*
X19947506Y-19735572D01*
X19933220Y-19764143D01*
X19918934Y-19778429D01*
X19890363Y-19792714D01*
X19804648Y-19792714D01*
X19776077Y-19778429D01*
X19761791Y-19764143D01*
X20090363Y-19792714D02*
X20147506Y-19792714D01*
X20176077Y-19778429D01*
X20190363Y-19764143D01*
X20218934Y-19721286D01*
X20233220Y-19664143D01*
X20233220Y-19549857D01*
X20218934Y-19521286D01*
X20204648Y-19507000D01*
X20176077Y-19492714D01*
X20118934Y-19492714D01*
X20090363Y-19507000D01*
X20076077Y-19521286D01*
X20061791Y-19549857D01*
X20061791Y-19621286D01*
X20076077Y-19649857D01*
X20090363Y-19664143D01*
X20118934Y-19678429D01*
X20176077Y-19678429D01*
X20204648Y-19664143D01*
X20218934Y-19649857D01*
X20233220Y-19621286D01*
X20347506Y-19492714D02*
X20347506Y-19549857D01*
X20461791Y-19492714D02*
X20461791Y-19549857D01*
X20904648Y-19907000D02*
X20890363Y-19892714D01*
X20861791Y-19849857D01*
X20847506Y-19821286D01*
X20833220Y-19778429D01*
X20818934Y-19707000D01*
X20818934Y-19649857D01*
X20833220Y-19578429D01*
X20847506Y-19535572D01*
X20861791Y-19507000D01*
X20890363Y-19464143D01*
X20904648Y-19449857D01*
X20990363Y-19492714D02*
X21190363Y-19492714D01*
X21061791Y-19792714D01*
X21533220Y-19792714D02*
X21533220Y-19492714D01*
X21661791Y-19792714D02*
X21661791Y-19635572D01*
X21647506Y-19607000D01*
X21618934Y-19592714D01*
X21576077Y-19592714D01*
X21547506Y-19607000D01*
X21533220Y-19621286D01*
X21847506Y-19792714D02*
X21818934Y-19778429D01*
X21804648Y-19764143D01*
X21790363Y-19735572D01*
X21790363Y-19649857D01*
X21804648Y-19621286D01*
X21818934Y-19607000D01*
X21847506Y-19592714D01*
X21890363Y-19592714D01*
X21918934Y-19607000D01*
X21933220Y-19621286D01*
X21947506Y-19649857D01*
X21947506Y-19735572D01*
X21933220Y-19764143D01*
X21918934Y-19778429D01*
X21890363Y-19792714D01*
X21847506Y-19792714D01*
X22118934Y-19792714D02*
X22090363Y-19778429D01*
X22076077Y-19749857D01*
X22076077Y-19492714D01*
X22347506Y-19778429D02*
X22318934Y-19792714D01*
X22261791Y-19792714D01*
X22233220Y-19778429D01*
X22218934Y-19749857D01*
X22218934Y-19635572D01*
X22233220Y-19607000D01*
X22261791Y-19592714D01*
X22318934Y-19592714D01*
X22347506Y-19607000D01*
X22361791Y-19635572D01*
X22361791Y-19664143D01*
X22218934Y-19692714D01*
X22476077Y-19778429D02*
X22504648Y-19792714D01*
X22561791Y-19792714D01*
X22590363Y-19778429D01*
X22604648Y-19749857D01*
X22604648Y-19735572D01*
X22590363Y-19707000D01*
X22561791Y-19692714D01*
X22518934Y-19692714D01*
X22490363Y-19678429D01*
X22476077Y-19649857D01*
X22476077Y-19635572D01*
X22490363Y-19607000D01*
X22518934Y-19592714D01*
X22561791Y-19592714D01*
X22590363Y-19607000D01*
X22704648Y-19907000D02*
X22718934Y-19892714D01*
X22747506Y-19849857D01*
X22761791Y-19821286D01*
X22776077Y-19778429D01*
X22790363Y-19707000D01*
X22790363Y-19649857D01*
X22776077Y-19578429D01*
X22761791Y-19535572D01*
X22747506Y-19507000D01*
X22718934Y-19464143D01*
X22704648Y-19449857D01*
X16218341Y-20088922D02*
X16218341Y-20017079D01*
X16146498Y-20017079D01*
X16146498Y-20088922D01*
X16218341Y-20088922D01*
X16661791Y-20188714D02*
X16490363Y-20188714D01*
X16576077Y-20188714D02*
X16576077Y-19888714D01*
X16547506Y-19931572D01*
X16518934Y-19960143D01*
X16490363Y-19974429D01*
X16790363Y-20160143D02*
X16804649Y-20174429D01*
X16790363Y-20188714D01*
X16776077Y-20174429D01*
X16790363Y-20160143D01*
X16790363Y-20188714D01*
X16990363Y-19888714D02*
X17018934Y-19888714D01*
X17047506Y-19903000D01*
X17061791Y-19917286D01*
X17076077Y-19945857D01*
X17090363Y-20003000D01*
X17090363Y-20074429D01*
X17076077Y-20131572D01*
X17061791Y-20160143D01*
X17047506Y-20174429D01*
X17018934Y-20188714D01*
X16990363Y-20188714D01*
X16961791Y-20174429D01*
X16947506Y-20160143D01*
X16933220Y-20131572D01*
X16918934Y-20074429D01*
X16918934Y-20003000D01*
X16933220Y-19945857D01*
X16947506Y-19917286D01*
X16961791Y-19903000D01*
X16990363Y-19888714D01*
X17204649Y-19917286D02*
X17218934Y-19903000D01*
X17247506Y-19888714D01*
X17318934Y-19888714D01*
X17347506Y-19903000D01*
X17361791Y-19917286D01*
X17376077Y-19945857D01*
X17376077Y-19974429D01*
X17361791Y-20017286D01*
X17190363Y-20188714D01*
X17376077Y-20188714D01*
X17504649Y-20188714D02*
X17504649Y-19988714D01*
X17504649Y-20017286D02*
X17518934Y-20003000D01*
X17547506Y-19988714D01*
X17590363Y-19988714D01*
X17618934Y-20003000D01*
X17633220Y-20031572D01*
X17633220Y-20188714D01*
X17633220Y-20031572D02*
X17647506Y-20003000D01*
X17676077Y-19988714D01*
X17718934Y-19988714D01*
X17747506Y-20003000D01*
X17761791Y-20031572D01*
X17761791Y-20188714D01*
X17904649Y-20188714D02*
X17904649Y-19988714D01*
X17904649Y-20017286D02*
X17918934Y-20003000D01*
X17947506Y-19988714D01*
X17990363Y-19988714D01*
X18018934Y-20003000D01*
X18033220Y-20031572D01*
X18033220Y-20188714D01*
X18033220Y-20031572D02*
X18047506Y-20003000D01*
X18076077Y-19988714D01*
X18118934Y-19988714D01*
X18147506Y-20003000D01*
X18161791Y-20031572D01*
X18161791Y-20188714D01*
X18747506Y-19874429D02*
X18490363Y-20260143D01*
X19133220Y-19888714D02*
X19161791Y-19888714D01*
X19190363Y-19903000D01*
X19204648Y-19917286D01*
X19218934Y-19945857D01*
X19233220Y-20003000D01*
X19233220Y-20074429D01*
X19218934Y-20131572D01*
X19204648Y-20160143D01*
X19190363Y-20174429D01*
X19161791Y-20188714D01*
X19133220Y-20188714D01*
X19104648Y-20174429D01*
X19090363Y-20160143D01*
X19076077Y-20131572D01*
X19061791Y-20074429D01*
X19061791Y-20003000D01*
X19076077Y-19945857D01*
X19090363Y-19917286D01*
X19104648Y-19903000D01*
X19133220Y-19888714D01*
X19361791Y-20160143D02*
X19376077Y-20174429D01*
X19361791Y-20188714D01*
X19347506Y-20174429D01*
X19361791Y-20160143D01*
X19361791Y-20188714D01*
X19561791Y-19888714D02*
X19590363Y-19888714D01*
X19618934Y-19903000D01*
X19633220Y-19917286D01*
X19647506Y-19945857D01*
X19661791Y-20003000D01*
X19661791Y-20074429D01*
X19647506Y-20131572D01*
X19633220Y-20160143D01*
X19618934Y-20174429D01*
X19590363Y-20188714D01*
X19561791Y-20188714D01*
X19533220Y-20174429D01*
X19518934Y-20160143D01*
X19504648Y-20131572D01*
X19490363Y-20074429D01*
X19490363Y-20003000D01*
X19504648Y-19945857D01*
X19518934Y-19917286D01*
X19533220Y-19903000D01*
X19561791Y-19888714D01*
X19918934Y-19988714D02*
X19918934Y-20188714D01*
X19847506Y-19874429D02*
X19776077Y-20088714D01*
X19961791Y-20088714D01*
X20133220Y-19888714D02*
X20161791Y-19888714D01*
X20190363Y-19903000D01*
X20204648Y-19917286D01*
X20218934Y-19945857D01*
X20233220Y-20003000D01*
X20233220Y-20074429D01*
X20218934Y-20131572D01*
X20204648Y-20160143D01*
X20190363Y-20174429D01*
X20161791Y-20188714D01*
X20133220Y-20188714D01*
X20104648Y-20174429D01*
X20090363Y-20160143D01*
X20076077Y-20131572D01*
X20061791Y-20074429D01*
X20061791Y-20003000D01*
X20076077Y-19945857D01*
X20090363Y-19917286D01*
X20104648Y-19903000D01*
X20133220Y-19888714D01*
X20347506Y-19888714D02*
X20347506Y-19945857D01*
X20461791Y-19888714D02*
X20461791Y-19945857D01*
X20904648Y-20303000D02*
X20890363Y-20288714D01*
X20861791Y-20245857D01*
X20847506Y-20217286D01*
X20833220Y-20174429D01*
X20818934Y-20103000D01*
X20818934Y-20045857D01*
X20833220Y-19974429D01*
X20847506Y-19931572D01*
X20861791Y-19903000D01*
X20890363Y-19860143D01*
X20904648Y-19845857D01*
X21004648Y-19917286D02*
X21018934Y-19903000D01*
X21047506Y-19888714D01*
X21118934Y-19888714D01*
X21147506Y-19903000D01*
X21161791Y-19917286D01*
X21176077Y-19945857D01*
X21176077Y-19974429D01*
X21161791Y-20017286D01*
X20990363Y-20188714D01*
X21176077Y-20188714D01*
X21276077Y-19888714D02*
X21476077Y-19888714D01*
X21347506Y-20188714D01*
X21818934Y-20188714D02*
X21818934Y-19888714D01*
X21947506Y-20188714D02*
X21947506Y-20031572D01*
X21933220Y-20003000D01*
X21904648Y-19988714D01*
X21861791Y-19988714D01*
X21833220Y-20003000D01*
X21818934Y-20017286D01*
X22133220Y-20188714D02*
X22104648Y-20174429D01*
X22090363Y-20160143D01*
X22076077Y-20131572D01*
X22076077Y-20045857D01*
X22090363Y-20017286D01*
X22104648Y-20003000D01*
X22133220Y-19988714D01*
X22176077Y-19988714D01*
X22204648Y-20003000D01*
X22218934Y-20017286D01*
X22233220Y-20045857D01*
X22233220Y-20131572D01*
X22218934Y-20160143D01*
X22204648Y-20174429D01*
X22176077Y-20188714D01*
X22133220Y-20188714D01*
X22404648Y-20188714D02*
X22376077Y-20174429D01*
X22361791Y-20145857D01*
X22361791Y-19888714D01*
X22633220Y-20174429D02*
X22604648Y-20188714D01*
X22547506Y-20188714D01*
X22518934Y-20174429D01*
X22504648Y-20145857D01*
X22504648Y-20031572D01*
X22518934Y-20003000D01*
X22547506Y-19988714D01*
X22604648Y-19988714D01*
X22633220Y-20003000D01*
X22647506Y-20031572D01*
X22647506Y-20060143D01*
X22504648Y-20088714D01*
X22761791Y-20174429D02*
X22790363Y-20188714D01*
X22847506Y-20188714D01*
X22876077Y-20174429D01*
X22890363Y-20145857D01*
X22890363Y-20131572D01*
X22876077Y-20103000D01*
X22847506Y-20088714D01*
X22804648Y-20088714D01*
X22776077Y-20074429D01*
X22761791Y-20045857D01*
X22761791Y-20031572D01*
X22776077Y-20003000D01*
X22804648Y-19988714D01*
X22847506Y-19988714D01*
X22876077Y-20003000D01*
X22990363Y-20303000D02*
X23004648Y-20288714D01*
X23033220Y-20245857D01*
X23047506Y-20217286D01*
X23061791Y-20174429D01*
X23076077Y-20103000D01*
X23076077Y-20045857D01*
X23061791Y-19974429D01*
X23047506Y-19931572D01*
X23033220Y-19903000D01*
X23004648Y-19860143D01*
X22990363Y-19845857D01*
M02*
