M48
;DRILL file {KiCad 4.0.7} date Monday, July 02, 2018 'PMt' 09:22:08 PM
;FORMAT={-:-/ absolute / metric / decimal}
FMAT,2
METRIC,TZ
T1C0.400
T2C0.762
T3C1.000
T4C1.016
%
G90
G05
M71
T1
X173.355Y-135.763
X173.355Y-137.795
X176.8Y-145.2
X177.7Y-146.4
X179.197Y-123.825
X180.Y-142.8
X180.6Y-131.1
X183.9Y-145.4
X184.7Y-144.9
X184.8Y-143.9
X185.Y-151.3
X186.2Y-150.2
X187.1Y-151.6
X187.9Y-131.2
X188.341Y-122.395
X189.9Y-131.2
X190.881Y-122.6
X191.008Y-147.447
X193.421Y-122.6
X195.961Y-122.395
X197.2Y-131.1
X197.4Y-127.
X197.739Y-140.335
X199.39Y-131.1
X200.2Y-113.8
X202.3Y-126.65
X204.85Y-126.5
X205.74Y-144.145
X206.121Y-122.395
X206.15Y-139.3
X206.7Y-131.
X207.645Y-144.145
X208.661Y-122.395
X209.169Y-144.272
X211.201Y-122.395
X213.487Y-144.78
X214.757Y-144.78
X216.535Y-144.78
X219.7Y-173.65
X227.457Y-146.431
X230.4Y-158.8
X230.6Y-151.7
X231.013Y-118.745
X232.156Y-154.94
X236.7Y-154.7
T2
X164.322Y-130.542
X164.322Y-133.082
X164.322Y-135.622
X164.322Y-138.162
X164.322Y-140.702
X164.322Y-143.242
X164.322Y-145.782
X164.322Y-148.322
X164.322Y-150.862
X164.322Y-153.402
X164.322Y-155.942
X164.322Y-158.482
X164.322Y-161.022
X164.322Y-163.562
X237.562Y-143.242
X237.562Y-145.782
X237.562Y-148.322
X237.562Y-150.862
T3
X183.642Y-112.395
X183.642Y-114.935
X183.642Y-117.475
X191.389Y-160.401
X191.389Y-162.941
X191.389Y-165.481
X191.389Y-168.021
T4
X200.025Y-170.764
X202.565Y-170.764
X205.105Y-170.764
X207.645Y-170.764
X210.185Y-170.764
X212.725Y-170.764
X215.265Y-122.504
X215.265Y-170.764
X217.805Y-122.504
X220.345Y-122.504
X220.345Y-170.764
X222.885Y-122.504
X222.885Y-170.764
X225.425Y-122.504
X225.425Y-170.764
X227.965Y-122.504
X227.965Y-170.764
X230.505Y-122.504
X230.505Y-170.764
X233.045Y-122.504
X233.045Y-142.824
X233.045Y-145.364
X233.045Y-147.904
X233.045Y-170.764
X235.585Y-142.824
X235.585Y-145.364
X235.585Y-147.904
T0
M30
