G04 #@! TF.FileFunction,Paste,Top*
%FSLAX46Y46*%
G04 Gerber Fmt 4.6, Leading zero omitted, Abs format (unit mm)*
G04 Created by KiCad (PCBNEW 4.0.7) date Monday, July 02, 2018 'PMt' 09:22:05 PM*
%MOMM*%
%LPD*%
G01*
G04 APERTURE LIST*
%ADD10C,0.100000*%
%ADD11R,1.000000X2.510000*%
%ADD12R,1.250000X1.000000*%
%ADD13R,1.000000X1.250000*%
%ADD14R,1.200000X1.200000*%
%ADD15R,0.700000X1.300000*%
%ADD16R,0.600000X1.550000*%
%ADD17R,1.450000X0.450000*%
%ADD18R,1.000000X0.500000*%
%ADD19R,0.600000X1.200000*%
G04 APERTURE END LIST*
D10*
D11*
X198501000Y-120840000D03*
X206121000Y-124150000D03*
X208661000Y-124150000D03*
X211201000Y-124150000D03*
X211201000Y-120840000D03*
X208661000Y-120840000D03*
X206121000Y-120840000D03*
X188341000Y-124150000D03*
X190881000Y-124150000D03*
X193421000Y-124150000D03*
X195961000Y-124150000D03*
X188341000Y-120840000D03*
X190881000Y-120840000D03*
X193421000Y-120840000D03*
X195961000Y-120840000D03*
X201041000Y-124150000D03*
X198501000Y-124150000D03*
X201041000Y-120840000D03*
X203581000Y-124150000D03*
X203581000Y-120840000D03*
D12*
X198550000Y-115900000D03*
X198550000Y-113900000D03*
D13*
X183600000Y-142700000D03*
X181600000Y-142700000D03*
X194453000Y-140843000D03*
X196453000Y-140843000D03*
D14*
X235161000Y-118745000D03*
X232961000Y-118745000D03*
D15*
X233365000Y-116840000D03*
X235265000Y-116840000D03*
X183200000Y-147900000D03*
X181300000Y-147900000D03*
X232145800Y-150926800D03*
X234045800Y-150926800D03*
X234147400Y-153136600D03*
X232247400Y-153136600D03*
D16*
X195805000Y-112300000D03*
X194535000Y-112300000D03*
X193265000Y-112300000D03*
X191995000Y-112300000D03*
X191995000Y-117700000D03*
X193265000Y-117700000D03*
X194535000Y-117700000D03*
X195805000Y-117700000D03*
D17*
X186508600Y-141601000D03*
X186508600Y-142251000D03*
X186508600Y-142901000D03*
X186508600Y-143551000D03*
X186508600Y-144201000D03*
X186508600Y-144851000D03*
X186508600Y-145501000D03*
X186508600Y-146151000D03*
X186508600Y-146801000D03*
X186508600Y-147451000D03*
X192408600Y-147451000D03*
X192408600Y-146801000D03*
X192408600Y-146151000D03*
X192408600Y-145501000D03*
X192408600Y-144851000D03*
X192408600Y-144201000D03*
X192408600Y-143551000D03*
X192408600Y-142901000D03*
X192408600Y-142251000D03*
X192408600Y-141601000D03*
D15*
X189799000Y-115294000D03*
X187899000Y-115294000D03*
X189799000Y-117453000D03*
X187899000Y-117453000D03*
X217500000Y-173650000D03*
X218300000Y-173650000D03*
D18*
X180619400Y-129870200D03*
D19*
X181675400Y-129013200D03*
X184675400Y-129013200D03*
X186175400Y-129013200D03*
D18*
X180619400Y-132156200D03*
X187858400Y-132156200D03*
X187858400Y-129870200D03*
X189966600Y-129895600D03*
D19*
X191022600Y-129038600D03*
X194022600Y-129038600D03*
X195522600Y-129038600D03*
D18*
X189966600Y-132181600D03*
X197205600Y-132181600D03*
X197205600Y-129895600D03*
X199390000Y-129946400D03*
D19*
X200446000Y-129089400D03*
X203446000Y-129089400D03*
X204946000Y-129089400D03*
D18*
X199390000Y-132232400D03*
X206629000Y-132232400D03*
X206629000Y-129946400D03*
M02*
