G04 #@! TF.FileFunction,Other,Fab,Bot*
%FSLAX46Y46*%
G04 Gerber Fmt 4.6, Leading zero omitted, Abs format (unit mm)*
G04 Created by KiCad (PCBNEW 4.0.7) date Monday, July 02, 2018 'PMt' 09:22:05 PM*
%MOMM*%
%LPD*%
G01*
G04 APERTURE LIST*
%ADD10C,0.100000*%
%ADD11C,0.150000*%
G04 APERTURE END LIST*
D10*
D11*
X229489000Y-168148000D02*
X229489000Y-125857000D01*
X180721000Y-167259000D02*
X180721000Y-168148000D01*
X180721000Y-168148000D02*
X229489000Y-168148000D01*
X229489000Y-125857000D02*
X180721000Y-125857000D01*
X180721000Y-167259000D02*
X180721000Y-125857000D01*
D10*
X183007000Y-118745000D02*
X184912000Y-118745000D01*
X184912000Y-118745000D02*
X184912000Y-111125000D01*
X184912000Y-111125000D02*
X182372000Y-111125000D01*
X182372000Y-111125000D02*
X182372000Y-118110000D01*
X182372000Y-118110000D02*
X183007000Y-118745000D01*
X212510000Y-123765000D02*
X212510000Y-121225000D01*
X187110000Y-122175000D02*
X187110000Y-123765000D01*
X212510000Y-121225000D02*
X188060000Y-121225000D01*
X188060000Y-121225000D02*
X187110000Y-122175000D01*
X187110000Y-123765000D02*
X212510000Y-123765000D01*
X188060000Y-121225000D02*
X188060000Y-119955000D01*
X188060000Y-119955000D02*
X188700000Y-119955000D01*
X188700000Y-119955000D02*
X188700000Y-121225000D01*
X193140000Y-121225000D02*
X193140000Y-119955000D01*
X193140000Y-119955000D02*
X193780000Y-119955000D01*
X193780000Y-119955000D02*
X193780000Y-121225000D01*
X198220000Y-121225000D02*
X198220000Y-119955000D01*
X198220000Y-119955000D02*
X198860000Y-119955000D01*
X198860000Y-119955000D02*
X198860000Y-121225000D01*
X203300000Y-121225000D02*
X203300000Y-119955000D01*
X203300000Y-119955000D02*
X203940000Y-119955000D01*
X203940000Y-119955000D02*
X203940000Y-121225000D01*
X208380000Y-121225000D02*
X208380000Y-119955000D01*
X208380000Y-119955000D02*
X209020000Y-119955000D01*
X209020000Y-119955000D02*
X209020000Y-121225000D01*
X190600000Y-123765000D02*
X190600000Y-125035000D01*
X190600000Y-125035000D02*
X191240000Y-125035000D01*
X191240000Y-125035000D02*
X191240000Y-123765000D01*
X195680000Y-123765000D02*
X195680000Y-125035000D01*
X195680000Y-125035000D02*
X196320000Y-125035000D01*
X196320000Y-125035000D02*
X196320000Y-123765000D01*
X200760000Y-123765000D02*
X200760000Y-125035000D01*
X200760000Y-125035000D02*
X201400000Y-125035000D01*
X201400000Y-125035000D02*
X201400000Y-123765000D01*
X205840000Y-123765000D02*
X205840000Y-125035000D01*
X205840000Y-125035000D02*
X206480000Y-125035000D01*
X206480000Y-125035000D02*
X206480000Y-123765000D01*
X210920000Y-123765000D02*
X210920000Y-125035000D01*
X210920000Y-125035000D02*
X211560000Y-125035000D01*
X211560000Y-125035000D02*
X211560000Y-123765000D01*
X237732952Y-122550095D02*
X237694857Y-122512000D01*
X237618666Y-122473905D01*
X237428190Y-122473905D01*
X237352000Y-122512000D01*
X237313904Y-122550095D01*
X237275809Y-122626286D01*
X237275809Y-122702476D01*
X237313904Y-122816762D01*
X237771047Y-123273905D01*
X237275809Y-123273905D01*
X236932952Y-123197714D02*
X236894857Y-123235810D01*
X236932952Y-123273905D01*
X236971047Y-123235810D01*
X236932952Y-123197714D01*
X236932952Y-123273905D01*
X236209143Y-122740571D02*
X236209143Y-123273905D01*
X236399619Y-122435810D02*
X236590095Y-123007238D01*
X236094857Y-123007238D01*
X235904381Y-122473905D02*
X235447238Y-122473905D01*
X235675809Y-123273905D02*
X235675809Y-122473905D01*
X234913904Y-122854857D02*
X235180571Y-122854857D01*
X235180571Y-123273905D02*
X235180571Y-122473905D01*
X234799618Y-122473905D01*
X234609143Y-122473905D02*
X234152000Y-122473905D01*
X234380571Y-123273905D02*
X234380571Y-122473905D01*
X234075809Y-123350095D02*
X233466285Y-123350095D01*
X232894856Y-123273905D02*
X233275809Y-123273905D01*
X233275809Y-122473905D01*
X232171047Y-123197714D02*
X232209142Y-123235810D01*
X232323428Y-123273905D01*
X232399618Y-123273905D01*
X232513904Y-123235810D01*
X232590095Y-123159619D01*
X232628190Y-123083429D01*
X232666285Y-122931048D01*
X232666285Y-122816762D01*
X232628190Y-122664381D01*
X232590095Y-122588190D01*
X232513904Y-122512000D01*
X232399618Y-122473905D01*
X232323428Y-122473905D01*
X232209142Y-122512000D01*
X232171047Y-122550095D01*
X231828190Y-123273905D02*
X231828190Y-122473905D01*
X231637714Y-122473905D01*
X231523428Y-122512000D01*
X231447237Y-122588190D01*
X231409142Y-122664381D01*
X231371047Y-122816762D01*
X231371047Y-122931048D01*
X231409142Y-123083429D01*
X231447237Y-123159619D01*
X231523428Y-123235810D01*
X231637714Y-123273905D01*
X231828190Y-123273905D01*
X184461047Y-110388810D02*
X184346761Y-110426905D01*
X184156285Y-110426905D01*
X184080095Y-110388810D01*
X184041999Y-110350714D01*
X184003904Y-110274524D01*
X184003904Y-110198333D01*
X184041999Y-110122143D01*
X184080095Y-110084048D01*
X184156285Y-110045952D01*
X184308666Y-110007857D01*
X184384857Y-109969762D01*
X184422952Y-109931667D01*
X184461047Y-109855476D01*
X184461047Y-109779286D01*
X184422952Y-109703095D01*
X184384857Y-109665000D01*
X184308666Y-109626905D01*
X184118190Y-109626905D01*
X184003904Y-109665000D01*
X183661047Y-110426905D02*
X183661047Y-109626905D01*
X183356285Y-109626905D01*
X183280094Y-109665000D01*
X183241999Y-109703095D01*
X183203904Y-109779286D01*
X183203904Y-109893571D01*
X183241999Y-109969762D01*
X183280094Y-110007857D01*
X183356285Y-110045952D01*
X183661047Y-110045952D01*
X182861047Y-110426905D02*
X182861047Y-109626905D01*
D11*
X183094381Y-114601667D02*
X183808667Y-114601667D01*
X183951524Y-114554047D01*
X184046762Y-114458809D01*
X184094381Y-114315952D01*
X184094381Y-114220714D01*
X184094381Y-115601667D02*
X184094381Y-115030238D01*
X184094381Y-115315952D02*
X183094381Y-115315952D01*
X183237238Y-115220714D01*
X183332476Y-115125476D01*
X183380095Y-115030238D01*
X213498571Y-118566429D02*
X213546190Y-118709286D01*
X213593810Y-118756905D01*
X213689048Y-118804524D01*
X213831905Y-118804524D01*
X213927143Y-118756905D01*
X213974762Y-118709286D01*
X214022381Y-118614048D01*
X214022381Y-118233095D01*
X213022381Y-118233095D01*
X213022381Y-118566429D01*
X213070000Y-118661667D01*
X213117619Y-118709286D01*
X213212857Y-118756905D01*
X213308095Y-118756905D01*
X213403333Y-118709286D01*
X213450952Y-118661667D01*
X213498571Y-118566429D01*
X213498571Y-118233095D01*
X214022381Y-119375952D02*
X213974762Y-119280714D01*
X213927143Y-119233095D01*
X213831905Y-119185476D01*
X213546190Y-119185476D01*
X213450952Y-119233095D01*
X213403333Y-119280714D01*
X213355714Y-119375952D01*
X213355714Y-119518810D01*
X213403333Y-119614048D01*
X213450952Y-119661667D01*
X213546190Y-119709286D01*
X213831905Y-119709286D01*
X213927143Y-119661667D01*
X213974762Y-119614048D01*
X214022381Y-119518810D01*
X214022381Y-119375952D01*
X213355714Y-119995000D02*
X213355714Y-120375952D01*
X213022381Y-120137857D02*
X213879524Y-120137857D01*
X213974762Y-120185476D01*
X214022381Y-120280714D01*
X214022381Y-120375952D01*
X213355714Y-120566429D02*
X213355714Y-120947381D01*
X213022381Y-120709286D02*
X213879524Y-120709286D01*
X213974762Y-120756905D01*
X214022381Y-120852143D01*
X214022381Y-120947381D01*
X214022381Y-121423572D02*
X213974762Y-121328334D01*
X213927143Y-121280715D01*
X213831905Y-121233096D01*
X213546190Y-121233096D01*
X213450952Y-121280715D01*
X213403333Y-121328334D01*
X213355714Y-121423572D01*
X213355714Y-121566430D01*
X213403333Y-121661668D01*
X213450952Y-121709287D01*
X213546190Y-121756906D01*
X213831905Y-121756906D01*
X213927143Y-121709287D01*
X213974762Y-121661668D01*
X214022381Y-121566430D01*
X214022381Y-121423572D01*
X214022381Y-122185477D02*
X213355714Y-122185477D01*
X213450952Y-122185477D02*
X213403333Y-122233096D01*
X213355714Y-122328334D01*
X213355714Y-122471192D01*
X213403333Y-122566430D01*
X213498571Y-122614049D01*
X214022381Y-122614049D01*
X213498571Y-122614049D02*
X213403333Y-122661668D01*
X213355714Y-122756906D01*
X213355714Y-122899763D01*
X213403333Y-122995001D01*
X213498571Y-123042620D01*
X214022381Y-123042620D01*
X213927143Y-124090239D02*
X213974762Y-124042620D01*
X214022381Y-123899763D01*
X214022381Y-123804525D01*
X213974762Y-123661667D01*
X213879524Y-123566429D01*
X213784286Y-123518810D01*
X213593810Y-123471191D01*
X213450952Y-123471191D01*
X213260476Y-123518810D01*
X213165238Y-123566429D01*
X213070000Y-123661667D01*
X213022381Y-123804525D01*
X213022381Y-123899763D01*
X213070000Y-124042620D01*
X213117619Y-124090239D01*
X214022381Y-124661667D02*
X213974762Y-124566429D01*
X213927143Y-124518810D01*
X213831905Y-124471191D01*
X213546190Y-124471191D01*
X213450952Y-124518810D01*
X213403333Y-124566429D01*
X213355714Y-124661667D01*
X213355714Y-124804525D01*
X213403333Y-124899763D01*
X213450952Y-124947382D01*
X213546190Y-124995001D01*
X213831905Y-124995001D01*
X213927143Y-124947382D01*
X213974762Y-124899763D01*
X214022381Y-124804525D01*
X214022381Y-124661667D01*
X213355714Y-125423572D02*
X214022381Y-125423572D01*
X213450952Y-125423572D02*
X213403333Y-125471191D01*
X213355714Y-125566429D01*
X213355714Y-125709287D01*
X213403333Y-125804525D01*
X213498571Y-125852144D01*
X214022381Y-125852144D01*
X213355714Y-126328334D02*
X214022381Y-126328334D01*
X213450952Y-126328334D02*
X213403333Y-126375953D01*
X213355714Y-126471191D01*
X213355714Y-126614049D01*
X213403333Y-126709287D01*
X213498571Y-126756906D01*
X214022381Y-126756906D01*
X200143333Y-121947381D02*
X200143333Y-122661667D01*
X200190953Y-122804524D01*
X200286191Y-122899762D01*
X200429048Y-122947381D01*
X200524286Y-122947381D01*
X199714762Y-122042619D02*
X199667143Y-121995000D01*
X199571905Y-121947381D01*
X199333809Y-121947381D01*
X199238571Y-121995000D01*
X199190952Y-122042619D01*
X199143333Y-122137857D01*
X199143333Y-122233095D01*
X199190952Y-122375952D01*
X199762381Y-122947381D01*
X199143333Y-122947381D01*
M02*
