%FSLAX45Y45*%
G04 Gerber Fmt 4.5, Leading zero omitted, Abs format (unit mm)*
G04 Created by KiCad (PCBNEW (5.0.0-rc2-dev-26-g0d794b2)) date Sunday, July 01, 2018 at 08:50:20 PM*
%MOMM*%
%LPD*%
G01*
G04 APERTURE LIST*
%ADD10C,0.150000*%
%ADD11C,0.200000*%
%ADD12C,0.300000*%
G04 APERTURE END LIST*
D10*
X9482911Y-16333216D02*
X9025000Y-16675000D01*
X9492911Y-16393216D02*
X9482911Y-16333216D01*
X9512911Y-16433216D02*
X9492911Y-16393216D01*
X9552911Y-16503216D02*
X9512911Y-16433216D01*
X9622911Y-16583216D02*
X9552911Y-16503216D01*
X9712911Y-16653216D02*
X9622911Y-16583216D01*
X9792911Y-16673216D02*
X9712911Y-16653216D01*
X9892911Y-16673216D02*
X9792911Y-16673216D01*
X10012911Y-16623216D02*
X9892911Y-16673216D01*
X10132911Y-16613216D02*
X10012911Y-16623216D01*
X10175000Y-16625000D02*
X10132911Y-16613216D01*
X14802911Y-16563216D02*
X14772911Y-16543216D01*
X14852911Y-16613216D02*
X14802911Y-16563216D01*
X14912911Y-16663216D02*
X14852911Y-16613216D01*
X14952911Y-16693216D02*
X14912911Y-16663216D01*
X15012911Y-16723216D02*
X14952911Y-16693216D01*
X15112911Y-16743216D02*
X15012911Y-16723216D01*
X15192911Y-16743216D02*
X15112911Y-16743216D01*
X15282911Y-16733216D02*
X15192911Y-16743216D01*
X15392911Y-16703216D02*
X15282911Y-16733216D01*
X15482911Y-16653216D02*
X15392911Y-16703216D01*
X15542911Y-16593216D02*
X15482911Y-16653216D01*
X15572911Y-16513216D02*
X15542911Y-16593216D01*
X15592911Y-16423216D02*
X15572911Y-16513216D01*
X15593911Y-16226157D02*
X15592911Y-16423216D01*
X14772911Y-16543216D02*
X14725000Y-16675000D01*
X17100000Y-17525000D02*
X15593911Y-16226216D01*
X10032911Y-16268216D02*
G75*
G03X10032911Y-16268216I-160000J0D01*
G01*
X15307911Y-16293216D02*
G75*
G03X15307911Y-16293216I-160000J0D01*
G01*
X17102911Y-9093216D02*
X16550000Y-9700000D01*
X18250000Y-7425000D02*
X17102911Y-9093216D01*
X8175000Y-10675000D02*
X8215411Y-9770716D01*
X8400000Y-9450000D02*
X8215411Y-9770716D01*
X18630411Y-20203216D02*
X19300000Y-20425000D01*
X18075000Y-19350000D02*
X18077911Y-19388216D01*
X18292911Y-20035716D02*
X18630411Y-20203216D01*
X18142911Y-19833216D02*
X18292911Y-20035716D01*
X18105411Y-19648216D02*
X18142911Y-19833216D01*
X18077911Y-19388216D02*
X18105411Y-19648216D01*
X17875000Y-18250000D02*
X17925000Y-18400000D01*
X17950000Y-18625000D02*
X17950000Y-18950000D01*
X17950000Y-18950000D02*
X17975000Y-19075000D01*
X17975000Y-19075000D02*
X18075000Y-19350000D01*
X18050000Y-5825000D02*
X18075000Y-5700000D01*
X17575000Y-6300000D02*
X18050000Y-5825000D01*
X20900000Y-5375000D02*
X20900000Y-5775000D01*
X18425000Y-7225000D02*
X18250000Y-7425000D01*
X18725000Y-6975000D02*
X18425000Y-7225000D01*
X19000000Y-6850000D02*
X18725000Y-6975000D01*
X19225000Y-6775000D02*
X19000000Y-6850000D01*
X19375000Y-6800000D02*
X19225000Y-6775000D01*
X19500000Y-6875000D02*
X19375000Y-6800000D01*
X19725000Y-6900000D02*
X19500000Y-6875000D01*
X19975000Y-6900000D02*
X19725000Y-6900000D01*
X20275000Y-6775000D02*
X19975000Y-6900000D01*
X20475000Y-6650000D02*
X20275000Y-6775000D01*
X20700000Y-6400000D02*
X20475000Y-6650000D01*
X20800000Y-6200000D02*
X20700000Y-6400000D01*
X20875000Y-5925000D02*
X20800000Y-6200000D01*
X20900000Y-5775000D02*
X20875000Y-5925000D01*
X20850000Y-5175000D02*
X20900000Y-5375000D01*
X20700000Y-4875000D02*
X20850000Y-5175000D01*
X20350000Y-4525000D02*
X20700000Y-4875000D01*
X19925000Y-4225000D02*
X20350000Y-4525000D01*
X19700000Y-4125000D02*
X19925000Y-4225000D01*
X19500000Y-4100000D02*
X19700000Y-4125000D01*
X19300000Y-4150000D02*
X19500000Y-4100000D01*
X19100000Y-4225000D02*
X19300000Y-4150000D01*
X18875000Y-4300000D02*
X19100000Y-4225000D01*
X18450000Y-4325000D02*
X18875000Y-4300000D01*
X18300000Y-4375000D02*
X18450000Y-4325000D01*
X18200000Y-4500000D02*
X18300000Y-4375000D01*
X18175000Y-4625000D02*
X18200000Y-4500000D01*
X18175000Y-4825000D02*
X18175000Y-4625000D01*
X18200000Y-5050000D02*
X18175000Y-4825000D01*
X18150000Y-5400000D02*
X18200000Y-5050000D01*
X18075000Y-5700000D02*
X18150000Y-5400000D01*
X18450000Y-4750000D02*
G75*
G03X18450000Y-4750000I-75000J0D01*
G01*
X20175000Y-5000000D02*
G75*
G03X20175000Y-5000000I-200000J0D01*
G01*
X20250000Y-6550000D02*
G75*
G03X20250000Y-6550000I-75000J0D01*
G01*
X19500000Y-5675000D02*
G75*
G03X19500000Y-5675000I-200000J0D01*
G01*
X17400000Y-6425000D02*
X17575000Y-6300000D01*
X17175000Y-6575000D02*
X17400000Y-6425000D01*
X17000000Y-6700000D02*
X17175000Y-6575000D01*
X16550000Y-6975000D02*
X17000000Y-6700000D01*
X16125000Y-7250000D02*
X16550000Y-6975000D01*
X15175000Y-7975000D02*
X16125000Y-7250000D01*
X19750000Y-20450000D02*
X19300000Y-20425000D01*
X20050000Y-20425000D02*
X19750000Y-20450000D01*
X16500000Y-14725000D02*
X16600000Y-14675000D01*
X16425000Y-14750000D02*
X16500000Y-14725000D01*
X17050000Y-15450000D02*
X16425000Y-14750000D01*
X17650000Y-16100000D02*
X17050000Y-15450000D01*
X18400000Y-16925000D02*
X17650000Y-16100000D01*
X18475000Y-16975000D02*
X18400000Y-16925000D01*
X18700000Y-17050000D02*
X18475000Y-16975000D01*
X18925000Y-17100000D02*
X18700000Y-17050000D01*
X19475000Y-17125000D02*
X18925000Y-17100000D01*
X19600000Y-17150000D02*
X19475000Y-17125000D01*
X19900000Y-17275000D02*
X19600000Y-17150000D01*
X20075000Y-17375000D02*
X19900000Y-17275000D01*
X20300000Y-17550000D02*
X20075000Y-17375000D01*
X20525000Y-17800000D02*
X20300000Y-17550000D01*
X20675000Y-18050000D02*
X20525000Y-17800000D01*
X20750000Y-18350000D02*
X20675000Y-18050000D01*
X20750000Y-18700000D02*
X20750000Y-18350000D01*
X20600000Y-19675000D02*
X20750000Y-18700000D01*
X20525000Y-19925000D02*
X20600000Y-19675000D01*
X20450000Y-20050000D02*
X20525000Y-19925000D01*
X20400000Y-20150000D02*
X20450000Y-20050000D01*
X20275000Y-20275000D02*
X20400000Y-20150000D01*
X20125000Y-20400000D02*
X20275000Y-20275000D01*
X20050000Y-20425000D02*
X20125000Y-20400000D01*
X17925000Y-18400000D02*
X17950000Y-18625000D01*
X17825000Y-18150000D02*
X17875000Y-18250000D01*
X17725000Y-18025000D02*
X17825000Y-18150000D01*
X17600000Y-17900000D02*
X17725000Y-18025000D01*
X17475000Y-17800000D02*
X17600000Y-17900000D01*
X17275000Y-17650000D02*
X17475000Y-17800000D01*
X17100000Y-17525000D02*
X17275000Y-17650000D01*
X8500000Y-17075000D02*
X9025000Y-16675000D01*
X8050000Y-17425000D02*
X8500000Y-17075000D01*
X7925000Y-17550000D02*
X8050000Y-17425000D01*
X7850000Y-17650000D02*
X7925000Y-17550000D01*
X7700000Y-17875000D02*
X7850000Y-17650000D01*
X7600000Y-18075000D02*
X7700000Y-17875000D01*
X7500000Y-18325000D02*
X7600000Y-18075000D01*
X7425000Y-18575000D02*
X7500000Y-18325000D01*
X7400000Y-18700000D02*
X7425000Y-18575000D01*
X7400000Y-18775000D02*
X7400000Y-18700000D01*
X7425000Y-18950000D02*
X7400000Y-18775000D01*
X7450000Y-19100000D02*
X7425000Y-18950000D01*
X7475000Y-19250000D02*
X7450000Y-19100000D01*
X7450000Y-19425000D02*
X7475000Y-19250000D01*
X7400000Y-19600000D02*
X7450000Y-19425000D01*
X7300000Y-19750000D02*
X7400000Y-19600000D01*
X7150000Y-19925000D02*
X7300000Y-19750000D01*
X6975000Y-20075000D02*
X7150000Y-19925000D01*
X6775000Y-20200000D02*
X6975000Y-20075000D01*
X6550000Y-20275000D02*
X6775000Y-20200000D01*
X6425000Y-20300000D02*
X6550000Y-20275000D01*
X6350000Y-20300000D02*
X6425000Y-20300000D01*
X6150000Y-20275000D02*
X6350000Y-20300000D01*
X5750000Y-20200000D02*
X6150000Y-20275000D01*
X5350000Y-20100000D02*
X5750000Y-20200000D01*
X5200000Y-20000000D02*
X5350000Y-20100000D01*
X5075000Y-19900000D02*
X5200000Y-20000000D01*
X5025000Y-19825000D02*
X5075000Y-19900000D01*
X4975000Y-19775000D02*
X5025000Y-19825000D01*
X4900000Y-19750000D02*
X4975000Y-19775000D01*
X4825000Y-19700000D02*
X4900000Y-19750000D01*
X4700000Y-19450000D02*
X4825000Y-19700000D01*
X4600000Y-19125000D02*
X4700000Y-19450000D01*
X4600000Y-18925000D02*
X4600000Y-19125000D01*
X4625000Y-18600000D02*
X4600000Y-18925000D01*
X4675000Y-18425000D02*
X4625000Y-18600000D01*
X4800000Y-18125000D02*
X4675000Y-18425000D01*
X4950000Y-17900000D02*
X4800000Y-18125000D01*
X5150000Y-17675000D02*
X4950000Y-17900000D01*
X5325000Y-17525000D02*
X5150000Y-17675000D01*
X5425000Y-17450000D02*
X5325000Y-17525000D01*
X5675000Y-17275000D02*
X5425000Y-17450000D01*
X5875000Y-17175000D02*
X5675000Y-17275000D01*
X6000000Y-17150000D02*
X5875000Y-17175000D01*
X6250000Y-17100000D02*
X6000000Y-17150000D01*
X6450000Y-17050000D02*
X6250000Y-17100000D01*
X6600000Y-16975000D02*
X6450000Y-17050000D01*
X6750000Y-16875000D02*
X6600000Y-16975000D01*
X6875000Y-16775000D02*
X6750000Y-16875000D01*
X7000000Y-16625000D02*
X6875000Y-16775000D01*
X7075000Y-16475000D02*
X7000000Y-16625000D01*
X7175000Y-16300000D02*
X7075000Y-16475000D01*
X7275000Y-16175000D02*
X7175000Y-16300000D01*
X7425000Y-16000000D02*
X7275000Y-16175000D01*
X7650000Y-15775000D02*
X7425000Y-16000000D01*
X8000000Y-15425000D02*
X7650000Y-15775000D01*
X8075000Y-15300000D02*
X8000000Y-15425000D01*
X8150000Y-15150000D02*
X8075000Y-15300000D01*
X10500000Y-7600000D02*
X11075000Y-7425000D01*
X9900000Y-7900000D02*
X10500000Y-7600000D01*
X8550000Y-9350000D02*
X8400000Y-9450000D01*
X7400000Y-7850000D02*
X8550000Y-9350000D01*
X7050000Y-7450000D02*
X7400000Y-7850000D01*
X6800000Y-7200000D02*
X7050000Y-7450000D01*
X6650000Y-7100000D02*
X6800000Y-7200000D01*
X6450000Y-7000000D02*
X6650000Y-7100000D01*
X6200000Y-6950000D02*
X6450000Y-7000000D01*
X6100000Y-6950000D02*
X6200000Y-6950000D01*
X5550000Y-6950000D02*
X6100000Y-6950000D01*
X5300000Y-6900000D02*
X5550000Y-6950000D01*
X5200000Y-6850000D02*
X5300000Y-6900000D01*
X4900000Y-6650000D02*
X5200000Y-6850000D01*
X4700000Y-6400000D02*
X4900000Y-6650000D01*
X4600000Y-6250000D02*
X4700000Y-6400000D01*
X4550000Y-6050000D02*
X4600000Y-6250000D01*
X4550000Y-5750000D02*
X4550000Y-6050000D01*
X4650000Y-5400000D02*
X4550000Y-5750000D01*
X4850000Y-5050000D02*
X4650000Y-5400000D01*
X5050000Y-4800000D02*
X4850000Y-5050000D01*
X5250000Y-4650000D02*
X5050000Y-4800000D01*
X5350000Y-4600000D02*
X5250000Y-4650000D01*
X5350000Y-4550000D02*
X5350000Y-4600000D01*
X5350000Y-4500000D02*
X5350000Y-4550000D01*
X5400000Y-4450000D02*
X5350000Y-4500000D01*
X5700000Y-4250000D02*
X5400000Y-4450000D01*
X5950000Y-4150000D02*
X5700000Y-4250000D01*
X6200000Y-4100000D02*
X5950000Y-4150000D01*
X6350000Y-4100000D02*
X6200000Y-4100000D01*
X6700000Y-4200000D02*
X6350000Y-4100000D01*
X7000000Y-4400000D02*
X6700000Y-4200000D01*
X7200000Y-4600000D02*
X7000000Y-4400000D01*
X7400000Y-4900000D02*
X7200000Y-4600000D01*
X7500000Y-5150000D02*
X7400000Y-4900000D01*
X7550000Y-5400000D02*
X7500000Y-5150000D01*
X7500000Y-5650000D02*
X7550000Y-5400000D01*
X7500000Y-5850000D02*
X7500000Y-5650000D01*
X7550000Y-6050000D02*
X7500000Y-5850000D01*
X7700000Y-6300000D02*
X7550000Y-6050000D01*
X7800000Y-6450000D02*
X7700000Y-6300000D01*
X7850000Y-6500000D02*
X7800000Y-6450000D01*
X8050000Y-6650000D02*
X7850000Y-6500000D01*
X8400000Y-6850000D02*
X8050000Y-6650000D01*
X8950000Y-7150000D02*
X8400000Y-6850000D01*
X9900000Y-7900000D02*
X8950000Y-7150000D01*
X8225000Y-15025000D02*
X8150000Y-15150000D01*
X20175000Y-19475000D02*
G75*
G03X20175000Y-19475000I-200000J0D01*
G01*
X19500000Y-18800000D02*
G75*
G03X19500000Y-18800000I-200000J0D01*
G01*
X18500000Y-19675000D02*
G75*
G03X18500000Y-19675000I-75000J0D01*
G01*
X20300000Y-17875000D02*
G75*
G03X20300000Y-17875000I-75000J0D01*
G01*
X5384853Y-17960000D02*
G75*
G03X5384853Y-17960000I-84853J0D01*
G01*
X7186023Y-19760000D02*
G75*
G03X7186023Y-19760000I-86023J0D01*
G01*
X6388600Y-18825000D02*
G75*
G03X6388600Y-18825000I-213600J0D01*
G01*
X5701556Y-19500000D02*
G75*
G03X5701556Y-19500000I-201556J0D01*
G01*
X5695000Y-5000000D02*
G75*
G03X5695000Y-5000000I-200000J0D01*
G01*
X6375000Y-5680000D02*
G75*
G03X6375000Y-5680000I-200000J0D01*
G01*
X7115000Y-4800000D02*
G75*
G03X7115000Y-4800000I-80000J0D01*
G01*
X5325000Y-6600000D02*
G75*
G03X5325000Y-6600000I-80000J0D01*
G01*
X16675000Y-10150000D02*
X16550000Y-9700000D01*
X16775000Y-10650000D02*
X16675000Y-10150000D01*
X16775000Y-11100000D02*
X16775000Y-10650000D01*
X16700000Y-11525000D02*
X16775000Y-11100000D01*
X16625000Y-11775000D02*
X16700000Y-11525000D01*
X16575000Y-11950000D02*
X16625000Y-11775000D01*
X16550000Y-12050000D02*
X16575000Y-11950000D01*
X16550000Y-12150000D02*
X16550000Y-12050000D01*
X16575000Y-12250000D02*
X16550000Y-12150000D01*
X16600000Y-12325000D02*
X16575000Y-12250000D01*
X16600000Y-12400000D02*
X16600000Y-12325000D01*
X16550000Y-12525000D02*
X16600000Y-12400000D01*
X16450000Y-12725000D02*
X16550000Y-12525000D01*
X16400000Y-12800000D02*
X16450000Y-12725000D01*
X16375000Y-12900000D02*
X16400000Y-12800000D01*
X16375000Y-13000000D02*
X16375000Y-12900000D01*
X16425000Y-13050000D02*
X16375000Y-13000000D01*
X16475000Y-13075000D02*
X16425000Y-13050000D01*
X16500000Y-13125000D02*
X16475000Y-13075000D01*
X16500000Y-13175000D02*
X16500000Y-13125000D01*
X16475000Y-13225000D02*
X16500000Y-13175000D01*
X16450000Y-13250000D02*
X16475000Y-13225000D01*
X16425000Y-13275000D02*
X16450000Y-13250000D01*
X16400000Y-13350000D02*
X16425000Y-13275000D01*
X16425000Y-13400000D02*
X16400000Y-13350000D01*
X16500000Y-13475000D02*
X16425000Y-13400000D01*
X16700000Y-13625000D02*
X16500000Y-13475000D01*
X16800000Y-13875000D02*
X16700000Y-13625000D01*
X16825000Y-14000000D02*
X16800000Y-13875000D01*
X16825000Y-14100000D02*
X16825000Y-14000000D01*
X16700000Y-14475000D02*
X16825000Y-14100000D01*
X16600000Y-14675000D02*
X16700000Y-14475000D01*
X8250000Y-14900000D02*
X8225000Y-15025000D01*
X8250000Y-14750000D02*
X8250000Y-14900000D01*
X8225000Y-14550000D02*
X8250000Y-14750000D01*
X8200000Y-14375000D02*
X8225000Y-14550000D01*
X8175000Y-14200000D02*
X8200000Y-14375000D01*
X8150000Y-14125000D02*
X8175000Y-14200000D01*
X8150000Y-14000000D02*
X8150000Y-14125000D01*
X8150000Y-13900000D02*
X8150000Y-14000000D01*
X8200000Y-13775000D02*
X8150000Y-13900000D01*
X8300000Y-13625000D02*
X8200000Y-13775000D01*
X8425000Y-13475000D02*
X8300000Y-13625000D01*
X8425000Y-13375000D02*
X8425000Y-13475000D01*
X8400000Y-13300000D02*
X8425000Y-13375000D01*
X8325000Y-13275000D02*
X8400000Y-13300000D01*
X8275000Y-13225000D02*
X8325000Y-13275000D01*
X8250000Y-13175000D02*
X8275000Y-13225000D01*
X8250000Y-13125000D02*
X8250000Y-13175000D01*
X8250000Y-13050000D02*
X8250000Y-13125000D01*
X8300000Y-12975000D02*
X8250000Y-13050000D01*
X8350000Y-12925000D02*
X8300000Y-12975000D01*
X8375000Y-12850000D02*
X8350000Y-12925000D01*
X8300000Y-12675000D02*
X8375000Y-12850000D01*
X8225000Y-12525000D02*
X8300000Y-12675000D01*
X8225000Y-12425000D02*
X8225000Y-12525000D01*
X8275000Y-12275000D02*
X8225000Y-12425000D01*
X8300000Y-12125000D02*
X8275000Y-12275000D01*
X8200000Y-11850000D02*
X8300000Y-12125000D01*
X8150000Y-11375000D02*
X8200000Y-11850000D01*
X8150000Y-11100000D02*
X8150000Y-11375000D01*
X8175000Y-10675000D02*
X8150000Y-11100000D01*
X13384510Y-7627620D02*
G75*
G03X13384510Y-7627620I-160000J0D01*
G01*
X11734780Y-7627620D02*
G75*
G03X11734780Y-7627620I-160000J0D01*
G01*
X14675000Y-16725000D02*
X14725000Y-16675000D01*
X14525000Y-16775000D02*
X14675000Y-16725000D01*
X14475000Y-16825000D02*
X14525000Y-16775000D01*
X14425000Y-16875000D02*
X14475000Y-16825000D01*
X14425000Y-17025000D02*
X14425000Y-16875000D01*
X14375000Y-17125000D02*
X14425000Y-17025000D01*
X14225000Y-17275000D02*
X14375000Y-17125000D01*
X14025000Y-17325000D02*
X14225000Y-17275000D01*
X13925000Y-17325000D02*
X14025000Y-17325000D01*
X13725000Y-17225000D02*
X13925000Y-17325000D01*
X13725000Y-17275000D02*
X13725000Y-17225000D01*
X13675000Y-17375000D02*
X13725000Y-17275000D01*
X13625000Y-17375000D02*
X13675000Y-17375000D01*
X13475000Y-17375000D02*
X13625000Y-17375000D01*
X13275000Y-17325000D02*
X13475000Y-17375000D01*
X13075000Y-17225000D02*
X13275000Y-17325000D01*
X13075000Y-17375000D02*
X13075000Y-17225000D01*
X13025000Y-17375000D02*
X13075000Y-17375000D01*
X12725000Y-17275000D02*
X13025000Y-17375000D01*
X12675000Y-17325000D02*
X12725000Y-17275000D01*
X12525000Y-17375000D02*
X12675000Y-17325000D01*
X12475000Y-17325000D02*
X12525000Y-17375000D01*
X12175000Y-17275000D02*
X12475000Y-17325000D01*
X12075000Y-17325000D02*
X12175000Y-17275000D01*
X11875000Y-17375000D02*
X12075000Y-17325000D01*
X11875000Y-17275000D02*
X11875000Y-17375000D01*
X11775000Y-17275000D02*
X11875000Y-17275000D01*
X11425000Y-17375000D02*
X11775000Y-17275000D01*
X11225000Y-17375000D02*
X11425000Y-17375000D01*
X11175000Y-17325000D02*
X11225000Y-17375000D01*
X11075000Y-17325000D02*
X11175000Y-17325000D01*
X10725000Y-17325000D02*
X11075000Y-17325000D01*
X10525000Y-17225000D02*
X10725000Y-17325000D01*
X10375000Y-17125000D02*
X10525000Y-17225000D01*
X10325000Y-16975000D02*
X10375000Y-17125000D01*
X10325000Y-16825000D02*
X10325000Y-16975000D01*
X10275000Y-16775000D02*
X10325000Y-16825000D01*
X10225000Y-16725000D02*
X10275000Y-16775000D01*
X10175000Y-16625000D02*
X10225000Y-16725000D01*
X11775000Y-7275000D02*
X11075000Y-7425000D01*
X12275000Y-7225000D02*
X11775000Y-7275000D01*
X12475000Y-7225000D02*
X12275000Y-7225000D01*
X12625000Y-7225000D02*
X12475000Y-7225000D01*
X13325000Y-7325000D02*
X12625000Y-7225000D01*
X13925000Y-7425000D02*
X13325000Y-7325000D01*
X14375000Y-7575000D02*
X13925000Y-7425000D01*
X14825000Y-7775000D02*
X14375000Y-7575000D01*
X15175000Y-7975000D02*
X14825000Y-7775000D01*
X12425680Y-15232380D02*
X12225000Y-15125000D01*
X12625000Y-15125000D02*
X12425680Y-15232380D01*
X13125000Y-14975000D02*
X12625000Y-15125000D01*
X13175000Y-14925000D02*
X13125000Y-14975000D01*
X13225000Y-14825000D02*
X13175000Y-14925000D01*
X13275000Y-14675000D02*
X13225000Y-14825000D01*
X13275000Y-14425000D02*
X13275000Y-14675000D01*
X13225000Y-14225000D02*
X13275000Y-14425000D01*
X13125000Y-14025000D02*
X13225000Y-14225000D01*
X12975000Y-13825000D02*
X13125000Y-14025000D01*
X12675000Y-13575000D02*
X12975000Y-13825000D01*
X12525000Y-13475000D02*
X12675000Y-13575000D01*
X12425000Y-13425000D02*
X12525000Y-13475000D01*
X11875000Y-15025000D02*
X12225000Y-15125000D01*
X11725000Y-14975000D02*
X11875000Y-15025000D01*
X11675000Y-14925000D02*
X11725000Y-14975000D01*
X11625000Y-14825000D02*
X11675000Y-14925000D01*
X11575000Y-14675000D02*
X11625000Y-14825000D01*
X11575000Y-14525000D02*
X11575000Y-14675000D01*
X11575000Y-14425000D02*
X11575000Y-14525000D01*
X11625000Y-14225000D02*
X11575000Y-14425000D01*
X11675000Y-14125000D02*
X11625000Y-14225000D01*
X11725000Y-14025000D02*
X11675000Y-14125000D01*
X11875000Y-13825000D02*
X11725000Y-14025000D01*
X12175000Y-13575000D02*
X11875000Y-13825000D01*
X12325000Y-13475000D02*
X12175000Y-13575000D01*
X12425000Y-13425000D02*
X12325000Y-13475000D01*
X15139563Y-12545000D02*
G75*
G03X15139563Y-12545000I-1029563J0D01*
G01*
X11809563Y-12560000D02*
G75*
G03X11809563Y-12560000I-1029563J0D01*
G01*
D11*
X16377341Y-9040357D02*
X16467341Y-9130357D01*
X16467341Y-9040357D02*
X16377341Y-9130357D01*
X16581174Y-8820238D02*
X16671174Y-8910238D01*
X16671174Y-8820238D02*
X16581174Y-8910238D01*
D12*
X4828928Y-20923214D02*
X4828928Y-20623214D01*
X4900357Y-20623214D01*
X4943214Y-20637500D01*
X4971786Y-20666072D01*
X4986071Y-20694643D01*
X5000357Y-20751786D01*
X5000357Y-20794643D01*
X4986071Y-20851786D01*
X4971786Y-20880357D01*
X4943214Y-20908929D01*
X4900357Y-20923214D01*
X4828928Y-20923214D01*
X5128928Y-20923214D02*
X5128928Y-20723214D01*
X5128928Y-20780357D02*
X5143214Y-20751786D01*
X5157500Y-20737500D01*
X5186071Y-20723214D01*
X5214643Y-20723214D01*
X5314643Y-20923214D02*
X5314643Y-20723214D01*
X5314643Y-20623214D02*
X5300357Y-20637500D01*
X5314643Y-20651786D01*
X5328928Y-20637500D01*
X5314643Y-20623214D01*
X5314643Y-20651786D01*
X5500357Y-20923214D02*
X5471786Y-20908929D01*
X5457500Y-20880357D01*
X5457500Y-20623214D01*
X5657500Y-20923214D02*
X5628928Y-20908929D01*
X5614643Y-20880357D01*
X5614643Y-20623214D01*
X6000357Y-20923214D02*
X6000357Y-20623214D01*
X6100357Y-20837500D01*
X6200357Y-20623214D01*
X6200357Y-20923214D01*
X6471786Y-20923214D02*
X6471786Y-20766072D01*
X6457500Y-20737500D01*
X6428928Y-20723214D01*
X6371786Y-20723214D01*
X6343214Y-20737500D01*
X6471786Y-20908929D02*
X6443214Y-20923214D01*
X6371786Y-20923214D01*
X6343214Y-20908929D01*
X6328928Y-20880357D01*
X6328928Y-20851786D01*
X6343214Y-20823214D01*
X6371786Y-20808929D01*
X6443214Y-20808929D01*
X6471786Y-20794643D01*
X6614643Y-20723214D02*
X6614643Y-21023214D01*
X6614643Y-20737500D02*
X6643214Y-20723214D01*
X6700357Y-20723214D01*
X6728928Y-20737500D01*
X6743214Y-20751786D01*
X6757500Y-20780357D01*
X6757500Y-20866072D01*
X6743214Y-20894643D01*
X6728928Y-20908929D01*
X6700357Y-20923214D01*
X6643214Y-20923214D01*
X6614643Y-20908929D01*
X6886071Y-20894643D02*
X6900357Y-20908929D01*
X6886071Y-20923214D01*
X6871786Y-20908929D01*
X6886071Y-20894643D01*
X6886071Y-20923214D01*
X6886071Y-20737500D02*
X6900357Y-20751786D01*
X6886071Y-20766072D01*
X6871786Y-20751786D01*
X6886071Y-20737500D01*
X6886071Y-20766072D01*
X4452500Y-21372500D02*
X4542500Y-21462500D01*
X4542500Y-21372500D02*
X4452500Y-21462500D01*
X4886071Y-21253214D02*
X4914643Y-21253214D01*
X4943214Y-21267500D01*
X4957500Y-21281786D01*
X4971786Y-21310357D01*
X4986071Y-21367500D01*
X4986071Y-21438929D01*
X4971786Y-21496072D01*
X4957500Y-21524643D01*
X4943214Y-21538929D01*
X4914643Y-21553214D01*
X4886071Y-21553214D01*
X4857500Y-21538929D01*
X4843214Y-21524643D01*
X4828928Y-21496072D01*
X4814643Y-21438929D01*
X4814643Y-21367500D01*
X4828928Y-21310357D01*
X4843214Y-21281786D01*
X4857500Y-21267500D01*
X4886071Y-21253214D01*
X5114643Y-21524643D02*
X5128928Y-21538929D01*
X5114643Y-21553214D01*
X5100357Y-21538929D01*
X5114643Y-21524643D01*
X5114643Y-21553214D01*
X5271786Y-21553214D02*
X5328928Y-21553214D01*
X5357500Y-21538929D01*
X5371786Y-21524643D01*
X5400357Y-21481786D01*
X5414643Y-21424643D01*
X5414643Y-21310357D01*
X5400357Y-21281786D01*
X5386071Y-21267500D01*
X5357500Y-21253214D01*
X5300357Y-21253214D01*
X5271786Y-21267500D01*
X5257500Y-21281786D01*
X5243214Y-21310357D01*
X5243214Y-21381786D01*
X5257500Y-21410357D01*
X5271786Y-21424643D01*
X5300357Y-21438929D01*
X5357500Y-21438929D01*
X5386071Y-21424643D01*
X5400357Y-21410357D01*
X5414643Y-21381786D01*
X5600357Y-21253214D02*
X5628928Y-21253214D01*
X5657500Y-21267500D01*
X5671786Y-21281786D01*
X5686071Y-21310357D01*
X5700357Y-21367500D01*
X5700357Y-21438929D01*
X5686071Y-21496072D01*
X5671786Y-21524643D01*
X5657500Y-21538929D01*
X5628928Y-21553214D01*
X5600357Y-21553214D01*
X5571786Y-21538929D01*
X5557500Y-21524643D01*
X5543214Y-21496072D01*
X5528928Y-21438929D01*
X5528928Y-21367500D01*
X5543214Y-21310357D01*
X5557500Y-21281786D01*
X5571786Y-21267500D01*
X5600357Y-21253214D01*
X5828928Y-21553214D02*
X5828928Y-21353214D01*
X5828928Y-21381786D02*
X5843214Y-21367500D01*
X5871786Y-21353214D01*
X5914643Y-21353214D01*
X5943214Y-21367500D01*
X5957500Y-21396072D01*
X5957500Y-21553214D01*
X5957500Y-21396072D02*
X5971786Y-21367500D01*
X6000357Y-21353214D01*
X6043214Y-21353214D01*
X6071786Y-21367500D01*
X6086071Y-21396072D01*
X6086071Y-21553214D01*
X6228928Y-21553214D02*
X6228928Y-21353214D01*
X6228928Y-21381786D02*
X6243214Y-21367500D01*
X6271786Y-21353214D01*
X6314643Y-21353214D01*
X6343214Y-21367500D01*
X6357500Y-21396072D01*
X6357500Y-21553214D01*
X6357500Y-21396072D02*
X6371786Y-21367500D01*
X6400357Y-21353214D01*
X6443214Y-21353214D01*
X6471786Y-21367500D01*
X6486071Y-21396072D01*
X6486071Y-21553214D01*
X7071786Y-21238929D02*
X6814643Y-21624643D01*
X7457500Y-21253214D02*
X7486071Y-21253214D01*
X7514643Y-21267500D01*
X7528928Y-21281786D01*
X7543214Y-21310357D01*
X7557500Y-21367500D01*
X7557500Y-21438929D01*
X7543214Y-21496072D01*
X7528928Y-21524643D01*
X7514643Y-21538929D01*
X7486071Y-21553214D01*
X7457500Y-21553214D01*
X7428928Y-21538929D01*
X7414643Y-21524643D01*
X7400357Y-21496072D01*
X7386071Y-21438929D01*
X7386071Y-21367500D01*
X7400357Y-21310357D01*
X7414643Y-21281786D01*
X7428928Y-21267500D01*
X7457500Y-21253214D01*
X7686071Y-21524643D02*
X7700357Y-21538929D01*
X7686071Y-21553214D01*
X7671786Y-21538929D01*
X7686071Y-21524643D01*
X7686071Y-21553214D01*
X7886071Y-21253214D02*
X7914643Y-21253214D01*
X7943214Y-21267500D01*
X7957500Y-21281786D01*
X7971786Y-21310357D01*
X7986071Y-21367500D01*
X7986071Y-21438929D01*
X7971786Y-21496072D01*
X7957500Y-21524643D01*
X7943214Y-21538929D01*
X7914643Y-21553214D01*
X7886071Y-21553214D01*
X7857500Y-21538929D01*
X7843214Y-21524643D01*
X7828928Y-21496072D01*
X7814643Y-21438929D01*
X7814643Y-21367500D01*
X7828928Y-21310357D01*
X7843214Y-21281786D01*
X7857500Y-21267500D01*
X7886071Y-21253214D01*
X8086071Y-21253214D02*
X8271786Y-21253214D01*
X8171786Y-21367500D01*
X8214643Y-21367500D01*
X8243214Y-21381786D01*
X8257500Y-21396072D01*
X8271786Y-21424643D01*
X8271786Y-21496072D01*
X8257500Y-21524643D01*
X8243214Y-21538929D01*
X8214643Y-21553214D01*
X8128928Y-21553214D01*
X8100357Y-21538929D01*
X8086071Y-21524643D01*
X8543214Y-21253214D02*
X8400357Y-21253214D01*
X8386071Y-21396072D01*
X8400357Y-21381786D01*
X8428928Y-21367500D01*
X8500357Y-21367500D01*
X8528928Y-21381786D01*
X8543214Y-21396072D01*
X8557500Y-21424643D01*
X8557500Y-21496072D01*
X8543214Y-21524643D01*
X8528928Y-21538929D01*
X8500357Y-21553214D01*
X8428928Y-21553214D01*
X8400357Y-21538929D01*
X8386071Y-21524643D01*
X8671786Y-21253214D02*
X8671786Y-21310357D01*
X8786071Y-21253214D02*
X8786071Y-21310357D01*
X9228928Y-21667500D02*
X9214643Y-21653214D01*
X9186071Y-21610357D01*
X9171786Y-21581786D01*
X9157500Y-21538929D01*
X9143214Y-21467500D01*
X9143214Y-21410357D01*
X9157500Y-21338929D01*
X9171786Y-21296072D01*
X9186071Y-21267500D01*
X9214643Y-21224643D01*
X9228928Y-21210357D01*
X9328928Y-21281786D02*
X9343214Y-21267500D01*
X9371786Y-21253214D01*
X9443214Y-21253214D01*
X9471786Y-21267500D01*
X9486071Y-21281786D01*
X9500357Y-21310357D01*
X9500357Y-21338929D01*
X9486071Y-21381786D01*
X9314643Y-21553214D01*
X9500357Y-21553214D01*
X9857500Y-21553214D02*
X9857500Y-21253214D01*
X9986071Y-21553214D02*
X9986071Y-21396072D01*
X9971786Y-21367500D01*
X9943214Y-21353214D01*
X9900357Y-21353214D01*
X9871786Y-21367500D01*
X9857500Y-21381786D01*
X10171786Y-21553214D02*
X10143214Y-21538929D01*
X10128928Y-21524643D01*
X10114643Y-21496072D01*
X10114643Y-21410357D01*
X10128928Y-21381786D01*
X10143214Y-21367500D01*
X10171786Y-21353214D01*
X10214643Y-21353214D01*
X10243214Y-21367500D01*
X10257500Y-21381786D01*
X10271786Y-21410357D01*
X10271786Y-21496072D01*
X10257500Y-21524643D01*
X10243214Y-21538929D01*
X10214643Y-21553214D01*
X10171786Y-21553214D01*
X10443214Y-21553214D02*
X10414643Y-21538929D01*
X10400357Y-21510357D01*
X10400357Y-21253214D01*
X10671786Y-21538929D02*
X10643214Y-21553214D01*
X10586071Y-21553214D01*
X10557500Y-21538929D01*
X10543214Y-21510357D01*
X10543214Y-21396072D01*
X10557500Y-21367500D01*
X10586071Y-21353214D01*
X10643214Y-21353214D01*
X10671786Y-21367500D01*
X10686071Y-21396072D01*
X10686071Y-21424643D01*
X10543214Y-21453214D01*
X10800357Y-21538929D02*
X10828928Y-21553214D01*
X10886071Y-21553214D01*
X10914643Y-21538929D01*
X10928928Y-21510357D01*
X10928928Y-21496072D01*
X10914643Y-21467500D01*
X10886071Y-21453214D01*
X10843214Y-21453214D01*
X10814643Y-21438929D01*
X10800357Y-21410357D01*
X10800357Y-21396072D01*
X10814643Y-21367500D01*
X10843214Y-21353214D01*
X10886071Y-21353214D01*
X10914643Y-21367500D01*
X11028928Y-21667500D02*
X11043214Y-21653214D01*
X11071786Y-21610357D01*
X11086071Y-21581786D01*
X11100357Y-21538929D01*
X11114643Y-21467500D01*
X11114643Y-21410357D01*
X11100357Y-21338929D01*
X11086071Y-21296072D01*
X11071786Y-21267500D01*
X11043214Y-21224643D01*
X11028928Y-21210357D01*
X11571786Y-21667500D02*
X11557500Y-21653214D01*
X11528928Y-21610357D01*
X11514643Y-21581786D01*
X11500357Y-21538929D01*
X11486071Y-21467500D01*
X11486071Y-21410357D01*
X11500357Y-21338929D01*
X11514643Y-21296072D01*
X11528928Y-21267500D01*
X11557500Y-21224643D01*
X11571786Y-21210357D01*
X11686071Y-21353214D02*
X11686071Y-21553214D01*
X11686071Y-21381786D02*
X11700357Y-21367500D01*
X11728928Y-21353214D01*
X11771786Y-21353214D01*
X11800357Y-21367500D01*
X11814643Y-21396072D01*
X11814643Y-21553214D01*
X12000357Y-21553214D02*
X11971786Y-21538929D01*
X11957500Y-21524643D01*
X11943214Y-21496072D01*
X11943214Y-21410357D01*
X11957500Y-21381786D01*
X11971786Y-21367500D01*
X12000357Y-21353214D01*
X12043214Y-21353214D01*
X12071786Y-21367500D01*
X12086071Y-21381786D01*
X12100357Y-21410357D01*
X12100357Y-21496072D01*
X12086071Y-21524643D01*
X12071786Y-21538929D01*
X12043214Y-21553214D01*
X12000357Y-21553214D01*
X12186071Y-21353214D02*
X12300357Y-21353214D01*
X12228928Y-21253214D02*
X12228928Y-21510357D01*
X12243214Y-21538929D01*
X12271786Y-21553214D01*
X12300357Y-21553214D01*
X12628928Y-21353214D02*
X12628928Y-21653214D01*
X12628928Y-21367500D02*
X12657500Y-21353214D01*
X12714643Y-21353214D01*
X12743214Y-21367500D01*
X12757500Y-21381786D01*
X12771786Y-21410357D01*
X12771786Y-21496072D01*
X12757500Y-21524643D01*
X12743214Y-21538929D01*
X12714643Y-21553214D01*
X12657500Y-21553214D01*
X12628928Y-21538929D01*
X12943214Y-21553214D02*
X12914643Y-21538929D01*
X12900357Y-21510357D01*
X12900357Y-21253214D01*
X13186071Y-21553214D02*
X13186071Y-21396072D01*
X13171786Y-21367500D01*
X13143214Y-21353214D01*
X13086071Y-21353214D01*
X13057500Y-21367500D01*
X13186071Y-21538929D02*
X13157500Y-21553214D01*
X13086071Y-21553214D01*
X13057500Y-21538929D01*
X13043214Y-21510357D01*
X13043214Y-21481786D01*
X13057500Y-21453214D01*
X13086071Y-21438929D01*
X13157500Y-21438929D01*
X13186071Y-21424643D01*
X13286071Y-21353214D02*
X13400357Y-21353214D01*
X13328928Y-21253214D02*
X13328928Y-21510357D01*
X13343214Y-21538929D01*
X13371786Y-21553214D01*
X13400357Y-21553214D01*
X13614643Y-21538929D02*
X13586071Y-21553214D01*
X13528928Y-21553214D01*
X13500357Y-21538929D01*
X13486071Y-21510357D01*
X13486071Y-21396072D01*
X13500357Y-21367500D01*
X13528928Y-21353214D01*
X13586071Y-21353214D01*
X13614643Y-21367500D01*
X13628928Y-21396072D01*
X13628928Y-21424643D01*
X13486071Y-21453214D01*
X13886071Y-21553214D02*
X13886071Y-21253214D01*
X13886071Y-21538929D02*
X13857500Y-21553214D01*
X13800357Y-21553214D01*
X13771786Y-21538929D01*
X13757500Y-21524643D01*
X13743214Y-21496072D01*
X13743214Y-21410357D01*
X13757500Y-21381786D01*
X13771786Y-21367500D01*
X13800357Y-21353214D01*
X13857500Y-21353214D01*
X13886071Y-21367500D01*
X14000357Y-21667500D02*
X14014643Y-21653214D01*
X14043214Y-21610357D01*
X14057500Y-21581786D01*
X14071786Y-21538929D01*
X14086071Y-21467500D01*
X14086071Y-21410357D01*
X14071786Y-21338929D01*
X14057500Y-21296072D01*
X14043214Y-21267500D01*
X14014643Y-21224643D01*
X14000357Y-21210357D01*
M02*
