G04 #@! TF.GenerationSoftware,KiCad,Pcbnew,(5.0.0-rc2-dev-26-g0d794b2)*
G04 #@! TF.CreationDate,2018-07-01T20:50:18-07:00*
G04 #@! TF.ProjectId,Skull_badge,536B756C6C5F62616467652E6B696361,rev?*
G04 #@! TF.SameCoordinates,Original*
G04 #@! TF.FileFunction,Soldermask,Bot*
G04 #@! TF.FilePolarity,Negative*
%FSLAX46Y46*%
G04 Gerber Fmt 4.6, Leading zero omitted, Abs format (unit mm)*
G04 Created by KiCad (PCBNEW (5.0.0-rc2-dev-26-g0d794b2)) date Sunday, July 01, 2018 at 08:50:18 PM*
%MOMM*%
%LPD*%
G01*
G04 APERTURE LIST*
%ADD10R,3.400000X1.400000*%
%ADD11O,1.924000X2.940000*%
%ADD12C,1.924000*%
%ADD13R,1.900000X1.900000*%
%ADD14O,2.150000X2.150000*%
%ADD15C,2.400000*%
%ADD16C,0.100000*%
%ADD17R,1.400760X1.400760*%
%ADD18O,1.500000X1.900000*%
%ADD19O,1.600000X2.100000*%
%ADD20C,1.400000*%
%ADD21R,2.100000X2.100000*%
%ADD22O,2.100000X2.100000*%
%ADD23R,1.100000X1.700000*%
%ADD24C,2.924000*%
%ADD25C,1.000000*%
%ADD26C,1.300000*%
G04 APERTURE END LIST*
D10*
X129149113Y-123402157D03*
X124109113Y-123402157D03*
X129149113Y-120862157D03*
X124109113Y-120862157D03*
D11*
X152302000Y-156946000D03*
X149762000Y-156946000D03*
X147222000Y-156946000D03*
X139602000Y-156946000D03*
X142142000Y-156946000D03*
X144682000Y-156946000D03*
X134522000Y-156946000D03*
X131982000Y-156946000D03*
X129442000Y-156946000D03*
X124362000Y-156946000D03*
X121822000Y-156946000D03*
X152302000Y-108686000D03*
X149762000Y-108686000D03*
X147222000Y-108686000D03*
X144682000Y-108686000D03*
X142142000Y-108686000D03*
X139602000Y-108686000D03*
X137062000Y-108686000D03*
X134522000Y-108686000D03*
X130458000Y-108686000D03*
X127918000Y-108686000D03*
X125378000Y-108686000D03*
X122838000Y-108686000D03*
X120298000Y-108686000D03*
X117758000Y-108686000D03*
X115218000Y-108686000D03*
X112678000Y-108686000D03*
X126902000Y-156946000D03*
X110138000Y-108686000D03*
X107598000Y-108686000D03*
X119282000Y-156946000D03*
X116742000Y-156946000D03*
D12*
X152302000Y-129006000D03*
X154842000Y-129006000D03*
X152302000Y-131546000D03*
X154842000Y-131546000D03*
X152302000Y-134086000D03*
X154842000Y-134086000D03*
D13*
X136046000Y-80238000D03*
D14*
X138046000Y-80238000D03*
D15*
X163174691Y-86108843D03*
D16*
G36*
X161477635Y-86108843D02*
X163174691Y-84411787D01*
X164871747Y-86108843D01*
X163174691Y-87805899D01*
X161477635Y-86108843D01*
X161477635Y-86108843D01*
G37*
D15*
X160204843Y-89220113D03*
D16*
G36*
X158507787Y-89220113D02*
X160204843Y-87523057D01*
X161901899Y-89220113D01*
X160204843Y-90917169D01*
X158507787Y-89220113D01*
X158507787Y-89220113D01*
G37*
D15*
X159654113Y-83207157D03*
D16*
G36*
X157957057Y-83207157D02*
X159654113Y-81510101D01*
X161351169Y-83207157D01*
X159654113Y-84904213D01*
X157957057Y-83207157D01*
X157957057Y-83207157D01*
G37*
D15*
X156654112Y-86207157D03*
D16*
G36*
X154957056Y-86207157D02*
X156654112Y-84510101D01*
X158351168Y-86207157D01*
X156654112Y-87904213D01*
X154957056Y-86207157D01*
X154957056Y-86207157D01*
G37*
D15*
X70542843Y-61237309D03*
D16*
G36*
X70542843Y-62934365D02*
X68845787Y-61237309D01*
X70542843Y-59540253D01*
X72239899Y-61237309D01*
X70542843Y-62934365D01*
X70542843Y-62934365D01*
G37*
D15*
X73654113Y-64207157D03*
D16*
G36*
X73654113Y-65904213D02*
X71957057Y-64207157D01*
X73654113Y-62510101D01*
X75351169Y-64207157D01*
X73654113Y-65904213D01*
X73654113Y-65904213D01*
G37*
D15*
X67007309Y-64772843D03*
D16*
G36*
X67007309Y-66469899D02*
X65310253Y-64772843D01*
X67007309Y-63075787D01*
X68704365Y-64772843D01*
X67007309Y-66469899D01*
X67007309Y-66469899D01*
G37*
D15*
X70047868Y-67954823D03*
D16*
G36*
X70047868Y-69651879D02*
X68350812Y-67954823D01*
X70047868Y-66257767D01*
X71744924Y-67954823D01*
X70047868Y-69651879D01*
X70047868Y-69651879D01*
G37*
D17*
X140618000Y-171213180D03*
X140618000Y-164014820D03*
X134014000Y-171721180D03*
X134014000Y-164522820D03*
X127918000Y-171213180D03*
X127918000Y-164014820D03*
X121822000Y-171213180D03*
X121822000Y-164014820D03*
X115218000Y-172229180D03*
X115218000Y-165030820D03*
X108106000Y-171721180D03*
X108106000Y-164522820D03*
D18*
X126782000Y-77222500D03*
X121942000Y-77222500D03*
D19*
X127092000Y-74222500D03*
X121632000Y-74222500D03*
D20*
X93792893Y-89457107D03*
D16*
G36*
X93881281Y-90535445D02*
X92714555Y-89368719D01*
X93704505Y-88378769D01*
X94871231Y-89545495D01*
X93881281Y-90535445D01*
X93881281Y-90535445D01*
G37*
D20*
X95207107Y-88042893D03*
D16*
G36*
X95295495Y-89121231D02*
X94128769Y-87954505D01*
X95118719Y-86964555D01*
X96285445Y-88131281D01*
X95295495Y-89121231D01*
X95295495Y-89121231D01*
G37*
D20*
X86062893Y-81961107D03*
D16*
G36*
X86151281Y-83039445D02*
X84984555Y-81872719D01*
X85974505Y-80882769D01*
X87141231Y-82049495D01*
X86151281Y-83039445D01*
X86151281Y-83039445D01*
G37*
D20*
X87477107Y-80546893D03*
D16*
G36*
X87565495Y-81625231D02*
X86398769Y-80458505D01*
X87388719Y-79468555D01*
X88555445Y-80635281D01*
X87565495Y-81625231D01*
X87565495Y-81625231D01*
G37*
D20*
X79458893Y-75357107D03*
D16*
G36*
X79547281Y-76435445D02*
X78380555Y-75268719D01*
X79370505Y-74278769D01*
X80537231Y-75445495D01*
X79547281Y-76435445D01*
X79547281Y-76435445D01*
G37*
D20*
X80873107Y-73942893D03*
D16*
G36*
X80961495Y-75021231D02*
X79794769Y-73854505D01*
X80784719Y-72864555D01*
X81951445Y-74031281D01*
X80961495Y-75021231D01*
X80961495Y-75021231D01*
G37*
D20*
X72854893Y-68245107D03*
D16*
G36*
X72943281Y-69323445D02*
X71776555Y-68156719D01*
X72766505Y-67166769D01*
X73933231Y-68333495D01*
X72943281Y-69323445D01*
X72943281Y-69323445D01*
G37*
D20*
X74269107Y-66830893D03*
D16*
G36*
X74357495Y-67909231D02*
X73190769Y-66742505D01*
X74180719Y-65752555D01*
X75347445Y-66919281D01*
X74357495Y-67909231D01*
X74357495Y-67909231D01*
G37*
D20*
X155150893Y-88674893D03*
D16*
G36*
X154072555Y-88763281D02*
X155239281Y-87596555D01*
X156229231Y-88586505D01*
X155062505Y-89753231D01*
X154072555Y-88763281D01*
X154072555Y-88763281D01*
G37*
D20*
X156565107Y-90089107D03*
D16*
G36*
X155486769Y-90177495D02*
X156653495Y-89010769D01*
X157643445Y-90000719D01*
X156476719Y-91167445D01*
X155486769Y-90177495D01*
X155486769Y-90177495D01*
G37*
D20*
X163786893Y-81054893D03*
D16*
G36*
X162708555Y-81143281D02*
X163875281Y-79976555D01*
X164865231Y-80966505D01*
X163698505Y-82133231D01*
X162708555Y-81143281D01*
X162708555Y-81143281D01*
G37*
D20*
X165201107Y-82469107D03*
D16*
G36*
X164122769Y-82557495D02*
X165289495Y-81390769D01*
X166279445Y-82380719D01*
X165112719Y-83547445D01*
X164122769Y-82557495D01*
X164122769Y-82557495D01*
G37*
D20*
X171914893Y-73434893D03*
D16*
G36*
X170836555Y-73523281D02*
X172003281Y-72356555D01*
X172993231Y-73346505D01*
X171826505Y-74513231D01*
X170836555Y-73523281D01*
X170836555Y-73523281D01*
G37*
D20*
X173329107Y-74849107D03*
D16*
G36*
X172250769Y-74937495D02*
X173417495Y-73770769D01*
X174407445Y-74760719D01*
X173240719Y-75927445D01*
X172250769Y-74937495D01*
X172250769Y-74937495D01*
G37*
D20*
X180042893Y-65814893D03*
D16*
G36*
X178964555Y-65903281D02*
X180131281Y-64736555D01*
X181121231Y-65726505D01*
X179954505Y-66893231D01*
X178964555Y-65903281D01*
X178964555Y-65903281D01*
G37*
D20*
X181457107Y-67229107D03*
D16*
G36*
X180378769Y-67317495D02*
X181545495Y-66150769D01*
X182535445Y-67140719D01*
X181368719Y-68307445D01*
X180378769Y-67317495D01*
X180378769Y-67317495D01*
G37*
D20*
X96113107Y-149525107D03*
D16*
G36*
X97191445Y-149436719D02*
X96024719Y-150603445D01*
X95034769Y-149613495D01*
X96201495Y-148446769D01*
X97191445Y-149436719D01*
X97191445Y-149436719D01*
G37*
D20*
X94698893Y-148110893D03*
D16*
G36*
X95777231Y-148022505D02*
X94610505Y-149189231D01*
X93620555Y-148199281D01*
X94787281Y-147032555D01*
X95777231Y-148022505D01*
X95777231Y-148022505D01*
G37*
D20*
X89509107Y-157145107D03*
D16*
G36*
X90587445Y-157056719D02*
X89420719Y-158223445D01*
X88430769Y-157233495D01*
X89597495Y-156066769D01*
X90587445Y-157056719D01*
X90587445Y-157056719D01*
G37*
D20*
X88094893Y-155730893D03*
D16*
G36*
X89173231Y-155642505D02*
X88006505Y-156809231D01*
X87016555Y-155819281D01*
X88183281Y-154652555D01*
X89173231Y-155642505D01*
X89173231Y-155642505D01*
G37*
D20*
X81381107Y-164257107D03*
D16*
G36*
X82459445Y-164168719D02*
X81292719Y-165335445D01*
X80302769Y-164345495D01*
X81469495Y-163178769D01*
X82459445Y-164168719D01*
X82459445Y-164168719D01*
G37*
D20*
X79966893Y-162842893D03*
D16*
G36*
X81045231Y-162754505D02*
X79878505Y-163921231D01*
X78888555Y-162931281D01*
X80055281Y-161764555D01*
X81045231Y-162754505D01*
X81045231Y-162754505D01*
G37*
D20*
X73761107Y-171369107D03*
D16*
G36*
X74839445Y-171280719D02*
X73672719Y-172447445D01*
X72682769Y-171457495D01*
X73849495Y-170290769D01*
X74839445Y-171280719D01*
X74839445Y-171280719D01*
G37*
D20*
X72346893Y-169954893D03*
D16*
G36*
X73425231Y-169866505D02*
X72258505Y-171033231D01*
X71268555Y-170043281D01*
X72435281Y-168876555D01*
X73425231Y-169866505D01*
X73425231Y-169866505D01*
G37*
D20*
X155549107Y-148618893D03*
D16*
G36*
X155460719Y-147540555D02*
X156627445Y-148707281D01*
X155637495Y-149697231D01*
X154470769Y-148530505D01*
X155460719Y-147540555D01*
X155460719Y-147540555D01*
G37*
D20*
X154134893Y-150033107D03*
D16*
G36*
X154046505Y-148954769D02*
X155213231Y-150121495D01*
X154223281Y-151111445D01*
X153056555Y-149944719D01*
X154046505Y-148954769D01*
X154046505Y-148954769D01*
G37*
D20*
X162661107Y-156238893D03*
D16*
G36*
X162572719Y-155160555D02*
X163739445Y-156327281D01*
X162749495Y-157317231D01*
X161582769Y-156150505D01*
X162572719Y-155160555D01*
X162572719Y-155160555D01*
G37*
D20*
X161246893Y-157653107D03*
D16*
G36*
X161158505Y-156574769D02*
X162325231Y-157741495D01*
X161335281Y-158731445D01*
X160168555Y-157564719D01*
X161158505Y-156574769D01*
X161158505Y-156574769D01*
G37*
D20*
X170789107Y-163858893D03*
D16*
G36*
X170700719Y-162780555D02*
X171867445Y-163947281D01*
X170877495Y-164937231D01*
X169710769Y-163770505D01*
X170700719Y-162780555D01*
X170700719Y-162780555D01*
G37*
D20*
X169374893Y-165273107D03*
D16*
G36*
X169286505Y-164194769D02*
X170453231Y-165361495D01*
X169463281Y-166351445D01*
X168296555Y-165184719D01*
X169286505Y-164194769D01*
X169286505Y-164194769D01*
G37*
D20*
X179425107Y-171986893D03*
D16*
G36*
X179336719Y-170908555D02*
X180503445Y-172075281D01*
X179513495Y-173065231D01*
X178346769Y-171898505D01*
X179336719Y-170908555D01*
X179336719Y-170908555D01*
G37*
D20*
X178010893Y-173401107D03*
D16*
G36*
X177922505Y-172322769D02*
X179089231Y-173489495D01*
X178099281Y-174479445D01*
X176932555Y-173312719D01*
X177922505Y-172322769D01*
X177922505Y-172322769D01*
G37*
D21*
X87405000Y-100558000D03*
D22*
X87405000Y-103098000D03*
X89945000Y-100558000D03*
X89945000Y-103098000D03*
X92485000Y-100558000D03*
X92485000Y-103098000D03*
X95025000Y-100558000D03*
X95025000Y-103098000D03*
X97565000Y-100558000D03*
X97565000Y-103098000D03*
D23*
X97850113Y-83765157D03*
X99750113Y-83765157D03*
D24*
X131106602Y-99456602D03*
D16*
G36*
X133174182Y-99456602D02*
X131106602Y-101524182D01*
X129039022Y-99456602D01*
X131106602Y-97389022D01*
X133174182Y-99456602D01*
X133174182Y-99456602D01*
G37*
D24*
X120500000Y-88850000D03*
D16*
G36*
X122567580Y-88850000D02*
X120500000Y-90917580D01*
X118432420Y-88850000D01*
X120500000Y-86782420D01*
X122567580Y-88850000D01*
X122567580Y-88850000D01*
G37*
D25*
X144464900Y-92873700D03*
X145964900Y-92873700D03*
X144464900Y-91873700D03*
X145964900Y-91873700D03*
X145214900Y-92373700D03*
D21*
X102920800Y-103759000D03*
D22*
X102920800Y-101219000D03*
X102920800Y-98679000D03*
D15*
X77400843Y-67841309D03*
D16*
G36*
X77400843Y-69538365D02*
X75703787Y-67841309D01*
X77400843Y-66144253D01*
X79097899Y-67841309D01*
X77400843Y-69538365D01*
X77400843Y-69538365D01*
G37*
D15*
X80512113Y-70811157D03*
D16*
G36*
X80512113Y-72508213D02*
X78815057Y-70811157D01*
X80512113Y-69114101D01*
X82209169Y-70811157D01*
X80512113Y-72508213D01*
X80512113Y-72508213D01*
G37*
D15*
X73865309Y-71376843D03*
D16*
G36*
X73865309Y-73073899D02*
X72168253Y-71376843D01*
X73865309Y-69679787D01*
X75562365Y-71376843D01*
X73865309Y-73073899D01*
X73865309Y-73073899D01*
G37*
D15*
X76905868Y-74558823D03*
D16*
G36*
X76905868Y-76255879D02*
X75208812Y-74558823D01*
X76905868Y-72861767D01*
X78602924Y-74558823D01*
X76905868Y-76255879D01*
X76905868Y-76255879D01*
G37*
D15*
X84004843Y-74445309D03*
D16*
G36*
X84004843Y-76142365D02*
X82307787Y-74445309D01*
X84004843Y-72748253D01*
X85701899Y-74445309D01*
X84004843Y-76142365D01*
X84004843Y-76142365D01*
G37*
D15*
X87116113Y-77415157D03*
D16*
G36*
X87116113Y-79112213D02*
X85419057Y-77415157D01*
X87116113Y-75718101D01*
X88813169Y-77415157D01*
X87116113Y-79112213D01*
X87116113Y-79112213D01*
G37*
D15*
X80469309Y-77980843D03*
D16*
G36*
X80469309Y-79677899D02*
X78772253Y-77980843D01*
X80469309Y-76283787D01*
X82166365Y-77980843D01*
X80469309Y-79677899D01*
X80469309Y-79677899D01*
G37*
D15*
X83509868Y-81162823D03*
D16*
G36*
X83509868Y-82859879D02*
X81812812Y-81162823D01*
X83509868Y-79465767D01*
X85206924Y-81162823D01*
X83509868Y-82859879D01*
X83509868Y-82859879D01*
G37*
D15*
X90608843Y-81557309D03*
D16*
G36*
X90608843Y-83254365D02*
X88911787Y-81557309D01*
X90608843Y-79860253D01*
X92305899Y-81557309D01*
X90608843Y-83254365D01*
X90608843Y-83254365D01*
G37*
D15*
X93720113Y-84527157D03*
D16*
G36*
X93720113Y-86224213D02*
X92023057Y-84527157D01*
X93720113Y-82830101D01*
X95417169Y-84527157D01*
X93720113Y-86224213D01*
X93720113Y-86224213D01*
G37*
D15*
X87073309Y-85092843D03*
D16*
G36*
X87073309Y-86789899D02*
X85376253Y-85092843D01*
X87073309Y-83395787D01*
X88770365Y-85092843D01*
X87073309Y-86789899D01*
X87073309Y-86789899D01*
G37*
D15*
X90113868Y-88274823D03*
D16*
G36*
X90113868Y-89971879D02*
X88416812Y-88274823D01*
X90113868Y-86577767D01*
X91810924Y-88274823D01*
X90113868Y-89971879D01*
X90113868Y-89971879D01*
G37*
D15*
X188066691Y-63756843D03*
D16*
G36*
X186369635Y-63756843D02*
X188066691Y-62059787D01*
X189763747Y-63756843D01*
X188066691Y-65453899D01*
X186369635Y-63756843D01*
X186369635Y-63756843D01*
G37*
D15*
X185096843Y-66868113D03*
D16*
G36*
X183399787Y-66868113D02*
X185096843Y-65171057D01*
X186793899Y-66868113D01*
X185096843Y-68565169D01*
X183399787Y-66868113D01*
X183399787Y-66868113D01*
G37*
D15*
X184531157Y-60221309D03*
D16*
G36*
X182834101Y-60221309D02*
X184531157Y-58524253D01*
X186228213Y-60221309D01*
X184531157Y-61918365D01*
X182834101Y-60221309D01*
X182834101Y-60221309D01*
G37*
D15*
X181349177Y-63261868D03*
D16*
G36*
X179652121Y-63261868D02*
X181349177Y-61564812D01*
X183046233Y-63261868D01*
X181349177Y-64958924D01*
X179652121Y-63261868D01*
X179652121Y-63261868D01*
G37*
D15*
X179430691Y-71376843D03*
D16*
G36*
X177733635Y-71376843D02*
X179430691Y-69679787D01*
X181127747Y-71376843D01*
X179430691Y-73073899D01*
X177733635Y-71376843D01*
X177733635Y-71376843D01*
G37*
D15*
X176460843Y-74488113D03*
D16*
G36*
X174763787Y-74488113D02*
X176460843Y-72791057D01*
X178157899Y-74488113D01*
X176460843Y-76185169D01*
X174763787Y-74488113D01*
X174763787Y-74488113D01*
G37*
D15*
X175895157Y-67841309D03*
D16*
G36*
X174198101Y-67841309D02*
X175895157Y-66144253D01*
X177592213Y-67841309D01*
X175895157Y-69538365D01*
X174198101Y-67841309D01*
X174198101Y-67841309D01*
G37*
D15*
X172713177Y-70881868D03*
D16*
G36*
X171016121Y-70881868D02*
X172713177Y-69184812D01*
X174410233Y-70881868D01*
X172713177Y-72578924D01*
X171016121Y-70881868D01*
X171016121Y-70881868D01*
G37*
D15*
X171810691Y-78996843D03*
D16*
G36*
X170113635Y-78996843D02*
X171810691Y-77299787D01*
X173507747Y-78996843D01*
X171810691Y-80693899D01*
X170113635Y-78996843D01*
X170113635Y-78996843D01*
G37*
D15*
X168840843Y-82108113D03*
D16*
G36*
X167143787Y-82108113D02*
X168840843Y-80411057D01*
X170537899Y-82108113D01*
X168840843Y-83805169D01*
X167143787Y-82108113D01*
X167143787Y-82108113D01*
G37*
D15*
X168275157Y-75461309D03*
D16*
G36*
X166578101Y-75461309D02*
X168275157Y-73764253D01*
X169972213Y-75461309D01*
X168275157Y-77158365D01*
X166578101Y-75461309D01*
X166578101Y-75461309D01*
G37*
D15*
X165093177Y-78501868D03*
D16*
G36*
X163396121Y-78501868D02*
X165093177Y-76804812D01*
X166790233Y-78501868D01*
X165093177Y-80198924D01*
X163396121Y-78501868D01*
X163396121Y-78501868D01*
G37*
D15*
X181991157Y-179502691D03*
D16*
G36*
X181991157Y-177805635D02*
X183688213Y-179502691D01*
X181991157Y-181199747D01*
X180294101Y-179502691D01*
X181991157Y-177805635D01*
X181991157Y-177805635D01*
G37*
D15*
X178879887Y-176532843D03*
D16*
G36*
X178879887Y-174835787D02*
X180576943Y-176532843D01*
X178879887Y-178229899D01*
X177182831Y-176532843D01*
X178879887Y-174835787D01*
X178879887Y-174835787D01*
G37*
D15*
X185526691Y-175967157D03*
D16*
G36*
X185526691Y-174270101D02*
X187223747Y-175967157D01*
X185526691Y-177664213D01*
X183829635Y-175967157D01*
X185526691Y-174270101D01*
X185526691Y-174270101D01*
G37*
D15*
X182486132Y-172785177D03*
D16*
G36*
X182486132Y-171088121D02*
X184183188Y-172785177D01*
X182486132Y-174482233D01*
X180789076Y-172785177D01*
X182486132Y-171088121D01*
X182486132Y-171088121D01*
G37*
D15*
X174371157Y-171882691D03*
D16*
G36*
X174371157Y-170185635D02*
X176068213Y-171882691D01*
X174371157Y-173579747D01*
X172674101Y-171882691D01*
X174371157Y-170185635D01*
X174371157Y-170185635D01*
G37*
D15*
X171259887Y-168912843D03*
D16*
G36*
X171259887Y-167215787D02*
X172956943Y-168912843D01*
X171259887Y-170609899D01*
X169562831Y-168912843D01*
X171259887Y-167215787D01*
X171259887Y-167215787D01*
G37*
D15*
X177906691Y-168347157D03*
D16*
G36*
X177906691Y-166650101D02*
X179603747Y-168347157D01*
X177906691Y-170044213D01*
X176209635Y-168347157D01*
X177906691Y-166650101D01*
X177906691Y-166650101D01*
G37*
D15*
X174866132Y-165165177D03*
D16*
G36*
X174866132Y-163468121D02*
X176563188Y-165165177D01*
X174866132Y-166862233D01*
X173169076Y-165165177D01*
X174866132Y-163468121D01*
X174866132Y-163468121D01*
G37*
D15*
X165735157Y-163754691D03*
D16*
G36*
X165735157Y-162057635D02*
X167432213Y-163754691D01*
X165735157Y-165451747D01*
X164038101Y-163754691D01*
X165735157Y-162057635D01*
X165735157Y-162057635D01*
G37*
D15*
X162623887Y-160784843D03*
D16*
G36*
X162623887Y-159087787D02*
X164320943Y-160784843D01*
X162623887Y-162481899D01*
X160926831Y-160784843D01*
X162623887Y-159087787D01*
X162623887Y-159087787D01*
G37*
D15*
X169270691Y-160219157D03*
D16*
G36*
X169270691Y-158522101D02*
X170967747Y-160219157D01*
X169270691Y-161916213D01*
X167573635Y-160219157D01*
X169270691Y-158522101D01*
X169270691Y-158522101D01*
G37*
D15*
X166230132Y-157037177D03*
D16*
G36*
X166230132Y-155340121D02*
X167927188Y-157037177D01*
X166230132Y-158734233D01*
X164533076Y-157037177D01*
X166230132Y-155340121D01*
X166230132Y-155340121D01*
G37*
D15*
X158115157Y-156134691D03*
D16*
G36*
X158115157Y-154437635D02*
X159812213Y-156134691D01*
X158115157Y-157831747D01*
X156418101Y-156134691D01*
X158115157Y-154437635D01*
X158115157Y-154437635D01*
G37*
D15*
X155003887Y-153164843D03*
D16*
G36*
X155003887Y-151467787D02*
X156700943Y-153164843D01*
X155003887Y-154861899D01*
X153306831Y-153164843D01*
X155003887Y-151467787D01*
X155003887Y-151467787D01*
G37*
D15*
X161650691Y-152599157D03*
D16*
G36*
X161650691Y-150902101D02*
X163347747Y-152599157D01*
X161650691Y-154296213D01*
X159953635Y-152599157D01*
X161650691Y-150902101D01*
X161650691Y-150902101D01*
G37*
D15*
X158610132Y-149417177D03*
D16*
G36*
X158610132Y-147720121D02*
X160307188Y-149417177D01*
X158610132Y-151114233D01*
X156913076Y-149417177D01*
X158610132Y-147720121D01*
X158610132Y-147720121D01*
G37*
D15*
X89105309Y-152599157D03*
D16*
G36*
X90802365Y-152599157D02*
X89105309Y-154296213D01*
X87408253Y-152599157D01*
X89105309Y-150902101D01*
X90802365Y-152599157D01*
X90802365Y-152599157D01*
G37*
D15*
X92075157Y-149487887D03*
D16*
G36*
X93772213Y-149487887D02*
X92075157Y-151184943D01*
X90378101Y-149487887D01*
X92075157Y-147790831D01*
X93772213Y-149487887D01*
X93772213Y-149487887D01*
G37*
D15*
X92640843Y-156134691D03*
D16*
G36*
X94337899Y-156134691D02*
X92640843Y-157831747D01*
X90943787Y-156134691D01*
X92640843Y-154437635D01*
X94337899Y-156134691D01*
X94337899Y-156134691D01*
G37*
D15*
X95822823Y-153094132D03*
D16*
G36*
X97519879Y-153094132D02*
X95822823Y-154791188D01*
X94125767Y-153094132D01*
X95822823Y-151397076D01*
X97519879Y-153094132D01*
X97519879Y-153094132D01*
G37*
D15*
X81993309Y-159203157D03*
D16*
G36*
X83690365Y-159203157D02*
X81993309Y-160900213D01*
X80296253Y-159203157D01*
X81993309Y-157506101D01*
X83690365Y-159203157D01*
X83690365Y-159203157D01*
G37*
D15*
X84963157Y-156091887D03*
D16*
G36*
X86660213Y-156091887D02*
X84963157Y-157788943D01*
X83266101Y-156091887D01*
X84963157Y-154394831D01*
X86660213Y-156091887D01*
X86660213Y-156091887D01*
G37*
D15*
X85528843Y-162738691D03*
D16*
G36*
X87225899Y-162738691D02*
X85528843Y-164435747D01*
X83831787Y-162738691D01*
X85528843Y-161041635D01*
X87225899Y-162738691D01*
X87225899Y-162738691D01*
G37*
D15*
X88710823Y-159698132D03*
D16*
G36*
X90407879Y-159698132D02*
X88710823Y-161395188D01*
X87013767Y-159698132D01*
X88710823Y-158001076D01*
X90407879Y-159698132D01*
X90407879Y-159698132D01*
G37*
D15*
X73865309Y-166823157D03*
D16*
G36*
X75562365Y-166823157D02*
X73865309Y-168520213D01*
X72168253Y-166823157D01*
X73865309Y-165126101D01*
X75562365Y-166823157D01*
X75562365Y-166823157D01*
G37*
D15*
X76835157Y-163711887D03*
D16*
G36*
X78532213Y-163711887D02*
X76835157Y-165408943D01*
X75138101Y-163711887D01*
X76835157Y-162014831D01*
X78532213Y-163711887D01*
X78532213Y-163711887D01*
G37*
D15*
X77400843Y-170358691D03*
D16*
G36*
X79097899Y-170358691D02*
X77400843Y-172055747D01*
X75703787Y-170358691D01*
X77400843Y-168661635D01*
X79097899Y-170358691D01*
X79097899Y-170358691D01*
G37*
D15*
X80582823Y-167318132D03*
D16*
G36*
X82279879Y-167318132D02*
X80582823Y-169015188D01*
X78885767Y-167318132D01*
X80582823Y-165621076D01*
X82279879Y-167318132D01*
X82279879Y-167318132D01*
G37*
D15*
X66245309Y-173935157D03*
D16*
G36*
X67942365Y-173935157D02*
X66245309Y-175632213D01*
X64548253Y-173935157D01*
X66245309Y-172238101D01*
X67942365Y-173935157D01*
X67942365Y-173935157D01*
G37*
D15*
X69215157Y-170823887D03*
D16*
G36*
X70912213Y-170823887D02*
X69215157Y-172520943D01*
X67518101Y-170823887D01*
X69215157Y-169126831D01*
X70912213Y-170823887D01*
X70912213Y-170823887D01*
G37*
D15*
X69780843Y-177470691D03*
D16*
G36*
X71477899Y-177470691D02*
X69780843Y-179167747D01*
X68083787Y-177470691D01*
X69780843Y-175773635D01*
X71477899Y-177470691D01*
X71477899Y-177470691D01*
G37*
D15*
X72962823Y-174430132D03*
D16*
G36*
X74659879Y-174430132D02*
X72962823Y-176127188D01*
X71265767Y-174430132D01*
X72962823Y-172733076D01*
X74659879Y-174430132D01*
X74659879Y-174430132D01*
G37*
D26*
X164223413Y-90853570D03*
X166261737Y-88652381D03*
M02*
