M48
;DRILL file {KiCad (5.0.0-rc2-dev-26-g0d794b2)} date Sunday, July 01, 2018 at 08:50:20 PM
;FORMAT={-:-/ absolute / metric / decimal}
FMAT,2
METRIC,TZ
T1C0.300
T2C0.400
T3C0.650
T4C0.700
T5C1.000
T6C1.016
%
G90
G05
M71
T1
X144.465Y-91.874
X144.465Y-92.874
X145.215Y-92.374
X145.965Y-91.874
X145.965Y-92.874
T2
X68.2Y-66.5
X70.601Y-65.264
X71.9Y-69.5
X74.5Y-172.75
X74.9Y-73.5
X75.2Y-170.3
X78.8Y-76.4
X81.7Y-80.
X82.25Y-165.75
X82.9Y-163.5
X83.743Y-77.456
X85.2Y-83.1
X88.2Y-87.1
X89.275Y-145.551
X89.31Y-149.453
X89.829Y-140.332
X89.829Y-140.332
X89.829Y-142.132
X89.829Y-143.932
X89.829Y-143.932
X89.839Y-111.132
X90.5Y-158.5
X91.25Y-157.75
X92.5Y-90.75
X92.612Y-153.009
X93.784Y-87.385
X96.479Y-86.802
X101.254Y-84.182
X101.34Y-90.687
X102.605Y-147.103
X103.729Y-86.682
X105.829Y-84.782
X108.004Y-82.657
X108.1Y-170.4
X108.423Y-105.828
X109.25Y-102.25
X110.3Y-91.6
X110.421Y-104.403
X111.535Y-107.225
X113.304Y-85.932
X114.629Y-111.382
X115.1Y-170.8
X115.76Y-85.268
X115.823Y-160.326
X116.5Y-99.15
X116.615Y-90.144
X117.3Y-98.35
X117.822Y-101.447
X118.6Y-103.7
X119.5Y-101.9
X120.055Y-94.475
X120.4Y-106.4
X120.65Y-85.
X120.85Y-97.35
X120.861Y-120.091
X121.Y-161.2
X121.129Y-116.432
X121.154Y-92.207
X121.45Y-93.75
X121.558Y-85.281
X121.65Y-96.55
X121.787Y-169.681
X122.579Y-99.004
X122.654Y-93.207
X122.805Y-104.45
X122.825Y-85.697
X123.158Y-99.557
X123.65Y-100.35
X124.4Y-106.7
X125.1Y-88.8
X125.204Y-93.782
X125.25Y-105.075
X125.4Y-163.1
X126.Y-103.85
X126.31Y-92.296
X126.883Y-104.567
X127.15Y-99.65
X127.6Y-97.3
X127.883Y-169.681
X128.21Y-95.41
X128.7Y-98.3
X128.792Y-93.092
X131.15Y-87.95
X131.329Y-119.732
X131.629Y-79.957
X133.354Y-79.832
X133.852Y-169.935
X134.299Y-151.642
X134.346Y-78.111
X135.65Y-93.65
X137.849Y-148.132
X138.654Y-149.707
X139.5Y-101.8
X139.559Y-149.092
X139.559Y-149.092
X139.654Y-153.707
X139.865Y-90.272
X140.6Y-170.1
X141.91Y-90.272
X144.33Y-162.632
X146.616Y-164.728
X147.054Y-112.107
X148.029Y-147.832
X149.829Y-147.732
X150.607Y-114.432
X151.384Y-95.694
X151.629Y-147.732
X151.825Y-140.539
X151.937Y-113.102
X151.937Y-113.102
X152.079Y-106.107
X152.604Y-100.932
X152.929Y-112.11
X152.929Y-112.11
X153.429Y-123.632
X154.029Y-90.432
X154.654Y-91.357
X154.914Y-84.659
X156.25Y-151.75
X157.6Y-147.7
X157.654Y-87.957
X157.654Y-118.007
X157.979Y-91.032
X160.254Y-85.607
X160.426Y-100.127
X160.6Y-150.6
X161.904Y-84.007
X161.929Y-81.932
X162.354Y-90.207
X163.351Y-79.857
X163.8Y-155.2
X165.029Y-76.432
X165.829Y-85.132
X168.2Y-158.3
X170.4Y-74.2
X171.9Y-162.8
X174.1Y-69.
X176.9Y-166.4
X177.667Y-174.888
X179.Y-66.7
X180.5Y-171.
X180.588Y-177.618
X182.279Y-66.357
X182.6Y-61.4
X184.373Y-174.
X185.633Y-62.475
T5
X102.921Y-98.679
X102.921Y-101.219
X102.921Y-103.759
X136.046Y-80.238
X138.046Y-80.238
X87.405Y-100.558
X87.405Y-103.098
X89.945Y-100.558
X89.945Y-103.098
X92.485Y-100.558
X92.485Y-103.098
X95.025Y-100.558
X95.025Y-103.098
X97.565Y-100.558
X97.565Y-103.098
T6
X107.598Y-108.686
X110.138Y-108.686
X112.678Y-108.686
X115.218Y-108.686
X116.742Y-156.946
X117.758Y-108.686
X119.282Y-156.946
X120.298Y-108.686
X121.822Y-156.946
X122.838Y-108.686
X124.362Y-156.946
X125.378Y-108.686
X126.902Y-156.946
X127.918Y-108.686
X129.442Y-156.946
X130.458Y-108.686
X131.982Y-156.946
X134.522Y-108.686
X134.522Y-156.946
X137.062Y-108.686
X139.602Y-108.686
X139.602Y-156.946
X142.142Y-108.686
X142.142Y-156.946
X144.682Y-108.686
X144.682Y-156.946
X147.222Y-108.686
X147.222Y-156.946
X149.762Y-108.686
X149.762Y-156.946
X152.302Y-108.686
X152.302Y-129.006
X152.302Y-131.546
X152.302Y-134.086
X152.302Y-156.946
X154.842Y-129.006
X154.842Y-131.546
X154.842Y-134.086
T3
X121.942Y-77.022G85X121.942Y-77.422
G05
X126.782Y-77.022G85X126.782Y-77.422
G05
T4
X121.632Y-73.972G85X121.632Y-74.472
G05
X127.092Y-73.972G85X127.092Y-74.472
G05
T0
M30
