G04 #@! TF.GenerationSoftware,KiCad,Pcbnew,(5.0.0-rc2-dev-26-g0d794b2)*
G04 #@! TF.CreationDate,2018-07-01T20:50:17-07:00*
G04 #@! TF.ProjectId,Skull_badge,536B756C6C5F62616467652E6B696361,rev?*
G04 #@! TF.SameCoordinates,Original*
G04 #@! TF.FileFunction,Copper,L1,Top,Signal*
G04 #@! TF.FilePolarity,Positive*
%FSLAX46Y46*%
G04 Gerber Fmt 4.6, Leading zero omitted, Abs format (unit mm)*
G04 Created by KiCad (PCBNEW (5.0.0-rc2-dev-26-g0d794b2)) date Sunday, July 01, 2018 at 08:50:17 PM*
%MOMM*%
%LPD*%
G01*
G04 APERTURE LIST*
%ADD10O,1.524000X2.540000*%
%ADD11C,1.524000*%
%ADD12R,1.500000X1.500000*%
%ADD13O,1.750000X1.750000*%
%ADD14R,2.300000X5.600000*%
%ADD15R,0.400000X1.650000*%
%ADD16O,1.100000X1.500000*%
%ADD17O,1.200000X1.700000*%
%ADD18R,1.430000X2.500000*%
%ADD19R,1.000000X1.250000*%
%ADD20R,1.250000X1.000000*%
%ADD21R,1.700000X1.700000*%
%ADD22O,1.700000X1.700000*%
%ADD23R,0.700000X1.300000*%
%ADD24C,0.700000*%
%ADD25C,0.100000*%
%ADD26R,1.300000X0.700000*%
%ADD27R,0.550000X1.500000*%
%ADD28R,1.500000X0.550000*%
%ADD29R,1.998980X5.499100*%
%ADD30R,1.200000X1.200000*%
%ADD31C,1.000760*%
%ADD32C,3.000000*%
%ADD33R,0.280000X0.850000*%
%ADD34R,1.200000X0.825000*%
%ADD35R,0.700000X0.280000*%
%ADD36C,0.600000*%
%ADD37R,0.900000X1.300000*%
%ADD38R,2.032000X3.657600*%
%ADD39R,2.032000X1.016000*%
%ADD40C,0.800000*%
%ADD41C,1.000000*%
%ADD42C,1.000000*%
%ADD43C,0.250000*%
%ADD44C,0.300000*%
%ADD45C,0.600000*%
%ADD46C,2.000000*%
%ADD47C,0.400000*%
%ADD48C,0.254000*%
G04 APERTURE END LIST*
D10*
X152302000Y-156946000D03*
X149762000Y-156946000D03*
X147222000Y-156946000D03*
X139602000Y-156946000D03*
X142142000Y-156946000D03*
X144682000Y-156946000D03*
X134522000Y-156946000D03*
X131982000Y-156946000D03*
X129442000Y-156946000D03*
X124362000Y-156946000D03*
X121822000Y-156946000D03*
X152302000Y-108686000D03*
X149762000Y-108686000D03*
X147222000Y-108686000D03*
X144682000Y-108686000D03*
X142142000Y-108686000D03*
X139602000Y-108686000D03*
X137062000Y-108686000D03*
X134522000Y-108686000D03*
X130458000Y-108686000D03*
X127918000Y-108686000D03*
X125378000Y-108686000D03*
X122838000Y-108686000D03*
X120298000Y-108686000D03*
X117758000Y-108686000D03*
X115218000Y-108686000D03*
X112678000Y-108686000D03*
X126902000Y-156946000D03*
X110138000Y-108686000D03*
X107598000Y-108686000D03*
X119282000Y-156946000D03*
X116742000Y-156946000D03*
D11*
X152302000Y-129006000D03*
X154842000Y-129006000D03*
X152302000Y-131546000D03*
X154842000Y-131546000D03*
X152302000Y-134086000D03*
X154842000Y-134086000D03*
D12*
X136046000Y-80238000D03*
D13*
X138046000Y-80238000D03*
D14*
X152354113Y-86707157D03*
X144954113Y-86707157D03*
D15*
X125662000Y-77102500D03*
X125012000Y-77102500D03*
X124362000Y-77102500D03*
X123712000Y-77102500D03*
X123062000Y-77102500D03*
D16*
X126782000Y-77222500D03*
X121942000Y-77222500D03*
D17*
X127092000Y-74222500D03*
X121632000Y-74222500D03*
D18*
X125322000Y-73982500D03*
X123402000Y-73982500D03*
D19*
X114800000Y-86450000D03*
X116800000Y-86450000D03*
D20*
X108550000Y-98850000D03*
X108550000Y-100850000D03*
X108650000Y-92900000D03*
X108650000Y-90900000D03*
X132200000Y-101800000D03*
X132200000Y-99800000D03*
X116250000Y-93300000D03*
X116250000Y-91300000D03*
D19*
X123050000Y-87600000D03*
X121050000Y-87600000D03*
X132500000Y-93600000D03*
X134500000Y-93600000D03*
D21*
X87405000Y-100558000D03*
D22*
X87405000Y-103098000D03*
X89945000Y-100558000D03*
X89945000Y-103098000D03*
X92485000Y-100558000D03*
X92485000Y-103098000D03*
X95025000Y-100558000D03*
X95025000Y-103098000D03*
X97565000Y-100558000D03*
X97565000Y-103098000D03*
D23*
X106798613Y-169934657D03*
X104898613Y-169934657D03*
X112323113Y-171966657D03*
X110423113Y-171966657D03*
X119308113Y-171395157D03*
X117408113Y-171395157D03*
X126166113Y-171395157D03*
X124266113Y-171395157D03*
X132198613Y-171204657D03*
X130298613Y-171204657D03*
X138485113Y-171077657D03*
X136585113Y-171077657D03*
D24*
X143413864Y-167611906D03*
D25*
G36*
X143201732Y-166904799D02*
X144120971Y-167824038D01*
X143625996Y-168319013D01*
X142706757Y-167399774D01*
X143201732Y-166904799D01*
X143201732Y-166904799D01*
G37*
D24*
X142070362Y-168955408D03*
D25*
G36*
X141858230Y-168248301D02*
X142777469Y-169167540D01*
X142282494Y-169662515D01*
X141363255Y-168743276D01*
X141858230Y-168248301D01*
X141858230Y-168248301D01*
G37*
D26*
X145050000Y-165900000D03*
X145050000Y-164000000D03*
D23*
X114900000Y-88400000D03*
X116800000Y-88400000D03*
D26*
X116250000Y-96800000D03*
X116250000Y-94900000D03*
X123600000Y-82250000D03*
X123600000Y-80350000D03*
X125600000Y-82250000D03*
X125600000Y-80350000D03*
D23*
X130600000Y-104000000D03*
X128700000Y-104000000D03*
D27*
X128400000Y-90450000D03*
X127600000Y-90450000D03*
X126800000Y-90450000D03*
X126000000Y-90450000D03*
X125200000Y-90450000D03*
X124400000Y-90450000D03*
X123600000Y-90450000D03*
X122800000Y-90450000D03*
X122000000Y-90450000D03*
X121200000Y-90450000D03*
X120400000Y-90450000D03*
D28*
X118700000Y-92150000D03*
X118700000Y-92950000D03*
X118700000Y-93750000D03*
X118700000Y-94550000D03*
X118700000Y-95350000D03*
X118700000Y-96150000D03*
X118700000Y-96950000D03*
X118700000Y-97750000D03*
X118700000Y-98550000D03*
X118700000Y-99350000D03*
X118700000Y-100150000D03*
D27*
X120400000Y-101850000D03*
X121200000Y-101850000D03*
X122000000Y-101850000D03*
X122800000Y-101850000D03*
X123600000Y-101850000D03*
X124400000Y-101850000D03*
X125200000Y-101850000D03*
X126000000Y-101850000D03*
X126800000Y-101850000D03*
X127600000Y-101850000D03*
X128400000Y-101850000D03*
D28*
X130100000Y-100150000D03*
X130100000Y-99350000D03*
X130100000Y-98550000D03*
X130100000Y-97750000D03*
X130100000Y-96950000D03*
X130100000Y-96150000D03*
X130100000Y-95350000D03*
X130100000Y-94550000D03*
X130100000Y-93750000D03*
X130100000Y-92950000D03*
X130100000Y-92150000D03*
D19*
X148654113Y-100982157D03*
X150654113Y-100982157D03*
D29*
X112300000Y-100549000D03*
X112300000Y-91151000D03*
D19*
X128150000Y-87950000D03*
X130150000Y-87950000D03*
D23*
X112479113Y-76057157D03*
X110579113Y-76057157D03*
X112454113Y-78057157D03*
X110554113Y-78057157D03*
X159348000Y-94525500D03*
X157448000Y-94525500D03*
X114397500Y-106082500D03*
X116297500Y-106082500D03*
D19*
X127675000Y-80325000D03*
X129675000Y-80325000D03*
D30*
X112741500Y-106082500D03*
X110541500Y-106082500D03*
X159795000Y-92620500D03*
X157595000Y-92620500D03*
X116400000Y-81000000D03*
X118600000Y-81000000D03*
X116400000Y-79000000D03*
X118600000Y-79000000D03*
D31*
X106395595Y-80741595D03*
D25*
G36*
X105687951Y-80741595D02*
X106395595Y-80033951D01*
X107103239Y-80741595D01*
X106395595Y-81449239D01*
X105687951Y-80741595D01*
X105687951Y-80741595D01*
G37*
D31*
X111485605Y-85831605D03*
D25*
G36*
X110777961Y-85831605D02*
X111485605Y-85123961D01*
X112193249Y-85831605D01*
X111485605Y-86539249D01*
X110777961Y-85831605D01*
X110777961Y-85831605D01*
G37*
D19*
X148085300Y-95694500D03*
X150085300Y-95694500D03*
D20*
X150939500Y-91392500D03*
X150939500Y-93392500D03*
X141909800Y-93417900D03*
X141909800Y-91417900D03*
X139865100Y-93405200D03*
X139865100Y-91405200D03*
D32*
X71500000Y-59000001D03*
D25*
G36*
X71146447Y-61474875D02*
X69025126Y-59353554D01*
X71853553Y-56525127D01*
X73974874Y-58646448D01*
X71146447Y-61474875D01*
X71146447Y-61474875D01*
G37*
D32*
X63000000Y-65500000D03*
D25*
G36*
X62646447Y-67974874D02*
X60525126Y-65853553D01*
X63353553Y-63025126D01*
X65474874Y-65146447D01*
X62646447Y-67974874D01*
X62646447Y-67974874D01*
G37*
D32*
X184196699Y-189303301D03*
D25*
G36*
X184550252Y-186828427D02*
X186671573Y-188949748D01*
X183843146Y-191778175D01*
X181721825Y-189656854D01*
X184550252Y-186828427D01*
X184550252Y-186828427D01*
G37*
D32*
X194803301Y-178696699D03*
D25*
G36*
X195156854Y-176221825D02*
X197278175Y-178343146D01*
X194449748Y-181171573D01*
X192328427Y-179050252D01*
X195156854Y-176221825D01*
X195156854Y-176221825D01*
G37*
D32*
X71303301Y-189553301D03*
D25*
G36*
X68828427Y-189199748D02*
X70949748Y-187078427D01*
X73778175Y-189906854D01*
X71656854Y-192028175D01*
X68828427Y-189199748D01*
X68828427Y-189199748D01*
G37*
D32*
X60696699Y-178946699D03*
D25*
G36*
X58221825Y-178593146D02*
X60343146Y-176471825D01*
X63171573Y-179300252D01*
X61050252Y-181421573D01*
X58221825Y-178593146D01*
X58221825Y-178593146D01*
G37*
D32*
X185250000Y-55000000D03*
D25*
G36*
X187724874Y-55353553D02*
X185603553Y-57474874D01*
X182775126Y-54646447D01*
X184896447Y-52525126D01*
X187724874Y-55353553D01*
X187724874Y-55353553D01*
G37*
D32*
X194500000Y-63750000D03*
D25*
G36*
X196974874Y-64103553D02*
X194853553Y-66224874D01*
X192025126Y-63396447D01*
X194146447Y-61275126D01*
X196974874Y-64103553D01*
X196974874Y-64103553D01*
G37*
D23*
X134400000Y-91600000D03*
X132500000Y-91600000D03*
D26*
X148869400Y-91429800D03*
X148869400Y-93329800D03*
D33*
X144214900Y-93848700D03*
X144714900Y-93848700D03*
X145214900Y-93848700D03*
X145714900Y-93848700D03*
X146214900Y-93848700D03*
X146214900Y-90898700D03*
X145714900Y-90898700D03*
X145214900Y-90898700D03*
X144714900Y-90898700D03*
X144214900Y-90898700D03*
D34*
X144614900Y-92786200D03*
X145814900Y-92786200D03*
X144614900Y-91961200D03*
X145814900Y-91961200D03*
D35*
X143664900Y-92623700D03*
X146764900Y-92623700D03*
X143664900Y-92123700D03*
X146764900Y-92123700D03*
D36*
X144464900Y-92873700D03*
X145964900Y-92873700D03*
X144464900Y-91873700D03*
X145964900Y-91873700D03*
X145214900Y-92373700D03*
D21*
X102920800Y-103759000D03*
D22*
X102920800Y-101219000D03*
X102920800Y-98679000D03*
D37*
X146578400Y-96469200D03*
X142778400Y-96469200D03*
D20*
X122200000Y-159800000D03*
X122200000Y-161800000D03*
D19*
X122100000Y-163600000D03*
X124100000Y-163600000D03*
D38*
X112700000Y-162600000D03*
D39*
X119304000Y-162600000D03*
X119304000Y-160314000D03*
X119304000Y-164886000D03*
D23*
X142304113Y-99882157D03*
X144204113Y-99882157D03*
D24*
X162429805Y-90214845D03*
D25*
G36*
X162742298Y-90981231D02*
X161641703Y-89962069D01*
X162117312Y-89448459D01*
X163217907Y-90467621D01*
X162742298Y-90981231D01*
X162742298Y-90981231D01*
G37*
D24*
X164468129Y-88013656D03*
D25*
G36*
X164780622Y-88780042D02*
X163680027Y-87760880D01*
X164155636Y-87247270D01*
X165256231Y-88266432D01*
X164780622Y-88780042D01*
X164780622Y-88780042D01*
G37*
D24*
X165487291Y-86913061D03*
D25*
G36*
X165799784Y-87679447D02*
X164699189Y-86660285D01*
X165174798Y-86146675D01*
X166275393Y-87165837D01*
X165799784Y-87679447D01*
X165799784Y-87679447D01*
G37*
D40*
X163569717Y-93178475D03*
D25*
G36*
X163523488Y-93817116D02*
X162936504Y-93273563D01*
X163615946Y-92539834D01*
X164202930Y-93083387D01*
X163523488Y-93817116D01*
X163523488Y-93817116D01*
G37*
D40*
X168529639Y-87822247D03*
D25*
G36*
X168483410Y-88460888D02*
X167896426Y-87917335D01*
X168575868Y-87183606D01*
X169162852Y-87727159D01*
X168483410Y-88460888D01*
X168483410Y-88460888D01*
G37*
D40*
X166915433Y-86327476D03*
D25*
G36*
X166869204Y-86966117D02*
X166282220Y-86422564D01*
X166961662Y-85688835D01*
X167548646Y-86232388D01*
X166869204Y-86966117D01*
X166869204Y-86966117D01*
G37*
D40*
X161955512Y-91683704D03*
D25*
G36*
X161909283Y-92322345D02*
X161322299Y-91778792D01*
X162001741Y-91045063D01*
X162588725Y-91588616D01*
X161909283Y-92322345D01*
X161909283Y-92322345D01*
G37*
D26*
X140929113Y-103782157D03*
X140929113Y-101882157D03*
D36*
X157979113Y-91032157D03*
X89839113Y-111132157D03*
X96479113Y-86802157D03*
X134299113Y-151642157D03*
X137849113Y-148132157D03*
X154654113Y-91357157D03*
X151384000Y-95694500D03*
X125204113Y-93782157D03*
X128210413Y-95410413D03*
X121000000Y-161200000D03*
X125400004Y-163100000D03*
X108423500Y-105828500D03*
X109250000Y-102250000D03*
X125100000Y-88800000D03*
X110300000Y-91600000D03*
X105829113Y-84782157D03*
X185632553Y-62474877D03*
X182279113Y-66357157D03*
X177667113Y-174887657D03*
X180588113Y-177618157D03*
X146615613Y-164727657D03*
X93783613Y-87384657D03*
X152604113Y-100932157D03*
X115760500Y-85267800D03*
X139865100Y-90271600D03*
X141909800Y-90271600D03*
X122824992Y-85697073D03*
X116615000Y-90144000D03*
X111535000Y-107225500D03*
X131150000Y-87950000D03*
X135650006Y-93650000D03*
X120054716Y-94475014D03*
X128791950Y-93091949D03*
X119500000Y-101900000D03*
X128700000Y-98300000D03*
X139654113Y-153707157D03*
X151825153Y-140539237D03*
X122579444Y-99004455D03*
X121154113Y-92207157D03*
X139559113Y-149091657D03*
X139559113Y-149091657D03*
X101340113Y-90686657D03*
X138654113Y-149707157D03*
X127150000Y-99650012D03*
X139500000Y-101800000D03*
X144329613Y-162632157D03*
X101254113Y-84182157D03*
X103729113Y-86682157D03*
X110420613Y-104402657D03*
X123157670Y-99557333D03*
X126000000Y-103850000D03*
X125250000Y-105075000D03*
X124400000Y-106700000D03*
X118600000Y-103700000D03*
X123650000Y-100350000D03*
X160426400Y-100126800D03*
X156250000Y-151750000D03*
X121129113Y-116432157D03*
X131329113Y-119732157D03*
X116500000Y-99150000D03*
X114629113Y-111382156D03*
X117300000Y-98350000D03*
X121650000Y-96550000D03*
X120850000Y-97350000D03*
X120400000Y-106400000D03*
X126883051Y-104566949D03*
X121557954Y-85280978D03*
X122654113Y-93207157D03*
X117821500Y-101447000D03*
X120650000Y-85000002D03*
D40*
X134345990Y-78111103D03*
X131629113Y-79957157D03*
X133354113Y-79832157D03*
X152929113Y-112109957D03*
X152929113Y-112109957D03*
X151936913Y-113102157D03*
X150606913Y-114432157D03*
X151936913Y-113102157D03*
X89829113Y-143932157D03*
X89829113Y-143932157D03*
X89829113Y-142132157D03*
X89829113Y-140332157D03*
X89829113Y-140332157D03*
X89275113Y-145550657D03*
X151629113Y-147732157D03*
X149829113Y-147732157D03*
X148029113Y-147832157D03*
D41*
X162354113Y-90207157D03*
X165829113Y-85132157D03*
X157654113Y-118007157D03*
X147054113Y-112107157D03*
D36*
X108100000Y-170400000D03*
X115100000Y-170800000D03*
D41*
X121787113Y-169680657D03*
X127883113Y-169680657D03*
X133852113Y-169934657D03*
D36*
X140600000Y-170100000D03*
X121450000Y-93750000D03*
X122804811Y-104449990D03*
D41*
X83742993Y-77455797D03*
X70601033Y-65263797D03*
D36*
X165029113Y-76432157D03*
X126310213Y-92295752D03*
X157600000Y-147700000D03*
D41*
X153429113Y-123632157D03*
X152079113Y-106107157D03*
X154029113Y-90432157D03*
D36*
X157654113Y-87957157D03*
D41*
X160254113Y-85607157D03*
X161904113Y-84007157D03*
X161929113Y-81932157D03*
X113304113Y-85932157D03*
X108004113Y-82657157D03*
D36*
X127600000Y-97300000D03*
X85200000Y-83100000D03*
X88200000Y-87100000D03*
X163800000Y-155200000D03*
D41*
X102605033Y-147102597D03*
X115823193Y-160325837D03*
D36*
X160600000Y-150600000D03*
X176900000Y-166400000D03*
X182600000Y-61400000D03*
X174100000Y-69000000D03*
X163351000Y-79857000D03*
X81700000Y-80000000D03*
X68200000Y-66500000D03*
X74500000Y-172750000D03*
X92612000Y-153009000D03*
X89310000Y-149453000D03*
X184373128Y-174000000D03*
X92500000Y-90750000D03*
X180500000Y-171000000D03*
X171900000Y-162800000D03*
X168200000Y-158300000D03*
X75200000Y-170300000D03*
X82250000Y-165750000D03*
X82900000Y-163500000D03*
X90500000Y-158500000D03*
X91250000Y-157750000D03*
X154913793Y-84659237D03*
X179000000Y-66700000D03*
X170400000Y-74200000D03*
X71900000Y-69500000D03*
X74900000Y-73500000D03*
X78800000Y-76400000D03*
D41*
X120860749Y-120090521D03*
D42*
X97565000Y-103098000D02*
X97565000Y-103406270D01*
X97565000Y-103406270D02*
X89839113Y-111132157D01*
D43*
X103354849Y-82732157D02*
X100549113Y-82732157D01*
X100549113Y-82732157D02*
X96479113Y-86802157D01*
X105829113Y-84782157D02*
X105404849Y-84782157D01*
X105404849Y-84782157D02*
X103354849Y-82732157D01*
D42*
X134339113Y-151642157D02*
X134299113Y-151642157D01*
X137849113Y-148132157D02*
X134339113Y-151642157D01*
D43*
X152618770Y-93392500D02*
X154654113Y-91357157D01*
X150939500Y-93392500D02*
X152618770Y-93392500D01*
X151384000Y-93837000D02*
X151384000Y-95694500D01*
D44*
X151384000Y-95694500D02*
X150085300Y-95694500D01*
D43*
X125200000Y-93778044D02*
X125204113Y-93782157D01*
X125200000Y-90450000D02*
X125200000Y-93778044D01*
D44*
X126875001Y-96745825D02*
X127910414Y-95710412D01*
X127910414Y-95710412D02*
X128210413Y-95410413D01*
X130600000Y-102175000D02*
X126875001Y-98450001D01*
X126875001Y-98450001D02*
X126875001Y-96745825D01*
X130600000Y-104000000D02*
X130600000Y-102175000D01*
D43*
X151384000Y-93837000D02*
X150939500Y-93392500D01*
X159348000Y-94525500D02*
X159348000Y-94151044D01*
X159348000Y-94151044D02*
X158654113Y-93457157D01*
X158654113Y-93457157D02*
X158654113Y-91707157D01*
X158654113Y-91707157D02*
X157979113Y-91032157D01*
D44*
X121600000Y-161800000D02*
X121000000Y-161200000D01*
X124900004Y-163600000D02*
X124100000Y-163600000D01*
X124900004Y-163600000D02*
X125100005Y-163399999D01*
X125100005Y-163399999D02*
X125400004Y-163100000D01*
D43*
X109250000Y-102250000D02*
X109250000Y-105002000D01*
D44*
X108677500Y-106082500D02*
X108423500Y-105828500D01*
X110541500Y-106082500D02*
X108677500Y-106082500D01*
D43*
X108550000Y-101550000D02*
X109250000Y-102250000D01*
X108550000Y-101550000D02*
X108550000Y-100850000D01*
X109250000Y-105002000D02*
X108423500Y-105828500D01*
D44*
X125200000Y-88900000D02*
X125100000Y-88800000D01*
X125200000Y-88900000D02*
X125200000Y-90450000D01*
D43*
X106395595Y-80741595D02*
X106395595Y-84215675D01*
D44*
X109600000Y-90900000D02*
X110300000Y-91600000D01*
X109600000Y-90900000D02*
X108650000Y-90900000D01*
D43*
X106395595Y-84215675D02*
X105829113Y-84782157D01*
X130150000Y-87950000D02*
X130150000Y-80800000D01*
X130150000Y-80800000D02*
X129675000Y-80325000D01*
D44*
X182279113Y-66357157D02*
X182279113Y-65828317D01*
X182279113Y-65828317D02*
X185632553Y-62474877D01*
D43*
X177857613Y-174887657D02*
X177667113Y-174887657D01*
X180588113Y-177618157D02*
X177857613Y-174887657D01*
D45*
X145050000Y-165900000D02*
X145443270Y-165900000D01*
X145443270Y-165900000D02*
X146615613Y-164727657D01*
X143413864Y-167611906D02*
X143413864Y-167536136D01*
X143413864Y-167536136D02*
X145050000Y-165900000D01*
D43*
X152554113Y-100982157D02*
X152604113Y-100932157D01*
X152554113Y-100982157D02*
X150654113Y-100982157D01*
D44*
X119304000Y-164886000D02*
X122939000Y-164886000D01*
X122939000Y-164886000D02*
X124100000Y-163725000D01*
X124100000Y-163725000D02*
X124100000Y-163600000D01*
X119718000Y-165300000D02*
X119304000Y-164886000D01*
X122200000Y-161800000D02*
X121600000Y-161800000D01*
D42*
X138000000Y-80284000D02*
X138046000Y-80238000D01*
D44*
X115760500Y-85692064D02*
X115760500Y-85267800D01*
X115760500Y-89289500D02*
X115760500Y-85692064D01*
X116615000Y-90144000D02*
X115760500Y-89289500D01*
X146764900Y-92623700D02*
X146214900Y-92623700D01*
X146214900Y-92623700D02*
X145964900Y-92873700D01*
X146764900Y-92123700D02*
X146214900Y-92123700D01*
X146214900Y-92123700D02*
X145964900Y-91873700D01*
X145214900Y-92373700D02*
X145214900Y-93848700D01*
D43*
X144714900Y-90898700D02*
X144714900Y-91623700D01*
D44*
X144714900Y-91623700D02*
X144464900Y-91873700D01*
X143664900Y-92623700D02*
X144214900Y-92623700D01*
X144214900Y-92623700D02*
X144464900Y-92873700D01*
X143664900Y-92123700D02*
X144214900Y-92123700D01*
X144214900Y-92123700D02*
X144464900Y-91873700D01*
X139865100Y-91405200D02*
X139865100Y-90271600D01*
X141909800Y-91417900D02*
X141909800Y-90271600D01*
X122400728Y-85697073D02*
X122824992Y-85697073D01*
X122366485Y-85697073D02*
X122400728Y-85697073D01*
X121050000Y-87013558D02*
X122366485Y-85697073D01*
X121050000Y-87600000D02*
X121050000Y-87013558D01*
X123062000Y-77102500D02*
X123712000Y-77102500D01*
X121942000Y-77222500D02*
X122942000Y-77222500D01*
X122942000Y-77222500D02*
X123062000Y-77102500D01*
X121930000Y-77820000D02*
X122433000Y-77317000D01*
X145050000Y-165900000D02*
X145350000Y-165900000D01*
X129675000Y-80325000D02*
X129675000Y-80200000D01*
X129675000Y-80200000D02*
X126782000Y-77307000D01*
X126782000Y-77307000D02*
X126782000Y-77222500D01*
X127092000Y-74222500D02*
X127092000Y-76912500D01*
X127092000Y-76912500D02*
X126782000Y-77222500D01*
X116606000Y-90144000D02*
X116615000Y-90144000D01*
X116250000Y-90500000D02*
X116606000Y-90144000D01*
X116250000Y-91300000D02*
X116250000Y-90500000D01*
X111535000Y-107225500D02*
X111535000Y-107076000D01*
X111535000Y-107076000D02*
X110541500Y-106082500D01*
X130150000Y-87950000D02*
X131150000Y-87950000D01*
X135600006Y-93600000D02*
X135650006Y-93650000D01*
X134500000Y-93600000D02*
X135600006Y-93600000D01*
X129347823Y-99350000D02*
X128999999Y-99002176D01*
X128999999Y-98599999D02*
X128700000Y-98300000D01*
X128999999Y-99002176D02*
X128999999Y-98599999D01*
X130100000Y-99350000D02*
X129347823Y-99350000D01*
X119979730Y-94550000D02*
X120054716Y-94475014D01*
X118700000Y-94550000D02*
X119979730Y-94550000D01*
X130100000Y-92950000D02*
X128933899Y-92950000D01*
X128933899Y-92950000D02*
X128791950Y-93091949D01*
X120400000Y-101850000D02*
X119550000Y-101850000D01*
X119550000Y-101850000D02*
X119500000Y-101900000D01*
X134500000Y-93475000D02*
X134500000Y-93600000D01*
X125310000Y-74580000D02*
X126840000Y-74580000D01*
X126840000Y-74580000D02*
X127080000Y-74820000D01*
X121620000Y-74820000D02*
X123150000Y-74820000D01*
X123150000Y-74820000D02*
X123390000Y-74580000D01*
X130100000Y-99350000D02*
X131750000Y-99350000D01*
X131750000Y-99350000D02*
X132200000Y-99800000D01*
D43*
X139654113Y-153707157D02*
X140654113Y-152707157D01*
X105531113Y-110498657D02*
X105531113Y-106180657D01*
X140654113Y-152707157D02*
X140654113Y-148503367D01*
X123219113Y-119542157D02*
X115684113Y-112007157D01*
X106275002Y-105436768D02*
X106275002Y-101989657D01*
X140654113Y-148503367D02*
X123219113Y-131068367D01*
X123219113Y-131068367D02*
X123219113Y-119542157D01*
X115684113Y-112007157D02*
X112519652Y-112007157D01*
X112519652Y-112007157D02*
X112409113Y-112117696D01*
X105531113Y-106180657D02*
X106275002Y-105436768D01*
X112409113Y-112117696D02*
X107150152Y-112117696D01*
X107150152Y-112117696D02*
X105531113Y-110498657D01*
X131154113Y-154885157D02*
X138329113Y-154885157D01*
X139207114Y-154007156D02*
X138329113Y-154885157D01*
X138329113Y-154885157D02*
X138476113Y-154885157D01*
X139654113Y-153707157D02*
X139354114Y-154007156D01*
X139354114Y-154007156D02*
X139207114Y-154007156D01*
X152302000Y-140062390D02*
X152302000Y-134086000D01*
X151825153Y-140539237D02*
X152302000Y-140062390D01*
X123882843Y-154885157D02*
X121822000Y-156946000D01*
X131154113Y-154885157D02*
X123882843Y-154885157D01*
D44*
X152302000Y-134086000D02*
X152264000Y-134086000D01*
X106275002Y-93075000D02*
X106275002Y-101989657D01*
X111485605Y-85831605D02*
X106275002Y-91042208D01*
X106275002Y-91042208D02*
X106275002Y-92509315D01*
X106275002Y-92509315D02*
X106275002Y-93075000D01*
X111485605Y-85831605D02*
X112735210Y-84582000D01*
X112735210Y-84582000D02*
X116370100Y-84582000D01*
X116370100Y-84582000D02*
X116800000Y-85011900D01*
X116800000Y-85011900D02*
X116800000Y-86450000D01*
X117700000Y-92950000D02*
X117500000Y-92750000D01*
X116800000Y-89300000D02*
X117500000Y-90000000D01*
X117500000Y-90000000D02*
X117500000Y-92750000D01*
X116800000Y-88400000D02*
X116800000Y-89300000D01*
X118700000Y-92950000D02*
X117700000Y-92950000D01*
X116800000Y-86450000D02*
X116800000Y-88400000D01*
X123997116Y-98704456D02*
X122879443Y-98704456D01*
X128951572Y-93750000D02*
X123997116Y-98704456D01*
X130100000Y-93750000D02*
X128951572Y-93750000D01*
X122879443Y-98704456D02*
X122579444Y-99004455D01*
X132500000Y-93600000D02*
X132350000Y-93750000D01*
X132350000Y-93750000D02*
X130100000Y-93750000D01*
X123600000Y-90450000D02*
X123600000Y-89450000D01*
X123600000Y-89450000D02*
X123200000Y-89050000D01*
X123200000Y-89050000D02*
X122612680Y-89050000D01*
X123475002Y-85404226D02*
X123477116Y-85402112D01*
X122612680Y-89050000D02*
X122091240Y-88528560D01*
X122091240Y-88528560D02*
X122091240Y-86679440D01*
X122091240Y-86679440D02*
X122420678Y-86350002D01*
X122420678Y-86350002D02*
X123150002Y-86350002D01*
X123150002Y-86350002D02*
X123475002Y-86025002D01*
X123475002Y-86025002D02*
X123475002Y-85404226D01*
X123475002Y-85399998D02*
X123475002Y-84502122D01*
X123475002Y-84502122D02*
X122175001Y-83202121D01*
X122175001Y-83202121D02*
X122175001Y-80875001D01*
X122175001Y-80875001D02*
X119800000Y-78500000D01*
X119800000Y-78500000D02*
X119800000Y-77200000D01*
X119800000Y-77200000D02*
X120850000Y-76150000D01*
X120850000Y-76150000D02*
X120855001Y-76155001D01*
X120855001Y-76155001D02*
X121153502Y-75856500D01*
X121153502Y-75856500D02*
X125541000Y-75856500D01*
X125541000Y-75856500D02*
X125662000Y-75977500D01*
X125662000Y-75977500D02*
X125662000Y-77102500D01*
X123477116Y-85402112D02*
X123475002Y-85399998D01*
X127675000Y-80325000D02*
X127675000Y-79740500D01*
X127675000Y-79740500D02*
X125662000Y-77727500D01*
X125662000Y-77727500D02*
X125662000Y-77102500D01*
X125650000Y-76625000D02*
X125650000Y-77700000D01*
D43*
X120400000Y-90450000D02*
X120400000Y-91453044D01*
X120400000Y-91453044D02*
X121154113Y-92207157D01*
D44*
X102920800Y-98679000D02*
X104013000Y-97586800D01*
X104013000Y-97586800D02*
X104013000Y-91490800D01*
X104013000Y-91490800D02*
X111646300Y-83857500D01*
X111646300Y-83857500D02*
X117258500Y-83857500D01*
X117258500Y-83857500D02*
X118189800Y-84788800D01*
X118189800Y-84788800D02*
X118189800Y-88814800D01*
X118189800Y-88814800D02*
X119825000Y-90450000D01*
X119825000Y-90450000D02*
X120400000Y-90450000D01*
D43*
X116479113Y-114602157D02*
X116089113Y-114212157D01*
X116089113Y-114212157D02*
X115922956Y-114046000D01*
X106831793Y-113072157D02*
X114949113Y-113072157D01*
X114949113Y-113072157D02*
X116089113Y-114212157D01*
X104223957Y-106162157D02*
X104223957Y-110464321D01*
X104223957Y-110464321D02*
X106831793Y-113072157D01*
X102920800Y-103759000D02*
X102920800Y-104859000D01*
X102920800Y-104859000D02*
X104223957Y-106162157D01*
X119519113Y-134990731D02*
X119519113Y-134982157D01*
X119519113Y-134982157D02*
X122269093Y-132232177D01*
X122269093Y-132232177D02*
X122269093Y-120332137D01*
X122269093Y-120332137D02*
X116539113Y-114602157D01*
X116539113Y-114602157D02*
X116479113Y-114602157D01*
X119519113Y-134990731D02*
X114230613Y-140279231D01*
X119659400Y-134850444D02*
X119519113Y-134990731D01*
X139559113Y-149112157D02*
X139654113Y-149207157D01*
X139559113Y-149112157D02*
X139559113Y-149091657D01*
X139654113Y-149207157D02*
X139654113Y-152707157D01*
X139654113Y-152707157D02*
X138154113Y-154207157D01*
X138154113Y-154207157D02*
X134154113Y-154207157D01*
X134154113Y-154207157D02*
X131228113Y-154207157D01*
X118703553Y-154341597D02*
X118104113Y-153742157D01*
X131093673Y-154341597D02*
X118703553Y-154341597D01*
X131228113Y-154207157D02*
X131093673Y-154341597D01*
X114230613Y-149868657D02*
X118104113Y-153742157D01*
X114230613Y-140279231D02*
X114230613Y-149868657D01*
X101340113Y-90686657D02*
X101370478Y-90717022D01*
X101370478Y-90717022D02*
X101340113Y-90686657D01*
X101340113Y-90686657D02*
X101340113Y-90747387D01*
X102920800Y-103759000D02*
X102920800Y-103570344D01*
D44*
X101340113Y-90747387D02*
X109842300Y-82245200D01*
X109842300Y-82245200D02*
X118059200Y-82245200D01*
X118059200Y-82245200D02*
X119739200Y-83925200D01*
X119739200Y-83925200D02*
X119739200Y-88061200D01*
X119739200Y-88061200D02*
X120298000Y-88620000D01*
X120298000Y-88620000D02*
X121220000Y-88620000D01*
X121220000Y-88620000D02*
X122000000Y-89400000D01*
X122000000Y-89400000D02*
X122000000Y-90450000D01*
X122744103Y-119738911D02*
X116177349Y-113172157D01*
D43*
X112595513Y-112567706D02*
X112599964Y-112572157D01*
D44*
X116177349Y-113172157D02*
X116047892Y-113042700D01*
D43*
X112599964Y-112572157D02*
X115577349Y-112572157D01*
X115577349Y-112572157D02*
X116177349Y-113172157D01*
X102920800Y-101219000D02*
X105081103Y-103379303D01*
X105081103Y-103379303D02*
X105081103Y-110685057D01*
X105081103Y-110685057D02*
X106963752Y-112567706D01*
X106963752Y-112567706D02*
X112595513Y-112567706D01*
D44*
X120204113Y-135187157D02*
X122744103Y-132647167D01*
X122744103Y-132647167D02*
X122744103Y-119738911D01*
X120204113Y-135218287D02*
X120204113Y-135187157D01*
X120204113Y-135218287D02*
X120212983Y-135218287D01*
X104317800Y-102616000D02*
X103770799Y-102068999D01*
X102920800Y-101219000D02*
X103770799Y-102068999D01*
X110972600Y-82956400D02*
X110972600Y-82959170D01*
X110972600Y-82959170D02*
X102483113Y-91448657D01*
X117271800Y-82956400D02*
X110972600Y-82956400D01*
D43*
X119017840Y-88254251D02*
X119017840Y-84702440D01*
D44*
X114750000Y-140672400D02*
X120204113Y-135218287D01*
X114750000Y-149062164D02*
X114750000Y-140672400D01*
D43*
X130926033Y-153671037D02*
X119635311Y-153671037D01*
X119635311Y-153671037D02*
X119579431Y-153615157D01*
X119579431Y-153615157D02*
X119302993Y-153615157D01*
X119302993Y-153615157D02*
X114750000Y-149062164D01*
X138654113Y-152707157D02*
X138654113Y-149707157D01*
X137690233Y-153671037D02*
X138654113Y-152707157D01*
X130926033Y-153671037D02*
X137690233Y-153671037D01*
D44*
X121200000Y-89400000D02*
X121200000Y-90450000D01*
X120950011Y-89150011D02*
X121200000Y-89400000D01*
X119913600Y-89150011D02*
X120950011Y-89150011D01*
X119017840Y-88254251D02*
X119913600Y-89150011D01*
X117271800Y-82956400D02*
X119017840Y-84702440D01*
D43*
X102483113Y-91448657D02*
X101530613Y-92401157D01*
X101530613Y-92401157D02*
X101530613Y-99828813D01*
X101530613Y-99828813D02*
X102920800Y-101219000D01*
D44*
X102920800Y-101219000D02*
X102793800Y-101219000D01*
X142778400Y-96469200D02*
X143528400Y-96469200D01*
X143528400Y-96469200D02*
X144714900Y-95282700D01*
X144714900Y-95282700D02*
X144714900Y-94573700D01*
X144714900Y-94573700D02*
X144714900Y-93848700D01*
X126800000Y-100000012D02*
X126850001Y-99950011D01*
X126850001Y-99950011D02*
X127150000Y-99650012D01*
X126800000Y-101850000D02*
X126800000Y-100000012D01*
X139602000Y-101902000D02*
X139500000Y-101800000D01*
X139602000Y-108686000D02*
X139602000Y-101902000D01*
D43*
X139602000Y-156946000D02*
X141154113Y-155393887D01*
X141154113Y-155393887D02*
X141154113Y-147530393D01*
X141154113Y-147530393D02*
X139602000Y-145978280D01*
X144329613Y-162632157D02*
X145050000Y-163352544D01*
X145050000Y-163352544D02*
X145050000Y-164000000D01*
D44*
X123850400Y-117856000D02*
X131699000Y-110007400D01*
X131699000Y-110007400D02*
X131699000Y-106401000D01*
X139602000Y-145978280D02*
X123850400Y-130226680D01*
X123850400Y-130226680D02*
X123850400Y-117856000D01*
X131699000Y-106401000D02*
X133900000Y-104200000D01*
X133900000Y-104200000D02*
X133900000Y-99200000D01*
X133900000Y-99200000D02*
X133250000Y-98550000D01*
X133250000Y-98550000D02*
X130100000Y-98550000D01*
X139602000Y-156946000D02*
X139602000Y-158200000D01*
D43*
X103729113Y-86682157D02*
X101254113Y-84207157D01*
X101254113Y-84207157D02*
X101254113Y-84182157D01*
X110420613Y-104402657D02*
X110420613Y-104401290D01*
X110420613Y-104401290D02*
X110420613Y-104402657D01*
X110420613Y-104402657D02*
X110420613Y-104401290D01*
D44*
X120198710Y-104401290D02*
X110420613Y-104401290D01*
X122000000Y-102600000D02*
X120198710Y-104401290D01*
X122000000Y-101850000D02*
X122000000Y-102600000D01*
X122000000Y-100715003D02*
X122857671Y-99857332D01*
X122000000Y-101850000D02*
X122000000Y-100715003D01*
X122857671Y-99857332D02*
X123157670Y-99557333D01*
X124350000Y-85353552D02*
X126150000Y-87153552D01*
X126150000Y-87153552D02*
X126150000Y-89175000D01*
X126150000Y-89175000D02*
X126000000Y-89325000D01*
X126000000Y-89325000D02*
X126000000Y-90450000D01*
X123600000Y-82250000D02*
X123600000Y-83225000D01*
X123600000Y-83225000D02*
X124350000Y-83975000D01*
X124350000Y-83975000D02*
X124350000Y-85353552D01*
D43*
X124850000Y-85146448D02*
X126650000Y-86946448D01*
X126650000Y-86946448D02*
X126650000Y-89175000D01*
X126650000Y-89175000D02*
X126800000Y-89325000D01*
D44*
X126800000Y-89325000D02*
X126800000Y-90450000D01*
D43*
X125600000Y-83225000D02*
X124850000Y-83975000D01*
X124850000Y-83975000D02*
X124850000Y-85146448D01*
D44*
X125600000Y-82250000D02*
X125600000Y-83225000D01*
X125250000Y-105075000D02*
X125250000Y-108558000D01*
X125250000Y-108558000D02*
X125378000Y-108686000D01*
X126000000Y-103850000D02*
X126000000Y-101850000D01*
X125200000Y-108508000D02*
X125378000Y-108686000D01*
X124400000Y-105400000D02*
X124400000Y-106700000D01*
X124400000Y-105400000D02*
X124400000Y-102850000D01*
X124400000Y-102850000D02*
X124400000Y-101850000D01*
X127918000Y-107116000D02*
X127918000Y-108686000D01*
X127918000Y-106780996D02*
X127918000Y-107116000D01*
X125200000Y-104062996D02*
X127918000Y-106780996D01*
X125200000Y-101850000D02*
X125200000Y-104062996D01*
X118600000Y-103700000D02*
X118600000Y-101860002D01*
X126375871Y-94982169D02*
X127104126Y-94253914D01*
X120050000Y-99850000D02*
X124917831Y-94982169D01*
X120050000Y-100410002D02*
X120050000Y-99850000D01*
X124917831Y-94982169D02*
X126375871Y-94982169D01*
X128400000Y-91500000D02*
X128400000Y-90450000D01*
X127104126Y-92795874D02*
X128400000Y-91500000D01*
X127104126Y-94253914D02*
X127104126Y-92795874D01*
X118600000Y-101860002D02*
X120050000Y-100410002D01*
X123600000Y-100400000D02*
X123650000Y-100350000D01*
X123600000Y-101850000D02*
X123600000Y-100400000D01*
X149762000Y-156946000D02*
X149762000Y-155426000D01*
X149762000Y-155426000D02*
X146000000Y-151664000D01*
X146000000Y-151664000D02*
X146000000Y-147371600D01*
X146000000Y-147371600D02*
X128651000Y-130022600D01*
X128651000Y-130022600D02*
X128651000Y-119710200D01*
X128651000Y-119710200D02*
X138300000Y-110061200D01*
X138300000Y-110061200D02*
X138300000Y-98800000D01*
X138300000Y-98800000D02*
X134850000Y-95350000D01*
X134850000Y-95350000D02*
X131100000Y-95350000D01*
X131100000Y-95350000D02*
X130100000Y-95350000D01*
X160426400Y-100551064D02*
X159334200Y-101643264D01*
X160426400Y-100126800D02*
X160426400Y-100551064D01*
X159334200Y-142392811D02*
X154300000Y-147427011D01*
X159334200Y-101643264D02*
X159334200Y-142392811D01*
D43*
X154300000Y-148800000D02*
X156250000Y-150750000D01*
X156250000Y-150750000D02*
X156250000Y-151750000D01*
X154300000Y-147427011D02*
X154300000Y-148800000D01*
D44*
X115229113Y-110532157D02*
X108936157Y-110532157D01*
X108936157Y-110532157D02*
X107598000Y-109194000D01*
X107598000Y-109194000D02*
X107598000Y-108686000D01*
X121129113Y-116432157D02*
X115229113Y-110532157D01*
X136329113Y-115432157D02*
X135629113Y-115432157D01*
X135629113Y-115432157D02*
X131329113Y-119732157D01*
X142829113Y-112108887D02*
X139652383Y-112108887D01*
X139652383Y-112108887D02*
X136329113Y-115432157D01*
X144682000Y-108686000D02*
X144682000Y-110256000D01*
X144682000Y-110256000D02*
X142829113Y-112108887D01*
X116500000Y-99150000D02*
X116500000Y-98150000D01*
X116500000Y-98150000D02*
X117700000Y-96950000D01*
X117700000Y-96950000D02*
X118700000Y-96950000D01*
X107749956Y-111382156D02*
X114629113Y-111382156D01*
X106100000Y-109732200D02*
X107749956Y-111382156D01*
X110138000Y-108686000D02*
X110138000Y-108178000D01*
X110138000Y-108178000D02*
X108660000Y-106700000D01*
X108660000Y-106700000D02*
X107171000Y-106700000D01*
X106100000Y-107771000D02*
X106100000Y-109732200D01*
X107171000Y-106700000D02*
X106100000Y-107771000D01*
X117900000Y-97750000D02*
X118700000Y-97750000D01*
X117300000Y-98350000D02*
X117900000Y-97750000D01*
D43*
X118700000Y-98550000D02*
X119700000Y-98550000D01*
X119700000Y-98550000D02*
X119950000Y-98300000D01*
X119950000Y-98300000D02*
X119950000Y-97224998D01*
D44*
X120624998Y-96550000D02*
X121225736Y-96550000D01*
X119950000Y-97224998D02*
X120624998Y-96550000D01*
X121225736Y-96550000D02*
X121650000Y-96550000D01*
X120850000Y-98052174D02*
X120850000Y-97774264D01*
D43*
X119552174Y-99350000D02*
X120850000Y-98052174D01*
D44*
X118700000Y-99350000D02*
X119552174Y-99350000D01*
X120850000Y-97774264D02*
X120850000Y-97350000D01*
X122800000Y-101850000D02*
X122800000Y-102600000D01*
X122800000Y-102600000D02*
X120450000Y-104950000D01*
X120450000Y-104950000D02*
X120450000Y-106350000D01*
X120450000Y-106350000D02*
X120400000Y-106400000D01*
X116297500Y-106082500D02*
X116897500Y-106082500D01*
X116897500Y-106082500D02*
X117758000Y-106943000D01*
X117758000Y-106943000D02*
X117758000Y-107166000D01*
X117758000Y-107166000D02*
X117758000Y-108686000D01*
X127183050Y-104266950D02*
X126883051Y-104566949D01*
X127600000Y-101850000D02*
X127600000Y-103850000D01*
X127600000Y-103850000D02*
X127183050Y-104266950D01*
X130100000Y-96950000D02*
X133950000Y-96950000D01*
X133950000Y-96950000D02*
X135700000Y-98700000D01*
X135700000Y-98700000D02*
X135700000Y-104900000D01*
X135700000Y-104900000D02*
X133350000Y-107250000D01*
X133350000Y-107250000D02*
X133350000Y-112039400D01*
X133350000Y-112039400D02*
X125476000Y-119913400D01*
X125476000Y-119913400D02*
X125476000Y-129667000D01*
X125476000Y-129667000D02*
X143100000Y-147291000D01*
X143100000Y-147291000D02*
X143100000Y-153350000D01*
X143100000Y-153350000D02*
X144682000Y-154932000D01*
X144682000Y-154932000D02*
X144682000Y-156946000D01*
X147222000Y-156946000D02*
X147222000Y-155343766D01*
X147222000Y-155343766D02*
X144500000Y-152621766D01*
X144500000Y-147090800D02*
X126314200Y-128905000D01*
X144500000Y-152621766D02*
X144500000Y-147090800D01*
X126314200Y-128905000D02*
X126314200Y-120650000D01*
X126314200Y-120650000D02*
X135800000Y-111164200D01*
X135800000Y-111164200D02*
X135800000Y-106600000D01*
X135800000Y-106600000D02*
X136700000Y-105700000D01*
X136700000Y-105700000D02*
X136700000Y-98400000D01*
X136700000Y-98400000D02*
X134450000Y-96150000D01*
X134450000Y-96150000D02*
X130100000Y-96150000D01*
X125012000Y-77102500D02*
X125012000Y-79762000D01*
X125012000Y-79762000D02*
X125600000Y-80350000D01*
X124362000Y-77102500D02*
X124362000Y-79752400D01*
X124362000Y-79752400D02*
X123764400Y-80350000D01*
X123764400Y-80350000D02*
X123600000Y-80350000D01*
X130100000Y-97750000D02*
X133450000Y-97750000D01*
X133450000Y-97750000D02*
X134700000Y-99000000D01*
X134700000Y-99000000D02*
X134700000Y-104700000D01*
X134700000Y-104700000D02*
X132500000Y-106900000D01*
X132500000Y-106900000D02*
X132500000Y-110806600D01*
X132500000Y-110806600D02*
X124688600Y-118618000D01*
X124688600Y-118618000D02*
X124688600Y-129919600D01*
X124688600Y-129919600D02*
X142142000Y-147373000D01*
X142142000Y-147373000D02*
X142142000Y-156946000D01*
X142142000Y-156438000D02*
X142142000Y-156946000D01*
D43*
X112479113Y-76057157D02*
X112479113Y-76382157D01*
X112479113Y-76382157D02*
X115096956Y-79000000D01*
X115096956Y-79000000D02*
X116400000Y-79000000D01*
D44*
X121557954Y-81500000D02*
X121557954Y-81057954D01*
X119500000Y-79000000D02*
X118600000Y-79000000D01*
X121557954Y-81057954D02*
X119500000Y-79000000D01*
X121557954Y-81500000D02*
X121557954Y-84856714D01*
X121557954Y-84856714D02*
X121557954Y-85280978D01*
X121557954Y-81286954D02*
X121557954Y-81500000D01*
X122654113Y-93207157D02*
X122774500Y-90475500D01*
X122774500Y-90475500D02*
X122800000Y-90450000D01*
D43*
X112454113Y-78057157D02*
X113457157Y-78057157D01*
X113457157Y-78057157D02*
X116400000Y-81000000D01*
D44*
X118600000Y-81000000D02*
X118600000Y-81261000D01*
X118600000Y-81261000D02*
X120650000Y-83311000D01*
X117821500Y-101447000D02*
X117821500Y-101028500D01*
X117821500Y-101028500D02*
X118700000Y-100150000D01*
X120650000Y-84575738D02*
X120650000Y-85000002D01*
X120650000Y-83311000D02*
X120650000Y-84575738D01*
X157595000Y-92620500D02*
X157595000Y-94378500D01*
X157595000Y-94378500D02*
X157448000Y-94525500D01*
X112741500Y-106082500D02*
X114397500Y-106082500D01*
D46*
X87405000Y-100558000D02*
X87405000Y-99478270D01*
X89465613Y-80272657D02*
X89465613Y-80209157D01*
X90545113Y-81352157D02*
X89465613Y-80272657D01*
X90545113Y-96338157D02*
X90545113Y-81352157D01*
X87405000Y-99478270D02*
X90545113Y-96338157D01*
X71500000Y-62243544D02*
X71500000Y-59000001D01*
X89465613Y-80209157D02*
X71500000Y-62243544D01*
D45*
X71500000Y-59000000D02*
X71500000Y-59000000D01*
D46*
X63000000Y-65500000D02*
X64469456Y-65500000D01*
X64469456Y-65500000D02*
X87751113Y-88781657D01*
X87405000Y-104685270D02*
X87405000Y-103098000D01*
X86544613Y-105545657D02*
X87405000Y-104685270D01*
X85465113Y-105545657D02*
X86544613Y-105545657D01*
X84195113Y-104275657D02*
X85465113Y-105545657D01*
X84195113Y-98560657D02*
X84195113Y-104275657D01*
X87751113Y-95004657D02*
X84195113Y-98560657D01*
X87751113Y-88781657D02*
X87751113Y-95004657D01*
D45*
X61000000Y-66250000D02*
X63000000Y-65500000D01*
D46*
X134491841Y-78132157D02*
X134408388Y-78048705D01*
X134408388Y-78048705D02*
X136067361Y-76556637D01*
X133354113Y-79832157D02*
X133354113Y-79269885D01*
X133354113Y-79269885D02*
X134491841Y-78132157D01*
X133354113Y-79832157D02*
X131754113Y-79832157D01*
X131754113Y-79832157D02*
X131629113Y-79957157D01*
X136067361Y-76556637D02*
X141096193Y-76556637D01*
X173953633Y-67168797D02*
X185250000Y-55872430D01*
X145901873Y-81362317D02*
X141096193Y-76556637D01*
X157971953Y-81362317D02*
X145901873Y-81362317D01*
X172165473Y-67168797D02*
X157971953Y-81362317D01*
X173953633Y-67168797D02*
X172165473Y-67168797D01*
X133354113Y-79832157D02*
X133272993Y-79832157D01*
X185250000Y-55000000D02*
X185250000Y-55872430D01*
D45*
X183500000Y-55000000D02*
X185250000Y-55000000D01*
D46*
X152929113Y-112109957D02*
X150606913Y-114432157D01*
X152929113Y-112109957D02*
X151936913Y-113102157D01*
X156239673Y-108799397D02*
X152929113Y-112109957D01*
X194500000Y-63750000D02*
X190671870Y-63750000D01*
X156239673Y-108799397D02*
X156239673Y-102932157D01*
X156239673Y-102932157D02*
X156239673Y-101423237D01*
X172472813Y-81949057D02*
X172305173Y-81949057D01*
X190671870Y-63750000D02*
X172472813Y-81949057D01*
X172305173Y-81949057D02*
X172109593Y-82144637D01*
X172109593Y-82144637D02*
X172109593Y-85651677D01*
X172109593Y-85651677D02*
X170729113Y-87032157D01*
X170729113Y-87032157D02*
X170729113Y-89044087D01*
X170729113Y-89044087D02*
X161146403Y-98626797D01*
X161146403Y-98626797D02*
X159058951Y-98626801D01*
X159058951Y-98626801D02*
X156239673Y-101465200D01*
X156239673Y-101465200D02*
X156239673Y-102932157D01*
X160410877Y-98626799D02*
X159058928Y-98626799D01*
X159058928Y-98626799D02*
X158443481Y-99246426D01*
X158443481Y-99246426D02*
X158557750Y-99132157D01*
D45*
X194250000Y-63750000D02*
X194500000Y-63750000D01*
D46*
X90129113Y-144696657D02*
X89829113Y-144396657D01*
X89829113Y-144396657D02*
X89829113Y-140332157D01*
X89275113Y-145550657D02*
X90129113Y-144696657D01*
X87436363Y-147389407D02*
X87436363Y-163899407D01*
X87306613Y-164029157D02*
X73273113Y-178062657D01*
X73273113Y-178062657D02*
X73273113Y-181682157D01*
X73273113Y-181682157D02*
X71303301Y-183651969D01*
X71303301Y-183651969D02*
X71303301Y-189553301D01*
X87436363Y-163899407D02*
X87306613Y-164029157D01*
X89275113Y-145550657D02*
X87436363Y-147389407D01*
X87436363Y-147389407D02*
X87306613Y-147519157D01*
X89945000Y-103098000D02*
X89945000Y-105764770D01*
X84068113Y-155575285D02*
X60696699Y-178946699D01*
X84068113Y-147392157D02*
X84068113Y-155575285D01*
X86481113Y-144979157D02*
X84068113Y-147392157D01*
X86481113Y-109228657D02*
X86481113Y-144979157D01*
X89945000Y-105764770D02*
X86481113Y-109228657D01*
D45*
X62303301Y-178946699D02*
X60696699Y-178946699D01*
D46*
X155378613Y-159711157D02*
X156558113Y-159711157D01*
X179154113Y-178957157D02*
X179154113Y-178851157D01*
X174154113Y-173957157D02*
X179154113Y-178957157D01*
X171979113Y-173957157D02*
X174154113Y-173957157D01*
X166229113Y-168207157D02*
X171979113Y-173957157D01*
X165054113Y-168207157D02*
X166229113Y-168207157D01*
X156558113Y-159711157D02*
X165054113Y-168207157D01*
X92485000Y-100558000D02*
X92485000Y-97509770D01*
X184196699Y-183893743D02*
X184196699Y-189303301D01*
X179154113Y-178851157D02*
X184196699Y-183893743D01*
X143250113Y-159711157D02*
X155378613Y-159711157D01*
X135693613Y-167267657D02*
X143250113Y-159711157D01*
X110801613Y-167267657D02*
X135693613Y-167267657D01*
X107245613Y-163711657D02*
X110801613Y-167267657D01*
X107245613Y-142629657D02*
X107245613Y-163711657D01*
X95752113Y-131136157D02*
X107245613Y-142629657D01*
X95752113Y-119579157D02*
X95752113Y-131136157D01*
X99686113Y-115445157D02*
X95752113Y-119579157D01*
X99686113Y-99125657D02*
X99686113Y-115445157D01*
X96450613Y-95830157D02*
X99686113Y-99125657D01*
X94164613Y-95830157D02*
X96450613Y-95830157D01*
X92485000Y-97509770D02*
X94164613Y-95830157D01*
D45*
X184196699Y-188946699D02*
X184196699Y-189303301D01*
D46*
X149829113Y-147732157D02*
X151629113Y-147732157D01*
X148029113Y-147832157D02*
X149729113Y-147832157D01*
X149729113Y-147832157D02*
X149829113Y-147732157D01*
X151629113Y-147732157D02*
X152974990Y-149078034D01*
X152974990Y-151211534D02*
X156077113Y-154313657D01*
X152974990Y-149078034D02*
X152974990Y-151211534D01*
X184714655Y-178696699D02*
X160331613Y-154313657D01*
X194803301Y-178696699D02*
X184714655Y-178696699D01*
X160331613Y-154313657D02*
X156077113Y-154313657D01*
D45*
X194303301Y-178696699D02*
X194803301Y-178696699D01*
D43*
X116250000Y-96800000D02*
X114298940Y-96800000D01*
X116250000Y-96800000D02*
X116550000Y-96800000D01*
X108550000Y-98850000D02*
X110601000Y-98850000D01*
X110601000Y-98850000D02*
X112300000Y-100549000D01*
X114298940Y-96800000D02*
X112300000Y-98798940D01*
X112300000Y-98798940D02*
X112300000Y-100549000D01*
X116550000Y-96800000D02*
X117200000Y-96150000D01*
X117200000Y-96150000D02*
X117700000Y-96150000D01*
X117700000Y-96150000D02*
X118700000Y-96150000D01*
X117150000Y-94900000D02*
X117600000Y-95350000D01*
X117600000Y-95350000D02*
X117700000Y-95350000D01*
X117700000Y-95350000D02*
X118700000Y-95350000D01*
X114298940Y-94900000D02*
X112300000Y-92901060D01*
X112300000Y-92901060D02*
X112300000Y-91151000D01*
X116250000Y-94900000D02*
X114298940Y-94900000D01*
X108650000Y-92900000D02*
X110551000Y-92900000D01*
X110551000Y-92900000D02*
X112300000Y-91151000D01*
X116250000Y-94900000D02*
X117150000Y-94900000D01*
X123050000Y-87600000D02*
X123050000Y-87725000D01*
X123050000Y-87725000D02*
X124400000Y-89075000D01*
X124400000Y-89075000D02*
X124400000Y-89450000D01*
X124400000Y-89450000D02*
X124400000Y-90450000D01*
X147696157Y-151832157D02*
X147150260Y-151286260D01*
X139129113Y-110632157D02*
X140429113Y-110632157D01*
X147150260Y-151286260D02*
X147129113Y-151286260D01*
X147129113Y-151286260D02*
X146475010Y-150632157D01*
X146475010Y-150632157D02*
X146475010Y-147174845D01*
X146475010Y-147174845D02*
X130029113Y-130728949D01*
X130029113Y-130728949D02*
X130029113Y-119732157D01*
X130029113Y-119732157D02*
X139129113Y-110632157D01*
X140429113Y-110632157D02*
X140929113Y-110132157D01*
X140929113Y-110132157D02*
X140929113Y-103782157D01*
X147331246Y-151467246D02*
X147696157Y-151832157D01*
X147696157Y-151832157D02*
X152302000Y-156438000D01*
X152302000Y-156438000D02*
X152302000Y-156946000D01*
D45*
X164468129Y-88013656D02*
X159316800Y-82862327D01*
X159316800Y-82862327D02*
X147148943Y-82862327D01*
X147148943Y-82862327D02*
X144954113Y-85057157D01*
X144954113Y-85057157D02*
X144954113Y-86707157D01*
D44*
X147454113Y-94182157D02*
X147497957Y-94182157D01*
X147497957Y-94182157D02*
X148085300Y-94769500D01*
X148085300Y-94769500D02*
X148085300Y-95694500D01*
X147120656Y-93848700D02*
X147454113Y-94182157D01*
X146934700Y-93848700D02*
X147120656Y-93848700D01*
X148085300Y-95569500D02*
X148085300Y-95694500D01*
D43*
X148654113Y-100982157D02*
X148654113Y-96263313D01*
X148654113Y-96263313D02*
X148085300Y-95694500D01*
D45*
X152354113Y-86707157D02*
X153254113Y-86707157D01*
X153254113Y-86707157D02*
X155754113Y-89207157D01*
X155754113Y-89207157D02*
X155754113Y-91907157D01*
X154604113Y-97707157D02*
X151654113Y-97707157D01*
X155754113Y-96557157D02*
X154604113Y-97707157D01*
X155754113Y-91907157D02*
X155754113Y-96557157D01*
D44*
X146029113Y-99750000D02*
X144336270Y-99750000D01*
X144336270Y-99750000D02*
X144204113Y-99882157D01*
D45*
X151654113Y-97707157D02*
X150097957Y-97707157D01*
X150097957Y-97707157D02*
X148085300Y-95694500D01*
X144954113Y-86707157D02*
X144954113Y-85562319D01*
D44*
X146934700Y-93848700D02*
X146214900Y-93848700D01*
D47*
X148869400Y-93329800D02*
X149098000Y-93558400D01*
X149098000Y-93558400D02*
X149098000Y-95605600D01*
X149098000Y-95605600D02*
X149009100Y-95694500D01*
X149009100Y-95694500D02*
X148085300Y-95694500D01*
D43*
X146004113Y-99750000D02*
X146029113Y-99750000D01*
X146029113Y-99750000D02*
X147421956Y-99750000D01*
X147421956Y-99750000D02*
X148654113Y-100982157D01*
X146880300Y-90898700D02*
X147411400Y-91429800D01*
X147411400Y-91429800D02*
X148869400Y-91429800D01*
X146214900Y-90898700D02*
X146880300Y-90898700D01*
X146214900Y-90898700D02*
X145714900Y-90898700D01*
X145214900Y-90898700D02*
X145714900Y-90898700D01*
X148869400Y-91429800D02*
X150902200Y-91429800D01*
X150902200Y-91429800D02*
X150939500Y-91392500D01*
D42*
X162354113Y-90207157D02*
X162361801Y-90214845D01*
X162361801Y-90214845D02*
X162429805Y-90214845D01*
X147054113Y-115657157D02*
X151204113Y-119807157D01*
X151204113Y-119807157D02*
X155854113Y-119807157D01*
X147054113Y-112107157D02*
X147054113Y-115657157D01*
X165487291Y-86913061D02*
X165487291Y-85473979D01*
X165487291Y-85473979D02*
X165829113Y-85132157D01*
D44*
X140929113Y-98907157D02*
X140929113Y-99157157D01*
X140929113Y-99157157D02*
X141654113Y-99882157D01*
X141654113Y-99882157D02*
X142304113Y-99882157D01*
X139225864Y-97203908D02*
X140929113Y-98907157D01*
X140929113Y-98907157D02*
X140929113Y-101757157D01*
X135729113Y-94650000D02*
X131250000Y-94650000D01*
X131250000Y-94650000D02*
X131150000Y-94550000D01*
X131150000Y-94550000D02*
X130100000Y-94550000D01*
D42*
X165829113Y-85132157D02*
X165862291Y-85165335D01*
X165862291Y-85165335D02*
X165862291Y-85188061D01*
D44*
X139200864Y-97203908D02*
X139225864Y-97203908D01*
X137857362Y-95860406D02*
X137882362Y-95860406D01*
X136646956Y-94650000D02*
X137857362Y-95860406D01*
X135729113Y-94650000D02*
X136646956Y-94650000D01*
X137882362Y-95860406D02*
X139225864Y-97203908D01*
D42*
X157654113Y-118007157D02*
X155854113Y-119807157D01*
D44*
X135729113Y-94650000D02*
X135750000Y-94650000D01*
D43*
X125242820Y-95457180D02*
X126572626Y-95457180D01*
X129100000Y-92150000D02*
X130100000Y-92150000D01*
X126572626Y-95457180D02*
X127579137Y-94450669D01*
X127579137Y-93120863D02*
X128550000Y-92150000D01*
X121200000Y-99500000D02*
X125242820Y-95457180D01*
X128550000Y-92150000D02*
X129100000Y-92150000D01*
X127579137Y-94450669D02*
X127579137Y-93120863D01*
X121200000Y-101850000D02*
X121200000Y-99500000D01*
X131100000Y-92150000D02*
X131650000Y-91600000D01*
X130100000Y-92150000D02*
X131100000Y-92150000D01*
X131650000Y-91600000D02*
X131900000Y-91600000D01*
X131900000Y-91600000D02*
X132500000Y-91600000D01*
D44*
X146578400Y-96469200D02*
X145828400Y-96469200D01*
X145828400Y-96469200D02*
X145714900Y-96355700D01*
X145714900Y-96355700D02*
X145714900Y-94573700D01*
X145714900Y-94573700D02*
X145714900Y-93848700D01*
D43*
X128400000Y-101850000D02*
X128400000Y-103700000D01*
X128400000Y-103700000D02*
X128700000Y-104000000D01*
D45*
X110423113Y-171966657D02*
X109666657Y-171966657D01*
X109666657Y-171966657D02*
X108100000Y-170400000D01*
X108100000Y-170400000D02*
X107263956Y-170400000D01*
X107263956Y-170400000D02*
X106798613Y-169934657D01*
X115100000Y-170800000D02*
X116812956Y-170800000D01*
X116812956Y-170800000D02*
X117408113Y-171395157D01*
X115100000Y-170800000D02*
X113489770Y-170800000D01*
X113489770Y-170800000D02*
X112323113Y-171966657D01*
X121787113Y-169680657D02*
X122551613Y-169680657D01*
X122551613Y-169680657D02*
X124266113Y-171395157D01*
X119308113Y-171395157D02*
X119755113Y-171395157D01*
X121469613Y-169680657D02*
X121787113Y-169680657D01*
X119755113Y-171395157D02*
X121469613Y-169680657D01*
X127883113Y-169680657D02*
X128774613Y-169680657D01*
X128774613Y-169680657D02*
X130298613Y-171204657D01*
X126166113Y-171395157D02*
X126166113Y-170635657D01*
X127121113Y-169680657D02*
X127883113Y-169680657D01*
X126166113Y-170635657D02*
X127121113Y-169680657D01*
X133852113Y-169934657D02*
X135442113Y-169934657D01*
X135442113Y-169934657D02*
X136585113Y-171077657D01*
X132198613Y-171204657D02*
X132582113Y-171204657D01*
X132582113Y-171204657D02*
X133852113Y-169934657D01*
X140600000Y-170100000D02*
X140925770Y-170100000D01*
X140925770Y-170100000D02*
X142070362Y-168955408D01*
X140600000Y-170100000D02*
X139462770Y-170100000D01*
X139462770Y-170100000D02*
X138485113Y-171077657D01*
D43*
X119850000Y-92150000D02*
X121150001Y-93450001D01*
X121150001Y-93450001D02*
X121450000Y-93750000D01*
X118700000Y-92150000D02*
X119850000Y-92150000D01*
X122838000Y-108686000D02*
X122838000Y-104483179D01*
X122838000Y-104483179D02*
X122804811Y-104449990D01*
X82793033Y-77455797D02*
X83742993Y-77455797D01*
X70601033Y-65263797D02*
X82793033Y-77455797D01*
X157929113Y-95932157D02*
X159856907Y-95932157D01*
X159856907Y-95932157D02*
X161504113Y-94284951D01*
X153229114Y-100632156D02*
X157929113Y-95932157D01*
X152079113Y-106107157D02*
X153229114Y-104957156D01*
X153229114Y-104957156D02*
X153229114Y-100632156D01*
X159795000Y-92620500D02*
X159795000Y-91770500D01*
X159795000Y-91770500D02*
X160254113Y-91311387D01*
X160254113Y-91311387D02*
X160254113Y-90082157D01*
X161504113Y-94332157D02*
X161480510Y-94308554D01*
X159795000Y-92620500D02*
X160645000Y-92620500D01*
X160645000Y-92620500D02*
X161504113Y-93479613D01*
X161504113Y-94284951D02*
X161480510Y-94308554D01*
X161504113Y-93479613D02*
X161504113Y-94284951D01*
X126310213Y-92720016D02*
X126310213Y-92295752D01*
X126310213Y-93601059D02*
X126310213Y-92720016D01*
X121169162Y-94507158D02*
X125404114Y-94507158D01*
X120412004Y-93750000D02*
X121169162Y-94507158D01*
X118700000Y-93750000D02*
X120412004Y-93750000D01*
X125404114Y-94507158D02*
X126310213Y-93601059D01*
X127600000Y-90450000D02*
X127600000Y-91450000D01*
X127600000Y-91450000D02*
X126754248Y-92295752D01*
X126754248Y-92295752D02*
X126734477Y-92295752D01*
X126734477Y-92295752D02*
X126310213Y-92295752D01*
X160254113Y-85607157D02*
X160254113Y-90082157D01*
X154842000Y-125045044D02*
X154842000Y-129006000D01*
X153429113Y-123632157D02*
X154842000Y-125045044D01*
X143018735Y-90092535D02*
X143518735Y-90092535D01*
X152304113Y-90582157D02*
X154029113Y-90432157D01*
X151704113Y-89982157D02*
X152304113Y-90582157D01*
X143629113Y-89982157D02*
X151704113Y-89982157D01*
X143518735Y-90092535D02*
X143629113Y-89982157D01*
X157904113Y-87957157D02*
X157654113Y-87957157D01*
X160254113Y-85607157D02*
X157904113Y-87957157D01*
X161904113Y-82882157D02*
X161904113Y-84007157D01*
X161929113Y-81932157D02*
X161904113Y-82882157D01*
X110579113Y-76057157D02*
X109229113Y-76057157D01*
X113821956Y-86450000D02*
X114800000Y-86450000D01*
X113304113Y-85932157D02*
X113821956Y-86450000D01*
X108004113Y-79682157D02*
X108004113Y-82657157D01*
X109229113Y-78457157D02*
X108004113Y-79682157D01*
X109229113Y-76057157D02*
X109229113Y-78457157D01*
X110554113Y-78057157D02*
X110554113Y-76082157D01*
X110554113Y-76082157D02*
X110579113Y-76057157D01*
X127600000Y-97724264D02*
X127600000Y-97300000D01*
X127600000Y-98338587D02*
X127600000Y-97724264D01*
X129411413Y-100150000D02*
X127600000Y-98338587D01*
X128150000Y-87950000D02*
X128371956Y-87950000D01*
X128371956Y-87950000D02*
X130429113Y-90007157D01*
X132807157Y-90007157D02*
X134400000Y-91600000D01*
X130429113Y-90007157D02*
X132807157Y-90007157D01*
D44*
X119282000Y-156946000D02*
X119282000Y-160292000D01*
X119282000Y-160292000D02*
X119304000Y-160314000D01*
X119304000Y-160314000D02*
X121686000Y-160314000D01*
X121686000Y-160314000D02*
X122200000Y-159800000D01*
D43*
X154842000Y-129006000D02*
X154894000Y-129006000D01*
X116250000Y-93300000D02*
X115100000Y-93300000D01*
X115100000Y-93300000D02*
X114900000Y-93100000D01*
X114900000Y-93100000D02*
X114900000Y-89350000D01*
X116250000Y-93300000D02*
X117125000Y-93300000D01*
X117125000Y-93300000D02*
X117575000Y-93750000D01*
X117575000Y-93750000D02*
X117700000Y-93750000D01*
X137053402Y-89546598D02*
X135000000Y-91600000D01*
X142472798Y-89546598D02*
X137053402Y-89546598D01*
X135000000Y-91600000D02*
X134400000Y-91600000D01*
X143824900Y-90898700D02*
X143018735Y-90092535D01*
X143018735Y-90092535D02*
X142472798Y-89546598D01*
X144214900Y-90898700D02*
X143824900Y-90898700D01*
X141909800Y-93417900D02*
X139877800Y-93417900D01*
X139877800Y-93417900D02*
X139865100Y-93405200D01*
X141909800Y-93417900D02*
X142934800Y-93417900D01*
X142934800Y-93417900D02*
X143365600Y-93848700D01*
X143365600Y-93848700D02*
X144164890Y-93848700D01*
X127600000Y-90450000D02*
X127600000Y-88500000D01*
X127600000Y-88500000D02*
X128150000Y-87950000D01*
X130100000Y-100150000D02*
X129411413Y-100150000D01*
X114900000Y-89350000D02*
X114900000Y-88400000D01*
X114800000Y-86450000D02*
X114800000Y-88300000D01*
X114800000Y-88300000D02*
X114900000Y-88400000D01*
X130100000Y-100150000D02*
X130100000Y-100675000D01*
X130100000Y-100675000D02*
X131225000Y-101800000D01*
X131225000Y-101800000D02*
X131325000Y-101800000D01*
X131325000Y-101800000D02*
X132200000Y-101800000D01*
X117700000Y-93750000D02*
X118700000Y-93750000D01*
D42*
X120919113Y-132415417D02*
X120919113Y-120148885D01*
X120919113Y-120148885D02*
X120860749Y-120090521D01*
X118694104Y-134640426D02*
X120919113Y-132415417D01*
X112700000Y-162600000D02*
X112700000Y-141002157D01*
X112700000Y-141002157D02*
X112700000Y-140643104D01*
X112700000Y-140643104D02*
X118694103Y-134649001D01*
X118694103Y-134649001D02*
X118694104Y-134640426D01*
D44*
X122100000Y-163600000D02*
X122100000Y-163475000D01*
X122100000Y-163475000D02*
X122375000Y-163200000D01*
X122375000Y-163200000D02*
X122555002Y-163200000D01*
X122555002Y-163200000D02*
X124362000Y-161393002D01*
X124362000Y-161393002D02*
X124362000Y-158516000D01*
X124362000Y-158516000D02*
X124362000Y-156946000D01*
X119304000Y-162600000D02*
X119304000Y-163408000D01*
X119304000Y-163408000D02*
X119496000Y-163600000D01*
X119496000Y-163600000D02*
X121300000Y-163600000D01*
X121300000Y-163600000D02*
X122100000Y-163600000D01*
X112700000Y-162600000D02*
X119304000Y-162600000D01*
D48*
G36*
X166058913Y-101664866D02*
X167040000Y-106570303D01*
X167040000Y-110937836D01*
X166308018Y-115085733D01*
X165569943Y-117545983D01*
X165569491Y-117550718D01*
X165567318Y-117554948D01*
X165067318Y-119304948D01*
X165066334Y-119316930D01*
X165061199Y-119327800D01*
X164811199Y-120327800D01*
X164806971Y-120414683D01*
X164790000Y-120500000D01*
X164790000Y-121500000D01*
X164806971Y-121585317D01*
X164811199Y-121672200D01*
X165061199Y-122672200D01*
X165072984Y-122697147D01*
X165076435Y-122724522D01*
X165290000Y-123365216D01*
X165290000Y-123863266D01*
X164851752Y-124958888D01*
X163884726Y-126892940D01*
X163409244Y-127606163D01*
X163362970Y-127718210D01*
X163311199Y-127827800D01*
X163061199Y-128827800D01*
X163056971Y-128914683D01*
X163040000Y-129000000D01*
X163040000Y-130000000D01*
X163094046Y-130271705D01*
X163247954Y-130502046D01*
X163747954Y-131002046D01*
X163842578Y-131065271D01*
X163932478Y-131135043D01*
X164220797Y-131279203D01*
X164290000Y-131417608D01*
X164290000Y-131582392D01*
X164166484Y-131829424D01*
X163747954Y-132247954D01*
X163733779Y-132269169D01*
X163713628Y-132284808D01*
X163657274Y-132383667D01*
X163594046Y-132478295D01*
X163589069Y-132503316D01*
X163576435Y-132525479D01*
X163326435Y-133275478D01*
X163291787Y-133550331D01*
X163364956Y-133817522D01*
X163364959Y-133817526D01*
X163614957Y-134317522D01*
X163684729Y-134407422D01*
X163747954Y-134502046D01*
X164497954Y-135252046D01*
X164540135Y-135280230D01*
X164574000Y-135318000D01*
X166414724Y-136698543D01*
X167316573Y-138953167D01*
X167540000Y-140070303D01*
X167540000Y-140884783D01*
X166342391Y-144477610D01*
X165470797Y-146220797D01*
X164727610Y-146592391D01*
X164025478Y-146826435D01*
X164020955Y-146829013D01*
X164015799Y-146829739D01*
X163900771Y-146897524D01*
X163784807Y-146963628D01*
X163781616Y-146967740D01*
X163777129Y-146970384D01*
X163696821Y-147076997D01*
X163614956Y-147182478D01*
X163613580Y-147187502D01*
X163610449Y-147191659D01*
X163577043Y-147320925D01*
X163541787Y-147449669D01*
X163542438Y-147454831D01*
X163541134Y-147459876D01*
X163559745Y-147592124D01*
X163576435Y-147724522D01*
X163579013Y-147729045D01*
X163579739Y-147734201D01*
X163647524Y-147849229D01*
X163713628Y-147965193D01*
X163717740Y-147968384D01*
X163720384Y-147972871D01*
X169970384Y-154972871D01*
X169975166Y-154976473D01*
X169978290Y-154981579D01*
X175976448Y-161479584D01*
X183474643Y-169727598D01*
X183544589Y-169779310D01*
X183606163Y-169840756D01*
X184356163Y-170340756D01*
X184443443Y-170376801D01*
X184525478Y-170423565D01*
X186775478Y-171173565D01*
X186812151Y-171178188D01*
X186845979Y-171193093D01*
X189095979Y-171693093D01*
X189157761Y-171694472D01*
X189217761Y-171709268D01*
X194663767Y-171956814D01*
X195791815Y-172182423D01*
X198686119Y-173388384D01*
X200353929Y-174341417D01*
X202514388Y-176021773D01*
X204676429Y-178424041D01*
X206086823Y-180774698D01*
X206790000Y-183587404D01*
X206790000Y-186945703D01*
X205305761Y-196593256D01*
X204595471Y-198960890D01*
X203891180Y-200134708D01*
X203881873Y-200160682D01*
X203864957Y-200182478D01*
X203416484Y-201079424D01*
X202270725Y-202225183D01*
X200898386Y-203368799D01*
X200356223Y-203549520D01*
X197490168Y-203788359D01*
X193133632Y-203546329D01*
X186574897Y-201373914D01*
X183397881Y-199797173D01*
X182093600Y-198036392D01*
X181832845Y-196750000D01*
X182790000Y-196750000D01*
X182901136Y-197308718D01*
X183217624Y-197782376D01*
X183691282Y-198098864D01*
X184250000Y-198210000D01*
X184808718Y-198098864D01*
X185282376Y-197782376D01*
X185598864Y-197308718D01*
X185710000Y-196750000D01*
X185598864Y-196191282D01*
X185282376Y-195717624D01*
X184808718Y-195401136D01*
X184250000Y-195290000D01*
X183691282Y-195401136D01*
X183217624Y-195717624D01*
X182901136Y-196191282D01*
X182790000Y-196750000D01*
X181832845Y-196750000D01*
X181756640Y-196374057D01*
X181584865Y-194750000D01*
X197040000Y-194750000D01*
X197246286Y-195787072D01*
X197833741Y-196666259D01*
X198712928Y-197253714D01*
X199750000Y-197460000D01*
X200787072Y-197253714D01*
X201666259Y-196666259D01*
X202253714Y-195787072D01*
X202460000Y-194750000D01*
X202253714Y-193712928D01*
X201666259Y-192833741D01*
X200787072Y-192246286D01*
X199750000Y-192040000D01*
X198712928Y-192246286D01*
X197833741Y-192833741D01*
X197246286Y-193712928D01*
X197040000Y-194750000D01*
X181584865Y-194750000D01*
X181486270Y-193817832D01*
X181457949Y-193446068D01*
X181431934Y-193352935D01*
X181417253Y-193257362D01*
X180435653Y-190557961D01*
X180210000Y-189429698D01*
X180210000Y-186250000D01*
X180202263Y-186211104D01*
X180205657Y-186171593D01*
X179955657Y-183921594D01*
X179932959Y-183849999D01*
X179923565Y-183775478D01*
X179423565Y-182275478D01*
X179398442Y-182231406D01*
X179385043Y-182182478D01*
X178885043Y-181182478D01*
X178838994Y-181123144D01*
X178804417Y-181056466D01*
X178109436Y-180187741D01*
X178138622Y-180207242D01*
X178317441Y-180326725D01*
X182561699Y-184570982D01*
X182561699Y-187901362D01*
X181264016Y-189199045D01*
X181128931Y-189396748D01*
X181074447Y-189647910D01*
X181121971Y-189900481D01*
X181264016Y-190114663D01*
X183385337Y-192235984D01*
X183583040Y-192371069D01*
X183834202Y-192425553D01*
X184086773Y-192378029D01*
X184300955Y-192235984D01*
X187129382Y-189407557D01*
X187264467Y-189209854D01*
X187318951Y-188958692D01*
X187271427Y-188706121D01*
X187129382Y-188491939D01*
X186637443Y-188000000D01*
X190290000Y-188000000D01*
X190496286Y-189037072D01*
X191083741Y-189916259D01*
X191962928Y-190503714D01*
X193000000Y-190710000D01*
X194037072Y-190503714D01*
X194916259Y-189916259D01*
X195503714Y-189037072D01*
X195710000Y-188000000D01*
X195503714Y-186962928D01*
X194916259Y-186083741D01*
X194037072Y-185496286D01*
X193000000Y-185290000D01*
X191962928Y-185496286D01*
X191083741Y-186083741D01*
X190496286Y-186962928D01*
X190290000Y-188000000D01*
X186637443Y-188000000D01*
X185831699Y-187194256D01*
X185831699Y-183893748D01*
X185831700Y-183893743D01*
X185707242Y-183268056D01*
X185545694Y-183026282D01*
X185352819Y-182737623D01*
X185352816Y-182737621D01*
X181052956Y-178437760D01*
X181117056Y-178411274D01*
X181380305Y-178148484D01*
X181519349Y-177813632D01*
X183558533Y-179852816D01*
X183558535Y-179852819D01*
X183948339Y-180113277D01*
X184088968Y-180207242D01*
X184714655Y-180331700D01*
X184714660Y-180331699D01*
X192694256Y-180331699D01*
X193991939Y-181629382D01*
X194189642Y-181764467D01*
X194440804Y-181818951D01*
X194693375Y-181771427D01*
X194907557Y-181629382D01*
X197735984Y-178800955D01*
X197770800Y-178750000D01*
X200790000Y-178750000D01*
X200901136Y-179308718D01*
X201217624Y-179782376D01*
X201691282Y-180098864D01*
X202250000Y-180210000D01*
X202808718Y-180098864D01*
X203282376Y-179782376D01*
X203598864Y-179308718D01*
X203710000Y-178750000D01*
X203598864Y-178191282D01*
X203282376Y-177717624D01*
X202808718Y-177401136D01*
X202250000Y-177290000D01*
X201691282Y-177401136D01*
X201217624Y-177717624D01*
X200901136Y-178191282D01*
X200790000Y-178750000D01*
X197770800Y-178750000D01*
X197871069Y-178603252D01*
X197925553Y-178352090D01*
X197878029Y-178099519D01*
X197735984Y-177885337D01*
X195614663Y-175764016D01*
X195416960Y-175628931D01*
X195165798Y-175574447D01*
X194913227Y-175621971D01*
X194699045Y-175764016D01*
X193401362Y-177061699D01*
X185391894Y-177061699D01*
X161487733Y-153157537D01*
X160957301Y-152803114D01*
X160331613Y-152678656D01*
X160331608Y-152678657D01*
X156754352Y-152678657D01*
X156665631Y-152589936D01*
X156778943Y-152543117D01*
X157042192Y-152280327D01*
X157184838Y-151936799D01*
X157185162Y-151564833D01*
X157043117Y-151221057D01*
X157010000Y-151187882D01*
X157010000Y-150750000D01*
X156952148Y-150459161D01*
X156952148Y-150459160D01*
X156787401Y-150212599D01*
X155060000Y-148485198D01*
X155060000Y-147777169D01*
X159889279Y-142947890D01*
X160059445Y-142693217D01*
X160119200Y-142392811D01*
X160119200Y-101968422D01*
X160981479Y-101106143D01*
X161151645Y-100851471D01*
X161183294Y-100692364D01*
X161218592Y-100657127D01*
X161361238Y-100313599D01*
X161361320Y-100219048D01*
X161772091Y-100137340D01*
X161772092Y-100137339D01*
X161772093Y-100137339D01*
X162036568Y-99960622D01*
X162302523Y-99782917D01*
X164833187Y-97252253D01*
X166058913Y-101664866D01*
X166058913Y-101664866D01*
G37*
X166058913Y-101664866D02*
X167040000Y-106570303D01*
X167040000Y-110937836D01*
X166308018Y-115085733D01*
X165569943Y-117545983D01*
X165569491Y-117550718D01*
X165567318Y-117554948D01*
X165067318Y-119304948D01*
X165066334Y-119316930D01*
X165061199Y-119327800D01*
X164811199Y-120327800D01*
X164806971Y-120414683D01*
X164790000Y-120500000D01*
X164790000Y-121500000D01*
X164806971Y-121585317D01*
X164811199Y-121672200D01*
X165061199Y-122672200D01*
X165072984Y-122697147D01*
X165076435Y-122724522D01*
X165290000Y-123365216D01*
X165290000Y-123863266D01*
X164851752Y-124958888D01*
X163884726Y-126892940D01*
X163409244Y-127606163D01*
X163362970Y-127718210D01*
X163311199Y-127827800D01*
X163061199Y-128827800D01*
X163056971Y-128914683D01*
X163040000Y-129000000D01*
X163040000Y-130000000D01*
X163094046Y-130271705D01*
X163247954Y-130502046D01*
X163747954Y-131002046D01*
X163842578Y-131065271D01*
X163932478Y-131135043D01*
X164220797Y-131279203D01*
X164290000Y-131417608D01*
X164290000Y-131582392D01*
X164166484Y-131829424D01*
X163747954Y-132247954D01*
X163733779Y-132269169D01*
X163713628Y-132284808D01*
X163657274Y-132383667D01*
X163594046Y-132478295D01*
X163589069Y-132503316D01*
X163576435Y-132525479D01*
X163326435Y-133275478D01*
X163291787Y-133550331D01*
X163364956Y-133817522D01*
X163364959Y-133817526D01*
X163614957Y-134317522D01*
X163684729Y-134407422D01*
X163747954Y-134502046D01*
X164497954Y-135252046D01*
X164540135Y-135280230D01*
X164574000Y-135318000D01*
X166414724Y-136698543D01*
X167316573Y-138953167D01*
X167540000Y-140070303D01*
X167540000Y-140884783D01*
X166342391Y-144477610D01*
X165470797Y-146220797D01*
X164727610Y-146592391D01*
X164025478Y-146826435D01*
X164020955Y-146829013D01*
X164015799Y-146829739D01*
X163900771Y-146897524D01*
X163784807Y-146963628D01*
X163781616Y-146967740D01*
X163777129Y-146970384D01*
X163696821Y-147076997D01*
X163614956Y-147182478D01*
X163613580Y-147187502D01*
X163610449Y-147191659D01*
X163577043Y-147320925D01*
X163541787Y-147449669D01*
X163542438Y-147454831D01*
X163541134Y-147459876D01*
X163559745Y-147592124D01*
X163576435Y-147724522D01*
X163579013Y-147729045D01*
X163579739Y-147734201D01*
X163647524Y-147849229D01*
X163713628Y-147965193D01*
X163717740Y-147968384D01*
X163720384Y-147972871D01*
X169970384Y-154972871D01*
X169975166Y-154976473D01*
X169978290Y-154981579D01*
X175976448Y-161479584D01*
X183474643Y-169727598D01*
X183544589Y-169779310D01*
X183606163Y-169840756D01*
X184356163Y-170340756D01*
X184443443Y-170376801D01*
X184525478Y-170423565D01*
X186775478Y-171173565D01*
X186812151Y-171178188D01*
X186845979Y-171193093D01*
X189095979Y-171693093D01*
X189157761Y-171694472D01*
X189217761Y-171709268D01*
X194663767Y-171956814D01*
X195791815Y-172182423D01*
X198686119Y-173388384D01*
X200353929Y-174341417D01*
X202514388Y-176021773D01*
X204676429Y-178424041D01*
X206086823Y-180774698D01*
X206790000Y-183587404D01*
X206790000Y-186945703D01*
X205305761Y-196593256D01*
X204595471Y-198960890D01*
X203891180Y-200134708D01*
X203881873Y-200160682D01*
X203864957Y-200182478D01*
X203416484Y-201079424D01*
X202270725Y-202225183D01*
X200898386Y-203368799D01*
X200356223Y-203549520D01*
X197490168Y-203788359D01*
X193133632Y-203546329D01*
X186574897Y-201373914D01*
X183397881Y-199797173D01*
X182093600Y-198036392D01*
X181832845Y-196750000D01*
X182790000Y-196750000D01*
X182901136Y-197308718D01*
X183217624Y-197782376D01*
X183691282Y-198098864D01*
X184250000Y-198210000D01*
X184808718Y-198098864D01*
X185282376Y-197782376D01*
X185598864Y-197308718D01*
X185710000Y-196750000D01*
X185598864Y-196191282D01*
X185282376Y-195717624D01*
X184808718Y-195401136D01*
X184250000Y-195290000D01*
X183691282Y-195401136D01*
X183217624Y-195717624D01*
X182901136Y-196191282D01*
X182790000Y-196750000D01*
X181832845Y-196750000D01*
X181756640Y-196374057D01*
X181584865Y-194750000D01*
X197040000Y-194750000D01*
X197246286Y-195787072D01*
X197833741Y-196666259D01*
X198712928Y-197253714D01*
X199750000Y-197460000D01*
X200787072Y-197253714D01*
X201666259Y-196666259D01*
X202253714Y-195787072D01*
X202460000Y-194750000D01*
X202253714Y-193712928D01*
X201666259Y-192833741D01*
X200787072Y-192246286D01*
X199750000Y-192040000D01*
X198712928Y-192246286D01*
X197833741Y-192833741D01*
X197246286Y-193712928D01*
X197040000Y-194750000D01*
X181584865Y-194750000D01*
X181486270Y-193817832D01*
X181457949Y-193446068D01*
X181431934Y-193352935D01*
X181417253Y-193257362D01*
X180435653Y-190557961D01*
X180210000Y-189429698D01*
X180210000Y-186250000D01*
X180202263Y-186211104D01*
X180205657Y-186171593D01*
X179955657Y-183921594D01*
X179932959Y-183849999D01*
X179923565Y-183775478D01*
X179423565Y-182275478D01*
X179398442Y-182231406D01*
X179385043Y-182182478D01*
X178885043Y-181182478D01*
X178838994Y-181123144D01*
X178804417Y-181056466D01*
X178109436Y-180187741D01*
X178138622Y-180207242D01*
X178317441Y-180326725D01*
X182561699Y-184570982D01*
X182561699Y-187901362D01*
X181264016Y-189199045D01*
X181128931Y-189396748D01*
X181074447Y-189647910D01*
X181121971Y-189900481D01*
X181264016Y-190114663D01*
X183385337Y-192235984D01*
X183583040Y-192371069D01*
X183834202Y-192425553D01*
X184086773Y-192378029D01*
X184300955Y-192235984D01*
X187129382Y-189407557D01*
X187264467Y-189209854D01*
X187318951Y-188958692D01*
X187271427Y-188706121D01*
X187129382Y-188491939D01*
X186637443Y-188000000D01*
X190290000Y-188000000D01*
X190496286Y-189037072D01*
X191083741Y-189916259D01*
X191962928Y-190503714D01*
X193000000Y-190710000D01*
X194037072Y-190503714D01*
X194916259Y-189916259D01*
X195503714Y-189037072D01*
X195710000Y-188000000D01*
X195503714Y-186962928D01*
X194916259Y-186083741D01*
X194037072Y-185496286D01*
X193000000Y-185290000D01*
X191962928Y-185496286D01*
X191083741Y-186083741D01*
X190496286Y-186962928D01*
X190290000Y-188000000D01*
X186637443Y-188000000D01*
X185831699Y-187194256D01*
X185831699Y-183893748D01*
X185831700Y-183893743D01*
X185707242Y-183268056D01*
X185545694Y-183026282D01*
X185352819Y-182737623D01*
X185352816Y-182737621D01*
X181052956Y-178437760D01*
X181117056Y-178411274D01*
X181380305Y-178148484D01*
X181519349Y-177813632D01*
X183558533Y-179852816D01*
X183558535Y-179852819D01*
X183948339Y-180113277D01*
X184088968Y-180207242D01*
X184714655Y-180331700D01*
X184714660Y-180331699D01*
X192694256Y-180331699D01*
X193991939Y-181629382D01*
X194189642Y-181764467D01*
X194440804Y-181818951D01*
X194693375Y-181771427D01*
X194907557Y-181629382D01*
X197735984Y-178800955D01*
X197770800Y-178750000D01*
X200790000Y-178750000D01*
X200901136Y-179308718D01*
X201217624Y-179782376D01*
X201691282Y-180098864D01*
X202250000Y-180210000D01*
X202808718Y-180098864D01*
X203282376Y-179782376D01*
X203598864Y-179308718D01*
X203710000Y-178750000D01*
X203598864Y-178191282D01*
X203282376Y-177717624D01*
X202808718Y-177401136D01*
X202250000Y-177290000D01*
X201691282Y-177401136D01*
X201217624Y-177717624D01*
X200901136Y-178191282D01*
X200790000Y-178750000D01*
X197770800Y-178750000D01*
X197871069Y-178603252D01*
X197925553Y-178352090D01*
X197878029Y-178099519D01*
X197735984Y-177885337D01*
X195614663Y-175764016D01*
X195416960Y-175628931D01*
X195165798Y-175574447D01*
X194913227Y-175621971D01*
X194699045Y-175764016D01*
X193401362Y-177061699D01*
X185391894Y-177061699D01*
X161487733Y-153157537D01*
X160957301Y-152803114D01*
X160331613Y-152678656D01*
X160331608Y-152678657D01*
X156754352Y-152678657D01*
X156665631Y-152589936D01*
X156778943Y-152543117D01*
X157042192Y-152280327D01*
X157184838Y-151936799D01*
X157185162Y-151564833D01*
X157043117Y-151221057D01*
X157010000Y-151187882D01*
X157010000Y-150750000D01*
X156952148Y-150459161D01*
X156952148Y-150459160D01*
X156787401Y-150212599D01*
X155060000Y-148485198D01*
X155060000Y-147777169D01*
X159889279Y-142947890D01*
X160059445Y-142693217D01*
X160119200Y-142392811D01*
X160119200Y-101968422D01*
X160981479Y-101106143D01*
X161151645Y-100851471D01*
X161183294Y-100692364D01*
X161218592Y-100657127D01*
X161361238Y-100313599D01*
X161361320Y-100219048D01*
X161772091Y-100137340D01*
X161772092Y-100137339D01*
X161772093Y-100137339D01*
X162036568Y-99960622D01*
X162302523Y-99782917D01*
X164833187Y-97252253D01*
X166058913Y-101664866D01*
G36*
X85796070Y-148144845D02*
X85801363Y-148152767D01*
X85801363Y-163222167D01*
X72116993Y-176906537D01*
X71762570Y-177436969D01*
X71638112Y-178062657D01*
X71638113Y-178062662D01*
X71638113Y-181004918D01*
X70147181Y-182495849D01*
X69792758Y-183026281D01*
X69668300Y-183651969D01*
X69668301Y-183651974D01*
X69668301Y-187444256D01*
X68370618Y-188741939D01*
X68235533Y-188939642D01*
X68181049Y-189190804D01*
X68228573Y-189443375D01*
X68370618Y-189657557D01*
X71199045Y-192485984D01*
X71396748Y-192621069D01*
X71647910Y-192675553D01*
X71900481Y-192628029D01*
X72114663Y-192485984D01*
X73754555Y-190846092D01*
X73799660Y-191116723D01*
X74031598Y-192508354D01*
X73803995Y-194101579D01*
X73347766Y-195698380D01*
X72457580Y-197033658D01*
X72450706Y-196999098D01*
X72110322Y-196489678D01*
X71600902Y-196149294D01*
X71000000Y-196029767D01*
X70399098Y-196149294D01*
X69889678Y-196489678D01*
X69549294Y-196999098D01*
X69429767Y-197600000D01*
X69549294Y-198200902D01*
X69889678Y-198710322D01*
X70399098Y-199050706D01*
X70595867Y-199089846D01*
X69328452Y-200176201D01*
X67445336Y-201353149D01*
X65317411Y-202062458D01*
X64179698Y-202290000D01*
X63544200Y-202290000D01*
X61609557Y-202048170D01*
X57651661Y-201306064D01*
X53791511Y-200341027D01*
X52419471Y-199426333D01*
X51279611Y-198514445D01*
X50840756Y-197856163D01*
X50791101Y-197806404D01*
X50752046Y-197747954D01*
X50252046Y-197247954D01*
X50230831Y-197233779D01*
X50215192Y-197213628D01*
X50116333Y-197157274D01*
X50021705Y-197094046D01*
X49996684Y-197089069D01*
X49974521Y-197076435D01*
X49314725Y-196856503D01*
X48800721Y-196513833D01*
X48043805Y-195000000D01*
X52274436Y-195000000D01*
X52481907Y-196043028D01*
X53072735Y-196927265D01*
X53956972Y-197518093D01*
X55000000Y-197725564D01*
X56043028Y-197518093D01*
X56927265Y-196927265D01*
X57518093Y-196043028D01*
X57725564Y-195000000D01*
X57518093Y-193956972D01*
X56927265Y-193072735D01*
X56043028Y-192481907D01*
X55000000Y-192274436D01*
X53956972Y-192481907D01*
X53072735Y-193072735D01*
X52481907Y-193956972D01*
X52274436Y-195000000D01*
X48043805Y-195000000D01*
X47661322Y-194235036D01*
X46710000Y-191143239D01*
X46710000Y-189277272D01*
X46789020Y-188250000D01*
X58903999Y-188250000D01*
X59120638Y-189339117D01*
X59737573Y-190262427D01*
X60660883Y-190879362D01*
X61750000Y-191096001D01*
X62839117Y-190879362D01*
X63762427Y-190262427D01*
X64379362Y-189339117D01*
X64596001Y-188250000D01*
X64379362Y-187160883D01*
X63762427Y-186237573D01*
X62839117Y-185620638D01*
X61750000Y-185403999D01*
X60660883Y-185620638D01*
X59737573Y-186237573D01*
X59120638Y-187160883D01*
X58903999Y-188250000D01*
X46789020Y-188250000D01*
X46952403Y-186126027D01*
X47421307Y-184484864D01*
X48628922Y-181586588D01*
X49953313Y-179600000D01*
X51441472Y-179600000D01*
X51560108Y-180196423D01*
X51897954Y-180702046D01*
X52403577Y-181039892D01*
X53000000Y-181158528D01*
X53596423Y-181039892D01*
X54102046Y-180702046D01*
X54439892Y-180196423D01*
X54558528Y-179600000D01*
X54439892Y-179003577D01*
X54102046Y-178497954D01*
X53596423Y-178160108D01*
X53000000Y-178041472D01*
X52403577Y-178160108D01*
X51897954Y-178497954D01*
X51560108Y-179003577D01*
X51441472Y-179600000D01*
X49953313Y-179600000D01*
X50063410Y-179434855D01*
X51998648Y-177257712D01*
X53694501Y-175804124D01*
X54666688Y-175074984D01*
X57114308Y-173361650D01*
X58982479Y-172427565D01*
X60139243Y-172196212D01*
X60139244Y-172196212D01*
X62639243Y-171696212D01*
X62655076Y-171689634D01*
X62672200Y-171688801D01*
X64672200Y-171188801D01*
X64742517Y-171155583D01*
X64817522Y-171135043D01*
X66317522Y-170385043D01*
X66352689Y-170357749D01*
X66393837Y-170340756D01*
X67893837Y-169340756D01*
X67915884Y-169318755D01*
X67943533Y-169304417D01*
X68359575Y-168971583D01*
X61059049Y-176272110D01*
X60800955Y-176014016D01*
X60603252Y-175878931D01*
X60352090Y-175824447D01*
X60099519Y-175871971D01*
X59885337Y-176014016D01*
X57764016Y-178135337D01*
X57628931Y-178333040D01*
X57574447Y-178584202D01*
X57621971Y-178836773D01*
X57764016Y-179050955D01*
X60592443Y-181879382D01*
X60790146Y-182014467D01*
X61041308Y-182068951D01*
X61293879Y-182021427D01*
X61508061Y-181879382D01*
X63629382Y-179758061D01*
X63764467Y-179560358D01*
X63818951Y-179309196D01*
X63771427Y-179056625D01*
X63629382Y-178842443D01*
X63371288Y-178584349D01*
X85224230Y-156731407D01*
X85224233Y-156731405D01*
X85578656Y-156200972D01*
X85604905Y-156069011D01*
X85703114Y-155575285D01*
X85703113Y-155575280D01*
X85703113Y-148069397D01*
X85768130Y-148004380D01*
X85796070Y-148144845D01*
X85796070Y-148144845D01*
G37*
X85796070Y-148144845D02*
X85801363Y-148152767D01*
X85801363Y-163222167D01*
X72116993Y-176906537D01*
X71762570Y-177436969D01*
X71638112Y-178062657D01*
X71638113Y-178062662D01*
X71638113Y-181004918D01*
X70147181Y-182495849D01*
X69792758Y-183026281D01*
X69668300Y-183651969D01*
X69668301Y-183651974D01*
X69668301Y-187444256D01*
X68370618Y-188741939D01*
X68235533Y-188939642D01*
X68181049Y-189190804D01*
X68228573Y-189443375D01*
X68370618Y-189657557D01*
X71199045Y-192485984D01*
X71396748Y-192621069D01*
X71647910Y-192675553D01*
X71900481Y-192628029D01*
X72114663Y-192485984D01*
X73754555Y-190846092D01*
X73799660Y-191116723D01*
X74031598Y-192508354D01*
X73803995Y-194101579D01*
X73347766Y-195698380D01*
X72457580Y-197033658D01*
X72450706Y-196999098D01*
X72110322Y-196489678D01*
X71600902Y-196149294D01*
X71000000Y-196029767D01*
X70399098Y-196149294D01*
X69889678Y-196489678D01*
X69549294Y-196999098D01*
X69429767Y-197600000D01*
X69549294Y-198200902D01*
X69889678Y-198710322D01*
X70399098Y-199050706D01*
X70595867Y-199089846D01*
X69328452Y-200176201D01*
X67445336Y-201353149D01*
X65317411Y-202062458D01*
X64179698Y-202290000D01*
X63544200Y-202290000D01*
X61609557Y-202048170D01*
X57651661Y-201306064D01*
X53791511Y-200341027D01*
X52419471Y-199426333D01*
X51279611Y-198514445D01*
X50840756Y-197856163D01*
X50791101Y-197806404D01*
X50752046Y-197747954D01*
X50252046Y-197247954D01*
X50230831Y-197233779D01*
X50215192Y-197213628D01*
X50116333Y-197157274D01*
X50021705Y-197094046D01*
X49996684Y-197089069D01*
X49974521Y-197076435D01*
X49314725Y-196856503D01*
X48800721Y-196513833D01*
X48043805Y-195000000D01*
X52274436Y-195000000D01*
X52481907Y-196043028D01*
X53072735Y-196927265D01*
X53956972Y-197518093D01*
X55000000Y-197725564D01*
X56043028Y-197518093D01*
X56927265Y-196927265D01*
X57518093Y-196043028D01*
X57725564Y-195000000D01*
X57518093Y-193956972D01*
X56927265Y-193072735D01*
X56043028Y-192481907D01*
X55000000Y-192274436D01*
X53956972Y-192481907D01*
X53072735Y-193072735D01*
X52481907Y-193956972D01*
X52274436Y-195000000D01*
X48043805Y-195000000D01*
X47661322Y-194235036D01*
X46710000Y-191143239D01*
X46710000Y-189277272D01*
X46789020Y-188250000D01*
X58903999Y-188250000D01*
X59120638Y-189339117D01*
X59737573Y-190262427D01*
X60660883Y-190879362D01*
X61750000Y-191096001D01*
X62839117Y-190879362D01*
X63762427Y-190262427D01*
X64379362Y-189339117D01*
X64596001Y-188250000D01*
X64379362Y-187160883D01*
X63762427Y-186237573D01*
X62839117Y-185620638D01*
X61750000Y-185403999D01*
X60660883Y-185620638D01*
X59737573Y-186237573D01*
X59120638Y-187160883D01*
X58903999Y-188250000D01*
X46789020Y-188250000D01*
X46952403Y-186126027D01*
X47421307Y-184484864D01*
X48628922Y-181586588D01*
X49953313Y-179600000D01*
X51441472Y-179600000D01*
X51560108Y-180196423D01*
X51897954Y-180702046D01*
X52403577Y-181039892D01*
X53000000Y-181158528D01*
X53596423Y-181039892D01*
X54102046Y-180702046D01*
X54439892Y-180196423D01*
X54558528Y-179600000D01*
X54439892Y-179003577D01*
X54102046Y-178497954D01*
X53596423Y-178160108D01*
X53000000Y-178041472D01*
X52403577Y-178160108D01*
X51897954Y-178497954D01*
X51560108Y-179003577D01*
X51441472Y-179600000D01*
X49953313Y-179600000D01*
X50063410Y-179434855D01*
X51998648Y-177257712D01*
X53694501Y-175804124D01*
X54666688Y-175074984D01*
X57114308Y-173361650D01*
X58982479Y-172427565D01*
X60139243Y-172196212D01*
X60139244Y-172196212D01*
X62639243Y-171696212D01*
X62655076Y-171689634D01*
X62672200Y-171688801D01*
X64672200Y-171188801D01*
X64742517Y-171155583D01*
X64817522Y-171135043D01*
X66317522Y-170385043D01*
X66352689Y-170357749D01*
X66393837Y-170340756D01*
X67893837Y-169340756D01*
X67915884Y-169318755D01*
X67943533Y-169304417D01*
X68359575Y-168971583D01*
X61059049Y-176272110D01*
X60800955Y-176014016D01*
X60603252Y-175878931D01*
X60352090Y-175824447D01*
X60099519Y-175871971D01*
X59885337Y-176014016D01*
X57764016Y-178135337D01*
X57628931Y-178333040D01*
X57574447Y-178584202D01*
X57621971Y-178836773D01*
X57764016Y-179050955D01*
X60592443Y-181879382D01*
X60790146Y-182014467D01*
X61041308Y-182068951D01*
X61293879Y-182021427D01*
X61508061Y-181879382D01*
X63629382Y-179758061D01*
X63764467Y-179560358D01*
X63818951Y-179309196D01*
X63771427Y-179056625D01*
X63629382Y-178842443D01*
X63371288Y-178584349D01*
X85224230Y-156731407D01*
X85224233Y-156731405D01*
X85578656Y-156200972D01*
X85604905Y-156069011D01*
X85703114Y-155575285D01*
X85703113Y-155575280D01*
X85703113Y-148069397D01*
X85768130Y-148004380D01*
X85796070Y-148144845D01*
G36*
X93974946Y-104177147D02*
X94456715Y-104499054D01*
X94798999Y-104567139D01*
X89036547Y-110329591D01*
X88790510Y-110697812D01*
X88704113Y-111132157D01*
X88790510Y-111566502D01*
X89036547Y-111934723D01*
X89404768Y-112180760D01*
X89839113Y-112267157D01*
X90273458Y-112180760D01*
X90641679Y-111934723D01*
X98051113Y-104525289D01*
X98051113Y-114791535D01*
X94567698Y-118452043D01*
X94407748Y-118704767D01*
X94241570Y-118953470D01*
X94237549Y-118973682D01*
X94226529Y-118991095D01*
X94175466Y-119285796D01*
X94117113Y-119579157D01*
X94117113Y-131136152D01*
X94117112Y-131136157D01*
X94241570Y-131761845D01*
X94595993Y-132292277D01*
X105610613Y-143306896D01*
X105610613Y-163711652D01*
X105610612Y-163711657D01*
X105735070Y-164337345D01*
X106089493Y-164867777D01*
X109645491Y-168423774D01*
X109645493Y-168423777D01*
X110175926Y-168778200D01*
X110801613Y-168902657D01*
X120959937Y-168902657D01*
X120912535Y-168949977D01*
X120808468Y-169019512D01*
X119718113Y-170109867D01*
X119658113Y-170097717D01*
X118958113Y-170097717D01*
X118722796Y-170141995D01*
X118506672Y-170281067D01*
X118361682Y-170493267D01*
X118359032Y-170506354D01*
X118222203Y-170293716D01*
X118010003Y-170148726D01*
X117758113Y-170097717D01*
X117412533Y-170097717D01*
X117170765Y-169936173D01*
X116812956Y-169865000D01*
X115100816Y-169865000D01*
X114914833Y-169864838D01*
X114914441Y-169865000D01*
X113489770Y-169865000D01*
X113131961Y-169936173D01*
X112828625Y-170138855D01*
X112298263Y-170669217D01*
X111973113Y-170669217D01*
X111737796Y-170713495D01*
X111521672Y-170852567D01*
X111376682Y-171064767D01*
X111374032Y-171077854D01*
X111237203Y-170865216D01*
X111025003Y-170720226D01*
X110773113Y-170669217D01*
X110073113Y-170669217D01*
X109837796Y-170713495D01*
X109775726Y-170753436D01*
X108761436Y-169739146D01*
X108630327Y-169607808D01*
X108286799Y-169465162D01*
X107914833Y-169464838D01*
X107914441Y-169465000D01*
X107796053Y-169465000D01*
X107796053Y-169284657D01*
X107751775Y-169049340D01*
X107612703Y-168833216D01*
X107400503Y-168688226D01*
X107148613Y-168637217D01*
X106448613Y-168637217D01*
X106213296Y-168681495D01*
X105997172Y-168820567D01*
X105852182Y-169032767D01*
X105845422Y-169066147D01*
X105786940Y-168924958D01*
X105608311Y-168746330D01*
X105374922Y-168649657D01*
X105184363Y-168649657D01*
X105025613Y-168808407D01*
X105025613Y-169807657D01*
X105045613Y-169807657D01*
X105045613Y-170061657D01*
X105025613Y-170061657D01*
X105025613Y-170081657D01*
X104771613Y-170081657D01*
X104771613Y-170061657D01*
X104751613Y-170061657D01*
X104751613Y-169807657D01*
X104771613Y-169807657D01*
X104771613Y-168808407D01*
X104612863Y-168649657D01*
X104422304Y-168649657D01*
X104188915Y-168746330D01*
X104010286Y-168924958D01*
X103960000Y-169046359D01*
X103960000Y-168250000D01*
X103905954Y-167978295D01*
X103752046Y-167747954D01*
X102833516Y-166829424D01*
X102407609Y-165977610D01*
X101960000Y-164634783D01*
X101960000Y-162320302D01*
X102446212Y-159889242D01*
X102446286Y-159818946D01*
X102460000Y-159750000D01*
X102446429Y-159681776D01*
X102446502Y-159612214D01*
X102419668Y-159547238D01*
X102405954Y-159478295D01*
X102367310Y-159420460D01*
X102340756Y-159356162D01*
X102291099Y-159306402D01*
X102252046Y-159247954D01*
X101752046Y-158747954D01*
X101709865Y-158719770D01*
X101676000Y-158682000D01*
X100676000Y-157932000D01*
X100630815Y-157910332D01*
X100592481Y-157878063D01*
X100507033Y-157850973D01*
X100426208Y-157812214D01*
X100376176Y-157809487D01*
X100328406Y-157794342D01*
X100239092Y-157802015D01*
X100149591Y-157797136D01*
X100102321Y-157813764D01*
X100052395Y-157818053D01*
X99972816Y-157859320D01*
X99888260Y-157889064D01*
X99850954Y-157922513D01*
X99806466Y-157945583D01*
X98556467Y-158945583D01*
X98552469Y-158950332D01*
X98547007Y-158953285D01*
X89808171Y-166194035D01*
X84569709Y-170185243D01*
X84567323Y-170187946D01*
X84564102Y-170189560D01*
X80064102Y-173689560D01*
X80034970Y-173723221D01*
X79997954Y-173747954D01*
X78747954Y-174997954D01*
X78719770Y-175040135D01*
X78682000Y-175074000D01*
X77932000Y-176074000D01*
X77923360Y-176092018D01*
X77909244Y-176106163D01*
X76409244Y-178356163D01*
X76392251Y-178397311D01*
X76364957Y-178432478D01*
X75364957Y-180432478D01*
X75357070Y-180461280D01*
X75340781Y-180486313D01*
X74908113Y-181567984D01*
X74908113Y-178739897D01*
X88462733Y-165185277D01*
X88592480Y-165055529D01*
X88592483Y-165055527D01*
X88837328Y-164689090D01*
X88946906Y-164525095D01*
X89071363Y-163899407D01*
X89071363Y-148066647D01*
X90431230Y-146706779D01*
X90431233Y-146706777D01*
X91285230Y-145852779D01*
X91285233Y-145852777D01*
X91639656Y-145322345D01*
X91764114Y-144696657D01*
X91639656Y-144070969D01*
X91464113Y-143808250D01*
X91464113Y-140332157D01*
X91339656Y-139706470D01*
X90985233Y-139176037D01*
X90454800Y-138821614D01*
X89829113Y-138697157D01*
X89203426Y-138821614D01*
X88672993Y-139176037D01*
X88318570Y-139706470D01*
X88194113Y-140332157D01*
X88194113Y-144319417D01*
X88118993Y-144394537D01*
X88118991Y-144394540D01*
X88116113Y-144397418D01*
X88116113Y-109905897D01*
X91101120Y-106920890D01*
X91455543Y-106390458D01*
X91580001Y-105764770D01*
X91580000Y-105764765D01*
X91580000Y-104274069D01*
X91916715Y-104499054D01*
X92485000Y-104612093D01*
X93053285Y-104499054D01*
X93535054Y-104177147D01*
X93755000Y-103847974D01*
X93974946Y-104177147D01*
X93974946Y-104177147D01*
G37*
X93974946Y-104177147D02*
X94456715Y-104499054D01*
X94798999Y-104567139D01*
X89036547Y-110329591D01*
X88790510Y-110697812D01*
X88704113Y-111132157D01*
X88790510Y-111566502D01*
X89036547Y-111934723D01*
X89404768Y-112180760D01*
X89839113Y-112267157D01*
X90273458Y-112180760D01*
X90641679Y-111934723D01*
X98051113Y-104525289D01*
X98051113Y-114791535D01*
X94567698Y-118452043D01*
X94407748Y-118704767D01*
X94241570Y-118953470D01*
X94237549Y-118973682D01*
X94226529Y-118991095D01*
X94175466Y-119285796D01*
X94117113Y-119579157D01*
X94117113Y-131136152D01*
X94117112Y-131136157D01*
X94241570Y-131761845D01*
X94595993Y-132292277D01*
X105610613Y-143306896D01*
X105610613Y-163711652D01*
X105610612Y-163711657D01*
X105735070Y-164337345D01*
X106089493Y-164867777D01*
X109645491Y-168423774D01*
X109645493Y-168423777D01*
X110175926Y-168778200D01*
X110801613Y-168902657D01*
X120959937Y-168902657D01*
X120912535Y-168949977D01*
X120808468Y-169019512D01*
X119718113Y-170109867D01*
X119658113Y-170097717D01*
X118958113Y-170097717D01*
X118722796Y-170141995D01*
X118506672Y-170281067D01*
X118361682Y-170493267D01*
X118359032Y-170506354D01*
X118222203Y-170293716D01*
X118010003Y-170148726D01*
X117758113Y-170097717D01*
X117412533Y-170097717D01*
X117170765Y-169936173D01*
X116812956Y-169865000D01*
X115100816Y-169865000D01*
X114914833Y-169864838D01*
X114914441Y-169865000D01*
X113489770Y-169865000D01*
X113131961Y-169936173D01*
X112828625Y-170138855D01*
X112298263Y-170669217D01*
X111973113Y-170669217D01*
X111737796Y-170713495D01*
X111521672Y-170852567D01*
X111376682Y-171064767D01*
X111374032Y-171077854D01*
X111237203Y-170865216D01*
X111025003Y-170720226D01*
X110773113Y-170669217D01*
X110073113Y-170669217D01*
X109837796Y-170713495D01*
X109775726Y-170753436D01*
X108761436Y-169739146D01*
X108630327Y-169607808D01*
X108286799Y-169465162D01*
X107914833Y-169464838D01*
X107914441Y-169465000D01*
X107796053Y-169465000D01*
X107796053Y-169284657D01*
X107751775Y-169049340D01*
X107612703Y-168833216D01*
X107400503Y-168688226D01*
X107148613Y-168637217D01*
X106448613Y-168637217D01*
X106213296Y-168681495D01*
X105997172Y-168820567D01*
X105852182Y-169032767D01*
X105845422Y-169066147D01*
X105786940Y-168924958D01*
X105608311Y-168746330D01*
X105374922Y-168649657D01*
X105184363Y-168649657D01*
X105025613Y-168808407D01*
X105025613Y-169807657D01*
X105045613Y-169807657D01*
X105045613Y-170061657D01*
X105025613Y-170061657D01*
X105025613Y-170081657D01*
X104771613Y-170081657D01*
X104771613Y-170061657D01*
X104751613Y-170061657D01*
X104751613Y-169807657D01*
X104771613Y-169807657D01*
X104771613Y-168808407D01*
X104612863Y-168649657D01*
X104422304Y-168649657D01*
X104188915Y-168746330D01*
X104010286Y-168924958D01*
X103960000Y-169046359D01*
X103960000Y-168250000D01*
X103905954Y-167978295D01*
X103752046Y-167747954D01*
X102833516Y-166829424D01*
X102407609Y-165977610D01*
X101960000Y-164634783D01*
X101960000Y-162320302D01*
X102446212Y-159889242D01*
X102446286Y-159818946D01*
X102460000Y-159750000D01*
X102446429Y-159681776D01*
X102446502Y-159612214D01*
X102419668Y-159547238D01*
X102405954Y-159478295D01*
X102367310Y-159420460D01*
X102340756Y-159356162D01*
X102291099Y-159306402D01*
X102252046Y-159247954D01*
X101752046Y-158747954D01*
X101709865Y-158719770D01*
X101676000Y-158682000D01*
X100676000Y-157932000D01*
X100630815Y-157910332D01*
X100592481Y-157878063D01*
X100507033Y-157850973D01*
X100426208Y-157812214D01*
X100376176Y-157809487D01*
X100328406Y-157794342D01*
X100239092Y-157802015D01*
X100149591Y-157797136D01*
X100102321Y-157813764D01*
X100052395Y-157818053D01*
X99972816Y-157859320D01*
X99888260Y-157889064D01*
X99850954Y-157922513D01*
X99806466Y-157945583D01*
X98556467Y-158945583D01*
X98552469Y-158950332D01*
X98547007Y-158953285D01*
X89808171Y-166194035D01*
X84569709Y-170185243D01*
X84567323Y-170187946D01*
X84564102Y-170189560D01*
X80064102Y-173689560D01*
X80034970Y-173723221D01*
X79997954Y-173747954D01*
X78747954Y-174997954D01*
X78719770Y-175040135D01*
X78682000Y-175074000D01*
X77932000Y-176074000D01*
X77923360Y-176092018D01*
X77909244Y-176106163D01*
X76409244Y-178356163D01*
X76392251Y-178397311D01*
X76364957Y-178432478D01*
X75364957Y-180432478D01*
X75357070Y-180461280D01*
X75340781Y-180486313D01*
X74908113Y-181567984D01*
X74908113Y-178739897D01*
X88462733Y-165185277D01*
X88592480Y-165055529D01*
X88592483Y-165055527D01*
X88837328Y-164689090D01*
X88946906Y-164525095D01*
X89071363Y-163899407D01*
X89071363Y-148066647D01*
X90431230Y-146706779D01*
X90431233Y-146706777D01*
X91285230Y-145852779D01*
X91285233Y-145852777D01*
X91639656Y-145322345D01*
X91764114Y-144696657D01*
X91639656Y-144070969D01*
X91464113Y-143808250D01*
X91464113Y-140332157D01*
X91339656Y-139706470D01*
X90985233Y-139176037D01*
X90454800Y-138821614D01*
X89829113Y-138697157D01*
X89203426Y-138821614D01*
X88672993Y-139176037D01*
X88318570Y-139706470D01*
X88194113Y-140332157D01*
X88194113Y-144319417D01*
X88118993Y-144394537D01*
X88118991Y-144394540D01*
X88116113Y-144397418D01*
X88116113Y-109905897D01*
X91101120Y-106920890D01*
X91455543Y-106390458D01*
X91580001Y-105764770D01*
X91580000Y-105764765D01*
X91580000Y-104274069D01*
X91916715Y-104499054D01*
X92485000Y-104612093D01*
X93053285Y-104499054D01*
X93535054Y-104177147D01*
X93755000Y-103847974D01*
X93974946Y-104177147D01*
G36*
X138311340Y-155866070D02*
X138205000Y-156400679D01*
X138205000Y-157491321D01*
X138311340Y-158025930D01*
X138614172Y-158479149D01*
X139067391Y-158781981D01*
X139095572Y-158787587D01*
X139301594Y-158925245D01*
X139602000Y-158985000D01*
X139902406Y-158925245D01*
X140108428Y-158787587D01*
X140136609Y-158781981D01*
X140589828Y-158479149D01*
X140872000Y-158056850D01*
X141154172Y-158479149D01*
X141607391Y-158781981D01*
X141823970Y-158825061D01*
X135016373Y-165632657D01*
X123131762Y-165632657D01*
X123239407Y-165611245D01*
X123494079Y-165441079D01*
X124062718Y-164872440D01*
X124600000Y-164872440D01*
X124835317Y-164828162D01*
X125051441Y-164689090D01*
X125196431Y-164476890D01*
X125231322Y-164304591D01*
X125455083Y-164155079D01*
X125575009Y-164035153D01*
X125585171Y-164035162D01*
X125928947Y-163893117D01*
X126192196Y-163630327D01*
X126334842Y-163286799D01*
X126335166Y-162914833D01*
X126193121Y-162571057D01*
X125930331Y-162307808D01*
X125586803Y-162165162D01*
X125214837Y-162164838D01*
X124871061Y-162306883D01*
X124808127Y-162369707D01*
X124600000Y-162327560D01*
X124537600Y-162327560D01*
X124917079Y-161948081D01*
X125087245Y-161693409D01*
X125147000Y-161393002D01*
X125147000Y-158614675D01*
X125349828Y-158479149D01*
X125641330Y-158042887D01*
X125659941Y-158105941D01*
X126003974Y-158531630D01*
X126484723Y-158793260D01*
X126558930Y-158808220D01*
X126775000Y-158685720D01*
X126775000Y-157073000D01*
X126755000Y-157073000D01*
X126755000Y-156819000D01*
X126775000Y-156819000D01*
X126775000Y-156799000D01*
X127029000Y-156799000D01*
X127029000Y-156819000D01*
X127049000Y-156819000D01*
X127049000Y-157073000D01*
X127029000Y-157073000D01*
X127029000Y-158685720D01*
X127245070Y-158808220D01*
X127319277Y-158793260D01*
X127800026Y-158531630D01*
X128144059Y-158105941D01*
X128162670Y-158042887D01*
X128454172Y-158479149D01*
X128907391Y-158781981D01*
X129442000Y-158888321D01*
X129976609Y-158781981D01*
X130429828Y-158479149D01*
X130712000Y-158056850D01*
X130994172Y-158479149D01*
X131447391Y-158781981D01*
X131982000Y-158888321D01*
X132516609Y-158781981D01*
X132969828Y-158479149D01*
X133252000Y-158056850D01*
X133534172Y-158479149D01*
X133987391Y-158781981D01*
X134522000Y-158888321D01*
X135056609Y-158781981D01*
X135509828Y-158479149D01*
X135812660Y-158025930D01*
X135919000Y-157491321D01*
X135919000Y-156400679D01*
X135812660Y-155866070D01*
X135665050Y-155645157D01*
X138458950Y-155645157D01*
X138311340Y-155866070D01*
X138311340Y-155866070D01*
G37*
X138311340Y-155866070D02*
X138205000Y-156400679D01*
X138205000Y-157491321D01*
X138311340Y-158025930D01*
X138614172Y-158479149D01*
X139067391Y-158781981D01*
X139095572Y-158787587D01*
X139301594Y-158925245D01*
X139602000Y-158985000D01*
X139902406Y-158925245D01*
X140108428Y-158787587D01*
X140136609Y-158781981D01*
X140589828Y-158479149D01*
X140872000Y-158056850D01*
X141154172Y-158479149D01*
X141607391Y-158781981D01*
X141823970Y-158825061D01*
X135016373Y-165632657D01*
X123131762Y-165632657D01*
X123239407Y-165611245D01*
X123494079Y-165441079D01*
X124062718Y-164872440D01*
X124600000Y-164872440D01*
X124835317Y-164828162D01*
X125051441Y-164689090D01*
X125196431Y-164476890D01*
X125231322Y-164304591D01*
X125455083Y-164155079D01*
X125575009Y-164035153D01*
X125585171Y-164035162D01*
X125928947Y-163893117D01*
X126192196Y-163630327D01*
X126334842Y-163286799D01*
X126335166Y-162914833D01*
X126193121Y-162571057D01*
X125930331Y-162307808D01*
X125586803Y-162165162D01*
X125214837Y-162164838D01*
X124871061Y-162306883D01*
X124808127Y-162369707D01*
X124600000Y-162327560D01*
X124537600Y-162327560D01*
X124917079Y-161948081D01*
X125087245Y-161693409D01*
X125147000Y-161393002D01*
X125147000Y-158614675D01*
X125349828Y-158479149D01*
X125641330Y-158042887D01*
X125659941Y-158105941D01*
X126003974Y-158531630D01*
X126484723Y-158793260D01*
X126558930Y-158808220D01*
X126775000Y-158685720D01*
X126775000Y-157073000D01*
X126755000Y-157073000D01*
X126755000Y-156819000D01*
X126775000Y-156819000D01*
X126775000Y-156799000D01*
X127029000Y-156799000D01*
X127029000Y-156819000D01*
X127049000Y-156819000D01*
X127049000Y-157073000D01*
X127029000Y-157073000D01*
X127029000Y-158685720D01*
X127245070Y-158808220D01*
X127319277Y-158793260D01*
X127800026Y-158531630D01*
X128144059Y-158105941D01*
X128162670Y-158042887D01*
X128454172Y-158479149D01*
X128907391Y-158781981D01*
X129442000Y-158888321D01*
X129976609Y-158781981D01*
X130429828Y-158479149D01*
X130712000Y-158056850D01*
X130994172Y-158479149D01*
X131447391Y-158781981D01*
X131982000Y-158888321D01*
X132516609Y-158781981D01*
X132969828Y-158479149D01*
X133252000Y-158056850D01*
X133534172Y-158479149D01*
X133987391Y-158781981D01*
X134522000Y-158888321D01*
X135056609Y-158781981D01*
X135509828Y-158479149D01*
X135812660Y-158025930D01*
X135919000Y-157491321D01*
X135919000Y-156400679D01*
X135812660Y-155866070D01*
X135665050Y-155645157D01*
X138458950Y-155645157D01*
X138311340Y-155866070D01*
G36*
X118166152Y-154878998D02*
X118412713Y-155043745D01*
X118703553Y-155101597D01*
X118859473Y-155101597D01*
X118383974Y-155360370D01*
X118039941Y-155786059D01*
X118021330Y-155849113D01*
X117729828Y-155412851D01*
X117276609Y-155110019D01*
X116742000Y-155003679D01*
X116207391Y-155110019D01*
X115754172Y-155412851D01*
X115451340Y-155866070D01*
X115345000Y-156400679D01*
X115345000Y-157491321D01*
X115451340Y-158025930D01*
X115754172Y-158479149D01*
X116207391Y-158781981D01*
X116742000Y-158888321D01*
X117276609Y-158781981D01*
X117729828Y-158479149D01*
X118021330Y-158042887D01*
X118039941Y-158105941D01*
X118383974Y-158531630D01*
X118864723Y-158793260D01*
X118938930Y-158808220D01*
X119155000Y-158685720D01*
X119155000Y-157073000D01*
X119135000Y-157073000D01*
X119135000Y-156819000D01*
X119155000Y-156819000D01*
X119155000Y-156799000D01*
X119409000Y-156799000D01*
X119409000Y-156819000D01*
X119429000Y-156819000D01*
X119429000Y-157073000D01*
X119409000Y-157073000D01*
X119409000Y-158685720D01*
X119625070Y-158808220D01*
X119699277Y-158793260D01*
X120180026Y-158531630D01*
X120524059Y-158105941D01*
X120542670Y-158042887D01*
X120834172Y-158479149D01*
X121241041Y-158751011D01*
X121215301Y-158761673D01*
X121036673Y-158940302D01*
X120940000Y-159173691D01*
X120940000Y-159514250D01*
X121098748Y-159672998D01*
X120952228Y-159672998D01*
X120858327Y-159446302D01*
X120679699Y-159267673D01*
X120446310Y-159171000D01*
X119589750Y-159171000D01*
X119431000Y-159329750D01*
X119431000Y-160187000D01*
X119451000Y-160187000D01*
X119451000Y-160441000D01*
X119431000Y-160441000D01*
X119431000Y-160461000D01*
X119177000Y-160461000D01*
X119177000Y-160441000D01*
X117811750Y-160441000D01*
X117653000Y-160599750D01*
X117653000Y-160948309D01*
X117749673Y-161181698D01*
X117928301Y-161360327D01*
X118161690Y-161457000D01*
X118221887Y-161457000D01*
X118052683Y-161488838D01*
X117836559Y-161627910D01*
X117708726Y-161815000D01*
X114363440Y-161815000D01*
X114363440Y-160771200D01*
X114319162Y-160535883D01*
X114180090Y-160319759D01*
X113967890Y-160174769D01*
X113835000Y-160147858D01*
X113835000Y-159679691D01*
X117653000Y-159679691D01*
X117653000Y-160028250D01*
X117811750Y-160187000D01*
X119177000Y-160187000D01*
X119177000Y-159329750D01*
X119018250Y-159171000D01*
X118161690Y-159171000D01*
X117928301Y-159267673D01*
X117749673Y-159446302D01*
X117653000Y-159679691D01*
X113835000Y-159679691D01*
X113835000Y-150547846D01*
X118166152Y-154878998D01*
X118166152Y-154878998D01*
G37*
X118166152Y-154878998D02*
X118412713Y-155043745D01*
X118703553Y-155101597D01*
X118859473Y-155101597D01*
X118383974Y-155360370D01*
X118039941Y-155786059D01*
X118021330Y-155849113D01*
X117729828Y-155412851D01*
X117276609Y-155110019D01*
X116742000Y-155003679D01*
X116207391Y-155110019D01*
X115754172Y-155412851D01*
X115451340Y-155866070D01*
X115345000Y-156400679D01*
X115345000Y-157491321D01*
X115451340Y-158025930D01*
X115754172Y-158479149D01*
X116207391Y-158781981D01*
X116742000Y-158888321D01*
X117276609Y-158781981D01*
X117729828Y-158479149D01*
X118021330Y-158042887D01*
X118039941Y-158105941D01*
X118383974Y-158531630D01*
X118864723Y-158793260D01*
X118938930Y-158808220D01*
X119155000Y-158685720D01*
X119155000Y-157073000D01*
X119135000Y-157073000D01*
X119135000Y-156819000D01*
X119155000Y-156819000D01*
X119155000Y-156799000D01*
X119409000Y-156799000D01*
X119409000Y-156819000D01*
X119429000Y-156819000D01*
X119429000Y-157073000D01*
X119409000Y-157073000D01*
X119409000Y-158685720D01*
X119625070Y-158808220D01*
X119699277Y-158793260D01*
X120180026Y-158531630D01*
X120524059Y-158105941D01*
X120542670Y-158042887D01*
X120834172Y-158479149D01*
X121241041Y-158751011D01*
X121215301Y-158761673D01*
X121036673Y-158940302D01*
X120940000Y-159173691D01*
X120940000Y-159514250D01*
X121098748Y-159672998D01*
X120952228Y-159672998D01*
X120858327Y-159446302D01*
X120679699Y-159267673D01*
X120446310Y-159171000D01*
X119589750Y-159171000D01*
X119431000Y-159329750D01*
X119431000Y-160187000D01*
X119451000Y-160187000D01*
X119451000Y-160441000D01*
X119431000Y-160441000D01*
X119431000Y-160461000D01*
X119177000Y-160461000D01*
X119177000Y-160441000D01*
X117811750Y-160441000D01*
X117653000Y-160599750D01*
X117653000Y-160948309D01*
X117749673Y-161181698D01*
X117928301Y-161360327D01*
X118161690Y-161457000D01*
X118221887Y-161457000D01*
X118052683Y-161488838D01*
X117836559Y-161627910D01*
X117708726Y-161815000D01*
X114363440Y-161815000D01*
X114363440Y-160771200D01*
X114319162Y-160535883D01*
X114180090Y-160319759D01*
X113967890Y-160174769D01*
X113835000Y-160147858D01*
X113835000Y-159679691D01*
X117653000Y-159679691D01*
X117653000Y-160028250D01*
X117811750Y-160187000D01*
X119177000Y-160187000D01*
X119177000Y-159329750D01*
X119018250Y-159171000D01*
X118161690Y-159171000D01*
X117928301Y-159267673D01*
X117749673Y-159446302D01*
X117653000Y-159679691D01*
X113835000Y-159679691D01*
X113835000Y-150547846D01*
X118166152Y-154878998D01*
G36*
X123374172Y-158479149D02*
X123577000Y-158614675D01*
X123577000Y-161067844D01*
X123452233Y-161192611D01*
X123428162Y-161064683D01*
X123289090Y-160848559D01*
X123220994Y-160802031D01*
X123363327Y-160659698D01*
X123460000Y-160426309D01*
X123460000Y-160085750D01*
X123301250Y-159927000D01*
X122327000Y-159927000D01*
X122327000Y-159947000D01*
X122073000Y-159947000D01*
X122073000Y-159927000D01*
X122053000Y-159927000D01*
X122053000Y-159673000D01*
X122073000Y-159673000D01*
X122073000Y-159653000D01*
X122327000Y-159653000D01*
X122327000Y-159673000D01*
X123301250Y-159673000D01*
X123460000Y-159514250D01*
X123460000Y-159173691D01*
X123363327Y-158940302D01*
X123184699Y-158761673D01*
X122951310Y-158665000D01*
X122531683Y-158665000D01*
X122809828Y-158479149D01*
X123092000Y-158056850D01*
X123374172Y-158479149D01*
X123374172Y-158479149D01*
G37*
X123374172Y-158479149D02*
X123577000Y-158614675D01*
X123577000Y-161067844D01*
X123452233Y-161192611D01*
X123428162Y-161064683D01*
X123289090Y-160848559D01*
X123220994Y-160802031D01*
X123363327Y-160659698D01*
X123460000Y-160426309D01*
X123460000Y-160085750D01*
X123301250Y-159927000D01*
X122327000Y-159927000D01*
X122327000Y-159947000D01*
X122073000Y-159947000D01*
X122073000Y-159927000D01*
X122053000Y-159927000D01*
X122053000Y-159673000D01*
X122073000Y-159673000D01*
X122073000Y-159653000D01*
X122327000Y-159653000D01*
X122327000Y-159673000D01*
X123301250Y-159673000D01*
X123460000Y-159514250D01*
X123460000Y-159173691D01*
X123363327Y-158940302D01*
X123184699Y-158761673D01*
X122951310Y-158665000D01*
X122531683Y-158665000D01*
X122809828Y-158479149D01*
X123092000Y-158056850D01*
X123374172Y-158479149D01*
G36*
X158549200Y-142067653D02*
X153744921Y-146871932D01*
X153574755Y-147126604D01*
X153535110Y-147325914D01*
X152785233Y-146576037D01*
X152254801Y-146221614D01*
X151629113Y-146097156D01*
X151629108Y-146097157D01*
X149829113Y-146097157D01*
X149326380Y-146197157D01*
X148029113Y-146197157D01*
X147403426Y-146321614D01*
X146979703Y-146604736D01*
X134189632Y-133814666D01*
X136888328Y-135617876D01*
X141100000Y-136455630D01*
X145311672Y-135617876D01*
X148882156Y-133232156D01*
X151153488Y-129832865D01*
X151509630Y-130189629D01*
X151717512Y-130275949D01*
X151511697Y-130360990D01*
X151118371Y-130753630D01*
X150905243Y-131266900D01*
X150904758Y-131822661D01*
X151116990Y-132336303D01*
X151509630Y-132729629D01*
X151717512Y-132815949D01*
X151511697Y-132900990D01*
X151118371Y-133293630D01*
X150905243Y-133806900D01*
X150904758Y-134362661D01*
X151116990Y-134876303D01*
X151509630Y-135269629D01*
X151542000Y-135283070D01*
X151542000Y-139644562D01*
X151296210Y-139746120D01*
X151032961Y-140008910D01*
X150890315Y-140352438D01*
X150889991Y-140724404D01*
X151032036Y-141068180D01*
X151294826Y-141331429D01*
X151638354Y-141474075D01*
X152010320Y-141474399D01*
X152354096Y-141332354D01*
X152617345Y-141069564D01*
X152759991Y-140726036D01*
X152760032Y-140679161D01*
X152839401Y-140599792D01*
X152977015Y-140393837D01*
X153004148Y-140353229D01*
X153062000Y-140062390D01*
X153062000Y-135283531D01*
X153092303Y-135271010D01*
X153485629Y-134878370D01*
X153571949Y-134670488D01*
X153656990Y-134876303D01*
X154049630Y-135269629D01*
X154562900Y-135482757D01*
X155118661Y-135483242D01*
X155632303Y-135271010D01*
X156025629Y-134878370D01*
X156238757Y-134365100D01*
X156239242Y-133809339D01*
X156027010Y-133295697D01*
X155634370Y-132902371D01*
X155426488Y-132816051D01*
X155632303Y-132731010D01*
X156025629Y-132338370D01*
X156238757Y-131825100D01*
X156239242Y-131269339D01*
X156027010Y-130755697D01*
X155634370Y-130362371D01*
X155442273Y-130282605D01*
X155573143Y-130228397D01*
X155642608Y-129986213D01*
X154842000Y-129185605D01*
X154041392Y-129986213D01*
X154110857Y-130228397D01*
X154251318Y-130278509D01*
X154051697Y-130360990D01*
X153658371Y-130753630D01*
X153572051Y-130961512D01*
X153487010Y-130755697D01*
X153094370Y-130362371D01*
X152886488Y-130276051D01*
X153092303Y-130191010D01*
X153485629Y-129798370D01*
X153565395Y-129606273D01*
X153619603Y-129737143D01*
X153861787Y-129806608D01*
X154662395Y-129006000D01*
X155021605Y-129006000D01*
X155822213Y-129806608D01*
X156064397Y-129737143D01*
X156251144Y-129213698D01*
X156223362Y-128658632D01*
X156064397Y-128274857D01*
X155822213Y-128205392D01*
X155021605Y-129006000D01*
X154662395Y-129006000D01*
X153861787Y-128205392D01*
X153619603Y-128274857D01*
X153569491Y-128415318D01*
X153487010Y-128215697D01*
X153297432Y-128025787D01*
X154041392Y-128025787D01*
X154842000Y-128826395D01*
X155642608Y-128025787D01*
X155573143Y-127783603D01*
X155049698Y-127596856D01*
X154494632Y-127624638D01*
X154110857Y-127783603D01*
X154041392Y-128025787D01*
X153297432Y-128025787D01*
X153094370Y-127822371D01*
X152581100Y-127609243D01*
X152025339Y-127608758D01*
X151644964Y-127765926D01*
X152105630Y-125450000D01*
X151267876Y-121238328D01*
X151049421Y-120911387D01*
X151204113Y-120942157D01*
X155854113Y-120942157D01*
X156288459Y-120855760D01*
X156656679Y-120609723D01*
X158456265Y-118810137D01*
X158549200Y-118717364D01*
X158549200Y-142067653D01*
X158549200Y-142067653D01*
G37*
X158549200Y-142067653D02*
X153744921Y-146871932D01*
X153574755Y-147126604D01*
X153535110Y-147325914D01*
X152785233Y-146576037D01*
X152254801Y-146221614D01*
X151629113Y-146097156D01*
X151629108Y-146097157D01*
X149829113Y-146097157D01*
X149326380Y-146197157D01*
X148029113Y-146197157D01*
X147403426Y-146321614D01*
X146979703Y-146604736D01*
X134189632Y-133814666D01*
X136888328Y-135617876D01*
X141100000Y-136455630D01*
X145311672Y-135617876D01*
X148882156Y-133232156D01*
X151153488Y-129832865D01*
X151509630Y-130189629D01*
X151717512Y-130275949D01*
X151511697Y-130360990D01*
X151118371Y-130753630D01*
X150905243Y-131266900D01*
X150904758Y-131822661D01*
X151116990Y-132336303D01*
X151509630Y-132729629D01*
X151717512Y-132815949D01*
X151511697Y-132900990D01*
X151118371Y-133293630D01*
X150905243Y-133806900D01*
X150904758Y-134362661D01*
X151116990Y-134876303D01*
X151509630Y-135269629D01*
X151542000Y-135283070D01*
X151542000Y-139644562D01*
X151296210Y-139746120D01*
X151032961Y-140008910D01*
X150890315Y-140352438D01*
X150889991Y-140724404D01*
X151032036Y-141068180D01*
X151294826Y-141331429D01*
X151638354Y-141474075D01*
X152010320Y-141474399D01*
X152354096Y-141332354D01*
X152617345Y-141069564D01*
X152759991Y-140726036D01*
X152760032Y-140679161D01*
X152839401Y-140599792D01*
X152977015Y-140393837D01*
X153004148Y-140353229D01*
X153062000Y-140062390D01*
X153062000Y-135283531D01*
X153092303Y-135271010D01*
X153485629Y-134878370D01*
X153571949Y-134670488D01*
X153656990Y-134876303D01*
X154049630Y-135269629D01*
X154562900Y-135482757D01*
X155118661Y-135483242D01*
X155632303Y-135271010D01*
X156025629Y-134878370D01*
X156238757Y-134365100D01*
X156239242Y-133809339D01*
X156027010Y-133295697D01*
X155634370Y-132902371D01*
X155426488Y-132816051D01*
X155632303Y-132731010D01*
X156025629Y-132338370D01*
X156238757Y-131825100D01*
X156239242Y-131269339D01*
X156027010Y-130755697D01*
X155634370Y-130362371D01*
X155442273Y-130282605D01*
X155573143Y-130228397D01*
X155642608Y-129986213D01*
X154842000Y-129185605D01*
X154041392Y-129986213D01*
X154110857Y-130228397D01*
X154251318Y-130278509D01*
X154051697Y-130360990D01*
X153658371Y-130753630D01*
X153572051Y-130961512D01*
X153487010Y-130755697D01*
X153094370Y-130362371D01*
X152886488Y-130276051D01*
X153092303Y-130191010D01*
X153485629Y-129798370D01*
X153565395Y-129606273D01*
X153619603Y-129737143D01*
X153861787Y-129806608D01*
X154662395Y-129006000D01*
X155021605Y-129006000D01*
X155822213Y-129806608D01*
X156064397Y-129737143D01*
X156251144Y-129213698D01*
X156223362Y-128658632D01*
X156064397Y-128274857D01*
X155822213Y-128205392D01*
X155021605Y-129006000D01*
X154662395Y-129006000D01*
X153861787Y-128205392D01*
X153619603Y-128274857D01*
X153569491Y-128415318D01*
X153487010Y-128215697D01*
X153297432Y-128025787D01*
X154041392Y-128025787D01*
X154842000Y-128826395D01*
X155642608Y-128025787D01*
X155573143Y-127783603D01*
X155049698Y-127596856D01*
X154494632Y-127624638D01*
X154110857Y-127783603D01*
X154041392Y-128025787D01*
X153297432Y-128025787D01*
X153094370Y-127822371D01*
X152581100Y-127609243D01*
X152025339Y-127608758D01*
X151644964Y-127765926D01*
X152105630Y-125450000D01*
X151267876Y-121238328D01*
X151049421Y-120911387D01*
X151204113Y-120942157D01*
X155854113Y-120942157D01*
X156288459Y-120855760D01*
X156656679Y-120609723D01*
X158456265Y-118810137D01*
X158549200Y-118717364D01*
X158549200Y-142067653D01*
G36*
X196807666Y-41941483D02*
X198897712Y-42870393D01*
X203040915Y-45795007D01*
X206416483Y-49170574D01*
X207830102Y-51997812D01*
X208290000Y-53837404D01*
X208290000Y-57691236D01*
X208055565Y-59097847D01*
X207333517Y-61745359D01*
X206407950Y-63596491D01*
X204289044Y-65950832D01*
X202423126Y-67117030D01*
X199607999Y-68290000D01*
X197289319Y-68290000D01*
X195232418Y-68061455D01*
X194115292Y-67391180D01*
X193990633Y-67346512D01*
X193866724Y-67299660D01*
X192366723Y-67049660D01*
X192332932Y-67050715D01*
X192300331Y-67041787D01*
X192195473Y-67055005D01*
X192089830Y-67058303D01*
X192059018Y-67072207D01*
X192025478Y-67076435D01*
X189775478Y-67826435D01*
X189742810Y-67845057D01*
X189706199Y-67853640D01*
X188192361Y-68541749D01*
X191349109Y-65385000D01*
X193098061Y-65385000D01*
X194395744Y-66682683D01*
X194593447Y-66817768D01*
X194844609Y-66872252D01*
X195097180Y-66824728D01*
X195311362Y-66682683D01*
X196494045Y-65500000D01*
X200290000Y-65500000D01*
X200401136Y-66058718D01*
X200717624Y-66532376D01*
X201191282Y-66848864D01*
X201750000Y-66960000D01*
X202308718Y-66848864D01*
X202782376Y-66532376D01*
X203098864Y-66058718D01*
X203210000Y-65500000D01*
X203098864Y-64941282D01*
X202782376Y-64467624D01*
X202308718Y-64151136D01*
X201750000Y-64040000D01*
X201191282Y-64151136D01*
X200717624Y-64467624D01*
X200401136Y-64941282D01*
X200290000Y-65500000D01*
X196494045Y-65500000D01*
X197432683Y-64561362D01*
X197567768Y-64363659D01*
X197622252Y-64112497D01*
X197574728Y-63859926D01*
X197432683Y-63645744D01*
X194604256Y-60817317D01*
X194406553Y-60682232D01*
X194155391Y-60627748D01*
X193902820Y-60675272D01*
X193688638Y-60817317D01*
X192390955Y-62115000D01*
X190671870Y-62115000D01*
X190046182Y-62239457D01*
X189949906Y-62303787D01*
X189515750Y-62593880D01*
X189515748Y-62593883D01*
X171654264Y-80455366D01*
X171149053Y-80792937D01*
X170953473Y-80988517D01*
X170599050Y-81518949D01*
X170474592Y-82144637D01*
X170474593Y-82144642D01*
X170474593Y-84974438D01*
X169572993Y-85876037D01*
X169218570Y-86406469D01*
X169136281Y-86820159D01*
X169015765Y-86708560D01*
X168813023Y-86581164D01*
X168559955Y-86536362D01*
X168309394Y-86593546D01*
X168100822Y-86743708D01*
X167421380Y-87477437D01*
X167293984Y-87680181D01*
X167249182Y-87933249D01*
X167306367Y-88183809D01*
X167456529Y-88392381D01*
X168043513Y-88935934D01*
X168246255Y-89063330D01*
X168374863Y-89086098D01*
X164730644Y-92730317D01*
X164642827Y-92608341D01*
X164055843Y-92064788D01*
X163853101Y-91937392D01*
X163600033Y-91892590D01*
X163349472Y-91949774D01*
X163140900Y-92099936D01*
X162461458Y-92833665D01*
X162334062Y-93036409D01*
X162289260Y-93289477D01*
X162346445Y-93540037D01*
X162496607Y-93748609D01*
X163083591Y-94292162D01*
X163135918Y-94325042D01*
X160469162Y-96991798D01*
X160102674Y-96991799D01*
X159058928Y-96991799D01*
X159056176Y-96992346D01*
X159053426Y-96991809D01*
X159053413Y-96991812D01*
X159053394Y-96991808D01*
X158743428Y-97054556D01*
X158433241Y-97116256D01*
X158430895Y-97117823D01*
X158428131Y-97118383D01*
X158165831Y-97294933D01*
X157902808Y-97470679D01*
X157901240Y-97473025D01*
X157898902Y-97474599D01*
X157283455Y-98094226D01*
X157283416Y-98094284D01*
X155207445Y-100184335D01*
X155083553Y-100267117D01*
X154729130Y-100797550D01*
X154604673Y-101423237D01*
X154604673Y-108122158D01*
X153699000Y-109027831D01*
X153699000Y-108140679D01*
X153592660Y-107606070D01*
X153289828Y-107152851D01*
X152836609Y-106850019D01*
X152302000Y-106743679D01*
X151767391Y-106850019D01*
X151314172Y-107152851D01*
X151032000Y-107575150D01*
X150749828Y-107152851D01*
X150296609Y-106850019D01*
X149762000Y-106743679D01*
X149227391Y-106850019D01*
X148774172Y-107152851D01*
X148492000Y-107575150D01*
X148209828Y-107152851D01*
X147756609Y-106850019D01*
X147222000Y-106743679D01*
X146687391Y-106850019D01*
X146234172Y-107152851D01*
X145952000Y-107575150D01*
X145669828Y-107152851D01*
X145216609Y-106850019D01*
X144682000Y-106743679D01*
X144147391Y-106850019D01*
X143694172Y-107152851D01*
X143412000Y-107575150D01*
X143129828Y-107152851D01*
X142676609Y-106850019D01*
X142142000Y-106743679D01*
X141689113Y-106833764D01*
X141689113Y-104758899D01*
X141814430Y-104735319D01*
X142030554Y-104596247D01*
X142175544Y-104384047D01*
X142226553Y-104132157D01*
X142226553Y-103432157D01*
X142182275Y-103196840D01*
X142043203Y-102980716D01*
X141831003Y-102835726D01*
X141817916Y-102833076D01*
X142030554Y-102696247D01*
X142175544Y-102484047D01*
X142226553Y-102232157D01*
X142226553Y-101532157D01*
X142182275Y-101296840D01*
X142106831Y-101179597D01*
X142654113Y-101179597D01*
X142889430Y-101135319D01*
X143105554Y-100996247D01*
X143250544Y-100784047D01*
X143253194Y-100770960D01*
X143390023Y-100983598D01*
X143602223Y-101128588D01*
X143854113Y-101179597D01*
X144554113Y-101179597D01*
X144789430Y-101135319D01*
X145005554Y-100996247D01*
X145150544Y-100784047D01*
X145200977Y-100535000D01*
X146029113Y-100535000D01*
X146154795Y-100510000D01*
X147107154Y-100510000D01*
X147506673Y-100909519D01*
X147506673Y-101607157D01*
X147550951Y-101842474D01*
X147690023Y-102058598D01*
X147902223Y-102203588D01*
X148154113Y-102254597D01*
X149154113Y-102254597D01*
X149389430Y-102210319D01*
X149605554Y-102071247D01*
X149653247Y-102001446D01*
X149690023Y-102058598D01*
X149902223Y-102203588D01*
X150154113Y-102254597D01*
X151154113Y-102254597D01*
X151389430Y-102210319D01*
X151605554Y-102071247D01*
X151750544Y-101859047D01*
X151774215Y-101742157D01*
X152116672Y-101742157D01*
X152417314Y-101866995D01*
X152789280Y-101867319D01*
X153133056Y-101725274D01*
X153396305Y-101462484D01*
X153538951Y-101118956D01*
X153539275Y-100746990D01*
X153397230Y-100403214D01*
X153134440Y-100139965D01*
X152790912Y-99997319D01*
X152418946Y-99996995D01*
X152075170Y-100139040D01*
X151991908Y-100222157D01*
X151776151Y-100222157D01*
X151757275Y-100121840D01*
X151618203Y-99905716D01*
X151406003Y-99760726D01*
X151154113Y-99709717D01*
X150154113Y-99709717D01*
X149918796Y-99753995D01*
X149702672Y-99893067D01*
X149654979Y-99962868D01*
X149618203Y-99905716D01*
X149414113Y-99766267D01*
X149414113Y-98345603D01*
X149436812Y-98368302D01*
X149740148Y-98570984D01*
X150097957Y-98642157D01*
X154604113Y-98642157D01*
X154961922Y-98570984D01*
X155265258Y-98368302D01*
X156415258Y-97218302D01*
X156467110Y-97140700D01*
X156617940Y-96914966D01*
X156641819Y-96794921D01*
X156689114Y-96557157D01*
X156689113Y-96557152D01*
X156689113Y-95664660D01*
X156846110Y-95771931D01*
X157098000Y-95822940D01*
X157798000Y-95822940D01*
X158033317Y-95778662D01*
X158249441Y-95639590D01*
X158394431Y-95427390D01*
X158397081Y-95414303D01*
X158533910Y-95626941D01*
X158746110Y-95771931D01*
X158998000Y-95822940D01*
X159698000Y-95822940D01*
X159933317Y-95778662D01*
X160149441Y-95639590D01*
X160294431Y-95427390D01*
X160345440Y-95175500D01*
X160345440Y-93875500D01*
X160341677Y-93855500D01*
X160521309Y-93855500D01*
X160754698Y-93758827D01*
X160933327Y-93580199D01*
X161030000Y-93346810D01*
X161030000Y-92906250D01*
X160871250Y-92747500D01*
X159922000Y-92747500D01*
X159922000Y-92767500D01*
X159668000Y-92767500D01*
X159668000Y-92747500D01*
X159648000Y-92747500D01*
X159648000Y-92493500D01*
X159668000Y-92493500D01*
X159668000Y-91544250D01*
X159922000Y-91544250D01*
X159922000Y-92493500D01*
X160871250Y-92493500D01*
X161001046Y-92363704D01*
X161469386Y-92797391D01*
X161672128Y-92924787D01*
X161925196Y-92969589D01*
X162175757Y-92912405D01*
X162384329Y-92762243D01*
X163063771Y-92028514D01*
X163191167Y-91825770D01*
X163235969Y-91572702D01*
X163203629Y-91431003D01*
X163217344Y-91421129D01*
X163263401Y-91371392D01*
X163303059Y-91467370D01*
X163608008Y-91772852D01*
X164006646Y-91938381D01*
X164438286Y-91938758D01*
X164837213Y-91773924D01*
X165142695Y-91468975D01*
X165308224Y-91070337D01*
X165308601Y-90638697D01*
X165143767Y-90239770D01*
X164838818Y-89934288D01*
X164440180Y-89768759D01*
X164008540Y-89768382D01*
X163609613Y-89933216D01*
X163601956Y-89940859D01*
X163489613Y-89836828D01*
X163478408Y-89780499D01*
X163232371Y-89412279D01*
X163028108Y-89275794D01*
X162997878Y-89245512D01*
X162958013Y-89228958D01*
X162864151Y-89166242D01*
X162754402Y-89144412D01*
X162731683Y-89134978D01*
X162557209Y-88973413D01*
X162354467Y-88846017D01*
X162101399Y-88801215D01*
X161850838Y-88858399D01*
X161642266Y-89008561D01*
X161166657Y-89522171D01*
X161039261Y-89724915D01*
X160994459Y-89977983D01*
X161051644Y-90228543D01*
X161201806Y-90437115D01*
X161232989Y-90465991D01*
X161363371Y-90781539D01*
X160847253Y-91338894D01*
X160756248Y-91483723D01*
X160754698Y-91482173D01*
X160521309Y-91385500D01*
X160080750Y-91385500D01*
X159922000Y-91544250D01*
X159668000Y-91544250D01*
X159509250Y-91385500D01*
X159335669Y-91385500D01*
X159191514Y-91169756D01*
X158914235Y-90892477D01*
X158914275Y-90846990D01*
X158772230Y-90503214D01*
X158509440Y-90239965D01*
X158165912Y-90097319D01*
X157793946Y-90096995D01*
X157450170Y-90239040D01*
X157186921Y-90501830D01*
X157044275Y-90845358D01*
X157043951Y-91217324D01*
X157108300Y-91373060D01*
X156995000Y-91373060D01*
X156759683Y-91417338D01*
X156689113Y-91462749D01*
X156689113Y-89207157D01*
X156617940Y-88849348D01*
X156415258Y-88546012D01*
X154151553Y-86282307D01*
X154151553Y-83907157D01*
X154130887Y-83797327D01*
X158929510Y-83797327D01*
X163069395Y-87937212D01*
X163089968Y-88027354D01*
X163240130Y-88235926D01*
X164340725Y-89255088D01*
X164543467Y-89382484D01*
X164796535Y-89427286D01*
X165047096Y-89370102D01*
X165255668Y-89219940D01*
X165301725Y-89170203D01*
X165341383Y-89266181D01*
X165646332Y-89571663D01*
X166044970Y-89737192D01*
X166476610Y-89737569D01*
X166875537Y-89572735D01*
X167181019Y-89267786D01*
X167346548Y-88869148D01*
X167346925Y-88437508D01*
X167182091Y-88038581D01*
X166877142Y-87733099D01*
X166700442Y-87659727D01*
X166750439Y-87605735D01*
X166759609Y-87591142D01*
X166885117Y-87613361D01*
X167135678Y-87556177D01*
X167344250Y-87406015D01*
X168023692Y-86672286D01*
X168151088Y-86469542D01*
X168195890Y-86216474D01*
X168138705Y-85965914D01*
X167988543Y-85757342D01*
X167401559Y-85213789D01*
X167198817Y-85086393D01*
X166973660Y-85046532D01*
X166964230Y-84999126D01*
X166964310Y-84907382D01*
X166928966Y-84821844D01*
X166910894Y-84730989D01*
X166859878Y-84654638D01*
X166791880Y-84490071D01*
X166664973Y-84362942D01*
X166664857Y-84362769D01*
X166632093Y-84330005D01*
X166472878Y-84170512D01*
X166055869Y-83997354D01*
X165604338Y-83996960D01*
X165187027Y-84169390D01*
X164867468Y-84488392D01*
X164867271Y-84488867D01*
X164684725Y-84671413D01*
X164438688Y-85039633D01*
X164352291Y-85473979D01*
X164352291Y-86082000D01*
X164224143Y-86220387D01*
X164136550Y-86359787D01*
X159977945Y-82201182D01*
X159674609Y-81998500D01*
X159652423Y-81994087D01*
X172842712Y-68803797D01*
X173953628Y-68803797D01*
X173953633Y-68803798D01*
X174579321Y-68679340D01*
X175109753Y-68324917D01*
X176892345Y-66542324D01*
X181343951Y-66542324D01*
X181485996Y-66886100D01*
X181748786Y-67149349D01*
X182092314Y-67291995D01*
X182464280Y-67292319D01*
X182808056Y-67150274D01*
X183071305Y-66887484D01*
X183213951Y-66543956D01*
X183214275Y-66171990D01*
X183164957Y-66052631D01*
X185807558Y-63410030D01*
X185817720Y-63410039D01*
X186161496Y-63267994D01*
X186424745Y-63005204D01*
X186567391Y-62661676D01*
X186567715Y-62289710D01*
X186425670Y-61945934D01*
X186162880Y-61682685D01*
X185819352Y-61540039D01*
X185447386Y-61539715D01*
X185103610Y-61681760D01*
X184840361Y-61944550D01*
X184697715Y-62288078D01*
X184697705Y-62299567D01*
X181724034Y-65273238D01*
X181553868Y-65527910D01*
X181545894Y-65568000D01*
X181496264Y-65817503D01*
X181486921Y-65826830D01*
X181344275Y-66170358D01*
X181343951Y-66542324D01*
X176892345Y-66542324D01*
X185362720Y-58071949D01*
X185594609Y-58122252D01*
X185847180Y-58074728D01*
X186061362Y-57932683D01*
X187244045Y-56750000D01*
X190290000Y-56750000D01*
X190496286Y-57787072D01*
X191083741Y-58666259D01*
X191962928Y-59253714D01*
X193000000Y-59460000D01*
X194037072Y-59253714D01*
X194916259Y-58666259D01*
X195503714Y-57787072D01*
X195710000Y-56750000D01*
X195503714Y-55712928D01*
X194916259Y-54833741D01*
X194037072Y-54246286D01*
X193000000Y-54040000D01*
X191962928Y-54246286D01*
X191083741Y-54833741D01*
X190496286Y-55712928D01*
X190290000Y-56750000D01*
X187244045Y-56750000D01*
X188182683Y-55811362D01*
X188317768Y-55613659D01*
X188372252Y-55362497D01*
X188324728Y-55109926D01*
X188182683Y-54895744D01*
X185354256Y-52067317D01*
X185156553Y-51932232D01*
X184905391Y-51877748D01*
X184652820Y-51925272D01*
X184438638Y-52067317D01*
X182317317Y-54188638D01*
X182182232Y-54386341D01*
X182127748Y-54637503D01*
X182175272Y-54890074D01*
X182317317Y-55104256D01*
X182767670Y-55554609D01*
X182838855Y-55661145D01*
X182945391Y-55732330D01*
X183011626Y-55798565D01*
X181390028Y-57420163D01*
X181442898Y-57155812D01*
X182188801Y-54172201D01*
X182190598Y-54135279D01*
X182202864Y-54100409D01*
X182702864Y-50600409D01*
X182697985Y-50510903D01*
X182705657Y-50421593D01*
X182658814Y-50000000D01*
X197040000Y-50000000D01*
X197246286Y-51037072D01*
X197833741Y-51916259D01*
X198712928Y-52503714D01*
X199750000Y-52710000D01*
X200787072Y-52503714D01*
X201666259Y-51916259D01*
X202253714Y-51037072D01*
X202460000Y-50000000D01*
X202253714Y-48962928D01*
X201666259Y-48083741D01*
X200787072Y-47496286D01*
X199750000Y-47290000D01*
X198712928Y-47496286D01*
X197833741Y-48083741D01*
X197246286Y-48962928D01*
X197040000Y-50000000D01*
X182658814Y-50000000D01*
X182460000Y-48210681D01*
X182460000Y-48146814D01*
X182717624Y-48532376D01*
X183191282Y-48848864D01*
X183750000Y-48960000D01*
X184308718Y-48848864D01*
X184782376Y-48532376D01*
X185098864Y-48058718D01*
X185210000Y-47500000D01*
X185098864Y-46941282D01*
X184782376Y-46467624D01*
X184308718Y-46151136D01*
X183750000Y-46040000D01*
X183191282Y-46151136D01*
X182717624Y-46467624D01*
X182460000Y-46853186D01*
X182460000Y-46320302D01*
X182662333Y-45308638D01*
X183423436Y-44357260D01*
X184635435Y-43953261D01*
X188791693Y-43708775D01*
X188881966Y-43685233D01*
X188974522Y-43673565D01*
X191224521Y-42923565D01*
X191236119Y-42916953D01*
X191249298Y-42914794D01*
X193211438Y-42178992D01*
X195043536Y-41720967D01*
X196807666Y-41941483D01*
X196807666Y-41941483D01*
G37*
X196807666Y-41941483D02*
X198897712Y-42870393D01*
X203040915Y-45795007D01*
X206416483Y-49170574D01*
X207830102Y-51997812D01*
X208290000Y-53837404D01*
X208290000Y-57691236D01*
X208055565Y-59097847D01*
X207333517Y-61745359D01*
X206407950Y-63596491D01*
X204289044Y-65950832D01*
X202423126Y-67117030D01*
X199607999Y-68290000D01*
X197289319Y-68290000D01*
X195232418Y-68061455D01*
X194115292Y-67391180D01*
X193990633Y-67346512D01*
X193866724Y-67299660D01*
X192366723Y-67049660D01*
X192332932Y-67050715D01*
X192300331Y-67041787D01*
X192195473Y-67055005D01*
X192089830Y-67058303D01*
X192059018Y-67072207D01*
X192025478Y-67076435D01*
X189775478Y-67826435D01*
X189742810Y-67845057D01*
X189706199Y-67853640D01*
X188192361Y-68541749D01*
X191349109Y-65385000D01*
X193098061Y-65385000D01*
X194395744Y-66682683D01*
X194593447Y-66817768D01*
X194844609Y-66872252D01*
X195097180Y-66824728D01*
X195311362Y-66682683D01*
X196494045Y-65500000D01*
X200290000Y-65500000D01*
X200401136Y-66058718D01*
X200717624Y-66532376D01*
X201191282Y-66848864D01*
X201750000Y-66960000D01*
X202308718Y-66848864D01*
X202782376Y-66532376D01*
X203098864Y-66058718D01*
X203210000Y-65500000D01*
X203098864Y-64941282D01*
X202782376Y-64467624D01*
X202308718Y-64151136D01*
X201750000Y-64040000D01*
X201191282Y-64151136D01*
X200717624Y-64467624D01*
X200401136Y-64941282D01*
X200290000Y-65500000D01*
X196494045Y-65500000D01*
X197432683Y-64561362D01*
X197567768Y-64363659D01*
X197622252Y-64112497D01*
X197574728Y-63859926D01*
X197432683Y-63645744D01*
X194604256Y-60817317D01*
X194406553Y-60682232D01*
X194155391Y-60627748D01*
X193902820Y-60675272D01*
X193688638Y-60817317D01*
X192390955Y-62115000D01*
X190671870Y-62115000D01*
X190046182Y-62239457D01*
X189949906Y-62303787D01*
X189515750Y-62593880D01*
X189515748Y-62593883D01*
X171654264Y-80455366D01*
X171149053Y-80792937D01*
X170953473Y-80988517D01*
X170599050Y-81518949D01*
X170474592Y-82144637D01*
X170474593Y-82144642D01*
X170474593Y-84974438D01*
X169572993Y-85876037D01*
X169218570Y-86406469D01*
X169136281Y-86820159D01*
X169015765Y-86708560D01*
X168813023Y-86581164D01*
X168559955Y-86536362D01*
X168309394Y-86593546D01*
X168100822Y-86743708D01*
X167421380Y-87477437D01*
X167293984Y-87680181D01*
X167249182Y-87933249D01*
X167306367Y-88183809D01*
X167456529Y-88392381D01*
X168043513Y-88935934D01*
X168246255Y-89063330D01*
X168374863Y-89086098D01*
X164730644Y-92730317D01*
X164642827Y-92608341D01*
X164055843Y-92064788D01*
X163853101Y-91937392D01*
X163600033Y-91892590D01*
X163349472Y-91949774D01*
X163140900Y-92099936D01*
X162461458Y-92833665D01*
X162334062Y-93036409D01*
X162289260Y-93289477D01*
X162346445Y-93540037D01*
X162496607Y-93748609D01*
X163083591Y-94292162D01*
X163135918Y-94325042D01*
X160469162Y-96991798D01*
X160102674Y-96991799D01*
X159058928Y-96991799D01*
X159056176Y-96992346D01*
X159053426Y-96991809D01*
X159053413Y-96991812D01*
X159053394Y-96991808D01*
X158743428Y-97054556D01*
X158433241Y-97116256D01*
X158430895Y-97117823D01*
X158428131Y-97118383D01*
X158165831Y-97294933D01*
X157902808Y-97470679D01*
X157901240Y-97473025D01*
X157898902Y-97474599D01*
X157283455Y-98094226D01*
X157283416Y-98094284D01*
X155207445Y-100184335D01*
X155083553Y-100267117D01*
X154729130Y-100797550D01*
X154604673Y-101423237D01*
X154604673Y-108122158D01*
X153699000Y-109027831D01*
X153699000Y-108140679D01*
X153592660Y-107606070D01*
X153289828Y-107152851D01*
X152836609Y-106850019D01*
X152302000Y-106743679D01*
X151767391Y-106850019D01*
X151314172Y-107152851D01*
X151032000Y-107575150D01*
X150749828Y-107152851D01*
X150296609Y-106850019D01*
X149762000Y-106743679D01*
X149227391Y-106850019D01*
X148774172Y-107152851D01*
X148492000Y-107575150D01*
X148209828Y-107152851D01*
X147756609Y-106850019D01*
X147222000Y-106743679D01*
X146687391Y-106850019D01*
X146234172Y-107152851D01*
X145952000Y-107575150D01*
X145669828Y-107152851D01*
X145216609Y-106850019D01*
X144682000Y-106743679D01*
X144147391Y-106850019D01*
X143694172Y-107152851D01*
X143412000Y-107575150D01*
X143129828Y-107152851D01*
X142676609Y-106850019D01*
X142142000Y-106743679D01*
X141689113Y-106833764D01*
X141689113Y-104758899D01*
X141814430Y-104735319D01*
X142030554Y-104596247D01*
X142175544Y-104384047D01*
X142226553Y-104132157D01*
X142226553Y-103432157D01*
X142182275Y-103196840D01*
X142043203Y-102980716D01*
X141831003Y-102835726D01*
X141817916Y-102833076D01*
X142030554Y-102696247D01*
X142175544Y-102484047D01*
X142226553Y-102232157D01*
X142226553Y-101532157D01*
X142182275Y-101296840D01*
X142106831Y-101179597D01*
X142654113Y-101179597D01*
X142889430Y-101135319D01*
X143105554Y-100996247D01*
X143250544Y-100784047D01*
X143253194Y-100770960D01*
X143390023Y-100983598D01*
X143602223Y-101128588D01*
X143854113Y-101179597D01*
X144554113Y-101179597D01*
X144789430Y-101135319D01*
X145005554Y-100996247D01*
X145150544Y-100784047D01*
X145200977Y-100535000D01*
X146029113Y-100535000D01*
X146154795Y-100510000D01*
X147107154Y-100510000D01*
X147506673Y-100909519D01*
X147506673Y-101607157D01*
X147550951Y-101842474D01*
X147690023Y-102058598D01*
X147902223Y-102203588D01*
X148154113Y-102254597D01*
X149154113Y-102254597D01*
X149389430Y-102210319D01*
X149605554Y-102071247D01*
X149653247Y-102001446D01*
X149690023Y-102058598D01*
X149902223Y-102203588D01*
X150154113Y-102254597D01*
X151154113Y-102254597D01*
X151389430Y-102210319D01*
X151605554Y-102071247D01*
X151750544Y-101859047D01*
X151774215Y-101742157D01*
X152116672Y-101742157D01*
X152417314Y-101866995D01*
X152789280Y-101867319D01*
X153133056Y-101725274D01*
X153396305Y-101462484D01*
X153538951Y-101118956D01*
X153539275Y-100746990D01*
X153397230Y-100403214D01*
X153134440Y-100139965D01*
X152790912Y-99997319D01*
X152418946Y-99996995D01*
X152075170Y-100139040D01*
X151991908Y-100222157D01*
X151776151Y-100222157D01*
X151757275Y-100121840D01*
X151618203Y-99905716D01*
X151406003Y-99760726D01*
X151154113Y-99709717D01*
X150154113Y-99709717D01*
X149918796Y-99753995D01*
X149702672Y-99893067D01*
X149654979Y-99962868D01*
X149618203Y-99905716D01*
X149414113Y-99766267D01*
X149414113Y-98345603D01*
X149436812Y-98368302D01*
X149740148Y-98570984D01*
X150097957Y-98642157D01*
X154604113Y-98642157D01*
X154961922Y-98570984D01*
X155265258Y-98368302D01*
X156415258Y-97218302D01*
X156467110Y-97140700D01*
X156617940Y-96914966D01*
X156641819Y-96794921D01*
X156689114Y-96557157D01*
X156689113Y-96557152D01*
X156689113Y-95664660D01*
X156846110Y-95771931D01*
X157098000Y-95822940D01*
X157798000Y-95822940D01*
X158033317Y-95778662D01*
X158249441Y-95639590D01*
X158394431Y-95427390D01*
X158397081Y-95414303D01*
X158533910Y-95626941D01*
X158746110Y-95771931D01*
X158998000Y-95822940D01*
X159698000Y-95822940D01*
X159933317Y-95778662D01*
X160149441Y-95639590D01*
X160294431Y-95427390D01*
X160345440Y-95175500D01*
X160345440Y-93875500D01*
X160341677Y-93855500D01*
X160521309Y-93855500D01*
X160754698Y-93758827D01*
X160933327Y-93580199D01*
X161030000Y-93346810D01*
X161030000Y-92906250D01*
X160871250Y-92747500D01*
X159922000Y-92747500D01*
X159922000Y-92767500D01*
X159668000Y-92767500D01*
X159668000Y-92747500D01*
X159648000Y-92747500D01*
X159648000Y-92493500D01*
X159668000Y-92493500D01*
X159668000Y-91544250D01*
X159922000Y-91544250D01*
X159922000Y-92493500D01*
X160871250Y-92493500D01*
X161001046Y-92363704D01*
X161469386Y-92797391D01*
X161672128Y-92924787D01*
X161925196Y-92969589D01*
X162175757Y-92912405D01*
X162384329Y-92762243D01*
X163063771Y-92028514D01*
X163191167Y-91825770D01*
X163235969Y-91572702D01*
X163203629Y-91431003D01*
X163217344Y-91421129D01*
X163263401Y-91371392D01*
X163303059Y-91467370D01*
X163608008Y-91772852D01*
X164006646Y-91938381D01*
X164438286Y-91938758D01*
X164837213Y-91773924D01*
X165142695Y-91468975D01*
X165308224Y-91070337D01*
X165308601Y-90638697D01*
X165143767Y-90239770D01*
X164838818Y-89934288D01*
X164440180Y-89768759D01*
X164008540Y-89768382D01*
X163609613Y-89933216D01*
X163601956Y-89940859D01*
X163489613Y-89836828D01*
X163478408Y-89780499D01*
X163232371Y-89412279D01*
X163028108Y-89275794D01*
X162997878Y-89245512D01*
X162958013Y-89228958D01*
X162864151Y-89166242D01*
X162754402Y-89144412D01*
X162731683Y-89134978D01*
X162557209Y-88973413D01*
X162354467Y-88846017D01*
X162101399Y-88801215D01*
X161850838Y-88858399D01*
X161642266Y-89008561D01*
X161166657Y-89522171D01*
X161039261Y-89724915D01*
X160994459Y-89977983D01*
X161051644Y-90228543D01*
X161201806Y-90437115D01*
X161232989Y-90465991D01*
X161363371Y-90781539D01*
X160847253Y-91338894D01*
X160756248Y-91483723D01*
X160754698Y-91482173D01*
X160521309Y-91385500D01*
X160080750Y-91385500D01*
X159922000Y-91544250D01*
X159668000Y-91544250D01*
X159509250Y-91385500D01*
X159335669Y-91385500D01*
X159191514Y-91169756D01*
X158914235Y-90892477D01*
X158914275Y-90846990D01*
X158772230Y-90503214D01*
X158509440Y-90239965D01*
X158165912Y-90097319D01*
X157793946Y-90096995D01*
X157450170Y-90239040D01*
X157186921Y-90501830D01*
X157044275Y-90845358D01*
X157043951Y-91217324D01*
X157108300Y-91373060D01*
X156995000Y-91373060D01*
X156759683Y-91417338D01*
X156689113Y-91462749D01*
X156689113Y-89207157D01*
X156617940Y-88849348D01*
X156415258Y-88546012D01*
X154151553Y-86282307D01*
X154151553Y-83907157D01*
X154130887Y-83797327D01*
X158929510Y-83797327D01*
X163069395Y-87937212D01*
X163089968Y-88027354D01*
X163240130Y-88235926D01*
X164340725Y-89255088D01*
X164543467Y-89382484D01*
X164796535Y-89427286D01*
X165047096Y-89370102D01*
X165255668Y-89219940D01*
X165301725Y-89170203D01*
X165341383Y-89266181D01*
X165646332Y-89571663D01*
X166044970Y-89737192D01*
X166476610Y-89737569D01*
X166875537Y-89572735D01*
X167181019Y-89267786D01*
X167346548Y-88869148D01*
X167346925Y-88437508D01*
X167182091Y-88038581D01*
X166877142Y-87733099D01*
X166700442Y-87659727D01*
X166750439Y-87605735D01*
X166759609Y-87591142D01*
X166885117Y-87613361D01*
X167135678Y-87556177D01*
X167344250Y-87406015D01*
X168023692Y-86672286D01*
X168151088Y-86469542D01*
X168195890Y-86216474D01*
X168138705Y-85965914D01*
X167988543Y-85757342D01*
X167401559Y-85213789D01*
X167198817Y-85086393D01*
X166973660Y-85046532D01*
X166964230Y-84999126D01*
X166964310Y-84907382D01*
X166928966Y-84821844D01*
X166910894Y-84730989D01*
X166859878Y-84654638D01*
X166791880Y-84490071D01*
X166664973Y-84362942D01*
X166664857Y-84362769D01*
X166632093Y-84330005D01*
X166472878Y-84170512D01*
X166055869Y-83997354D01*
X165604338Y-83996960D01*
X165187027Y-84169390D01*
X164867468Y-84488392D01*
X164867271Y-84488867D01*
X164684725Y-84671413D01*
X164438688Y-85039633D01*
X164352291Y-85473979D01*
X164352291Y-86082000D01*
X164224143Y-86220387D01*
X164136550Y-86359787D01*
X159977945Y-82201182D01*
X159674609Y-81998500D01*
X159652423Y-81994087D01*
X172842712Y-68803797D01*
X173953628Y-68803797D01*
X173953633Y-68803798D01*
X174579321Y-68679340D01*
X175109753Y-68324917D01*
X176892345Y-66542324D01*
X181343951Y-66542324D01*
X181485996Y-66886100D01*
X181748786Y-67149349D01*
X182092314Y-67291995D01*
X182464280Y-67292319D01*
X182808056Y-67150274D01*
X183071305Y-66887484D01*
X183213951Y-66543956D01*
X183214275Y-66171990D01*
X183164957Y-66052631D01*
X185807558Y-63410030D01*
X185817720Y-63410039D01*
X186161496Y-63267994D01*
X186424745Y-63005204D01*
X186567391Y-62661676D01*
X186567715Y-62289710D01*
X186425670Y-61945934D01*
X186162880Y-61682685D01*
X185819352Y-61540039D01*
X185447386Y-61539715D01*
X185103610Y-61681760D01*
X184840361Y-61944550D01*
X184697715Y-62288078D01*
X184697705Y-62299567D01*
X181724034Y-65273238D01*
X181553868Y-65527910D01*
X181545894Y-65568000D01*
X181496264Y-65817503D01*
X181486921Y-65826830D01*
X181344275Y-66170358D01*
X181343951Y-66542324D01*
X176892345Y-66542324D01*
X185362720Y-58071949D01*
X185594609Y-58122252D01*
X185847180Y-58074728D01*
X186061362Y-57932683D01*
X187244045Y-56750000D01*
X190290000Y-56750000D01*
X190496286Y-57787072D01*
X191083741Y-58666259D01*
X191962928Y-59253714D01*
X193000000Y-59460000D01*
X194037072Y-59253714D01*
X194916259Y-58666259D01*
X195503714Y-57787072D01*
X195710000Y-56750000D01*
X195503714Y-55712928D01*
X194916259Y-54833741D01*
X194037072Y-54246286D01*
X193000000Y-54040000D01*
X191962928Y-54246286D01*
X191083741Y-54833741D01*
X190496286Y-55712928D01*
X190290000Y-56750000D01*
X187244045Y-56750000D01*
X188182683Y-55811362D01*
X188317768Y-55613659D01*
X188372252Y-55362497D01*
X188324728Y-55109926D01*
X188182683Y-54895744D01*
X185354256Y-52067317D01*
X185156553Y-51932232D01*
X184905391Y-51877748D01*
X184652820Y-51925272D01*
X184438638Y-52067317D01*
X182317317Y-54188638D01*
X182182232Y-54386341D01*
X182127748Y-54637503D01*
X182175272Y-54890074D01*
X182317317Y-55104256D01*
X182767670Y-55554609D01*
X182838855Y-55661145D01*
X182945391Y-55732330D01*
X183011626Y-55798565D01*
X181390028Y-57420163D01*
X181442898Y-57155812D01*
X182188801Y-54172201D01*
X182190598Y-54135279D01*
X182202864Y-54100409D01*
X182702864Y-50600409D01*
X182697985Y-50510903D01*
X182705657Y-50421593D01*
X182658814Y-50000000D01*
X197040000Y-50000000D01*
X197246286Y-51037072D01*
X197833741Y-51916259D01*
X198712928Y-52503714D01*
X199750000Y-52710000D01*
X200787072Y-52503714D01*
X201666259Y-51916259D01*
X202253714Y-51037072D01*
X202460000Y-50000000D01*
X202253714Y-48962928D01*
X201666259Y-48083741D01*
X200787072Y-47496286D01*
X199750000Y-47290000D01*
X198712928Y-47496286D01*
X197833741Y-48083741D01*
X197246286Y-48962928D01*
X197040000Y-50000000D01*
X182658814Y-50000000D01*
X182460000Y-48210681D01*
X182460000Y-48146814D01*
X182717624Y-48532376D01*
X183191282Y-48848864D01*
X183750000Y-48960000D01*
X184308718Y-48848864D01*
X184782376Y-48532376D01*
X185098864Y-48058718D01*
X185210000Y-47500000D01*
X185098864Y-46941282D01*
X184782376Y-46467624D01*
X184308718Y-46151136D01*
X183750000Y-46040000D01*
X183191282Y-46151136D01*
X182717624Y-46467624D01*
X182460000Y-46853186D01*
X182460000Y-46320302D01*
X182662333Y-45308638D01*
X183423436Y-44357260D01*
X184635435Y-43953261D01*
X188791693Y-43708775D01*
X188881966Y-43685233D01*
X188974522Y-43673565D01*
X191224521Y-42923565D01*
X191236119Y-42916953D01*
X191249298Y-42914794D01*
X193211438Y-42178992D01*
X195043536Y-41720967D01*
X196807666Y-41941483D01*
G36*
X132327000Y-101673000D02*
X132347000Y-101673000D01*
X132347000Y-101927000D01*
X132327000Y-101927000D01*
X132327000Y-102776250D01*
X132485750Y-102935000D01*
X132951310Y-102935000D01*
X133115000Y-102867197D01*
X133115000Y-103874842D01*
X131143921Y-105845921D01*
X130973755Y-106100593D01*
X130934171Y-106299593D01*
X130914000Y-106401000D01*
X130914000Y-106834383D01*
X130458000Y-106743679D01*
X129923391Y-106850019D01*
X129470172Y-107152851D01*
X129188000Y-107575150D01*
X128905828Y-107152851D01*
X128703000Y-107017325D01*
X128703000Y-106780996D01*
X128643245Y-106480590D01*
X128473079Y-106225917D01*
X128473076Y-106225915D01*
X127509696Y-105262534D01*
X127675243Y-105097276D01*
X127756817Y-104900825D01*
X127885910Y-105101441D01*
X128098110Y-105246431D01*
X128350000Y-105297440D01*
X129050000Y-105297440D01*
X129285317Y-105253162D01*
X129501441Y-105114090D01*
X129646431Y-104901890D01*
X129649081Y-104888803D01*
X129785910Y-105101441D01*
X129998110Y-105246431D01*
X130250000Y-105297440D01*
X130950000Y-105297440D01*
X131185317Y-105253162D01*
X131401441Y-105114090D01*
X131546431Y-104901890D01*
X131597440Y-104650000D01*
X131597440Y-103350000D01*
X131553162Y-103114683D01*
X131433487Y-102928703D01*
X131448690Y-102935000D01*
X131914250Y-102935000D01*
X132073000Y-102776250D01*
X132073000Y-101927000D01*
X132053000Y-101927000D01*
X132053000Y-101673000D01*
X132073000Y-101673000D01*
X132073000Y-101653000D01*
X132327000Y-101653000D01*
X132327000Y-101673000D01*
X132327000Y-101673000D01*
G37*
X132327000Y-101673000D02*
X132347000Y-101673000D01*
X132347000Y-101927000D01*
X132327000Y-101927000D01*
X132327000Y-102776250D01*
X132485750Y-102935000D01*
X132951310Y-102935000D01*
X133115000Y-102867197D01*
X133115000Y-103874842D01*
X131143921Y-105845921D01*
X130973755Y-106100593D01*
X130934171Y-106299593D01*
X130914000Y-106401000D01*
X130914000Y-106834383D01*
X130458000Y-106743679D01*
X129923391Y-106850019D01*
X129470172Y-107152851D01*
X129188000Y-107575150D01*
X128905828Y-107152851D01*
X128703000Y-107017325D01*
X128703000Y-106780996D01*
X128643245Y-106480590D01*
X128473079Y-106225917D01*
X128473076Y-106225915D01*
X127509696Y-105262534D01*
X127675243Y-105097276D01*
X127756817Y-104900825D01*
X127885910Y-105101441D01*
X128098110Y-105246431D01*
X128350000Y-105297440D01*
X129050000Y-105297440D01*
X129285317Y-105253162D01*
X129501441Y-105114090D01*
X129646431Y-104901890D01*
X129649081Y-104888803D01*
X129785910Y-105101441D01*
X129998110Y-105246431D01*
X130250000Y-105297440D01*
X130950000Y-105297440D01*
X131185317Y-105253162D01*
X131401441Y-105114090D01*
X131546431Y-104901890D01*
X131597440Y-104650000D01*
X131597440Y-103350000D01*
X131553162Y-103114683D01*
X131433487Y-102928703D01*
X131448690Y-102935000D01*
X131914250Y-102935000D01*
X132073000Y-102776250D01*
X132073000Y-101927000D01*
X132053000Y-101927000D01*
X132053000Y-101673000D01*
X132073000Y-101673000D01*
X132073000Y-101653000D01*
X132327000Y-101653000D01*
X132327000Y-101673000D01*
G36*
X144745751Y-82518434D02*
X144745753Y-82518437D01*
X144998923Y-82687599D01*
X145276185Y-82872860D01*
X145726538Y-82962442D01*
X145429263Y-83259717D01*
X143804113Y-83259717D01*
X143568796Y-83303995D01*
X143352672Y-83443067D01*
X143207682Y-83655267D01*
X143156673Y-83907157D01*
X143156673Y-89507157D01*
X143200951Y-89742474D01*
X143340023Y-89958598D01*
X143549112Y-90101463D01*
X143536573Y-90114002D01*
X143439900Y-90347391D01*
X143439900Y-90612950D01*
X143598650Y-90771700D01*
X143927460Y-90771700D01*
X143927460Y-90917713D01*
X143779583Y-90945538D01*
X143655008Y-91025700D01*
X143598650Y-91025700D01*
X143439900Y-91184450D01*
X143439900Y-91265445D01*
X143418469Y-91296810D01*
X143410480Y-91336260D01*
X143314900Y-91336260D01*
X143182240Y-91361222D01*
X143182240Y-90917900D01*
X143137962Y-90682583D01*
X142998890Y-90466459D01*
X142844723Y-90361121D01*
X142844962Y-90086433D01*
X142702917Y-89742657D01*
X142440127Y-89479408D01*
X142096599Y-89336762D01*
X141724633Y-89336438D01*
X141380857Y-89478483D01*
X141117608Y-89741273D01*
X140974962Y-90084801D01*
X140974720Y-90362847D01*
X140895625Y-90413743D01*
X140800034Y-90348429D01*
X140800262Y-90086433D01*
X140658217Y-89742657D01*
X140395427Y-89479408D01*
X140051899Y-89336762D01*
X139679933Y-89336438D01*
X139336157Y-89478483D01*
X139072908Y-89741273D01*
X138930262Y-90084801D01*
X138930031Y-90350140D01*
X138788659Y-90441110D01*
X138643669Y-90653310D01*
X138592660Y-90905200D01*
X138592660Y-91905200D01*
X138636938Y-92140517D01*
X138776010Y-92356641D01*
X138844106Y-92403169D01*
X138701773Y-92545502D01*
X138605100Y-92778891D01*
X138605100Y-93119450D01*
X138763850Y-93278200D01*
X139738100Y-93278200D01*
X139738100Y-93258200D01*
X139992100Y-93258200D01*
X139992100Y-93278200D01*
X140795850Y-93278200D01*
X140808550Y-93290900D01*
X141782800Y-93290900D01*
X141782800Y-93270900D01*
X142036800Y-93270900D01*
X142036800Y-93290900D01*
X142961687Y-93290900D01*
X143063010Y-93360131D01*
X143314900Y-93411140D01*
X143407433Y-93411140D01*
X143411738Y-93434017D01*
X143439900Y-93477782D01*
X143439900Y-93562950D01*
X143598650Y-93721700D01*
X143655540Y-93721700D01*
X143763010Y-93795131D01*
X143927460Y-93828433D01*
X143927460Y-93975700D01*
X143598650Y-93975700D01*
X143439900Y-94134450D01*
X143439900Y-94400009D01*
X143536573Y-94633398D01*
X143715201Y-94812027D01*
X143929900Y-94900958D01*
X143929900Y-94957542D01*
X143589829Y-95297613D01*
X143480290Y-95222769D01*
X143228400Y-95171760D01*
X142328400Y-95171760D01*
X142093083Y-95216038D01*
X141876959Y-95355110D01*
X141731969Y-95567310D01*
X141680960Y-95819200D01*
X141680960Y-97119200D01*
X141725238Y-97354517D01*
X141864310Y-97570641D01*
X142076510Y-97715631D01*
X142328400Y-97766640D01*
X143228400Y-97766640D01*
X143463717Y-97722362D01*
X143679841Y-97583290D01*
X143824831Y-97371090D01*
X143865578Y-97169875D01*
X144083479Y-97024279D01*
X144929900Y-96177858D01*
X144929900Y-96355700D01*
X144989655Y-96656107D01*
X145159821Y-96910779D01*
X145273321Y-97024279D01*
X145490391Y-97169320D01*
X145525238Y-97354517D01*
X145664310Y-97570641D01*
X145876510Y-97715631D01*
X146128400Y-97766640D01*
X147028400Y-97766640D01*
X147263717Y-97722362D01*
X147479841Y-97583290D01*
X147624831Y-97371090D01*
X147675840Y-97119200D01*
X147675840Y-96966940D01*
X147894113Y-96966940D01*
X147894113Y-99169004D01*
X147712795Y-99047852D01*
X147421956Y-98990000D01*
X146154795Y-98990000D01*
X146029113Y-98965000D01*
X145136787Y-98965000D01*
X145018203Y-98780716D01*
X144806003Y-98635726D01*
X144554113Y-98584717D01*
X143854113Y-98584717D01*
X143618796Y-98628995D01*
X143402672Y-98768067D01*
X143257682Y-98980267D01*
X143255032Y-98993354D01*
X143118203Y-98780716D01*
X142906003Y-98635726D01*
X142654113Y-98584717D01*
X141954113Y-98584717D01*
X141718796Y-98628995D01*
X141665593Y-98663230D01*
X141654358Y-98606751D01*
X141484192Y-98352078D01*
X138437441Y-95305327D01*
X138362100Y-95254986D01*
X137202035Y-94094921D01*
X136947363Y-93924755D01*
X136646956Y-93865000D01*
X136573134Y-93865000D01*
X136584844Y-93836799D01*
X136584971Y-93690950D01*
X138605100Y-93690950D01*
X138605100Y-94031509D01*
X138701773Y-94264898D01*
X138880401Y-94443527D01*
X139113790Y-94540200D01*
X139579350Y-94540200D01*
X139738100Y-94381450D01*
X139738100Y-93532200D01*
X139992100Y-93532200D01*
X139992100Y-94381450D01*
X140150850Y-94540200D01*
X140616410Y-94540200D01*
X140849799Y-94443527D01*
X140881100Y-94412226D01*
X140925101Y-94456227D01*
X141158490Y-94552900D01*
X141624050Y-94552900D01*
X141782800Y-94394150D01*
X141782800Y-93544900D01*
X142036800Y-93544900D01*
X142036800Y-94394150D01*
X142195550Y-94552900D01*
X142661110Y-94552900D01*
X142894499Y-94456227D01*
X143073127Y-94277598D01*
X143169800Y-94044209D01*
X143169800Y-93703650D01*
X143011050Y-93544900D01*
X142036800Y-93544900D01*
X141782800Y-93544900D01*
X140979050Y-93544900D01*
X140966350Y-93532200D01*
X139992100Y-93532200D01*
X139738100Y-93532200D01*
X138763850Y-93532200D01*
X138605100Y-93690950D01*
X136584971Y-93690950D01*
X136585168Y-93464833D01*
X136443123Y-93121057D01*
X136180333Y-92857808D01*
X135836805Y-92715162D01*
X135587243Y-92714945D01*
X135464090Y-92523559D01*
X135354908Y-92448958D01*
X135385000Y-92376310D01*
X135385000Y-91885750D01*
X135226250Y-91727000D01*
X134527000Y-91727000D01*
X134527000Y-91747000D01*
X134273000Y-91747000D01*
X134273000Y-91727000D01*
X134253000Y-91727000D01*
X134253000Y-91473000D01*
X134273000Y-91473000D01*
X134273000Y-90473750D01*
X134527000Y-90473750D01*
X134527000Y-91473000D01*
X135226250Y-91473000D01*
X135385000Y-91314250D01*
X135385000Y-90823690D01*
X135288327Y-90590301D01*
X135109698Y-90411673D01*
X134876309Y-90315000D01*
X134685750Y-90315000D01*
X134527000Y-90473750D01*
X134273000Y-90473750D01*
X134114250Y-90315000D01*
X133923691Y-90315000D01*
X133690302Y-90411673D01*
X133511673Y-90590301D01*
X133455346Y-90726287D01*
X133453162Y-90714683D01*
X133314090Y-90498559D01*
X133101890Y-90353569D01*
X132850000Y-90302560D01*
X132150000Y-90302560D01*
X131914683Y-90346838D01*
X131698559Y-90485910D01*
X131553569Y-90698110D01*
X131519582Y-90865942D01*
X131407414Y-90888254D01*
X131359160Y-90897852D01*
X131112599Y-91062599D01*
X130931196Y-91244002D01*
X130850000Y-91227560D01*
X129350000Y-91227560D01*
X129315546Y-91234043D01*
X129322440Y-91200000D01*
X129322440Y-89700000D01*
X129278162Y-89464683D01*
X129139090Y-89248559D01*
X128967035Y-89130999D01*
X129009698Y-89113327D01*
X129150936Y-88972090D01*
X129185910Y-89026441D01*
X129398110Y-89171431D01*
X129650000Y-89222440D01*
X130650000Y-89222440D01*
X130885317Y-89178162D01*
X131101441Y-89039090D01*
X131206692Y-88885050D01*
X131335167Y-88885162D01*
X131678943Y-88743117D01*
X131942192Y-88480327D01*
X132084838Y-88136799D01*
X132085162Y-87764833D01*
X131943117Y-87421057D01*
X131680327Y-87157808D01*
X131336799Y-87015162D01*
X131205135Y-87015047D01*
X131114090Y-86873559D01*
X130910000Y-86734110D01*
X130910000Y-81405275D01*
X131003425Y-81467700D01*
X131629113Y-81592158D01*
X132254801Y-81467700D01*
X132255614Y-81467157D01*
X133354113Y-81467157D01*
X133979800Y-81342700D01*
X134510233Y-80988277D01*
X134648560Y-80781255D01*
X134648560Y-80988000D01*
X134692838Y-81223317D01*
X134831910Y-81439441D01*
X135044110Y-81584431D01*
X135296000Y-81635440D01*
X136796000Y-81635440D01*
X137031317Y-81591162D01*
X137206834Y-81478220D01*
X137438565Y-81633058D01*
X138016417Y-81748000D01*
X138075583Y-81748000D01*
X138653435Y-81633058D01*
X139143314Y-81305731D01*
X139470641Y-80815852D01*
X139585583Y-80238000D01*
X139470641Y-79660148D01*
X139143314Y-79170269D01*
X138653435Y-78842942D01*
X138075583Y-78728000D01*
X138016417Y-78728000D01*
X137438565Y-78842942D01*
X137205065Y-78998962D01*
X137047890Y-78891569D01*
X136796000Y-78840560D01*
X135972942Y-78840560D01*
X136694454Y-78191637D01*
X140418953Y-78191637D01*
X144745751Y-82518434D01*
X144745751Y-82518434D01*
G37*
X144745751Y-82518434D02*
X144745753Y-82518437D01*
X144998923Y-82687599D01*
X145276185Y-82872860D01*
X145726538Y-82962442D01*
X145429263Y-83259717D01*
X143804113Y-83259717D01*
X143568796Y-83303995D01*
X143352672Y-83443067D01*
X143207682Y-83655267D01*
X143156673Y-83907157D01*
X143156673Y-89507157D01*
X143200951Y-89742474D01*
X143340023Y-89958598D01*
X143549112Y-90101463D01*
X143536573Y-90114002D01*
X143439900Y-90347391D01*
X143439900Y-90612950D01*
X143598650Y-90771700D01*
X143927460Y-90771700D01*
X143927460Y-90917713D01*
X143779583Y-90945538D01*
X143655008Y-91025700D01*
X143598650Y-91025700D01*
X143439900Y-91184450D01*
X143439900Y-91265445D01*
X143418469Y-91296810D01*
X143410480Y-91336260D01*
X143314900Y-91336260D01*
X143182240Y-91361222D01*
X143182240Y-90917900D01*
X143137962Y-90682583D01*
X142998890Y-90466459D01*
X142844723Y-90361121D01*
X142844962Y-90086433D01*
X142702917Y-89742657D01*
X142440127Y-89479408D01*
X142096599Y-89336762D01*
X141724633Y-89336438D01*
X141380857Y-89478483D01*
X141117608Y-89741273D01*
X140974962Y-90084801D01*
X140974720Y-90362847D01*
X140895625Y-90413743D01*
X140800034Y-90348429D01*
X140800262Y-90086433D01*
X140658217Y-89742657D01*
X140395427Y-89479408D01*
X140051899Y-89336762D01*
X139679933Y-89336438D01*
X139336157Y-89478483D01*
X139072908Y-89741273D01*
X138930262Y-90084801D01*
X138930031Y-90350140D01*
X138788659Y-90441110D01*
X138643669Y-90653310D01*
X138592660Y-90905200D01*
X138592660Y-91905200D01*
X138636938Y-92140517D01*
X138776010Y-92356641D01*
X138844106Y-92403169D01*
X138701773Y-92545502D01*
X138605100Y-92778891D01*
X138605100Y-93119450D01*
X138763850Y-93278200D01*
X139738100Y-93278200D01*
X139738100Y-93258200D01*
X139992100Y-93258200D01*
X139992100Y-93278200D01*
X140795850Y-93278200D01*
X140808550Y-93290900D01*
X141782800Y-93290900D01*
X141782800Y-93270900D01*
X142036800Y-93270900D01*
X142036800Y-93290900D01*
X142961687Y-93290900D01*
X143063010Y-93360131D01*
X143314900Y-93411140D01*
X143407433Y-93411140D01*
X143411738Y-93434017D01*
X143439900Y-93477782D01*
X143439900Y-93562950D01*
X143598650Y-93721700D01*
X143655540Y-93721700D01*
X143763010Y-93795131D01*
X143927460Y-93828433D01*
X143927460Y-93975700D01*
X143598650Y-93975700D01*
X143439900Y-94134450D01*
X143439900Y-94400009D01*
X143536573Y-94633398D01*
X143715201Y-94812027D01*
X143929900Y-94900958D01*
X143929900Y-94957542D01*
X143589829Y-95297613D01*
X143480290Y-95222769D01*
X143228400Y-95171760D01*
X142328400Y-95171760D01*
X142093083Y-95216038D01*
X141876959Y-95355110D01*
X141731969Y-95567310D01*
X141680960Y-95819200D01*
X141680960Y-97119200D01*
X141725238Y-97354517D01*
X141864310Y-97570641D01*
X142076510Y-97715631D01*
X142328400Y-97766640D01*
X143228400Y-97766640D01*
X143463717Y-97722362D01*
X143679841Y-97583290D01*
X143824831Y-97371090D01*
X143865578Y-97169875D01*
X144083479Y-97024279D01*
X144929900Y-96177858D01*
X144929900Y-96355700D01*
X144989655Y-96656107D01*
X145159821Y-96910779D01*
X145273321Y-97024279D01*
X145490391Y-97169320D01*
X145525238Y-97354517D01*
X145664310Y-97570641D01*
X145876510Y-97715631D01*
X146128400Y-97766640D01*
X147028400Y-97766640D01*
X147263717Y-97722362D01*
X147479841Y-97583290D01*
X147624831Y-97371090D01*
X147675840Y-97119200D01*
X147675840Y-96966940D01*
X147894113Y-96966940D01*
X147894113Y-99169004D01*
X147712795Y-99047852D01*
X147421956Y-98990000D01*
X146154795Y-98990000D01*
X146029113Y-98965000D01*
X145136787Y-98965000D01*
X145018203Y-98780716D01*
X144806003Y-98635726D01*
X144554113Y-98584717D01*
X143854113Y-98584717D01*
X143618796Y-98628995D01*
X143402672Y-98768067D01*
X143257682Y-98980267D01*
X143255032Y-98993354D01*
X143118203Y-98780716D01*
X142906003Y-98635726D01*
X142654113Y-98584717D01*
X141954113Y-98584717D01*
X141718796Y-98628995D01*
X141665593Y-98663230D01*
X141654358Y-98606751D01*
X141484192Y-98352078D01*
X138437441Y-95305327D01*
X138362100Y-95254986D01*
X137202035Y-94094921D01*
X136947363Y-93924755D01*
X136646956Y-93865000D01*
X136573134Y-93865000D01*
X136584844Y-93836799D01*
X136584971Y-93690950D01*
X138605100Y-93690950D01*
X138605100Y-94031509D01*
X138701773Y-94264898D01*
X138880401Y-94443527D01*
X139113790Y-94540200D01*
X139579350Y-94540200D01*
X139738100Y-94381450D01*
X139738100Y-93532200D01*
X139992100Y-93532200D01*
X139992100Y-94381450D01*
X140150850Y-94540200D01*
X140616410Y-94540200D01*
X140849799Y-94443527D01*
X140881100Y-94412226D01*
X140925101Y-94456227D01*
X141158490Y-94552900D01*
X141624050Y-94552900D01*
X141782800Y-94394150D01*
X141782800Y-93544900D01*
X142036800Y-93544900D01*
X142036800Y-94394150D01*
X142195550Y-94552900D01*
X142661110Y-94552900D01*
X142894499Y-94456227D01*
X143073127Y-94277598D01*
X143169800Y-94044209D01*
X143169800Y-93703650D01*
X143011050Y-93544900D01*
X142036800Y-93544900D01*
X141782800Y-93544900D01*
X140979050Y-93544900D01*
X140966350Y-93532200D01*
X139992100Y-93532200D01*
X139738100Y-93532200D01*
X138763850Y-93532200D01*
X138605100Y-93690950D01*
X136584971Y-93690950D01*
X136585168Y-93464833D01*
X136443123Y-93121057D01*
X136180333Y-92857808D01*
X135836805Y-92715162D01*
X135587243Y-92714945D01*
X135464090Y-92523559D01*
X135354908Y-92448958D01*
X135385000Y-92376310D01*
X135385000Y-91885750D01*
X135226250Y-91727000D01*
X134527000Y-91727000D01*
X134527000Y-91747000D01*
X134273000Y-91747000D01*
X134273000Y-91727000D01*
X134253000Y-91727000D01*
X134253000Y-91473000D01*
X134273000Y-91473000D01*
X134273000Y-90473750D01*
X134527000Y-90473750D01*
X134527000Y-91473000D01*
X135226250Y-91473000D01*
X135385000Y-91314250D01*
X135385000Y-90823690D01*
X135288327Y-90590301D01*
X135109698Y-90411673D01*
X134876309Y-90315000D01*
X134685750Y-90315000D01*
X134527000Y-90473750D01*
X134273000Y-90473750D01*
X134114250Y-90315000D01*
X133923691Y-90315000D01*
X133690302Y-90411673D01*
X133511673Y-90590301D01*
X133455346Y-90726287D01*
X133453162Y-90714683D01*
X133314090Y-90498559D01*
X133101890Y-90353569D01*
X132850000Y-90302560D01*
X132150000Y-90302560D01*
X131914683Y-90346838D01*
X131698559Y-90485910D01*
X131553569Y-90698110D01*
X131519582Y-90865942D01*
X131407414Y-90888254D01*
X131359160Y-90897852D01*
X131112599Y-91062599D01*
X130931196Y-91244002D01*
X130850000Y-91227560D01*
X129350000Y-91227560D01*
X129315546Y-91234043D01*
X129322440Y-91200000D01*
X129322440Y-89700000D01*
X129278162Y-89464683D01*
X129139090Y-89248559D01*
X128967035Y-89130999D01*
X129009698Y-89113327D01*
X129150936Y-88972090D01*
X129185910Y-89026441D01*
X129398110Y-89171431D01*
X129650000Y-89222440D01*
X130650000Y-89222440D01*
X130885317Y-89178162D01*
X131101441Y-89039090D01*
X131206692Y-88885050D01*
X131335167Y-88885162D01*
X131678943Y-88743117D01*
X131942192Y-88480327D01*
X132084838Y-88136799D01*
X132085162Y-87764833D01*
X131943117Y-87421057D01*
X131680327Y-87157808D01*
X131336799Y-87015162D01*
X131205135Y-87015047D01*
X131114090Y-86873559D01*
X130910000Y-86734110D01*
X130910000Y-81405275D01*
X131003425Y-81467700D01*
X131629113Y-81592158D01*
X132254801Y-81467700D01*
X132255614Y-81467157D01*
X133354113Y-81467157D01*
X133979800Y-81342700D01*
X134510233Y-80988277D01*
X134648560Y-80781255D01*
X134648560Y-80988000D01*
X134692838Y-81223317D01*
X134831910Y-81439441D01*
X135044110Y-81584431D01*
X135296000Y-81635440D01*
X136796000Y-81635440D01*
X137031317Y-81591162D01*
X137206834Y-81478220D01*
X137438565Y-81633058D01*
X138016417Y-81748000D01*
X138075583Y-81748000D01*
X138653435Y-81633058D01*
X139143314Y-81305731D01*
X139470641Y-80815852D01*
X139585583Y-80238000D01*
X139470641Y-79660148D01*
X139143314Y-79170269D01*
X138653435Y-78842942D01*
X138075583Y-78728000D01*
X138016417Y-78728000D01*
X137438565Y-78842942D01*
X137205065Y-78998962D01*
X137047890Y-78891569D01*
X136796000Y-78840560D01*
X135972942Y-78840560D01*
X136694454Y-78191637D01*
X140418953Y-78191637D01*
X144745751Y-82518434D01*
G36*
X74811199Y-60672200D02*
X74855888Y-60766800D01*
X74891180Y-60865292D01*
X76391180Y-63365292D01*
X76402699Y-63377990D01*
X76409244Y-63393837D01*
X77409244Y-64893837D01*
X77458899Y-64943596D01*
X77497954Y-65002046D01*
X77997954Y-65502046D01*
X78040135Y-65530230D01*
X78074000Y-65568000D01*
X80074000Y-67068000D01*
X80114139Y-67087249D01*
X80147741Y-67116453D01*
X83647741Y-69116453D01*
X83654525Y-69118722D01*
X83660015Y-69123306D01*
X89107239Y-72094519D01*
X98560052Y-79557266D01*
X98669100Y-79612925D01*
X98775478Y-79673565D01*
X98791984Y-79675646D01*
X98806798Y-79683207D01*
X98928853Y-79692900D01*
X99050331Y-79708213D01*
X99066373Y-79703820D01*
X99082957Y-79705137D01*
X99199427Y-79667383D01*
X99317522Y-79635043D01*
X101901793Y-78342907D01*
X109569113Y-78342907D01*
X109569113Y-78833467D01*
X109665786Y-79066856D01*
X109844415Y-79245484D01*
X110077804Y-79342157D01*
X110268363Y-79342157D01*
X110427113Y-79183407D01*
X110427113Y-78184157D01*
X109727863Y-78184157D01*
X109569113Y-78342907D01*
X101901793Y-78342907D01*
X104025913Y-77280847D01*
X109569113Y-77280847D01*
X109569113Y-77771407D01*
X109727863Y-77930157D01*
X110427113Y-77930157D01*
X110427113Y-77208407D01*
X110452113Y-77183407D01*
X110452113Y-76184157D01*
X109752863Y-76184157D01*
X109594113Y-76342907D01*
X109594113Y-76833467D01*
X109677782Y-77035462D01*
X109665786Y-77047458D01*
X109569113Y-77280847D01*
X104025913Y-77280847D01*
X105263987Y-76661810D01*
X109594113Y-75343946D01*
X109594113Y-75771407D01*
X109752863Y-75930157D01*
X110452113Y-75930157D01*
X110452113Y-75910157D01*
X110706113Y-75910157D01*
X110706113Y-75930157D01*
X110726113Y-75930157D01*
X110726113Y-76184157D01*
X110706113Y-76184157D01*
X110706113Y-76905907D01*
X110681113Y-76930907D01*
X110681113Y-77930157D01*
X110701113Y-77930157D01*
X110701113Y-78184157D01*
X110681113Y-78184157D01*
X110681113Y-79183407D01*
X110839863Y-79342157D01*
X111030422Y-79342157D01*
X111263811Y-79245484D01*
X111442440Y-79066856D01*
X111498767Y-78930870D01*
X111500951Y-78942474D01*
X111640023Y-79158598D01*
X111852223Y-79303588D01*
X112104113Y-79354597D01*
X112804113Y-79354597D01*
X113039430Y-79310319D01*
X113255554Y-79171247D01*
X113353336Y-79028138D01*
X115152560Y-80827362D01*
X115152560Y-81460200D01*
X109842300Y-81460200D01*
X109541893Y-81519955D01*
X109287221Y-81690121D01*
X107155595Y-83821747D01*
X107155595Y-81604857D01*
X107561048Y-81199404D01*
X107696133Y-81001701D01*
X107750617Y-80750539D01*
X107703093Y-80497968D01*
X107561048Y-80283786D01*
X106853404Y-79576142D01*
X106655701Y-79441057D01*
X106404539Y-79386573D01*
X106151968Y-79434097D01*
X105937786Y-79576142D01*
X105230142Y-80283786D01*
X105095057Y-80481489D01*
X105040573Y-80732651D01*
X105088097Y-80985222D01*
X105230142Y-81199404D01*
X105635595Y-81604857D01*
X105635595Y-83850446D01*
X105573568Y-83876074D01*
X103892250Y-82194756D01*
X103645688Y-82030009D01*
X103354849Y-81972157D01*
X100549113Y-81972157D01*
X100258273Y-82030009D01*
X100011712Y-82194756D01*
X96339433Y-85867035D01*
X96293946Y-85866995D01*
X95950170Y-86009040D01*
X95686921Y-86271830D01*
X95544275Y-86615358D01*
X95543951Y-86987324D01*
X95685996Y-87331100D01*
X95948786Y-87594349D01*
X96292314Y-87736995D01*
X96664280Y-87737319D01*
X97008056Y-87595274D01*
X97271305Y-87332484D01*
X97413951Y-86988956D01*
X97413992Y-86942080D01*
X100319239Y-84036833D01*
X100318951Y-84367324D01*
X100460996Y-84711100D01*
X100723786Y-84974349D01*
X101067314Y-85116995D01*
X101089168Y-85117014D01*
X102793991Y-86821837D01*
X102793951Y-86867324D01*
X102935996Y-87211100D01*
X103198786Y-87474349D01*
X103413737Y-87563605D01*
X101225785Y-89751557D01*
X101154946Y-89751495D01*
X100811170Y-89893540D01*
X100547921Y-90156330D01*
X100405275Y-90499858D01*
X100404951Y-90871824D01*
X100546996Y-91215600D01*
X100809786Y-91478849D01*
X101153314Y-91621495D01*
X101235401Y-91621567D01*
X100993212Y-91863756D01*
X100828465Y-92110318D01*
X100770613Y-92401157D01*
X100770613Y-97896492D01*
X97617305Y-94684707D01*
X97610984Y-94680399D01*
X97606733Y-94674037D01*
X97347629Y-94500909D01*
X97090151Y-94325426D01*
X97082661Y-94323865D01*
X97076300Y-94319614D01*
X96770724Y-94258831D01*
X96465633Y-94195225D01*
X96458114Y-94196649D01*
X96450613Y-94195157D01*
X94164613Y-94195157D01*
X93538926Y-94319614D01*
X93008493Y-94674037D01*
X93008491Y-94674040D01*
X92180113Y-95502418D01*
X92180113Y-87569824D01*
X92848451Y-87569824D01*
X92990496Y-87913600D01*
X93253286Y-88176849D01*
X93596814Y-88319495D01*
X93968780Y-88319819D01*
X94312556Y-88177774D01*
X94575805Y-87914984D01*
X94718451Y-87571456D01*
X94718775Y-87199490D01*
X94576730Y-86855714D01*
X94313940Y-86592465D01*
X93970412Y-86449819D01*
X93598446Y-86449495D01*
X93254670Y-86591540D01*
X92991421Y-86854330D01*
X92848775Y-87197858D01*
X92848451Y-87569824D01*
X92180113Y-87569824D01*
X92180113Y-81352162D01*
X92180114Y-81352157D01*
X92055656Y-80726470D01*
X92004832Y-80650406D01*
X91701233Y-80196037D01*
X91701230Y-80196035D01*
X90749600Y-79244404D01*
X90621733Y-79053037D01*
X90621730Y-79053035D01*
X73135000Y-61566304D01*
X73135000Y-60401940D01*
X74421907Y-59115033D01*
X74811199Y-60672200D01*
X74811199Y-60672200D01*
G37*
X74811199Y-60672200D02*
X74855888Y-60766800D01*
X74891180Y-60865292D01*
X76391180Y-63365292D01*
X76402699Y-63377990D01*
X76409244Y-63393837D01*
X77409244Y-64893837D01*
X77458899Y-64943596D01*
X77497954Y-65002046D01*
X77997954Y-65502046D01*
X78040135Y-65530230D01*
X78074000Y-65568000D01*
X80074000Y-67068000D01*
X80114139Y-67087249D01*
X80147741Y-67116453D01*
X83647741Y-69116453D01*
X83654525Y-69118722D01*
X83660015Y-69123306D01*
X89107239Y-72094519D01*
X98560052Y-79557266D01*
X98669100Y-79612925D01*
X98775478Y-79673565D01*
X98791984Y-79675646D01*
X98806798Y-79683207D01*
X98928853Y-79692900D01*
X99050331Y-79708213D01*
X99066373Y-79703820D01*
X99082957Y-79705137D01*
X99199427Y-79667383D01*
X99317522Y-79635043D01*
X101901793Y-78342907D01*
X109569113Y-78342907D01*
X109569113Y-78833467D01*
X109665786Y-79066856D01*
X109844415Y-79245484D01*
X110077804Y-79342157D01*
X110268363Y-79342157D01*
X110427113Y-79183407D01*
X110427113Y-78184157D01*
X109727863Y-78184157D01*
X109569113Y-78342907D01*
X101901793Y-78342907D01*
X104025913Y-77280847D01*
X109569113Y-77280847D01*
X109569113Y-77771407D01*
X109727863Y-77930157D01*
X110427113Y-77930157D01*
X110427113Y-77208407D01*
X110452113Y-77183407D01*
X110452113Y-76184157D01*
X109752863Y-76184157D01*
X109594113Y-76342907D01*
X109594113Y-76833467D01*
X109677782Y-77035462D01*
X109665786Y-77047458D01*
X109569113Y-77280847D01*
X104025913Y-77280847D01*
X105263987Y-76661810D01*
X109594113Y-75343946D01*
X109594113Y-75771407D01*
X109752863Y-75930157D01*
X110452113Y-75930157D01*
X110452113Y-75910157D01*
X110706113Y-75910157D01*
X110706113Y-75930157D01*
X110726113Y-75930157D01*
X110726113Y-76184157D01*
X110706113Y-76184157D01*
X110706113Y-76905907D01*
X110681113Y-76930907D01*
X110681113Y-77930157D01*
X110701113Y-77930157D01*
X110701113Y-78184157D01*
X110681113Y-78184157D01*
X110681113Y-79183407D01*
X110839863Y-79342157D01*
X111030422Y-79342157D01*
X111263811Y-79245484D01*
X111442440Y-79066856D01*
X111498767Y-78930870D01*
X111500951Y-78942474D01*
X111640023Y-79158598D01*
X111852223Y-79303588D01*
X112104113Y-79354597D01*
X112804113Y-79354597D01*
X113039430Y-79310319D01*
X113255554Y-79171247D01*
X113353336Y-79028138D01*
X115152560Y-80827362D01*
X115152560Y-81460200D01*
X109842300Y-81460200D01*
X109541893Y-81519955D01*
X109287221Y-81690121D01*
X107155595Y-83821747D01*
X107155595Y-81604857D01*
X107561048Y-81199404D01*
X107696133Y-81001701D01*
X107750617Y-80750539D01*
X107703093Y-80497968D01*
X107561048Y-80283786D01*
X106853404Y-79576142D01*
X106655701Y-79441057D01*
X106404539Y-79386573D01*
X106151968Y-79434097D01*
X105937786Y-79576142D01*
X105230142Y-80283786D01*
X105095057Y-80481489D01*
X105040573Y-80732651D01*
X105088097Y-80985222D01*
X105230142Y-81199404D01*
X105635595Y-81604857D01*
X105635595Y-83850446D01*
X105573568Y-83876074D01*
X103892250Y-82194756D01*
X103645688Y-82030009D01*
X103354849Y-81972157D01*
X100549113Y-81972157D01*
X100258273Y-82030009D01*
X100011712Y-82194756D01*
X96339433Y-85867035D01*
X96293946Y-85866995D01*
X95950170Y-86009040D01*
X95686921Y-86271830D01*
X95544275Y-86615358D01*
X95543951Y-86987324D01*
X95685996Y-87331100D01*
X95948786Y-87594349D01*
X96292314Y-87736995D01*
X96664280Y-87737319D01*
X97008056Y-87595274D01*
X97271305Y-87332484D01*
X97413951Y-86988956D01*
X97413992Y-86942080D01*
X100319239Y-84036833D01*
X100318951Y-84367324D01*
X100460996Y-84711100D01*
X100723786Y-84974349D01*
X101067314Y-85116995D01*
X101089168Y-85117014D01*
X102793991Y-86821837D01*
X102793951Y-86867324D01*
X102935996Y-87211100D01*
X103198786Y-87474349D01*
X103413737Y-87563605D01*
X101225785Y-89751557D01*
X101154946Y-89751495D01*
X100811170Y-89893540D01*
X100547921Y-90156330D01*
X100405275Y-90499858D01*
X100404951Y-90871824D01*
X100546996Y-91215600D01*
X100809786Y-91478849D01*
X101153314Y-91621495D01*
X101235401Y-91621567D01*
X100993212Y-91863756D01*
X100828465Y-92110318D01*
X100770613Y-92401157D01*
X100770613Y-97896492D01*
X97617305Y-94684707D01*
X97610984Y-94680399D01*
X97606733Y-94674037D01*
X97347629Y-94500909D01*
X97090151Y-94325426D01*
X97082661Y-94323865D01*
X97076300Y-94319614D01*
X96770724Y-94258831D01*
X96465633Y-94195225D01*
X96458114Y-94196649D01*
X96450613Y-94195157D01*
X94164613Y-94195157D01*
X93538926Y-94319614D01*
X93008493Y-94674037D01*
X93008491Y-94674040D01*
X92180113Y-95502418D01*
X92180113Y-87569824D01*
X92848451Y-87569824D01*
X92990496Y-87913600D01*
X93253286Y-88176849D01*
X93596814Y-88319495D01*
X93968780Y-88319819D01*
X94312556Y-88177774D01*
X94575805Y-87914984D01*
X94718451Y-87571456D01*
X94718775Y-87199490D01*
X94576730Y-86855714D01*
X94313940Y-86592465D01*
X93970412Y-86449819D01*
X93598446Y-86449495D01*
X93254670Y-86591540D01*
X92991421Y-86854330D01*
X92848775Y-87197858D01*
X92848451Y-87569824D01*
X92180113Y-87569824D01*
X92180113Y-81352162D01*
X92180114Y-81352157D01*
X92055656Y-80726470D01*
X92004832Y-80650406D01*
X91701233Y-80196037D01*
X91701230Y-80196035D01*
X90749600Y-79244404D01*
X90621733Y-79053037D01*
X90621730Y-79053035D01*
X73135000Y-61566304D01*
X73135000Y-60401940D01*
X74421907Y-59115033D01*
X74811199Y-60672200D01*
G36*
X126525000Y-91847440D02*
X126942402Y-91847440D01*
X126549047Y-92240795D01*
X126378881Y-92495467D01*
X126322504Y-92778891D01*
X126319126Y-92795874D01*
X126319126Y-93928756D01*
X126050713Y-94197169D01*
X126044188Y-94197169D01*
X126138951Y-93968956D01*
X126139275Y-93596990D01*
X125997230Y-93253214D01*
X125960000Y-93215919D01*
X125960000Y-91847440D01*
X126275000Y-91847440D01*
X126404589Y-91823056D01*
X126525000Y-91847440D01*
X126525000Y-91847440D01*
G37*
X126525000Y-91847440D02*
X126942402Y-91847440D01*
X126549047Y-92240795D01*
X126378881Y-92495467D01*
X126322504Y-92778891D01*
X126319126Y-92795874D01*
X126319126Y-93928756D01*
X126050713Y-94197169D01*
X126044188Y-94197169D01*
X126138951Y-93968956D01*
X126139275Y-93596990D01*
X125997230Y-93253214D01*
X125960000Y-93215919D01*
X125960000Y-91847440D01*
X126275000Y-91847440D01*
X126404589Y-91823056D01*
X126525000Y-91847440D01*
G36*
X113761673Y-85465301D02*
X113665000Y-85698690D01*
X113665000Y-86164250D01*
X113823750Y-86323000D01*
X114673000Y-86323000D01*
X114673000Y-86303000D01*
X114927000Y-86303000D01*
X114927000Y-86323000D01*
X114947000Y-86323000D01*
X114947000Y-86577000D01*
X114927000Y-86577000D01*
X114927000Y-87551250D01*
X114975500Y-87599750D01*
X114975500Y-89289500D01*
X115035255Y-89589907D01*
X115205421Y-89844579D01*
X115531076Y-90170233D01*
X115389683Y-90196838D01*
X115173559Y-90335910D01*
X115028569Y-90548110D01*
X114977560Y-90800000D01*
X114977560Y-91800000D01*
X115021838Y-92035317D01*
X115160910Y-92251441D01*
X115229006Y-92297969D01*
X115086673Y-92440302D01*
X114990000Y-92673691D01*
X114990000Y-93014250D01*
X115148750Y-93173000D01*
X116123000Y-93173000D01*
X116123000Y-93153000D01*
X116377000Y-93153000D01*
X116377000Y-93173000D01*
X116397000Y-93173000D01*
X116397000Y-93427000D01*
X116377000Y-93427000D01*
X116377000Y-93447000D01*
X116123000Y-93447000D01*
X116123000Y-93427000D01*
X115148750Y-93427000D01*
X114990000Y-93585750D01*
X114990000Y-93926309D01*
X115078514Y-94140000D01*
X114613742Y-94140000D01*
X113946930Y-93473188D01*
X113946930Y-89253396D01*
X114011673Y-89409699D01*
X114190302Y-89588327D01*
X114423691Y-89685000D01*
X114614250Y-89685000D01*
X114773000Y-89526250D01*
X114773000Y-88527000D01*
X114753000Y-88527000D01*
X114753000Y-88273000D01*
X114773000Y-88273000D01*
X114773000Y-87273750D01*
X114673000Y-87173750D01*
X114673000Y-86577000D01*
X113823750Y-86577000D01*
X113665000Y-86735750D01*
X113665000Y-87201310D01*
X113761673Y-87434699D01*
X113925446Y-87598471D01*
X113915000Y-87623690D01*
X113915000Y-88114250D01*
X114073748Y-88272998D01*
X113922760Y-88272998D01*
X113902652Y-88166133D01*
X113763580Y-87950009D01*
X113551380Y-87805019D01*
X113299490Y-87754010D01*
X111300510Y-87754010D01*
X111065193Y-87798288D01*
X110849069Y-87937360D01*
X110704079Y-88149560D01*
X110653070Y-88401450D01*
X110653070Y-90734204D01*
X110486799Y-90665162D01*
X110475310Y-90665152D01*
X110155079Y-90344921D01*
X109900407Y-90174755D01*
X109879266Y-90170550D01*
X109878162Y-90164683D01*
X109739090Y-89948559D01*
X109526890Y-89803569D01*
X109275000Y-89752560D01*
X108674808Y-89752560D01*
X111282796Y-87144572D01*
X111476661Y-87186627D01*
X111729232Y-87139103D01*
X111943414Y-86997058D01*
X112651058Y-86289414D01*
X112786143Y-86091711D01*
X112840627Y-85840549D01*
X112800433Y-85626935D01*
X113060368Y-85367000D01*
X113859975Y-85367000D01*
X113761673Y-85465301D01*
X113761673Y-85465301D01*
G37*
X113761673Y-85465301D02*
X113665000Y-85698690D01*
X113665000Y-86164250D01*
X113823750Y-86323000D01*
X114673000Y-86323000D01*
X114673000Y-86303000D01*
X114927000Y-86303000D01*
X114927000Y-86323000D01*
X114947000Y-86323000D01*
X114947000Y-86577000D01*
X114927000Y-86577000D01*
X114927000Y-87551250D01*
X114975500Y-87599750D01*
X114975500Y-89289500D01*
X115035255Y-89589907D01*
X115205421Y-89844579D01*
X115531076Y-90170233D01*
X115389683Y-90196838D01*
X115173559Y-90335910D01*
X115028569Y-90548110D01*
X114977560Y-90800000D01*
X114977560Y-91800000D01*
X115021838Y-92035317D01*
X115160910Y-92251441D01*
X115229006Y-92297969D01*
X115086673Y-92440302D01*
X114990000Y-92673691D01*
X114990000Y-93014250D01*
X115148750Y-93173000D01*
X116123000Y-93173000D01*
X116123000Y-93153000D01*
X116377000Y-93153000D01*
X116377000Y-93173000D01*
X116397000Y-93173000D01*
X116397000Y-93427000D01*
X116377000Y-93427000D01*
X116377000Y-93447000D01*
X116123000Y-93447000D01*
X116123000Y-93427000D01*
X115148750Y-93427000D01*
X114990000Y-93585750D01*
X114990000Y-93926309D01*
X115078514Y-94140000D01*
X114613742Y-94140000D01*
X113946930Y-93473188D01*
X113946930Y-89253396D01*
X114011673Y-89409699D01*
X114190302Y-89588327D01*
X114423691Y-89685000D01*
X114614250Y-89685000D01*
X114773000Y-89526250D01*
X114773000Y-88527000D01*
X114753000Y-88527000D01*
X114753000Y-88273000D01*
X114773000Y-88273000D01*
X114773000Y-87273750D01*
X114673000Y-87173750D01*
X114673000Y-86577000D01*
X113823750Y-86577000D01*
X113665000Y-86735750D01*
X113665000Y-87201310D01*
X113761673Y-87434699D01*
X113925446Y-87598471D01*
X113915000Y-87623690D01*
X113915000Y-88114250D01*
X114073748Y-88272998D01*
X113922760Y-88272998D01*
X113902652Y-88166133D01*
X113763580Y-87950009D01*
X113551380Y-87805019D01*
X113299490Y-87754010D01*
X111300510Y-87754010D01*
X111065193Y-87798288D01*
X110849069Y-87937360D01*
X110704079Y-88149560D01*
X110653070Y-88401450D01*
X110653070Y-90734204D01*
X110486799Y-90665162D01*
X110475310Y-90665152D01*
X110155079Y-90344921D01*
X109900407Y-90174755D01*
X109879266Y-90170550D01*
X109878162Y-90164683D01*
X109739090Y-89948559D01*
X109526890Y-89803569D01*
X109275000Y-89752560D01*
X108674808Y-89752560D01*
X111282796Y-87144572D01*
X111476661Y-87186627D01*
X111729232Y-87139103D01*
X111943414Y-86997058D01*
X112651058Y-86289414D01*
X112786143Y-86091711D01*
X112840627Y-85840549D01*
X112800433Y-85626935D01*
X113060368Y-85367000D01*
X113859975Y-85367000D01*
X113761673Y-85465301D01*
G36*
X150556673Y-83907157D02*
X150556673Y-89507157D01*
X150600951Y-89742474D01*
X150740023Y-89958598D01*
X150952223Y-90103588D01*
X151204113Y-90154597D01*
X153504113Y-90154597D01*
X153739430Y-90110319D01*
X153955554Y-89971247D01*
X154100544Y-89759047D01*
X154151553Y-89507157D01*
X154151553Y-88926887D01*
X154819113Y-89594447D01*
X154819113Y-90422300D01*
X154468946Y-90421995D01*
X154125170Y-90564040D01*
X153861921Y-90826830D01*
X153719275Y-91170358D01*
X153719234Y-91217234D01*
X152303968Y-92632500D01*
X152151779Y-92632500D01*
X152028590Y-92441059D01*
X151958789Y-92393366D01*
X152015941Y-92356590D01*
X152160931Y-92144390D01*
X152211940Y-91892500D01*
X152211940Y-90892500D01*
X152167662Y-90657183D01*
X152028590Y-90441059D01*
X151816390Y-90296069D01*
X151564500Y-90245060D01*
X150314500Y-90245060D01*
X150079183Y-90289338D01*
X149863059Y-90428410D01*
X149808251Y-90508624D01*
X149771290Y-90483369D01*
X149519400Y-90432360D01*
X148219400Y-90432360D01*
X147984083Y-90476638D01*
X147767959Y-90615710D01*
X147731001Y-90669800D01*
X147726202Y-90669800D01*
X147417701Y-90361299D01*
X147171139Y-90196552D01*
X146895917Y-90141806D01*
X146818990Y-90022259D01*
X146615636Y-89883313D01*
X146700544Y-89759047D01*
X146751553Y-89507157D01*
X146751553Y-84582007D01*
X147536233Y-83797327D01*
X150578914Y-83797327D01*
X150556673Y-83907157D01*
X150556673Y-83907157D01*
G37*
X150556673Y-83907157D02*
X150556673Y-89507157D01*
X150600951Y-89742474D01*
X150740023Y-89958598D01*
X150952223Y-90103588D01*
X151204113Y-90154597D01*
X153504113Y-90154597D01*
X153739430Y-90110319D01*
X153955554Y-89971247D01*
X154100544Y-89759047D01*
X154151553Y-89507157D01*
X154151553Y-88926887D01*
X154819113Y-89594447D01*
X154819113Y-90422300D01*
X154468946Y-90421995D01*
X154125170Y-90564040D01*
X153861921Y-90826830D01*
X153719275Y-91170358D01*
X153719234Y-91217234D01*
X152303968Y-92632500D01*
X152151779Y-92632500D01*
X152028590Y-92441059D01*
X151958789Y-92393366D01*
X152015941Y-92356590D01*
X152160931Y-92144390D01*
X152211940Y-91892500D01*
X152211940Y-90892500D01*
X152167662Y-90657183D01*
X152028590Y-90441059D01*
X151816390Y-90296069D01*
X151564500Y-90245060D01*
X150314500Y-90245060D01*
X150079183Y-90289338D01*
X149863059Y-90428410D01*
X149808251Y-90508624D01*
X149771290Y-90483369D01*
X149519400Y-90432360D01*
X148219400Y-90432360D01*
X147984083Y-90476638D01*
X147767959Y-90615710D01*
X147731001Y-90669800D01*
X147726202Y-90669800D01*
X147417701Y-90361299D01*
X147171139Y-90196552D01*
X146895917Y-90141806D01*
X146818990Y-90022259D01*
X146615636Y-89883313D01*
X146700544Y-89759047D01*
X146751553Y-89507157D01*
X146751553Y-84582007D01*
X147536233Y-83797327D01*
X150578914Y-83797327D01*
X150556673Y-83907157D01*
G36*
X126710910Y-81401441D02*
X126923110Y-81546431D01*
X127175000Y-81597440D01*
X128175000Y-81597440D01*
X128410317Y-81553162D01*
X128626441Y-81414090D01*
X128674134Y-81344289D01*
X128710910Y-81401441D01*
X128923110Y-81546431D01*
X129175000Y-81597440D01*
X129390000Y-81597440D01*
X129390000Y-86737721D01*
X129198559Y-86860910D01*
X129152031Y-86929006D01*
X129009698Y-86786673D01*
X128776309Y-86690000D01*
X128435750Y-86690000D01*
X128277000Y-86848750D01*
X128277000Y-87823000D01*
X128297000Y-87823000D01*
X128297000Y-88077000D01*
X128277000Y-88077000D01*
X128277000Y-88097000D01*
X128023000Y-88097000D01*
X128023000Y-88077000D01*
X128003000Y-88077000D01*
X128003000Y-87823000D01*
X128023000Y-87823000D01*
X128023000Y-86848750D01*
X127864250Y-86690000D01*
X127523691Y-86690000D01*
X127371526Y-86753029D01*
X127355465Y-86672286D01*
X127352148Y-86655608D01*
X127187401Y-86409047D01*
X125610000Y-84831646D01*
X125610000Y-84289802D01*
X126048529Y-83851273D01*
X126155079Y-83780079D01*
X126325245Y-83525406D01*
X126385000Y-83225000D01*
X126385000Y-83222038D01*
X126485317Y-83203162D01*
X126701441Y-83064090D01*
X126846431Y-82851890D01*
X126897440Y-82600000D01*
X126897440Y-81900000D01*
X126853162Y-81664683D01*
X126714090Y-81448559D01*
X126501890Y-81303569D01*
X126488803Y-81300919D01*
X126600129Y-81229282D01*
X126710910Y-81401441D01*
X126710910Y-81401441D01*
G37*
X126710910Y-81401441D02*
X126923110Y-81546431D01*
X127175000Y-81597440D01*
X128175000Y-81597440D01*
X128410317Y-81553162D01*
X128626441Y-81414090D01*
X128674134Y-81344289D01*
X128710910Y-81401441D01*
X128923110Y-81546431D01*
X129175000Y-81597440D01*
X129390000Y-81597440D01*
X129390000Y-86737721D01*
X129198559Y-86860910D01*
X129152031Y-86929006D01*
X129009698Y-86786673D01*
X128776309Y-86690000D01*
X128435750Y-86690000D01*
X128277000Y-86848750D01*
X128277000Y-87823000D01*
X128297000Y-87823000D01*
X128297000Y-88077000D01*
X128277000Y-88077000D01*
X128277000Y-88097000D01*
X128023000Y-88097000D01*
X128023000Y-88077000D01*
X128003000Y-88077000D01*
X128003000Y-87823000D01*
X128023000Y-87823000D01*
X128023000Y-86848750D01*
X127864250Y-86690000D01*
X127523691Y-86690000D01*
X127371526Y-86753029D01*
X127355465Y-86672286D01*
X127352148Y-86655608D01*
X127187401Y-86409047D01*
X125610000Y-84831646D01*
X125610000Y-84289802D01*
X126048529Y-83851273D01*
X126155079Y-83780079D01*
X126325245Y-83525406D01*
X126385000Y-83225000D01*
X126385000Y-83222038D01*
X126485317Y-83203162D01*
X126701441Y-83064090D01*
X126846431Y-82851890D01*
X126897440Y-82600000D01*
X126897440Y-81900000D01*
X126853162Y-81664683D01*
X126714090Y-81448559D01*
X126501890Y-81303569D01*
X126488803Y-81300919D01*
X126600129Y-81229282D01*
X126710910Y-81401441D01*
G36*
X66698380Y-42652234D02*
X69547666Y-44551758D01*
X71448242Y-46452334D01*
X73368239Y-49332329D01*
X74316573Y-51703167D01*
X74775939Y-54000000D01*
X74303788Y-56360758D01*
X74303714Y-56431054D01*
X74290000Y-56500000D01*
X74290000Y-58045956D01*
X72311362Y-56067318D01*
X72113659Y-55932233D01*
X71862497Y-55877749D01*
X71609926Y-55925273D01*
X71395744Y-56067318D01*
X68567317Y-58895745D01*
X68432232Y-59093448D01*
X68377748Y-59344610D01*
X68425272Y-59597181D01*
X68567317Y-59811363D01*
X69865000Y-61109046D01*
X69865000Y-62243539D01*
X69864999Y-62243544D01*
X69989457Y-62869232D01*
X70343880Y-63399664D01*
X83338907Y-76394690D01*
X83100907Y-76493030D01*
X83002902Y-76590864D01*
X71735981Y-65323943D01*
X71736230Y-65039022D01*
X71563800Y-64621711D01*
X71244798Y-64302152D01*
X70827789Y-64128994D01*
X70376258Y-64128600D01*
X69958947Y-64301030D01*
X69639388Y-64620032D01*
X69466230Y-65037041D01*
X69465836Y-65488572D01*
X69638266Y-65905883D01*
X69957268Y-66225442D01*
X70374277Y-66398600D01*
X70661284Y-66398850D01*
X82255632Y-77993198D01*
X82502194Y-78157945D01*
X82793033Y-78215797D01*
X82897934Y-78215797D01*
X83099228Y-78417442D01*
X83516237Y-78590600D01*
X83967768Y-78590994D01*
X84385079Y-78418564D01*
X84704638Y-78099562D01*
X84804144Y-77859927D01*
X88181623Y-81237406D01*
X88309493Y-81428777D01*
X88910113Y-82029396D01*
X88910113Y-87629847D01*
X88907233Y-87625537D01*
X65625576Y-64343880D01*
X65512109Y-64268064D01*
X63811362Y-62567317D01*
X63613659Y-62432232D01*
X63362497Y-62377748D01*
X63109926Y-62425272D01*
X62895744Y-62567317D01*
X60067317Y-65395744D01*
X59932232Y-65593447D01*
X59877748Y-65844609D01*
X59925272Y-66097180D01*
X60067317Y-66311362D01*
X60083431Y-66327476D01*
X60124532Y-66578300D01*
X60316809Y-66888337D01*
X60613094Y-67101193D01*
X60931884Y-67175929D01*
X62188638Y-68432683D01*
X62386341Y-68567768D01*
X62637503Y-68622252D01*
X62890074Y-68574728D01*
X63104256Y-68432683D01*
X64097078Y-67439862D01*
X67411706Y-70754490D01*
X66893837Y-70409244D01*
X66852689Y-70392251D01*
X66817522Y-70364957D01*
X64817522Y-69364957D01*
X64726447Y-69340016D01*
X64639243Y-69303788D01*
X62139242Y-68803788D01*
X62068946Y-68803714D01*
X62000000Y-68790000D01*
X55570303Y-68790000D01*
X53232479Y-68322435D01*
X52357060Y-67884726D01*
X49529971Y-66000000D01*
X50940000Y-66000000D01*
X51054942Y-66577852D01*
X51382269Y-67067731D01*
X51872148Y-67395058D01*
X52450000Y-67510000D01*
X53027852Y-67395058D01*
X53517731Y-67067731D01*
X53845058Y-66577852D01*
X53960000Y-66000000D01*
X53845058Y-65422148D01*
X53517731Y-64932269D01*
X53027852Y-64604942D01*
X52450000Y-64490000D01*
X51872148Y-64604942D01*
X51382269Y-64932269D01*
X51054942Y-65422148D01*
X50940000Y-66000000D01*
X49529971Y-66000000D01*
X49485556Y-65970390D01*
X47573667Y-63580529D01*
X46658973Y-62208489D01*
X46210000Y-60412596D01*
X46210000Y-57599439D01*
X46438411Y-56800000D01*
X59040000Y-56800000D01*
X59246286Y-57837072D01*
X59833741Y-58716259D01*
X60712928Y-59303714D01*
X61750000Y-59510000D01*
X62787072Y-59303714D01*
X63666259Y-58716259D01*
X64253714Y-57837072D01*
X64460000Y-56800000D01*
X64253714Y-55762928D01*
X63666259Y-54883741D01*
X62787072Y-54296286D01*
X61750000Y-54090000D01*
X60712928Y-54296286D01*
X59833741Y-54883741D01*
X59246286Y-55762928D01*
X59040000Y-56800000D01*
X46438411Y-56800000D01*
X47159078Y-54277665D01*
X49088995Y-50900311D01*
X49809243Y-50000000D01*
X52240000Y-50000000D01*
X52446286Y-51037072D01*
X53033741Y-51916259D01*
X53912928Y-52503714D01*
X54950000Y-52710000D01*
X55987072Y-52503714D01*
X56866259Y-51916259D01*
X57453714Y-51037072D01*
X57660000Y-50000000D01*
X57453714Y-48962928D01*
X56866259Y-48083741D01*
X56740932Y-48000000D01*
X68840000Y-48000000D01*
X68954942Y-48577852D01*
X69282269Y-49067731D01*
X69772148Y-49395058D01*
X70350000Y-49510000D01*
X70927852Y-49395058D01*
X71417731Y-49067731D01*
X71745058Y-48577852D01*
X71860000Y-48000000D01*
X71745058Y-47422148D01*
X71417731Y-46932269D01*
X70927852Y-46604942D01*
X70350000Y-46490000D01*
X69772148Y-46604942D01*
X69282269Y-46932269D01*
X68954942Y-47422148D01*
X68840000Y-48000000D01*
X56740932Y-48000000D01*
X55987072Y-47496286D01*
X54950000Y-47290000D01*
X53912928Y-47496286D01*
X53033741Y-48083741D01*
X52446286Y-48962928D01*
X52240000Y-50000000D01*
X49809243Y-50000000D01*
X50998110Y-48513917D01*
X52874784Y-47106412D01*
X53817522Y-46635043D01*
X53907422Y-46565271D01*
X54002046Y-46502046D01*
X54016220Y-46480833D01*
X54036372Y-46465193D01*
X54092730Y-46366327D01*
X54155954Y-46271705D01*
X54160931Y-46246686D01*
X54173565Y-46224522D01*
X54187798Y-46111617D01*
X54210000Y-46000000D01*
X54210000Y-45294092D01*
X54452334Y-45051758D01*
X57332329Y-43131761D01*
X59703167Y-42183427D01*
X62070303Y-41710000D01*
X63400561Y-41710000D01*
X66698380Y-42652234D01*
X66698380Y-42652234D01*
G37*
X66698380Y-42652234D02*
X69547666Y-44551758D01*
X71448242Y-46452334D01*
X73368239Y-49332329D01*
X74316573Y-51703167D01*
X74775939Y-54000000D01*
X74303788Y-56360758D01*
X74303714Y-56431054D01*
X74290000Y-56500000D01*
X74290000Y-58045956D01*
X72311362Y-56067318D01*
X72113659Y-55932233D01*
X71862497Y-55877749D01*
X71609926Y-55925273D01*
X71395744Y-56067318D01*
X68567317Y-58895745D01*
X68432232Y-59093448D01*
X68377748Y-59344610D01*
X68425272Y-59597181D01*
X68567317Y-59811363D01*
X69865000Y-61109046D01*
X69865000Y-62243539D01*
X69864999Y-62243544D01*
X69989457Y-62869232D01*
X70343880Y-63399664D01*
X83338907Y-76394690D01*
X83100907Y-76493030D01*
X83002902Y-76590864D01*
X71735981Y-65323943D01*
X71736230Y-65039022D01*
X71563800Y-64621711D01*
X71244798Y-64302152D01*
X70827789Y-64128994D01*
X70376258Y-64128600D01*
X69958947Y-64301030D01*
X69639388Y-64620032D01*
X69466230Y-65037041D01*
X69465836Y-65488572D01*
X69638266Y-65905883D01*
X69957268Y-66225442D01*
X70374277Y-66398600D01*
X70661284Y-66398850D01*
X82255632Y-77993198D01*
X82502194Y-78157945D01*
X82793033Y-78215797D01*
X82897934Y-78215797D01*
X83099228Y-78417442D01*
X83516237Y-78590600D01*
X83967768Y-78590994D01*
X84385079Y-78418564D01*
X84704638Y-78099562D01*
X84804144Y-77859927D01*
X88181623Y-81237406D01*
X88309493Y-81428777D01*
X88910113Y-82029396D01*
X88910113Y-87629847D01*
X88907233Y-87625537D01*
X65625576Y-64343880D01*
X65512109Y-64268064D01*
X63811362Y-62567317D01*
X63613659Y-62432232D01*
X63362497Y-62377748D01*
X63109926Y-62425272D01*
X62895744Y-62567317D01*
X60067317Y-65395744D01*
X59932232Y-65593447D01*
X59877748Y-65844609D01*
X59925272Y-66097180D01*
X60067317Y-66311362D01*
X60083431Y-66327476D01*
X60124532Y-66578300D01*
X60316809Y-66888337D01*
X60613094Y-67101193D01*
X60931884Y-67175929D01*
X62188638Y-68432683D01*
X62386341Y-68567768D01*
X62637503Y-68622252D01*
X62890074Y-68574728D01*
X63104256Y-68432683D01*
X64097078Y-67439862D01*
X67411706Y-70754490D01*
X66893837Y-70409244D01*
X66852689Y-70392251D01*
X66817522Y-70364957D01*
X64817522Y-69364957D01*
X64726447Y-69340016D01*
X64639243Y-69303788D01*
X62139242Y-68803788D01*
X62068946Y-68803714D01*
X62000000Y-68790000D01*
X55570303Y-68790000D01*
X53232479Y-68322435D01*
X52357060Y-67884726D01*
X49529971Y-66000000D01*
X50940000Y-66000000D01*
X51054942Y-66577852D01*
X51382269Y-67067731D01*
X51872148Y-67395058D01*
X52450000Y-67510000D01*
X53027852Y-67395058D01*
X53517731Y-67067731D01*
X53845058Y-66577852D01*
X53960000Y-66000000D01*
X53845058Y-65422148D01*
X53517731Y-64932269D01*
X53027852Y-64604942D01*
X52450000Y-64490000D01*
X51872148Y-64604942D01*
X51382269Y-64932269D01*
X51054942Y-65422148D01*
X50940000Y-66000000D01*
X49529971Y-66000000D01*
X49485556Y-65970390D01*
X47573667Y-63580529D01*
X46658973Y-62208489D01*
X46210000Y-60412596D01*
X46210000Y-57599439D01*
X46438411Y-56800000D01*
X59040000Y-56800000D01*
X59246286Y-57837072D01*
X59833741Y-58716259D01*
X60712928Y-59303714D01*
X61750000Y-59510000D01*
X62787072Y-59303714D01*
X63666259Y-58716259D01*
X64253714Y-57837072D01*
X64460000Y-56800000D01*
X64253714Y-55762928D01*
X63666259Y-54883741D01*
X62787072Y-54296286D01*
X61750000Y-54090000D01*
X60712928Y-54296286D01*
X59833741Y-54883741D01*
X59246286Y-55762928D01*
X59040000Y-56800000D01*
X46438411Y-56800000D01*
X47159078Y-54277665D01*
X49088995Y-50900311D01*
X49809243Y-50000000D01*
X52240000Y-50000000D01*
X52446286Y-51037072D01*
X53033741Y-51916259D01*
X53912928Y-52503714D01*
X54950000Y-52710000D01*
X55987072Y-52503714D01*
X56866259Y-51916259D01*
X57453714Y-51037072D01*
X57660000Y-50000000D01*
X57453714Y-48962928D01*
X56866259Y-48083741D01*
X56740932Y-48000000D01*
X68840000Y-48000000D01*
X68954942Y-48577852D01*
X69282269Y-49067731D01*
X69772148Y-49395058D01*
X70350000Y-49510000D01*
X70927852Y-49395058D01*
X71417731Y-49067731D01*
X71745058Y-48577852D01*
X71860000Y-48000000D01*
X71745058Y-47422148D01*
X71417731Y-46932269D01*
X70927852Y-46604942D01*
X70350000Y-46490000D01*
X69772148Y-46604942D01*
X69282269Y-46932269D01*
X68954942Y-47422148D01*
X68840000Y-48000000D01*
X56740932Y-48000000D01*
X55987072Y-47496286D01*
X54950000Y-47290000D01*
X53912928Y-47496286D01*
X53033741Y-48083741D01*
X52446286Y-48962928D01*
X52240000Y-50000000D01*
X49809243Y-50000000D01*
X50998110Y-48513917D01*
X52874784Y-47106412D01*
X53817522Y-46635043D01*
X53907422Y-46565271D01*
X54002046Y-46502046D01*
X54016220Y-46480833D01*
X54036372Y-46465193D01*
X54092730Y-46366327D01*
X54155954Y-46271705D01*
X54160931Y-46246686D01*
X54173565Y-46224522D01*
X54187798Y-46111617D01*
X54210000Y-46000000D01*
X54210000Y-45294092D01*
X54452334Y-45051758D01*
X57332329Y-43131761D01*
X59703167Y-42183427D01*
X62070303Y-41710000D01*
X63400561Y-41710000D01*
X66698380Y-42652234D01*
M02*
