%FSLAX45Y45*%
G04 Gerber Fmt 4.5, Leading zero omitted, Abs format (unit mm)*
G04 Created by KiCad (PCBNEW (5.0.0-rc2-dev-26-g0d794b2)) date Sunday, July 01, 2018 at 08:50:20 PM*
%MOMM*%
%LPD*%
G01*
G04 APERTURE LIST*
%ADD10C,0.150000*%
%ADD11C,0.200000*%
%ADD12C,0.300000*%
G04 APERTURE END LIST*
D10*
X9482911Y-16333216D02*
X9025000Y-16675000D01*
X9492911Y-16393216D02*
X9482911Y-16333216D01*
X9512911Y-16433216D02*
X9492911Y-16393216D01*
X9552911Y-16503216D02*
X9512911Y-16433216D01*
X9622911Y-16583216D02*
X9552911Y-16503216D01*
X9712911Y-16653216D02*
X9622911Y-16583216D01*
X9792911Y-16673216D02*
X9712911Y-16653216D01*
X9892911Y-16673216D02*
X9792911Y-16673216D01*
X10012911Y-16623216D02*
X9892911Y-16673216D01*
X10132911Y-16613216D02*
X10012911Y-16623216D01*
X10175000Y-16625000D02*
X10132911Y-16613216D01*
X14802911Y-16563216D02*
X14772911Y-16543216D01*
X14852911Y-16613216D02*
X14802911Y-16563216D01*
X14912911Y-16663216D02*
X14852911Y-16613216D01*
X14952911Y-16693216D02*
X14912911Y-16663216D01*
X15012911Y-16723216D02*
X14952911Y-16693216D01*
X15112911Y-16743216D02*
X15012911Y-16723216D01*
X15192911Y-16743216D02*
X15112911Y-16743216D01*
X15282911Y-16733216D02*
X15192911Y-16743216D01*
X15392911Y-16703216D02*
X15282911Y-16733216D01*
X15482911Y-16653216D02*
X15392911Y-16703216D01*
X15542911Y-16593216D02*
X15482911Y-16653216D01*
X15572911Y-16513216D02*
X15542911Y-16593216D01*
X15592911Y-16423216D02*
X15572911Y-16513216D01*
X15593911Y-16226157D02*
X15592911Y-16423216D01*
X14772911Y-16543216D02*
X14725000Y-16675000D01*
X17100000Y-17525000D02*
X15593911Y-16226216D01*
X10032911Y-16268216D02*
G75*
G03X10032911Y-16268216I-160000J0D01*
G01*
X15307911Y-16293216D02*
G75*
G03X15307911Y-16293216I-160000J0D01*
G01*
X17102911Y-9093216D02*
X16550000Y-9700000D01*
X18250000Y-7425000D02*
X17102911Y-9093216D01*
X8175000Y-10675000D02*
X8215411Y-9770716D01*
X8400000Y-9450000D02*
X8215411Y-9770716D01*
X18630411Y-20203216D02*
X19300000Y-20425000D01*
X18075000Y-19350000D02*
X18077911Y-19388216D01*
X18292911Y-20035716D02*
X18630411Y-20203216D01*
X18142911Y-19833216D02*
X18292911Y-20035716D01*
X18105411Y-19648216D02*
X18142911Y-19833216D01*
X18077911Y-19388216D02*
X18105411Y-19648216D01*
X17875000Y-18250000D02*
X17925000Y-18400000D01*
X17950000Y-18625000D02*
X17950000Y-18950000D01*
X17950000Y-18950000D02*
X17975000Y-19075000D01*
X17975000Y-19075000D02*
X18075000Y-19350000D01*
X18050000Y-5825000D02*
X18075000Y-5700000D01*
X17575000Y-6300000D02*
X18050000Y-5825000D01*
X20900000Y-5375000D02*
X20900000Y-5775000D01*
X18425000Y-7225000D02*
X18250000Y-7425000D01*
X18725000Y-6975000D02*
X18425000Y-7225000D01*
X19000000Y-6850000D02*
X18725000Y-6975000D01*
X19225000Y-6775000D02*
X19000000Y-6850000D01*
X19375000Y-6800000D02*
X19225000Y-6775000D01*
X19500000Y-6875000D02*
X19375000Y-6800000D01*
X19725000Y-6900000D02*
X19500000Y-6875000D01*
X19975000Y-6900000D02*
X19725000Y-6900000D01*
X20275000Y-6775000D02*
X19975000Y-6900000D01*
X20475000Y-6650000D02*
X20275000Y-6775000D01*
X20700000Y-6400000D02*
X20475000Y-6650000D01*
X20800000Y-6200000D02*
X20700000Y-6400000D01*
X20875000Y-5925000D02*
X20800000Y-6200000D01*
X20900000Y-5775000D02*
X20875000Y-5925000D01*
X20850000Y-5175000D02*
X20900000Y-5375000D01*
X20700000Y-4875000D02*
X20850000Y-5175000D01*
X20350000Y-4525000D02*
X20700000Y-4875000D01*
X19925000Y-4225000D02*
X20350000Y-4525000D01*
X19700000Y-4125000D02*
X19925000Y-4225000D01*
X19500000Y-4100000D02*
X19700000Y-4125000D01*
X19300000Y-4150000D02*
X19500000Y-4100000D01*
X19100000Y-4225000D02*
X19300000Y-4150000D01*
X18875000Y-4300000D02*
X19100000Y-4225000D01*
X18450000Y-4325000D02*
X18875000Y-4300000D01*
X18300000Y-4375000D02*
X18450000Y-4325000D01*
X18200000Y-4500000D02*
X18300000Y-4375000D01*
X18175000Y-4625000D02*
X18200000Y-4500000D01*
X18175000Y-4825000D02*
X18175000Y-4625000D01*
X18200000Y-5050000D02*
X18175000Y-4825000D01*
X18150000Y-5400000D02*
X18200000Y-5050000D01*
X18075000Y-5700000D02*
X18150000Y-5400000D01*
X18450000Y-4750000D02*
G75*
G03X18450000Y-4750000I-75000J0D01*
G01*
X20175000Y-5000000D02*
G75*
G03X20175000Y-5000000I-200000J0D01*
G01*
X20250000Y-6550000D02*
G75*
G03X20250000Y-6550000I-75000J0D01*
G01*
X19500000Y-5675000D02*
G75*
G03X19500000Y-5675000I-200000J0D01*
G01*
X17400000Y-6425000D02*
X17575000Y-6300000D01*
X17175000Y-6575000D02*
X17400000Y-6425000D01*
X17000000Y-6700000D02*
X17175000Y-6575000D01*
X16550000Y-6975000D02*
X17000000Y-6700000D01*
X16125000Y-7250000D02*
X16550000Y-6975000D01*
X15175000Y-7975000D02*
X16125000Y-7250000D01*
X19750000Y-20450000D02*
X19300000Y-20425000D01*
X20050000Y-20425000D02*
X19750000Y-20450000D01*
X16500000Y-14725000D02*
X16600000Y-14675000D01*
X16425000Y-14750000D02*
X16500000Y-14725000D01*
X17050000Y-15450000D02*
X16425000Y-14750000D01*
X17650000Y-16100000D02*
X17050000Y-15450000D01*
X18400000Y-16925000D02*
X17650000Y-16100000D01*
X18475000Y-16975000D02*
X18400000Y-16925000D01*
X18700000Y-17050000D02*
X18475000Y-16975000D01*
X18925000Y-17100000D02*
X18700000Y-17050000D01*
X19475000Y-17125000D02*
X18925000Y-17100000D01*
X19600000Y-17150000D02*
X19475000Y-17125000D01*
X19900000Y-17275000D02*
X19600000Y-17150000D01*
X20075000Y-17375000D02*
X19900000Y-17275000D01*
X20300000Y-17550000D02*
X20075000Y-17375000D01*
X20525000Y-17800000D02*
X20300000Y-17550000D01*
X20675000Y-18050000D02*
X20525000Y-17800000D01*
X20750000Y-18350000D02*
X20675000Y-18050000D01*
X20750000Y-18700000D02*
X20750000Y-18350000D01*
X20600000Y-19675000D02*
X20750000Y-18700000D01*
X20525000Y-19925000D02*
X20600000Y-19675000D01*
X20450000Y-20050000D02*
X20525000Y-19925000D01*
X20400000Y-20150000D02*
X20450000Y-20050000D01*
X20275000Y-20275000D02*
X20400000Y-20150000D01*
X20125000Y-20400000D02*
X20275000Y-20275000D01*
X20050000Y-20425000D02*
X20125000Y-20400000D01*
X17925000Y-18400000D02*
X17950000Y-18625000D01*
X17825000Y-18150000D02*
X17875000Y-18250000D01*
X17725000Y-18025000D02*
X17825000Y-18150000D01*
X17600000Y-17900000D02*
X17725000Y-18025000D01*
X17475000Y-17800000D02*
X17600000Y-17900000D01*
X17275000Y-17650000D02*
X17475000Y-17800000D01*
X17100000Y-17525000D02*
X17275000Y-17650000D01*
X8500000Y-17075000D02*
X9025000Y-16675000D01*
X8050000Y-17425000D02*
X8500000Y-17075000D01*
X7925000Y-17550000D02*
X8050000Y-17425000D01*
X7850000Y-17650000D02*
X7925000Y-17550000D01*
X7700000Y-17875000D02*
X7850000Y-17650000D01*
X7600000Y-18075000D02*
X7700000Y-17875000D01*
X7500000Y-18325000D02*
X7600000Y-18075000D01*
X7425000Y-18575000D02*
X7500000Y-18325000D01*
X7400000Y-18700000D02*
X7425000Y-18575000D01*
X7400000Y-18775000D02*
X7400000Y-18700000D01*
X7425000Y-18950000D02*
X7400000Y-18775000D01*
X7450000Y-19100000D02*
X7425000Y-18950000D01*
X7475000Y-19250000D02*
X7450000Y-19100000D01*
X7450000Y-19425000D02*
X7475000Y-19250000D01*
X7400000Y-19600000D02*
X7450000Y-19425000D01*
X7300000Y-19750000D02*
X7400000Y-19600000D01*
X7150000Y-19925000D02*
X7300000Y-19750000D01*
X6975000Y-20075000D02*
X7150000Y-19925000D01*
X6775000Y-20200000D02*
X6975000Y-20075000D01*
X6550000Y-20275000D02*
X6775000Y-20200000D01*
X6425000Y-20300000D02*
X6550000Y-20275000D01*
X6350000Y-20300000D02*
X6425000Y-20300000D01*
X6150000Y-20275000D02*
X6350000Y-20300000D01*
X5750000Y-20200000D02*
X6150000Y-20275000D01*
X5350000Y-20100000D02*
X5750000Y-20200000D01*
X5200000Y-20000000D02*
X5350000Y-20100000D01*
X5075000Y-19900000D02*
X5200000Y-20000000D01*
X5025000Y-19825000D02*
X5075000Y-19900000D01*
X4975000Y-19775000D02*
X5025000Y-19825000D01*
X4900000Y-19750000D02*
X4975000Y-19775000D01*
X4825000Y-19700000D02*
X4900000Y-19750000D01*
X4700000Y-19450000D02*
X4825000Y-19700000D01*
X4600000Y-19125000D02*
X4700000Y-19450000D01*
X4600000Y-18925000D02*
X4600000Y-19125000D01*
X4625000Y-18600000D02*
X4600000Y-18925000D01*
X4675000Y-18425000D02*
X4625000Y-18600000D01*
X4800000Y-18125000D02*
X4675000Y-18425000D01*
X4950000Y-17900000D02*
X4800000Y-18125000D01*
X5150000Y-17675000D02*
X4950000Y-17900000D01*
X5325000Y-17525000D02*
X5150000Y-17675000D01*
X5425000Y-17450000D02*
X5325000Y-17525000D01*
X5675000Y-17275000D02*
X5425000Y-17450000D01*
X5875000Y-17175000D02*
X5675000Y-17275000D01*
X6000000Y-17150000D02*
X5875000Y-17175000D01*
X6250000Y-17100000D02*
X6000000Y-17150000D01*
X6450000Y-17050000D02*
X6250000Y-17100000D01*
X6600000Y-16975000D02*
X6450000Y-17050000D01*
X6750000Y-16875000D02*
X6600000Y-16975000D01*
X6875000Y-16775000D02*
X6750000Y-16875000D01*
X7000000Y-16625000D02*
X6875000Y-16775000D01*
X7075000Y-16475000D02*
X7000000Y-16625000D01*
X7175000Y-16300000D02*
X7075000Y-16475000D01*
X7275000Y-16175000D02*
X7175000Y-16300000D01*
X7425000Y-16000000D02*
X7275000Y-16175000D01*
X7650000Y-15775000D02*
X7425000Y-16000000D01*
X8000000Y-15425000D02*
X7650000Y-15775000D01*
X8075000Y-15300000D02*
X8000000Y-15425000D01*
X8150000Y-15150000D02*
X8075000Y-15300000D01*
X10500000Y-7600000D02*
X11075000Y-7425000D01*
X9900000Y-7900000D02*
X10500000Y-7600000D01*
X8550000Y-9350000D02*
X8400000Y-9450000D01*
X7400000Y-7850000D02*
X8550000Y-9350000D01*
X7050000Y-7450000D02*
X7400000Y-7850000D01*
X6800000Y-7200000D02*
X7050000Y-7450000D01*
X6650000Y-7100000D02*
X6800000Y-7200000D01*
X6450000Y-7000000D02*
X6650000Y-7100000D01*
X6200000Y-6950000D02*
X6450000Y-7000000D01*
X6100000Y-6950000D02*
X6200000Y-6950000D01*
X5550000Y-6950000D02*
X6100000Y-6950000D01*
X5300000Y-6900000D02*
X5550000Y-6950000D01*
X5200000Y-6850000D02*
X5300000Y-6900000D01*
X4900000Y-6650000D02*
X5200000Y-6850000D01*
X4700000Y-6400000D02*
X4900000Y-6650000D01*
X4600000Y-6250000D02*
X4700000Y-6400000D01*
X4550000Y-6050000D02*
X4600000Y-6250000D01*
X4550000Y-5750000D02*
X4550000Y-6050000D01*
X4650000Y-5400000D02*
X4550000Y-5750000D01*
X4850000Y-5050000D02*
X4650000Y-5400000D01*
X5050000Y-4800000D02*
X4850000Y-5050000D01*
X5250000Y-4650000D02*
X5050000Y-4800000D01*
X5350000Y-4600000D02*
X5250000Y-4650000D01*
X5350000Y-4550000D02*
X5350000Y-4600000D01*
X5350000Y-4500000D02*
X5350000Y-4550000D01*
X5400000Y-4450000D02*
X5350000Y-4500000D01*
X5700000Y-4250000D02*
X5400000Y-4450000D01*
X5950000Y-4150000D02*
X5700000Y-4250000D01*
X6200000Y-4100000D02*
X5950000Y-4150000D01*
X6350000Y-4100000D02*
X6200000Y-4100000D01*
X6700000Y-4200000D02*
X6350000Y-4100000D01*
X7000000Y-4400000D02*
X6700000Y-4200000D01*
X7200000Y-4600000D02*
X7000000Y-4400000D01*
X7400000Y-4900000D02*
X7200000Y-4600000D01*
X7500000Y-5150000D02*
X7400000Y-4900000D01*
X7550000Y-5400000D02*
X7500000Y-5150000D01*
X7500000Y-5650000D02*
X7550000Y-5400000D01*
X7500000Y-5850000D02*
X7500000Y-5650000D01*
X7550000Y-6050000D02*
X7500000Y-5850000D01*
X7700000Y-6300000D02*
X7550000Y-6050000D01*
X7800000Y-6450000D02*
X7700000Y-6300000D01*
X7850000Y-6500000D02*
X7800000Y-6450000D01*
X8050000Y-6650000D02*
X7850000Y-6500000D01*
X8400000Y-6850000D02*
X8050000Y-6650000D01*
X8950000Y-7150000D02*
X8400000Y-6850000D01*
X9900000Y-7900000D02*
X8950000Y-7150000D01*
X8225000Y-15025000D02*
X8150000Y-15150000D01*
X20175000Y-19475000D02*
G75*
G03X20175000Y-19475000I-200000J0D01*
G01*
X19500000Y-18800000D02*
G75*
G03X19500000Y-18800000I-200000J0D01*
G01*
X18500000Y-19675000D02*
G75*
G03X18500000Y-19675000I-75000J0D01*
G01*
X20300000Y-17875000D02*
G75*
G03X20300000Y-17875000I-75000J0D01*
G01*
X5384853Y-17960000D02*
G75*
G03X5384853Y-17960000I-84853J0D01*
G01*
X7186023Y-19760000D02*
G75*
G03X7186023Y-19760000I-86023J0D01*
G01*
X6388600Y-18825000D02*
G75*
G03X6388600Y-18825000I-213600J0D01*
G01*
X5701556Y-19500000D02*
G75*
G03X5701556Y-19500000I-201556J0D01*
G01*
X5695000Y-5000000D02*
G75*
G03X5695000Y-5000000I-200000J0D01*
G01*
X6375000Y-5680000D02*
G75*
G03X6375000Y-5680000I-200000J0D01*
G01*
X7115000Y-4800000D02*
G75*
G03X7115000Y-4800000I-80000J0D01*
G01*
X5325000Y-6600000D02*
G75*
G03X5325000Y-6600000I-80000J0D01*
G01*
X16675000Y-10150000D02*
X16550000Y-9700000D01*
X16775000Y-10650000D02*
X16675000Y-10150000D01*
X16775000Y-11100000D02*
X16775000Y-10650000D01*
X16700000Y-11525000D02*
X16775000Y-11100000D01*
X16625000Y-11775000D02*
X16700000Y-11525000D01*
X16575000Y-11950000D02*
X16625000Y-11775000D01*
X16550000Y-12050000D02*
X16575000Y-11950000D01*
X16550000Y-12150000D02*
X16550000Y-12050000D01*
X16575000Y-12250000D02*
X16550000Y-12150000D01*
X16600000Y-12325000D02*
X16575000Y-12250000D01*
X16600000Y-12400000D02*
X16600000Y-12325000D01*
X16550000Y-12525000D02*
X16600000Y-12400000D01*
X16450000Y-12725000D02*
X16550000Y-12525000D01*
X16400000Y-12800000D02*
X16450000Y-12725000D01*
X16375000Y-12900000D02*
X16400000Y-12800000D01*
X16375000Y-13000000D02*
X16375000Y-12900000D01*
X16425000Y-13050000D02*
X16375000Y-13000000D01*
X16475000Y-13075000D02*
X16425000Y-13050000D01*
X16500000Y-13125000D02*
X16475000Y-13075000D01*
X16500000Y-13175000D02*
X16500000Y-13125000D01*
X16475000Y-13225000D02*
X16500000Y-13175000D01*
X16450000Y-13250000D02*
X16475000Y-13225000D01*
X16425000Y-13275000D02*
X16450000Y-13250000D01*
X16400000Y-13350000D02*
X16425000Y-13275000D01*
X16425000Y-13400000D02*
X16400000Y-13350000D01*
X16500000Y-13475000D02*
X16425000Y-13400000D01*
X16700000Y-13625000D02*
X16500000Y-13475000D01*
X16800000Y-13875000D02*
X16700000Y-13625000D01*
X16825000Y-14000000D02*
X16800000Y-13875000D01*
X16825000Y-14100000D02*
X16825000Y-14000000D01*
X16700000Y-14475000D02*
X16825000Y-14100000D01*
X16600000Y-14675000D02*
X16700000Y-14475000D01*
X8250000Y-14900000D02*
X8225000Y-15025000D01*
X8250000Y-14750000D02*
X8250000Y-14900000D01*
X8225000Y-14550000D02*
X8250000Y-14750000D01*
X8200000Y-14375000D02*
X8225000Y-14550000D01*
X8175000Y-14200000D02*
X8200000Y-14375000D01*
X8150000Y-14125000D02*
X8175000Y-14200000D01*
X8150000Y-14000000D02*
X8150000Y-14125000D01*
X8150000Y-13900000D02*
X8150000Y-14000000D01*
X8200000Y-13775000D02*
X8150000Y-13900000D01*
X8300000Y-13625000D02*
X8200000Y-13775000D01*
X8425000Y-13475000D02*
X8300000Y-13625000D01*
X8425000Y-13375000D02*
X8425000Y-13475000D01*
X8400000Y-13300000D02*
X8425000Y-13375000D01*
X8325000Y-13275000D02*
X8400000Y-13300000D01*
X8275000Y-13225000D02*
X8325000Y-13275000D01*
X8250000Y-13175000D02*
X8275000Y-13225000D01*
X8250000Y-13125000D02*
X8250000Y-13175000D01*
X8250000Y-13050000D02*
X8250000Y-13125000D01*
X8300000Y-12975000D02*
X8250000Y-13050000D01*
X8350000Y-12925000D02*
X8300000Y-12975000D01*
X8375000Y-12850000D02*
X8350000Y-12925000D01*
X8300000Y-12675000D02*
X8375000Y-12850000D01*
X8225000Y-12525000D02*
X8300000Y-12675000D01*
X8225000Y-12425000D02*
X8225000Y-12525000D01*
X8275000Y-12275000D02*
X8225000Y-12425000D01*
X8300000Y-12125000D02*
X8275000Y-12275000D01*
X8200000Y-11850000D02*
X8300000Y-12125000D01*
X8150000Y-11375000D02*
X8200000Y-11850000D01*
X8150000Y-11100000D02*
X8150000Y-11375000D01*
X8175000Y-10675000D02*
X8150000Y-11100000D01*
X13384510Y-7627620D02*
G75*
G03X13384510Y-7627620I-160000J0D01*
G01*
X11734780Y-7627620D02*
G75*
G03X11734780Y-7627620I-160000J0D01*
G01*
X14675000Y-16725000D02*
X14725000Y-16675000D01*
X14525000Y-16775000D02*
X14675000Y-16725000D01*
X14475000Y-16825000D02*
X14525000Y-16775000D01*
X14425000Y-16875000D02*
X14475000Y-16825000D01*
X14425000Y-17025000D02*
X14425000Y-16875000D01*
X14375000Y-17125000D02*
X14425000Y-17025000D01*
X14225000Y-17275000D02*
X14375000Y-17125000D01*
X14025000Y-17325000D02*
X14225000Y-17275000D01*
X13925000Y-17325000D02*
X14025000Y-17325000D01*
X13725000Y-17225000D02*
X13925000Y-17325000D01*
X13725000Y-17275000D02*
X13725000Y-17225000D01*
X13675000Y-17375000D02*
X13725000Y-17275000D01*
X13625000Y-17375000D02*
X13675000Y-17375000D01*
X13475000Y-17375000D02*
X13625000Y-17375000D01*
X13275000Y-17325000D02*
X13475000Y-17375000D01*
X13075000Y-17225000D02*
X13275000Y-17325000D01*
X13075000Y-17375000D02*
X13075000Y-17225000D01*
X13025000Y-17375000D02*
X13075000Y-17375000D01*
X12725000Y-17275000D02*
X13025000Y-17375000D01*
X12675000Y-17325000D02*
X12725000Y-17275000D01*
X12525000Y-17375000D02*
X12675000Y-17325000D01*
X12475000Y-17325000D02*
X12525000Y-17375000D01*
X12175000Y-17275000D02*
X12475000Y-17325000D01*
X12075000Y-17325000D02*
X12175000Y-17275000D01*
X11875000Y-17375000D02*
X12075000Y-17325000D01*
X11875000Y-17275000D02*
X11875000Y-17375000D01*
X11775000Y-17275000D02*
X11875000Y-17275000D01*
X11425000Y-17375000D02*
X11775000Y-17275000D01*
X11225000Y-17375000D02*
X11425000Y-17375000D01*
X11175000Y-17325000D02*
X11225000Y-17375000D01*
X11075000Y-17325000D02*
X11175000Y-17325000D01*
X10725000Y-17325000D02*
X11075000Y-17325000D01*
X10525000Y-17225000D02*
X10725000Y-17325000D01*
X10375000Y-17125000D02*
X10525000Y-17225000D01*
X10325000Y-16975000D02*
X10375000Y-17125000D01*
X10325000Y-16825000D02*
X10325000Y-16975000D01*
X10275000Y-16775000D02*
X10325000Y-16825000D01*
X10225000Y-16725000D02*
X10275000Y-16775000D01*
X10175000Y-16625000D02*
X10225000Y-16725000D01*
X11775000Y-7275000D02*
X11075000Y-7425000D01*
X12275000Y-7225000D02*
X11775000Y-7275000D01*
X12475000Y-7225000D02*
X12275000Y-7225000D01*
X12625000Y-7225000D02*
X12475000Y-7225000D01*
X13325000Y-7325000D02*
X12625000Y-7225000D01*
X13925000Y-7425000D02*
X13325000Y-7325000D01*
X14375000Y-7575000D02*
X13925000Y-7425000D01*
X14825000Y-7775000D02*
X14375000Y-7575000D01*
X15175000Y-7975000D02*
X14825000Y-7775000D01*
X12425680Y-15232380D02*
X12225000Y-15125000D01*
X12625000Y-15125000D02*
X12425680Y-15232380D01*
X13125000Y-14975000D02*
X12625000Y-15125000D01*
X13175000Y-14925000D02*
X13125000Y-14975000D01*
X13225000Y-14825000D02*
X13175000Y-14925000D01*
X13275000Y-14675000D02*
X13225000Y-14825000D01*
X13275000Y-14425000D02*
X13275000Y-14675000D01*
X13225000Y-14225000D02*
X13275000Y-14425000D01*
X13125000Y-14025000D02*
X13225000Y-14225000D01*
X12975000Y-13825000D02*
X13125000Y-14025000D01*
X12675000Y-13575000D02*
X12975000Y-13825000D01*
X12525000Y-13475000D02*
X12675000Y-13575000D01*
X12425000Y-13425000D02*
X12525000Y-13475000D01*
X11875000Y-15025000D02*
X12225000Y-15125000D01*
X11725000Y-14975000D02*
X11875000Y-15025000D01*
X11675000Y-14925000D02*
X11725000Y-14975000D01*
X11625000Y-14825000D02*
X11675000Y-14925000D01*
X11575000Y-14675000D02*
X11625000Y-14825000D01*
X11575000Y-14525000D02*
X11575000Y-14675000D01*
X11575000Y-14425000D02*
X11575000Y-14525000D01*
X11625000Y-14225000D02*
X11575000Y-14425000D01*
X11675000Y-14125000D02*
X11625000Y-14225000D01*
X11725000Y-14025000D02*
X11675000Y-14125000D01*
X11875000Y-13825000D02*
X11725000Y-14025000D01*
X12175000Y-13575000D02*
X11875000Y-13825000D01*
X12325000Y-13475000D02*
X12175000Y-13575000D01*
X12425000Y-13425000D02*
X12325000Y-13475000D01*
X15139563Y-12545000D02*
G75*
G03X15139563Y-12545000I-1029563J0D01*
G01*
X11809563Y-12560000D02*
G75*
G03X11809563Y-12560000I-1029563J0D01*
G01*
D11*
X14431490Y-9172370D02*
X14461490Y-9202370D01*
X14461490Y-9172370D02*
X14431490Y-9202370D01*
X14431490Y-9272370D02*
X14461490Y-9302370D01*
X14461490Y-9272370D02*
X14431490Y-9302370D01*
X14506490Y-9222370D02*
X14536490Y-9252370D01*
X14536490Y-9222370D02*
X14506490Y-9252370D01*
X14581490Y-9172370D02*
X14611490Y-9202370D01*
X14611490Y-9172370D02*
X14581490Y-9202370D01*
X14581490Y-9272370D02*
X14611490Y-9302370D01*
X14611490Y-9272370D02*
X14581490Y-9302370D01*
X6840000Y-6650000D02*
G75*
G03X6840000Y-6650000I-20000J0D01*
G01*
X7080103Y-6526380D02*
G75*
G03X7080103Y-6526380I-20000J0D01*
G01*
X7210000Y-6950000D02*
G75*
G03X7210000Y-6950000I-20000J0D01*
G01*
X7470000Y-17275000D02*
G75*
G03X7470000Y-17275000I-20000J0D01*
G01*
X7510000Y-7350000D02*
G75*
G03X7510000Y-7350000I-20000J0D01*
G01*
X7540000Y-17030000D02*
G75*
G03X7540000Y-17030000I-20000J0D01*
G01*
X7900000Y-7640000D02*
G75*
G03X7900000Y-7640000I-20000J0D01*
G01*
X8190000Y-8000000D02*
G75*
G03X8190000Y-8000000I-20000J0D01*
G01*
X8245000Y-16575000D02*
G75*
G03X8245000Y-16575000I-20000J0D01*
G01*
X8310000Y-16350000D02*
G75*
G03X8310000Y-16350000I-20000J0D01*
G01*
X8394299Y-7745580D02*
G75*
G03X8394299Y-7745580I-20000J0D01*
G01*
X8540000Y-8310000D02*
G75*
G03X8540000Y-8310000I-20000J0D01*
G01*
X8840000Y-8710000D02*
G75*
G03X8840000Y-8710000I-20000J0D01*
G01*
X8947511Y-14555066D02*
G75*
G03X8947511Y-14555066I-20000J0D01*
G01*
X8951000Y-14945300D02*
G75*
G03X8951000Y-14945300I-20000J0D01*
G01*
X9002911Y-14033216D02*
G75*
G03X9002911Y-14033216I-20000J0D01*
G01*
X9002911Y-14033216D02*
G75*
G03X9002911Y-14033216I-20000J0D01*
G01*
X9002911Y-14213216D02*
G75*
G03X9002911Y-14213216I-20000J0D01*
G01*
X9002911Y-14393216D02*
G75*
G03X9002911Y-14393216I-20000J0D01*
G01*
X9002911Y-14393216D02*
G75*
G03X9002911Y-14393216I-20000J0D01*
G01*
X9003911Y-11113216D02*
G75*
G03X9003911Y-11113216I-20000J0D01*
G01*
X9070000Y-15850000D02*
G75*
G03X9070000Y-15850000I-20000J0D01*
G01*
X9145000Y-15775000D02*
G75*
G03X9145000Y-15775000I-20000J0D01*
G01*
X9270000Y-9075000D02*
G75*
G03X9270000Y-9075000I-20000J0D01*
G01*
X9281200Y-15300900D02*
G75*
G03X9281200Y-15300900I-20000J0D01*
G01*
X9398361Y-8738466D02*
G75*
G03X9398361Y-8738466I-20000J0D01*
G01*
X9667911Y-8680216D02*
G75*
G03X9667911Y-8680216I-20000J0D01*
G01*
X10145411Y-8418216D02*
G75*
G03X10145411Y-8418216I-20000J0D01*
G01*
X10154011Y-9068666D02*
G75*
G03X10154011Y-9068666I-20000J0D01*
G01*
X10280503Y-14710260D02*
G75*
G03X10280503Y-14710260I-20000J0D01*
G01*
X10392911Y-8668216D02*
G75*
G03X10392911Y-8668216I-20000J0D01*
G01*
X10602911Y-8478216D02*
G75*
G03X10602911Y-8478216I-20000J0D01*
G01*
X10820411Y-8265716D02*
G75*
G03X10820411Y-8265716I-20000J0D01*
G01*
X10830000Y-17040000D02*
G75*
G03X10830000Y-17040000I-20000J0D01*
G01*
X10862350Y-10582850D02*
G75*
G03X10862350Y-10582850I-20000J0D01*
G01*
X10945000Y-10225000D02*
G75*
G03X10945000Y-10225000I-20000J0D01*
G01*
X11050000Y-9160000D02*
G75*
G03X11050000Y-9160000I-20000J0D01*
G01*
X11062061Y-10440266D02*
G75*
G03X11062061Y-10440266I-20000J0D01*
G01*
X11173500Y-10722550D02*
G75*
G03X11173500Y-10722550I-20000J0D01*
G01*
X11350411Y-8593216D02*
G75*
G03X11350411Y-8593216I-20000J0D01*
G01*
X11482911Y-11138216D02*
G75*
G03X11482911Y-11138216I-20000J0D01*
G01*
X11530000Y-17080000D02*
G75*
G03X11530000Y-17080000I-20000J0D01*
G01*
X11596050Y-8526780D02*
G75*
G03X11596050Y-8526780I-20000J0D01*
G01*
X11602319Y-16032584D02*
G75*
G03X11602319Y-16032584I-20000J0D01*
G01*
X11670000Y-9915000D02*
G75*
G03X11670000Y-9915000I-20000J0D01*
G01*
X11681500Y-9014400D02*
G75*
G03X11681500Y-9014400I-20000J0D01*
G01*
X11750000Y-9835000D02*
G75*
G03X11750000Y-9835000I-20000J0D01*
G01*
X11802150Y-10144700D02*
G75*
G03X11802150Y-10144700I-20000J0D01*
G01*
X11880000Y-10370000D02*
G75*
G03X11880000Y-10370000I-20000J0D01*
G01*
X11970000Y-10190000D02*
G75*
G03X11970000Y-10190000I-20000J0D01*
G01*
X12025472Y-9447501D02*
G75*
G03X12025472Y-9447501I-20000J0D01*
G01*
X12060000Y-10640000D02*
G75*
G03X12060000Y-10640000I-20000J0D01*
G01*
X12085000Y-8500000D02*
G75*
G03X12085000Y-8500000I-20000J0D01*
G01*
X12105000Y-9735000D02*
G75*
G03X12105000Y-9735000I-20000J0D01*
G01*
X12106075Y-12009052D02*
G75*
G03X12106075Y-12009052I-20000J0D01*
G01*
X12120000Y-16120000D02*
G75*
G03X12120000Y-16120000I-20000J0D01*
G01*
X12132911Y-11643216D02*
G75*
G03X12132911Y-11643216I-20000J0D01*
G01*
X12135411Y-9220716D02*
G75*
G03X12135411Y-9220716I-20000J0D01*
G01*
X12165000Y-9375000D02*
G75*
G03X12165000Y-9375000I-20000J0D01*
G01*
X12175795Y-8528098D02*
G75*
G03X12175795Y-8528098I-20000J0D01*
G01*
X12185000Y-9655000D02*
G75*
G03X12185000Y-9655000I-20000J0D01*
G01*
X12198711Y-16968066D02*
G75*
G03X12198711Y-16968066I-20000J0D01*
G01*
X12277944Y-9900446D02*
G75*
G03X12277944Y-9900446I-20000J0D01*
G01*
X12285411Y-9320716D02*
G75*
G03X12285411Y-9320716I-20000J0D01*
G01*
X12300481Y-10444999D02*
G75*
G03X12300481Y-10444999I-20000J0D01*
G01*
X12302499Y-8569707D02*
G75*
G03X12302499Y-8569707I-20000J0D01*
G01*
X12335767Y-9955733D02*
G75*
G03X12335767Y-9955733I-20000J0D01*
G01*
X12385000Y-10035000D02*
G75*
G03X12385000Y-10035000I-20000J0D01*
G01*
X12460000Y-10670000D02*
G75*
G03X12460000Y-10670000I-20000J0D01*
G01*
X12530000Y-8880000D02*
G75*
G03X12530000Y-8880000I-20000J0D01*
G01*
X12540411Y-9378216D02*
G75*
G03X12540411Y-9378216I-20000J0D01*
G01*
X12545000Y-10507500D02*
G75*
G03X12545000Y-10507500I-20000J0D01*
G01*
X12560000Y-16310000D02*
G75*
G03X12560000Y-16310000I-20000J0D01*
G01*
X12620000Y-10385000D02*
G75*
G03X12620000Y-10385000I-20000J0D01*
G01*
X12651021Y-9229575D02*
G75*
G03X12651021Y-9229575I-20000J0D01*
G01*
X12708305Y-10456695D02*
G75*
G03X12708305Y-10456695I-20000J0D01*
G01*
X12735000Y-9965001D02*
G75*
G03X12735000Y-9965001I-20000J0D01*
G01*
X12780000Y-9730000D02*
G75*
G03X12780000Y-9730000I-20000J0D01*
G01*
X12808311Y-16968066D02*
G75*
G03X12808311Y-16968066I-20000J0D01*
G01*
X12841041Y-9541041D02*
G75*
G03X12841041Y-9541041I-20000J0D01*
G01*
X12890000Y-9830000D02*
G75*
G03X12890000Y-9830000I-20000J0D01*
G01*
X12899195Y-9309195D02*
G75*
G03X12899195Y-9309195I-20000J0D01*
G01*
X13135000Y-8795000D02*
G75*
G03X13135000Y-8795000I-20000J0D01*
G01*
X13152911Y-11973216D02*
G75*
G03X13152911Y-11973216I-20000J0D01*
G01*
X13182911Y-7995716D02*
G75*
G03X13182911Y-7995716I-20000J0D01*
G01*
X13355411Y-7983216D02*
G75*
G03X13355411Y-7983216I-20000J0D01*
G01*
X13405211Y-16993466D02*
G75*
G03X13405211Y-16993466I-20000J0D01*
G01*
X13449911Y-15164216D02*
G75*
G03X13449911Y-15164216I-20000J0D01*
G01*
X13454599Y-7811110D02*
G75*
G03X13454599Y-7811110I-20000J0D01*
G01*
X13585001Y-9365000D02*
G75*
G03X13585001Y-9365000I-20000J0D01*
G01*
X13804911Y-14813216D02*
G75*
G03X13804911Y-14813216I-20000J0D01*
G01*
X13885411Y-14970716D02*
G75*
G03X13885411Y-14970716I-20000J0D01*
G01*
X13970000Y-10180000D02*
G75*
G03X13970000Y-10180000I-20000J0D01*
G01*
X13975911Y-14909166D02*
G75*
G03X13975911Y-14909166I-20000J0D01*
G01*
X13975911Y-14909166D02*
G75*
G03X13975911Y-14909166I-20000J0D01*
G01*
X13985411Y-15370716D02*
G75*
G03X13985411Y-15370716I-20000J0D01*
G01*
X14006510Y-9027160D02*
G75*
G03X14006510Y-9027160I-20000J0D01*
G01*
X14080000Y-17010000D02*
G75*
G03X14080000Y-17010000I-20000J0D01*
G01*
X14210980Y-9027160D02*
G75*
G03X14210980Y-9027160I-20000J0D01*
G01*
X14452961Y-16263216D02*
G75*
G03X14452961Y-16263216I-20000J0D01*
G01*
X14681561Y-16472766D02*
G75*
G03X14681561Y-16472766I-20000J0D01*
G01*
X14725411Y-11210716D02*
G75*
G03X14725411Y-11210716I-20000J0D01*
G01*
X14822911Y-14783216D02*
G75*
G03X14822911Y-14783216I-20000J0D01*
G01*
X15002911Y-14773216D02*
G75*
G03X15002911Y-14773216I-20000J0D01*
G01*
X15080691Y-11443216D02*
G75*
G03X15080691Y-11443216I-20000J0D01*
G01*
X15158400Y-9569450D02*
G75*
G03X15158400Y-9569450I-20000J0D01*
G01*
X15182911Y-14773216D02*
G75*
G03X15182911Y-14773216I-20000J0D01*
G01*
X15202515Y-14053924D02*
G75*
G03X15202515Y-14053924I-20000J0D01*
G01*
X15213691Y-11310216D02*
G75*
G03X15213691Y-11310216I-20000J0D01*
G01*
X15213691Y-11310216D02*
G75*
G03X15213691Y-11310216I-20000J0D01*
G01*
X15227911Y-10610716D02*
G75*
G03X15227911Y-10610716I-20000J0D01*
G01*
X15280411Y-10093216D02*
G75*
G03X15280411Y-10093216I-20000J0D01*
G01*
X15312911Y-11210996D02*
G75*
G03X15312911Y-11210996I-20000J0D01*
G01*
X15312911Y-11210996D02*
G75*
G03X15312911Y-11210996I-20000J0D01*
G01*
X15362911Y-12363216D02*
G75*
G03X15362911Y-12363216I-20000J0D01*
G01*
X15422911Y-9043216D02*
G75*
G03X15422911Y-9043216I-20000J0D01*
G01*
X15485411Y-9135716D02*
G75*
G03X15485411Y-9135716I-20000J0D01*
G01*
X15511379Y-8465924D02*
G75*
G03X15511379Y-8465924I-20000J0D01*
G01*
X15645000Y-15175000D02*
G75*
G03X15645000Y-15175000I-20000J0D01*
G01*
X15780000Y-14770000D02*
G75*
G03X15780000Y-14770000I-20000J0D01*
G01*
X15785411Y-8795716D02*
G75*
G03X15785411Y-8795716I-20000J0D01*
G01*
X15785411Y-11800716D02*
G75*
G03X15785411Y-11800716I-20000J0D01*
G01*
X15817911Y-9103216D02*
G75*
G03X15817911Y-9103216I-20000J0D01*
G01*
X16045411Y-8560716D02*
G75*
G03X16045411Y-8560716I-20000J0D01*
G01*
X16062640Y-10012680D02*
G75*
G03X16062640Y-10012680I-20000J0D01*
G01*
X16080000Y-15060000D02*
G75*
G03X16080000Y-15060000I-20000J0D01*
G01*
X16210411Y-8400716D02*
G75*
G03X16210411Y-8400716I-20000J0D01*
G01*
X16212911Y-8193216D02*
G75*
G03X16212911Y-8193216I-20000J0D01*
G01*
X16255411Y-9020716D02*
G75*
G03X16255411Y-9020716I-20000J0D01*
G01*
X16355100Y-7985700D02*
G75*
G03X16355100Y-7985700I-20000J0D01*
G01*
X16400000Y-15520000D02*
G75*
G03X16400000Y-15520000I-20000J0D01*
G01*
X16522911Y-7643216D02*
G75*
G03X16522911Y-7643216I-20000J0D01*
G01*
X16602911Y-8513216D02*
G75*
G03X16602911Y-8513216I-20000J0D01*
G01*
X16840000Y-15830000D02*
G75*
G03X16840000Y-15830000I-20000J0D01*
G01*
X17060000Y-7420000D02*
G75*
G03X17060000Y-7420000I-20000J0D01*
G01*
X17210000Y-16280000D02*
G75*
G03X17210000Y-16280000I-20000J0D01*
G01*
X17430000Y-6900000D02*
G75*
G03X17430000Y-6900000I-20000J0D01*
G01*
X17710000Y-16640000D02*
G75*
G03X17710000Y-16640000I-20000J0D01*
G01*
X17786711Y-17488766D02*
G75*
G03X17786711Y-17488766I-20000J0D01*
G01*
X17920000Y-6670000D02*
G75*
G03X17920000Y-6670000I-20000J0D01*
G01*
X18070000Y-17100000D02*
G75*
G03X18070000Y-17100000I-20000J0D01*
G01*
X18078811Y-17761816D02*
G75*
G03X18078811Y-17761816I-20000J0D01*
G01*
X18247911Y-6635716D02*
G75*
G03X18247911Y-6635716I-20000J0D01*
G01*
X18280000Y-6140000D02*
G75*
G03X18280000Y-6140000I-20000J0D01*
G01*
X18457313Y-17400000D02*
G75*
G03X18457313Y-17400000I-20000J0D01*
G01*
X18583255Y-6247488D02*
G75*
G03X18583255Y-6247488I-20000J0D01*
G01*
X12194200Y-7689750D02*
X12194200Y-7754750D01*
X12161700Y-7722250D02*
X12226700Y-7722250D01*
X12171700Y-7702250D02*
X12171700Y-7742250D01*
X12216700Y-7702250D02*
X12216700Y-7742250D01*
X12171700Y-7742250D02*
G75*
G03X12216700Y-7742250I22500J0D01*
G01*
X12216700Y-7702250D02*
G75*
G03X12171700Y-7702250I-22500J0D01*
G01*
X12678200Y-7689750D02*
X12678200Y-7754750D01*
X12645700Y-7722250D02*
X12710700Y-7722250D01*
X12655700Y-7702250D02*
X12655700Y-7742250D01*
X12700700Y-7702250D02*
X12700700Y-7742250D01*
X12655700Y-7742250D02*
G75*
G03X12700700Y-7742250I22500J0D01*
G01*
X12700700Y-7702250D02*
G75*
G03X12655700Y-7702250I-22500J0D01*
G01*
X12187949Y-7446999D02*
X12187949Y-7397501D01*
X12138451Y-7397501D01*
X12138451Y-7446999D01*
X12187949Y-7446999D01*
X12138200Y-7397250D02*
X12138200Y-7447250D01*
X12188200Y-7397250D02*
X12188200Y-7447250D01*
X12138200Y-7447250D02*
G75*
G03X12188200Y-7447250I25000J0D01*
G01*
X12188200Y-7397250D02*
G75*
G03X12138200Y-7397250I-25000J0D01*
G01*
X12733949Y-7446999D02*
X12733949Y-7397501D01*
X12684451Y-7397501D01*
X12684451Y-7446999D01*
X12733949Y-7446999D01*
X12684200Y-7397250D02*
X12684200Y-7447250D01*
X12734200Y-7397250D02*
X12734200Y-7447250D01*
X12684200Y-7447250D02*
G75*
G03X12734200Y-7447250I25000J0D01*
G01*
X12734200Y-7397250D02*
G75*
G03X12684200Y-7397250I-25000J0D01*
G01*
X10292080Y-9917900D02*
X10342080Y-9867900D01*
X10292080Y-9817900D01*
X10242080Y-9867900D01*
X10292080Y-9917900D01*
X10292080Y-10171900D02*
X10342080Y-10121900D01*
X10292080Y-10071900D01*
X10242080Y-10121900D01*
X10292080Y-10171900D01*
X10292080Y-10425900D02*
X10342080Y-10375900D01*
X10292080Y-10325900D01*
X10242080Y-10375900D01*
X10292080Y-10425900D01*
X13604600Y-8073800D02*
X13654600Y-8023800D01*
X13604600Y-7973800D01*
X13554600Y-8023800D01*
X13604600Y-8073800D01*
X13804600Y-8073800D02*
X13854600Y-8023800D01*
X13804600Y-7973800D01*
X13754600Y-8023800D01*
X13804600Y-8073800D01*
X8740500Y-10105800D02*
X8790500Y-10055800D01*
X8740500Y-10005800D01*
X8690500Y-10055800D01*
X8740500Y-10105800D01*
X8740500Y-10359800D02*
X8790500Y-10309800D01*
X8740500Y-10259800D01*
X8690500Y-10309800D01*
X8740500Y-10359800D01*
X8994500Y-10105800D02*
X9044500Y-10055800D01*
X8994500Y-10005800D01*
X8944500Y-10055800D01*
X8994500Y-10105800D01*
X8994500Y-10359800D02*
X9044500Y-10309800D01*
X8994500Y-10259800D01*
X8944500Y-10309800D01*
X8994500Y-10359800D01*
X9248500Y-10105800D02*
X9298500Y-10055800D01*
X9248500Y-10005800D01*
X9198500Y-10055800D01*
X9248500Y-10105800D01*
X9248500Y-10359800D02*
X9298500Y-10309800D01*
X9248500Y-10259800D01*
X9198500Y-10309800D01*
X9248500Y-10359800D01*
X9502500Y-10105800D02*
X9552500Y-10055800D01*
X9502500Y-10005800D01*
X9452500Y-10055800D01*
X9502500Y-10105800D01*
X9502500Y-10359800D02*
X9552500Y-10309800D01*
X9502500Y-10259800D01*
X9452500Y-10309800D01*
X9502500Y-10359800D01*
X9756500Y-10105800D02*
X9806500Y-10055800D01*
X9756500Y-10005800D01*
X9706500Y-10055800D01*
X9756500Y-10105800D01*
X9756500Y-10359800D02*
X9806500Y-10309800D01*
X9756500Y-10259800D01*
X9706500Y-10309800D01*
X9756500Y-10359800D01*
X10709000Y-10817800D02*
X10810600Y-10919400D01*
X10810600Y-10817800D02*
X10709000Y-10919400D01*
X10810600Y-10868600D02*
G75*
G03X10810600Y-10868600I-50800J0D01*
G01*
X10963000Y-10817800D02*
X11064600Y-10919400D01*
X11064600Y-10817800D02*
X10963000Y-10919400D01*
X11064600Y-10868600D02*
G75*
G03X11064600Y-10868600I-50800J0D01*
G01*
X11217000Y-10817800D02*
X11318600Y-10919400D01*
X11318600Y-10817800D02*
X11217000Y-10919400D01*
X11318600Y-10868600D02*
G75*
G03X11318600Y-10868600I-50800J0D01*
G01*
X11471000Y-10817800D02*
X11572600Y-10919400D01*
X11572600Y-10817800D02*
X11471000Y-10919400D01*
X11572600Y-10868600D02*
G75*
G03X11572600Y-10868600I-50800J0D01*
G01*
X11623400Y-15643800D02*
X11725000Y-15745400D01*
X11725000Y-15643800D02*
X11623400Y-15745400D01*
X11725000Y-15694600D02*
G75*
G03X11725000Y-15694600I-50800J0D01*
G01*
X11725000Y-10817800D02*
X11826600Y-10919400D01*
X11826600Y-10817800D02*
X11725000Y-10919400D01*
X11826600Y-10868600D02*
G75*
G03X11826600Y-10868600I-50800J0D01*
G01*
X11877400Y-15643800D02*
X11979000Y-15745400D01*
X11979000Y-15643800D02*
X11877400Y-15745400D01*
X11979000Y-15694600D02*
G75*
G03X11979000Y-15694600I-50800J0D01*
G01*
X11979000Y-10817800D02*
X12080600Y-10919400D01*
X12080600Y-10817800D02*
X11979000Y-10919400D01*
X12080600Y-10868600D02*
G75*
G03X12080600Y-10868600I-50800J0D01*
G01*
X12131400Y-15643800D02*
X12233000Y-15745400D01*
X12233000Y-15643800D02*
X12131400Y-15745400D01*
X12233000Y-15694600D02*
G75*
G03X12233000Y-15694600I-50800J0D01*
G01*
X12233000Y-10817800D02*
X12334600Y-10919400D01*
X12334600Y-10817800D02*
X12233000Y-10919400D01*
X12334600Y-10868600D02*
G75*
G03X12334600Y-10868600I-50800J0D01*
G01*
X12385400Y-15643800D02*
X12487000Y-15745400D01*
X12487000Y-15643800D02*
X12385400Y-15745400D01*
X12487000Y-15694600D02*
G75*
G03X12487000Y-15694600I-50800J0D01*
G01*
X12487000Y-10817800D02*
X12588600Y-10919400D01*
X12588600Y-10817800D02*
X12487000Y-10919400D01*
X12588600Y-10868600D02*
G75*
G03X12588600Y-10868600I-50800J0D01*
G01*
X12639400Y-15643800D02*
X12741000Y-15745400D01*
X12741000Y-15643800D02*
X12639400Y-15745400D01*
X12741000Y-15694600D02*
G75*
G03X12741000Y-15694600I-50800J0D01*
G01*
X12741000Y-10817800D02*
X12842600Y-10919400D01*
X12842600Y-10817800D02*
X12741000Y-10919400D01*
X12842600Y-10868600D02*
G75*
G03X12842600Y-10868600I-50800J0D01*
G01*
X12893400Y-15643800D02*
X12995000Y-15745400D01*
X12995000Y-15643800D02*
X12893400Y-15745400D01*
X12995000Y-15694600D02*
G75*
G03X12995000Y-15694600I-50800J0D01*
G01*
X12995000Y-10817800D02*
X13096600Y-10919400D01*
X13096600Y-10817800D02*
X12995000Y-10919400D01*
X13096600Y-10868600D02*
G75*
G03X13096600Y-10868600I-50800J0D01*
G01*
X13147400Y-15643800D02*
X13249000Y-15745400D01*
X13249000Y-15643800D02*
X13147400Y-15745400D01*
X13249000Y-15694600D02*
G75*
G03X13249000Y-15694600I-50800J0D01*
G01*
X13401400Y-10817800D02*
X13503000Y-10919400D01*
X13503000Y-10817800D02*
X13401400Y-10919400D01*
X13503000Y-10868600D02*
G75*
G03X13503000Y-10868600I-50800J0D01*
G01*
X13401400Y-15643800D02*
X13503000Y-15745400D01*
X13503000Y-15643800D02*
X13401400Y-15745400D01*
X13503000Y-15694600D02*
G75*
G03X13503000Y-15694600I-50800J0D01*
G01*
X13655400Y-10817800D02*
X13757000Y-10919400D01*
X13757000Y-10817800D02*
X13655400Y-10919400D01*
X13757000Y-10868600D02*
G75*
G03X13757000Y-10868600I-50800J0D01*
G01*
X13909400Y-10817800D02*
X14011000Y-10919400D01*
X14011000Y-10817800D02*
X13909400Y-10919400D01*
X14011000Y-10868600D02*
G75*
G03X14011000Y-10868600I-50800J0D01*
G01*
X13909400Y-15643800D02*
X14011000Y-15745400D01*
X14011000Y-15643800D02*
X13909400Y-15745400D01*
X14011000Y-15694600D02*
G75*
G03X14011000Y-15694600I-50800J0D01*
G01*
X14163400Y-10817800D02*
X14265000Y-10919400D01*
X14265000Y-10817800D02*
X14163400Y-10919400D01*
X14265000Y-10868600D02*
G75*
G03X14265000Y-10868600I-50800J0D01*
G01*
X14163400Y-15643800D02*
X14265000Y-15745400D01*
X14265000Y-15643800D02*
X14163400Y-15745400D01*
X14265000Y-15694600D02*
G75*
G03X14265000Y-15694600I-50800J0D01*
G01*
X14417400Y-10817800D02*
X14519000Y-10919400D01*
X14519000Y-10817800D02*
X14417400Y-10919400D01*
X14519000Y-10868600D02*
G75*
G03X14519000Y-10868600I-50800J0D01*
G01*
X14417400Y-15643800D02*
X14519000Y-15745400D01*
X14519000Y-15643800D02*
X14417400Y-15745400D01*
X14519000Y-15694600D02*
G75*
G03X14519000Y-15694600I-50800J0D01*
G01*
X14671400Y-10817800D02*
X14773000Y-10919400D01*
X14773000Y-10817800D02*
X14671400Y-10919400D01*
X14773000Y-10868600D02*
G75*
G03X14773000Y-10868600I-50800J0D01*
G01*
X14671400Y-15643800D02*
X14773000Y-15745400D01*
X14773000Y-15643800D02*
X14671400Y-15745400D01*
X14773000Y-15694600D02*
G75*
G03X14773000Y-15694600I-50800J0D01*
G01*
X14925400Y-10817800D02*
X15027000Y-10919400D01*
X15027000Y-10817800D02*
X14925400Y-10919400D01*
X15027000Y-10868600D02*
G75*
G03X15027000Y-10868600I-50800J0D01*
G01*
X14925400Y-15643800D02*
X15027000Y-15745400D01*
X15027000Y-15643800D02*
X14925400Y-15745400D01*
X15027000Y-15694600D02*
G75*
G03X15027000Y-15694600I-50800J0D01*
G01*
X15179400Y-10817800D02*
X15281000Y-10919400D01*
X15281000Y-10817800D02*
X15179400Y-10919400D01*
X15281000Y-10868600D02*
G75*
G03X15281000Y-10868600I-50800J0D01*
G01*
X15179400Y-12849800D02*
X15281000Y-12951400D01*
X15281000Y-12849800D02*
X15179400Y-12951400D01*
X15281000Y-12900600D02*
G75*
G03X15281000Y-12900600I-50800J0D01*
G01*
X15179400Y-13103800D02*
X15281000Y-13205400D01*
X15281000Y-13103800D02*
X15179400Y-13205400D01*
X15281000Y-13154600D02*
G75*
G03X15281000Y-13154600I-50800J0D01*
G01*
X15179400Y-13357800D02*
X15281000Y-13459400D01*
X15281000Y-13357800D02*
X15179400Y-13459400D01*
X15281000Y-13408600D02*
G75*
G03X15281000Y-13408600I-50800J0D01*
G01*
X15179400Y-15643800D02*
X15281000Y-15745400D01*
X15281000Y-15643800D02*
X15179400Y-15745400D01*
X15281000Y-15694600D02*
G75*
G03X15281000Y-15694600I-50800J0D01*
G01*
X15433400Y-12849800D02*
X15535000Y-12951400D01*
X15535000Y-12849800D02*
X15433400Y-12951400D01*
X15535000Y-12900600D02*
G75*
G03X15535000Y-12900600I-50800J0D01*
G01*
X15433400Y-13103800D02*
X15535000Y-13205400D01*
X15535000Y-13103800D02*
X15433400Y-13205400D01*
X15535000Y-13154600D02*
G75*
G03X15535000Y-13154600I-50800J0D01*
G01*
X15433400Y-13357800D02*
X15535000Y-13459400D01*
X15535000Y-13357800D02*
X15433400Y-13459400D01*
X15535000Y-13408600D02*
G75*
G03X15535000Y-13408600I-50800J0D01*
G01*
D12*
X4828928Y-20923214D02*
X4828928Y-20623214D01*
X4900357Y-20623214D01*
X4943214Y-20637500D01*
X4971786Y-20666072D01*
X4986071Y-20694643D01*
X5000357Y-20751786D01*
X5000357Y-20794643D01*
X4986071Y-20851786D01*
X4971786Y-20880357D01*
X4943214Y-20908929D01*
X4900357Y-20923214D01*
X4828928Y-20923214D01*
X5128928Y-20923214D02*
X5128928Y-20723214D01*
X5128928Y-20780357D02*
X5143214Y-20751786D01*
X5157500Y-20737500D01*
X5186071Y-20723214D01*
X5214643Y-20723214D01*
X5314643Y-20923214D02*
X5314643Y-20723214D01*
X5314643Y-20623214D02*
X5300357Y-20637500D01*
X5314643Y-20651786D01*
X5328928Y-20637500D01*
X5314643Y-20623214D01*
X5314643Y-20651786D01*
X5500357Y-20923214D02*
X5471786Y-20908929D01*
X5457500Y-20880357D01*
X5457500Y-20623214D01*
X5657500Y-20923214D02*
X5628928Y-20908929D01*
X5614643Y-20880357D01*
X5614643Y-20623214D01*
X6000357Y-20923214D02*
X6000357Y-20623214D01*
X6100357Y-20837500D01*
X6200357Y-20623214D01*
X6200357Y-20923214D01*
X6471786Y-20923214D02*
X6471786Y-20766072D01*
X6457500Y-20737500D01*
X6428928Y-20723214D01*
X6371786Y-20723214D01*
X6343214Y-20737500D01*
X6471786Y-20908929D02*
X6443214Y-20923214D01*
X6371786Y-20923214D01*
X6343214Y-20908929D01*
X6328928Y-20880357D01*
X6328928Y-20851786D01*
X6343214Y-20823214D01*
X6371786Y-20808929D01*
X6443214Y-20808929D01*
X6471786Y-20794643D01*
X6614643Y-20723214D02*
X6614643Y-21023214D01*
X6614643Y-20737500D02*
X6643214Y-20723214D01*
X6700357Y-20723214D01*
X6728928Y-20737500D01*
X6743214Y-20751786D01*
X6757500Y-20780357D01*
X6757500Y-20866072D01*
X6743214Y-20894643D01*
X6728928Y-20908929D01*
X6700357Y-20923214D01*
X6643214Y-20923214D01*
X6614643Y-20908929D01*
X6886071Y-20894643D02*
X6900357Y-20908929D01*
X6886071Y-20923214D01*
X6871786Y-20908929D01*
X6886071Y-20894643D01*
X6886071Y-20923214D01*
X6886071Y-20737500D02*
X6900357Y-20751786D01*
X6886071Y-20766072D01*
X6871786Y-20751786D01*
X6886071Y-20737500D01*
X6886071Y-20766072D01*
X4512500Y-21402500D02*
X4542500Y-21432500D01*
X4542500Y-21402500D02*
X4512500Y-21432500D01*
X4886071Y-21253214D02*
X4914643Y-21253214D01*
X4943214Y-21267500D01*
X4957500Y-21281786D01*
X4971786Y-21310357D01*
X4986071Y-21367500D01*
X4986071Y-21438929D01*
X4971786Y-21496072D01*
X4957500Y-21524643D01*
X4943214Y-21538929D01*
X4914643Y-21553214D01*
X4886071Y-21553214D01*
X4857500Y-21538929D01*
X4843214Y-21524643D01*
X4828928Y-21496072D01*
X4814643Y-21438929D01*
X4814643Y-21367500D01*
X4828928Y-21310357D01*
X4843214Y-21281786D01*
X4857500Y-21267500D01*
X4886071Y-21253214D01*
X5114643Y-21524643D02*
X5128928Y-21538929D01*
X5114643Y-21553214D01*
X5100357Y-21538929D01*
X5114643Y-21524643D01*
X5114643Y-21553214D01*
X5228928Y-21253214D02*
X5414643Y-21253214D01*
X5314643Y-21367500D01*
X5357500Y-21367500D01*
X5386071Y-21381786D01*
X5400357Y-21396072D01*
X5414643Y-21424643D01*
X5414643Y-21496072D01*
X5400357Y-21524643D01*
X5386071Y-21538929D01*
X5357500Y-21553214D01*
X5271786Y-21553214D01*
X5243214Y-21538929D01*
X5228928Y-21524643D01*
X5600357Y-21253214D02*
X5628928Y-21253214D01*
X5657500Y-21267500D01*
X5671786Y-21281786D01*
X5686071Y-21310357D01*
X5700357Y-21367500D01*
X5700357Y-21438929D01*
X5686071Y-21496072D01*
X5671786Y-21524643D01*
X5657500Y-21538929D01*
X5628928Y-21553214D01*
X5600357Y-21553214D01*
X5571786Y-21538929D01*
X5557500Y-21524643D01*
X5543214Y-21496072D01*
X5528928Y-21438929D01*
X5528928Y-21367500D01*
X5543214Y-21310357D01*
X5557500Y-21281786D01*
X5571786Y-21267500D01*
X5600357Y-21253214D01*
X5828928Y-21553214D02*
X5828928Y-21353214D01*
X5828928Y-21381786D02*
X5843214Y-21367500D01*
X5871786Y-21353214D01*
X5914643Y-21353214D01*
X5943214Y-21367500D01*
X5957500Y-21396072D01*
X5957500Y-21553214D01*
X5957500Y-21396072D02*
X5971786Y-21367500D01*
X6000357Y-21353214D01*
X6043214Y-21353214D01*
X6071786Y-21367500D01*
X6086071Y-21396072D01*
X6086071Y-21553214D01*
X6228928Y-21553214D02*
X6228928Y-21353214D01*
X6228928Y-21381786D02*
X6243214Y-21367500D01*
X6271786Y-21353214D01*
X6314643Y-21353214D01*
X6343214Y-21367500D01*
X6357500Y-21396072D01*
X6357500Y-21553214D01*
X6357500Y-21396072D02*
X6371786Y-21367500D01*
X6400357Y-21353214D01*
X6443214Y-21353214D01*
X6471786Y-21367500D01*
X6486071Y-21396072D01*
X6486071Y-21553214D01*
X7071786Y-21238929D02*
X6814643Y-21624643D01*
X7457500Y-21253214D02*
X7486071Y-21253214D01*
X7514643Y-21267500D01*
X7528928Y-21281786D01*
X7543214Y-21310357D01*
X7557500Y-21367500D01*
X7557500Y-21438929D01*
X7543214Y-21496072D01*
X7528928Y-21524643D01*
X7514643Y-21538929D01*
X7486071Y-21553214D01*
X7457500Y-21553214D01*
X7428928Y-21538929D01*
X7414643Y-21524643D01*
X7400357Y-21496072D01*
X7386071Y-21438929D01*
X7386071Y-21367500D01*
X7400357Y-21310357D01*
X7414643Y-21281786D01*
X7428928Y-21267500D01*
X7457500Y-21253214D01*
X7686071Y-21524643D02*
X7700357Y-21538929D01*
X7686071Y-21553214D01*
X7671786Y-21538929D01*
X7686071Y-21524643D01*
X7686071Y-21553214D01*
X7886071Y-21253214D02*
X7914643Y-21253214D01*
X7943214Y-21267500D01*
X7957500Y-21281786D01*
X7971786Y-21310357D01*
X7986071Y-21367500D01*
X7986071Y-21438929D01*
X7971786Y-21496072D01*
X7957500Y-21524643D01*
X7943214Y-21538929D01*
X7914643Y-21553214D01*
X7886071Y-21553214D01*
X7857500Y-21538929D01*
X7843214Y-21524643D01*
X7828928Y-21496072D01*
X7814643Y-21438929D01*
X7814643Y-21367500D01*
X7828928Y-21310357D01*
X7843214Y-21281786D01*
X7857500Y-21267500D01*
X7886071Y-21253214D01*
X8271786Y-21553214D02*
X8100357Y-21553214D01*
X8186071Y-21553214D02*
X8186071Y-21253214D01*
X8157500Y-21296072D01*
X8128928Y-21324643D01*
X8100357Y-21338929D01*
X8386071Y-21281786D02*
X8400357Y-21267500D01*
X8428928Y-21253214D01*
X8500357Y-21253214D01*
X8528928Y-21267500D01*
X8543214Y-21281786D01*
X8557500Y-21310357D01*
X8557500Y-21338929D01*
X8543214Y-21381786D01*
X8371786Y-21553214D01*
X8557500Y-21553214D01*
X8671786Y-21253214D02*
X8671786Y-21310357D01*
X8786071Y-21253214D02*
X8786071Y-21310357D01*
X9228928Y-21667500D02*
X9214643Y-21653214D01*
X9186071Y-21610357D01*
X9171786Y-21581786D01*
X9157500Y-21538929D01*
X9143214Y-21467500D01*
X9143214Y-21410357D01*
X9157500Y-21338929D01*
X9171786Y-21296072D01*
X9186071Y-21267500D01*
X9214643Y-21224643D01*
X9228928Y-21210357D01*
X9486071Y-21253214D02*
X9343214Y-21253214D01*
X9328928Y-21396072D01*
X9343214Y-21381786D01*
X9371786Y-21367500D01*
X9443214Y-21367500D01*
X9471786Y-21381786D01*
X9486071Y-21396072D01*
X9500357Y-21424643D01*
X9500357Y-21496072D01*
X9486071Y-21524643D01*
X9471786Y-21538929D01*
X9443214Y-21553214D01*
X9371786Y-21553214D01*
X9343214Y-21538929D01*
X9328928Y-21524643D01*
X9857500Y-21553214D02*
X9857500Y-21253214D01*
X9986071Y-21553214D02*
X9986071Y-21396072D01*
X9971786Y-21367500D01*
X9943214Y-21353214D01*
X9900357Y-21353214D01*
X9871786Y-21367500D01*
X9857500Y-21381786D01*
X10171786Y-21553214D02*
X10143214Y-21538929D01*
X10128928Y-21524643D01*
X10114643Y-21496072D01*
X10114643Y-21410357D01*
X10128928Y-21381786D01*
X10143214Y-21367500D01*
X10171786Y-21353214D01*
X10214643Y-21353214D01*
X10243214Y-21367500D01*
X10257500Y-21381786D01*
X10271786Y-21410357D01*
X10271786Y-21496072D01*
X10257500Y-21524643D01*
X10243214Y-21538929D01*
X10214643Y-21553214D01*
X10171786Y-21553214D01*
X10443214Y-21553214D02*
X10414643Y-21538929D01*
X10400357Y-21510357D01*
X10400357Y-21253214D01*
X10671786Y-21538929D02*
X10643214Y-21553214D01*
X10586071Y-21553214D01*
X10557500Y-21538929D01*
X10543214Y-21510357D01*
X10543214Y-21396072D01*
X10557500Y-21367500D01*
X10586071Y-21353214D01*
X10643214Y-21353214D01*
X10671786Y-21367500D01*
X10686071Y-21396072D01*
X10686071Y-21424643D01*
X10543214Y-21453214D01*
X10800357Y-21538929D02*
X10828928Y-21553214D01*
X10886071Y-21553214D01*
X10914643Y-21538929D01*
X10928928Y-21510357D01*
X10928928Y-21496072D01*
X10914643Y-21467500D01*
X10886071Y-21453214D01*
X10843214Y-21453214D01*
X10814643Y-21438929D01*
X10800357Y-21410357D01*
X10800357Y-21396072D01*
X10814643Y-21367500D01*
X10843214Y-21353214D01*
X10886071Y-21353214D01*
X10914643Y-21367500D01*
X11028928Y-21667500D02*
X11043214Y-21653214D01*
X11071786Y-21610357D01*
X11086071Y-21581786D01*
X11100357Y-21538929D01*
X11114643Y-21467500D01*
X11114643Y-21410357D01*
X11100357Y-21338929D01*
X11086071Y-21296072D01*
X11071786Y-21267500D01*
X11043214Y-21224643D01*
X11028928Y-21210357D01*
X4542500Y-21813500D02*
G75*
G03X4542500Y-21813500I-20000J0D01*
G01*
X4886071Y-21649214D02*
X4914643Y-21649214D01*
X4943214Y-21663500D01*
X4957500Y-21677786D01*
X4971786Y-21706357D01*
X4986071Y-21763500D01*
X4986071Y-21834929D01*
X4971786Y-21892072D01*
X4957500Y-21920643D01*
X4943214Y-21934929D01*
X4914643Y-21949214D01*
X4886071Y-21949214D01*
X4857500Y-21934929D01*
X4843214Y-21920643D01*
X4828928Y-21892072D01*
X4814643Y-21834929D01*
X4814643Y-21763500D01*
X4828928Y-21706357D01*
X4843214Y-21677786D01*
X4857500Y-21663500D01*
X4886071Y-21649214D01*
X5114643Y-21920643D02*
X5128928Y-21934929D01*
X5114643Y-21949214D01*
X5100357Y-21934929D01*
X5114643Y-21920643D01*
X5114643Y-21949214D01*
X5386071Y-21749214D02*
X5386071Y-21949214D01*
X5314643Y-21634929D02*
X5243214Y-21849214D01*
X5428928Y-21849214D01*
X5600357Y-21649214D02*
X5628928Y-21649214D01*
X5657500Y-21663500D01*
X5671786Y-21677786D01*
X5686071Y-21706357D01*
X5700357Y-21763500D01*
X5700357Y-21834929D01*
X5686071Y-21892072D01*
X5671786Y-21920643D01*
X5657500Y-21934929D01*
X5628928Y-21949214D01*
X5600357Y-21949214D01*
X5571786Y-21934929D01*
X5557500Y-21920643D01*
X5543214Y-21892072D01*
X5528928Y-21834929D01*
X5528928Y-21763500D01*
X5543214Y-21706357D01*
X5557500Y-21677786D01*
X5571786Y-21663500D01*
X5600357Y-21649214D01*
X5828928Y-21949214D02*
X5828928Y-21749214D01*
X5828928Y-21777786D02*
X5843214Y-21763500D01*
X5871786Y-21749214D01*
X5914643Y-21749214D01*
X5943214Y-21763500D01*
X5957500Y-21792072D01*
X5957500Y-21949214D01*
X5957500Y-21792072D02*
X5971786Y-21763500D01*
X6000357Y-21749214D01*
X6043214Y-21749214D01*
X6071786Y-21763500D01*
X6086071Y-21792072D01*
X6086071Y-21949214D01*
X6228928Y-21949214D02*
X6228928Y-21749214D01*
X6228928Y-21777786D02*
X6243214Y-21763500D01*
X6271786Y-21749214D01*
X6314643Y-21749214D01*
X6343214Y-21763500D01*
X6357500Y-21792072D01*
X6357500Y-21949214D01*
X6357500Y-21792072D02*
X6371786Y-21763500D01*
X6400357Y-21749214D01*
X6443214Y-21749214D01*
X6471786Y-21763500D01*
X6486071Y-21792072D01*
X6486071Y-21949214D01*
X7071786Y-21634929D02*
X6814643Y-22020643D01*
X7457500Y-21649214D02*
X7486071Y-21649214D01*
X7514643Y-21663500D01*
X7528928Y-21677786D01*
X7543214Y-21706357D01*
X7557500Y-21763500D01*
X7557500Y-21834929D01*
X7543214Y-21892072D01*
X7528928Y-21920643D01*
X7514643Y-21934929D01*
X7486071Y-21949214D01*
X7457500Y-21949214D01*
X7428928Y-21934929D01*
X7414643Y-21920643D01*
X7400357Y-21892072D01*
X7386071Y-21834929D01*
X7386071Y-21763500D01*
X7400357Y-21706357D01*
X7414643Y-21677786D01*
X7428928Y-21663500D01*
X7457500Y-21649214D01*
X7686071Y-21920643D02*
X7700357Y-21934929D01*
X7686071Y-21949214D01*
X7671786Y-21934929D01*
X7686071Y-21920643D01*
X7686071Y-21949214D01*
X7886071Y-21649214D02*
X7914643Y-21649214D01*
X7943214Y-21663500D01*
X7957500Y-21677786D01*
X7971786Y-21706357D01*
X7986071Y-21763500D01*
X7986071Y-21834929D01*
X7971786Y-21892072D01*
X7957500Y-21920643D01*
X7943214Y-21934929D01*
X7914643Y-21949214D01*
X7886071Y-21949214D01*
X7857500Y-21934929D01*
X7843214Y-21920643D01*
X7828928Y-21892072D01*
X7814643Y-21834929D01*
X7814643Y-21763500D01*
X7828928Y-21706357D01*
X7843214Y-21677786D01*
X7857500Y-21663500D01*
X7886071Y-21649214D01*
X8271786Y-21949214D02*
X8100357Y-21949214D01*
X8186071Y-21949214D02*
X8186071Y-21649214D01*
X8157500Y-21692072D01*
X8128928Y-21720643D01*
X8100357Y-21734929D01*
X8528928Y-21649214D02*
X8471786Y-21649214D01*
X8443214Y-21663500D01*
X8428928Y-21677786D01*
X8400357Y-21720643D01*
X8386071Y-21777786D01*
X8386071Y-21892072D01*
X8400357Y-21920643D01*
X8414643Y-21934929D01*
X8443214Y-21949214D01*
X8500357Y-21949214D01*
X8528928Y-21934929D01*
X8543214Y-21920643D01*
X8557500Y-21892072D01*
X8557500Y-21820643D01*
X8543214Y-21792072D01*
X8528928Y-21777786D01*
X8500357Y-21763500D01*
X8443214Y-21763500D01*
X8414643Y-21777786D01*
X8400357Y-21792072D01*
X8386071Y-21820643D01*
X8671786Y-21649214D02*
X8671786Y-21706357D01*
X8786071Y-21649214D02*
X8786071Y-21706357D01*
X9228928Y-22063500D02*
X9214643Y-22049214D01*
X9186071Y-22006357D01*
X9171786Y-21977786D01*
X9157500Y-21934929D01*
X9143214Y-21863500D01*
X9143214Y-21806357D01*
X9157500Y-21734929D01*
X9171786Y-21692072D01*
X9186071Y-21663500D01*
X9214643Y-21620643D01*
X9228928Y-21606357D01*
X9500357Y-21949214D02*
X9328928Y-21949214D01*
X9414643Y-21949214D02*
X9414643Y-21649214D01*
X9386071Y-21692072D01*
X9357500Y-21720643D01*
X9328928Y-21734929D01*
X9757500Y-21749214D02*
X9757500Y-21949214D01*
X9686071Y-21634929D02*
X9614643Y-21849214D01*
X9800357Y-21849214D01*
X10043214Y-21649214D02*
X9986071Y-21649214D01*
X9957500Y-21663500D01*
X9943214Y-21677786D01*
X9914643Y-21720643D01*
X9900357Y-21777786D01*
X9900357Y-21892072D01*
X9914643Y-21920643D01*
X9928928Y-21934929D01*
X9957500Y-21949214D01*
X10014643Y-21949214D01*
X10043214Y-21934929D01*
X10057500Y-21920643D01*
X10071786Y-21892072D01*
X10071786Y-21820643D01*
X10057500Y-21792072D01*
X10043214Y-21777786D01*
X10014643Y-21763500D01*
X9957500Y-21763500D01*
X9928928Y-21777786D01*
X9914643Y-21792072D01*
X9900357Y-21820643D01*
X10428928Y-21949214D02*
X10428928Y-21649214D01*
X10557500Y-21949214D02*
X10557500Y-21792072D01*
X10543214Y-21763500D01*
X10514643Y-21749214D01*
X10471786Y-21749214D01*
X10443214Y-21763500D01*
X10428928Y-21777786D01*
X10743214Y-21949214D02*
X10714643Y-21934929D01*
X10700357Y-21920643D01*
X10686071Y-21892072D01*
X10686071Y-21806357D01*
X10700357Y-21777786D01*
X10714643Y-21763500D01*
X10743214Y-21749214D01*
X10786071Y-21749214D01*
X10814643Y-21763500D01*
X10828928Y-21777786D01*
X10843214Y-21806357D01*
X10843214Y-21892072D01*
X10828928Y-21920643D01*
X10814643Y-21934929D01*
X10786071Y-21949214D01*
X10743214Y-21949214D01*
X11014643Y-21949214D02*
X10986071Y-21934929D01*
X10971786Y-21906357D01*
X10971786Y-21649214D01*
X11243214Y-21934929D02*
X11214643Y-21949214D01*
X11157500Y-21949214D01*
X11128928Y-21934929D01*
X11114643Y-21906357D01*
X11114643Y-21792072D01*
X11128928Y-21763500D01*
X11157500Y-21749214D01*
X11214643Y-21749214D01*
X11243214Y-21763500D01*
X11257500Y-21792072D01*
X11257500Y-21820643D01*
X11114643Y-21849214D01*
X11371786Y-21934929D02*
X11400357Y-21949214D01*
X11457500Y-21949214D01*
X11486071Y-21934929D01*
X11500357Y-21906357D01*
X11500357Y-21892072D01*
X11486071Y-21863500D01*
X11457500Y-21849214D01*
X11414643Y-21849214D01*
X11386071Y-21834929D01*
X11371786Y-21806357D01*
X11371786Y-21792072D01*
X11386071Y-21763500D01*
X11414643Y-21749214D01*
X11457500Y-21749214D01*
X11486071Y-21763500D01*
X11600357Y-22063500D02*
X11614643Y-22049214D01*
X11643214Y-22006357D01*
X11657500Y-21977786D01*
X11671786Y-21934929D01*
X11686071Y-21863500D01*
X11686071Y-21806357D01*
X11671786Y-21734929D01*
X11657500Y-21692072D01*
X11643214Y-21663500D01*
X11614643Y-21620643D01*
X11600357Y-21606357D01*
X4510000Y-22177000D02*
X4510000Y-22242000D01*
X4477500Y-22209500D02*
X4542500Y-22209500D01*
X4886071Y-22045214D02*
X4914643Y-22045214D01*
X4943214Y-22059500D01*
X4957500Y-22073786D01*
X4971786Y-22102357D01*
X4986071Y-22159500D01*
X4986071Y-22230929D01*
X4971786Y-22288072D01*
X4957500Y-22316643D01*
X4943214Y-22330929D01*
X4914643Y-22345214D01*
X4886071Y-22345214D01*
X4857500Y-22330929D01*
X4843214Y-22316643D01*
X4828928Y-22288072D01*
X4814643Y-22230929D01*
X4814643Y-22159500D01*
X4828928Y-22102357D01*
X4843214Y-22073786D01*
X4857500Y-22059500D01*
X4886071Y-22045214D01*
X5114643Y-22316643D02*
X5128928Y-22330929D01*
X5114643Y-22345214D01*
X5100357Y-22330929D01*
X5114643Y-22316643D01*
X5114643Y-22345214D01*
X5386071Y-22045214D02*
X5328928Y-22045214D01*
X5300357Y-22059500D01*
X5286071Y-22073786D01*
X5257500Y-22116643D01*
X5243214Y-22173786D01*
X5243214Y-22288072D01*
X5257500Y-22316643D01*
X5271786Y-22330929D01*
X5300357Y-22345214D01*
X5357500Y-22345214D01*
X5386071Y-22330929D01*
X5400357Y-22316643D01*
X5414643Y-22288072D01*
X5414643Y-22216643D01*
X5400357Y-22188072D01*
X5386071Y-22173786D01*
X5357500Y-22159500D01*
X5300357Y-22159500D01*
X5271786Y-22173786D01*
X5257500Y-22188072D01*
X5243214Y-22216643D01*
X5686071Y-22045214D02*
X5543214Y-22045214D01*
X5528928Y-22188072D01*
X5543214Y-22173786D01*
X5571786Y-22159500D01*
X5643214Y-22159500D01*
X5671786Y-22173786D01*
X5686071Y-22188072D01*
X5700357Y-22216643D01*
X5700357Y-22288072D01*
X5686071Y-22316643D01*
X5671786Y-22330929D01*
X5643214Y-22345214D01*
X5571786Y-22345214D01*
X5543214Y-22330929D01*
X5528928Y-22316643D01*
X5828928Y-22345214D02*
X5828928Y-22145214D01*
X5828928Y-22173786D02*
X5843214Y-22159500D01*
X5871786Y-22145214D01*
X5914643Y-22145214D01*
X5943214Y-22159500D01*
X5957500Y-22188072D01*
X5957500Y-22345214D01*
X5957500Y-22188072D02*
X5971786Y-22159500D01*
X6000357Y-22145214D01*
X6043214Y-22145214D01*
X6071786Y-22159500D01*
X6086071Y-22188072D01*
X6086071Y-22345214D01*
X6228928Y-22345214D02*
X6228928Y-22145214D01*
X6228928Y-22173786D02*
X6243214Y-22159500D01*
X6271786Y-22145214D01*
X6314643Y-22145214D01*
X6343214Y-22159500D01*
X6357500Y-22188072D01*
X6357500Y-22345214D01*
X6357500Y-22188072D02*
X6371786Y-22159500D01*
X6400357Y-22145214D01*
X6443214Y-22145214D01*
X6471786Y-22159500D01*
X6486071Y-22188072D01*
X6486071Y-22345214D01*
X7071786Y-22030929D02*
X6814643Y-22416643D01*
X7457500Y-22045214D02*
X7486071Y-22045214D01*
X7514643Y-22059500D01*
X7528928Y-22073786D01*
X7543214Y-22102357D01*
X7557500Y-22159500D01*
X7557500Y-22230929D01*
X7543214Y-22288072D01*
X7528928Y-22316643D01*
X7514643Y-22330929D01*
X7486071Y-22345214D01*
X7457500Y-22345214D01*
X7428928Y-22330929D01*
X7414643Y-22316643D01*
X7400357Y-22288072D01*
X7386071Y-22230929D01*
X7386071Y-22159500D01*
X7400357Y-22102357D01*
X7414643Y-22073786D01*
X7428928Y-22059500D01*
X7457500Y-22045214D01*
X7686071Y-22316643D02*
X7700357Y-22330929D01*
X7686071Y-22345214D01*
X7671786Y-22330929D01*
X7686071Y-22316643D01*
X7686071Y-22345214D01*
X7886071Y-22045214D02*
X7914643Y-22045214D01*
X7943214Y-22059500D01*
X7957500Y-22073786D01*
X7971786Y-22102357D01*
X7986071Y-22159500D01*
X7986071Y-22230929D01*
X7971786Y-22288072D01*
X7957500Y-22316643D01*
X7943214Y-22330929D01*
X7914643Y-22345214D01*
X7886071Y-22345214D01*
X7857500Y-22330929D01*
X7843214Y-22316643D01*
X7828928Y-22288072D01*
X7814643Y-22230929D01*
X7814643Y-22159500D01*
X7828928Y-22102357D01*
X7843214Y-22073786D01*
X7857500Y-22059500D01*
X7886071Y-22045214D01*
X8100357Y-22073786D02*
X8114643Y-22059500D01*
X8143214Y-22045214D01*
X8214643Y-22045214D01*
X8243214Y-22059500D01*
X8257500Y-22073786D01*
X8271786Y-22102357D01*
X8271786Y-22130929D01*
X8257500Y-22173786D01*
X8086071Y-22345214D01*
X8271786Y-22345214D01*
X8528928Y-22045214D02*
X8471786Y-22045214D01*
X8443214Y-22059500D01*
X8428928Y-22073786D01*
X8400357Y-22116643D01*
X8386071Y-22173786D01*
X8386071Y-22288072D01*
X8400357Y-22316643D01*
X8414643Y-22330929D01*
X8443214Y-22345214D01*
X8500357Y-22345214D01*
X8528928Y-22330929D01*
X8543214Y-22316643D01*
X8557500Y-22288072D01*
X8557500Y-22216643D01*
X8543214Y-22188072D01*
X8528928Y-22173786D01*
X8500357Y-22159500D01*
X8443214Y-22159500D01*
X8414643Y-22173786D01*
X8400357Y-22188072D01*
X8386071Y-22216643D01*
X8671786Y-22045214D02*
X8671786Y-22102357D01*
X8786071Y-22045214D02*
X8786071Y-22102357D01*
X9228928Y-22459500D02*
X9214643Y-22445214D01*
X9186071Y-22402357D01*
X9171786Y-22373786D01*
X9157500Y-22330929D01*
X9143214Y-22259500D01*
X9143214Y-22202357D01*
X9157500Y-22130929D01*
X9171786Y-22088072D01*
X9186071Y-22059500D01*
X9214643Y-22016643D01*
X9228928Y-22002357D01*
X9400357Y-22045214D02*
X9428928Y-22045214D01*
X9457500Y-22059500D01*
X9471786Y-22073786D01*
X9486071Y-22102357D01*
X9500357Y-22159500D01*
X9500357Y-22230929D01*
X9486071Y-22288072D01*
X9471786Y-22316643D01*
X9457500Y-22330929D01*
X9428928Y-22345214D01*
X9400357Y-22345214D01*
X9371786Y-22330929D01*
X9357500Y-22316643D01*
X9343214Y-22288072D01*
X9328928Y-22230929D01*
X9328928Y-22159500D01*
X9343214Y-22102357D01*
X9357500Y-22073786D01*
X9371786Y-22059500D01*
X9400357Y-22045214D01*
X9857500Y-22345214D02*
X9857500Y-22045214D01*
X9986071Y-22345214D02*
X9986071Y-22188072D01*
X9971786Y-22159500D01*
X9943214Y-22145214D01*
X9900357Y-22145214D01*
X9871786Y-22159500D01*
X9857500Y-22173786D01*
X10171786Y-22345214D02*
X10143214Y-22330929D01*
X10128928Y-22316643D01*
X10114643Y-22288072D01*
X10114643Y-22202357D01*
X10128928Y-22173786D01*
X10143214Y-22159500D01*
X10171786Y-22145214D01*
X10214643Y-22145214D01*
X10243214Y-22159500D01*
X10257500Y-22173786D01*
X10271786Y-22202357D01*
X10271786Y-22288072D01*
X10257500Y-22316643D01*
X10243214Y-22330929D01*
X10214643Y-22345214D01*
X10171786Y-22345214D01*
X10443214Y-22345214D02*
X10414643Y-22330929D01*
X10400357Y-22302357D01*
X10400357Y-22045214D01*
X10671786Y-22330929D02*
X10643214Y-22345214D01*
X10586071Y-22345214D01*
X10557500Y-22330929D01*
X10543214Y-22302357D01*
X10543214Y-22188072D01*
X10557500Y-22159500D01*
X10586071Y-22145214D01*
X10643214Y-22145214D01*
X10671786Y-22159500D01*
X10686071Y-22188072D01*
X10686071Y-22216643D01*
X10543214Y-22245214D01*
X10800357Y-22330929D02*
X10828928Y-22345214D01*
X10886071Y-22345214D01*
X10914643Y-22330929D01*
X10928928Y-22302357D01*
X10928928Y-22288072D01*
X10914643Y-22259500D01*
X10886071Y-22245214D01*
X10843214Y-22245214D01*
X10814643Y-22230929D01*
X10800357Y-22202357D01*
X10800357Y-22188072D01*
X10814643Y-22159500D01*
X10843214Y-22145214D01*
X10886071Y-22145214D01*
X10914643Y-22159500D01*
X11286071Y-22230929D02*
X11514643Y-22230929D01*
X11400357Y-22345214D02*
X11400357Y-22116643D01*
X11871786Y-22073786D02*
X11886071Y-22059500D01*
X11914643Y-22045214D01*
X11986071Y-22045214D01*
X12014643Y-22059500D01*
X12028928Y-22073786D01*
X12043214Y-22102357D01*
X12043214Y-22130929D01*
X12028928Y-22173786D01*
X11857500Y-22345214D01*
X12043214Y-22345214D01*
X12386071Y-22330929D02*
X12414643Y-22345214D01*
X12471786Y-22345214D01*
X12500357Y-22330929D01*
X12514643Y-22302357D01*
X12514643Y-22288072D01*
X12500357Y-22259500D01*
X12471786Y-22245214D01*
X12428928Y-22245214D01*
X12400357Y-22230929D01*
X12386071Y-22202357D01*
X12386071Y-22188072D01*
X12400357Y-22159500D01*
X12428928Y-22145214D01*
X12471786Y-22145214D01*
X12500357Y-22159500D01*
X12686071Y-22345214D02*
X12657500Y-22330929D01*
X12643214Y-22302357D01*
X12643214Y-22045214D01*
X12843214Y-22345214D02*
X12814643Y-22330929D01*
X12800357Y-22316643D01*
X12786071Y-22288072D01*
X12786071Y-22202357D01*
X12800357Y-22173786D01*
X12814643Y-22159500D01*
X12843214Y-22145214D01*
X12886071Y-22145214D01*
X12914643Y-22159500D01*
X12928928Y-22173786D01*
X12943214Y-22202357D01*
X12943214Y-22288072D01*
X12928928Y-22316643D01*
X12914643Y-22330929D01*
X12886071Y-22345214D01*
X12843214Y-22345214D01*
X13028928Y-22145214D02*
X13143214Y-22145214D01*
X13071786Y-22045214D02*
X13071786Y-22302357D01*
X13086071Y-22330929D01*
X13114643Y-22345214D01*
X13143214Y-22345214D01*
X13228928Y-22330929D02*
X13257500Y-22345214D01*
X13314643Y-22345214D01*
X13343214Y-22330929D01*
X13357500Y-22302357D01*
X13357500Y-22288072D01*
X13343214Y-22259500D01*
X13314643Y-22245214D01*
X13271786Y-22245214D01*
X13243214Y-22230929D01*
X13228928Y-22202357D01*
X13228928Y-22188072D01*
X13243214Y-22159500D01*
X13271786Y-22145214D01*
X13314643Y-22145214D01*
X13343214Y-22159500D01*
X13457500Y-22459500D02*
X13471786Y-22445214D01*
X13500357Y-22402357D01*
X13514643Y-22373786D01*
X13528928Y-22330929D01*
X13543214Y-22259500D01*
X13543214Y-22202357D01*
X13528928Y-22130929D01*
X13514643Y-22088072D01*
X13500357Y-22059500D01*
X13471786Y-22016643D01*
X13457500Y-22002357D01*
X4532249Y-22630249D02*
X4532249Y-22580751D01*
X4482751Y-22580751D01*
X4482751Y-22630249D01*
X4532249Y-22630249D01*
X4886071Y-22441214D02*
X4914643Y-22441214D01*
X4943214Y-22455500D01*
X4957500Y-22469786D01*
X4971786Y-22498357D01*
X4986071Y-22555500D01*
X4986071Y-22626929D01*
X4971786Y-22684071D01*
X4957500Y-22712643D01*
X4943214Y-22726929D01*
X4914643Y-22741214D01*
X4886071Y-22741214D01*
X4857500Y-22726929D01*
X4843214Y-22712643D01*
X4828928Y-22684071D01*
X4814643Y-22626929D01*
X4814643Y-22555500D01*
X4828928Y-22498357D01*
X4843214Y-22469786D01*
X4857500Y-22455500D01*
X4886071Y-22441214D01*
X5114643Y-22712643D02*
X5128928Y-22726929D01*
X5114643Y-22741214D01*
X5100357Y-22726929D01*
X5114643Y-22712643D01*
X5114643Y-22741214D01*
X5228928Y-22441214D02*
X5428928Y-22441214D01*
X5300357Y-22741214D01*
X5600357Y-22441214D02*
X5628928Y-22441214D01*
X5657500Y-22455500D01*
X5671786Y-22469786D01*
X5686071Y-22498357D01*
X5700357Y-22555500D01*
X5700357Y-22626929D01*
X5686071Y-22684071D01*
X5671786Y-22712643D01*
X5657500Y-22726929D01*
X5628928Y-22741214D01*
X5600357Y-22741214D01*
X5571786Y-22726929D01*
X5557500Y-22712643D01*
X5543214Y-22684071D01*
X5528928Y-22626929D01*
X5528928Y-22555500D01*
X5543214Y-22498357D01*
X5557500Y-22469786D01*
X5571786Y-22455500D01*
X5600357Y-22441214D01*
X5828928Y-22741214D02*
X5828928Y-22541214D01*
X5828928Y-22569786D02*
X5843214Y-22555500D01*
X5871786Y-22541214D01*
X5914643Y-22541214D01*
X5943214Y-22555500D01*
X5957500Y-22584071D01*
X5957500Y-22741214D01*
X5957500Y-22584071D02*
X5971786Y-22555500D01*
X6000357Y-22541214D01*
X6043214Y-22541214D01*
X6071786Y-22555500D01*
X6086071Y-22584071D01*
X6086071Y-22741214D01*
X6228928Y-22741214D02*
X6228928Y-22541214D01*
X6228928Y-22569786D02*
X6243214Y-22555500D01*
X6271786Y-22541214D01*
X6314643Y-22541214D01*
X6343214Y-22555500D01*
X6357500Y-22584071D01*
X6357500Y-22741214D01*
X6357500Y-22584071D02*
X6371786Y-22555500D01*
X6400357Y-22541214D01*
X6443214Y-22541214D01*
X6471786Y-22555500D01*
X6486071Y-22584071D01*
X6486071Y-22741214D01*
X7071786Y-22426929D02*
X6814643Y-22812643D01*
X7457500Y-22441214D02*
X7486071Y-22441214D01*
X7514643Y-22455500D01*
X7528928Y-22469786D01*
X7543214Y-22498357D01*
X7557500Y-22555500D01*
X7557500Y-22626929D01*
X7543214Y-22684071D01*
X7528928Y-22712643D01*
X7514643Y-22726929D01*
X7486071Y-22741214D01*
X7457500Y-22741214D01*
X7428928Y-22726929D01*
X7414643Y-22712643D01*
X7400357Y-22684071D01*
X7386071Y-22626929D01*
X7386071Y-22555500D01*
X7400357Y-22498357D01*
X7414643Y-22469786D01*
X7428928Y-22455500D01*
X7457500Y-22441214D01*
X7686071Y-22712643D02*
X7700357Y-22726929D01*
X7686071Y-22741214D01*
X7671786Y-22726929D01*
X7686071Y-22712643D01*
X7686071Y-22741214D01*
X7886071Y-22441214D02*
X7914643Y-22441214D01*
X7943214Y-22455500D01*
X7957500Y-22469786D01*
X7971786Y-22498357D01*
X7986071Y-22555500D01*
X7986071Y-22626929D01*
X7971786Y-22684071D01*
X7957500Y-22712643D01*
X7943214Y-22726929D01*
X7914643Y-22741214D01*
X7886071Y-22741214D01*
X7857500Y-22726929D01*
X7843214Y-22712643D01*
X7828928Y-22684071D01*
X7814643Y-22626929D01*
X7814643Y-22555500D01*
X7828928Y-22498357D01*
X7843214Y-22469786D01*
X7857500Y-22455500D01*
X7886071Y-22441214D01*
X8100357Y-22469786D02*
X8114643Y-22455500D01*
X8143214Y-22441214D01*
X8214643Y-22441214D01*
X8243214Y-22455500D01*
X8257500Y-22469786D01*
X8271786Y-22498357D01*
X8271786Y-22526929D01*
X8257500Y-22569786D01*
X8086071Y-22741214D01*
X8271786Y-22741214D01*
X8443214Y-22569786D02*
X8414643Y-22555500D01*
X8400357Y-22541214D01*
X8386071Y-22512643D01*
X8386071Y-22498357D01*
X8400357Y-22469786D01*
X8414643Y-22455500D01*
X8443214Y-22441214D01*
X8500357Y-22441214D01*
X8528928Y-22455500D01*
X8543214Y-22469786D01*
X8557500Y-22498357D01*
X8557500Y-22512643D01*
X8543214Y-22541214D01*
X8528928Y-22555500D01*
X8500357Y-22569786D01*
X8443214Y-22569786D01*
X8414643Y-22584071D01*
X8400357Y-22598357D01*
X8386071Y-22626929D01*
X8386071Y-22684071D01*
X8400357Y-22712643D01*
X8414643Y-22726929D01*
X8443214Y-22741214D01*
X8500357Y-22741214D01*
X8528928Y-22726929D01*
X8543214Y-22712643D01*
X8557500Y-22684071D01*
X8557500Y-22626929D01*
X8543214Y-22598357D01*
X8528928Y-22584071D01*
X8500357Y-22569786D01*
X8671786Y-22441214D02*
X8671786Y-22498357D01*
X8786071Y-22441214D02*
X8786071Y-22498357D01*
X9228928Y-22855500D02*
X9214643Y-22841214D01*
X9186071Y-22798357D01*
X9171786Y-22769786D01*
X9157500Y-22726929D01*
X9143214Y-22655500D01*
X9143214Y-22598357D01*
X9157500Y-22526929D01*
X9171786Y-22484071D01*
X9186071Y-22455500D01*
X9214643Y-22412643D01*
X9228928Y-22398357D01*
X9400357Y-22441214D02*
X9428928Y-22441214D01*
X9457500Y-22455500D01*
X9471786Y-22469786D01*
X9486071Y-22498357D01*
X9500357Y-22555500D01*
X9500357Y-22626929D01*
X9486071Y-22684071D01*
X9471786Y-22712643D01*
X9457500Y-22726929D01*
X9428928Y-22741214D01*
X9400357Y-22741214D01*
X9371786Y-22726929D01*
X9357500Y-22712643D01*
X9343214Y-22684071D01*
X9328928Y-22626929D01*
X9328928Y-22555500D01*
X9343214Y-22498357D01*
X9357500Y-22469786D01*
X9371786Y-22455500D01*
X9400357Y-22441214D01*
X9857500Y-22741214D02*
X9857500Y-22441214D01*
X9986071Y-22741214D02*
X9986071Y-22584071D01*
X9971786Y-22555500D01*
X9943214Y-22541214D01*
X9900357Y-22541214D01*
X9871786Y-22555500D01*
X9857500Y-22569786D01*
X10171786Y-22741214D02*
X10143214Y-22726929D01*
X10128928Y-22712643D01*
X10114643Y-22684071D01*
X10114643Y-22598357D01*
X10128928Y-22569786D01*
X10143214Y-22555500D01*
X10171786Y-22541214D01*
X10214643Y-22541214D01*
X10243214Y-22555500D01*
X10257500Y-22569786D01*
X10271786Y-22598357D01*
X10271786Y-22684071D01*
X10257500Y-22712643D01*
X10243214Y-22726929D01*
X10214643Y-22741214D01*
X10171786Y-22741214D01*
X10443214Y-22741214D02*
X10414643Y-22726929D01*
X10400357Y-22698357D01*
X10400357Y-22441214D01*
X10671786Y-22726929D02*
X10643214Y-22741214D01*
X10586071Y-22741214D01*
X10557500Y-22726929D01*
X10543214Y-22698357D01*
X10543214Y-22584071D01*
X10557500Y-22555500D01*
X10586071Y-22541214D01*
X10643214Y-22541214D01*
X10671786Y-22555500D01*
X10686071Y-22584071D01*
X10686071Y-22612643D01*
X10543214Y-22641214D01*
X10800357Y-22726929D02*
X10828928Y-22741214D01*
X10886071Y-22741214D01*
X10914643Y-22726929D01*
X10928928Y-22698357D01*
X10928928Y-22684071D01*
X10914643Y-22655500D01*
X10886071Y-22641214D01*
X10843214Y-22641214D01*
X10814643Y-22626929D01*
X10800357Y-22598357D01*
X10800357Y-22584071D01*
X10814643Y-22555500D01*
X10843214Y-22541214D01*
X10886071Y-22541214D01*
X10914643Y-22555500D01*
X11286071Y-22626929D02*
X11514643Y-22626929D01*
X11400357Y-22741214D02*
X11400357Y-22512643D01*
X11871786Y-22469786D02*
X11886071Y-22455500D01*
X11914643Y-22441214D01*
X11986071Y-22441214D01*
X12014643Y-22455500D01*
X12028928Y-22469786D01*
X12043214Y-22498357D01*
X12043214Y-22526929D01*
X12028928Y-22569786D01*
X11857500Y-22741214D01*
X12043214Y-22741214D01*
X12386071Y-22726929D02*
X12414643Y-22741214D01*
X12471786Y-22741214D01*
X12500357Y-22726929D01*
X12514643Y-22698357D01*
X12514643Y-22684071D01*
X12500357Y-22655500D01*
X12471786Y-22641214D01*
X12428928Y-22641214D01*
X12400357Y-22626929D01*
X12386071Y-22598357D01*
X12386071Y-22584071D01*
X12400357Y-22555500D01*
X12428928Y-22541214D01*
X12471786Y-22541214D01*
X12500357Y-22555500D01*
X12686071Y-22741214D02*
X12657500Y-22726929D01*
X12643214Y-22698357D01*
X12643214Y-22441214D01*
X12843214Y-22741214D02*
X12814643Y-22726929D01*
X12800357Y-22712643D01*
X12786071Y-22684071D01*
X12786071Y-22598357D01*
X12800357Y-22569786D01*
X12814643Y-22555500D01*
X12843214Y-22541214D01*
X12886071Y-22541214D01*
X12914643Y-22555500D01*
X12928928Y-22569786D01*
X12943214Y-22598357D01*
X12943214Y-22684071D01*
X12928928Y-22712643D01*
X12914643Y-22726929D01*
X12886071Y-22741214D01*
X12843214Y-22741214D01*
X13028928Y-22541214D02*
X13143214Y-22541214D01*
X13071786Y-22441214D02*
X13071786Y-22698357D01*
X13086071Y-22726929D01*
X13114643Y-22741214D01*
X13143214Y-22741214D01*
X13228928Y-22726929D02*
X13257500Y-22741214D01*
X13314643Y-22741214D01*
X13343214Y-22726929D01*
X13357500Y-22698357D01*
X13357500Y-22684071D01*
X13343214Y-22655500D01*
X13314643Y-22641214D01*
X13271786Y-22641214D01*
X13243214Y-22626929D01*
X13228928Y-22598357D01*
X13228928Y-22584071D01*
X13243214Y-22555500D01*
X13271786Y-22541214D01*
X13314643Y-22541214D01*
X13343214Y-22555500D01*
X13457500Y-22855500D02*
X13471786Y-22841214D01*
X13500357Y-22798357D01*
X13514643Y-22769786D01*
X13528928Y-22726929D01*
X13543214Y-22655500D01*
X13543214Y-22598357D01*
X13528928Y-22526929D01*
X13514643Y-22484071D01*
X13500357Y-22455500D01*
X13471786Y-22412643D01*
X13457500Y-22398357D01*
X4492500Y-23051500D02*
X4542500Y-23001500D01*
X4492500Y-22951500D01*
X4442500Y-23001500D01*
X4492500Y-23051500D01*
X4986071Y-23137214D02*
X4814643Y-23137214D01*
X4900357Y-23137214D02*
X4900357Y-22837214D01*
X4871786Y-22880071D01*
X4843214Y-22908643D01*
X4814643Y-22922929D01*
X5114643Y-23108643D02*
X5128928Y-23122929D01*
X5114643Y-23137214D01*
X5100357Y-23122929D01*
X5114643Y-23108643D01*
X5114643Y-23137214D01*
X5314643Y-22837214D02*
X5343214Y-22837214D01*
X5371786Y-22851500D01*
X5386071Y-22865786D01*
X5400357Y-22894357D01*
X5414643Y-22951500D01*
X5414643Y-23022929D01*
X5400357Y-23080071D01*
X5386071Y-23108643D01*
X5371786Y-23122929D01*
X5343214Y-23137214D01*
X5314643Y-23137214D01*
X5286071Y-23122929D01*
X5271786Y-23108643D01*
X5257500Y-23080071D01*
X5243214Y-23022929D01*
X5243214Y-22951500D01*
X5257500Y-22894357D01*
X5271786Y-22865786D01*
X5286071Y-22851500D01*
X5314643Y-22837214D01*
X5600357Y-22837214D02*
X5628928Y-22837214D01*
X5657500Y-22851500D01*
X5671786Y-22865786D01*
X5686071Y-22894357D01*
X5700357Y-22951500D01*
X5700357Y-23022929D01*
X5686071Y-23080071D01*
X5671786Y-23108643D01*
X5657500Y-23122929D01*
X5628928Y-23137214D01*
X5600357Y-23137214D01*
X5571786Y-23122929D01*
X5557500Y-23108643D01*
X5543214Y-23080071D01*
X5528928Y-23022929D01*
X5528928Y-22951500D01*
X5543214Y-22894357D01*
X5557500Y-22865786D01*
X5571786Y-22851500D01*
X5600357Y-22837214D01*
X5828928Y-23137214D02*
X5828928Y-22937214D01*
X5828928Y-22965786D02*
X5843214Y-22951500D01*
X5871786Y-22937214D01*
X5914643Y-22937214D01*
X5943214Y-22951500D01*
X5957500Y-22980071D01*
X5957500Y-23137214D01*
X5957500Y-22980071D02*
X5971786Y-22951500D01*
X6000357Y-22937214D01*
X6043214Y-22937214D01*
X6071786Y-22951500D01*
X6086071Y-22980071D01*
X6086071Y-23137214D01*
X6228928Y-23137214D02*
X6228928Y-22937214D01*
X6228928Y-22965786D02*
X6243214Y-22951500D01*
X6271786Y-22937214D01*
X6314643Y-22937214D01*
X6343214Y-22951500D01*
X6357500Y-22980071D01*
X6357500Y-23137214D01*
X6357500Y-22980071D02*
X6371786Y-22951500D01*
X6400357Y-22937214D01*
X6443214Y-22937214D01*
X6471786Y-22951500D01*
X6486071Y-22980071D01*
X6486071Y-23137214D01*
X7071786Y-22822929D02*
X6814643Y-23208643D01*
X7457500Y-22837214D02*
X7486071Y-22837214D01*
X7514643Y-22851500D01*
X7528928Y-22865786D01*
X7543214Y-22894357D01*
X7557500Y-22951500D01*
X7557500Y-23022929D01*
X7543214Y-23080071D01*
X7528928Y-23108643D01*
X7514643Y-23122929D01*
X7486071Y-23137214D01*
X7457500Y-23137214D01*
X7428928Y-23122929D01*
X7414643Y-23108643D01*
X7400357Y-23080071D01*
X7386071Y-23022929D01*
X7386071Y-22951500D01*
X7400357Y-22894357D01*
X7414643Y-22865786D01*
X7428928Y-22851500D01*
X7457500Y-22837214D01*
X7686071Y-23108643D02*
X7700357Y-23122929D01*
X7686071Y-23137214D01*
X7671786Y-23122929D01*
X7686071Y-23108643D01*
X7686071Y-23137214D01*
X7886071Y-22837214D02*
X7914643Y-22837214D01*
X7943214Y-22851500D01*
X7957500Y-22865786D01*
X7971786Y-22894357D01*
X7986071Y-22951500D01*
X7986071Y-23022929D01*
X7971786Y-23080071D01*
X7957500Y-23108643D01*
X7943214Y-23122929D01*
X7914643Y-23137214D01*
X7886071Y-23137214D01*
X7857500Y-23122929D01*
X7843214Y-23108643D01*
X7828928Y-23080071D01*
X7814643Y-23022929D01*
X7814643Y-22951500D01*
X7828928Y-22894357D01*
X7843214Y-22865786D01*
X7857500Y-22851500D01*
X7886071Y-22837214D01*
X8086071Y-22837214D02*
X8271786Y-22837214D01*
X8171786Y-22951500D01*
X8214643Y-22951500D01*
X8243214Y-22965786D01*
X8257500Y-22980071D01*
X8271786Y-23008643D01*
X8271786Y-23080071D01*
X8257500Y-23108643D01*
X8243214Y-23122929D01*
X8214643Y-23137214D01*
X8128928Y-23137214D01*
X8100357Y-23122929D01*
X8086071Y-23108643D01*
X8414643Y-23137214D02*
X8471786Y-23137214D01*
X8500357Y-23122929D01*
X8514643Y-23108643D01*
X8543214Y-23065786D01*
X8557500Y-23008643D01*
X8557500Y-22894357D01*
X8543214Y-22865786D01*
X8528928Y-22851500D01*
X8500357Y-22837214D01*
X8443214Y-22837214D01*
X8414643Y-22851500D01*
X8400357Y-22865786D01*
X8386071Y-22894357D01*
X8386071Y-22965786D01*
X8400357Y-22994357D01*
X8414643Y-23008643D01*
X8443214Y-23022929D01*
X8500357Y-23022929D01*
X8528928Y-23008643D01*
X8543214Y-22994357D01*
X8557500Y-22965786D01*
X8671786Y-22837214D02*
X8671786Y-22894357D01*
X8786071Y-22837214D02*
X8786071Y-22894357D01*
X9228928Y-23251500D02*
X9214643Y-23237214D01*
X9186071Y-23194357D01*
X9171786Y-23165786D01*
X9157500Y-23122929D01*
X9143214Y-23051500D01*
X9143214Y-22994357D01*
X9157500Y-22922929D01*
X9171786Y-22880071D01*
X9186071Y-22851500D01*
X9214643Y-22808643D01*
X9228928Y-22794357D01*
X9500357Y-23137214D02*
X9328928Y-23137214D01*
X9414643Y-23137214D02*
X9414643Y-22837214D01*
X9386071Y-22880071D01*
X9357500Y-22908643D01*
X9328928Y-22922929D01*
X9771786Y-22837214D02*
X9628928Y-22837214D01*
X9614643Y-22980071D01*
X9628928Y-22965786D01*
X9657500Y-22951500D01*
X9728928Y-22951500D01*
X9757500Y-22965786D01*
X9771786Y-22980071D01*
X9786071Y-23008643D01*
X9786071Y-23080071D01*
X9771786Y-23108643D01*
X9757500Y-23122929D01*
X9728928Y-23137214D01*
X9657500Y-23137214D01*
X9628928Y-23122929D01*
X9614643Y-23108643D01*
X10143214Y-23137214D02*
X10143214Y-22837214D01*
X10271786Y-23137214D02*
X10271786Y-22980071D01*
X10257500Y-22951500D01*
X10228928Y-22937214D01*
X10186071Y-22937214D01*
X10157500Y-22951500D01*
X10143214Y-22965786D01*
X10457500Y-23137214D02*
X10428928Y-23122929D01*
X10414643Y-23108643D01*
X10400357Y-23080071D01*
X10400357Y-22994357D01*
X10414643Y-22965786D01*
X10428928Y-22951500D01*
X10457500Y-22937214D01*
X10500357Y-22937214D01*
X10528928Y-22951500D01*
X10543214Y-22965786D01*
X10557500Y-22994357D01*
X10557500Y-23080071D01*
X10543214Y-23108643D01*
X10528928Y-23122929D01*
X10500357Y-23137214D01*
X10457500Y-23137214D01*
X10728928Y-23137214D02*
X10700357Y-23122929D01*
X10686071Y-23094357D01*
X10686071Y-22837214D01*
X10957500Y-23122929D02*
X10928928Y-23137214D01*
X10871786Y-23137214D01*
X10843214Y-23122929D01*
X10828928Y-23094357D01*
X10828928Y-22980071D01*
X10843214Y-22951500D01*
X10871786Y-22937214D01*
X10928928Y-22937214D01*
X10957500Y-22951500D01*
X10971786Y-22980071D01*
X10971786Y-23008643D01*
X10828928Y-23037214D01*
X11086071Y-23122929D02*
X11114643Y-23137214D01*
X11171786Y-23137214D01*
X11200357Y-23122929D01*
X11214643Y-23094357D01*
X11214643Y-23080071D01*
X11200357Y-23051500D01*
X11171786Y-23037214D01*
X11128928Y-23037214D01*
X11100357Y-23022929D01*
X11086071Y-22994357D01*
X11086071Y-22980071D01*
X11100357Y-22951500D01*
X11128928Y-22937214D01*
X11171786Y-22937214D01*
X11200357Y-22951500D01*
X11314643Y-23251500D02*
X11328928Y-23237214D01*
X11357500Y-23194357D01*
X11371786Y-23165786D01*
X11386071Y-23122929D01*
X11400357Y-23051500D01*
X11400357Y-22994357D01*
X11386071Y-22922929D01*
X11371786Y-22880071D01*
X11357500Y-22851500D01*
X11328928Y-22808643D01*
X11314643Y-22794357D01*
X4440900Y-23346700D02*
X4542500Y-23448300D01*
X4542500Y-23346700D02*
X4440900Y-23448300D01*
X4542500Y-23397500D02*
G75*
G03X4542500Y-23397500I-50800J0D01*
G01*
X4986071Y-23533214D02*
X4814643Y-23533214D01*
X4900357Y-23533214D02*
X4900357Y-23233214D01*
X4871786Y-23276071D01*
X4843214Y-23304643D01*
X4814643Y-23318929D01*
X5114643Y-23504643D02*
X5128928Y-23518929D01*
X5114643Y-23533214D01*
X5100357Y-23518929D01*
X5114643Y-23504643D01*
X5114643Y-23533214D01*
X5314643Y-23233214D02*
X5343214Y-23233214D01*
X5371786Y-23247500D01*
X5386071Y-23261786D01*
X5400357Y-23290357D01*
X5414643Y-23347500D01*
X5414643Y-23418929D01*
X5400357Y-23476071D01*
X5386071Y-23504643D01*
X5371786Y-23518929D01*
X5343214Y-23533214D01*
X5314643Y-23533214D01*
X5286071Y-23518929D01*
X5271786Y-23504643D01*
X5257500Y-23476071D01*
X5243214Y-23418929D01*
X5243214Y-23347500D01*
X5257500Y-23290357D01*
X5271786Y-23261786D01*
X5286071Y-23247500D01*
X5314643Y-23233214D01*
X5528928Y-23261786D02*
X5543214Y-23247500D01*
X5571786Y-23233214D01*
X5643214Y-23233214D01*
X5671786Y-23247500D01*
X5686071Y-23261786D01*
X5700357Y-23290357D01*
X5700357Y-23318929D01*
X5686071Y-23361786D01*
X5514643Y-23533214D01*
X5700357Y-23533214D01*
X5828928Y-23533214D02*
X5828928Y-23333214D01*
X5828928Y-23361786D02*
X5843214Y-23347500D01*
X5871786Y-23333214D01*
X5914643Y-23333214D01*
X5943214Y-23347500D01*
X5957500Y-23376071D01*
X5957500Y-23533214D01*
X5957500Y-23376071D02*
X5971786Y-23347500D01*
X6000357Y-23333214D01*
X6043214Y-23333214D01*
X6071786Y-23347500D01*
X6086071Y-23376071D01*
X6086071Y-23533214D01*
X6228928Y-23533214D02*
X6228928Y-23333214D01*
X6228928Y-23361786D02*
X6243214Y-23347500D01*
X6271786Y-23333214D01*
X6314643Y-23333214D01*
X6343214Y-23347500D01*
X6357500Y-23376071D01*
X6357500Y-23533214D01*
X6357500Y-23376071D02*
X6371786Y-23347500D01*
X6400357Y-23333214D01*
X6443214Y-23333214D01*
X6471786Y-23347500D01*
X6486071Y-23376071D01*
X6486071Y-23533214D01*
X7071786Y-23218929D02*
X6814643Y-23604643D01*
X7457500Y-23233214D02*
X7486071Y-23233214D01*
X7514643Y-23247500D01*
X7528928Y-23261786D01*
X7543214Y-23290357D01*
X7557500Y-23347500D01*
X7557500Y-23418929D01*
X7543214Y-23476071D01*
X7528928Y-23504643D01*
X7514643Y-23518929D01*
X7486071Y-23533214D01*
X7457500Y-23533214D01*
X7428928Y-23518929D01*
X7414643Y-23504643D01*
X7400357Y-23476071D01*
X7386071Y-23418929D01*
X7386071Y-23347500D01*
X7400357Y-23290357D01*
X7414643Y-23261786D01*
X7428928Y-23247500D01*
X7457500Y-23233214D01*
X7686071Y-23504643D02*
X7700357Y-23518929D01*
X7686071Y-23533214D01*
X7671786Y-23518929D01*
X7686071Y-23504643D01*
X7686071Y-23533214D01*
X7886071Y-23233214D02*
X7914643Y-23233214D01*
X7943214Y-23247500D01*
X7957500Y-23261786D01*
X7971786Y-23290357D01*
X7986071Y-23347500D01*
X7986071Y-23418929D01*
X7971786Y-23476071D01*
X7957500Y-23504643D01*
X7943214Y-23518929D01*
X7914643Y-23533214D01*
X7886071Y-23533214D01*
X7857500Y-23518929D01*
X7843214Y-23504643D01*
X7828928Y-23476071D01*
X7814643Y-23418929D01*
X7814643Y-23347500D01*
X7828928Y-23290357D01*
X7843214Y-23261786D01*
X7857500Y-23247500D01*
X7886071Y-23233214D01*
X8243214Y-23333214D02*
X8243214Y-23533214D01*
X8171786Y-23218929D02*
X8100357Y-23433214D01*
X8286071Y-23433214D01*
X8457500Y-23233214D02*
X8486071Y-23233214D01*
X8514643Y-23247500D01*
X8528928Y-23261786D01*
X8543214Y-23290357D01*
X8557500Y-23347500D01*
X8557500Y-23418929D01*
X8543214Y-23476071D01*
X8528928Y-23504643D01*
X8514643Y-23518929D01*
X8486071Y-23533214D01*
X8457500Y-23533214D01*
X8428928Y-23518929D01*
X8414643Y-23504643D01*
X8400357Y-23476071D01*
X8386071Y-23418929D01*
X8386071Y-23347500D01*
X8400357Y-23290357D01*
X8414643Y-23261786D01*
X8428928Y-23247500D01*
X8457500Y-23233214D01*
X8671786Y-23233214D02*
X8671786Y-23290357D01*
X8786071Y-23233214D02*
X8786071Y-23290357D01*
X9228928Y-23647500D02*
X9214643Y-23633214D01*
X9186071Y-23590357D01*
X9171786Y-23561786D01*
X9157500Y-23518929D01*
X9143214Y-23447500D01*
X9143214Y-23390357D01*
X9157500Y-23318929D01*
X9171786Y-23276071D01*
X9186071Y-23247500D01*
X9214643Y-23204643D01*
X9228928Y-23190357D01*
X9314643Y-23233214D02*
X9500357Y-23233214D01*
X9400357Y-23347500D01*
X9443214Y-23347500D01*
X9471786Y-23361786D01*
X9486071Y-23376071D01*
X9500357Y-23404643D01*
X9500357Y-23476071D01*
X9486071Y-23504643D01*
X9471786Y-23518929D01*
X9443214Y-23533214D01*
X9357500Y-23533214D01*
X9328928Y-23518929D01*
X9314643Y-23504643D01*
X9671786Y-23361786D02*
X9643214Y-23347500D01*
X9628928Y-23333214D01*
X9614643Y-23304643D01*
X9614643Y-23290357D01*
X9628928Y-23261786D01*
X9643214Y-23247500D01*
X9671786Y-23233214D01*
X9728928Y-23233214D01*
X9757500Y-23247500D01*
X9771786Y-23261786D01*
X9786071Y-23290357D01*
X9786071Y-23304643D01*
X9771786Y-23333214D01*
X9757500Y-23347500D01*
X9728928Y-23361786D01*
X9671786Y-23361786D01*
X9643214Y-23376071D01*
X9628928Y-23390357D01*
X9614643Y-23418929D01*
X9614643Y-23476071D01*
X9628928Y-23504643D01*
X9643214Y-23518929D01*
X9671786Y-23533214D01*
X9728928Y-23533214D01*
X9757500Y-23518929D01*
X9771786Y-23504643D01*
X9786071Y-23476071D01*
X9786071Y-23418929D01*
X9771786Y-23390357D01*
X9757500Y-23376071D01*
X9728928Y-23361786D01*
X10143214Y-23533214D02*
X10143214Y-23233214D01*
X10271786Y-23533214D02*
X10271786Y-23376071D01*
X10257500Y-23347500D01*
X10228928Y-23333214D01*
X10186071Y-23333214D01*
X10157500Y-23347500D01*
X10143214Y-23361786D01*
X10457500Y-23533214D02*
X10428928Y-23518929D01*
X10414643Y-23504643D01*
X10400357Y-23476071D01*
X10400357Y-23390357D01*
X10414643Y-23361786D01*
X10428928Y-23347500D01*
X10457500Y-23333214D01*
X10500357Y-23333214D01*
X10528928Y-23347500D01*
X10543214Y-23361786D01*
X10557500Y-23390357D01*
X10557500Y-23476071D01*
X10543214Y-23504643D01*
X10528928Y-23518929D01*
X10500357Y-23533214D01*
X10457500Y-23533214D01*
X10728928Y-23533214D02*
X10700357Y-23518929D01*
X10686071Y-23490357D01*
X10686071Y-23233214D01*
X10957500Y-23518929D02*
X10928928Y-23533214D01*
X10871786Y-23533214D01*
X10843214Y-23518929D01*
X10828928Y-23490357D01*
X10828928Y-23376071D01*
X10843214Y-23347500D01*
X10871786Y-23333214D01*
X10928928Y-23333214D01*
X10957500Y-23347500D01*
X10971786Y-23376071D01*
X10971786Y-23404643D01*
X10828928Y-23433214D01*
X11086071Y-23518929D02*
X11114643Y-23533214D01*
X11171786Y-23533214D01*
X11200357Y-23518929D01*
X11214643Y-23490357D01*
X11214643Y-23476071D01*
X11200357Y-23447500D01*
X11171786Y-23433214D01*
X11128928Y-23433214D01*
X11100357Y-23418929D01*
X11086071Y-23390357D01*
X11086071Y-23376071D01*
X11100357Y-23347500D01*
X11128928Y-23333214D01*
X11171786Y-23333214D01*
X11200357Y-23347500D01*
X11314643Y-23647500D02*
X11328928Y-23633214D01*
X11357500Y-23590357D01*
X11371786Y-23561786D01*
X11386071Y-23518929D01*
X11400357Y-23447500D01*
X11400357Y-23390357D01*
X11386071Y-23318929D01*
X11371786Y-23276071D01*
X11357500Y-23247500D01*
X11328928Y-23204643D01*
X11314643Y-23190357D01*
M02*
