G04 #@! TF.GenerationSoftware,KiCad,Pcbnew,(5.0.0-rc2-dev-26-g0d794b2)*
G04 #@! TF.CreationDate,2018-07-01T20:50:18-07:00*
G04 #@! TF.ProjectId,Skull_badge,536B756C6C5F62616467652E6B696361,rev?*
G04 #@! TF.SameCoordinates,Original*
G04 #@! TF.FileFunction,Soldermask,Top*
G04 #@! TF.FilePolarity,Negative*
%FSLAX46Y46*%
G04 Gerber Fmt 4.6, Leading zero omitted, Abs format (unit mm)*
G04 Created by KiCad (PCBNEW (5.0.0-rc2-dev-26-g0d794b2)) date Sunday, July 01, 2018 at 08:50:18 PM*
%MOMM*%
%LPD*%
G01*
G04 APERTURE LIST*
%ADD10C,0.250000*%
%ADD11O,1.924000X2.940000*%
%ADD12C,1.924000*%
%ADD13R,1.900000X1.900000*%
%ADD14O,2.150000X2.150000*%
%ADD15R,2.700000X6.000000*%
%ADD16R,0.800000X2.050000*%
%ADD17O,1.500000X1.900000*%
%ADD18O,1.600000X2.100000*%
%ADD19R,1.830000X2.900000*%
%ADD20R,1.400000X1.650000*%
%ADD21R,1.650000X1.400000*%
%ADD22R,2.100000X2.100000*%
%ADD23O,2.100000X2.100000*%
%ADD24R,1.100000X1.700000*%
%ADD25C,1.100000*%
%ADD26C,0.100000*%
%ADD27R,1.700000X1.100000*%
%ADD28R,0.950000X1.900000*%
%ADD29R,1.900000X0.950000*%
%ADD30R,2.398980X5.899100*%
%ADD31R,1.600000X1.600000*%
%ADD32C,1.400760*%
%ADD33C,3.400000*%
%ADD34R,0.680000X1.250000*%
%ADD35R,1.600000X1.225000*%
%ADD36R,1.100000X0.680000*%
%ADD37C,1.000000*%
%ADD38R,1.300000X1.700000*%
%ADD39R,2.432000X4.057600*%
%ADD40R,2.432000X1.416000*%
%ADD41C,1.300000*%
%ADD42C,1.200000*%
G04 APERTURE END LIST*
D10*
X162029113Y-141132157D02*
G75*
G03X162029113Y-141132157I-200000J0D01*
G01*
X163029113Y-138932157D02*
G75*
G03X163029113Y-138932157I-200000J0D01*
G01*
X164429113Y-140732157D02*
G75*
G03X164429113Y-140732157I-200000J0D01*
G01*
X164343327Y-140332157D02*
G75*
G03X164343327Y-140332157I-1414214J0D01*
G01*
X162929113Y-140332157D02*
X162929113Y-143332157D01*
X162929113Y-140332157D02*
X165429113Y-137332157D01*
X160429113Y-137332157D02*
X162929113Y-140332157D01*
X160429113Y-143332157D02*
X160429113Y-137332157D01*
X165429113Y-143332157D02*
X160429113Y-143332157D01*
X165429113Y-137332157D02*
X165429113Y-143332157D01*
X160429113Y-137332157D02*
X165429113Y-137332157D01*
D11*
X152302000Y-156946000D03*
X149762000Y-156946000D03*
X147222000Y-156946000D03*
X139602000Y-156946000D03*
X142142000Y-156946000D03*
X144682000Y-156946000D03*
X134522000Y-156946000D03*
X131982000Y-156946000D03*
X129442000Y-156946000D03*
X124362000Y-156946000D03*
X121822000Y-156946000D03*
X152302000Y-108686000D03*
X149762000Y-108686000D03*
X147222000Y-108686000D03*
X144682000Y-108686000D03*
X142142000Y-108686000D03*
X139602000Y-108686000D03*
X137062000Y-108686000D03*
X134522000Y-108686000D03*
X130458000Y-108686000D03*
X127918000Y-108686000D03*
X125378000Y-108686000D03*
X122838000Y-108686000D03*
X120298000Y-108686000D03*
X117758000Y-108686000D03*
X115218000Y-108686000D03*
X112678000Y-108686000D03*
X126902000Y-156946000D03*
X110138000Y-108686000D03*
X107598000Y-108686000D03*
X119282000Y-156946000D03*
X116742000Y-156946000D03*
D12*
X152302000Y-129006000D03*
X154842000Y-129006000D03*
X152302000Y-131546000D03*
X154842000Y-131546000D03*
X152302000Y-134086000D03*
X154842000Y-134086000D03*
D13*
X136046000Y-80238000D03*
D14*
X138046000Y-80238000D03*
D15*
X152354113Y-86707157D03*
X144954113Y-86707157D03*
D16*
X125662000Y-77102500D03*
X125012000Y-77102500D03*
X124362000Y-77102500D03*
X123712000Y-77102500D03*
X123062000Y-77102500D03*
D17*
X126782000Y-77222500D03*
X121942000Y-77222500D03*
D18*
X127092000Y-74222500D03*
X121632000Y-74222500D03*
D19*
X125322000Y-73982500D03*
X123402000Y-73982500D03*
D20*
X114800000Y-86450000D03*
X116800000Y-86450000D03*
D21*
X108550000Y-98850000D03*
X108550000Y-100850000D03*
X108650000Y-92900000D03*
X108650000Y-90900000D03*
X132200000Y-101800000D03*
X132200000Y-99800000D03*
X116250000Y-93300000D03*
X116250000Y-91300000D03*
D20*
X123050000Y-87600000D03*
X121050000Y-87600000D03*
X132500000Y-93600000D03*
X134500000Y-93600000D03*
D22*
X87405000Y-100558000D03*
D23*
X87405000Y-103098000D03*
X89945000Y-100558000D03*
X89945000Y-103098000D03*
X92485000Y-100558000D03*
X92485000Y-103098000D03*
X95025000Y-100558000D03*
X95025000Y-103098000D03*
X97565000Y-100558000D03*
X97565000Y-103098000D03*
D24*
X106798613Y-169934657D03*
X104898613Y-169934657D03*
X112323113Y-171966657D03*
X110423113Y-171966657D03*
X119308113Y-171395157D03*
X117408113Y-171395157D03*
X126166113Y-171395157D03*
X124266113Y-171395157D03*
X132198613Y-171204657D03*
X130298613Y-171204657D03*
X138485113Y-171077657D03*
X136585113Y-171077657D03*
D25*
X143413864Y-167611906D03*
D26*
G36*
X143201732Y-166621957D02*
X144403813Y-167824038D01*
X143625996Y-168601855D01*
X142423915Y-167399774D01*
X143201732Y-166621957D01*
X143201732Y-166621957D01*
G37*
D25*
X142070362Y-168955408D03*
D26*
G36*
X141858230Y-167965459D02*
X143060311Y-169167540D01*
X142282494Y-169945357D01*
X141080413Y-168743276D01*
X141858230Y-167965459D01*
X141858230Y-167965459D01*
G37*
D27*
X145050000Y-165900000D03*
X145050000Y-164000000D03*
D24*
X114900000Y-88400000D03*
X116800000Y-88400000D03*
D27*
X116250000Y-96800000D03*
X116250000Y-94900000D03*
X123600000Y-82250000D03*
X123600000Y-80350000D03*
X125600000Y-82250000D03*
X125600000Y-80350000D03*
D24*
X130600000Y-104000000D03*
X128700000Y-104000000D03*
D28*
X128400000Y-90450000D03*
X127600000Y-90450000D03*
X126800000Y-90450000D03*
X126000000Y-90450000D03*
X125200000Y-90450000D03*
X124400000Y-90450000D03*
X123600000Y-90450000D03*
X122800000Y-90450000D03*
X122000000Y-90450000D03*
X121200000Y-90450000D03*
X120400000Y-90450000D03*
D29*
X118700000Y-92150000D03*
X118700000Y-92950000D03*
X118700000Y-93750000D03*
X118700000Y-94550000D03*
X118700000Y-95350000D03*
X118700000Y-96150000D03*
X118700000Y-96950000D03*
X118700000Y-97750000D03*
X118700000Y-98550000D03*
X118700000Y-99350000D03*
X118700000Y-100150000D03*
D28*
X120400000Y-101850000D03*
X121200000Y-101850000D03*
X122000000Y-101850000D03*
X122800000Y-101850000D03*
X123600000Y-101850000D03*
X124400000Y-101850000D03*
X125200000Y-101850000D03*
X126000000Y-101850000D03*
X126800000Y-101850000D03*
X127600000Y-101850000D03*
X128400000Y-101850000D03*
D29*
X130100000Y-100150000D03*
X130100000Y-99350000D03*
X130100000Y-98550000D03*
X130100000Y-97750000D03*
X130100000Y-96950000D03*
X130100000Y-96150000D03*
X130100000Y-95350000D03*
X130100000Y-94550000D03*
X130100000Y-93750000D03*
X130100000Y-92950000D03*
X130100000Y-92150000D03*
D20*
X148654113Y-100982157D03*
X150654113Y-100982157D03*
D30*
X112300000Y-100549000D03*
X112300000Y-91151000D03*
D20*
X128150000Y-87950000D03*
X130150000Y-87950000D03*
D24*
X112479113Y-76057157D03*
X110579113Y-76057157D03*
X112454113Y-78057157D03*
X110554113Y-78057157D03*
X159348000Y-94525500D03*
X157448000Y-94525500D03*
X114397500Y-106082500D03*
X116297500Y-106082500D03*
D20*
X127675000Y-80325000D03*
X129675000Y-80325000D03*
D31*
X112741500Y-106082500D03*
X110541500Y-106082500D03*
X159795000Y-92620500D03*
X157595000Y-92620500D03*
X116400000Y-81000000D03*
X118600000Y-81000000D03*
X116400000Y-79000000D03*
X118600000Y-79000000D03*
D32*
X106395595Y-80741595D03*
D26*
G36*
X105405108Y-80741595D02*
X106395595Y-79751108D01*
X107386082Y-80741595D01*
X106395595Y-81732082D01*
X105405108Y-80741595D01*
X105405108Y-80741595D01*
G37*
D32*
X111485605Y-85831605D03*
D26*
G36*
X110495118Y-85831605D02*
X111485605Y-84841118D01*
X112476092Y-85831605D01*
X111485605Y-86822092D01*
X110495118Y-85831605D01*
X110495118Y-85831605D01*
G37*
D20*
X148085300Y-95694500D03*
X150085300Y-95694500D03*
D21*
X150939500Y-91392500D03*
X150939500Y-93392500D03*
X141909800Y-93417900D03*
X141909800Y-91417900D03*
X139865100Y-93405200D03*
X139865100Y-91405200D03*
D33*
X71500000Y-59000001D03*
D26*
G36*
X71146447Y-61757717D02*
X68742284Y-59353554D01*
X71853553Y-56242285D01*
X74257716Y-58646448D01*
X71146447Y-61757717D01*
X71146447Y-61757717D01*
G37*
D33*
X63000000Y-65500000D03*
D26*
G36*
X62646447Y-68257716D02*
X60242284Y-65853553D01*
X63353553Y-62742284D01*
X65757716Y-65146447D01*
X62646447Y-68257716D01*
X62646447Y-68257716D01*
G37*
D33*
X184196699Y-189303301D03*
D26*
G36*
X184550252Y-186545585D02*
X186954415Y-188949748D01*
X183843146Y-192061017D01*
X181438983Y-189656854D01*
X184550252Y-186545585D01*
X184550252Y-186545585D01*
G37*
D33*
X194803301Y-178696699D03*
D26*
G36*
X195156854Y-175938983D02*
X197561017Y-178343146D01*
X194449748Y-181454415D01*
X192045585Y-179050252D01*
X195156854Y-175938983D01*
X195156854Y-175938983D01*
G37*
D33*
X71303301Y-189553301D03*
D26*
G36*
X68545585Y-189199748D02*
X70949748Y-186795585D01*
X74061017Y-189906854D01*
X71656854Y-192311017D01*
X68545585Y-189199748D01*
X68545585Y-189199748D01*
G37*
D33*
X60696699Y-178946699D03*
D26*
G36*
X57938983Y-178593146D02*
X60343146Y-176188983D01*
X63454415Y-179300252D01*
X61050252Y-181704415D01*
X57938983Y-178593146D01*
X57938983Y-178593146D01*
G37*
D33*
X185250000Y-55000000D03*
D26*
G36*
X188007716Y-55353553D02*
X185603553Y-57757716D01*
X182492284Y-54646447D01*
X184896447Y-52242284D01*
X188007716Y-55353553D01*
X188007716Y-55353553D01*
G37*
D33*
X194500000Y-63750000D03*
D26*
G36*
X197257716Y-64103553D02*
X194853553Y-66507716D01*
X191742284Y-63396447D01*
X194146447Y-60992284D01*
X197257716Y-64103553D01*
X197257716Y-64103553D01*
G37*
D24*
X134400000Y-91600000D03*
X132500000Y-91600000D03*
D27*
X148869400Y-91429800D03*
X148869400Y-93329800D03*
D34*
X144214900Y-93848700D03*
X144714900Y-93848700D03*
X145214900Y-93848700D03*
X145714900Y-93848700D03*
X146214900Y-93848700D03*
X146214900Y-90898700D03*
X145714900Y-90898700D03*
X145214900Y-90898700D03*
X144714900Y-90898700D03*
X144214900Y-90898700D03*
D35*
X144614900Y-92786200D03*
X145814900Y-92786200D03*
X144614900Y-91961200D03*
X145814900Y-91961200D03*
D36*
X143664900Y-92623700D03*
X146764900Y-92623700D03*
X143664900Y-92123700D03*
X146764900Y-92123700D03*
D37*
X144464900Y-92873700D03*
X145964900Y-92873700D03*
X144464900Y-91873700D03*
X145964900Y-91873700D03*
X145214900Y-92373700D03*
D22*
X102920800Y-103759000D03*
D23*
X102920800Y-101219000D03*
X102920800Y-98679000D03*
D38*
X146578400Y-96469200D03*
X142778400Y-96469200D03*
D21*
X122200000Y-159800000D03*
X122200000Y-161800000D03*
D20*
X122100000Y-163600000D03*
X124100000Y-163600000D03*
D39*
X112700000Y-162600000D03*
D40*
X119304000Y-162600000D03*
X119304000Y-160314000D03*
X119304000Y-164886000D03*
D24*
X142304113Y-99882157D03*
X144204113Y-99882157D03*
D41*
X164223413Y-90853570D03*
X166261737Y-88652381D03*
D25*
X162429805Y-90214845D03*
D26*
G36*
X162753156Y-91263866D02*
X161359069Y-89972927D01*
X162106454Y-89165824D01*
X163500541Y-90456763D01*
X162753156Y-91263866D01*
X162753156Y-91263866D01*
G37*
D25*
X164468129Y-88013656D03*
D26*
G36*
X164791480Y-89062677D02*
X163397393Y-87771738D01*
X164144778Y-86964635D01*
X165538865Y-88255574D01*
X164791480Y-89062677D01*
X164791480Y-89062677D01*
G37*
D25*
X165487291Y-86913061D03*
D26*
G36*
X165810642Y-87962082D02*
X164416555Y-86671143D01*
X165163940Y-85864040D01*
X166558027Y-87154979D01*
X165810642Y-87962082D01*
X165810642Y-87962082D01*
G37*
D42*
X163569717Y-93178475D03*
D26*
G36*
X163534346Y-94099751D02*
X162653870Y-93284421D01*
X163605088Y-92257199D01*
X164485564Y-93072529D01*
X163534346Y-94099751D01*
X163534346Y-94099751D01*
G37*
D42*
X168529639Y-87822247D03*
D26*
G36*
X168494268Y-88743523D02*
X167613792Y-87928193D01*
X168565010Y-86900971D01*
X169445486Y-87716301D01*
X168494268Y-88743523D01*
X168494268Y-88743523D01*
G37*
D42*
X166915433Y-86327476D03*
D26*
G36*
X166880062Y-87248752D02*
X165999586Y-86433422D01*
X166950804Y-85406200D01*
X167831280Y-86221530D01*
X166880062Y-87248752D01*
X166880062Y-87248752D01*
G37*
D42*
X161955512Y-91683704D03*
D26*
G36*
X161920141Y-92604980D02*
X161039665Y-91789650D01*
X161990883Y-90762428D01*
X162871359Y-91577758D01*
X161920141Y-92604980D01*
X161920141Y-92604980D01*
G37*
D27*
X140929113Y-103782157D03*
X140929113Y-101882157D03*
M02*
