G04 #@! TF.GenerationSoftware,KiCad,Pcbnew,(5.0.0-rc2-dev-26-g0d794b2)*
G04 #@! TF.CreationDate,2018-07-01T20:50:17-07:00*
G04 #@! TF.ProjectId,Skull_badge,536B756C6C5F62616467652E6B696361,rev?*
G04 #@! TF.SameCoordinates,Original*
G04 #@! TF.FileFunction,Paste,Top*
G04 #@! TF.FilePolarity,Positive*
%FSLAX46Y46*%
G04 Gerber Fmt 4.6, Leading zero omitted, Abs format (unit mm)*
G04 Created by KiCad (PCBNEW (5.0.0-rc2-dev-26-g0d794b2)) date Sunday, July 01, 2018 at 08:50:17 PM*
%MOMM*%
%LPD*%
G01*
G04 APERTURE LIST*
%ADD10R,2.300000X5.600000*%
%ADD11R,0.400000X1.650000*%
%ADD12R,1.430000X2.500000*%
%ADD13R,1.000000X1.250000*%
%ADD14R,1.250000X1.000000*%
%ADD15R,0.700000X1.300000*%
%ADD16C,0.700000*%
%ADD17C,0.100000*%
%ADD18R,1.300000X0.700000*%
%ADD19R,0.550000X1.500000*%
%ADD20R,1.500000X0.550000*%
%ADD21R,1.998980X5.499100*%
%ADD22R,1.200000X1.200000*%
%ADD23C,1.000760*%
%ADD24C,3.000000*%
%ADD25R,0.280000X0.850000*%
%ADD26R,1.200000X0.825000*%
%ADD27R,0.700000X0.280000*%
%ADD28R,0.900000X1.300000*%
%ADD29R,2.032000X3.657600*%
%ADD30R,2.032000X1.016000*%
%ADD31C,0.800000*%
G04 APERTURE END LIST*
D10*
X152354113Y-86707157D03*
X144954113Y-86707157D03*
D11*
X125662000Y-77102500D03*
X125012000Y-77102500D03*
X124362000Y-77102500D03*
X123712000Y-77102500D03*
X123062000Y-77102500D03*
D12*
X125322000Y-73982500D03*
X123402000Y-73982500D03*
D13*
X114800000Y-86450000D03*
X116800000Y-86450000D03*
D14*
X108550000Y-98850000D03*
X108550000Y-100850000D03*
X108650000Y-92900000D03*
X108650000Y-90900000D03*
X132200000Y-101800000D03*
X132200000Y-99800000D03*
X116250000Y-93300000D03*
X116250000Y-91300000D03*
D13*
X123050000Y-87600000D03*
X121050000Y-87600000D03*
X132500000Y-93600000D03*
X134500000Y-93600000D03*
D15*
X106798613Y-169934657D03*
X104898613Y-169934657D03*
X112323113Y-171966657D03*
X110423113Y-171966657D03*
X119308113Y-171395157D03*
X117408113Y-171395157D03*
X126166113Y-171395157D03*
X124266113Y-171395157D03*
X132198613Y-171204657D03*
X130298613Y-171204657D03*
X138485113Y-171077657D03*
X136585113Y-171077657D03*
D16*
X143413864Y-167611906D03*
D17*
G36*
X143201732Y-166904799D02*
X144120971Y-167824038D01*
X143625996Y-168319013D01*
X142706757Y-167399774D01*
X143201732Y-166904799D01*
X143201732Y-166904799D01*
G37*
D16*
X142070362Y-168955408D03*
D17*
G36*
X141858230Y-168248301D02*
X142777469Y-169167540D01*
X142282494Y-169662515D01*
X141363255Y-168743276D01*
X141858230Y-168248301D01*
X141858230Y-168248301D01*
G37*
D18*
X145050000Y-165900000D03*
X145050000Y-164000000D03*
D15*
X114900000Y-88400000D03*
X116800000Y-88400000D03*
D18*
X116250000Y-96800000D03*
X116250000Y-94900000D03*
X123600000Y-82250000D03*
X123600000Y-80350000D03*
X125600000Y-82250000D03*
X125600000Y-80350000D03*
D15*
X130600000Y-104000000D03*
X128700000Y-104000000D03*
D19*
X128400000Y-90450000D03*
X127600000Y-90450000D03*
X126800000Y-90450000D03*
X126000000Y-90450000D03*
X125200000Y-90450000D03*
X124400000Y-90450000D03*
X123600000Y-90450000D03*
X122800000Y-90450000D03*
X122000000Y-90450000D03*
X121200000Y-90450000D03*
X120400000Y-90450000D03*
D20*
X118700000Y-92150000D03*
X118700000Y-92950000D03*
X118700000Y-93750000D03*
X118700000Y-94550000D03*
X118700000Y-95350000D03*
X118700000Y-96150000D03*
X118700000Y-96950000D03*
X118700000Y-97750000D03*
X118700000Y-98550000D03*
X118700000Y-99350000D03*
X118700000Y-100150000D03*
D19*
X120400000Y-101850000D03*
X121200000Y-101850000D03*
X122000000Y-101850000D03*
X122800000Y-101850000D03*
X123600000Y-101850000D03*
X124400000Y-101850000D03*
X125200000Y-101850000D03*
X126000000Y-101850000D03*
X126800000Y-101850000D03*
X127600000Y-101850000D03*
X128400000Y-101850000D03*
D20*
X130100000Y-100150000D03*
X130100000Y-99350000D03*
X130100000Y-98550000D03*
X130100000Y-97750000D03*
X130100000Y-96950000D03*
X130100000Y-96150000D03*
X130100000Y-95350000D03*
X130100000Y-94550000D03*
X130100000Y-93750000D03*
X130100000Y-92950000D03*
X130100000Y-92150000D03*
D13*
X148654113Y-100982157D03*
X150654113Y-100982157D03*
D21*
X112300000Y-100549000D03*
X112300000Y-91151000D03*
D13*
X128150000Y-87950000D03*
X130150000Y-87950000D03*
D15*
X112479113Y-76057157D03*
X110579113Y-76057157D03*
X112454113Y-78057157D03*
X110554113Y-78057157D03*
X159348000Y-94525500D03*
X157448000Y-94525500D03*
X114397500Y-106082500D03*
X116297500Y-106082500D03*
D13*
X127675000Y-80325000D03*
X129675000Y-80325000D03*
D22*
X112741500Y-106082500D03*
X110541500Y-106082500D03*
X159795000Y-92620500D03*
X157595000Y-92620500D03*
X116400000Y-81000000D03*
X118600000Y-81000000D03*
X116400000Y-79000000D03*
X118600000Y-79000000D03*
D23*
X106395595Y-80741595D03*
D17*
G36*
X105687951Y-80741595D02*
X106395595Y-80033951D01*
X107103239Y-80741595D01*
X106395595Y-81449239D01*
X105687951Y-80741595D01*
X105687951Y-80741595D01*
G37*
D23*
X111485605Y-85831605D03*
D17*
G36*
X110777961Y-85831605D02*
X111485605Y-85123961D01*
X112193249Y-85831605D01*
X111485605Y-86539249D01*
X110777961Y-85831605D01*
X110777961Y-85831605D01*
G37*
D13*
X148085300Y-95694500D03*
X150085300Y-95694500D03*
D14*
X150939500Y-91392500D03*
X150939500Y-93392500D03*
X141909800Y-93417900D03*
X141909800Y-91417900D03*
X139865100Y-93405200D03*
X139865100Y-91405200D03*
D24*
X71500000Y-59000001D03*
D17*
G36*
X71146447Y-61474875D02*
X69025126Y-59353554D01*
X71853553Y-56525127D01*
X73974874Y-58646448D01*
X71146447Y-61474875D01*
X71146447Y-61474875D01*
G37*
D24*
X63000000Y-65500000D03*
D17*
G36*
X62646447Y-67974874D02*
X60525126Y-65853553D01*
X63353553Y-63025126D01*
X65474874Y-65146447D01*
X62646447Y-67974874D01*
X62646447Y-67974874D01*
G37*
D24*
X184196699Y-189303301D03*
D17*
G36*
X184550252Y-186828427D02*
X186671573Y-188949748D01*
X183843146Y-191778175D01*
X181721825Y-189656854D01*
X184550252Y-186828427D01*
X184550252Y-186828427D01*
G37*
D24*
X194803301Y-178696699D03*
D17*
G36*
X195156854Y-176221825D02*
X197278175Y-178343146D01*
X194449748Y-181171573D01*
X192328427Y-179050252D01*
X195156854Y-176221825D01*
X195156854Y-176221825D01*
G37*
D24*
X71303301Y-189553301D03*
D17*
G36*
X68828427Y-189199748D02*
X70949748Y-187078427D01*
X73778175Y-189906854D01*
X71656854Y-192028175D01*
X68828427Y-189199748D01*
X68828427Y-189199748D01*
G37*
D24*
X60696699Y-178946699D03*
D17*
G36*
X58221825Y-178593146D02*
X60343146Y-176471825D01*
X63171573Y-179300252D01*
X61050252Y-181421573D01*
X58221825Y-178593146D01*
X58221825Y-178593146D01*
G37*
D24*
X185250000Y-55000000D03*
D17*
G36*
X187724874Y-55353553D02*
X185603553Y-57474874D01*
X182775126Y-54646447D01*
X184896447Y-52525126D01*
X187724874Y-55353553D01*
X187724874Y-55353553D01*
G37*
D24*
X194500000Y-63750000D03*
D17*
G36*
X196974874Y-64103553D02*
X194853553Y-66224874D01*
X192025126Y-63396447D01*
X194146447Y-61275126D01*
X196974874Y-64103553D01*
X196974874Y-64103553D01*
G37*
D15*
X134400000Y-91600000D03*
X132500000Y-91600000D03*
D18*
X148869400Y-91429800D03*
X148869400Y-93329800D03*
D25*
X144214900Y-93848700D03*
X144714900Y-93848700D03*
X145214900Y-93848700D03*
X145714900Y-93848700D03*
X146214900Y-93848700D03*
X146214900Y-90898700D03*
X145714900Y-90898700D03*
X145214900Y-90898700D03*
X144714900Y-90898700D03*
X144214900Y-90898700D03*
D26*
X144614900Y-92786200D03*
X145814900Y-92786200D03*
X144614900Y-91961200D03*
X145814900Y-91961200D03*
D27*
X143664900Y-92623700D03*
X146764900Y-92623700D03*
X143664900Y-92123700D03*
X146764900Y-92123700D03*
D28*
X146578400Y-96469200D03*
X142778400Y-96469200D03*
D14*
X122200000Y-159800000D03*
X122200000Y-161800000D03*
D13*
X122100000Y-163600000D03*
X124100000Y-163600000D03*
D29*
X112700000Y-162600000D03*
D30*
X119304000Y-162600000D03*
X119304000Y-160314000D03*
X119304000Y-164886000D03*
D15*
X142304113Y-99882157D03*
X144204113Y-99882157D03*
D16*
X162429805Y-90214845D03*
D17*
G36*
X162742298Y-90981231D02*
X161641703Y-89962069D01*
X162117312Y-89448459D01*
X163217907Y-90467621D01*
X162742298Y-90981231D01*
X162742298Y-90981231D01*
G37*
D16*
X164468129Y-88013656D03*
D17*
G36*
X164780622Y-88780042D02*
X163680027Y-87760880D01*
X164155636Y-87247270D01*
X165256231Y-88266432D01*
X164780622Y-88780042D01*
X164780622Y-88780042D01*
G37*
D16*
X165487291Y-86913061D03*
D17*
G36*
X165799784Y-87679447D02*
X164699189Y-86660285D01*
X165174798Y-86146675D01*
X166275393Y-87165837D01*
X165799784Y-87679447D01*
X165799784Y-87679447D01*
G37*
D31*
X163569717Y-93178475D03*
D17*
G36*
X163523488Y-93817116D02*
X162936504Y-93273563D01*
X163615946Y-92539834D01*
X164202930Y-93083387D01*
X163523488Y-93817116D01*
X163523488Y-93817116D01*
G37*
D31*
X168529639Y-87822247D03*
D17*
G36*
X168483410Y-88460888D02*
X167896426Y-87917335D01*
X168575868Y-87183606D01*
X169162852Y-87727159D01*
X168483410Y-88460888D01*
X168483410Y-88460888D01*
G37*
D31*
X166915433Y-86327476D03*
D17*
G36*
X166869204Y-86966117D02*
X166282220Y-86422564D01*
X166961662Y-85688835D01*
X167548646Y-86232388D01*
X166869204Y-86966117D01*
X166869204Y-86966117D01*
G37*
D31*
X161955512Y-91683704D03*
D17*
G36*
X161909283Y-92322345D02*
X161322299Y-91778792D01*
X162001741Y-91045063D01*
X162588725Y-91588616D01*
X161909283Y-92322345D01*
X161909283Y-92322345D01*
G37*
D18*
X140929113Y-103782157D03*
X140929113Y-101882157D03*
M02*
