G04 #@! TF.GenerationSoftware,KiCad,Pcbnew,(5.0.0-rc2-dev-26-g0d794b2)*
G04 #@! TF.CreationDate,2018-07-01T20:50:18-07:00*
G04 #@! TF.ProjectId,Skull_badge,536B756C6C5F62616467652E6B696361,rev?*
G04 #@! TF.SameCoordinates,Original*
G04 #@! TF.FileFunction,Profile,NP*
%FSLAX46Y46*%
G04 Gerber Fmt 4.6, Leading zero omitted, Abs format (unit mm)*
G04 Created by KiCad (PCBNEW (5.0.0-rc2-dev-26-g0d794b2)) date Sunday, July 01, 2018 at 08:50:18 PM*
%MOMM*%
%LPD*%
G01*
G04 APERTURE LIST*
%ADD10C,0.150000*%
G04 APERTURE END LIST*
D10*
X94829113Y-163332157D02*
X90250000Y-166750000D01*
X94929113Y-163932157D02*
X94829113Y-163332157D01*
X95129113Y-164332157D02*
X94929113Y-163932157D01*
X95529113Y-165032157D02*
X95129113Y-164332157D01*
X96229113Y-165832157D02*
X95529113Y-165032157D01*
X97129113Y-166532157D02*
X96229113Y-165832157D01*
X97929113Y-166732157D02*
X97129113Y-166532157D01*
X98929113Y-166732157D02*
X97929113Y-166732157D01*
X100129113Y-166232157D02*
X98929113Y-166732157D01*
X101329113Y-166132157D02*
X100129113Y-166232157D01*
X101750000Y-166250000D02*
X101329113Y-166132157D01*
X148029113Y-165632157D02*
X147729113Y-165432157D01*
X148529113Y-166132157D02*
X148029113Y-165632157D01*
X149129113Y-166632157D02*
X148529113Y-166132157D01*
X149529113Y-166932157D02*
X149129113Y-166632157D01*
X150129113Y-167232157D02*
X149529113Y-166932157D01*
X151129113Y-167432157D02*
X150129113Y-167232157D01*
X151929113Y-167432157D02*
X151129113Y-167432157D01*
X152829113Y-167332157D02*
X151929113Y-167432157D01*
X153929113Y-167032157D02*
X152829113Y-167332157D01*
X154829113Y-166532157D02*
X153929113Y-167032157D01*
X155429113Y-165932157D02*
X154829113Y-166532157D01*
X155729113Y-165132157D02*
X155429113Y-165932157D01*
X155929113Y-164232157D02*
X155729113Y-165132157D01*
X155939113Y-162261570D02*
X155929113Y-164232157D01*
X147729113Y-165432157D02*
X147250000Y-166750000D01*
X171000000Y-175250000D02*
X155939113Y-162262157D01*
X100329113Y-162682157D02*
G75*
G03X100329113Y-162682157I-1600000J0D01*
G01*
X153079113Y-162932157D02*
G75*
G03X153079113Y-162932157I-1600000J0D01*
G01*
X171029113Y-90932157D02*
X165500000Y-97000000D01*
X182500000Y-74250000D02*
X171029113Y-90932157D01*
X81750000Y-106750000D02*
X82154113Y-97707157D01*
X84000000Y-94500000D02*
X82154113Y-97707157D01*
X186304113Y-202032157D02*
X193000000Y-204250000D01*
X180750000Y-193500000D02*
X180779113Y-193882157D01*
X182929113Y-200357157D02*
X186304113Y-202032157D01*
X181429113Y-198332157D02*
X182929113Y-200357157D01*
X181054113Y-196482157D02*
X181429113Y-198332157D01*
X180779113Y-193882157D02*
X181054113Y-196482157D01*
X178750000Y-182500000D02*
X179250000Y-184000000D01*
X179500000Y-186250000D02*
X179500000Y-189500000D01*
X179500000Y-189500000D02*
X179750000Y-190750000D01*
X179750000Y-190750000D02*
X180750000Y-193500000D01*
X180500000Y-58250000D02*
X180750000Y-57000000D01*
X175750000Y-63000000D02*
X180500000Y-58250000D01*
X209000000Y-53750000D02*
X209000000Y-57750000D01*
X184250000Y-72250000D02*
X182500000Y-74250000D01*
X187250000Y-69750000D02*
X184250000Y-72250000D01*
X190000000Y-68500000D02*
X187250000Y-69750000D01*
X192250000Y-67750000D02*
X190000000Y-68500000D01*
X193750000Y-68000000D02*
X192250000Y-67750000D01*
X195000000Y-68750000D02*
X193750000Y-68000000D01*
X197250000Y-69000000D02*
X195000000Y-68750000D01*
X199750000Y-69000000D02*
X197250000Y-69000000D01*
X202750000Y-67750000D02*
X199750000Y-69000000D01*
X204750000Y-66500000D02*
X202750000Y-67750000D01*
X207000000Y-64000000D02*
X204750000Y-66500000D01*
X208000000Y-62000000D02*
X207000000Y-64000000D01*
X208750000Y-59250000D02*
X208000000Y-62000000D01*
X209000000Y-57750000D02*
X208750000Y-59250000D01*
X208500000Y-51750000D02*
X209000000Y-53750000D01*
X207000000Y-48750000D02*
X208500000Y-51750000D01*
X203500000Y-45250000D02*
X207000000Y-48750000D01*
X199250000Y-42250000D02*
X203500000Y-45250000D01*
X197000000Y-41250000D02*
X199250000Y-42250000D01*
X195000000Y-41000000D02*
X197000000Y-41250000D01*
X193000000Y-41500000D02*
X195000000Y-41000000D01*
X191000000Y-42250000D02*
X193000000Y-41500000D01*
X188750000Y-43000000D02*
X191000000Y-42250000D01*
X184500000Y-43250000D02*
X188750000Y-43000000D01*
X183000000Y-43750000D02*
X184500000Y-43250000D01*
X182000000Y-45000000D02*
X183000000Y-43750000D01*
X181750000Y-46250000D02*
X182000000Y-45000000D01*
X181750000Y-48250000D02*
X181750000Y-46250000D01*
X182000000Y-50500000D02*
X181750000Y-48250000D01*
X181500000Y-54000000D02*
X182000000Y-50500000D01*
X180750000Y-57000000D02*
X181500000Y-54000000D01*
X184500000Y-47500000D02*
G75*
G03X184500000Y-47500000I-750000J0D01*
G01*
X201750000Y-50000000D02*
G75*
G03X201750000Y-50000000I-2000000J0D01*
G01*
X202500000Y-65500000D02*
G75*
G03X202500000Y-65500000I-750000J0D01*
G01*
X195000000Y-56750000D02*
G75*
G03X195000000Y-56750000I-2000000J0D01*
G01*
X174000000Y-64250000D02*
X175750000Y-63000000D01*
X171750000Y-65750000D02*
X174000000Y-64250000D01*
X170000000Y-67000000D02*
X171750000Y-65750000D01*
X165500000Y-69750000D02*
X170000000Y-67000000D01*
X161250000Y-72500000D02*
X165500000Y-69750000D01*
X151750000Y-79750000D02*
X161250000Y-72500000D01*
X197500000Y-204500000D02*
X193000000Y-204250000D01*
X200500000Y-204250000D02*
X197500000Y-204500000D01*
X165000000Y-147250000D02*
X166000000Y-146750000D01*
X164250000Y-147500000D02*
X165000000Y-147250000D01*
X170500000Y-154500000D02*
X164250000Y-147500000D01*
X176500000Y-161000000D02*
X170500000Y-154500000D01*
X184000000Y-169250000D02*
X176500000Y-161000000D01*
X184750000Y-169750000D02*
X184000000Y-169250000D01*
X187000000Y-170500000D02*
X184750000Y-169750000D01*
X189250000Y-171000000D02*
X187000000Y-170500000D01*
X194750000Y-171250000D02*
X189250000Y-171000000D01*
X196000000Y-171500000D02*
X194750000Y-171250000D01*
X199000000Y-172750000D02*
X196000000Y-171500000D01*
X200750000Y-173750000D02*
X199000000Y-172750000D01*
X203000000Y-175500000D02*
X200750000Y-173750000D01*
X205250000Y-178000000D02*
X203000000Y-175500000D01*
X206750000Y-180500000D02*
X205250000Y-178000000D01*
X207500000Y-183500000D02*
X206750000Y-180500000D01*
X207500000Y-187000000D02*
X207500000Y-183500000D01*
X206000000Y-196750000D02*
X207500000Y-187000000D01*
X205250000Y-199250000D02*
X206000000Y-196750000D01*
X204500000Y-200500000D02*
X205250000Y-199250000D01*
X204000000Y-201500000D02*
X204500000Y-200500000D01*
X202750000Y-202750000D02*
X204000000Y-201500000D01*
X201250000Y-204000000D02*
X202750000Y-202750000D01*
X200500000Y-204250000D02*
X201250000Y-204000000D01*
X179250000Y-184000000D02*
X179500000Y-186250000D01*
X178250000Y-181500000D02*
X178750000Y-182500000D01*
X177250000Y-180250000D02*
X178250000Y-181500000D01*
X176000000Y-179000000D02*
X177250000Y-180250000D01*
X174750000Y-178000000D02*
X176000000Y-179000000D01*
X172750000Y-176500000D02*
X174750000Y-178000000D01*
X171000000Y-175250000D02*
X172750000Y-176500000D01*
X85000000Y-170750000D02*
X90250000Y-166750000D01*
X80500000Y-174250000D02*
X85000000Y-170750000D01*
X79250000Y-175500000D02*
X80500000Y-174250000D01*
X78500000Y-176500000D02*
X79250000Y-175500000D01*
X77000000Y-178750000D02*
X78500000Y-176500000D01*
X76000000Y-180750000D02*
X77000000Y-178750000D01*
X75000000Y-183250000D02*
X76000000Y-180750000D01*
X74250000Y-185750000D02*
X75000000Y-183250000D01*
X74000000Y-187000000D02*
X74250000Y-185750000D01*
X74000000Y-187750000D02*
X74000000Y-187000000D01*
X74250000Y-189500000D02*
X74000000Y-187750000D01*
X74500000Y-191000000D02*
X74250000Y-189500000D01*
X74750000Y-192500000D02*
X74500000Y-191000000D01*
X74500000Y-194250000D02*
X74750000Y-192500000D01*
X74000000Y-196000000D02*
X74500000Y-194250000D01*
X73000000Y-197500000D02*
X74000000Y-196000000D01*
X71500000Y-199250000D02*
X73000000Y-197500000D01*
X69750000Y-200750000D02*
X71500000Y-199250000D01*
X67750000Y-202000000D02*
X69750000Y-200750000D01*
X65500000Y-202750000D02*
X67750000Y-202000000D01*
X64250000Y-203000000D02*
X65500000Y-202750000D01*
X63500000Y-203000000D02*
X64250000Y-203000000D01*
X61500000Y-202750000D02*
X63500000Y-203000000D01*
X57500000Y-202000000D02*
X61500000Y-202750000D01*
X53500000Y-201000000D02*
X57500000Y-202000000D01*
X52000000Y-200000000D02*
X53500000Y-201000000D01*
X50750000Y-199000000D02*
X52000000Y-200000000D01*
X50250000Y-198250000D02*
X50750000Y-199000000D01*
X49750000Y-197750000D02*
X50250000Y-198250000D01*
X49000000Y-197500000D02*
X49750000Y-197750000D01*
X48250000Y-197000000D02*
X49000000Y-197500000D01*
X47000000Y-194500000D02*
X48250000Y-197000000D01*
X46000000Y-191250000D02*
X47000000Y-194500000D01*
X46000000Y-189250000D02*
X46000000Y-191250000D01*
X46250000Y-186000000D02*
X46000000Y-189250000D01*
X46750000Y-184250000D02*
X46250000Y-186000000D01*
X48000000Y-181250000D02*
X46750000Y-184250000D01*
X49500000Y-179000000D02*
X48000000Y-181250000D01*
X51500000Y-176750000D02*
X49500000Y-179000000D01*
X53250000Y-175250000D02*
X51500000Y-176750000D01*
X54250000Y-174500000D02*
X53250000Y-175250000D01*
X56750000Y-172750000D02*
X54250000Y-174500000D01*
X58750000Y-171750000D02*
X56750000Y-172750000D01*
X60000000Y-171500000D02*
X58750000Y-171750000D01*
X62500000Y-171000000D02*
X60000000Y-171500000D01*
X64500000Y-170500000D02*
X62500000Y-171000000D01*
X66000000Y-169750000D02*
X64500000Y-170500000D01*
X67500000Y-168750000D02*
X66000000Y-169750000D01*
X68750000Y-167750000D02*
X67500000Y-168750000D01*
X70000000Y-166250000D02*
X68750000Y-167750000D01*
X70750000Y-164750000D02*
X70000000Y-166250000D01*
X71750000Y-163000000D02*
X70750000Y-164750000D01*
X72750000Y-161750000D02*
X71750000Y-163000000D01*
X74250000Y-160000000D02*
X72750000Y-161750000D01*
X76500000Y-157750000D02*
X74250000Y-160000000D01*
X80000000Y-154250000D02*
X76500000Y-157750000D01*
X80750000Y-153000000D02*
X80000000Y-154250000D01*
X81500000Y-151500000D02*
X80750000Y-153000000D01*
X105000000Y-76000000D02*
X110750000Y-74250000D01*
X99000000Y-79000000D02*
X105000000Y-76000000D01*
X85500000Y-93500000D02*
X84000000Y-94500000D01*
X74000000Y-78500000D02*
X85500000Y-93500000D01*
X70500000Y-74500000D02*
X74000000Y-78500000D01*
X68000000Y-72000000D02*
X70500000Y-74500000D01*
X66500000Y-71000000D02*
X68000000Y-72000000D01*
X64500000Y-70000000D02*
X66500000Y-71000000D01*
X62000000Y-69500000D02*
X64500000Y-70000000D01*
X61000000Y-69500000D02*
X62000000Y-69500000D01*
X55500000Y-69500000D02*
X61000000Y-69500000D01*
X53000000Y-69000000D02*
X55500000Y-69500000D01*
X52000000Y-68500000D02*
X53000000Y-69000000D01*
X49000000Y-66500000D02*
X52000000Y-68500000D01*
X47000000Y-64000000D02*
X49000000Y-66500000D01*
X46000000Y-62500000D02*
X47000000Y-64000000D01*
X45500000Y-60500000D02*
X46000000Y-62500000D01*
X45500000Y-57500000D02*
X45500000Y-60500000D01*
X46500000Y-54000000D02*
X45500000Y-57500000D01*
X48500000Y-50500000D02*
X46500000Y-54000000D01*
X50500000Y-48000000D02*
X48500000Y-50500000D01*
X52500000Y-46500000D02*
X50500000Y-48000000D01*
X53500000Y-46000000D02*
X52500000Y-46500000D01*
X53500000Y-45500000D02*
X53500000Y-46000000D01*
X53500000Y-45000000D02*
X53500000Y-45500000D01*
X54000000Y-44500000D02*
X53500000Y-45000000D01*
X57000000Y-42500000D02*
X54000000Y-44500000D01*
X59500000Y-41500000D02*
X57000000Y-42500000D01*
X62000000Y-41000000D02*
X59500000Y-41500000D01*
X63500000Y-41000000D02*
X62000000Y-41000000D01*
X67000000Y-42000000D02*
X63500000Y-41000000D01*
X70000000Y-44000000D02*
X67000000Y-42000000D01*
X72000000Y-46000000D02*
X70000000Y-44000000D01*
X74000000Y-49000000D02*
X72000000Y-46000000D01*
X75000000Y-51500000D02*
X74000000Y-49000000D01*
X75500000Y-54000000D02*
X75000000Y-51500000D01*
X75000000Y-56500000D02*
X75500000Y-54000000D01*
X75000000Y-58500000D02*
X75000000Y-56500000D01*
X75500000Y-60500000D02*
X75000000Y-58500000D01*
X77000000Y-63000000D02*
X75500000Y-60500000D01*
X78000000Y-64500000D02*
X77000000Y-63000000D01*
X78500000Y-65000000D02*
X78000000Y-64500000D01*
X80500000Y-66500000D02*
X78500000Y-65000000D01*
X84000000Y-68500000D02*
X80500000Y-66500000D01*
X89500000Y-71500000D02*
X84000000Y-68500000D01*
X99000000Y-79000000D02*
X89500000Y-71500000D01*
X82250000Y-150250000D02*
X81500000Y-151500000D01*
X201750000Y-194750000D02*
G75*
G03X201750000Y-194750000I-2000000J0D01*
G01*
X195000000Y-188000000D02*
G75*
G03X195000000Y-188000000I-2000000J0D01*
G01*
X185000000Y-196750000D02*
G75*
G03X185000000Y-196750000I-750000J0D01*
G01*
X203000000Y-178750000D02*
G75*
G03X203000000Y-178750000I-750000J0D01*
G01*
X53848528Y-179600000D02*
G75*
G03X53848528Y-179600000I-848528J0D01*
G01*
X71860233Y-197600000D02*
G75*
G03X71860233Y-197600000I-860233J0D01*
G01*
X63886001Y-188250000D02*
G75*
G03X63886001Y-188250000I-2136001J0D01*
G01*
X57015564Y-195000000D02*
G75*
G03X57015564Y-195000000I-2015564J0D01*
G01*
X56950000Y-50000000D02*
G75*
G03X56950000Y-50000000I-2000000J0D01*
G01*
X63750000Y-56800000D02*
G75*
G03X63750000Y-56800000I-2000000J0D01*
G01*
X71150000Y-48000000D02*
G75*
G03X71150000Y-48000000I-800000J0D01*
G01*
X53250000Y-66000000D02*
G75*
G03X53250000Y-66000000I-800000J0D01*
G01*
X166750000Y-101500000D02*
X165500000Y-97000000D01*
X167750000Y-106500000D02*
X166750000Y-101500000D01*
X167750000Y-111000000D02*
X167750000Y-106500000D01*
X167000000Y-115250000D02*
X167750000Y-111000000D01*
X166250000Y-117750000D02*
X167000000Y-115250000D01*
X165750000Y-119500000D02*
X166250000Y-117750000D01*
X165500000Y-120500000D02*
X165750000Y-119500000D01*
X165500000Y-121500000D02*
X165500000Y-120500000D01*
X165750000Y-122500000D02*
X165500000Y-121500000D01*
X166000000Y-123250000D02*
X165750000Y-122500000D01*
X166000000Y-124000000D02*
X166000000Y-123250000D01*
X165500000Y-125250000D02*
X166000000Y-124000000D01*
X164500000Y-127250000D02*
X165500000Y-125250000D01*
X164000000Y-128000000D02*
X164500000Y-127250000D01*
X163750000Y-129000000D02*
X164000000Y-128000000D01*
X163750000Y-130000000D02*
X163750000Y-129000000D01*
X164250000Y-130500000D02*
X163750000Y-130000000D01*
X164750000Y-130750000D02*
X164250000Y-130500000D01*
X165000000Y-131250000D02*
X164750000Y-130750000D01*
X165000000Y-131750000D02*
X165000000Y-131250000D01*
X164750000Y-132250000D02*
X165000000Y-131750000D01*
X164500000Y-132500000D02*
X164750000Y-132250000D01*
X164250000Y-132750000D02*
X164500000Y-132500000D01*
X164000000Y-133500000D02*
X164250000Y-132750000D01*
X164250000Y-134000000D02*
X164000000Y-133500000D01*
X165000000Y-134750000D02*
X164250000Y-134000000D01*
X167000000Y-136250000D02*
X165000000Y-134750000D01*
X168000000Y-138750000D02*
X167000000Y-136250000D01*
X168250000Y-140000000D02*
X168000000Y-138750000D01*
X168250000Y-141000000D02*
X168250000Y-140000000D01*
X167000000Y-144750000D02*
X168250000Y-141000000D01*
X166000000Y-146750000D02*
X167000000Y-144750000D01*
X82500000Y-149000000D02*
X82250000Y-150250000D01*
X82500000Y-147500000D02*
X82500000Y-149000000D01*
X82250000Y-145500000D02*
X82500000Y-147500000D01*
X82000000Y-143750000D02*
X82250000Y-145500000D01*
X81750000Y-142000000D02*
X82000000Y-143750000D01*
X81500000Y-141250000D02*
X81750000Y-142000000D01*
X81500000Y-140000000D02*
X81500000Y-141250000D01*
X81500000Y-139000000D02*
X81500000Y-140000000D01*
X82000000Y-137750000D02*
X81500000Y-139000000D01*
X83000000Y-136250000D02*
X82000000Y-137750000D01*
X84250000Y-134750000D02*
X83000000Y-136250000D01*
X84250000Y-133750000D02*
X84250000Y-134750000D01*
X84000000Y-133000000D02*
X84250000Y-133750000D01*
X83250000Y-132750000D02*
X84000000Y-133000000D01*
X82750000Y-132250000D02*
X83250000Y-132750000D01*
X82500000Y-131750000D02*
X82750000Y-132250000D01*
X82500000Y-131250000D02*
X82500000Y-131750000D01*
X82500000Y-130500000D02*
X82500000Y-131250000D01*
X83000000Y-129750000D02*
X82500000Y-130500000D01*
X83500000Y-129250000D02*
X83000000Y-129750000D01*
X83750000Y-128500000D02*
X83500000Y-129250000D01*
X83000000Y-126750000D02*
X83750000Y-128500000D01*
X82250000Y-125250000D02*
X83000000Y-126750000D01*
X82250000Y-124250000D02*
X82250000Y-125250000D01*
X82750000Y-122750000D02*
X82250000Y-124250000D01*
X83000000Y-121250000D02*
X82750000Y-122750000D01*
X82000000Y-118500000D02*
X83000000Y-121250000D01*
X81500000Y-113750000D02*
X82000000Y-118500000D01*
X81500000Y-111000000D02*
X81500000Y-113750000D01*
X81750000Y-106750000D02*
X81500000Y-111000000D01*
X133845100Y-76276200D02*
G75*
G03X133845100Y-76276200I-1600000J0D01*
G01*
X117347800Y-76276200D02*
G75*
G03X117347800Y-76276200I-1600000J0D01*
G01*
X146750000Y-167250000D02*
X147250000Y-166750000D01*
X145250000Y-167750000D02*
X146750000Y-167250000D01*
X144750000Y-168250000D02*
X145250000Y-167750000D01*
X144250000Y-168750000D02*
X144750000Y-168250000D01*
X144250000Y-170250000D02*
X144250000Y-168750000D01*
X143750000Y-171250000D02*
X144250000Y-170250000D01*
X142250000Y-172750000D02*
X143750000Y-171250000D01*
X140250000Y-173250000D02*
X142250000Y-172750000D01*
X139250000Y-173250000D02*
X140250000Y-173250000D01*
X137250000Y-172250000D02*
X139250000Y-173250000D01*
X137250000Y-172750000D02*
X137250000Y-172250000D01*
X136750000Y-173750000D02*
X137250000Y-172750000D01*
X136250000Y-173750000D02*
X136750000Y-173750000D01*
X134750000Y-173750000D02*
X136250000Y-173750000D01*
X132750000Y-173250000D02*
X134750000Y-173750000D01*
X130750000Y-172250000D02*
X132750000Y-173250000D01*
X130750000Y-173750000D02*
X130750000Y-172250000D01*
X130250000Y-173750000D02*
X130750000Y-173750000D01*
X127250000Y-172750000D02*
X130250000Y-173750000D01*
X126750000Y-173250000D02*
X127250000Y-172750000D01*
X125250000Y-173750000D02*
X126750000Y-173250000D01*
X124750000Y-173250000D02*
X125250000Y-173750000D01*
X121750000Y-172750000D02*
X124750000Y-173250000D01*
X120750000Y-173250000D02*
X121750000Y-172750000D01*
X118750000Y-173750000D02*
X120750000Y-173250000D01*
X118750000Y-172750000D02*
X118750000Y-173750000D01*
X117750000Y-172750000D02*
X118750000Y-172750000D01*
X114250000Y-173750000D02*
X117750000Y-172750000D01*
X112250000Y-173750000D02*
X114250000Y-173750000D01*
X111750000Y-173250000D02*
X112250000Y-173750000D01*
X110750000Y-173250000D02*
X111750000Y-173250000D01*
X107250000Y-173250000D02*
X110750000Y-173250000D01*
X105250000Y-172250000D02*
X107250000Y-173250000D01*
X103750000Y-171250000D02*
X105250000Y-172250000D01*
X103250000Y-169750000D02*
X103750000Y-171250000D01*
X103250000Y-168250000D02*
X103250000Y-169750000D01*
X102750000Y-167750000D02*
X103250000Y-168250000D01*
X102250000Y-167250000D02*
X102750000Y-167750000D01*
X101750000Y-166250000D02*
X102250000Y-167250000D01*
X117750000Y-72750000D02*
X110750000Y-74250000D01*
X122750000Y-72250000D02*
X117750000Y-72750000D01*
X124750000Y-72250000D02*
X122750000Y-72250000D01*
X126250000Y-72250000D02*
X124750000Y-72250000D01*
X133250000Y-73250000D02*
X126250000Y-72250000D01*
X139250000Y-74250000D02*
X133250000Y-73250000D01*
X143750000Y-75750000D02*
X139250000Y-74250000D01*
X148250000Y-77750000D02*
X143750000Y-75750000D01*
X151750000Y-79750000D02*
X148250000Y-77750000D01*
X124256800Y-152323800D02*
X122250000Y-151250000D01*
X126250000Y-151250000D02*
X124256800Y-152323800D01*
X131250000Y-149750000D02*
X126250000Y-151250000D01*
X131750000Y-149250000D02*
X131250000Y-149750000D01*
X132250000Y-148250000D02*
X131750000Y-149250000D01*
X132750000Y-146750000D02*
X132250000Y-148250000D01*
X132750000Y-144250000D02*
X132750000Y-146750000D01*
X132250000Y-142250000D02*
X132750000Y-144250000D01*
X131250000Y-140250000D02*
X132250000Y-142250000D01*
X129750000Y-138250000D02*
X131250000Y-140250000D01*
X126750000Y-135750000D02*
X129750000Y-138250000D01*
X125250000Y-134750000D02*
X126750000Y-135750000D01*
X124250000Y-134250000D02*
X125250000Y-134750000D01*
X118750000Y-150250000D02*
X122250000Y-151250000D01*
X117250000Y-149750000D02*
X118750000Y-150250000D01*
X116750000Y-149250000D02*
X117250000Y-149750000D01*
X116250000Y-148250000D02*
X116750000Y-149250000D01*
X115750000Y-146750000D02*
X116250000Y-148250000D01*
X115750000Y-145250000D02*
X115750000Y-146750000D01*
X115750000Y-144250000D02*
X115750000Y-145250000D01*
X116250000Y-142250000D02*
X115750000Y-144250000D01*
X116750000Y-141250000D02*
X116250000Y-142250000D01*
X117250000Y-140250000D02*
X116750000Y-141250000D01*
X118750000Y-138250000D02*
X117250000Y-140250000D01*
X121750000Y-135750000D02*
X118750000Y-138250000D01*
X123250000Y-134750000D02*
X121750000Y-135750000D01*
X124250000Y-134250000D02*
X123250000Y-134750000D01*
X151395630Y-125450000D02*
G75*
G03X151395630Y-125450000I-10295630J0D01*
G01*
X118095630Y-125600000D02*
G75*
G03X118095630Y-125600000I-10295630J0D01*
G01*
M02*
