<?xml version="1.0" encoding="UTF-8" standalone="no"?>
<!-- Created with Inkscape (http://www.inkscape.org/) -->

<svg
   xmlns:dc="http://purl.org/dc/elements/1.1/"
   xmlns:cc="http://creativecommons.org/ns#"
   xmlns:rdf="http://www.w3.org/1999/02/22-rdf-syntax-ns#"
   xmlns:svg="http://www.w3.org/2000/svg"
   xmlns="http://www.w3.org/2000/svg"
   xmlns:sodipodi="http://sodipodi.sourceforge.net/DTD/sodipodi-0.dtd"
   xmlns:inkscape="http://www.inkscape.org/namespaces/inkscape"
   id="svg4136"
   version="1.1"
   inkscape:version="0.91 r13725"
   width="705.55554mm"
   height="874.88892mm"
   viewBox="0 0 2500 3100"
   sodipodi:docname="lime - Copy.svg">
  <metadata
     id="metadata4142">
    <rdf:RDF>
      <cc:Work
         rdf:about="">
        <dc:format>image/svg+xml</dc:format>
        <dc:type
           rdf:resource="http://purl.org/dc/dcmitype/StillImage" />
        <dc:title />
      </cc:Work>
    </rdf:RDF>
  </metadata>
  <defs
     id="defs4140" />
  <sodipodi:namedview
     pagecolor="#ffffff"
     bordercolor="#666666"
     borderopacity="1"
     objecttolerance="10"
     gridtolerance="10"
     guidetolerance="10"
     inkscape:pageopacity="0"
     inkscape:pageshadow="2"
     inkscape:window-width="1366"
     inkscape:window-height="706"
     id="namedview4138"
     showgrid="false"
     inkscape:zoom="7.8685019"
     inkscape:cx="25.838083"
     inkscape:cy="21.447681"
     inkscape:window-x="1592"
     inkscape:window-y="112"
     inkscape:window-maximized="1"
     inkscape:current-layer="svg4136"
     units="mm" />
  <path
     style="fill:#000000"
     d="m 16.979114,3099.8792 c -0.205163,-0.056 -0.47847,-0.1484 -0.60735,-0.2049 -0.128881,-0.056 -0.322055,-0.1315 -0.429278,-0.1668 -0.216707,-0.071 -0.934605,-0.4843 -1.104604,-0.6354 -0.0601,-0.053 -0.146839,-0.103 -0.192747,-0.1102 -0.04591,-0.01 -0.171528,-0.083 -0.279154,-0.1682 -0.107627,-0.085 -0.258144,-0.185 -0.334484,-0.2212 -0.07634,-0.036 -0.335467,-0.1928 -0.575838,-0.3478 -0.240371,-0.155 -0.519377,-0.3228 -0.620014,-0.373 -0.181536,-0.091 -0.2414,-0.1521 -0.303319,-0.3119 -0.01769,-0.046 -0.05891,-0.1491 -0.09161,-0.2298 -0.03269,-0.081 -0.0539,-0.1991 -0.04712,-0.2628 0.0068,-0.064 -0.0061,-0.1188 -0.02864,-0.1223 -0.02254,0 -0.06184,-0.1271 -0.08735,-0.2745 -0.0255,-0.1475 -0.06137,-0.2705 -0.07969,-0.2734 -0.01833,0 -0.02359,-0.108 -0.0117,-0.2336 0.01983,-0.2094 0.0401,-0.2472 0.244477,-0.4555 0.122572,-0.125 0.265385,-0.2495 0.317363,-0.2768 0.05198,-0.027 0.112337,-0.093 0.134131,-0.1451 0.02179,-0.053 0.09174,-0.1229 0.155434,-0.1563 0.06369,-0.033 0.197158,-0.1532 0.296587,-0.2661 0.09943,-0.113 0.232891,-0.2327 0.296586,-0.2661 0.06369,-0.033 0.128433,-0.091 0.143864,-0.1284 0.01543,-0.037 0.10071,-0.1227 0.189507,-0.19 0.0888,-0.067 0.177947,-0.162 0.198108,-0.2107 0.02016,-0.049 0.0755,-0.097 0.122972,-0.1066 0.04747,-0.01 0.159138,-0.1041 0.248145,-0.2092 0.08901,-0.1051 0.212315,-0.2175 0.274018,-0.2498 0.0617,-0.032 0.12494,-0.09 0.140525,-0.1272 0.01559,-0.038 0.07397,-0.092 0.129736,-0.1215 0.08748,-0.046 0.09557,-0.07 0.05894,-0.1719 -0.02335,-0.065 -0.07816,-0.1244 -0.1218,-0.1314 -0.04365,-0.01 -0.155473,-0.1549 -0.248528,-0.3287 -0.09305,-0.1738 -0.18417,-0.3183 -0.202481,-0.3211 -0.03526,-0.01 -0.144501,-0.2977 -0.269236,-0.7202 -0.179405,-0.6077 -0.193189,-0.7771 -0.123309,-1.5154 0.03613,-0.3818 0.0816,-0.5468 0.275823,-1.0008 0.138955,-0.3248 0.31106,-0.648 0.427593,-0.8031 0.107269,-0.1427 0.201956,-0.2756 0.210416,-0.2952 0.0178,-0.041 -0.210869,-0.027 -0.311984,0.019 -0.141467,0.065 -0.528059,0.102 -0.880293,0.084 -0.331722,-0.017 -0.372288,-0.01 -0.449833,0.1134 -0.04688,0.073 -0.182055,0.234 -0.300396,0.3591 -0.118341,0.1251 -0.228454,0.2581 -0.244695,0.2957 -0.01624,0.037 -0.133394,0.1759 -0.260338,0.3073 -0.126945,0.1315 -0.343523,0.378 -0.481287,0.5479 -0.137762,0.1699 -0.359836,0.4356 -0.493497,0.5906 -0.133661,0.155 -0.291906,0.3575 -0.351655,0.4501 -0.05975,0.092 -0.194399,0.2591 -0.299222,0.3702 -0.104824,0.111 -0.203689,0.2335 -0.219701,0.2721 -0.02611,0.063 -0.55223,0.6202 -0.8260876,0.8748 -0.158607,0.1475 -0.570576,0.404 -0.633227,0.3942 -0.03002,0 -0.08634,0.02 -0.12517,0.055 -0.03883,0.035 -0.219327,0.1217 -0.401111,0.1928 -0.427369,0.1672 -1.155732,0.1699 -1.505832,0.01 -0.566695,-0.2659 -0.624733,-0.8179 -0.138421,-1.3164 0.105937,-0.1086 0.201786,-0.2196 0.212996,-0.2466 0.01121,-0.027 0.191691,-0.1695 0.401067,-0.3166 0.391178,-0.2749 0.758302,-0.6098 0.812984,-0.7417 0.01701,-0.041 0.140017,-0.1874 0.273355,-0.3254 0.133338,-0.1379 0.254137,-0.279 0.268442,-0.3135 0.01431,-0.035 0.133329,-0.1769 0.264497,-0.3164 0.131168,-0.1396 0.367814,-0.4032 0.52588,-0.5858 0.3914086,-0.4523 0.6578206,-0.7459 0.9287946,-1.0235 0.125571,-0.1286 0.235118,-0.2503 0.243438,-0.2704 0.01714,-0.041 -0.229214,-0.013 -0.290957,0.034 -0.03848,0.029 -0.592935,0.1186 -1.2168386,0.1966 -0.160628,0.02 -0.349212,0.054 -0.419077,0.076 -0.06986,0.022 -0.24214,0.046 -0.382834,0.055 -0.140694,0.01 -0.596263,0.056 -1.012375,0.1041 -0.416114,0.048 -0.883014,0.093 -1.037558,0.098 -0.154544,0.01 -0.6604615,0.024 -1.1242616,0.04 -0.7808044,0.028 -0.9375973,0.015 -2.1165947,-0.1714 -0.7720021,-0.1222 -1.3452987,-0.2384 -1.4561373,-0.295 -0.100549,-0.051 -0.3174216,-0.1595 -0.4819399,-0.2403 -0.1645183,-0.081 -0.4195331,-0.2485 -0.56669978,-0.3729 -0.2310036,-0.1952 -0.3449554,-0.315 -0.6466879,-0.6801 -0.030255,-0.037 -0.098788,-0.1647 -0.1522948,-0.2847 -0.053508,-0.12 -0.1250045,-0.2795 -0.158882,-0.3546 -0.058702,-0.1302 -0.05024,-0.1568 0.1800432,-0.567 0.2732762,-0.4867 0.6125112,-0.8975 0.7880951,-0.9541 0.065037,-0.021 0.20409168,-0.069 0.30901028,-0.1058 0.3520057,-0.1248 1.0730447,-0.054 2.0652497,0.2032 1.3043592,0.338 1.3855441,0.3397 2.0369287,0.042 0.1538736,-0.07 0.3925607,-0.1349 0.5304155,-0.1439 0.1378556,-0.01 0.4836215,-0.037 0.7683695,-0.063 0.284749,-0.026 0.618529,-0.049 0.741735,-0.052 0.24506,-0.01 0.66975,-0.057 1.398397,-0.1669 0.259906,-0.039 0.503824,-0.066 0.54204,-0.059 0.03822,0.01 0.171232,-0.013 0.295591,-0.045 0.3523206,-0.09 0.4508466,-0.1088 0.7310406,-0.1412 0.143697,-0.017 0.321736,-0.057 0.395642,-0.09 0.07391,-0.033 0.176072,-0.053 0.227033,-0.045 0.05096,0.01 0.200333,-0.021 0.331937,-0.064 0.131603,-0.043 0.270101,-0.074 0.307775,-0.068 0.03767,0.01 0.175365,-0.025 0.30598,-0.068 0.130616,-0.043 0.335134,-0.1039 0.454485,-0.1347 0.119351,-0.031 0.363479,-0.1086 0.542507,-0.173 0.179028,-0.064 0.413255,-0.1464 0.520505,-0.1821 0.17791,-0.059 0.205356,-0.089 0.313186,-0.346 0.07453,-0.1773 0.191829,-0.3553 0.317539,-0.482 0.179199,-0.1806 0.854781,-0.6228 1.426945,-0.934 0.11799,-0.064 0.377082,-0.2083 0.575759,-0.3201 0.198676,-0.1119 0.377768,-0.201 0.397979,-0.1979 0.10722,0.016 0.428715,-0.2529 0.543203,-0.4543 0.07012,-0.1233 0.227704,-0.3228 0.350197,-0.4433 0.122495,-0.1204 0.225551,-0.2258 0.229015,-0.2342 0.01668,-0.04 -0.489536,-0.024 -0.729892,0.024 -0.220624,0.044 -0.461186,0.023 -1.283795,-0.1096 -0.95653,-0.1543 -1.031857,-0.1749 -1.367383,-0.3755 -0.545781,-0.3262 -0.991499,-0.4394 -2.119956,-0.5383 -0.667727,-0.058 -1.103208,-0.068 -1.371619,-0.031 -0.216301,0.03 -0.496474,0.064 -0.622607,0.075 -0.126133,0.011 -0.2776396,0.046 -0.3366816,0.077 -0.05904,0.031 -0.219036,0.074 -0.355542,0.095 -0.136507,0.021 -0.274174,0.069 -0.305928,0.1076 -0.03175,0.038 -0.08895,0.065 -0.1271,0.059 -0.08588,-0.013 -0.787718,0.3935 -0.876448,0.5081 -0.03566,0.046 -0.206099,0.134 -0.378745,0.1954 -0.25115,0.089 -0.401198,0.1037 -0.750583,0.072 -0.383176,-0.035 -0.453229,-0.058 -0.571728,-0.1882 -0.2968937,-0.3258 -0.240402,-0.7951 0.180628,-1.5006 0.139326,-0.2334 0.318761,-0.4924 0.398746,-0.5755 0.07998,-0.083 0.156592,-0.178 0.170241,-0.2108 0.04419,-0.1064 0.746673,-0.5866 1.02703,-0.7021 0.249077,-0.1027 0.265297,-0.1793 0.03116,-0.1473 -0.481198,0.066 -1.616431,-0.2574 -1.906466,-0.5428 -0.07196,-0.071 -0.1589751,-0.1341 -0.1933652,-0.1408 -0.1144012,-0.022 -0.2625201,-0.3547 -0.2456145,-0.5515 0.021176,-0.2465 0.2459842,-0.5677 0.4783067,-0.6833 0.08909,-0.044 0.172068,-0.105 0.184388,-0.1347 0.01232,-0.03 0.12001,-0.082 0.239311,-0.1153 0.1193,-0.034 0.242916,-0.085 0.274704,-0.1136 0.09737,-0.088 0.599253,-0.1901 0.788871,-0.1606 0.358549,0.056 1.810037,-0.1488 2.086411,-0.2943 0.06151,-0.032 0.1428946,-0.054 0.1808596,-0.048 0.03796,0.01 0.171156,-0.038 0.295981,-0.099 0.124825,-0.06 0.242553,-0.1071 0.261617,-0.1042 0.0658,0.01 0.887549,-0.3418 0.90693,-0.3885 0.01069,-0.026 0.05435,-0.041 0.09703,-0.035 0.04268,0.01 0.127152,-0.032 0.187724,-0.087 0.06057,-0.054 0.141177,-0.094 0.179122,-0.088 0.03795,0.01 0.17112,-0.039 0.295945,-0.099 0.124825,-0.06 0.249246,-0.1061 0.276491,-0.1018 0.02725,0 0.110363,-0.022 0.184708,-0.057 0.27035,-0.1302 0.851599,-0.3609 0.892989,-0.3545 0.02335,0 0.05826,-0.011 0.07757,-0.034 0.01931,-0.022 0.174299,-0.09 0.344419,-0.1518 0.170118,-0.061 0.319039,-0.135 0.330932,-0.1637 0.01189,-0.029 0.06482,-0.045 0.117608,-0.037 0.05279,0.01 0.155808,-0.026 0.22893,-0.075 0.07312,-0.049 0.213807,-0.1089 0.312634,-0.1322 0.09883,-0.023 0.18883,-0.064 0.200007,-0.091 0.01118,-0.027 0.09684,-0.068 0.190356,-0.092 0.09352,-0.024 0.265678,-0.088 0.382575,-0.1421 0.116898,-0.055 0.251299,-0.093 0.298669,-0.086 0.04737,0.01 0.09599,-0.01 0.108044,-0.039 0.01206,-0.029 0.182304,-0.098 0.378334,-0.1532 0.338666,-0.095 0.35119,-0.104 0.251469,-0.1725 -0.05772,-0.04 -0.578351,-0.1452 -1.156953,-0.2348 -0.903235,-0.1397 -1.172991,-0.1597 -1.907539,-0.1413 -1.726145,0.043 -2.3831,0.089 -3.636772,0.251 -0.6676806,0.086 -1.5469656,-0.039 -1.8005646,-0.257 -0.340982,-0.2931 -0.296283,-0.68 0.129192,-1.1182 0.149196,-0.1536 0.325777,-0.3007 0.3924,-0.3268 0.06662,-0.026 0.131584,-0.073 0.144357,-0.1035 0.03226,-0.078 0.755412,-0.3166 0.8935976,-0.295 0.06217,0.01 0.194016,-0.01 0.292995,-0.039 0.163798,-0.051 0.534571,-0.1066 1.332306,-0.1978 0.316231,-0.036 1.910564,-0.1678 2.322559,-0.1918 0.258247,-0.015 1.08305,-0.073 2.025906,-0.1427 0.283152,-0.021 0.710597,-0.036 0.949878,-0.034 0.239281,0 0.597339,-0.02 0.795686,-0.05 0.198349,-0.03 0.415597,-0.046 0.482771,-0.037 0.141717,0.021 0.462613,-0.1234 0.434092,-0.1956 -0.01064,-0.027 0.0037,-0.026 0.03174,0 0.05714,0.058 0.400877,-0.01 0.431757,-0.081 0.01091,-0.026 0.04724,-0.044 0.08072,-0.038 0.03349,0.01 0.244067,-0.037 0.467965,-0.093 0.728673,-0.1843 1.213371,-0.2314 1.923404,-0.1869 0.484399,0.03 0.696678,0.023 0.716621,-0.025 0.01559,-0.038 0.01121,-0.087 -0.0097,-0.1101 -0.02093,-0.023 -0.01936,-0.087 0.0035,-0.1421 0.02287,-0.055 0.03763,-0.2405 0.03281,-0.4118 -0.0048,-0.1714 0.0093,-0.3558 0.03147,-0.41 0.02215,-0.054 0.03758,-0.2213 0.03434,-0.3715 -0.0032,-0.1502 0.0065,-0.3495 0.02163,-0.4428 0.02802,-0.1728 0.0596,-0.5862 0.111589,-1.4612 0.01595,-0.2686 0.04336,-0.6297 0.06089,-0.8023 0.01753,-0.1727 0.0255,-0.3985 0.01769,-0.5018 -0.0078,-0.1033 0.0026,-0.2282 0.02304,-0.2776 0.02047,-0.049 0.03602,-0.1722 0.03454,-0.2729 -0.0015,-0.1007 0.0129,-0.3112 0.03195,-0.4676 0.05043,-0.4144 0.07909,-0.813 0.08503,-1.1827 0.0029,-0.179 0.02152,-0.3647 0.04143,-0.4127 0.0199,-0.048 0.03403,-0.2252 0.0314,-0.3937 -0.0051,-0.3266 0.008,-0.5213 0.100698,-1.4981 0.06794,-0.7157 0.05458,-0.7007 0.595885,-0.6702 0.194437,0.011 0.410948,0.017 0.481136,0.013 0.09724,-0.01 0.117295,0.018 0.08427,0.097 -0.02384,0.057 -0.03939,0.2447 -0.03457,0.4161 0.0048,0.1713 -0.0092,0.3554 -0.03113,0.4091 -0.02197,0.054 -0.03291,0.2009 -0.02437,0.3273 0.0085,0.1263 -7.49e-4,0.269 -0.02068,0.3171 -0.01992,0.048 -0.03322,0.2304 -0.02956,0.4053 0.0037,0.1749 -0.0074,0.352 -0.02467,0.3935 -0.01723,0.042 -0.03081,0.2018 -0.03019,0.356 6.09e-4,0.1542 -0.0107,0.3568 -0.02516,0.4503 -0.01447,0.093 -0.04174,0.4283 -0.06061,0.7443 -0.01887,0.316 -0.04622,0.6509 -0.06078,0.7443 -0.01456,0.093 -0.02483,0.2745 -0.02282,0.4024 0.002,0.1279 -0.0095,0.3348 -0.02559,0.4599 -0.01609,0.125 -0.03635,0.3958 -0.04501,0.6018 -0.0087,0.2059 -0.02564,0.5034 -0.03771,0.6609 -0.01207,0.1576 -0.02973,0.4419 -0.03923,0.6318 -0.0095,0.1898 -0.02594,0.396 -0.03651,0.4582 -0.01058,0.062 -0.03489,0.3714 -0.05402,0.6873 -0.01913,0.316 -0.04512,0.6578 -0.05775,0.7596 -0.01263,0.1019 -0.01959,0.3139 -0.01547,0.4712 l 0.0075,0.286 1.0025,0.1634 c 1.051401,0.1713 1.81969,0.2124 2.927251,0.1568 0.326641,-0.016 0.742306,-0.027 0.923694,-0.024 0.181391,0 0.492732,0 0.691868,0 0.199139,0 0.549752,-0.01 0.77914,-0.01 0.276552,0 1.143986,0.1103 2.57471,0.3355 2.18567,0.344 3.04696,0.5367 3.336391,0.7465 0.08,0.058 0.18243,0.1111 0.227614,0.1182 0.04518,0.01 0.136551,0.14 0.203035,0.2955 0.104656,0.2448 0.107574,0.3148 0.02173,0.5219 -0.06073,0.1466 -0.17658,0.3128 -0.298876,0.4289 -0.266556,0.2531 -1.018634,0.7194 -1.47691,0.9158 -0.203689,0.087 -0.389875,0.1757 -0.41375,0.1964 -0.02389,0.021 -0.229315,0.095 -0.456536,0.166 -0.22722,0.07 -0.487403,0.164 -0.578183,0.2078 -0.09079,0.044 -0.198149,0.074 -0.238594,0.068 -0.04044,-0.01 -0.192617,0.023 -0.338175,0.065 -0.383778,0.1118 -1.238422,0.2508 -1.543287,0.2512 -0.14446,0 -0.28444,0.02 -0.311067,0.044 -0.02663,0.024 -0.112451,0.036 -0.190716,0.027 -0.142064,-0.016 -0.142066,-0.016 -0.0028,0.048 0.07677,0.035 0.231738,0.135 0.344359,0.2217 0.112621,0.087 0.226674,0.161 0.253451,0.1652 0.02677,0 0.146057,0.085 0.265071,0.1786 0.119014,0.094 0.340265,0.2629 0.491668,0.3753 0.471166,0.3498 1.060451,0.8096 1.171755,0.9143 0.03288,0.031 0.125341,0.1084 0.20548,0.1723 0.28508,0.2272 0.394904,0.3192 0.452198,0.3788 0.03193,0.033 0.123579,0.1127 0.203665,0.1767 0.08009,0.064 0.172101,0.1427 0.204476,0.1748 0.03237,0.032 0.15296,0.132 0.267973,0.222 0.115015,0.09 0.25339,0.207 0.307497,0.2602 0.05411,0.053 0.286077,0.2556 0.515487,0.4498 0.229404,0.1942 0.421526,0.3806 0.426939,0.4142 0.0054,0.034 0.04919,0.068 0.0973,0.076 0.04811,0.01 0.126122,0.072 0.17337,0.1417 0.04725,0.07 0.115404,0.132 0.151461,0.1383 0.03606,0.01 0.132874,0.087 0.215135,0.1798 0.08226,0.093 0.175014,0.1722 0.206106,0.1771 0.03109,0 0.107857,0.082 0.170591,0.1715 0.06273,0.09 0.141584,0.1671 0.175217,0.1723 0.03364,0.01 0.128461,0.085 0.210728,0.1778 0.08226,0.093 0.16672,0.171 0.187674,0.1742 0.02095,0 0.06014,0.077 0.08708,0.1639 0.04831,0.1557 0.05369,0.1576 0.387563,0.1389 0.812005,-0.045 1.135518,0.071 1.129521,0.4082 -0.0028,0.1513 -0.03433,0.2132 -0.227961,0.4455 -0.123653,0.1483 -0.243202,0.2943 -0.265664,0.3244 -0.10227,0.1369 -0.570215,0.5129 -0.629278,0.5056 -0.03622,0 -0.07674,0.018 -0.09004,0.05 -0.02347,0.057 -0.2145,0.1943 -0.259781,0.1873 -0.01236,0 -0.139242,0.065 -0.28199,0.1496 -0.142745,0.084 -0.368037,0.1834 -0.500655,0.2204 -0.132619,0.037 -0.31577,0.1041 -0.407013,0.1489 -0.09123,0.045 -0.199313,0.076 -0.240173,0.07 -0.04086,-0.01 -0.219464,0.027 -0.396886,0.074 -0.463916,0.1225 -1.256913,0.2484 -1.412262,0.2242 -0.07311,-0.011 -0.291232,0.01 -0.484726,0.039 -0.19349,0.033 -0.420331,0.05 -0.504094,0.037 -0.08376,-0.012 -0.401132,0 -0.705267,0.031 -0.304133,0.029 -0.740774,0.056 -0.970306,0.058 -0.229534,0 -0.544029,0.01 -0.698885,0.016 -0.300214,0.012 -0.83502,-0.014 -2.089502,-0.1032 -0.734496,-0.052 -1.883523,-0.2791 -2.316233,-0.458 -0.114827,-0.047 -0.13671,-0.038 -0.18725,0.084 -0.03148,0.076 -0.09022,0.1779 -0.130542,0.2265 -0.06409,0.077 -0.04731,0.088 0.133355,0.081 0.674566,-0.025 2.241446,0.3655 2.798393,0.698 0.136809,0.082 0.283824,0.1539 0.326697,0.1606 0.04287,0.01 0.157976,0.086 0.255787,0.1769 0.344799,0.3194 2.093282,0.625 3.234148,0.5653 0.257583,-0.014 0.489706,-0.044 0.515826,-0.067 0.02611,-0.024 0.123096,-0.031 0.215498,-0.017 0.0924,0.014 0.280158,-0.01 0.417238,-0.051 0.137078,-0.043 0.28786,-0.071 0.335075,-0.064 0.04722,0.01 0.3263,-0.053 0.620202,-0.1352 0.293892,-0.082 0.560172,-0.1446 0.59172,-0.1397 0.03155,0.01 0.0662,-0.012 0.077,-0.038 0.01081,-0.026 0.124764,-0.045 0.253245,-0.043 0.128487,0 0.423962,-0.01 0.656623,-0.024 0.680658,-0.046 1.228692,0.1721 1.411222,0.5604 0.119397,0.2541 0.04845,0.6843 -0.162568,0.9859 -0.160917,0.2299 -0.246346,0.294 -0.633765,0.4758 -0.138544,0.065 -0.3265,0.1658 -0.41769,0.224 -0.09119,0.058 -0.199161,0.1005 -0.239941,0.094 -0.04078,-0.01 -0.117061,0.02 -0.169516,0.058 -0.158639,0.1152 -1.346046,0.5172 -1.471268,0.4981 -0.03712,-0.01 -0.202839,0.034 -0.368253,0.088 -0.165418,0.054 -0.32974,0.094 -0.365166,0.088 -0.03542,-0.01 -0.235745,0.026 -0.445151,0.071 -0.483723,0.1027 -1.351897,0.2071 -1.690178,0.2033 -0.143305,0 -0.283763,0.018 -0.312128,0.044 -0.02836,0.026 -0.126419,0.035 -0.217911,0.022 -0.09148,-0.014 -0.205258,-0.01 -0.252814,0.01 -0.04948,0.02 0.219799,0.098 0.629455,0.1831 1.03284,0.2144 1.188106,0.3494 0.979853,0.8517 -0.101702,0.2454 -0.172834,0.3417 -0.386217,0.5229 -0.143848,0.1222 -0.298959,0.2363 -0.34468,0.2536 -0.04572,0.017 -0.117781,0.074 -0.160138,0.1264 -0.04236,0.052 -0.12901,0.1005 -0.192565,0.1072 -0.06356,0.01 -0.123659,0.032 -0.133552,0.056 -0.01968,0.047 -0.903675,0.3223 -0.986055,0.3066 -0.02798,-0.01 -0.263306,0.022 -0.522942,0.06 -0.259634,0.039 -0.646937,0.071 -0.860667,0.072 -0.213732,0 -0.602143,0.01 -0.863143,0.011 -0.260998,0.01 -0.850272,-0.033 -1.309501,-0.084 l -0.834964,-0.093 0.155811,0.2614 c 0.341601,0.5732 0.58779,1.3288 0.591119,1.8142 5.27e-4,0.08 0.0094,0.2116 0.01958,0.2929 0.01023,0.081 -0.0011,0.197 -0.02524,0.257 -0.0241,0.06 -0.05884,0.2349 -0.07719,0.3886 -0.07039,0.5896 -0.676335,1.7331 -1.170922,2.2097 -0.164243,0.1582 -0.16818,0.1672 -0.0798,0.181 0.152865,0.024 0.416071,0.3729 0.587082,0.7786 0.135977,0.3227 0.147692,0.412 0.07655,0.5836 -0.0532,0.1283 -0.13862,0.2374 -0.232971,0.2974 -0.341684,0.2174 -0.543728,0.3738 -0.572466,0.4432 -0.01681,0.041 -0.05316,0.07 -0.08076,0.066 -0.118235,-0.018 -0.273136,0.2506 -0.80102,1.3913 -0.567002,1.2253 -1.229912,2.536 -1.3574,2.684 -0.168513,0.1957 -0.469887,0.2117 -1.362004,0.073 -0.838739,-0.1308 -0.855407,-0.136 -0.937802,-0.2912 -0.04614,-0.087 -0.113632,-0.1626 -0.149989,-0.1683 -0.03636,-0.01 -0.06385,-0.043 -0.0611,-0.082 0.0027,-0.039 -0.01548,-0.06 -0.0405,-0.046 -0.05674,0.033 -0.08388,0.5 -0.03696,0.6365 0.06604,0.1922 -0.148108,0.4393 -0.51359,0.5926 -0.180133,0.076 -0.353416,0.1334 -0.385074,0.1284 -0.03165,-0.01 -0.138653,0.027 -0.237774,0.071 -0.09912,0.044 -0.25561,0.082 -0.347764,0.083 -0.09215,0 -0.346941,0.015 -0.566194,0.03 -0.565862,0.038 -0.886185,0.012 -1.313326,-0.1051 z m 1.834273,-0.9213 c 0.289562,-0.086 0.297453,-0.092 0.271638,-0.2265 -0.04162,-0.2162 0.253425,-1.0249 0.444921,-1.2194 0.182538,-0.1855 0.620034,-0.3273 0.883065,-0.2863 0.233475,0.036 0.794491,0.3721 0.910746,0.545 0.0491,0.073 0.121236,0.1377 0.160294,0.1438 0.03906,0.01 0.06159,0.034 0.05007,0.062 -0.02692,0.065 0.585071,0.097 0.657124,0.034 0.02954,-0.026 0.15021,-0.2704 0.268142,-0.5438 0.231534,-0.5368 1.06831,-2.2228 1.374762,-2.7699 0.163124,-0.2912 0.238235,-0.3719 0.555614,-0.597 l 0.366996,-0.2603 -0.107206,-0.2173 c -0.05896,-0.1196 -0.134334,-0.2216 -0.167486,-0.2268 -0.03315,-0.01 -0.249294,0.1075 -0.480304,0.2503 -0.231015,0.1427 -0.538431,0.3101 -0.683149,0.3718 -0.43755,0.1867 -1.048671,0.4247 -1.078556,0.4201 -0.01545,0 -0.143369,0.027 -0.284256,0.064 -0.447839,0.1205 -0.915665,0.2092 -1.178692,0.2235 -0.140243,0.01 -0.448924,0.031 -0.685957,0.052 -0.671104,0.059 -2.264465,-0.2037 -2.806717,-0.4621 -0.21969,-0.1047 -0.436957,-0.1962 -0.482818,-0.2033 -0.04586,-0.01 -0.205416,-0.095 -0.35457,-0.1953 -0.447917,-0.3009 -0.512728,-0.3161 -0.64805,-0.152 -0.06413,0.078 -0.140757,0.1513 -0.170288,0.1632 -0.02953,0.012 -0.16661,0.1347 -0.304618,0.2727 -0.138008,0.1379 -0.350243,0.3397 -0.471632,0.4483 -0.121389,0.1087 -0.273673,0.2611 -0.338407,0.3387 -0.06473,0.078 -0.136277,0.1382 -0.158983,0.1346 -0.02271,0 -0.117731,0.084 -0.211165,0.1941 -0.09343,0.1103 -0.201039,0.2126 -0.239122,0.2274 -0.03808,0.015 -0.1549,0.1175 -0.259592,0.2284 -0.188941,0.2002 -0.190142,0.2032 -0.162376,0.4059 0.01539,0.1124 0.04863,0.2075 0.07387,0.2114 0.02524,0 0.03511,0.071 0.02194,0.1493 -0.02785,0.1653 0.106292,0.3926 0.244385,0.4141 0.05252,0.01 0.198034,0.096 0.323371,0.1954 0.125337,0.099 0.262176,0.1858 0.304085,0.1923 0.04191,0.01 0.176127,0.092 0.298258,0.1909 0.122132,0.099 0.269948,0.1867 0.328482,0.1962 0.05854,0.01 0.119504,0.043 0.135489,0.074 0.03515,0.069 0.747574,0.5168 1.008163,0.6341 0.102679,0.046 0.265833,0.1336 0.362564,0.1942 0.266508,0.1669 0.355208,0.1902 1.173868,0.3079 0.678012,0.098 0.789297,0.1 1.056099,0.021 z m 1.711742,-5.1612 c 0.627505,-0.084 0.849572,-0.1271 1.24029,-0.2424 0.522929,-0.1543 0.755175,-0.238 0.931783,-0.3359 0.07859,-0.044 0.164028,-0.076 0.189876,-0.072 0.09893,0.015 1.036595,-0.6309 1.333994,-0.9196 0.51004,-0.495 0.781119,-0.8802 1.012854,-1.4392 0.165892,-0.4002 0.206028,-0.5599 0.213215,-0.8483 0.0049,-0.1955 0.01795,-0.3773 0.02905,-0.4041 0.01111,-0.027 -0.005,-0.1382 -0.03586,-0.2475 -0.03083,-0.1094 -0.04832,-0.2175 -0.03887,-0.2403 0.01584,-0.038 -0.06779,-0.3522 -0.127587,-0.4791 -0.203714,-0.4321 -0.356646,-0.6775 -0.565425,-0.9073 -0.03367,-0.037 -0.112858,-0.1342 -0.175967,-0.2159 -0.06311,-0.082 -0.137762,-0.1521 -0.1659,-0.1565 -0.02814,0 -0.05129,-0.028 -0.05145,-0.052 -4.15e-4,-0.053 -1.988733,-0.2924 -2.786882,-0.3358 -0.312785,-0.017 -0.736614,-0.017 -0.941842,0 -0.861163,0.073 -1.318523,0.1341 -1.628241,0.2167 -0.180732,0.048 -0.352659,0.084 -0.382058,0.079 -0.0294,0 -0.172854,0.023 -0.318785,0.063 -0.145933,0.039 -0.508088,0.089 -0.804786,0.1117 -0.296699,0.022 -0.570479,0.045 -0.608399,0.05 -0.03792,0.01 -0.248812,0.202 -0.468649,0.4372 -0.327107,0.3501 -0.440386,0.5095 -0.623681,0.8776 -0.266513,0.5352 -0.452944,1.2014 -0.414579,1.4815 0.01477,0.1078 0.01779,0.2179 0.0067,0.2447 -0.02572,0.062 0.08278,0.585 0.151818,0.7317 0.02886,0.061 0.04231,0.136 0.02989,0.166 -0.01242,0.03 8.03e-4,0.058 0.02939,0.062 0.02858,0 0.109448,0.125 0.17971,0.2679 0.357071,0.7262 1.41315,1.5448 2.336854,1.8113 0.507347,0.1464 2.11532,0.339 2.453537,0.2938 z m -12.1037276,-2.0184 c 0.200134,-0.056 0.626808,-0.2894 0.655904,-0.3596 0.0057,-0.014 0.102233,-0.096 0.214465,-0.1834 0.112232,-0.087 0.218618,-0.1934 0.236413,-0.2363 0.01779,-0.043 0.08589,-0.1223 0.151327,-0.1764 0.06543,-0.054 0.219489,-0.2381 0.3423466,-0.4089 0.122857,-0.1708 0.251907,-0.3322 0.286779,-0.3587 0.03487,-0.026 0.159066,-0.1805 0.275989,-0.3424 0.116921,-0.1619 0.299638,-0.3865 0.406035,-0.4992 0.106397,-0.1128 0.206728,-0.2368 0.222957,-0.2757 0.01623,-0.039 0.109505,-0.1436 0.20728,-0.2328 0.09778,-0.089 0.191627,-0.1956 0.208558,-0.2364 0.02906,-0.07 0.372223,-0.4591 0.900982,-1.0212 0.129398,-0.1376 0.246003,-0.276 0.259122,-0.3076 0.03493,-0.084 0.351131,-0.2956 0.526991,-0.3527 0.100707,-0.033 0.255221,-0.022 0.457377,0.032 0.179052,0.048 0.424398,0.071 0.593325,0.055 0.398747,-0.037 0.958583,-0.2418 1.011791,-0.37 0.0375,-0.09 0.0073,-0.1046 -0.267015,-0.1259 -0.170111,-0.013 -0.449025,0.013 -0.619808,0.059 -0.170783,0.046 -0.458699,0.1235 -0.639813,0.173 -0.181114,0.05 -0.351966,0.086 -0.379671,0.082 -0.0277,0 -0.18298,0.026 -0.345054,0.067 -0.260942,0.066 -0.323225,0.1081 -0.543959,0.3646 -0.137104,0.1592 -0.354918,0.4036 -0.484032,0.5429 -0.129114,0.1393 -0.326364,0.3565 -0.438333,0.4825 -0.111968,0.1261 -0.317442,0.355 -0.456609,0.5087 -0.139165,0.1537 -0.372907,0.4174 -0.519426,0.5859 -0.146519,0.1685 -0.347959,0.398 -0.447645,0.51 -0.4489366,0.5046 -0.9100436,1.0608 -0.9407446,1.1348 -0.01847,0.045 -0.215551,0.2147 -0.437949,0.3779 -0.857,0.6291 -0.855651,0.6275 -0.437583,0.5116 z m -3.3533432,-4.9168 c 0.6932016,0.017 1.8025132,-0.025 2.4481082,-0.094 0.974069,-0.1034 1.151277,-0.1253 1.3716,-0.1691 0.132784,-0.026 0.490817,-0.078 0.795629,-0.1157 0.304812,-0.037 0.6606806,-0.1022 0.7908196,-0.1444 0.13014,-0.042 0.286101,-0.069 0.346582,-0.059 0.06048,0.01 0.254969,-0.021 0.432197,-0.067 0.321642,-0.084 0.633334,-0.1486 1.251692,-0.2592 0.180038,-0.032 0.360172,-0.079 0.400297,-0.1039 0.04013,-0.025 0.114381,-0.039 0.165013,-0.031 0.05063,0.01 0.195102,-0.021 0.321047,-0.065 0.125944,-0.044 0.34562,-0.091 0.48817,-0.1048 0.14255,-0.014 0.267348,-0.045 0.277328,-0.069 0.01,-0.024 0.118311,-0.06 0.240734,-0.08 0.310612,-0.05 0.959713,-0.2348 1.154778,-0.3284 0.14704,-0.071 1.575911,-0.4997 2.363169,-0.7097 0.487833,-0.1301 0.975378,-0.2293 1.06131,-0.2159 0.04315,0.01 0.138491,-0.014 0.211862,-0.046 0.141196,-0.062 0.858175,-0.2092 1.300174,-0.2676 0.145017,-0.019 0.346412,-0.054 0.447551,-0.078 0.314441,-0.073 0.417965,-0.092 0.68954,-0.127 0.144746,-0.019 0.293807,-0.05 0.331247,-0.071 0.03744,-0.021 0.12799,-0.029 0.201225,-0.018 0.07323,0.011 0.25586,-0.013 0.405837,-0.053 0.195815,-0.052 0.478726,-0.057 1.003605,-0.016 0.402004,0.031 0.940273,0.063 1.196146,0.07 0.255872,0.01 0.967899,0.093 1.582278,0.1911 0.614382,0.098 1.221054,0.1674 1.348166,0.1546 0.127109,-0.013 0.322116,-0.01 0.433351,0.01 l 0.20224,0.03 0.086,-0.2703 c 0.0473,-0.1486 0.07755,-0.3795 0.06722,-0.5131 -0.01034,-0.1336 -0.0087,-0.2672 0.0036,-0.2969 0.02811,-0.068 -0.05458,-0.515 -0.128115,-0.693 -0.03042,-0.073 -0.217607,-0.2232 -0.415972,-0.3325 -0.424749,-0.2341 -1.303461,-0.4331 -2.343888,-0.5307 l -0.655343,-0.062 -0.439252,0.2773 c -0.641593,0.405 -1.20634,0.6835 -1.622673,0.8004 -0.129264,0.036 -0.242789,0.085 -0.252277,0.1075 -0.0095,0.023 -0.05283,0.036 -0.09632,0.029 -0.04349,-0.01 -0.197176,0.035 -0.341534,0.092 -0.144355,0.057 -0.296704,0.099 -0.338555,0.092 -0.04185,-0.01 -0.173087,0.023 -0.291639,0.066 -0.118547,0.043 -0.316081,0.08 -0.438961,0.083 -0.12288,0 -0.328025,0.046 -0.455878,0.098 -0.127858,0.051 -0.308211,0.1003 -0.400786,0.109 -0.09258,0.01 -0.245689,0.054 -0.340248,0.1013 -0.09456,0.047 -0.212624,0.079 -0.262369,0.072 -0.04974,-0.01 -0.294994,0.01 -0.545007,0.03 -0.500672,0.049 -1.016929,-0.011 -1.340697,-0.1561 -0.231894,-0.1037 -0.623935,-0.097 -1.106211,0.018 -0.894064,0.2142 -1.483775,0.2423 -1.958448,0.093 -0.22395,-0.07 -0.272747,-0.065 -0.566875,0.065 -0.177007,0.078 -0.33956,0.1392 -0.361229,0.1366 -0.02167,0 -0.11779,0.034 -0.213604,0.081 -0.09581,0.047 -0.202655,0.082 -0.237425,0.078 -0.03477,0 -0.174861,0.039 -0.31131,0.098 -0.13645,0.059 -0.278601,0.1016 -0.315891,0.096 -0.03729,-0.01 -0.179595,0.031 -0.316235,0.081 -0.136639,0.05 -0.330681,0.1093 -0.431204,0.1308 -0.100522,0.021 -0.373037,0.079 -0.605589,0.1268 -0.232551,0.048 -0.454986,0.104 -0.494301,0.1236 -0.03931,0.02 -0.147491,0.039 -0.240392,0.042 -0.188687,0.01 -0.9640246,0.1335 -1.4183506,0.2307 -0.163214,0.035 -0.364178,0.053 -0.446587,0.04 -0.08241,-0.013 -0.199789,-0.01 -0.260846,0.013 -0.289685,0.093 -0.573711,0.1474 -0.684777,0.1301 -0.0673,-0.01 -0.307445,0.01 -0.533662,0.038 -0.226217,0.032 -0.474278,0.059 -0.551247,0.061 -0.496795,0.013 -0.7863892,0.049 -0.9429995,0.1165 -0.098617,0.043 -0.2056867,0.074 -0.2379327,0.069 -0.032246,-0.01 -0.087344,0.026 -0.1224393,0.068 -0.035097,0.042 -0.1007352,0.071 -0.1458642,0.064 -0.04513,-0.01 -0.2115118,0.025 -0.369738,0.071 -0.3427376,0.1001 -0.8612167,0.065 -1.2555019,-0.085 -0.4209192,-0.16 -1.7365967,-0.4776 -1.9088525,-0.4608 -0.1366171,0.013 -0.168472,0.045 -0.2952245,0.2976 -0.1361909,0.2708 -0.1371718,0.2918 -0.023653,0.504 0.2068259,0.3866 0.2972,0.5102 0.3830237,0.5236 0.045962,0.01 0.1530875,0.078 0.2380556,0.1573 0.3851208,0.3599 1.7906632,0.6985 3.0263167,0.7292 z m 12.7051778,-0.4547 c 0.200292,-0.042 0.493946,-0.1024 0.652563,-0.1336 0.158616,-0.031 0.309368,-0.076 0.335004,-0.099 0.02564,-0.023 0.104918,-0.033 0.17618,-0.022 0.07126,0.011 0.215654,-0.01 0.320867,-0.04 0.187487,-0.059 0.795165,-0.1177 1.580626,-0.1526 0.733093,-0.033 2.279625,0.087 4.132044,0.3196 1.013396,0.1272 2.138881,0.2379 2.501078,0.2459 0.362198,0.01 0.855894,0.019 1.097096,0.026 0.390094,0.01 0.592056,0 1.324782,-0.08 0.298169,-0.031 0.932773,-0.2264 0.962321,-0.2958 0.01455,-0.034 0.06919,-0.071 0.121367,-0.082 0.05218,-0.011 0.09116,-0.043 0.08662,-0.071 -0.0082,-0.051 -0.250752,-0.1183 -1.494858,-0.4145 -0.360415,-0.086 -0.855594,-0.214 -1.100388,-0.2848 -0.244793,-0.071 -0.678906,-0.196 -0.96469,-0.2781 -0.648185,-0.1864 -2.742504,-0.5062 -3.43768,-0.525 -1.439877,-0.039 -1.54283,-0.035 -1.993415,0.082 -0.166487,0.043 -0.344601,0.072 -0.395816,0.064 -0.05122,-0.01 -0.222666,0.017 -0.381,0.057 -0.158334,0.039 -0.321167,0.066 -0.361856,0.06 -0.04069,-0.01 -0.22069,0.031 -0.400007,0.083 -0.179322,0.052 -0.390502,0.084 -0.469296,0.072 -0.07879,-0.012 -0.165796,0 -0.193339,0.023 -0.02755,0.025 -0.246788,0.084 -0.487208,0.132 -0.24042,0.048 -0.520673,0.1079 -0.62279,0.1338 -0.102113,0.026 -0.336553,0.08 -0.520976,0.1211 -0.184424,0.041 -0.471153,0.1162 -0.637176,0.1676 -0.166025,0.051 -0.331531,0.089 -0.367792,0.083 -0.03626,-0.01 -0.172256,0.035 -0.30221,0.091 -0.129953,0.056 -0.28429,0.1035 -0.342969,0.106 -0.157062,0.01 -0.205003,0.1031 -0.100066,0.201 0.05054,0.047 0.09252,0.1656 0.09327,0.2631 l 0.0014,0.1774 0.41208,0.024 c 0.226645,0.013 0.575958,-0.011 0.776253,-0.053 z m -1.693207,-4.0653 c 0.160423,-0.078 1.351341,-0.2676 1.600912,-0.2547 0.149107,0.01 0.417427,0.07 0.596262,0.1391 0.277498,0.1069 0.398775,0.1232 0.827374,0.1113 0.309406,-0.01 0.614408,-0.055 0.794441,-0.1204 l 0.292226,-0.1067 0.139011,-0.3382 c 0.164456,-0.4002 0.175322,-0.7499 0.02964,-0.9536 -0.05545,-0.078 -0.116971,-0.1634 -0.136714,-0.1908 -0.186521,-0.2583 -0.842842,-0.6294 -1.527942,-0.864 -0.18879,-0.065 -0.191898,-0.063 -0.387713,0.1665 -0.108568,0.1274 -0.27369,0.3691 -0.366938,0.537 -0.17573,0.3164 -0.387093,0.4831 -0.575439,0.4537 -0.04889,-0.01 -0.161944,0.034 -0.251222,0.091 -0.248906,0.1613 -0.527497,0.318 -0.990764,0.5574 -0.232598,0.1202 -0.49766,0.2665 -0.589025,0.3251 -0.160316,0.1028 -0.162514,0.1071 -0.06293,0.1226 0.05676,0.01 0.09892,0.055 0.0937,0.1016 -0.0052,0.047 -0.01378,0.1244 -0.01902,0.1719 -0.0075,0.068 0.04211,0.086 0.227608,0.086 0.130427,0 0.26836,-0.016 0.30652,-0.035 z m 13.825208,1.6652 c 0.66367,0.021 1.169428,0 2.195996,-0.099 0.752416,-0.071 1.068097,-0.1188 1.123786,-0.1691 0.02889,-0.026 0.130208,-0.035 0.225159,-0.021 0.09495,0.015 0.217019,-0.01 0.271262,-0.045 0.05425,-0.039 0.131194,-0.067 0.170999,-0.06 0.0398,0.01 0.122234,0 0.183187,-0.024 0.06095,-0.019 0.324652,-0.1002 0.586004,-0.1796 0.261354,-0.079 0.551808,-0.1735 0.645459,-0.2091 0.386824,-0.1475 0.703178,-0.2907 0.80435,-0.3641 0.05917,-0.043 0.137314,-0.074 0.173671,-0.068 0.07487,0.012 0.178636,-0.099 0.246617,-0.263 0.03697,-0.089 0.02018,-0.1074 -0.08586,-0.093 -0.07249,0.01 -0.266687,0.012 -0.43155,0.01 -0.164863,-0.01 -0.424047,0.03 -0.575966,0.082 -0.151915,0.052 -0.320816,0.087 -0.375344,0.078 -0.05452,-0.01 -0.120558,0 -0.146744,0.028 -0.02619,0.024 -0.217222,0.075 -0.424511,0.1144 -0.207281,0.039 -0.512181,0.097 -0.677549,0.1286 -0.508343,0.097 -1.09648,0.1624 -1.625894,0.1813 -0.689287,0.025 -1.923342,-0.1247 -2.55232,-0.3086 -0.279909,-0.082 -0.526121,-0.1381 -0.547147,-0.125 -0.02103,0.013 -0.03266,0.1892 -0.02586,0.3914 0.0068,0.2021 -0.01602,0.5148 -0.0507,0.6948 -0.05729,0.2975 -0.05119,0.3262 0.06685,0.3148 0.07145,-0.01 0.443195,0 0.826106,0.01 z m -8.371145,-2.1501 c 0.147618,-0.014 0.276099,-0.045 0.285517,-0.067 0.0094,-0.023 0.150572,-0.078 0.313688,-0.1221 0.163116,-0.044 0.42514,-0.128 0.58228,-0.1857 0.305614,-0.1121 1.359221,-0.7236 1.39485,-0.8095 0.01177,-0.028 0.08748,-0.095 0.168235,-0.1485 0.164868,-0.1087 0.473845,-0.4713 0.624338,-0.7327 l 0.09957,-0.1729 -0.408156,-0.065 c -0.224489,-0.036 -0.674366,-0.1448 -0.999733,-0.2416 -1.176948,-0.3505 -2.503795,-0.4551 -3.264934,-0.2573 -0.166491,0.043 -0.330456,0.074 -0.364366,0.069 -0.03391,-0.01 -0.180628,0.025 -0.326052,0.067 -0.14542,0.042 -0.332212,0.091 -0.415085,0.1078 -0.08288,0.017 -0.162184,0.059 -0.176238,0.093 -0.01405,0.034 0.01291,0.053 0.05991,0.044 0.135183,-0.029 1.133217,0.4182 1.102099,0.4933 -0.0097,0.023 0.03761,0.051 0.105147,0.062 0.06754,0.01 0.183633,0.094 0.257996,0.1852 0.07436,0.091 0.15252,0.1687 0.173686,0.172 0.02117,0 0.105563,0.1535 0.18755,0.3337 0.151121,0.3322 0.162566,0.8487 0.0261,1.1779 -0.05621,0.1356 -0.05292,0.1378 0.123733,0.082 0.09981,-0.032 0.302248,-0.069 0.44987,-0.083 z m -13.7932306,-3.7809 c 0.01004,-0.024 0.05318,-0.039 0.09585,-0.032 0.04268,0.01 0.127151,-0.032 0.187724,-0.087 0.06057,-0.054 0.138288,-0.094 0.172701,-0.089 0.03441,0.01 0.113681,-0.033 0.176151,-0.084 0.06247,-0.052 0.227094,-0.1193 0.365832,-0.1504 0.138738,-0.031 0.279478,-0.089 0.312756,-0.1296 0.03328,-0.04 0.09566,-0.068 0.138629,-0.061 0.04297,0.01 0.231472,-0.029 0.418897,-0.08 0.187425,-0.051 0.371606,-0.087 0.4092906,-0.082 0.03769,0.01 0.265812,-0.024 0.506947,-0.066 0.241136,-0.042 0.518111,-0.064 0.615499,-0.049 0.09739,0.015 0.396874,0.023 0.665523,0.018 0.902443,-0.017 2.766322,0.2874 2.751481,0.4494 -0.0032,0.035 0.03535,0.07 0.08571,0.078 0.05036,0.01 0.209007,0.086 0.352547,0.1738 0.143541,0.088 0.447513,0.2042 0.675494,0.2588 l 0.41451,0.099 0.06346,-0.419 c 0.0349,-0.2304 0.06527,-0.5361 0.06749,-0.6793 0.0022,-0.1432 0.0064,-0.3333 0.0094,-0.4224 0.0051,-0.1542 -0.0074,-0.1624 -0.255613,-0.1665 -0.143522,0 -0.417664,0.01 -0.609204,0.025 -0.191541,0.016 -0.531902,0.025 -0.75636,0.021 -0.224457,0 -0.651051,0.01 -0.947986,0.025 -0.296936,0.018 -0.606677,0.023 -0.688313,0.011 -0.08165,-0.012 -0.469374,-0.01 -0.861637,0.01 -0.392263,0.016 -0.946231,0.011 -1.23104,-0.013 -0.28481,-0.024 -0.617638,-0.032 -0.739619,-0.019 -0.121982,0.013 -0.3639976,0.036 -0.5378166,0.051 -0.508454,0.044 -0.780879,0.1533 -1.313383,0.525 -0.1762,0.1231 -0.661858,0.7626 -0.754134,0.9931 -0.04817,0.1204 -0.04636,0.1211 0.07077,0.03 0.06611,-0.052 0.128423,-0.1136 0.138468,-0.1379 z m 9.2061116,0.1346 c 0.126498,-0.04 0.436431,-0.044 0.846747,-0.012 0.355967,0.028 0.776562,0.054 0.934659,0.058 0.180928,0 0.303887,0.034 0.331821,0.078 0.0332,0.053 0.106536,0.052 0.291098,-0.01 0.13569,-0.042 0.277814,-0.072 0.315819,-0.066 0.03801,0.01 0.175068,-0.022 0.304574,-0.061 0.129505,-0.04 0.509856,-0.103 0.845222,-0.1405 0.549256,-0.061 0.713346,-0.054 1.653724,0.072 1.238677,0.1657 2.955712,0.6111 3.630678,0.9419 0.552997,0.271 0.744904,0.317 2.063606,0.4952 1.342599,0.1814 1.456256,0.19 2.284024,0.1728 0.245811,-0.01 0.570676,-0.01 0.721931,0 0.151256,0 0.493633,-0.012 0.760847,-0.032 0.26721,-0.02 0.781409,-0.058 1.142661,-0.084 0.361253,-0.026 0.831881,-0.07 1.045843,-0.097 0.21396,-0.027 0.417572,-0.045 0.452476,-0.039 0.06091,0.01 0.692614,-0.1331 0.9344,-0.2109 0.494517,-0.1591 0.625213,-0.2126 0.909802,-0.3723 0.27211,-0.1528 0.304754,-0.1836 0.210072,-0.1983 -0.06165,-0.01 -0.136053,0 -0.165337,0.031 -0.02928,0.026 -0.162388,0.058 -0.295789,0.071 -0.133405,0.013 -0.454086,0.052 -0.712622,0.088 -0.583166,0.081 -1.250774,0.082 -1.815724,0 -0.482386,-0.067 -1.139386,-0.2884 -1.318493,-0.4444 -0.171393,-0.1492 -1.013643,-0.2783 -2.375109,-0.3641 -1.480372,-0.093 -2.516067,-0.281 -2.929766,-0.531 -0.286557,-0.1731 -0.51781,-0.204 -0.702466,-0.094 -0.09442,0.056 -1.008427,0.2502 -1.259389,0.2672 -0.07834,0.01 -0.35141,0.033 -0.606813,0.061 -0.411505,0.045 -0.609618,0.029 -1.740468,-0.1436 -1.140778,-0.1742 -1.323216,-0.2158 -1.720381,-0.3923 -0.244354,-0.1087 -0.55286,-0.2362 -0.68557,-0.2835 -0.132706,-0.047 -0.34756,-0.1602 -0.477449,-0.2511 -0.205337,-0.1435 -0.30226,-0.1713 -0.742469,-0.2129 -0.278467,-0.026 -0.5864,-0.035 -0.684292,-0.019 -0.172888,0.028 -0.624875,0.038 -1.27103,0.028 l -0.315821,0 0.01024,0.3205 c 0.01224,0.3831 -0.03735,0.9177 -0.112328,1.211 -0.06117,0.2392 -0.04042,0.2534 0.241072,0.1647 z m -5.169686,-2.4568 c 0.425969,0 0.989086,0 1.251372,-0.013 0.262286,-0.01 0.639142,-0.015 0.837459,-0.016 0.198317,0 0.653469,-0.017 1.011449,-0.035 0.357981,-0.019 0.792008,-0.028 0.964506,-0.022 0.334251,0.012 0.438668,-0.053 0.224454,-0.1407 -0.152798,-0.062 -0.442098,-0.2035 -0.633507,-0.3088 -0.19105,-0.1051 -1.355198,-0.4331 -1.767921,-0.4981 -0.309339,-0.049 -0.382468,-0.039 -0.69529,0.094 -0.192273,0.082 -0.382349,0.1434 -0.422392,0.1371 -0.04004,-0.01 -0.08113,0.01 -0.09131,0.033 -0.017,0.041 -0.134618,0.084 -0.979072,0.3578 -0.158359,0.051 -0.331732,0.1089 -0.385273,0.1278 -0.05354,0.019 -0.253687,0.081 -0.444769,0.1377 l -0.347423,0.1033 0.351616,0.02 c 0.193389,0.011 0.700136,0.021 1.126105,0.023 z m -2.7497936,-0.7148 c 0.229667,-0.04 0.562437,-0.1097 0.739488,-0.1556 0.177052,-0.046 0.3361486,-0.081 0.3535496,-0.078 0.07079,0.011 0.957416,-0.2549 1.01087,-0.3032 0.03171,-0.029 0.09294,-0.047 0.136081,-0.04 0.04314,0.01 0.180563,-0.037 0.305389,-0.097 0.124825,-0.06 0.243251,-0.107 0.263167,-0.1039 0.06991,0.011 0.437459,-0.1827 0.430379,-0.2266 -0.0039,-0.024 0.02929,-0.027 0.07384,-0.01 0.04455,0.022 0.146559,0 0.226687,-0.046 0.163966,-0.095 0.723101,-0.2817 0.89921,-0.2994 0.06357,-0.01 0.264329,-0.04 0.44614,-0.074 0.569851,-0.1079 1.597783,-0.07 2.416221,0.09 0.400263,0.078 0.761776,0.1668 0.803364,0.1973 0.06798,0.05 0.0822,0.031 0.140805,-0.1876 0.03586,-0.1337 0.06226,-0.3871 0.05868,-0.5631 -0.0079,-0.3896 -0.125221,-1.0633 -0.1868,-1.0728 -0.02463,0 -0.02962,-0.044 -0.0111,-0.088 0.01852,-0.045 -4.71e-4,-0.1191 -0.04217,-0.1655 -0.04171,-0.046 -0.06429,-0.1121 -0.05017,-0.1461 0.01412,-0.034 0.0025,-0.099 -0.02585,-0.1445 -0.04233,-0.068 -0.09021,-0.072 -0.268268,-0.021 -0.119209,0.034 -0.227069,0.087 -0.239687,0.1171 -0.01262,0.03 -0.08147,0.046 -0.152999,0.035 -0.07153,-0.011 -0.139786,0 -0.15168,0.032 -0.01189,0.029 -0.153764,0.1004 -0.315266,0.1593 -0.161502,0.059 -0.302835,0.1294 -0.314072,0.1565 -0.01124,0.027 -0.05288,0.044 -0.09254,0.038 -0.03966,-0.01 -0.260223,0.07 -0.490145,0.1701 -0.229922,0.1 -0.467842,0.1995 -0.52871,0.2219 -0.06087,0.023 -0.206888,0.084 -0.324488,0.1379 -0.117599,0.053 -0.235837,0.094 -0.26275,0.09 -0.02691,0 -0.111625,0.035 -0.188248,0.087 -0.07662,0.052 -0.162738,0.09 -0.191368,0.086 -0.02863,0 -0.154184,0.041 -0.279009,0.1014 -0.124826,0.06 -0.239768,0.1077 -0.255427,0.1052 -0.03855,-0.01 -0.663363,0.2582 -1.046701,0.4426 -0.17122,0.082 -0.330528,0.1485 -0.35402,0.147 -0.04065,0 -0.130613,0.039 -0.355174,0.1659 -0.0554,0.031 -0.130159,0.052 -0.166124,0.047 -0.03596,-0.01 -0.131868,0.026 -0.213117,0.07 -0.08125,0.044 -0.357155,0.1348 -0.613122,0.2012 -0.2559666,0.066 -0.5914476,0.1541 -0.7455126,0.1951 -0.154065,0.041 -0.381047,0.077 -0.504403,0.081 -0.123357,0 -0.38033,0.025 -0.571052,0.047 -0.190722,0.022 -0.419097,0.029 -0.507501,0.015 -0.146813,-0.023 -0.701271,0.1566 -0.73498,0.2379 -0.0078,0.019 0.09255,0.092 0.223105,0.1632 0.349013,0.1894 1.12033,0.274 1.65548,0.1816 z m 8.0816606,-1.3819 c 0.0288,-0.063 0.04647,-0.074 0.04507,-0.028 -0.0013,0.042 -0.02259,0.088 -0.04738,0.1038 -0.02479,0.015 -0.02375,-0.019 0.0023,-0.076 z m 7.267742,3.2326 c 0.163003,-0.026 0.34784,-0.039 0.410748,-0.03 0.126397,0.019 1.105271,-0.1913 1.338841,-0.2876 0.08138,-0.034 0.175842,-0.057 0.209915,-0.051 0.03407,0.01 0.173957,-0.044 0.310853,-0.1106 0.136902,-0.066 0.275264,-0.1086 0.307472,-0.094 0.03221,0.014 0.06745,0 0.0783,-0.022 0.01086,-0.026 0.15081,-0.1083 0.311,-0.1824 0.757773,-0.3507 1.460239,-0.8672 1.602698,-1.1783 0.07342,-0.1604 0.06797,-0.169 -0.122062,-0.1922 -0.109404,-0.013 -0.254937,0.01 -0.323408,0.045 -0.06846,0.038 -0.237061,0.085 -0.374652,0.1037 -0.137596,0.019 -0.289766,0.063 -0.338156,0.098 -0.04839,0.035 -0.133478,0.057 -0.189081,0.048 -0.0556,-0.01 -0.164625,0.01 -0.242275,0.033 -0.214369,0.074 -0.549922,0.1315 -0.666647,0.1143 -0.05731,-0.01 -0.304099,0.016 -0.548411,0.054 -0.608931,0.095 -2.299527,0.036 -3.119656,-0.1077 -0.616847,-0.1084 -0.903509,-0.1807 -1.708263,-0.4311 -0.358244,-0.1114 -0.392303,-0.1124 -0.656912,-0.019 -0.15349,0.054 -0.329311,0.091 -0.390714,0.082 -0.06141,-0.01 -0.233786,0.016 -0.383077,0.056 -0.149286,0.04 -0.342004,0.062 -0.428261,0.05 -0.08626,-0.012 -0.364141,0 -0.617525,0.02 -0.253384,0.023 -0.718219,0.032 -1.032972,0.02 -0.705531,-0.027 -0.705149,-0.027 -0.842481,-0.1053 -0.17585,-0.1 -0.07524,0.036 0.133078,0.18 0.430479,0.2967 0.523595,0.3736 0.505508,0.4172 -0.01053,0.026 0.02572,0.053 0.08056,0.062 0.05484,0.01 0.09711,0.044 0.09394,0.078 -0.0063,0.069 0.394763,0.082 1.468263,0.05 0.593507,-0.018 0.72504,0.01 0.915806,0.181 0.05593,0.051 0.136664,0.098 0.179405,0.1048 0.04275,0.01 0.229225,0.098 0.414407,0.2028 0.185177,0.1046 0.510822,0.2512 0.723658,0.3256 0.212832,0.074 0.484624,0.1703 0.603983,0.213 0.38336,0.1373 1.965136,0.3252 2.29612,0.2728 z m 10.295808,1.1883 c 0.114483,0 0.257236,-0.011 0.317222,-0.03 0.05999,-0.019 0.307754,-0.049 0.550597,-0.065 0.242837,-0.016 0.450497,-0.051 0.461463,-0.078 0.01098,-0.027 -0.01519,-0.054 -0.05809,-0.06 -0.04292,-0.01 -0.06787,-0.037 -0.05545,-0.067 0.01242,-0.03 -0.02425,-0.062 -0.08147,-0.071 -0.05722,-0.01 -0.0962,-0.035 -0.0866,-0.058 0.0096,-0.023 -0.04227,-0.093 -0.11526,-0.1562 -0.6567,-0.5646 -0.809178,-0.6979 -0.965519,-0.8439 -0.387017,-0.3617 -1.95085,-1.6891 -1.998603,-1.6965 -0.03477,-0.01 -0.05429,-0.031 -0.04338,-0.058 0.01092,-0.026 -0.04362,-0.09 -0.121179,-0.1419 -0.07756,-0.052 -0.317665,-0.239 -0.533579,-0.4162 -0.42096,-0.3456 -0.67407,-0.5479 -1.040009,-0.8313 -0.126821,-0.098 -0.339013,-0.264 -0.471532,-0.3685 -0.132519,-0.1045 -0.271941,-0.1948 -0.30983,-0.2007 -0.03789,-0.01 -0.125452,-0.06 -0.194583,-0.1195 -0.242274,-0.2097 -0.931917,-0.5202 -1.900726,-0.8556 -0.611904,-0.2119 -0.908133,-0.2728 -3.036641,-0.6241 -1.473469,-0.2431 -2.553162,-0.3962 -2.877055,-0.4078 -1.3094,-0.047 -1.981802,-0.053 -2.455776,-0.021 -0.903488,0.06 -0.837616,0.052 -1.663853,0.206 -0.08254,0.016 -0.219511,0.062 -0.304374,0.1035 l -0.154296,0.075 0.106714,0.2776 c 0.05869,0.1526 0.118165,0.3511 0.132166,0.441 0.014,0.09 0.04381,0.1662 0.06626,0.1698 0.02244,0 0.02906,0.035 0.01472,0.069 -0.01435,0.035 -8.59e-4,0.1525 0.02996,0.2618 0.03083,0.1093 0.0458,0.2235 0.03326,0.2538 -0.01254,0.03 -0.01199,0.1429 0.0012,0.2505 0.0132,0.1075 -0.0071,0.3806 -0.04503,0.6068 -0.06519,0.3884 -0.06118,0.4111 0.07222,0.4074 0.07769,0 0.380335,-0.01 0.672548,-0.016 0.292213,-0.01 0.715639,-0.036 0.940944,-0.065 0.225309,-0.029 0.485593,-0.056 0.578405,-0.059 0.09282,0 0.187166,-0.021 0.209668,-0.038 0.106171,-0.083 0.462442,-0.2082 0.604987,-0.2129 0.08742,0 0.23533,0.031 0.328699,0.076 0.09337,0.044 0.637148,0.1858 1.208403,0.3141 1.26132,0.2834 2.644933,0.4218 3.367455,0.337 0.246459,-0.029 0.500584,-0.045 0.564717,-0.035 0.06413,0.01 0.188248,0 0.275804,-0.032 0.08755,-0.027 0.314519,-0.073 0.504362,-0.102 0.353975,-0.053 0.848204,-0.2013 1.06808,-0.3197 0.09426,-0.051 0.282431,-0.043 0.789848,0.032 0.635217,0.094 0.674229,0.1071 0.84127,0.2828 0.210634,0.2216 0.285709,0.4729 0.226808,0.7592 -0.04956,0.241 -0.299821,0.6632 -0.433002,0.7306 -0.04887,0.025 -0.122847,0.092 -0.164395,0.1491 -0.06524,0.09 -0.04964,0.1098 0.114375,0.1449 0.295617,0.063 1.30962,0.4499 1.640518,0.6256 0.164043,0.087 0.34483,0.1657 0.401753,0.1746 0.143011,0.022 0.62779,0.3597 0.68185,0.4746 0.02436,0.052 0.03342,0.1204 0.02012,0.1525 -0.0133,0.032 0.05833,0.071 0.159188,0.087 0.100856,0.016 0.295705,0.1017 0.432993,0.1913 0.405192,0.2641 0.89558,0.3793 1.691658,0.3973 z m -4.647283,-0.9196 0.176467,-0.025 -0.16769,-0.031 c -0.09223,-0.017 -0.369519,-0.1 -0.616195,-0.1836 -0.521368,-0.1772 -1.07521,-0.3106 -1.094662,-0.2637 -0.0074,0.018 -0.102259,0.065 -0.210734,0.1052 -0.375386,0.1382 -0.233442,0.195 0.779946,0.3123 0.526021,0.061 1.035814,0.1 1.132868,0.086 z m -19.817749,-7.7721 c 0.191365,-0.021 0.554597,-0.067 0.807184,-0.1033 0.252588,-0.036 0.524404,-0.055 0.604039,-0.043 0.07963,0.012 0.304,0 0.498593,-0.036 0.194593,-0.032 0.464316,-0.056 0.599385,-0.054 0.13507,0 0.522436,0 0.860815,-0.011 0.685269,-0.016 2.156866,0.046 2.55793,0.1089 0.844107,0.1312 2.138414,0.6532 2.064139,0.8323 -0.02224,0.054 0.0081,0.074 0.09747,0.066 0.07139,-0.01 0.321783,-0.03 0.55644,-0.052 0.41784,-0.038 0.425497,-0.041 0.371186,-0.1568 -0.0305,-0.065 -0.06005,-0.1788 -0.06565,-0.2534 -0.0056,-0.075 -0.01598,-0.2093 -0.02305,-0.2994 -0.01832,-0.2332 0.07458,-0.9416 0.146148,-1.1142 0.03327,-0.08 0.05164,-0.1473 0.04083,-0.149 -0.06464,-0.01 -0.520024,0.1231 -0.661111,0.1933 -0.09217,0.046 -0.243425,0.072 -0.336112,0.057 -0.09269,-0.014 -0.272745,-0.01 -0.400136,0.015 -0.127387,0.023 -0.419858,0.044 -0.649935,0.048 -0.230076,0 -0.630158,0.024 -0.88907,0.045 -0.258912,0.021 -0.521233,0.03 -0.582935,0.021 -0.0617,-0.01 -0.386602,0.01 -0.722,0.034 -0.605884,0.051 -1.064678,0.084 -1.663431,0.1209 -0.171938,0.011 -0.379177,0.03 -0.460531,0.042 -0.08135,0.013 -0.328507,0.038 -0.549229,0.056 -0.896997,0.074 -1.887566,0.1997 -1.985159,0.253 -0.0374,0.021 -0.132741,0.027 -0.21186,0.015 -0.156416,-0.024 -0.6304196,0.2068 -0.6827316,0.333 -0.03539,0.085 0.122076,0.093 0.6787896,0.033 z m 10.812818,0.6366 c 0.425997,0 1.265985,0.049 1.866635,0.1063 1.130162,0.1081 3.451617,0.4495 3.722032,0.5475 0.08469,0.031 0.527746,0.1382 0.984579,0.239 0.754006,0.1663 0.856772,0.1774 1.114361,0.1209 0.156064,-0.034 0.482822,-0.063 0.726116,-0.064 0.243302,0 0.655173,-0.031 0.915278,-0.066 0.260102,-0.035 0.53459,-0.055 0.609967,-0.043 0.07538,0.012 0.158298,0 0.184271,-0.021 0.02597,-0.024 0.171905,-0.056 0.324297,-0.073 0.152394,-0.017 0.417183,-0.068 0.588425,-0.1134 0.17124,-0.046 0.380979,-0.1008 0.466089,-0.1224 0.202656,-0.051 0.494608,-0.1584 0.761279,-0.2788 0.118077,-0.053 0.237881,-0.093 0.266224,-0.089 0.02835,0 0.131889,-0.044 0.230102,-0.1081 0.09821,-0.064 0.196997,-0.1137 0.219525,-0.1107 0.06862,0.01 0.786505,-0.4439 0.923057,-0.5823 0.157846,-0.1601 0.182544,-0.1446 -0.575412,-0.3606 -0.379299,-0.108 -1.234731,-0.2685 -2.363866,-0.4433 -1.46434,-0.2267 -1.875251,-0.2722 -2.382951,-0.2637 -0.33742,0.01 -0.784929,0 -0.99446,-0.01 -0.209537,-0.01 -0.636193,0 -0.948127,0.016 -1.625515,0.092 -2.40348,0.04 -4.510685,-0.3006 -1.830577,-0.2961 -1.898522,-0.3031 -2.379354,-0.2464 -0.836754,0.099 -0.84457,0.1048 -0.939729,0.7305 -0.02606,0.1713 -0.07016,0.3672 -0.09801,0.4352 -0.02782,0.068 -0.03234,0.23 -0.01,0.3598 0.02235,0.1297 0.03019,0.2611 0.01742,0.2919 -0.01277,0.031 0.0097,0.1414 0.04985,0.2457 0.08252,0.2141 -0.02433,0.1968 1.233073,0.2 z"
     id="path4133"
     inkscape:connector-curvature="0"
     sodipodi:nodetypes="cssssssssssscscsscssscssssssscscsssssscsssscssssssssssssssssssssscscsssssssssssssssssssscssssssssssssssssscsssssssscssssssscssscsssssssssssssssssscscssscsssssssssssssssssssscccccsssccscccsscccsccsssssccccssscscccscccccccssssssssssssssccscsscscsscccccscsscsccsscsccsccscccsscccsscscsssscssccsssssssscsscsssccscsscccscccccccsssscscccssscsscssssccccssssssccsscscsccssscscsscssssssssssscscsscssssscssssscsccsscsscccsscssscsscsssssccssccssssssssscssscsscsssscsssssssssscsssssssssssssssccsssccssssssccsccsscsssscscscsscsscsscscscsssssssssssssssssssssscccssssssssscccssssscscsscssssssssscscccscsscccsssssssssssscssscscscsscccsssscsssscccssscssccscsssccssccsscssssssscsscsscssssssscssssssscsssssssccsssccsssssssssscssscsssssssssssscssscsscsssssssscsssssscsssssssssssssssssssssssscscscssssssssssssssssssssscccccssssscscssccsccscsssscscsssssscsscssscccsssssscsccsscssssssssscccssccccsssssscsscssssssscssscssscsccsssssssssssscsssccccssssssssssssssssssssssscsssscccssssssssccsss" />
</svg>
