G04 #@! TF.GenerationSoftware,KiCad,Pcbnew,(5.0.0-rc2-dev-26-g0d794b2)*
G04 #@! TF.CreationDate,2018-07-01T21:26:53-07:00*
G04 #@! TF.ProjectId,FlightControlUnitBoard,466C69676874436F6E74726F6C556E69,rev?*
G04 #@! TF.SameCoordinates,Original*
G04 #@! TF.FileFunction,Other,Fab,Bot*
%FSLAX46Y46*%
G04 Gerber Fmt 4.6, Leading zero omitted, Abs format (unit mm)*
G04 Created by KiCad (PCBNEW (5.0.0-rc2-dev-26-g0d794b2)) date Sunday, July 01, 2018 at 09:26:53 PM*
%MOMM*%
%LPD*%
G01*
G04 APERTURE LIST*
%ADD10C,0.150000*%
%ADD11C,0.100000*%
G04 APERTURE END LIST*
D10*
X199690000Y-78505000D02*
X199090000Y-78505000D01*
X199390000Y-78405000D02*
X199690000Y-78105000D01*
X199090000Y-78105000D02*
X199390000Y-78405000D01*
X199690000Y-78105000D02*
X199090000Y-78105000D01*
X199990000Y-77105000D02*
X199990000Y-79105000D01*
X198790000Y-77105000D02*
X199990000Y-77105000D01*
X198790000Y-79105000D02*
X198790000Y-77105000D01*
X199990000Y-79105000D02*
X198790000Y-79105000D01*
D11*
X200150000Y-72800000D02*
X198900000Y-72800000D01*
X200150000Y-74800000D02*
X200150000Y-72800000D01*
X198900000Y-74800000D02*
X200150000Y-74800000D01*
X198900000Y-72800000D02*
X198900000Y-74800000D01*
X140970000Y-66040000D02*
X140970000Y-69850000D01*
X140970000Y-69850000D02*
X153670000Y-69850000D01*
X153670000Y-69850000D02*
X153670000Y-64770000D01*
X153670000Y-64770000D02*
X142240000Y-64770000D01*
X142240000Y-64770000D02*
X140970000Y-66040000D01*
X184150000Y-121285000D02*
X184150000Y-123190000D01*
X184150000Y-123190000D02*
X189230000Y-123190000D01*
X189230000Y-123190000D02*
X189230000Y-120650000D01*
X189230000Y-120650000D02*
X184785000Y-120650000D01*
X184785000Y-120650000D02*
X184150000Y-121285000D01*
X204470000Y-121285000D02*
X204470000Y-123190000D01*
X204470000Y-123190000D02*
X209550000Y-123190000D01*
X209550000Y-123190000D02*
X209550000Y-120650000D01*
X209550000Y-120650000D02*
X205105000Y-120650000D01*
X205105000Y-120650000D02*
X204470000Y-121285000D01*
X204470000Y-73025000D02*
X204470000Y-74930000D01*
X204470000Y-74930000D02*
X209550000Y-74930000D01*
X209550000Y-74930000D02*
X209550000Y-72390000D01*
X209550000Y-72390000D02*
X205105000Y-72390000D01*
X205105000Y-72390000D02*
X204470000Y-73025000D01*
D10*
X197500000Y-101300000D02*
X197500000Y-101900000D01*
X197400000Y-101600000D02*
X197100000Y-101300000D01*
X197100000Y-101900000D02*
X197400000Y-101600000D01*
X197100000Y-101300000D02*
X197100000Y-101900000D01*
X196100000Y-101000000D02*
X198100000Y-101000000D01*
X196100000Y-102200000D02*
X196100000Y-101000000D01*
X198100000Y-102200000D02*
X196100000Y-102200000D01*
X198100000Y-101000000D02*
X198100000Y-102200000D01*
D11*
X196750000Y-105025000D02*
X196750000Y-106275000D01*
X198750000Y-105025000D02*
X196750000Y-105025000D01*
X198750000Y-106275000D02*
X198750000Y-105025000D01*
X196750000Y-106275000D02*
X198750000Y-106275000D01*
D10*
X147653333Y-66762380D02*
X147653333Y-67476666D01*
X147700952Y-67619523D01*
X147796190Y-67714761D01*
X147939047Y-67762380D01*
X148034285Y-67762380D01*
X146653333Y-67762380D02*
X147224761Y-67762380D01*
X146939047Y-67762380D02*
X146939047Y-66762380D01*
X147034285Y-66905238D01*
X147129523Y-67000476D01*
X147224761Y-67048095D01*
X190647142Y-118181904D02*
X190694761Y-118134285D01*
X190742380Y-117991428D01*
X190742380Y-117896190D01*
X190694761Y-117753333D01*
X190599523Y-117658095D01*
X190504285Y-117610476D01*
X190313809Y-117562857D01*
X190170952Y-117562857D01*
X189980476Y-117610476D01*
X189885238Y-117658095D01*
X189790000Y-117753333D01*
X189742380Y-117896190D01*
X189742380Y-117991428D01*
X189790000Y-118134285D01*
X189837619Y-118181904D01*
X190742380Y-118753333D02*
X190694761Y-118658095D01*
X190647142Y-118610476D01*
X190551904Y-118562857D01*
X190266190Y-118562857D01*
X190170952Y-118610476D01*
X190123333Y-118658095D01*
X190075714Y-118753333D01*
X190075714Y-118896190D01*
X190123333Y-118991428D01*
X190170952Y-119039047D01*
X190266190Y-119086666D01*
X190551904Y-119086666D01*
X190647142Y-119039047D01*
X190694761Y-118991428D01*
X190742380Y-118896190D01*
X190742380Y-118753333D01*
X190075714Y-119515238D02*
X190742380Y-119515238D01*
X190170952Y-119515238D02*
X190123333Y-119562857D01*
X190075714Y-119658095D01*
X190075714Y-119800952D01*
X190123333Y-119896190D01*
X190218571Y-119943809D01*
X190742380Y-119943809D01*
X190075714Y-120420000D02*
X190742380Y-120420000D01*
X190170952Y-120420000D02*
X190123333Y-120467619D01*
X190075714Y-120562857D01*
X190075714Y-120705714D01*
X190123333Y-120800952D01*
X190218571Y-120848571D01*
X190742380Y-120848571D01*
X190837619Y-121086666D02*
X190837619Y-121848571D01*
X189742380Y-122277142D02*
X189742380Y-122372380D01*
X189790000Y-122467619D01*
X189837619Y-122515238D01*
X189932857Y-122562857D01*
X190123333Y-122610476D01*
X190361428Y-122610476D01*
X190551904Y-122562857D01*
X190647142Y-122515238D01*
X190694761Y-122467619D01*
X190742380Y-122372380D01*
X190742380Y-122277142D01*
X190694761Y-122181904D01*
X190647142Y-122134285D01*
X190551904Y-122086666D01*
X190361428Y-122039047D01*
X190123333Y-122039047D01*
X189932857Y-122086666D01*
X189837619Y-122134285D01*
X189790000Y-122181904D01*
X189742380Y-122277142D01*
X189837619Y-122991428D02*
X189790000Y-123039047D01*
X189742380Y-123134285D01*
X189742380Y-123372380D01*
X189790000Y-123467619D01*
X189837619Y-123515238D01*
X189932857Y-123562857D01*
X190028095Y-123562857D01*
X190170952Y-123515238D01*
X190742380Y-122943809D01*
X190742380Y-123562857D01*
X190742380Y-123896190D02*
X190075714Y-124420000D01*
X190075714Y-123896190D02*
X190742380Y-124420000D01*
X189742380Y-124991428D02*
X189742380Y-125086666D01*
X189790000Y-125181904D01*
X189837619Y-125229523D01*
X189932857Y-125277142D01*
X190123333Y-125324761D01*
X190361428Y-125324761D01*
X190551904Y-125277142D01*
X190647142Y-125229523D01*
X190694761Y-125181904D01*
X190742380Y-125086666D01*
X190742380Y-124991428D01*
X190694761Y-124896190D01*
X190647142Y-124848571D01*
X190551904Y-124800952D01*
X190361428Y-124753333D01*
X190123333Y-124753333D01*
X189932857Y-124800952D01*
X189837619Y-124848571D01*
X189790000Y-124896190D01*
X189742380Y-124991428D01*
X190742380Y-126277142D02*
X190742380Y-125705714D01*
X190742380Y-125991428D02*
X189742380Y-125991428D01*
X189885238Y-125896190D01*
X189980476Y-125800952D01*
X190028095Y-125705714D01*
X187023333Y-121372380D02*
X187023333Y-122086666D01*
X187070952Y-122229523D01*
X187166190Y-122324761D01*
X187309047Y-122372380D01*
X187404285Y-122372380D01*
X186499523Y-122372380D02*
X186309047Y-122372380D01*
X186213809Y-122324761D01*
X186166190Y-122277142D01*
X186070952Y-122134285D01*
X186023333Y-121943809D01*
X186023333Y-121562857D01*
X186070952Y-121467619D01*
X186118571Y-121420000D01*
X186213809Y-121372380D01*
X186404285Y-121372380D01*
X186499523Y-121420000D01*
X186547142Y-121467619D01*
X186594761Y-121562857D01*
X186594761Y-121800952D01*
X186547142Y-121896190D01*
X186499523Y-121943809D01*
X186404285Y-121991428D01*
X186213809Y-121991428D01*
X186118571Y-121943809D01*
X186070952Y-121896190D01*
X186023333Y-121800952D01*
X210967142Y-118181904D02*
X211014761Y-118134285D01*
X211062380Y-117991428D01*
X211062380Y-117896190D01*
X211014761Y-117753333D01*
X210919523Y-117658095D01*
X210824285Y-117610476D01*
X210633809Y-117562857D01*
X210490952Y-117562857D01*
X210300476Y-117610476D01*
X210205238Y-117658095D01*
X210110000Y-117753333D01*
X210062380Y-117896190D01*
X210062380Y-117991428D01*
X210110000Y-118134285D01*
X210157619Y-118181904D01*
X211062380Y-118753333D02*
X211014761Y-118658095D01*
X210967142Y-118610476D01*
X210871904Y-118562857D01*
X210586190Y-118562857D01*
X210490952Y-118610476D01*
X210443333Y-118658095D01*
X210395714Y-118753333D01*
X210395714Y-118896190D01*
X210443333Y-118991428D01*
X210490952Y-119039047D01*
X210586190Y-119086666D01*
X210871904Y-119086666D01*
X210967142Y-119039047D01*
X211014761Y-118991428D01*
X211062380Y-118896190D01*
X211062380Y-118753333D01*
X210395714Y-119515238D02*
X211062380Y-119515238D01*
X210490952Y-119515238D02*
X210443333Y-119562857D01*
X210395714Y-119658095D01*
X210395714Y-119800952D01*
X210443333Y-119896190D01*
X210538571Y-119943809D01*
X211062380Y-119943809D01*
X210395714Y-120420000D02*
X211062380Y-120420000D01*
X210490952Y-120420000D02*
X210443333Y-120467619D01*
X210395714Y-120562857D01*
X210395714Y-120705714D01*
X210443333Y-120800952D01*
X210538571Y-120848571D01*
X211062380Y-120848571D01*
X211157619Y-121086666D02*
X211157619Y-121848571D01*
X210062380Y-122277142D02*
X210062380Y-122372380D01*
X210110000Y-122467619D01*
X210157619Y-122515238D01*
X210252857Y-122562857D01*
X210443333Y-122610476D01*
X210681428Y-122610476D01*
X210871904Y-122562857D01*
X210967142Y-122515238D01*
X211014761Y-122467619D01*
X211062380Y-122372380D01*
X211062380Y-122277142D01*
X211014761Y-122181904D01*
X210967142Y-122134285D01*
X210871904Y-122086666D01*
X210681428Y-122039047D01*
X210443333Y-122039047D01*
X210252857Y-122086666D01*
X210157619Y-122134285D01*
X210110000Y-122181904D01*
X210062380Y-122277142D01*
X210157619Y-122991428D02*
X210110000Y-123039047D01*
X210062380Y-123134285D01*
X210062380Y-123372380D01*
X210110000Y-123467619D01*
X210157619Y-123515238D01*
X210252857Y-123562857D01*
X210348095Y-123562857D01*
X210490952Y-123515238D01*
X211062380Y-122943809D01*
X211062380Y-123562857D01*
X211062380Y-123896190D02*
X210395714Y-124420000D01*
X210395714Y-123896190D02*
X211062380Y-124420000D01*
X210062380Y-124991428D02*
X210062380Y-125086666D01*
X210110000Y-125181904D01*
X210157619Y-125229523D01*
X210252857Y-125277142D01*
X210443333Y-125324761D01*
X210681428Y-125324761D01*
X210871904Y-125277142D01*
X210967142Y-125229523D01*
X211014761Y-125181904D01*
X211062380Y-125086666D01*
X211062380Y-124991428D01*
X211014761Y-124896190D01*
X210967142Y-124848571D01*
X210871904Y-124800952D01*
X210681428Y-124753333D01*
X210443333Y-124753333D01*
X210252857Y-124800952D01*
X210157619Y-124848571D01*
X210110000Y-124896190D01*
X210062380Y-124991428D01*
X211062380Y-126277142D02*
X211062380Y-125705714D01*
X211062380Y-125991428D02*
X210062380Y-125991428D01*
X210205238Y-125896190D01*
X210300476Y-125800952D01*
X210348095Y-125705714D01*
X207343333Y-121372380D02*
X207343333Y-122086666D01*
X207390952Y-122229523D01*
X207486190Y-122324761D01*
X207629047Y-122372380D01*
X207724285Y-122372380D01*
X206724285Y-121800952D02*
X206819523Y-121753333D01*
X206867142Y-121705714D01*
X206914761Y-121610476D01*
X206914761Y-121562857D01*
X206867142Y-121467619D01*
X206819523Y-121420000D01*
X206724285Y-121372380D01*
X206533809Y-121372380D01*
X206438571Y-121420000D01*
X206390952Y-121467619D01*
X206343333Y-121562857D01*
X206343333Y-121610476D01*
X206390952Y-121705714D01*
X206438571Y-121753333D01*
X206533809Y-121800952D01*
X206724285Y-121800952D01*
X206819523Y-121848571D01*
X206867142Y-121896190D01*
X206914761Y-121991428D01*
X206914761Y-122181904D01*
X206867142Y-122277142D01*
X206819523Y-122324761D01*
X206724285Y-122372380D01*
X206533809Y-122372380D01*
X206438571Y-122324761D01*
X206390952Y-122277142D01*
X206343333Y-122181904D01*
X206343333Y-121991428D01*
X206390952Y-121896190D01*
X206438571Y-121848571D01*
X206533809Y-121800952D01*
X207343333Y-73112380D02*
X207343333Y-73826666D01*
X207390952Y-73969523D01*
X207486190Y-74064761D01*
X207629047Y-74112380D01*
X207724285Y-74112380D01*
X206962380Y-73112380D02*
X206295714Y-73112380D01*
X206724285Y-74112380D01*
M02*
