M48
;DRILL file {KiCad (5.0.0-rc2-dev-26-g0d794b2)} date Sunday, July 01, 2018 at 09:26:56 PM
;FORMAT={-:-/ absolute / metric / decimal}
FMAT,2
METRIC,TZ
T1C0.400
T2C1.000
%
G90
G05
M71
T1
X149.85Y-80.725
X149.86Y-83.82
X154.6Y-57.35
X157.15Y-57.325
X157.5Y-102.425
X159.525Y-57.35
X161.798Y-76.962
X161.798Y-78.168
X161.798Y-79.566
X161.862Y-97.409
X161.925Y-82.804
X161.925Y-84.201
X161.925Y-85.407
X161.925Y-94.742
X161.925Y-96.139
X161.988Y-100.965
X161.988Y-102.235
X161.988Y-103.378
X163.004Y-79.566
X163.068Y-76.898
X163.068Y-78.168
X163.068Y-97.409
X163.131Y-82.867
X163.131Y-84.201
X163.131Y-94.678
X163.131Y-96.075
X163.195Y-85.471
X163.322Y-102.235
X163.322Y-103.378
X163.385Y-100.901
X166.37Y-68.58
X170.115Y-63.435
X171.45Y-68.58
X172.725Y-63.55
X172.775Y-63.575
X173.9Y-68.65
X175.225Y-63.6
X175.3Y-63.6
X176.475Y-68.575
X177.725Y-63.425
X177.725Y-63.437
X181.229Y-110.998
X181.292Y-112.268
X182.308Y-110.934
X182.308Y-112.268
X183.642Y-112.331
X187.135Y-110.871
X187.325Y-112.331
X188.278Y-110.934
X188.531Y-112.331
X189.611Y-110.934
X189.611Y-112.331
X196.151Y-101.525
X196.8Y-105.65
X198.149Y-101.6
X198.7Y-105.65
X199.35Y-77.026
X199.39Y-79.154
X199.5Y-74.875
X199.525Y-72.85
X202.438Y-77.279
X202.438Y-78.422
X202.438Y-100.838
X202.438Y-101.981
X202.501Y-79.692
X202.501Y-82.995
X202.501Y-84.201
X202.501Y-85.471
X202.501Y-103.251
X202.565Y-94.678
X202.565Y-96.139
X202.692Y-97.472
X203.772Y-100.774
X203.772Y-101.981
X203.772Y-103.251
X203.835Y-94.615
X203.835Y-96.075
X203.835Y-97.409
X203.898Y-77.343
X203.898Y-78.422
X203.898Y-79.692
X203.898Y-82.931
X203.898Y-84.138
X203.898Y-85.407
X205.74Y-68.58
X207.01Y-96.52
T2
X142.24Y-66.04
X142.24Y-68.58
X144.78Y-66.04
X144.78Y-68.58
X147.32Y-66.04
X147.32Y-68.58
X149.86Y-66.04
X149.86Y-68.58
X152.4Y-66.04
X152.4Y-68.58
X205.74Y-73.66
X208.28Y-73.66
X185.42Y-121.92
X187.96Y-121.92
X205.74Y-121.92
X208.28Y-121.92
T0
M30
