G04 #@! TF.GenerationSoftware,KiCad,Pcbnew,(5.0.0-rc2-dev-26-g0d794b2)*
G04 #@! TF.CreationDate,2018-07-01T21:26:53-07:00*
G04 #@! TF.ProjectId,FlightControlUnitBoard,466C69676874436F6E74726F6C556E69,rev?*
G04 #@! TF.SameCoordinates,Original*
G04 #@! TF.FileFunction,Other,Fab,Top*
%FSLAX46Y46*%
G04 Gerber Fmt 4.6, Leading zero omitted, Abs format (unit mm)*
G04 Created by KiCad (PCBNEW (5.0.0-rc2-dev-26-g0d794b2)) date Sunday, July 01, 2018 at 09:26:53 PM*
%MOMM*%
%LPD*%
G01*
G04 APERTURE LIST*
%ADD10C,0.150000*%
%ADD11C,0.100000*%
G04 APERTURE END LIST*
D10*
X196800000Y-101225000D02*
X196800000Y-101825000D01*
X196900000Y-101525000D02*
X197200000Y-101225000D01*
X197200000Y-101825000D02*
X196900000Y-101525000D01*
X197200000Y-101225000D02*
X197200000Y-101825000D01*
X198200000Y-100925000D02*
X196200000Y-100925000D01*
X198200000Y-102125000D02*
X198200000Y-100925000D01*
X196200000Y-102125000D02*
X198200000Y-102125000D01*
X196200000Y-100925000D02*
X196200000Y-102125000D01*
D11*
X196775000Y-106400000D02*
X196775000Y-105150000D01*
X198775000Y-106400000D02*
X196775000Y-106400000D01*
X198775000Y-105150000D02*
X198775000Y-106400000D01*
X196775000Y-105150000D02*
X198775000Y-105150000D01*
D10*
X199050000Y-78475000D02*
X199650000Y-78475000D01*
X199350000Y-78375000D02*
X199050000Y-78075000D01*
X199650000Y-78075000D02*
X199350000Y-78375000D01*
X199050000Y-78075000D02*
X199650000Y-78075000D01*
X198750000Y-77075000D02*
X198750000Y-79075000D01*
X199950000Y-77075000D02*
X198750000Y-77075000D01*
X199950000Y-79075000D02*
X199950000Y-77075000D01*
X198750000Y-79075000D02*
X199950000Y-79075000D01*
D11*
X200125000Y-74925000D02*
X198875000Y-74925000D01*
X200125000Y-72925000D02*
X200125000Y-74925000D01*
X198875000Y-72925000D02*
X200125000Y-72925000D01*
X198875000Y-74925000D02*
X198875000Y-72925000D01*
M02*
