%FSLAX45Y45*%
G04 Gerber Fmt 4.5, Leading zero omitted, Abs format (unit mm)*
G04 Created by KiCad (PCBNEW (5.0.0-rc2-dev-26-g0d794b2)) date Sunday, July 01, 2018 at 09:26:57 PM*
%MOMM*%
%LPD*%
G01*
G04 APERTURE LIST*
%ADD10C,0.150000*%
%ADD11C,0.200000*%
%ADD12C,0.300000*%
G04 APERTURE END LIST*
D10*
X17018000Y-6096000D02*
X16637000Y-5715000D01*
X17399000Y-6096000D02*
X17018000Y-6096000D01*
X13970000Y-7175500D02*
X13970000Y-6477000D01*
X14795500Y-8001000D02*
X13970000Y-7175500D01*
X14795500Y-8509000D02*
X14795500Y-8001000D01*
X15049500Y-8763000D02*
X14795500Y-8509000D01*
X15049500Y-10795000D02*
X15049500Y-8763000D01*
X15367000Y-11112500D02*
X15049500Y-10795000D01*
X16700500Y-11112500D02*
X15367000Y-11112500D01*
X16764000Y-11176000D02*
X16700500Y-11112500D01*
X18478500Y-12827000D02*
X16764000Y-11176000D01*
X19113500Y-12827000D02*
X18478500Y-12827000D01*
X19367500Y-12573000D02*
X19113500Y-12827000D01*
X19367500Y-11747500D02*
X19367500Y-12573000D01*
X19558000Y-11620500D02*
X19367500Y-11747500D01*
X19875500Y-11620500D02*
X19558000Y-11620500D01*
X20066000Y-11874500D02*
X19875500Y-11620500D01*
X20066000Y-12255500D02*
X20066000Y-11874500D01*
X20510500Y-12827000D02*
X20066000Y-12255500D01*
X21336000Y-12827000D02*
X20510500Y-12827000D01*
X21399500Y-12700000D02*
X21336000Y-12827000D01*
X21399500Y-11874500D02*
X21399500Y-12700000D01*
X20891500Y-11176000D02*
X21399500Y-11874500D01*
X20891500Y-10160000D02*
X20891500Y-11176000D01*
X21145500Y-9906000D02*
X20891500Y-10160000D01*
X21145500Y-7937500D02*
X21145500Y-9906000D01*
X21209000Y-7874000D02*
X21145500Y-7937500D01*
X21336000Y-7747000D02*
X21209000Y-7874000D01*
X21336000Y-6985000D02*
X21336000Y-7747000D01*
X20447000Y-6096000D02*
X21336000Y-6985000D01*
X17399000Y-6096000D02*
X20447000Y-6096000D01*
X16510000Y-5715000D02*
X16637000Y-5715000D01*
X16129000Y-5334000D02*
X16510000Y-5715000D01*
X15113000Y-5334000D02*
X16129000Y-5334000D01*
X14986000Y-5461000D02*
X15113000Y-5334000D01*
X13970000Y-6477000D02*
X14986000Y-5461000D01*
X17400000Y-9950000D02*
X17650000Y-9950000D01*
X17900000Y-10350000D02*
X17650000Y-9950000D01*
X19500000Y-10350000D02*
X19200000Y-9950000D01*
X19500000Y-10750000D02*
X17900000Y-10750000D01*
X19500000Y-10700000D02*
X19500000Y-10750000D01*
X19500000Y-10650000D02*
X19500000Y-10700000D01*
X19500000Y-10350000D02*
X19500000Y-10650000D01*
X17900000Y-10750000D02*
X17900000Y-10350000D01*
X19200000Y-9950000D02*
X19200000Y-9900000D01*
X17400000Y-9900000D02*
X17400000Y-9950000D01*
X16800000Y-7650000D02*
X17100000Y-7650000D01*
X16800000Y-9450000D02*
X16800000Y-7650000D01*
X17100000Y-9450000D02*
X16800000Y-9450000D01*
X17400000Y-9750000D02*
X17100000Y-9450000D01*
X17400000Y-9900000D02*
X17400000Y-9750000D01*
X19450000Y-9500000D02*
X19500000Y-9500000D01*
X19200000Y-9750000D02*
X19450000Y-9500000D01*
X19750000Y-9500000D02*
X19750000Y-9450000D01*
X19500000Y-9500000D02*
X19750000Y-9500000D01*
X19200000Y-9900000D02*
X19200000Y-9750000D01*
X19750000Y-9450000D02*
X19750000Y-9400000D01*
X19750000Y-7650000D02*
X19750000Y-9400000D01*
X17350000Y-7150000D02*
X19200000Y-7150000D01*
X19450000Y-7650000D02*
X19750000Y-7650000D01*
X19400000Y-7600000D02*
X19450000Y-7650000D01*
X19200000Y-7400000D02*
X19200000Y-7150000D01*
X19400000Y-7600000D02*
X19200000Y-7400000D01*
X17300000Y-7450000D02*
X17350000Y-7400000D01*
X17350000Y-7150000D02*
X17350000Y-7400000D01*
X17100000Y-7650000D02*
X17300000Y-7450000D01*
X16000000Y-9300000D02*
X16000000Y-8900000D01*
X16400000Y-9300000D02*
X16000000Y-9300000D01*
X16400000Y-8900000D02*
X16400000Y-9300000D01*
X16000000Y-8900000D02*
X16400000Y-8900000D01*
X20300000Y-8900000D02*
X20000000Y-8900000D01*
X20300000Y-9300000D02*
X20300000Y-8900000D01*
X20000000Y-9300000D02*
X20300000Y-9300000D01*
X20000000Y-8900000D02*
X20000000Y-9300000D01*
X17186000Y-7316000D02*
G75*
G03X17186000Y-7316000I-150000J0D01*
G01*
X17186000Y-9816000D02*
G75*
G03X17186000Y-9816000I-150000J0D01*
G01*
X19686000Y-9816000D02*
G75*
G03X19686000Y-9816000I-150000J0D01*
G01*
X19686000Y-7316000D02*
G75*
G03X19686000Y-7316000I-150000J0D01*
G01*
D11*
D12*
X14248928Y-13300214D02*
X14248928Y-13000214D01*
X14320357Y-13000214D01*
X14363214Y-13014500D01*
X14391786Y-13043071D01*
X14406071Y-13071643D01*
X14420357Y-13128786D01*
X14420357Y-13171643D01*
X14406071Y-13228786D01*
X14391786Y-13257357D01*
X14363214Y-13285929D01*
X14320357Y-13300214D01*
X14248928Y-13300214D01*
X14548928Y-13300214D02*
X14548928Y-13100214D01*
X14548928Y-13157357D02*
X14563214Y-13128786D01*
X14577500Y-13114500D01*
X14606071Y-13100214D01*
X14634643Y-13100214D01*
X14734643Y-13300214D02*
X14734643Y-13100214D01*
X14734643Y-13000214D02*
X14720357Y-13014500D01*
X14734643Y-13028786D01*
X14748928Y-13014500D01*
X14734643Y-13000214D01*
X14734643Y-13028786D01*
X14920357Y-13300214D02*
X14891786Y-13285929D01*
X14877500Y-13257357D01*
X14877500Y-13000214D01*
X15077500Y-13300214D02*
X15048928Y-13285929D01*
X15034643Y-13257357D01*
X15034643Y-13000214D01*
X15420357Y-13300214D02*
X15420357Y-13000214D01*
X15520357Y-13214500D01*
X15620357Y-13000214D01*
X15620357Y-13300214D01*
X15891786Y-13300214D02*
X15891786Y-13143071D01*
X15877500Y-13114500D01*
X15848928Y-13100214D01*
X15791786Y-13100214D01*
X15763214Y-13114500D01*
X15891786Y-13285929D02*
X15863214Y-13300214D01*
X15791786Y-13300214D01*
X15763214Y-13285929D01*
X15748928Y-13257357D01*
X15748928Y-13228786D01*
X15763214Y-13200214D01*
X15791786Y-13185929D01*
X15863214Y-13185929D01*
X15891786Y-13171643D01*
X16034643Y-13100214D02*
X16034643Y-13400214D01*
X16034643Y-13114500D02*
X16063214Y-13100214D01*
X16120357Y-13100214D01*
X16148928Y-13114500D01*
X16163214Y-13128786D01*
X16177500Y-13157357D01*
X16177500Y-13243071D01*
X16163214Y-13271643D01*
X16148928Y-13285929D01*
X16120357Y-13300214D01*
X16063214Y-13300214D01*
X16034643Y-13285929D01*
X16306071Y-13271643D02*
X16320357Y-13285929D01*
X16306071Y-13300214D01*
X16291786Y-13285929D01*
X16306071Y-13271643D01*
X16306071Y-13300214D01*
X16306071Y-13114500D02*
X16320357Y-13128786D01*
X16306071Y-13143071D01*
X16291786Y-13128786D01*
X16306071Y-13114500D01*
X16306071Y-13143071D01*
M02*
