G04 #@! TF.GenerationSoftware,KiCad,Pcbnew,(5.0.0-rc2-dev-26-g0d794b2)*
G04 #@! TF.CreationDate,2018-07-01T21:26:53-07:00*
G04 #@! TF.ProjectId,FlightControlUnitBoard,466C69676874436F6E74726F6C556E69,rev?*
G04 #@! TF.SameCoordinates,Original*
G04 #@! TF.FileFunction,Copper,L2,Bot,Signal*
G04 #@! TF.FilePolarity,Positive*
%FSLAX46Y46*%
G04 Gerber Fmt 4.6, Leading zero omitted, Abs format (unit mm)*
G04 Created by KiCad (PCBNEW (5.0.0-rc2-dev-26-g0d794b2)) date Sunday, July 01, 2018 at 09:26:53 PM*
%MOMM*%
%LPD*%
G01*
G04 APERTURE LIST*
%ADD10R,2.032000X2.032000*%
%ADD11R,1.198880X1.198880*%
%ADD12R,1.300000X0.700000*%
%ADD13R,3.000000X4.000000*%
%ADD14R,4.000000X3.000000*%
%ADD15R,1.700000X1.700000*%
%ADD16O,1.700000X1.700000*%
%ADD17R,0.700000X1.300000*%
%ADD18C,0.600000*%
%ADD19C,0.600000*%
%ADD20C,2.000000*%
G04 APERTURE END LIST*
D10*
X194700000Y-109550000D03*
X197240000Y-109550000D03*
X200175000Y-69200000D03*
X202715000Y-69200000D03*
D11*
X199390000Y-77055980D03*
X199390000Y-79154020D03*
D12*
X199525000Y-72850000D03*
X199525000Y-74750000D03*
D13*
X203200000Y-84280000D03*
X203200000Y-78280000D03*
X203200000Y-102060000D03*
X203200000Y-96060000D03*
D14*
X182420000Y-111760000D03*
X188420000Y-111760000D03*
D13*
X162560000Y-102060000D03*
X162560000Y-96060000D03*
X162560000Y-84280000D03*
X162560000Y-78280000D03*
D15*
X142240000Y-66040000D03*
D16*
X142240000Y-68580000D03*
X144780000Y-66040000D03*
X144780000Y-68580000D03*
X147320000Y-66040000D03*
X147320000Y-68580000D03*
X149860000Y-66040000D03*
X149860000Y-68580000D03*
X152400000Y-66040000D03*
X152400000Y-68580000D03*
D15*
X185420000Y-121920000D03*
D16*
X187960000Y-121920000D03*
D15*
X205740000Y-121920000D03*
D16*
X208280000Y-121920000D03*
D15*
X205740000Y-73660000D03*
D16*
X208280000Y-73660000D03*
D11*
X196050980Y-101600000D03*
X198149020Y-101600000D03*
D17*
X196800000Y-105650000D03*
X198700000Y-105650000D03*
D18*
X199350000Y-77025980D03*
X196800000Y-105650000D03*
X198149020Y-101600000D03*
X199390000Y-79154020D03*
X198700000Y-105650000D03*
X196150980Y-101525000D03*
X199500000Y-74875000D03*
X199525000Y-72850000D03*
X154600000Y-57350000D03*
X157150000Y-57325000D03*
X159525000Y-57350000D03*
X163068000Y-76898500D03*
X163068000Y-78168500D03*
X163004500Y-79565500D03*
X161798000Y-79565500D03*
X161798000Y-78168500D03*
X161798000Y-76962000D03*
X161925000Y-82804000D03*
X161925000Y-84201000D03*
X161925000Y-85407500D03*
X163195000Y-85471000D03*
X163131500Y-84201000D03*
X163131500Y-82867500D03*
X163131500Y-94678500D03*
X163131500Y-96075500D03*
X163068000Y-97409000D03*
X161861500Y-97409000D03*
X161925000Y-96139000D03*
X161925000Y-94742000D03*
X149850000Y-80725000D03*
X161988500Y-100965000D03*
X161988500Y-102235000D03*
X161988500Y-103378000D03*
X163322000Y-103378000D03*
X163322000Y-102235000D03*
X163385500Y-100901500D03*
X149860000Y-83820000D03*
X177725000Y-63425000D03*
X177725030Y-63437061D03*
X175225000Y-63600000D03*
X175300000Y-63600000D03*
X172725000Y-63550000D03*
X172775000Y-63575000D03*
X170115000Y-63435000D03*
X202692000Y-97472500D03*
X202565000Y-96139000D03*
X202565000Y-94678500D03*
X203835000Y-94615000D03*
X203835000Y-96075500D03*
X203835000Y-97409000D03*
X205740000Y-68580000D03*
X203771500Y-100774500D03*
X203771500Y-101981000D03*
X203771500Y-103251000D03*
X202501500Y-103251000D03*
X202438000Y-101981000D03*
X202438000Y-100838000D03*
X166370000Y-68580000D03*
X176475000Y-68575000D03*
X173900000Y-68650000D03*
X171450000Y-68580000D03*
X202501500Y-79692500D03*
X202438000Y-78422500D03*
X202438000Y-77279500D03*
X203898500Y-77343000D03*
X203898500Y-78422500D03*
X203898500Y-79692500D03*
X203898500Y-85407500D03*
X203898500Y-84137500D03*
X203898500Y-82931000D03*
X202501500Y-82994500D03*
X202501500Y-84201000D03*
X202501500Y-85471000D03*
X207010000Y-96520000D03*
X157500000Y-102425000D03*
X182308500Y-110934500D03*
X181229000Y-110998000D03*
X181292500Y-112268000D03*
X182308500Y-112268000D03*
X183642000Y-112331500D03*
X189611000Y-112331500D03*
X188531500Y-112331500D03*
X187325000Y-112331500D03*
X187134500Y-110871000D03*
X188277500Y-110934500D03*
X189611000Y-110934500D03*
D19*
X199350000Y-77025980D02*
X199380000Y-77055980D01*
X199380000Y-77055980D02*
X199390000Y-77055980D01*
X194700000Y-109550000D02*
X194700000Y-108875000D01*
X194700000Y-108875000D02*
X196800000Y-106775000D01*
X196800000Y-106775000D02*
X196800000Y-105650000D01*
X197240000Y-109550000D02*
X198100000Y-109550000D01*
X198100000Y-109550000D02*
X200300000Y-107350000D01*
X200300000Y-107350000D02*
X200300000Y-103750980D01*
X200300000Y-103750980D02*
X198149020Y-101600000D01*
X202715000Y-69200000D02*
X202715000Y-73610000D01*
X201025000Y-77519020D02*
X199390000Y-79154020D01*
X201025000Y-75300000D02*
X201025000Y-77519020D01*
X202715000Y-73610000D02*
X201025000Y-75300000D01*
X196150980Y-101525000D02*
X196075980Y-101600000D01*
X196075980Y-101600000D02*
X196050980Y-101600000D01*
X199500000Y-74875000D02*
X199525000Y-74850000D01*
X199525000Y-74850000D02*
X199525000Y-74750000D01*
X200175000Y-69200000D02*
X200175000Y-72200000D01*
X200175000Y-72200000D02*
X199525000Y-72850000D01*
X199390000Y-79154020D02*
X199970980Y-79154020D01*
D20*
X157125000Y-57350000D02*
X154600000Y-57350000D01*
X157150000Y-57325000D02*
X157125000Y-57350000D01*
X159525000Y-57350000D02*
X149625000Y-57350000D01*
X148450000Y-58525000D02*
X148450000Y-58560000D01*
X149625000Y-57350000D02*
X148450000Y-58525000D01*
X142240000Y-66040000D02*
X142240000Y-64770000D01*
X142240000Y-64770000D02*
X148450000Y-58560000D01*
X142240000Y-68580000D02*
X142240000Y-71120000D01*
X160480000Y-84280000D02*
X162560000Y-84280000D01*
X153670000Y-77470000D02*
X160480000Y-84280000D01*
X148590000Y-77470000D02*
X153670000Y-77470000D01*
X142240000Y-71120000D02*
X148590000Y-77470000D01*
X149850000Y-83810000D02*
X149850000Y-80725000D01*
X149850000Y-83810000D02*
X149860000Y-83820000D01*
X162560000Y-102060000D02*
X160085000Y-102060000D01*
X152475000Y-94450000D02*
X152475000Y-86435000D01*
X160085000Y-102060000D02*
X152475000Y-94450000D01*
X149860000Y-83820000D02*
X152475000Y-86435000D01*
X175225000Y-63600000D02*
X177550000Y-63600000D01*
X177550000Y-63600000D02*
X177725000Y-63425000D01*
X172725000Y-63550000D02*
X175175000Y-63550000D01*
X175175000Y-63550000D02*
X175225000Y-63600000D01*
X170180000Y-63500000D02*
X172675000Y-63500000D01*
X170115000Y-63435000D02*
X170180000Y-63500000D01*
X172675000Y-63500000D02*
X172725000Y-63550000D01*
X177725000Y-63437031D02*
X177725000Y-63425000D01*
X177725030Y-63437061D02*
X177725000Y-63437031D01*
X175300000Y-63600000D02*
X175225000Y-63600000D01*
X172725000Y-63550000D02*
X172750000Y-63550000D01*
X172775000Y-63575000D02*
X172750000Y-63550000D01*
X166370000Y-59690000D02*
X170115000Y-63435000D01*
X157480000Y-59690000D02*
X166370000Y-59690000D01*
X147320000Y-66040000D02*
X147320000Y-63500000D01*
X151130000Y-59690000D02*
X147320000Y-63500000D01*
X156210000Y-59690000D02*
X151130000Y-59690000D01*
X156210000Y-59690000D02*
X157480000Y-59690000D01*
X209550000Y-78740000D02*
X209550000Y-97790000D01*
X209550000Y-97790000D02*
X208280000Y-99060000D01*
X205280000Y-102060000D02*
X208280000Y-99060000D01*
X203200000Y-102060000D02*
X205280000Y-102060000D01*
X209550000Y-78740000D02*
X211455000Y-76835000D01*
X211455000Y-71755000D02*
X211455000Y-76835000D01*
X209550000Y-69850000D02*
X211455000Y-71755000D01*
X207010000Y-69850000D02*
X209550000Y-69850000D01*
X205740000Y-68580000D02*
X207010000Y-69850000D01*
X147320000Y-71120000D02*
X147320000Y-68580000D01*
X166370000Y-68580000D02*
X160020000Y-74930000D01*
X160020000Y-74930000D02*
X151130000Y-74930000D01*
X151130000Y-74930000D02*
X147320000Y-71120000D01*
X171450000Y-68580000D02*
X173830000Y-68580000D01*
X173830000Y-68580000D02*
X173900000Y-68650000D01*
X156210000Y-62230000D02*
X165100000Y-62230000D01*
X165100000Y-62230000D02*
X168910000Y-66040000D01*
X168910000Y-66040000D02*
X171450000Y-68580000D01*
X149860000Y-66040000D02*
X149860000Y-64770000D01*
X156210000Y-62230000D02*
X152400000Y-62230000D01*
X152400000Y-62230000D02*
X149860000Y-64770000D01*
X203200000Y-84280000D02*
X203200000Y-86360000D01*
X207010000Y-93980000D02*
X207010000Y-96520000D01*
X205740000Y-92710000D02*
X207010000Y-93980000D01*
X205740000Y-88900000D02*
X205740000Y-92710000D01*
X203200000Y-86360000D02*
X205740000Y-88900000D01*
X157575000Y-104425000D02*
X157575000Y-102500000D01*
X157575000Y-102500000D02*
X157500000Y-102425000D01*
X175260000Y-106680000D02*
X175105000Y-106680000D01*
X164820000Y-106680000D02*
X160020000Y-106680000D01*
X167775000Y-103725000D02*
X164820000Y-106680000D01*
X172150000Y-103725000D02*
X167775000Y-103725000D01*
X175105000Y-106680000D02*
X172150000Y-103725000D01*
X157575000Y-104425000D02*
X160020000Y-106680000D01*
X180340000Y-111760000D02*
X182420000Y-111760000D01*
X175260000Y-106680000D02*
X180340000Y-111760000D01*
X182420000Y-111760000D02*
X182880000Y-111760000D01*
M02*
