G04 #@! TF.GenerationSoftware,KiCad,Pcbnew,(5.0.0-rc2-dev-26-g0d794b2)*
G04 #@! TF.CreationDate,2018-07-01T21:26:53-07:00*
G04 #@! TF.ProjectId,FlightControlUnitBoard,466C69676874436F6E74726F6C556E69,rev?*
G04 #@! TF.SameCoordinates,Original*
G04 #@! TF.FileFunction,Other,User*
%FSLAX46Y46*%
G04 Gerber Fmt 4.6, Leading zero omitted, Abs format (unit mm)*
G04 Created by KiCad (PCBNEW (5.0.0-rc2-dev-26-g0d794b2)) date Sunday, July 01, 2018 at 09:26:53 PM*
%MOMM*%
%LPD*%
G01*
G04 APERTURE LIST*
%ADD10C,0.050000*%
G04 APERTURE END LIST*
D10*
X192950000Y-107800000D02*
X199000000Y-107800000D01*
X192950000Y-111300000D02*
X199000000Y-111300000D01*
X192950000Y-107800000D02*
X192950000Y-111300000D01*
X199000000Y-107800000D02*
X199000000Y-111300000D01*
X198425000Y-67450000D02*
X204475000Y-67450000D01*
X198425000Y-70950000D02*
X204475000Y-70950000D01*
X198425000Y-67450000D02*
X198425000Y-70950000D01*
X204475000Y-67450000D02*
X204475000Y-70950000D01*
X200340000Y-76205000D02*
X198440000Y-76205000D01*
X198440000Y-76205000D02*
X198440000Y-80005000D01*
X198440000Y-80005000D02*
X200340000Y-80005000D01*
X200340000Y-80005000D02*
X200340000Y-76205000D01*
X198525000Y-72200000D02*
X198525000Y-75400000D01*
X200525000Y-72200000D02*
X200525000Y-75400000D01*
X198525000Y-72200000D02*
X200525000Y-72200000D01*
X198525000Y-75400000D02*
X200525000Y-75400000D01*
X140440000Y-64240000D02*
X154190000Y-64240000D01*
X154190000Y-64240000D02*
X154190000Y-70390000D01*
X154190000Y-70390000D02*
X140440000Y-70390000D01*
X140440000Y-70390000D02*
X140440000Y-64240000D01*
X183620000Y-120120000D02*
X189770000Y-120120000D01*
X189770000Y-120120000D02*
X189770000Y-123720000D01*
X189770000Y-123720000D02*
X183620000Y-123720000D01*
X183620000Y-123720000D02*
X183620000Y-120120000D01*
X203940000Y-120120000D02*
X210090000Y-120120000D01*
X210090000Y-120120000D02*
X210090000Y-123720000D01*
X210090000Y-123720000D02*
X203940000Y-123720000D01*
X203940000Y-123720000D02*
X203940000Y-120120000D01*
X203940000Y-71860000D02*
X210090000Y-71860000D01*
X210090000Y-71860000D02*
X210090000Y-75460000D01*
X210090000Y-75460000D02*
X203940000Y-75460000D01*
X203940000Y-75460000D02*
X203940000Y-71860000D01*
X195200000Y-100650000D02*
X195200000Y-102550000D01*
X195200000Y-102550000D02*
X199000000Y-102550000D01*
X199000000Y-102550000D02*
X199000000Y-100650000D01*
X199000000Y-100650000D02*
X195200000Y-100650000D01*
X196150000Y-106650000D02*
X199350000Y-106650000D01*
X196150000Y-104650000D02*
X199350000Y-104650000D01*
X196150000Y-106650000D02*
X196150000Y-104650000D01*
X199350000Y-106650000D02*
X199350000Y-104650000D01*
M02*
